<?xml version="1.0" standalone="no"?>
<!DOCTYPE svg PUBLIC "-//W3C//DTD SVG 20010904//EN"
 "http://www.w3.org/TR/2001/REC-SVG-20010904/DTD/svg10.dtd">
<svg version="1.0" xmlns="http://www.w3.org/2000/svg"
 width="200.000000pt" height="200.000000pt" viewBox="0 0 200.000000 200.000000"
 preserveAspectRatio="xMidYMid meet">

<g transform="translate(0.000000,200.000000) scale(0.100000,-0.100000)"
fill="#000000" stroke="none">
<path d="M0 1000 l0 -1000 1000 0 1000 0 0 1000 0 1000 -1000 0 -1000 0 0
-1000z m848 260 c7 -12 16 -18 21 -16 16 10 20 -48 5 -71 -18 -29 -58 -30 -77
-3 -17 25 -11 81 9 73 9 -3 14 2 14 16 0 27 12 27 28 1z m-538 -94 l0 -55 34
14 c88 37 160 -42 141 -155 -15 -88 -105 -137 -203 -110 l-42 11 0 149 c0 141
-1 149 -21 155 -29 10 -18 29 22 36 70 13 69 14 69 -45z m1060 -5 l0 -59 30
14 c16 9 48 14 72 12 56 -4 68 -27 68 -141 0 -69 3 -89 15 -93 8 -4 15 -12 15
-20 0 -11 -16 -14 -65 -14 -49 0 -65 3 -65 14 0 8 7 16 15 20 12 4 15 23 15
84 0 98 -12 120 -61 106 l-34 -10 -3 -88 c-3 -81 -1 -88 18 -93 11 -3 20 -12
20 -19 0 -11 -17 -14 -70 -14 -53 0 -70 3 -70 14 0 8 7 16 15 20 12 4 15 30
15 142 0 127 -1 136 -20 141 -29 8 -24 31 8 36 83 12 82 13 82 -52z m330 4 c0
-33 2 -35 35 -35 28 0 35 -4 35 -20 0 -16 -7 -20 -35 -20 l-36 0 3 -92 3 -93
32 1 c46 2 52 -23 8 -42 -42 -17 -87 -18 -103 -2 -8 8 -12 48 -12 116 0 95 -2
104 -20 109 -25 7 -25 19 0 33 11 6 27 26 35 45 9 24 21 35 34 35 17 0 21 -6
21 -35z m-1082 -59 l3 -27 36 31 c45 40 67 36 71 -13 3 -36 2 -37 -32 -37 -62
0 -66 -5 -66 -85 l0 -72 30 -6 c18 -4 30 -13 30 -22 0 -12 -15 -15 -80 -15
-65 0 -80 3 -80 15 0 9 7 18 15 21 12 5 15 25 15 94 0 69 -3 89 -15 94 -8 3
-15 14 -15 25 0 15 8 21 33 24 47 5 52 3 55 -27z m282 -213 c11 -3 20 -12 20
-19 0 -11 -18 -14 -75 -14 -62 0 -73 2 -69 15 4 8 12 15 20 15 11 0 14 20 14
95 0 80 -3 95 -16 95 -10 0 -14 7 -12 23 2 18 11 23 48 27 l45 5 3 -119 c2
-108 4 -118 22 -123z m275 235 c11 1 31 2 45 4 21 2 25 -1 25 -22 0 -18 -6
-26 -23 -28 -17 -3 -22 -10 -22 -33 0 -62 -33 -90 -115 -99 -42 -4 -50 -8 -50
-25 0 -18 8 -21 84 -25 72 -5 86 -9 102 -29 68 -84 -68 -187 -199 -152 -68 19
-92 74 -51 117 18 19 19 25 7 43 -11 18 -11 26 3 49 15 27 15 30 -2 51 -11 13
-19 39 -19 60 0 65 64 106 150 94 25 -3 54 -5 65 -5z"/>
<path d="M323 1083 c-9 -3 -13 -33 -13 -99 l0 -94 28 0 c16 0 36 8 45 18 43
48 24 183 -25 181 -13 0 -29 -3 -35 -6z"/>
<path d="M1044 1087 c-10 -28 1 -90 19 -101 31 -20 52 4 52 60 0 48 -1 49 -33
52 -21 2 -34 -2 -38 -11z"/>
<path d="M1027 843 c-4 -3 -7 -19 -7 -34 0 -55 74 -77 124 -38 51 40 23 79
-58 79 -29 0 -56 -3 -59 -7z"/>
</g>
</svg>
