<?xml version="1.0" encoding="UTF-8"?>
<svg xmlns="http://www.w3.org/2000/svg" xmlns:xlink="http://www.w3.org/1999/xlink" width="20px" height="20px" viewBox="0 0 20 20" version="1.1">
<g id="surface1">
<path style=" stroke:none;fill-rule:nonzero;fill:rgb(0%,0%,0%);fill-opacity:1;" d="M 0 10 L 0 20 L 20 20 L 20 0 L 0 0 Z M 8.480469 7.398438 C 8.550781 7.519531 8.640625 7.578125 8.691406 7.558594 C 8.851562 7.460938 8.890625 8.039062 8.738281 8.269531 C 8.558594 8.558594 8.160156 8.570312 7.96875 8.300781 C 7.800781 8.050781 7.859375 7.488281 8.058594 7.570312 C 8.148438 7.601562 8.199219 7.550781 8.199219 7.410156 C 8.199219 7.140625 8.320312 7.140625 8.480469 7.398438 Z M 3.101562 8.339844 L 3.101562 8.890625 L 3.441406 8.75 C 4.320312 8.378906 5.039062 9.171875 4.851562 10.300781 C 4.699219 11.179688 3.800781 11.671875 2.820312 11.398438 L 2.398438 11.289062 L 2.398438 9.800781 C 2.398438 8.390625 2.390625 8.308594 2.191406 8.25 C 1.898438 8.148438 2.011719 7.960938 2.410156 7.890625 C 3.109375 7.761719 3.101562 7.75 3.101562 8.339844 Z M 13.699219 8.390625 L 13.699219 8.980469 L 14 8.839844 C 14.160156 8.75 14.480469 8.699219 14.71875 8.71875 C 15.28125 8.761719 15.398438 8.988281 15.398438 10.128906 C 15.398438 10.820312 15.429688 11.019531 15.550781 11.058594 C 15.628906 11.101562 15.699219 11.179688 15.699219 11.261719 C 15.699219 11.371094 15.539062 11.398438 15.050781 11.398438 C 14.558594 11.398438 14.398438 11.371094 14.398438 11.261719 C 14.398438 11.179688 14.46875 11.101562 14.550781 11.058594 C 14.671875 11.019531 14.699219 10.828125 14.699219 10.21875 C 14.699219 9.238281 14.578125 9.019531 14.089844 9.160156 L 13.75 9.261719 L 13.71875 10.140625 C 13.691406 10.949219 13.710938 11.019531 13.898438 11.070312 C 14.011719 11.101562 14.101562 11.191406 14.101562 11.261719 C 14.101562 11.371094 13.929688 11.398438 13.398438 11.398438 C 12.871094 11.398438 12.699219 11.371094 12.699219 11.261719 C 12.699219 11.179688 12.769531 11.101562 12.851562 11.058594 C 12.96875 11.019531 13 10.761719 13 9.640625 C 13 8.371094 12.988281 8.28125 12.800781 8.230469 C 12.511719 8.148438 12.558594 7.921875 12.878906 7.871094 C 13.710938 7.75 13.699219 7.738281 13.699219 8.390625 Z M 17 8.351562 C 17 8.679688 17.019531 8.699219 17.351562 8.699219 C 17.628906 8.699219 17.699219 8.738281 17.699219 8.898438 C 17.699219 9.058594 17.628906 9.101562 17.351562 9.101562 L 16.988281 9.101562 L 17.019531 10.019531 L 17.050781 10.949219 L 17.371094 10.941406 C 17.828125 10.921875 17.890625 11.171875 17.449219 11.359375 C 17.03125 11.53125 16.578125 11.539062 16.421875 11.378906 C 16.339844 11.300781 16.300781 10.898438 16.300781 10.21875 C 16.300781 9.269531 16.28125 9.179688 16.101562 9.128906 C 15.851562 9.058594 15.851562 8.941406 16.101562 8.800781 C 16.210938 8.738281 16.371094 8.539062 16.449219 8.351562 C 16.539062 8.109375 16.660156 8 16.789062 8 C 16.960938 8 17 8.058594 17 8.351562 Z M 6.179688 8.941406 L 6.210938 9.210938 L 6.570312 8.898438 C 7.019531 8.5 7.238281 8.539062 7.28125 9.03125 C 7.308594 9.390625 7.300781 9.398438 6.960938 9.398438 C 6.339844 9.398438 6.300781 9.449219 6.300781 10.25 L 6.300781 10.96875 L 6.601562 11.03125 C 6.78125 11.070312 6.898438 11.160156 6.898438 11.25 C 6.898438 11.371094 6.75 11.398438 6.101562 11.398438 C 5.449219 11.398438 5.300781 11.371094 5.300781 11.25 C 5.300781 11.160156 5.371094 11.070312 5.449219 11.039062 C 5.570312 10.988281 5.601562 10.789062 5.601562 10.101562 C 5.601562 9.410156 5.570312 9.210938 5.449219 9.160156 C 5.371094 9.128906 5.300781 9.019531 5.300781 8.910156 C 5.300781 8.761719 5.378906 8.699219 5.628906 8.671875 C 6.101562 8.621094 6.148438 8.640625 6.179688 8.941406 Z M 9 11.070312 C 9.109375 11.101562 9.199219 11.191406 9.199219 11.261719 C 9.199219 11.371094 9.019531 11.398438 8.449219 11.398438 C 7.828125 11.398438 7.71875 11.378906 7.761719 11.25 C 7.800781 11.171875 7.878906 11.101562 7.960938 11.101562 C 8.070312 11.101562 8.101562 10.898438 8.101562 10.148438 C 8.101562 9.351562 8.070312 9.199219 7.941406 9.199219 C 7.839844 9.199219 7.800781 9.128906 7.820312 8.96875 C 7.839844 8.789062 7.929688 8.738281 8.300781 8.699219 L 8.75 8.648438 L 8.78125 9.839844 C 8.800781 10.921875 8.820312 11.019531 9 11.070312 Z M 11.75 8.71875 C 11.859375 8.710938 12.058594 8.699219 12.199219 8.679688 C 12.410156 8.660156 12.449219 8.691406 12.449219 8.898438 C 12.449219 9.078125 12.390625 9.160156 12.21875 9.179688 C 12.050781 9.210938 12 9.28125 12 9.511719 C 12 10.128906 11.671875 10.410156 10.851562 10.5 C 10.429688 10.539062 10.351562 10.578125 10.351562 10.75 C 10.351562 10.929688 10.429688 10.960938 11.191406 11 C 11.910156 11.050781 12.050781 11.089844 12.210938 11.289062 C 12.890625 12.128906 11.53125 13.160156 10.21875 12.808594 C 9.539062 12.621094 9.300781 12.070312 9.710938 11.640625 C 9.890625 11.449219 9.898438 11.390625 9.78125 11.210938 C 9.671875 11.03125 9.671875 10.949219 9.808594 10.71875 C 9.960938 10.449219 9.960938 10.421875 9.789062 10.210938 C 9.679688 10.078125 9.601562 9.820312 9.601562 9.609375 C 9.601562 8.960938 10.238281 8.550781 11.101562 8.671875 C 11.351562 8.699219 11.640625 8.71875 11.75 8.71875 Z M 11.75 8.71875 "/>
<path style=" stroke:none;fill-rule:nonzero;fill:rgb(0%,0%,0%);fill-opacity:1;" d="M 3.230469 9.171875 C 3.140625 9.199219 3.101562 9.5 3.101562 10.160156 L 3.101562 11.101562 L 3.378906 11.101562 C 3.539062 11.101562 3.738281 11.019531 3.828125 10.921875 C 4.261719 10.441406 4.070312 9.089844 3.578125 9.109375 C 3.449219 9.109375 3.289062 9.140625 3.230469 9.171875 Z M 3.230469 9.171875 "/>
<path style=" stroke:none;fill-rule:nonzero;fill:rgb(0%,0%,0%);fill-opacity:1;" d="M 10.441406 9.128906 C 10.339844 9.410156 10.449219 10.03125 10.628906 10.140625 C 10.941406 10.339844 11.148438 10.101562 11.148438 9.539062 C 11.148438 9.058594 11.140625 9.050781 10.820312 9.019531 C 10.609375 9 10.480469 9.039062 10.441406 9.128906 Z M 10.441406 9.128906 "/>
<path style=" stroke:none;fill-rule:nonzero;fill:rgb(0%,0%,0%);fill-opacity:1;" d="M 10.269531 11.570312 C 10.230469 11.601562 10.199219 11.761719 10.199219 11.910156 C 10.199219 12.460938 10.941406 12.679688 11.441406 12.289062 C 11.949219 11.890625 11.671875 11.5 10.859375 11.5 C 10.570312 11.5 10.300781 11.53125 10.269531 11.570312 Z M 10.269531 11.570312 "/>
</g>
</svg>
