<svg width="1000" height="1000" viewBox="0 0 1000 1000" fill="none" xmlns="http://www.w3.org/2000/svg">
<path d="M512.259 82.0808C503.242 78.136 492.988 78.136 483.971 82.0808L75.8928 260.615L403.33 403.869L498.115 445.337L807.242 310.094L920.337 260.615L512.259 82.0808Z" fill="#F8FEFF"/>
<path d="M75.8928 260.615V641.369L403.33 403.869L75.8928 260.615Z" fill="#F8FEFF"/>
<path d="M807.242 310.094L498.115 445.337V486.806V784.623L807.242 310.094Z" fill="#F8FEFF"/>
<path d="M498.115 784.623V924.107L592.361 884.557L920.337 358.631V260.615L807.242 310.094L498.115 784.623Z" fill="#F8FEFF"/>
<path d="M498.115 924.107V784.623V486.806L113.591 762.744L498.115 924.107Z" fill="#F8FEFF"/>
<path d="M75.8928 641.369V723.464C75.8928 737.677 84.4199 750.503 97.5257 756.003L113.591 762.744L498.115 486.806V445.337L403.33 403.869L75.8928 641.369Z" fill="#F8FEFF"/>
<path d="M592.361 884.557L898.704 756.003C911.81 750.503 920.337 737.677 920.337 723.464V358.631L592.361 884.557Z" fill="#F8FEFF"/>
<path d="M75.8928 260.615L483.971 82.0808C492.988 78.136 503.242 78.136 512.259 82.0808L920.337 260.615M75.8928 260.615V641.369M75.8928 260.615L403.33 403.869M920.337 260.615L807.242 310.094M920.337 260.615V358.631M498.115 924.107V784.623M498.115 924.107L592.361 884.557M498.115 924.107L113.591 762.744M498.115 445.337L807.242 310.094M498.115 445.337L403.33 403.869M498.115 445.337V486.806M498.115 784.623L807.242 310.094M498.115 784.623V486.806M592.361 884.557L898.704 756.003C911.81 750.503 920.337 737.677 920.337 723.464V358.631M592.361 884.557L920.337 358.631M75.8928 641.369V723.464C75.8928 737.677 84.4199 750.503 97.5257 756.003L113.591 762.744M75.8928 641.369L403.33 403.869M113.591 762.744L498.115 486.806" stroke="#F8FEFF" stroke-width="30.1587" stroke-linecap="round" stroke-linejoin="round"/>
<path d="M505.498 116.609C501.993 115.076 498.007 115.076 494.502 116.609L115.919 282.24L413.778 412.553L500 450.275L781.203 327.249L884.081 282.24L505.498 116.609Z" fill="#0CA5E9"/>
<path d="M115.919 282.24V628.599L413.778 412.553L115.919 282.24Z" fill="#0CA5E9"/>
<path d="M781.203 327.249L500 450.275V487.997V758.912L781.203 327.249Z" fill="#0CA5E9"/>
<path d="M500 758.912V885.796L585.732 849.819L884.081 371.401V282.24L781.203 327.249L500 758.912Z" fill="#C2FCF6"/>
<path d="M500 885.796V758.912V487.997L150.212 739.01L500 885.796Z" fill="#F8FEFF"/>
<path d="M115.919 628.599V715.499C115.919 721.024 119.233 726.01 124.328 728.148L150.212 739.01L500 487.997V450.275L413.778 412.553L115.919 628.599Z" fill="#F8FEFF"/>
<path d="M585.732 849.819L875.672 728.148C880.767 726.01 884.081 721.024 884.081 715.499V371.401L585.732 849.819Z" fill="#F8FEFF"/>
<path d="M115.919 282.24L494.502 116.609C498.007 115.076 501.993 115.076 505.498 116.609L884.081 282.24M115.919 282.24V628.599M115.919 282.24L413.778 412.553M884.081 282.24L781.203 327.249M884.081 282.24V371.401M500 885.796V758.912M500 885.796L585.732 849.819M500 885.796L150.212 739.01M500 450.275L781.203 327.249M500 450.275L413.778 412.553M500 450.275V487.997M500 758.912L781.203 327.249M500 758.912V487.997M585.732 849.819L875.672 728.148C880.767 726.01 884.081 721.024 884.081 715.499V371.401M585.732 849.819L884.081 371.401M115.919 628.599V715.499C115.919 721.024 119.233 726.01 124.328 728.148L150.212 739.01M115.919 628.599L413.778 412.553M150.212 739.01L500 487.997" stroke="#1E1E1E" stroke-width="27.4344" stroke-linecap="round" stroke-linejoin="round"/>
</svg>
