<?xml version="1.0" encoding="utf-8"?>
<!-- Generator: Adobe Illustrator 25.0.0, SVG Export Plug-In . SVG Version: 6.00 Build 0)  -->
<svg version="1.1" xmlns="http://www.w3.org/2000/svg" xmlns:xlink="http://www.w3.org/1999/xlink" x="0px" y="0px"
	 viewBox="0 0 345.07 345.07" style="enable-background:new 0 0 345.07 345.07;" xml:space="preserve">
<style type="text/css">
	.st0{fill:#F6E1DC;}
	.st1{fill:#F0AF9B;}
	.st2{fill:#FFFFFF;}
	.st3{fill:#080717;}
	.st4{fill:none;stroke:#85BAC6;stroke-width:0.4121;stroke-miterlimit:10;}
	.st5{fill:#F2ECDE;}
	.st6{fill:#85BAC6;}
	.st7{fill:#FCDEDE;}
	.st8{fill:#AAD2DC;}
	.st9{fill:#F5F5F5;}
	.st10{fill:#E8EDC5;}
	.st11{fill:#B9D2D7;}
	.st12{fill:#FFFFFF;stroke:#000000;stroke-width:2;stroke-linecap:round;stroke-linejoin:round;stroke-miterlimit:10;}
	.st13{fill:#CEE1E7;}
	.st14{fill:#EDE6E4;}
	.st15{fill:#FDE3EC;}
	.st16{fill:#FDEDE0;}
	.st17{fill:#C7E1E0;}
	.st18{fill:#EFCBBF;}
	.st19{fill:#23285C;}
	.st20{fill:#010101;}
	.st21{fill:#C6E0F5;}
	.st22{fill:#DDD6CC;}
	.st23{fill:#E0E0E0;}
	.st24{fill:#F3F3F3;}
</style>
<g id="Layer_3">
</g>
<g id="_x3C_Layer_x3E_">
	<g>

			<ellipse transform="matrix(0.7071 -0.7071 0.7071 0.7071 -71.4659 172.5338)" class="st22" cx="172.53" cy="172.53" rx="172.53" ry="172.53"/>
		<path class="st3" d="M224.65,140.5c0,0,6.98-34.42,7.44-49.33c0.45-14.91-11.31-24.64-29.71-35.92
			c-18.4-11.27-15.99-8.71-10.37-11.41c5.63-2.69-10.59-10.46-33.47-6.76c-22.88,3.71-61.19,17.85-45.59,58.5
			C128.55,136.23,213.21,176.89,224.65,140.5z"/>
		<g>
			<path class="st2" d="M248.31,230.56c0,0-15.57-4.1-23.15-18.87c-7.59-14.77-11.66-31.74-6.39-41.52
				c5.27-9.79,18.5-39.36,5.28-45.24c-8.78-3.9-12.26,10.59-16.66,16.58c-4.39,5.99-4.24,1.02-5.33-7.24
				c-1.09-8.26-7.5-23.76-14.66-27.42c-7.16-3.66-1.21-29.31,4.86-33.91c6.07-4.6-22.22,0.85-40.93-0.48
				c-18.71-1.34-26.09-4.05-37.43,10.34c-11.34,14.39-14.36,31.71-13.57,49.9c0.78,18.2,13.09,60.09,13.96,69.3
				c0.87,9.22,3.87,14.72,19.22,17.51c3.25,0.59,8.41,5.04,10.15,16.65c4.73,31.52,14.94,38.73,52.8,34.68
				C218.54,268.47,233.51,255.86,248.31,230.56z"/>
			<path d="M179.85,274c-25.5,0-34.13-9.77-38.29-37.53c-1.63-10.84-6.22-14.46-8.42-14.86c-16.29-2.96-20.02-9.36-20.97-19.41
				c-0.32-3.34-2.32-11.63-4.63-21.23c-3.94-16.34-8.84-36.67-9.34-48.17c-0.92-21.39,3.67-38.17,14.03-51.32
				c10.7-13.58,18.65-12.9,33.07-11.65c1.92,0.17,3.97,0.34,6.19,0.5c8.21,0.58,18.41-0.17,26.61-0.78
				c12.92-0.95,16.01-1.08,16.97,1.46c0.33,0.88,0.34,2.23-1.52,3.64c-3.56,2.7-7.97,16.43-7.2,25.19c0.24,2.71,0.98,4.57,2.03,5.11
				c8.44,4.31,14.77,21.2,15.81,29.05c0.14,1.06,0.26,2.06,0.37,3c0.16,1.34,0.34,2.87,0.54,4c0.17-0.21,0.36-0.46,0.57-0.75
				c1.05-1.43,2.1-3.51,3.21-5.7c3.25-6.44,7.71-15.27,16.04-11.56c2.9,1.29,4.93,3.57,6.02,6.77c4.54,13.27-8.76,38.59-10.29,41.43
				c-4.39,8.14-1.93,23.29,6.41,39.53c7.03,13.71,21.65,17.75,21.79,17.79c0.64,0.17,1.17,0.64,1.43,1.25
				c0.25,0.62,0.21,1.32-0.13,1.89c-15.78,26.97-31.26,38.94-53.46,41.31C190.39,273.63,184.8,274,179.85,274z M135.05,73.48
				c-7.72,0-12.68,2.04-19.46,10.65c-9.7,12.31-13.99,28.17-13.12,48.49c0.48,11.08,5.33,31.19,9.23,47.35
				c2.45,10.16,4.39,18.19,4.73,21.83c0.72,7.64,2.32,12.85,17.48,15.61c4.32,0.79,10.03,6.08,11.88,18.43
				c4.59,30.63,14.03,36.77,50.46,32.87c20.05-2.15,34.34-12.91,48.88-36.96c-4.99-1.91-15.78-7.23-21.86-19.08
				c-7.03-13.7-12.4-32.32-6.37-43.51c4.87-9.04,13.23-28.62,10.01-38.02c-0.7-2.06-1.92-3.45-3.72-4.25
				c-4.29-1.91-6.94,2.56-10.49,9.59c-1.19,2.36-2.32,4.58-3.58,6.3c-1.54,2.1-3.26,3.98-5.38,3.42c-2.47-0.65-2.81-3.51-3.43-8.7
				c-0.11-0.92-0.23-1.91-0.36-2.95c-1.05-7.97-7.32-22.64-13.51-25.8c-2.49-1.27-3.95-4.15-4.34-8.54
				c-0.7-8.02,2.44-21.14,6.97-27.01c-2.71,0.04-6.85,0.34-10.64,0.62c-8.34,0.62-18.71,1.39-27.23,0.78
				c-2.24-0.16-4.31-0.34-6.25-0.51C141.12,73.75,137.9,73.48,135.05,73.48z"/>
		</g>
		<path class="st3" d="M205.24,181.04c0,0-15.23,22.5-24.58,28.33c-9.36,5.84-41.52,6.39-52.63,6.81
			c-11.11,0.43,3.51-2.19,26.45,11.14c22.93,13.32,51.49,36.96,54.13,25.56c2.64-11.4,7.01-32.41,4.97-40.89
			C211.54,203.52,205.24,181.04,205.24,181.04z"/>
		<g>
			<path d="M129.26,159.59c-0.06,0-0.12,0-0.18-0.01c-8.79-0.71-15.42-7.89-15.7-8.19c-0.53-0.59-0.7-1.42-0.43-2.16l11.83-32.82
				c0.4-1.11,1.62-1.68,2.74-1.29c1.11,0.4,1.68,1.63,1.29,2.74l-11.37,31.53c1.89,1.74,6.55,5.49,11.99,5.94
				c1.18,0.1,2.05,1.13,1.96,2.3C131.3,158.74,130.36,159.59,129.26,159.59z"/>
		</g>
		<g>
			<path d="M167.55,109.66c-0.43,0-0.87-0.13-1.25-0.4c-8.25-5.96-12.66-4.19-18.76-1.74c-1.01,0.41-2.05,0.82-3.13,1.21
				c-1.11,0.4-2.33-0.17-2.74-1.28c-0.4-1.11,0.17-2.33,1.28-2.74c1.03-0.37,2.02-0.77,2.99-1.16c6.24-2.51,12.69-5.09,22.85,2.25
				c0.96,0.69,1.17,2.03,0.48,2.98C168.86,109.35,168.21,109.66,167.55,109.66z"/>
		</g>
		<g>
			<path d="M97.89,114.45c-0.27,0-0.55-0.05-0.82-0.16c-1.09-0.45-1.6-1.7-1.15-2.79c1.6-3.83,7.32-7.15,11.54-6.7
				c2.32,0.25,4.32,1.19,6.25,2.1c1.69,0.79,3.28,1.55,4.88,1.72c1.17,0.12,2.02,1.18,1.9,2.35c-0.12,1.17-1.17,2.03-2.35,1.9
				c-2.32-0.25-4.32-1.19-6.25-2.1c-1.69-0.79-3.28-1.54-4.89-1.72c-2.36-0.25-6.25,1.96-7.14,4.1
				C99.52,113.95,98.73,114.45,97.89,114.45z"/>
		</g>
		<path d="M145.64,127.04c0,3.15,1.84,5.71,4.11,5.71c2.27,0,4.11-2.56,4.11-5.71c0-3.15-1.84-5.71-4.11-5.71
			C147.48,121.33,145.64,123.88,145.64,127.04z"/>
		<path d="M104.51,127.06c0,3.15,1.84,5.71,4.11,5.71c2.27,0,4.11-2.56,4.11-5.71c0-3.15-1.84-5.71-4.11-5.71
			C106.35,121.35,104.51,123.91,104.51,127.06z"/>
		<g>
			<path d="M139.12,190.7c-5.56,0-14.97-2.3-17.46-17.24c-0.1-0.59,0.05-1.19,0.42-1.66c0.37-0.47,0.91-0.77,1.51-0.82
				c6.43-0.55,21.72-1.62,24.92,0.3c1.98,1.19,2.6,4.2,1.69,8.25c-1.16,5.18-4.42,10.61-9.08,11.07
				C140.55,190.66,139.87,190.7,139.12,190.7z M126.35,175.05c2.51,10.21,9.09,11.83,14.35,11.3c1.35-0.14,2.87-1.67,4.05-4.1
				c1.58-3.24,1.82-6.47,1.44-7.36C144.26,174.18,134.94,174.4,126.35,175.05z"/>
		</g>
		<g>
			<path d="M69.54,309.68c-0.23,0-0.46-0.04-0.68-0.11c-1.12-0.38-1.72-1.59-1.34-2.71L78,275.74c7.28-21.59,26.6-37.23,49.24-39.84
				l16.19-1.87c1.17-0.15,2.23,0.7,2.37,1.88c0.14,1.17-0.7,2.23-1.88,2.37l-16.19,1.87c-21,2.42-38.93,16.93-45.68,36.96
				l-10.48,31.11C71.27,309.11,70.43,309.68,69.54,309.68z"/>
		</g>
		<g>
			<path d="M326.05,251.41c-0.56,0-1.13-0.22-1.55-0.67c-8.34-8.78-19.58-14.07-31.65-14.92l-44.69-3.13
				c-1.18-0.08-2.06-1.1-1.98-2.28c0.08-1.18,1.08-2.05,2.28-1.98l44.69,3.13c13.14,0.92,25.38,6.69,34.45,16.24
				c0.81,0.86,0.78,2.21-0.08,3.02C327.11,251.22,326.58,251.41,326.05,251.41z"/>
		</g>
	</g>
</g>
</svg>
