<?xml version="1.0" encoding="utf-8"?>
<!-- Generator: Adobe Illustrator 25.0.0, SVG Export Plug-In . SVG Version: 6.00 Build 0)  -->
<svg version="1.1" xmlns="http://www.w3.org/2000/svg" xmlns:xlink="http://www.w3.org/1999/xlink" x="0px" y="0px"
	 viewBox="0 0 345.07 345.07" style="enable-background:new 0 0 345.07 345.07;" xml:space="preserve">
<style type="text/css">
	.st0{fill:#F5F5F5;}
	.st1{fill:#E8EDC5;}
	.st2{fill:#FFFFFF;}
	.st3{fill:#85BAC6;}
	.st4{fill:#F6E1DC;}
	.st5{fill:#080717;}
	.st6{fill:none;stroke:#080717;stroke-width:2;stroke-linecap:round;stroke-linejoin:round;stroke-miterlimit:10;}
	.st7{fill:#F2ECDE;}
	.st8{fill:#C7E1E0;}
	.st9{fill:#FCDEDE;}
	.st10{fill:#EFCBBF;}
	.st11{fill:#CEE1E7;}
	.st12{fill:#FDEDE0;}
	.st13{fill:#B9D2D7;}
	.st14{fill:#EDE6E4;}
	.st15{fill:#FDE3EC;}
	.st16{fill:#DDD6CC;}
	.st17{fill:#F3F3F3;}
	.st18{fill:#E0D5C1;}
	.st19{fill:none;stroke:#000000;stroke-width:2;stroke-linecap:round;stroke-linejoin:round;stroke-miterlimit:10;}
	.st20{fill:#E0E0E0;}
	.st21{fill:#DBDDC0;}
</style>
<g id="Layer_3">
</g>
<g id="_x3C_Layer_x3E_">
	<g>

			<ellipse transform="matrix(0.7071 -0.7071 0.7071 0.7071 -71.4658 172.5338)" class="st12" cx="172.53" cy="172.53" rx="172.53" ry="172.53"/>
		<path d="M236.14,83.2c-26.21,0-49.68,12.94-65.54,33.34c-9.36-4.83-19.79-7.54-30.8-7.54c-13.68,0-26.49,4.18-37.43,11.43
			c-7.86-5.06-16.97-8.01-26.71-8.01c-29.44,0-53.3,26.45-53.3,59.07c0,32.62,40.78,95.87,117.45,99.44c16.3,0.76,76.46,4,96.34,4
			c47.77,0,86.5-42.92,86.5-95.87C322.65,126.12,283.92,83.2,236.14,83.2z"/>
		<path class="st3" d="M172.53,345.07c37.15,0,71.54-11.78,99.69-31.76l-3.65-9.71c-5.8-15.43-18.5-27.26-34.3-31.97l-88.3-26.3
			c-20.21-6.02-42.05,0.58-55.55,16.78l-32.67,39.21C88.26,328.51,128.45,345.07,172.53,345.07z"/>
		<g>
			<path class="st3" d="M119.54,217.27c-3.34,0-6.57-1.08-9.28-3.14c-6.76-5.14-8.08-14.81-2.95-21.58c2.4-3.15,5.87-5.24,9.78-5.88
				c1.16-0.19,2.26,0.6,2.45,1.76c0.19,1.16-0.6,2.26-1.77,2.45c-2.82,0.46-5.33,1.97-7.06,4.25c-1.8,2.37-2.56,5.29-2.16,8.24
				c0.4,2.94,1.93,5.56,4.29,7.35c4.89,3.71,11.88,2.75,15.59-2.13c3.71-4.88,2.75-11.88-2.13-15.59c-0.94-0.71-1.12-2.05-0.41-2.99
				c0.71-0.94,2.06-1.12,2.99-0.41c6.76,5.14,8.08,14.81,2.95,21.58c-2.49,3.27-6.1,5.39-10.18,5.94
				C120.95,217.22,120.24,217.27,119.54,217.27z"/>
		</g>
		<path class="st2" d="M215.1,290.02h-39.77c-7.1,0-12.86-5.76-12.86-12.86V176.12h58.19v108.33
			C220.67,287.52,218.18,290.02,215.1,290.02z"/>
		<polygon points="204.08,189.31 162.47,229.17 162.47,180.28 204.08,180.28 		"/>
		<ellipse transform="matrix(0.2298 -0.9732 0.9732 0.2298 3.1088 201.0655)" cx="128.58" cy="98.57" rx="54.07" ry="54.07"/>
		<ellipse transform="matrix(0.2298 -0.9732 0.9732 0.2298 66.3313 274.9063)" cx="206.85" cy="95.55" rx="54.63" ry="54.63"/>
		<path class="st2" d="M141.67,111.64l-27.11,44.68c-12.98,21.39,1.93,48.82,26.93,49.58l3.77,0.11c5.89,0.18,11.76-0.65,17.37-2.45
			l53.5-17.15c10.37-3.32,15.77-14.72,11.78-24.85l-6.15-15.61C221.76,145.96,191.6,90.84,141.67,111.64z"/>
		<path class="st2" d="M240.48,166.76c0,9.19-7.45,16.64-16.64,16.64c-9.19,0-16.64-7.45-16.64-16.64c0-9.19,7.45-16.64,16.64-16.64
			C233.03,150.12,240.48,157.57,240.48,166.76z"/>
		<circle cx="152.07" cy="98.12" r="23.92"/>
		<ellipse transform="matrix(0.2669 -0.9637 0.9637 0.2669 57.7542 288.3429)" cx="218.41" cy="106.21" rx="45.99" ry="45.99"/>
		<g>
			<path d="M174.95,154.34c-1.1,0-2.03-0.84-2.13-1.96c-0.87-10.36-16.44-10.52-16.6-10.52c-1.18,0-2.13-0.96-2.13-2.14
				c0-1.18,0.96-2.13,2.13-2.13c6.79,0,19.9,3.02,20.85,14.44c0.1,1.18-0.77,2.21-1.95,2.31
				C175.07,154.34,175.01,154.34,174.95,154.34z"/>
		</g>
		<g>
			<path d="M139.84,138.2c-0.88,0-1.7-0.54-2.01-1.42c-3.5-9.79-18.59-5.93-18.75-5.89c-1.13,0.3-2.31-0.38-2.61-1.52
				c-0.3-1.14,0.37-2.31,1.51-2.61c6.58-1.75,20.01-2.2,23.87,8.59c0.4,1.11-0.18,2.33-1.29,2.73
				C140.33,138.16,140.08,138.2,139.84,138.2z"/>
		</g>
		<g>
			<path d="M130.75,160.58c-0.49,0-0.98-0.17-1.38-0.51l-3.31-2.8c-2.79-2.36-3.16-6.57-0.82-9.39c2-2.4,5.34-3.1,8.13-1.7
				l2.47,1.24l14.01-18.36c0.72-0.94,2.06-1.12,2.99-0.4c0.94,0.72,1.12,2.06,0.4,3l-15.08,19.76c-0.62,0.81-1.74,1.07-2.65,0.61
				l-4.06-2.03c-1.01-0.51-2.22-0.25-2.93,0.61c-0.85,1.02-0.71,2.54,0.29,3.39l3.31,2.8c0.9,0.76,1.01,2.11,0.25,3.01
				C131.96,160.32,131.36,160.58,130.75,160.58z"/>
		</g>
		<g>
			<path d="M137.82,177.41c-6.36,0-10.48-2.4-10.77-2.57c-1.01-0.61-1.34-1.92-0.73-2.93c0.61-1.01,1.91-1.34,2.92-0.74
				c0.41,0.24,9.56,5.42,21.71-2.06c1.01-0.62,2.32-0.3,2.94,0.7c0.62,1,0.3,2.32-0.7,2.94
				C147.38,176.32,142.09,177.41,137.82,177.41z"/>
		</g>
		<g>
			<path d="M223.84,168.9c-0.27,0-0.55-0.05-0.81-0.16c-1.09-0.45-1.61-1.7-1.16-2.79c0.43-1.06,4.51-10.29,10.53-9.63
				c1.17,0.13,2.02,1.19,1.89,2.36c-0.13,1.17-1.2,2.02-2.36,1.89c-2.07-0.22-4.83,3.93-6.11,7.01
				C225.47,168.4,224.68,168.9,223.84,168.9z"/>
		</g>
		<g>
			<path class="st3" d="M239.7,202.18c-8.49,0-15.4-6.91-15.4-15.4c0-3.96,1.5-7.73,4.23-10.6c0.82-0.85,2.17-0.89,3.02-0.08
				c0.86,0.81,0.89,2.16,0.08,3.02c-1.97,2.07-3.05,4.79-3.05,7.66c0,6.13,4.99,11.13,11.12,11.13c6.13,0,11.12-4.99,11.12-11.13
				c0-6.13-4.99-11.12-11.12-11.12c-1.18,0-2.14-0.96-2.14-2.14c0-1.18,0.96-2.14,2.14-2.14c8.49,0,15.4,6.91,15.4,15.4
				S248.19,202.18,239.7,202.18z"/>
		</g>
	</g>
</g>
</svg>
