<?xml version="1.0" encoding="utf-8"?>
<!-- Generator: Adobe Illustrator 25.0.0, SVG Export Plug-In . SVG Version: 6.00 Build 0)  -->
<svg version="1.1" xmlns="http://www.w3.org/2000/svg" xmlns:xlink="http://www.w3.org/1999/xlink" x="0px" y="0px"
	 viewBox="0 0 345.07 345.07" style="enable-background:new 0 0 345.07 345.07;" xml:space="preserve">
<style type="text/css">
	.st0{fill:#F5F5F5;}
	.st1{fill:#E8EDC5;}
	.st2{fill:#FFFFFF;}
	.st3{fill:#85BAC6;}
	.st4{fill:#F6E1DC;}
	.st5{fill:#080717;}
	.st6{fill:none;stroke:#080717;stroke-width:2;stroke-linecap:round;stroke-linejoin:round;stroke-miterlimit:10;}
	.st7{fill:#F2ECDE;}
	.st8{fill:#C7E1E0;}
	.st9{fill:#FCDEDE;}
	.st10{fill:#EFCBBF;}
	.st11{fill:#CEE1E7;}
	.st12{fill:#FDEDE0;}
	.st13{fill:#B9D2D7;}
	.st14{fill:#EDE6E4;}
	.st15{fill:#FDE3EC;}
	.st16{fill:#DDD6CC;}
	.st17{fill:#F3F3F3;}
	.st18{fill:#E0D5C1;}
	.st19{fill:none;stroke:#000000;stroke-width:2;stroke-linecap:round;stroke-linejoin:round;stroke-miterlimit:10;}
	.st20{fill:#E0E0E0;}
	.st21{fill:#DBDDC0;}
</style>
<g id="Layer_3">
</g>
<g id="_x3C_Layer_x3E_">
	<g>

			<ellipse transform="matrix(0.7071 -0.7071 0.7071 0.7071 -71.4658 172.5338)" class="st20" cx="172.53" cy="172.53" rx="172.53" ry="172.53"/>
		<path d="M168.41,122.32l103.92-11.34c-8.27-38.06-41.81-66.85-82.43-67.5c-47.38-0.76-86.4,37.03-87.16,84.4
			c-0.72,44.45,32.5,81.54,75.73,86.59L168.41,122.32z"/>
		<ellipse transform="matrix(0.7071 -0.7071 0.7071 0.7071 -103.0503 121.1649)" cx="94.73" cy="184.98" rx="50.63" ry="50.63"/>
		<g>
			<path d="M91.44,232.06c-0.29,0-0.57,0-0.86-0.01c-29.09-0.47-52.38-24.52-51.91-53.61c0.47-29.09,24.6-52.34,53.61-51.91
				c14.09,0.23,27.25,5.93,37.06,16.05c9.81,10.12,15.08,23.46,14.85,37.55C143.72,208.94,120.14,232.06,91.44,232.06z M91.42,130.8
				c-26.38,0-48.05,21.24-48.47,47.71c-0.43,26.74,20.97,48.84,47.7,49.27c0.26,0,0.53,0.01,0.79,0.01
				c26.38,0,48.05-21.24,48.47-47.71c0.21-12.95-4.64-25.21-13.65-34.51c-9.01-9.3-21.1-14.54-34.06-14.75
				C91.95,130.8,91.68,130.8,91.42,130.8z"/>
		</g>
		<path class="st2" d="M148.86,120.57c-2.92-9.06-10.09-15.5-18.56-15.58c-10.68-0.1-19.87,10.43-20.5,23.52
			c-0.68,14.17,8.36,25.98,19.82,26.16c2.45,0.04,4.8-0.49,7-1.43l-14.87,101.47c-1.77,12.11,6.16,23.52,18.14,26.06l5.54,1.18
			c20.33,4.32,39.77-12.41,43.43-37.37l16.41-112.03L148.86,120.57z"/>

			<ellipse transform="matrix(0.9833 -0.1819 0.1819 0.9833 -24.8544 39.2315)" class="st2" cx="201.4" cy="155.08" rx="54.53" ry="77.49"/>
		<g>
			<path d="M189.6,229.62c-0.31,0-0.62-0.07-0.92-0.21c-12.12-5.78-23.21-16.82-31.24-31.08c-0.58-1.03-0.21-2.33,0.81-2.91
				c1.03-0.58,2.33-0.21,2.91,0.81c7.6,13.5,18.02,23.92,29.35,29.32c1.06,0.51,1.52,1.78,1.01,2.85
				C191.16,229.17,190.4,229.62,189.6,229.62z"/>
		</g>
		<path d="M239.4,121.86c-0.67,1.7,2.6,4.59,7.31,6.45c4.71,1.86,9.07,2,9.74,0.3c0.67-1.7-2.6-4.59-7.31-6.45
			C244.44,120.29,240.08,120.16,239.4,121.86z"/>
		<path d="M189.4,131.44c0.79,2.12,6.2,2.07,12.09-0.13c5.88-2.2,10.01-5.7,9.22-7.82c-0.79-2.12-6.2-2.07-12.09,0.13
			C192.73,125.81,188.6,129.32,189.4,131.44z"/>
		<g>
			<path d="M225.83,209.28c-8.28,0-13.06-10.96-13.28-11.49c-0.46-1.08,0.04-2.34,1.12-2.8c1.1-0.47,2.34,0.04,2.8,1.12
				c0.05,0.11,4.69,10.7,11.19,8.58c1.13-0.37,2.33,0.25,2.69,1.37c0.37,1.12-0.25,2.33-1.37,2.69
				C227.89,209.12,226.83,209.28,225.83,209.28z"/>
		</g>
		<g>
			<path d="M140.86,135.93c-0.07,0-0.15,0-0.23-0.01c-1.17-0.13-2.02-1.18-1.9-2.35c0.57-5.34-0.41-9.56-2.92-12.55
				c-3.57-4.26-9.05-4.69-9.11-4.69c-1.18-0.08-2.07-1.1-1.99-2.28c0.08-1.18,1.11-2.05,2.28-1.98c0.3,0.02,7.36,0.57,12.09,6.21
				c3.28,3.92,4.59,9.22,3.89,15.75C142.87,135.12,141.94,135.93,140.86,135.93z"/>
		</g>
		<path d="M240.04,153.69c0,3.8,2.28,6.87,5.08,6.87c2.81,0,5.08-3.08,5.08-6.87c0-3.8-2.28-6.87-5.08-6.87
			C242.32,146.82,240.04,149.9,240.04,153.69z"/>
		<path d="M207.31,155.05c0.43,3.77,3.05,6.57,5.84,6.25c2.79-0.32,4.7-3.64,4.27-7.41c-0.43-3.77-3.05-6.57-5.84-6.25
			C208.79,147.96,206.88,151.27,207.31,155.05z"/>
		<path d="M203.69,119.31c6.74-10.35,12.01-23.04,15.06-37.41c0.11-0.52,0.2-1.04,0.3-1.57c-10.1-6.68-21.18-9.52-32.16-7.33
			c-20.7,4.12-35.78,25-41.01,52.62L203.69,119.31z"/>
		<g>
			<path d="M279.67,111.47c-0.92,0-1.76-0.59-2.04-1.51c-0.13-0.44-13.9-44.06-56.19-54.09c-1.15-0.27-1.86-1.42-1.59-2.57
				c0.27-1.15,1.42-1.86,2.57-1.59c44.72,10.6,59.15,56.54,59.29,57c0.34,1.13-0.29,2.32-1.42,2.66
				C280.08,111.44,279.87,111.47,279.67,111.47z"/>
		</g>
		<g>
			<path class="st3" d="M206.73,182.44c-10.73,0-19.46-11.49-19.46-25.6c0-14.12,8.73-25.6,19.46-25.6
				c10.73,0,19.47,11.49,19.47,25.6C226.2,170.95,217.46,182.44,206.73,182.44z M206.73,135.5c-8.38,0-15.19,9.57-15.19,21.33
				c0,11.76,6.81,21.33,15.19,21.33c8.38,0,15.19-9.57,15.19-21.33C221.92,145.07,215.11,135.5,206.73,135.5z"/>
		</g>
		<g>
			<path class="st3" d="M251.86,182.44c-10.73,0-19.47-11.49-19.47-25.6c0-14.12,8.73-25.6,19.47-25.6
				c10.73,0,19.47,11.49,19.47,25.6C271.32,170.95,262.59,182.44,251.86,182.44z M251.86,135.5c-8.38,0-15.19,9.57-15.19,21.33
				c0,11.76,6.82,21.33,15.19,21.33c8.38,0,15.19-9.57,15.19-21.33C267.05,145.07,260.24,135.5,251.86,135.5z"/>
		</g>
		<g>
			<path class="st3" d="M232.36,158.97h-6.49c-1.18,0-2.14-0.96-2.14-2.14c0-1.18,0.96-2.14,2.14-2.14h6.49
				c1.18,0,2.14,0.96,2.14,2.14C234.5,158.01,233.54,158.97,232.36,158.97z"/>
		</g>
		<g>
			<path d="M231.59,184.34c-0.61,0-1.22-0.26-1.64-0.77c-0.76-0.91-0.64-2.25,0.27-3.01c1.45-1.21,2.13-3.05,1.83-4.91l-2.42-14.65
				c-0.19-1.16,0.59-2.26,1.76-2.46c1.15-0.19,2.26,0.6,2.46,1.76l2.42,14.65c0.55,3.32-0.72,6.73-3.3,8.89
				C232.56,184.18,232.07,184.34,231.59,184.34z"/>
		</g>
		<path d="M195.85,299.75l-82.96-7.94c-3.25-0.31-5.63-3.2-5.32-6.45l3.53-36.9c0.31-3.25,3.2-5.63,6.45-5.32l82.96,7.94
			c3.25,0.31,5.63,3.2,5.32,6.45l-3.53,36.9C201.98,297.68,199.1,300.06,195.85,299.75z"/>
		<path d="M172.53,345.07c44.59,0,85.22-16.92,115.85-44.68c-12.42-5.59-25.92-9.29-40.22-10.61l-146.79-13.63
			c-20.98-1.95-41.28,1.35-59.66,8.8C73.34,321.73,120.2,345.07,172.53,345.07z"/>
	</g>
</g>
</svg>
