<?xml version="1.0" encoding="utf-8"?>
<!-- Generator: Adobe Illustrator 25.0.0, SVG Export Plug-In . SVG Version: 6.00 Build 0)  -->
<svg version="1.1" xmlns="http://www.w3.org/2000/svg" xmlns:xlink="http://www.w3.org/1999/xlink" x="0px" y="0px"
	 viewBox="0 0 345.07 345.07" style="enable-background:new 0 0 345.07 345.07;" xml:space="preserve">
<style type="text/css">
	.st0{fill:#F5F5F5;}
	.st1{fill:#E8EDC5;}
	.st2{fill:#FFFFFF;}
	.st3{fill:#85BAC6;}
	.st4{fill:#F6E1DC;}
	.st5{fill:#080717;}
	.st6{fill:none;stroke:#080717;stroke-width:2;stroke-linecap:round;stroke-linejoin:round;stroke-miterlimit:10;}
	.st7{fill:#F2ECDE;}
	.st8{fill:#C7E1E0;}
	.st9{fill:#FCDEDE;}
	.st10{fill:#EFCBBF;}
	.st11{fill:#CEE1E7;}
	.st12{fill:#FDEDE0;}
	.st13{fill:#B9D2D7;}
	.st14{fill:#EDE6E4;}
	.st15{fill:#FDE3EC;}
	.st16{fill:#DDD6CC;}
	.st17{fill:#F3F3F3;}
	.st18{fill:#E0D5C1;}
	.st19{fill:none;stroke:#000000;stroke-width:2;stroke-linecap:round;stroke-linejoin:round;stroke-miterlimit:10;}
	.st20{fill:#E0E0E0;}
	.st21{fill:#DBDDC0;}
</style>
<g id="Layer_3">
</g>
<g id="_x3C_Layer_x3E_">
	<g>

			<ellipse transform="matrix(0.7071 -0.7071 0.7071 0.7071 -71.4658 172.5338)" class="st10" cx="172.53" cy="172.53" rx="172.53" ry="172.53"/>
		<path d="M244.35,244.56H97.88c-27.14,0-51.85,11.26-65.14,29.04c31.35,43.28,82.27,71.47,139.8,71.47
			c56.64,0,106.91-27.3,138.36-69.45C297.94,256.59,272.38,244.56,244.35,244.56z"/>
		<g>
			<path d="M105.63,150.36c0,0-17.67-65.14-4.71-84.44c13.25-19.73,29.46-16.89,53.02-4.83c23.56,12.06,21.01-7.3,53.02,3.62
				c17.67,6.03,29.46,19.3,28.28,32.57c-1.18,13.27-1.18,48.25-12.96,61.52C210.49,172.07,124.48,184.13,105.63,150.36z"/>
			<g>
				<path class="st2" d="M165.3,271.35h0.12c-14.46,0-26.19-11.73-26.19-26.19v-95.18c0-14.46,11.73-26.19,26.19-26.19h-0.12
					c14.46,0,26.19,11.73,26.19,26.19v95.18C191.49,259.62,179.76,271.35,165.3,271.35z"/>
				<path d="M165.42,273.48c-0.04,0-0.08,0-0.12,0c-0.01,0-0.03,0-0.05,0c-15.54-0.09-28.16-12.76-28.16-28.33v-95.18
					c0-15.56,12.61-28.23,28.16-28.33c0.04,0,0.07,0,0.11,0c0.04,0,0.07,0,0.11,0c15.54,0.09,28.16,12.76,28.16,28.33v95.18
					c0,15.56-12.61,28.23-28.16,28.33C165.45,273.48,165.44,273.48,165.42,273.48z M165.36,125.92
					c-13.23,0.03-23.99,10.81-23.99,24.05v95.18c0,13.24,10.76,24.02,23.99,24.05c13.24-0.03,23.99-10.81,23.99-24.05v-95.18
					C189.35,136.73,178.6,125.96,165.36,125.92z"/>
			</g>
			<g>
				<path class="st2" d="M124.38,157.4c3.26,11.99,0.79,23.1-5.5,24.81c-6.29,1.71-14.03-6.63-17.29-18.62
					c-3.26-11.99-0.79-23.1,5.5-24.81C113.39,137.06,121.13,145.4,124.38,157.4z"/>
				<path d="M117.18,184.57c-3.2,0-6.55-1.75-9.65-5.08c-3.5-3.77-6.34-9.22-8-15.34c-3.62-13.33-0.54-25.38,7-27.43
					c3.85-1.05,8.08,0.65,11.91,4.78c3.5,3.77,6.34,9.22,8,15.35c3.62,13.33,0.54,25.38-7,27.43
					C118.7,184.47,117.95,184.57,117.18,184.57z M108.76,140.69c-0.38,0-0.75,0.05-1.1,0.14c-4.41,1.2-7.14,10.61-4,22.19
					c1.49,5.47,3.97,10.29,7.01,13.56c2.66,2.87,5.45,4.16,7.66,3.57c4.41-1.2,7.14-10.61,4-22.19l0,0
					c-1.49-5.47-3.97-10.29-7.01-13.56C113.08,141.99,110.75,140.69,108.76,140.69z"/>
			</g>
			<g>
				<path class="st2" d="M203.77,157.4c-3.26,11.99-0.79,23.1,5.5,24.81c6.29,1.71,14.03-6.63,17.29-18.62
					c3.26-11.99,0.79-23.1-5.5-24.81C214.76,137.06,207.02,145.4,203.77,157.4z"/>
				<path d="M210.93,184.56c-0.75,0-1.49-0.1-2.22-0.29c-7.55-2.05-10.62-14.1-7-27.43c0,0,0,0,0,0
					c3.62-13.33,12.37-22.19,19.91-20.12c3.85,1.04,6.64,4.65,7.86,10.15c1.11,5.02,0.81,11.16-0.86,17.28
					C225.35,176.18,217.9,184.56,210.93,184.56z M205.83,157.96c-3.14,11.58-0.42,20.99,4,22.19c4.42,1.2,11.52-5.54,14.67-17.12
					c1.49-5.47,1.77-10.89,0.81-15.24c-0.85-3.82-2.6-6.35-4.8-6.95C216.1,139.64,208.97,146.37,205.83,157.96L205.83,157.96z"/>
			</g>
			<g>
				<path class="st2" d="M179.84,236.6h-31.25c-18.54,0-33.57-15.03-33.57-33.57v-89.64c0-18.54,15.03-33.57,33.57-33.57h31.25
					c18.54,0,33.57,15.03,33.57,33.57v89.64C213.41,221.56,198.38,236.6,179.84,236.6z"/>
				<path d="M181.51,238.73h-34.58c-18.77,0-34.04-15.27-34.04-34.04v-92.97c0-18.77,15.27-34.04,34.04-34.04h34.58
					c18.77,0,34.04,15.27,34.04,34.04v92.97C215.55,223.46,200.28,238.73,181.51,238.73z M146.92,81.95
					c-16.42,0-29.77,13.35-29.77,29.77v92.97c0,16.42,13.35,29.77,29.77,29.77h34.58c16.42,0,29.77-13.35,29.77-29.77v-92.97
					c0-16.41-13.35-29.77-29.77-29.77H146.92z"/>
			</g>
			<path d="M132.4,159.37c1.29,3.3,4.26,5.21,6.63,4.29c2.37-0.93,3.25-4.35,1.96-7.65c-1.29-3.3-4.26-5.21-6.63-4.29
				C131.98,152.66,131.11,156.08,132.4,159.37z"/>
			<g>
				<path d="M148.63,148.88c-0.46,0-0.92-0.15-1.31-0.45c-2.23-1.72-5.31-2.8-8.69-3.04c-4.13-0.29-8.01,0.74-10.43,2.75
					c-0.91,0.75-2.26,0.62-3.01-0.28c-0.75-0.91-0.63-2.26,0.28-3.01c3.25-2.69,8.27-4.08,13.46-3.72c4.21,0.3,8.12,1.69,11.01,3.93
					c0.93,0.72,1.1,2.06,0.38,3C149.9,148.6,149.27,148.88,148.63,148.88z"/>
			</g>
			<path d="M181.81,159.37c1.29,3.3,4.26,5.21,6.63,4.29c2.37-0.93,3.25-4.35,1.96-7.65c-1.29-3.3-4.26-5.21-6.63-4.29
				C181.39,152.66,180.52,156.08,181.81,159.37z"/>
			<g>
				<path d="M198.04,148.88c-0.46,0-0.92-0.15-1.31-0.45c-2.23-1.72-5.31-2.8-8.69-3.04c-4.13-0.29-8.01,0.74-10.43,2.75
					c-0.91,0.75-2.26,0.62-3.01-0.28c-0.75-0.91-0.63-2.26,0.28-3.01c3.25-2.69,8.27-4.08,13.46-3.72c4.21,0.3,8.12,1.69,11.01,3.93
					c0.93,0.72,1.1,2.06,0.38,3C199.31,148.6,198.68,148.88,198.04,148.88z"/>
			</g>
			<g>
				<path d="M161.62,181.86c-1.38,0-2.75-0.58-3.6-1.59c-1.71-2.01-1.54-4.69-1.43-6.29c0.6-9.15,1.42-18.42,2.45-27.55
					c0.13-1.17,1.18-2.02,2.36-1.88c1.17,0.13,2.02,1.19,1.88,2.36c-1.02,9.06-1.84,18.27-2.44,27.35
					c-0.08,1.24-0.12,2.61,0.42,3.25c0.05,0.04,0.18,0.07,0.29,0.08c0.34-0.92,1.3-1.5,2.31-1.36c1.17,0.17,1.98,1.26,1.8,2.42
					c-0.21,1.46-1.24,2.6-2.75,3.03C162.51,181.8,162.07,181.86,161.62,181.86z"/>
			</g>
			<g>
				<path d="M171.53,197.48c-1.65,0-3.27-0.29-4.78-0.87c-1.1-0.42-1.65-1.66-1.23-2.76c0.43-1.1,1.67-1.65,2.76-1.23
					c2.51,0.97,5.51,0.73,8.22-0.66c2.71-1.38,4.66-3.67,5.35-6.28c0.3-1.14,1.47-1.82,2.61-1.52c1.14,0.3,1.82,1.47,1.52,2.61
					c-1,3.78-3.75,7.06-7.53,8.99C176.24,196.91,173.86,197.48,171.53,197.48z"/>
			</g>
			<path d="M118.45,131.05c0,0,3.83-31.96,13.7-27.57c9.86,4.38,10.23,13.51,25.57,14.61c15.34,1.1,25.2-4.38,30.68,1.1
				c5.48,5.48,15.34,17.53,28.49,8.77c13.15-8.77,14.43-29.76-6.39-40.72s-52.04-12.6-69.57-13.7
				C123.38,72.43,105.3,104.75,118.45,131.05z"/>
		</g>
	</g>
</g>
</svg>
