<?xml version="1.0" encoding="utf-8"?>
<!-- Generator: Adobe Illustrator 25.0.0, SVG Export Plug-In . SVG Version: 6.00 Build 0)  -->
<svg version="1.1" xmlns="http://www.w3.org/2000/svg" xmlns:xlink="http://www.w3.org/1999/xlink" x="0px" y="0px"
	 viewBox="0 0 345.07 345.07" style="enable-background:new 0 0 345.07 345.07;" xml:space="preserve">
<style type="text/css">
	.st0{fill:#F6E1DC;}
	.st1{fill:#F0AF9B;}
	.st2{fill:#FFFFFF;}
	.st3{fill:#080717;}
	.st4{fill:none;stroke:#85BAC6;stroke-width:0.4121;stroke-miterlimit:10;}
	.st5{fill:#F2ECDE;}
	.st6{fill:#85BAC6;}
	.st7{fill:#FCDEDE;}
	.st8{fill:#AAD2DC;}
	.st9{fill:#F5F5F5;}
	.st10{fill:#E8EDC5;}
	.st11{fill:#B9D2D7;}
	.st12{fill:#FFFFFF;stroke:#000000;stroke-width:2;stroke-linecap:round;stroke-linejoin:round;stroke-miterlimit:10;}
	.st13{fill:#CEE1E7;}
	.st14{fill:#EDE6E4;}
	.st15{fill:#FDE3EC;}
	.st16{fill:#FDEDE0;}
	.st17{fill:#C7E1E0;}
	.st18{fill:#EFCBBF;}
	.st19{fill:#23285C;}
	.st20{fill:#010101;}
	.st21{fill:#C6E0F5;}
	.st22{fill:#DDD6CC;}
	.st23{fill:#E0E0E0;}
	.st24{fill:#F3F3F3;}
</style>
<g id="Layer_3">
</g>
<g id="_x3C_Layer_x3E_">
	<g>

			<ellipse transform="matrix(0.7071 -0.7071 0.7071 0.7071 -71.4659 172.5339)" class="st11" cx="172.53" cy="172.53" rx="172.53" ry="172.53"/>
		<path d="M345.07,172.53c0-4.71-0.24-9.37-0.61-13.98c-47.39,6.57-95.8,30.4-107.78,28.41c-18.84-3.14-6.28-48.16-3.14-70.14
			c3.14-21.99-7.33-28.27-7.33-28.27s-19.89-8.38-52.35-27.22c-32.45-18.84-69.1-37.69-64.91,1.05
			c4.19,38.74,72.24,70.14,72.24,70.14s-24.08,48.16-41.88,96.32c-16.86,45.62,56.45,91.23,92.71,105.7
			C297.99,310.3,345.07,246.92,345.07,172.53z"/>
		<path class="st2" d="M309.69,277.17c-50.01-50.4-105.18-74.15-129.32-53.43c-22.1,18.96-34.8,61.07-52.2,115.54
			c14.16,3.76,29.02,5.79,44.37,5.79C228.47,345.07,278.16,318.43,309.69,277.17z"/>
		<g>
			<path d="M128.17,341.42c-0.22,0-0.43-0.03-0.65-0.1c-1.12-0.36-1.74-1.56-1.39-2.69l2.23-6.99
				c16.21-50.84,29.01-90.99,50.62-109.53c24.75-21.24,80.36,1.28,132.23,53.55c0.83,0.84,0.83,2.19-0.01,3.02
				c-0.84,0.83-2.19,0.83-3.02-0.01c-49.43-49.82-103.78-72.74-126.41-53.32c-20.69,17.75-33.33,57.39-49.33,107.58l-2.23,6.99
				C129.91,340.84,129.07,341.42,128.17,341.42z"/>
		</g>
		<g>
			<path class="st2" d="M144.02,186.33l23.7,53.63c0,0,25.78,2.57,55.99-33.9c1.19-1.43-63.47-94.42-63.47-94.42l-43.18-26.36
				L144.02,186.33z"/>
			<path d="M168.98,242.14c-0.83,0-1.33-0.04-1.47-0.06c-0.77-0.08-1.43-0.56-1.74-1.26l-23.7-53.63c-0.04-0.1-0.08-0.21-0.11-0.31
				L115,85.83c-0.23-0.84,0.09-1.74,0.79-2.26c0.7-0.52,1.65-0.57,2.39-0.11l43.18,26.36c0.25,0.15,0.47,0.36,0.64,0.6
				c0.16,0.23,16.35,23.52,32.19,46.69c32.94,48.18,32.6,48.59,31.17,50.32C198.48,239.86,175.02,242.14,168.98,242.14z
				 M146.05,185.62l23.08,52.23c5.24-0.11,27.09-2.45,52.14-32.19c-4.29-8-39.02-58.62-62.52-92.43L120.5,89.88L146.05,185.62z"/>
		</g>
		<g>
			<path class="st2" d="M118.37,75.98c0,0-27.22,69.1-26.17,85.85c1.05,16.75,0,45.02,75.38,19.89L118.37,75.98z"/>
			<path d="M120.02,193.82c-8.35,0-14.84-1.6-19.55-4.79c-9.22-6.25-9.85-17.29-10.31-25.35l-0.1-1.71
				c-1.06-17.03,25.2-83.92,26.32-86.76c0.43-1.1,1.67-1.64,2.77-1.2c1.1,0.43,1.64,1.67,1.2,2.77
				c-0.27,0.69-27.03,68.84-26.03,84.93l0.1,1.73c0.45,7.96,0.97,16.99,8.44,22.06c10.2,6.92,31.74,4.97,64.03-5.79
				c1.12-0.37,2.33,0.23,2.7,1.35c0.37,1.12-0.23,2.33-1.35,2.7C148.1,190.47,132.1,193.82,120.02,193.82z"/>
		</g>
		<path d="M232.87,121.02c0.25-1.48,0.47-2.89,0.66-4.21c3.14-21.99-7.33-28.27-7.33-28.27s-19.89-8.37-52.35-27.22
			c-32.45-18.84-69.1-37.69-64.91,1.05c4.19,38.74,72.24,70.14,72.24,70.14s-4.07,4.43-10.24,11.88
			C194.4,142.07,215.74,133.67,232.87,121.02z"/>
		<path d="M133.84,130.89c1.61-4.04,0.88-8.13-1.64-9.13c-2.51-1-5.85,1.47-7.46,5.51c-1.61,4.04-0.88,8.13,1.64,9.13
			C128.89,137.4,132.23,134.93,133.84,130.89z"/>
		<path d="M108.97,124.48c1.61-4.04,0.88-8.13-1.64-9.13c-2.51-1-5.85,1.47-7.46,5.51c-1.61,4.04-0.88,8.13,1.64,9.13
			C104.02,130.99,107.36,128.52,108.97,124.48z"/>
		<g>
			<path d="M126.49,169.31c-1.09,0-2.23-0.15-3.42-0.48c-1.14-0.31-1.81-1.49-1.49-2.63c0.31-1.14,1.49-1.81,2.63-1.49
				c8.89,2.44,12.85-10.05,13.02-10.58c0.35-1.12,1.55-1.76,2.67-1.41c1.13,0.35,1.76,1.54,1.42,2.67
				C139.72,160.58,134.74,169.31,126.49,169.31z"/>
		</g>
		<g>
			<path class="st3" d="M113.64,148.55c-0.13,0-0.27-0.01-0.41-0.04c-3.59-0.7-6.86-2.62-9.2-5.43c-0.63-0.75-0.66-1.83-0.09-2.62
				c2.08-2.88,6.73-9.81,9.57-14.54c0.1-0.15,3.04-4.58,1.6-8.36c-0.96-2.51-3.74-4.35-8.25-5.48c-1.14-0.29-1.84-1.45-1.55-2.59
				c0.29-1.14,1.45-1.84,2.59-1.55c5.96,1.49,9.74,4.23,11.22,8.13c2.23,5.88-1.83,11.91-2,12.16c-2.43,4.07-6.29,9.87-8.67,13.28
				c1.57,1.41,3.55,2.41,5.61,2.81c1.16,0.22,1.92,1.35,1.69,2.5C115.54,147.84,114.64,148.55,113.64,148.55z"/>
		</g>
		<g>
			<path class="st2" d="M182.49,127.59c-0.42,0-0.85-0.13-1.22-0.39c-38.87-27.22-57.74-50.66-56.11-69.69
				c1.22-14.19,13.51-20.12,14.03-20.37c1.07-0.51,2.34-0.04,2.84,1.02c0.5,1.07,0.04,2.34-1.02,2.84
				c-0.47,0.22-10.62,5.22-11.6,16.93c-0.99,11.95,7.62,33.07,54.31,65.76c0.97,0.68,1.2,2.01,0.52,2.98
				C183.83,127.27,183.16,127.59,182.49,127.59z"/>
		</g>
		<path d="M275.15,176.36c-77.47,24.08-59.68-24.08-59.68-24.08s-16.75,16.75-31.41,14.66c0,0-25.13,27.22-2.09,45.02
			c23.03,17.8,78.38,8.93,112.17,0.81c17.3-4.16,33.07-5.02,47.08-3.98c2.27-10.61,3.54-21.59,3.76-32.82
			C325.5,169.45,302.16,167.96,275.15,176.36z"/>
		<g>
			<path class="st2" d="M214.71,213.18c-0.29,0-0.58,0-0.86-0.01c-8.28-0.17-14.59-3.25-18.75-9.17
				c-13.25-18.85,0.47-60.21,1.06-61.96c0.38-1.12,1.59-1.72,2.71-1.34c1.12,0.38,1.72,1.59,1.34,2.71
				c-0.14,0.41-13.62,41.06-1.61,58.14c3.38,4.8,8.39,7.21,15.34,7.35c13,0.27,36.61-6.19,63.92-13.66
				c20.21-5.53,43.12-11.8,64.6-16c1.16-0.23,2.28,0.53,2.51,1.69c0.23,1.16-0.53,2.28-1.69,2.51
				c-21.33,4.18-44.16,10.42-64.3,15.93C251.93,206.76,228.48,213.18,214.71,213.18z"/>
		</g>
		<g>
			<path class="st2" d="M168.74,138.98c4.96-9.15,16.4-12.55,25.55-7.59c9.15,4.96,12.55,16.4,7.59,25.55
				c-4.96,9.15-16.4,12.55-25.55,7.59L168.74,138.98z"/>
			<path d="M185.27,168.94c-3.38,0-6.8-0.82-9.96-2.53c-1.04-0.56-1.42-1.86-0.86-2.9c0.56-1.04,1.86-1.43,2.9-0.86
				c3.92,2.12,8.44,2.6,12.72,1.33c4.28-1.27,7.81-4.13,9.93-8.05c4.39-8.1,1.37-18.26-6.73-22.65c-8.1-4.39-18.26-1.37-22.65,6.73
				c-0.56,1.04-1.86,1.42-2.9,0.86c-1.04-0.56-1.42-1.86-0.86-2.9c5.52-10.17,18.28-13.96,28.44-8.45
				c4.93,2.67,8.52,7.1,10.11,12.47c1.6,5.37,1,11.04-1.67,15.97C199.96,164.96,192.73,168.94,185.27,168.94z"/>
		</g>
	</g>
</g>
</svg>
