<?xml version="1.0" encoding="utf-8"?>
<!-- Generator: Adobe Illustrator 25.0.0, SVG Export Plug-In . SVG Version: 6.00 Build 0)  -->
<svg version="1.1" xmlns="http://www.w3.org/2000/svg" xmlns:xlink="http://www.w3.org/1999/xlink" x="0px" y="0px"
	 viewBox="0 0 345.07 345.07" style="enable-background:new 0 0 345.07 345.07;" xml:space="preserve">
<style type="text/css">
	.st0{fill:#F5F5F5;}
	.st1{fill:#E8EDC5;}
	.st2{fill:#FFFFFF;}
	.st3{fill:#85BAC6;}
	.st4{fill:#F6E1DC;}
	.st5{fill:#080717;}
	.st6{fill:none;stroke:#080717;stroke-width:2;stroke-linecap:round;stroke-linejoin:round;stroke-miterlimit:10;}
	.st7{fill:#F2ECDE;}
	.st8{fill:#C7E1E0;}
	.st9{fill:#FCDEDE;}
	.st10{fill:#EFCBBF;}
	.st11{fill:#CEE1E7;}
	.st12{fill:#FDEDE0;}
	.st13{fill:#B9D2D7;}
	.st14{fill:#EDE6E4;}
	.st15{fill:#FDE3EC;}
	.st16{fill:#DDD6CC;}
	.st17{fill:#F3F3F3;}
	.st18{fill:#E0D5C1;}
	.st19{fill:none;stroke:#000000;stroke-width:2;stroke-linecap:round;stroke-linejoin:round;stroke-miterlimit:10;}
	.st20{fill:#E0E0E0;}
	.st21{fill:#DBDDC0;}
</style>
<g id="Layer_3">
</g>
<g id="_x3C_Layer_x3E_">
	<g>

			<ellipse transform="matrix(0.7071 -0.7071 0.7071 0.7071 -71.4658 172.5338)" class="st12" cx="172.53" cy="172.53" rx="172.53" ry="172.53"/>
		<path class="st3" d="M172.53,345.07c70.82,0,131.65-42.69,158.23-103.72c-35.3-26.55-112.6-14.52-185.38,31.65
			c-23.17,14.7-43.39,31.29-59.93,48.47C111.03,336.44,140.76,345.07,172.53,345.07z"/>
		<ellipse transform="matrix(0.7071 -0.7071 0.7071 0.7071 -51.4456 216.076)" cx="235.1" cy="170.14" rx="76.86" ry="76.86"/>
		<ellipse transform="matrix(0.3044 -0.9525 0.9525 0.3044 -9.4943 257.6197)" cx="171.64" cy="135.31" rx="61.11" ry="61.11"/>
		<ellipse transform="matrix(0.8152 -0.5792 0.5792 0.8152 -49.4547 97.2412)" cx="127.65" cy="126.12" rx="36.56" ry="36.56"/>
		<ellipse transform="matrix(0.4498 -0.8931 0.8931 0.4498 -123.6145 190.7347)" cx="93.01" cy="195.7" rx="52.81" ry="52.81"/>
		<g>
			<path d="M64.95,250.63c-0.28,0-0.57-0.06-0.85-0.18c-16.44-7.11-28.15-23.52-30.57-42.83c-1.73-13.82,1.44-27.43,8.94-38.33
				c7.55-10.97,18.58-17.87,31.05-19.43c1.17-0.15,2.24,0.68,2.39,1.85c0.15,1.17-0.68,2.24-1.85,2.39
				c-11.24,1.41-21.21,7.67-28.06,17.62c-6.9,10.03-9.83,22.59-8.22,35.37c2.23,17.82,12.97,32.93,28.03,39.44
				c1.08,0.47,1.58,1.73,1.11,2.81C66.56,250.15,65.78,250.63,64.95,250.63z"/>
		</g>
		<ellipse transform="matrix(0.5374 -0.8433 0.8433 0.5374 -43.5136 146.8816)" cx="112.13" cy="113.1" rx="69.09" ry="69.09"/>
		<ellipse transform="matrix(0.7071 -0.7071 0.7071 0.7071 -11.0974 163.4162)" cx="191.71" cy="95.1" rx="69.09" ry="69.09"/>
		<g>
			<path d="M197.25,162.55c-15.74,0-30.94-5.19-43.56-15c-15.02-11.67-24.6-28.5-26.97-47.38l0,0
				c-2.37-18.88,2.76-37.55,14.43-52.57c11.67-15.02,28.5-24.6,47.38-26.97c38.96-4.88,74.65,22.84,79.54,61.81
				c4.89,38.97-22.84,74.65-61.81,79.54C203.25,162.37,200.24,162.55,197.25,162.55z M197.44,24.36c-2.77,0-5.56,0.17-8.38,0.52
				c-17.74,2.23-33.56,11.23-44.53,25.35c-10.97,14.12-15.79,31.67-13.57,49.42l0,0c2.22,17.74,11.23,33.56,25.35,44.53
				c14.12,10.97,31.65,15.79,49.42,13.57c36.63-4.59,62.69-38.14,58.1-74.77C259.59,49.17,230.68,24.36,197.44,24.36z"/>
		</g>
		<circle cx="163.29" cy="203.11" r="69.09"/>
		<path class="st2" d="M209.86,158.42c2.7-8.48,10.76-15.2,20.99-16.43c12.9-1.55,24.98,6.58,26.94,18.15
			c2.13,12.53-7.72,24.3-21.54,26.04c-2.96,0.37-5.85,0.23-8.59-0.32l33.1,107.18l-31.9,8.76c-24.17,6.64-49.2-5.61-55.92-27.36
			l-30.15-97.61L209.86,158.42z"/>
		<g>
			<path d="M234.04,195.34c-3.66,0-7.28-0.75-10.64-2.21c-2.06-0.89-4-2.05-5.78-3.43c-0.93-0.72-1.1-2.07-0.38-3
				c0.72-0.93,2.07-1.1,3-0.38c1.49,1.16,3.13,2.13,4.86,2.88c3.68,1.6,7.74,2.17,11.75,1.68c1.19-0.15,2.24,0.69,2.38,1.85
				c0.15,1.17-0.68,2.24-1.86,2.39C236.27,195.27,235.15,195.34,234.04,195.34z"/>
		</g>

			<ellipse transform="matrix(0.0742 -0.9972 0.9972 0.0742 -29.5361 313.3817)" class="st2" cx="154.02" cy="172.6" rx="73.88" ry="57.65"/>
		<path d="M212.71,155.93c-0.53,0.23-1.06,0.48-1.61,0.69c-30.39,11.93-67.45-9.75-82.77-48.42c-0.17-0.44-0.32-0.88-0.49-1.31
			c9.66-6.66,20.76-10.13,32.33-9.29C187.05,99.56,207.97,124.11,212.71,155.93z"/>
		<g>
			<path d="M164.18,249.37c-0.95,0-1.82-0.64-2.07-1.61c-0.29-1.14,0.39-2.31,1.54-2.6c16.14-4.15,30.26-17.13,38.76-35.62
				c0.49-1.07,1.76-1.54,2.83-1.05c1.07,0.49,1.54,1.76,1.05,2.83c-9.03,19.66-24.19,33.51-41.58,37.98
				C164.53,249.35,164.35,249.37,164.18,249.37z"/>
		</g>
		<path d="M110.12,155.39c1.24,1.64-1.43,5.76-5.97,9.2c-4.54,3.44-9.23,4.9-10.47,3.26c-1.24-1.64,1.43-5.76,5.97-9.2
			C104.19,155.21,108.87,153.75,110.12,155.39z"/>
		<path d="M161.06,157.26c-0.22,2.54-6.1,4.11-13.14,3.5c-7.04-0.61-12.57-3.16-12.35-5.7c0.22-2.54,6.1-4.11,13.14-3.5
			C155.76,152.17,161.28,154.72,161.06,157.26z"/>
		<g>
			<path d="M124.29,190.2c-0.42,0-0.85-0.13-1.22-0.39c-3.03-2.12-4.73-5.72-4.44-9.41l1.32-16.65c0.1-1.18,1.1-2.04,2.3-1.96
				c1.18,0.09,2.05,1.12,1.96,2.3l-1.32,16.65c-0.18,2.21,0.81,4.29,2.63,5.57c0.97,0.68,1.2,2.01,0.53,2.98
				C125.62,189.89,124.96,190.2,124.29,190.2z"/>
		</g>
		<g>
			<path d="M145.82,218.74c-4.34,0-9.28-2.46-14.76-7.35c0,0,0,0,0,0c-0.75-0.67-1.05-1.63-0.79-2.57
				c0.33-1.22,1.01-3.76,26.71-9.07c0.67-0.14,1.38,0.06,1.89,0.53c0.51,0.47,0.76,1.16,0.66,1.85c-0.07,0.53-1.8,12.93-9.99,15.97
				C148.36,218.52,147.12,218.74,145.82,218.74z M135.69,209.71c3.81,3.07,8.56,5.77,12.36,4.36c3.57-1.32,5.61-5.97,6.59-9.47
				C147.04,206.28,139.15,208.34,135.69,209.71z"/>
		</g>
		<g>
			<path d="M224.38,177.41c-0.98,0-1.87-0.68-2.08-1.68c-1.57-7.15-0.76-13.17,2.39-17.88c4.54-6.79,12.26-8.24,12.59-8.3
				c1.17-0.21,2.27,0.56,2.48,1.73c0.21,1.16-0.56,2.27-1.72,2.48l0,0c-0.06,0.01-6.32,1.23-9.82,6.51
				c-2.46,3.71-3.05,8.61-1.75,14.56c0.25,1.15-0.48,2.29-1.63,2.54C224.69,177.39,224.53,177.41,224.38,177.41z"/>
		</g>
		<path d="M114.82,176.4c0.3,4.26-2.01,7.89-5.16,8.12c-3.15,0.22-5.95-3.05-6.25-7.31c-0.3-4.26,2.01-7.89,5.16-8.12
			C111.72,168.86,114.52,172.14,114.82,176.4z"/>
		<path d="M150.8,173.96c0.3,4.26-2.01,7.89-5.16,8.12c-3.15,0.22-5.95-3.05-6.25-7.31c-0.3-4.26,2.01-7.89,5.16-8.12
			C147.7,166.43,150.5,169.7,150.8,173.96z"/>
	</g>
</g>
</svg>
