<?xml version="1.0" encoding="utf-8"?>
<!-- Generator: Adobe Illustrator 25.0.0, SVG Export Plug-In . SVG Version: 6.00 Build 0)  -->
<svg version="1.1" xmlns="http://www.w3.org/2000/svg" xmlns:xlink="http://www.w3.org/1999/xlink" x="0px" y="0px"
	 viewBox="0 0 345.07 345.07" style="enable-background:new 0 0 345.07 345.07;" xml:space="preserve">
<style type="text/css">
	.st0{fill:#F6E1DC;}
	.st1{fill:#F0AF9B;}
	.st2{fill:#FFFFFF;}
	.st3{fill:#080717;}
	.st4{fill:none;stroke:#85BAC6;stroke-width:0.4121;stroke-miterlimit:10;}
	.st5{fill:#F2ECDE;}
	.st6{fill:#85BAC6;}
	.st7{fill:#FCDEDE;}
	.st8{fill:#AAD2DC;}
	.st9{fill:#F5F5F5;}
	.st10{fill:#E8EDC5;}
	.st11{fill:#B9D2D7;}
	.st12{fill:#FFFFFF;stroke:#000000;stroke-width:2;stroke-linecap:round;stroke-linejoin:round;stroke-miterlimit:10;}
	.st13{fill:#CEE1E7;}
	.st14{fill:#EDE6E4;}
	.st15{fill:#FDE3EC;}
	.st16{fill:#FDEDE0;}
	.st17{fill:#C7E1E0;}
	.st18{fill:#EFCBBF;}
	.st19{fill:#23285C;}
	.st20{fill:#010101;}
	.st21{fill:#C6E0F5;}
	.st22{fill:#DDD6CC;}
	.st23{fill:#E0E0E0;}
	.st24{fill:#F3F3F3;}
</style>
<g id="Layer_3">
</g>
<g id="_x3C_Layer_x3E_">
	<g>

			<ellipse transform="matrix(0.7071 -0.7071 0.7071 0.7071 -71.4658 172.5338)" class="st17" cx="172.53" cy="172.53" rx="172.53" ry="172.53"/>
		<path d="M54.34,298.17c30.88,29.06,72.44,46.9,118.19,46.9c58.54,0,110.24-29.18,141.43-73.77c-21.31-4.75-48.23-8.45-82.22-10.04
			c-146.89-6.9-186.36,24.66-186.36,24.66C48.29,290.21,51.3,294.26,54.34,298.17z"/>
		<g>
			<path class="st2" d="M134.27,234.78l-6.56,28.91l-29.74,6.36c0,0,46.57,66.92,133.78-6.36c0,0-27.18-4.82-25.31-30.84
				c1.87-26.02,9.37-57.83,9.37-57.83L134.27,234.78z"/>
			<path d="M154.8,300.14c-3.34,0-6.64-0.22-9.9-0.65c-31.64-4.2-48-27.24-48.69-28.22c-0.41-0.59-0.5-1.34-0.23-2.01
				c0.26-0.67,0.84-1.15,1.54-1.31l28.4-6.07l6.26-27.58c0.26-1.15,1.41-1.87,2.56-1.61c1.15,0.26,1.87,1.41,1.61,2.56l-6.56,28.91
				c-0.18,0.81-0.82,1.44-1.64,1.62l-26.36,5.64c5.21,6.03,20.1,20.73,43.74,23.84c25.11,3.31,52.56-6.99,81.69-30.61
				c-7.96-2.68-24.44-10.82-22.92-31.96c1.87-25.89,9.35-57.84,9.42-58.16c0.27-1.15,1.43-1.86,2.57-1.59
				c1.15,0.27,1.86,1.42,1.59,2.57c-0.07,0.32-7.48,31.94-9.32,57.49c-1.71,23.75,22.52,28.4,23.55,28.58
				c0.82,0.15,1.47,0.75,1.69,1.55c0.21,0.8-0.05,1.65-0.69,2.19C205.58,288.47,179.29,300.14,154.8,300.14z"/>
		</g>
		<ellipse transform="matrix(0.123 -0.9924 0.9924 0.123 115.8662 224.3603)" cx="184.88" cy="46.62" rx="28.12" ry="28.12"/>
		<g>

				<ellipse transform="matrix(0.3869 -0.9221 0.9221 0.3869 -47.6829 222.0048)" class="st2" cx="143.11" cy="146.86" rx="88.16" ry="58.44"/>
			<path d="M124.78,233.42c-5.77,0-11.35-1.09-16.6-3.29c-15.08-6.33-25.52-21.02-29.39-41.37c-3.81-20.03-0.81-43.24,8.46-65.33
				c9.27-22.1,23.72-40.5,40.69-51.82c17.24-11.5,35.03-14.34,50.11-8.02c15.08,6.33,25.52,21.02,29.39,41.37
				c3.81,20.03,0.81,43.24-8.46,65.34l0,0c-9.27,22.1-23.72,40.5-40.69,51.82C147.05,229.6,135.58,233.42,124.78,233.42z
				 M161.45,64.58c-9.97,0-20.63,3.57-31.14,10.58c-16.28,10.85-30.17,28.58-39.12,49.91c-8.95,21.33-11.86,43.67-8.21,62.88
				c3.6,18.9,13.13,32.48,26.84,38.23c13.71,5.75,30.08,3.04,46.09-7.63c16.28-10.85,30.17-28.58,39.12-49.91l0,0
				c8.95-21.33,11.86-43.67,8.21-62.88c-3.6-18.9-13.13-32.47-26.85-38.23C171.68,65.56,166.66,64.58,161.45,64.58z"/>
		</g>
		<path d="M97.19,156.2c0.26-3.2-1.14-5.93-3.13-6.09c-1.99-0.16-3.81,2.3-4.07,5.51c-0.26,3.2,1.14,5.93,3.13,6.09
			C95.11,161.87,96.93,159.4,97.19,156.2z"/>
		<path d="M153.78,137.79c0.26-3.2-1.14-5.93-3.13-6.09c-1.99-0.16-3.81,2.3-4.07,5.51c-0.26,3.2,1.14,5.93,3.13,6.09
			C151.7,143.46,153.52,141,153.78,137.79z"/>
		<g>
			<path class="st2" d="M194.45,127.21c15.67-15.67,36.8-19.96,47.19-9.57c10.39,10.39,6.11,31.52-9.57,47.19
				c-12.68,12.68-30.02,17.15-41.27,13.19L194.45,127.21z"/>
			<path d="M199.57,181.56c-3.35,0-6.56-0.49-9.47-1.52c-1.11-0.39-1.7-1.61-1.31-2.73c0.39-1.11,1.61-1.7,2.73-1.31
				c9.69,3.41,26.21,0.15,39.04-12.69c7.29-7.29,12.25-15.99,13.97-24.49c1.66-8.19,0.09-15.18-4.41-19.68
				c-9.54-9.54-29.36-5.25-44.17,9.57c-0.83,0.83-2.19,0.83-3.02,0c-0.83-0.83-0.83-2.19,0-3.02c16.48-16.48,39.01-20.77,50.22-9.57
				c5.55,5.55,7.53,13.91,5.57,23.55c-1.89,9.32-7.27,18.79-15.14,26.66C223.99,175.94,210.91,181.56,199.57,181.56z"/>
		</g>
		<path class="st18" d="M138.72,177.37c-1.1,0.25-0.13-13.08,11-10.47c0,0-0.47-4.97,3.06-7.45c5.46-3.83,8.79-0.18,9.84,4.22
			c1.05,4.39,1.67,10.34-4.39,15.29C153.69,182.65,144.87,184.05,138.72,177.37z"/>
		<g>
			<path d="M139.15,179.52c-0.33,0-0.54-0.01-0.6-0.02c-1.18-0.09-2.06-1.12-1.96-2.3c0.09-1.17,1.09-2.04,2.29-1.96
				c0.52,0.05,12.06,0.57,19.7-15.99c0.49-1.07,1.77-1.54,2.83-1.04c1.07,0.49,1.54,1.76,1.04,2.83
				C154.41,178.46,142.04,179.52,139.15,179.52z"/>
		</g>
		<g>
			<path d="M139.77,113.08c-0.49,0-0.99-0.17-1.39-0.52c-0.89-0.77-1-2.12-0.23-3.01c4.97-5.77,17.05-14.51,27.22-6.24
				c0.92,0.74,1.06,2.09,0.31,3c-0.74,0.92-2.09,1.06-3,0.31c-9.53-7.74-21.17,5.58-21.29,5.71
				C140.97,112.83,140.37,113.08,139.77,113.08z"/>
		</g>
		<g>
			<path d="M116.93,175.64c-0.07,0-0.14,0-0.21-0.01c-2.78-0.27-9.43-1.2-11.27-4.03c-0.59-0.91-0.73-1.97-0.39-2.99
				c1.12-3.35,6.07-32.24-1.53-39.23c-1.15-1.06-2.35-1.46-3.76-1.25c-5.45,0.8-11.98,9.96-14.04,13.42
				c-0.6,1.01-1.92,1.34-2.93,0.75c-1.02-0.6-1.35-1.91-0.75-2.93c0.86-1.45,8.67-14.23,17.09-15.47c2.67-0.39,5.19,0.42,7.28,2.34
				c9.61,8.84,4.11,38.32,2.83,43.21c1.08,0.73,4.59,1.6,7.88,1.93c1.17,0.11,2.03,1.16,1.92,2.33
				C118.94,174.82,118.02,175.64,116.93,175.64z"/>
		</g>
		<path d="M92.32,116.92c0,0,63.27-47.8,76.62-30.93c13.36,16.87,9.14,50.61,9.14,50.61l15.82,0.35c0,0,3.87-18.63,11.6-19.33
			c7.73-0.7-5.95-46.48-28.28-52.06C154.88,59.98,128.88,57.17,92.32,116.92z"/>
		<g>
			<path d="M196.15,148.51c-0.4,0-0.8-0.11-1.16-0.34c-0.99-0.64-1.27-1.97-0.63-2.96c5.54-8.54,14.09-14.42,20.04-18.11
				c7.04-4.36,16.32-6.71,21.27-0.24c0.72,0.94,0.54,2.28-0.4,3c-0.93,0.72-2.28,0.54-3-0.4c-4.24-5.54-14.47,0.56-15.62,1.27
				c-5.6,3.47-13.63,8.98-18.7,16.8C197.54,148.17,196.85,148.51,196.15,148.51z"/>
		</g>
	</g>
</g>
</svg>
