<?xml version="1.0" encoding="utf-8"?>
<!-- Generator: Adobe Illustrator 25.0.0, SVG Export Plug-In . SVG Version: 6.00 Build 0)  -->
<svg version="1.1" xmlns="http://www.w3.org/2000/svg" xmlns:xlink="http://www.w3.org/1999/xlink" x="0px" y="0px"
	 viewBox="0 0 345.07 345.07" style="enable-background:new 0 0 345.07 345.07;" xml:space="preserve">
<style type="text/css">
	.st0{fill:#F6E1DC;}
	.st1{fill:#F0AF9B;}
	.st2{fill:#FFFFFF;}
	.st3{fill:#080717;}
	.st4{fill:none;stroke:#85BAC6;stroke-width:0.4121;stroke-miterlimit:10;}
	.st5{fill:#F2ECDE;}
	.st6{fill:#85BAC6;}
	.st7{fill:#FCDEDE;}
	.st8{fill:#AAD2DC;}
	.st9{fill:#F5F5F5;}
	.st10{fill:#E8EDC5;}
	.st11{fill:#B9D2D7;}
	.st12{fill:#FFFFFF;stroke:#000000;stroke-width:2;stroke-linecap:round;stroke-linejoin:round;stroke-miterlimit:10;}
	.st13{fill:#CEE1E7;}
	.st14{fill:#EDE6E4;}
	.st15{fill:#FDE3EC;}
	.st16{fill:#FDEDE0;}
	.st17{fill:#C7E1E0;}
	.st18{fill:#EFCBBF;}
	.st19{fill:#23285C;}
	.st20{fill:#010101;}
	.st21{fill:#C6E0F5;}
	.st22{fill:#DDD6CC;}
	.st23{fill:#E0E0E0;}
	.st24{fill:#F3F3F3;}
</style>
<g id="Layer_3">
</g>
<g id="_x3C_Layer_x3E_">
	<g>

			<ellipse transform="matrix(0.7071 -0.7071 0.7071 0.7071 -71.4659 172.5338)" class="st15" cx="172.53" cy="172.53" rx="172.53" ry="172.53"/>
		<path d="M51.17,295.14c31.17,30.86,74.04,49.93,121.36,49.93c51.78,0,98.19-22.84,129.82-58.96
			c-11.13-14.29-33.18-24.79-47.04-35.56c-21.54-16.74-19.73-31.95-0.01-68.73c19.72-36.79,42.48-52.7,16.65-92.6
			c-20.81-32.15-88.69-45.92-113.29-42.75C78.49,56.8,55.98,144.33,60.34,169.81c4.36,25.48,37.14,30.19,27.54,56.15
			C81.85,242.26,62.96,267.79,51.17,295.14z"/>
		<path class="st2" d="M172.53,345.07c43.07,0,82.42-15.82,112.65-41.91c-11.78-23.34-33.76-48.44-74.69-57.3
			c-83.72-18.12-126.24,10.51-146.1,43.03c-2.47,4.04-4.69,8.19-6.71,12.37C88.19,328.49,128.42,345.07,172.53,345.07z"/>
		<g>
			<path class="st2" d="M209.52,163.06l7.82,90.04c-10.45,10.87-23,17.38-36.67,17.85c-13.67,0.46-26.63-5.18-37.8-15.31
				l-2.85-83.88L209.52,163.06z"/>
			<path d="M179.12,273.11c-13.2,0-26.2-5.47-37.68-15.89c-0.43-0.39-0.68-0.93-0.7-1.51l-2.85-83.88
				c-0.04-1.18,0.88-2.17,2.06-2.21c1.24-0.03,2.17,0.88,2.21,2.06l2.82,82.97c10.95,9.69,23.27,14.59,35.62,14.16
				c12.35-0.42,24.27-6.12,34.53-16.5l-7.73-89.07c-0.1-1.18,0.77-2.21,1.94-2.31c1.17-0.12,2.21,0.77,2.31,1.94l7.82,90.04
				c0.05,0.61-0.16,1.22-0.59,1.67c-11.2,11.64-24.38,18.03-38.14,18.5C180.2,273.1,179.66,273.11,179.12,273.11z"/>
		</g>
		<path class="st2" d="M188.95,160.38c0.52,15.42,13.45,27.5,28.88,26.98c15.42-0.52,27.5-13.45,26.98-28.88
			c-0.52-15.42-13.45-27.5-28.88-26.98C200.5,132.03,188.42,144.96,188.95,160.38z"/>
		<g>
			<path class="st2" d="M175.21,190.36c0,0-43.19,31.76-62.48,12.61c-8.72-8.66-11.55-29.83-10.82-55.55
				c0.03-0.91-12.32,3.14-10.06-5.86c7.09-28.27,25.38-64,47.43-82.78c0,0,19.22,85.55,60.07,87.66L175.21,190.36z"/>
			<path d="M129.16,211.27c-6.71,0-12.99-1.87-17.94-6.78c-8.22-8.16-12.09-26.64-11.5-54.93c-2.71,0.25-6.73,0.45-8.95-2.11
				c-1.34-1.55-1.68-3.71-1-6.41c6.59-26.27,24.46-63.73,48.12-83.89c0.57-0.49,1.35-0.64,2.06-0.4c0.71,0.24,1.24,0.83,1.41,1.56
				c0.19,0.84,19.33,84,58.09,85.99c1.18,0.06,2.09,1.07,2.02,2.24c-0.06,1.18-1.11,2.08-2.24,2.02
				c-17.8-0.92-33.67-16.35-47.18-45.86c-7.54-16.48-12.2-32.99-14-39.98c-21.65,20.01-37.95,54.71-44.13,79.36
				c-0.18,0.72-0.41,2,0.09,2.58c0.94,1.09,4.41,0.74,5.9,0.59c1.61-0.16,2.58-0.26,3.43,0.54c0.45,0.42,0.73,1.08,0.71,1.69
				c-0.79,27.91,2.73,46.57,10.19,53.98c17.77,17.64,59.29-12.51,59.71-12.82c0.95-0.7,2.29-0.5,2.99,0.46
				c0.7,0.95,0.49,2.29-0.46,2.99C175.1,193.1,150.07,211.27,129.16,211.27z"/>
		</g>
		<g>
			<path d="M183.34,157.26c-0.44,0-0.88-0.13-1.26-0.42c-29.12-21.42-47.14-57.19-47.05-93.34c0-1.18,0.96-2.13,2.14-2.13
				c0,0,0,0,0.01,0c1.18,0,2.13,0.96,2.13,2.14c-0.09,34.81,17.27,69.25,45.3,89.89c0.95,0.7,1.15,2.04,0.45,2.99
				C184.64,156.96,183.99,157.26,183.34,157.26z"/>
		</g>
		<g>
			<path d="M214.01,168.66c-0.05,0-0.1,0-0.15-0.01c-1.18-0.08-2.06-1.11-1.98-2.28c0.61-8.6,5.68-18.56,14.19-20.96
				c1.14-0.32,2.32,0.34,2.64,1.48c0.32,1.14-0.34,2.32-1.48,2.64c-6.54,1.84-10.59,10.2-11.08,17.14
				C216.06,167.8,215.12,168.66,214.01,168.66z"/>
		</g>
		<g>
			<path d="M141.46,176.96c-8.74,0-19.7-9.77-21.12-11.07c-0.54-0.49-0.79-1.22-0.66-1.94c0.12-0.72,0.6-1.32,1.27-1.6l26.89-11.37
				c0.61-0.26,1.31-0.22,1.88,0.11c0.58,0.33,0.97,0.9,1.06,1.56c1.85,12.94,0.22,20.56-4.98,23.3
				C144.46,176.66,142.99,176.96,141.46,176.96z M125.8,164.94c5.7,4.56,13.94,9.38,18.01,7.24c2.97-1.57,4.05-7.26,3.09-16.15
				L125.8,164.94z"/>
		</g>
		<path d="M119.87,127.41c-1.62,3.63-0.82,7.52,1.79,8.68c2.61,1.17,6.04-0.83,7.66-4.46c1.62-3.63,0.82-7.52-1.79-8.68
			C124.92,121.79,121.49,123.78,119.87,127.41z"/>
		<g>
			<path d="M137.35,120.44c-0.7,0-1.38-0.34-1.79-0.97c-1.91-2.92-4.49-5.43-7.45-7.26c-1-0.62-1.32-1.94-0.7-2.94
				c0.62-1,1.94-1.32,2.94-0.7c3.5,2.16,6.54,5.12,8.79,8.55c0.65,0.99,0.37,2.31-0.62,2.96
				C138.15,120.33,137.75,120.44,137.35,120.44z"/>
		</g>
	</g>
</g>
</svg>
