<?xml version="1.0" encoding="utf-8"?>
<!-- Generator: Adobe Illustrator 25.0.0, SVG Export Plug-In . SVG Version: 6.00 Build 0)  -->
<svg version="1.1" xmlns="http://www.w3.org/2000/svg" xmlns:xlink="http://www.w3.org/1999/xlink" x="0px" y="0px"
	 viewBox="0 0 345.07 345.07" style="enable-background:new 0 0 345.07 345.07;" xml:space="preserve">
<style type="text/css">
	.st0{fill:#F6E1DC;}
	.st1{fill:#F0AF9B;}
	.st2{fill:#FFFFFF;}
	.st3{fill:#080717;}
	.st4{fill:none;stroke:#85BAC6;stroke-width:0.4121;stroke-miterlimit:10;}
	.st5{fill:#F2ECDE;}
	.st6{fill:#85BAC6;}
	.st7{fill:#FCDEDE;}
	.st8{fill:#AAD2DC;}
	.st9{fill:#F5F5F5;}
	.st10{fill:#E8EDC5;}
	.st11{fill:#B9D2D7;}
	.st12{fill:#FFFFFF;stroke:#000000;stroke-width:2;stroke-linecap:round;stroke-linejoin:round;stroke-miterlimit:10;}
	.st13{fill:#CEE1E7;}
	.st14{fill:#EDE6E4;}
	.st15{fill:#FDE3EC;}
	.st16{fill:#FDEDE0;}
	.st17{fill:#C7E1E0;}
	.st18{fill:#EFCBBF;}
	.st19{fill:#23285C;}
	.st20{fill:#010101;}
	.st21{fill:#C6E0F5;}
	.st22{fill:#DDD6CC;}
	.st23{fill:#E0E0E0;}
	.st24{fill:#F3F3F3;}
</style>
<g id="Layer_3">
</g>
<g id="_x3C_Layer_x3E_">
	<g>

			<ellipse transform="matrix(0.7071 -0.7071 0.7071 0.7071 -71.4658 172.5338)" class="st15" cx="172.53" cy="172.53" rx="172.53" ry="172.53"/>
		<g>
			<g>
				<polygon class="st2" points="80.86,305.01 181.68,296.43 211.09,206.53 127.63,179.23 				"/>
				<path d="M80.86,307.14c-0.66,0-1.29-0.31-1.7-0.84c-0.44-0.58-0.56-1.35-0.3-2.04l46.78-125.77c0.4-1.07,1.58-1.65,2.67-1.29
					l83.46,27.3c0.54,0.18,0.98,0.56,1.24,1.07c0.26,0.5,0.3,1.09,0.12,1.63l-29.41,89.9c-0.27,0.81-0.99,1.39-1.85,1.46
					l-100.82,8.58C80.98,307.14,80.92,307.14,80.86,307.14z M128.92,181.9L84.03,302.59l96.05-8.17l28.3-86.52L128.92,181.9z"/>
			</g>
			<path d="M194.29,76.81c0,0,30.18,45.53,41.92,44.53c11.74-1,41.86-8.92,40.96-30.19c-0.9-21.26-9.01-16.38-18.24-16.82
				c-9.23-0.44-5.87-22.21-11.67-23.37c-5.81-1.16-12.49,1.04-25.17,6.89C209.41,63.7,194.29,76.81,194.29,76.81z"/>
			<g>
				<path class="st2" d="M138.3,218.55c-17.46-11.99-30.62-30.71-35.4-53.43c-9.66-45.9,18.77-89.68,62.99-100.05
					c72.56-17.01,97.41,45.91,98.05,59.74c0.15,3.24,0.3,6.38,0.47,9.41c0.89,5.06,1.32,10.09,1.33,15.05
					c1.45,10.68,4.13,18.84,10,23.05c8.98,6.45-19.89,82.45-76.23,59.21L138.3,218.55z"/>
				<path d="M220.38,238.11c-7.02,0-14.26-1.53-21.68-4.59c-1.09-0.45-1.61-1.7-1.16-2.79c0.45-1.09,1.7-1.61,2.79-1.16
					c38.71,15.97,61.03-17.54,66.95-28.2c8.38-15.08,8.86-26.12,7.21-27.3c-5.79-4.16-9.14-11.71-10.87-24.5
					c-0.01-0.1-0.02-0.19-0.02-0.28c0-4.86-0.44-9.81-1.29-14.69c-0.01-0.08-0.02-0.16-0.03-0.25c-0.17-3.04-0.32-6.18-0.48-9.43
					c-0.3-6.56-8.03-30.76-28.98-46.59c-17.92-13.54-40.28-17.3-66.46-11.16c-43.77,10.26-70.74,53.1-61.39,97.53
					c4.51,21.41,16.77,39.92,34.52,52.1c0.97,0.67,1.22,2,0.55,2.97c-0.67,0.97-2,1.22-2.97,0.55
					c-18.66-12.81-31.55-32.25-36.28-54.75c-9.83-46.72,18.54-91.77,64.6-102.57c27.46-6.44,51.02-2.43,70.01,11.92
					c20.77,15.69,30.22,40.18,30.67,49.8c0.15,3.19,0.3,6.28,0.47,9.27c0.88,5.04,1.33,10.13,1.34,15.15
					c1.56,11.44,4.38,18.06,9.11,21.46c5.49,3.94,1.28,19.8-5.97,32.85c-7.02,12.63-16.72,22.78-27.34,28.58
					C236.25,236.08,228.46,238.11,220.38,238.11z"/>
			</g>
			<path d="M155.91,47.23c29.7-6.25,59.13,3.58,79.83,23.66c-8.18-0.48-16.49,0.04-24.8,1.79c-56.4,11.87-91.3,72.96-77.94,136.44
				c0.74,3.53,1.64,6.97,2.64,10.36c-23.68-12.25-42.03-35.04-48.07-63.72C77.1,105.97,107.69,57.38,155.91,47.23z"/>
			<path d="M242.91,67.04c0,0-13.73,20.98-36.35,26.34c-11.96,2.83,3.73,5.8,2.96,18.52c-0.78,12.72-7.85,28.33-7.06,35.06
				c0.79,6.74-10.14,6.46-10.14,6.46l-33.81,60.72c-4.05,7.27-12.36,11.06-20.51,9.35l-24.53-5.16l-0.88-24.21l16.36-98.22
				C128.95,95.9,199.39,39.94,242.91,67.04z"/>
			<g>

					<ellipse transform="matrix(0.9739 -0.227 0.227 0.9739 -31.1418 43.6644)" class="st2" cx="174.31" cy="157.26" rx="19.65" ry="19.65"/>
				<path d="M174.27,179.06c-4.18,0-8.28-1.21-11.86-3.55c-4.87-3.18-8.22-8.07-9.42-13.76l0,0c-1.2-5.7-0.11-11.52,3.07-16.39
					c3.18-4.88,8.07-8.22,13.76-9.42c5.7-1.2,11.52-0.11,16.39,3.07c4.88,3.18,8.22,8.07,9.42,13.76
					c2.47,11.76-5.08,23.34-16.83,25.81C177.29,178.9,175.77,179.06,174.27,179.06z M174.35,139.74c-1.21,0-2.43,0.13-3.64,0.38
					c-9.45,1.99-15.52,11.3-13.53,20.75l0,0c0.96,4.58,3.65,8.51,7.57,11.06c3.92,2.56,8.6,3.43,13.18,2.47
					c4.58-0.96,8.51-3.65,11.06-7.57c2.56-3.92,3.43-8.6,2.47-13.18c-0.96-4.58-3.65-8.51-7.57-11.06
					C181,140.71,177.71,139.74,174.35,139.74z"/>
			</g>
			<g>
				<path class="st19" d="M252.27,207.55c-0.28,0-0.56-0.06-0.84-0.17c-7.83-3.34-9.72-11.92-9.79-12.28
					c-0.24-1.16,0.5-2.29,1.65-2.53c1.15-0.24,2.28,0.49,2.53,1.64c0.02,0.09,1.55,6.79,7.29,9.24c1.08,0.46,1.59,1.72,1.13,2.8
					C253.89,207.06,253.1,207.55,252.27,207.55z"/>
			</g>
			<g>
				<path class="st19" d="M182.89,161.46c-1.12,0-2.06-0.88-2.13-2.01l0,0c-0.01-0.07-0.49-6.94-5.81-10.24
					c-1-0.62-1.31-1.94-0.69-2.94c0.62-1,1.94-1.31,2.94-0.69c7.23,4.49,7.8,13.25,7.82,13.62c0.07,1.18-0.84,2.19-2.02,2.25
					C182.97,161.46,182.93,161.46,182.89,161.46z"/>
			</g>
			<g>
				<path class="st19" d="M236.13,135.2c-0.11,0-0.23-0.01-0.34-0.03c-1.16-0.19-1.96-1.28-1.77-2.45
					c0.64-3.95,4.64-8.32,9.75-10.63c5.51-2.49,11.2-2.19,16.02,0.85c1,0.63,1.3,1.95,0.67,2.95c-0.63,1-1.95,1.3-2.95,0.67
					c-4.82-3.03-9.58-1.66-11.99-0.57c-4.11,1.86-6.94,5.23-7.29,7.42C238.07,134.45,237.16,135.2,236.13,135.2z"/>
			</g>
			<path class="st19" d="M249.48,151.18c0.81,2.41,2.87,3.9,4.6,3.31c1.74-0.58,2.49-3.01,1.68-5.42c-0.81-2.41-2.87-3.9-4.6-3.31
				C249.43,146.34,248.67,148.77,249.48,151.18z"/>
			<path d="M202.56,232.59l-9.41,28.77c-10.64-8.95-18.5-21.38-21.58-36.04c-1.23-5.86-1.61-11.7-1.25-17.41
				C178.16,219.44,189.54,228.06,202.56,232.59z"/>
		</g>
		<path d="M164.8,276.22l-64.22-27.04L56.1,299.84c30.69,28.08,71.56,45.23,116.44,45.23c18.26,0,35.85-2.86,52.37-8.12
			C213.87,309.99,192.53,287.9,164.8,276.22z"/>
	</g>
</g>
</svg>
