<svg width="20" height="20" viewBox="0 0 100 100" fill="none" xmlns="http://www.w3.org/2000/svg">
<path fill-rule="evenodd" clip-rule="evenodd" d="M74.0067 26.4671C75.1405 28.4062 74.4876 30.8973 72.5486 32.031L43.1784 49.2035L43.1484 88.1897C43.1467 90.4359 41.3244 92.2554 39.0782 92.2537C36.832 92.252 35.0124 90.4296 35.0142 88.1834L35.0459 46.866C35.047 45.422 35.8137 44.0869 37.0602 43.3581L68.4428 25.009C70.3819 23.8752 72.873 24.528 74.0067 26.4671Z" fill="#444CE7"/>
<path fill-rule="evenodd" clip-rule="evenodd" d="M68.1802 9.86606C69.3012 11.8126 68.6319 14.2993 66.6854 15.4202L26.8843 38.3412V76.2868C26.8843 78.533 25.0634 80.3539 22.8171 80.3539C20.5709 80.3539 18.75 78.533 18.75 76.2868V35.9901C18.75 34.5355 19.5269 33.1916 20.7874 32.4656L62.626 8.37129C64.5725 7.25032 67.0592 7.91955 68.1802 9.86606Z" fill="#444CE7"/>
<path fill-rule="evenodd" clip-rule="evenodd" d="M80.0794 42.088C81.179 44.0467 80.4826 46.5259 78.5239 47.6254L59.3535 58.3872V77.8552C59.3535 80.1014 57.5326 81.9223 55.2864 81.9223C53.0402 81.9223 51.2192 80.1014 51.2192 77.8552V56.0063C51.2192 54.5357 52.0131 53.1796 53.2954 52.4597L74.542 40.5324C76.5007 39.4328 78.9799 40.1293 80.0794 42.088Z" fill="#444CE7"/>
</svg>
