<?xml version="1.0" encoding="UTF-8"?>
<svg version="1.1" xmlns="http://www.w3.org/2000/svg" width="256" height="256">
<path d="M0 0 C84.48 0 168.96 0 256 0 C256 84.48 256 168.96 256 256 C171.52 256 87.04 256 0 256 C0 171.52 0 87.04 0 0 Z " fill="#050505" transform="translate(0,0)"/>
<path d="M0 0 C1.08820541 -0.00744736 1.08820541 -0.00744736 2.19839478 -0.01504517 C4.6159153 -0.02972798 7.03336979 -0.03648567 9.45092773 -0.04199219 C11.13752748 -0.04774712 12.82412721 -0.05350481 14.51072693 -0.05926514 C18.06265569 -0.06979819 21.61456171 -0.07562295 25.16650391 -0.07910156 C29.6748286 -0.08453279 34.18284299 -0.10843351 38.69107151 -0.13707352 C42.18569236 -0.15590564 45.68024234 -0.1609167 49.17490959 -0.16243744 C50.83356322 -0.16542821 52.4922167 -0.17333261 54.15081978 -0.18662262 C79.07017804 -0.37172058 100.12494417 5.44110798 119.07202148 22.16113281 C119.67143555 22.66644531 120.27084961 23.17175781 120.88842773 23.69238281 C130.20012867 32.16149364 137.10095072 44.36091846 141.07202148 56.16113281 C141.38913086 57.03125 141.70624023 57.90136719 142.03295898 58.79785156 C148.07085964 78.21330276 143.97672833 100.35171912 135.07202148 118.16113281 C125.91302735 134.97610666 112.37937321 146.6490058 95.19702148 154.59863281 C94.19251953 155.07562622 94.19251953 155.07562622 93.16772461 155.56225586 C80.2646033 161.17040622 66.35868635 161.5983477 52.54077148 161.45410156 C50.92696534 161.4484864 49.31315397 161.44422543 47.69934082 161.4412384 C43.51053018 161.42994037 39.32204599 161.40060859 35.13336182 161.36712646 C30.83561617 161.33609544 26.5378163 161.32266348 22.23999023 161.30761719 C13.85051972 161.27571965 5.46131153 161.2247128 -2.92797852 161.16113281 C-3.58797852 159.84113281 -4.24797852 158.52113281 -4.92797852 157.16113281 C0.08839354 151.48716574 5.18604495 145.89662901 10.38897991 140.39343357 C12.80531537 137.83269865 15.18963116 135.25403358 17.51269531 132.6081543 C33.74678716 114.18176554 33.74678716 114.18176554 45.54321289 112.73095703 C50.50232375 112.47263429 55.32945119 112.66470055 60.27832031 113.01245117 C70.38362799 113.64336917 79.57775134 110.61302988 87.27124023 104.01660156 C89.97185943 101.2339679 91.43196006 98.6935728 93.07202148 95.16113281 C93.64952148 94.17113281 94.22702148 93.18113281 94.82202148 92.16113281 C97.82104998 84.82096916 97.14552125 75.06352872 94.50952148 67.72363281 C90.54485016 59.37841555 84.58056122 53.72477446 76.07202148 50.16113281 C71.21986107 48.58733901 66.91941013 47.87823295 61.82592773 47.74707031 C61.16995102 47.72770416 60.5139743 47.70833801 59.83811951 47.68838501 C57.7703802 47.62924372 55.70258319 47.58247052 53.63452148 47.53613281 C52.22108754 47.49789248 50.8076754 47.45883736 49.39428711 47.41894531 C45.95373296 47.32359829 42.51301309 47.23932994 39.07202148 47.16113281 C39.08773193 48.59948486 39.08773193 48.59948486 39.10375977 50.06689453 C39.13991477 53.61894 39.16290541 57.17096916 39.18188477 60.72314453 C39.19195266 62.2615838 39.20560795 63.80000388 39.22290039 65.33837891 C39.24711465 67.54757414 39.25849639 69.75651676 39.26733398 71.96582031 C39.27765656 72.65545868 39.28797913 73.34509705 39.2986145 74.05563354 C39.29901627 75.75914188 39.19393174 77.46199224 39.07202148 79.16113281 C37.07202148 81.16113281 37.07202148 81.16113281 35.16783142 81.40837097 C34.00653465 81.40623344 34.00653465 81.40623344 32.82177734 81.40405273 C31.50547585 81.40866768 31.50547585 81.40866768 30.1625824 81.41337585 C28.7391024 81.40259758 28.7391024 81.40259758 27.28686523 81.39160156 C26.31544083 81.39114334 25.34401642 81.39068512 24.34315491 81.39021301 C22.28783956 81.38718905 20.23252653 81.37929847 18.17724609 81.36694336 C15.01904244 81.34868785 11.86113176 81.34643362 8.70288086 81.34667969 C6.71003976 81.34176463 4.71720067 81.33593636 2.72436523 81.32910156 C1.77335434 81.32798874 0.82234344 81.32687592 -0.15748596 81.32572937 C-1.03186813 81.31934952 -1.90625031 81.31296967 -2.80712891 81.30639648 C-3.96723228 81.30067879 -3.96723228 81.30067879 -5.15077209 81.29484558 C-6.92797852 81.16113281 -6.92797852 81.16113281 -7.92797852 80.16113281 C-8.02829732 77.7020806 -8.06416032 75.27109854 -8.05737305 72.81152344 C-8.05912537 72.04245163 -8.06087769 71.27337982 -8.06268311 70.48100281 C-8.06710191 67.92644018 -8.06416354 65.3719462 -8.06079102 62.81738281 C-8.06146405 61.050008 -8.06243406 59.28263328 -8.06369019 57.51525879 C-8.0651672 53.80622478 -8.0630125 50.09721481 -8.05834961 46.38818359 C-8.05265232 41.62290789 -8.05593131 36.85768849 -8.06192207 32.09241486 C-8.0655276 28.44142224 -8.06438914 24.79044308 -8.06179428 21.13945007 C-8.06112499 19.38189182 -8.06195351 17.62433236 -8.06427383 15.86677551 C-8.06680022 13.41473127 -8.06295998 10.9627795 -8.05737305 8.51074219 C-8.05939728 7.77720016 -8.06142151 7.04365814 -8.06350708 6.28788757 C-8.03400443 -0.66604404 -6.72430744 0.03485123 0 0 Z " fill="#FCFCFC" transform="translate(65.927978515625,47.8388671875)"/>
</svg>
