<svg width="282" height="284" viewBox="0 0 282 284" fill="none" xmlns="http://www.w3.org/2000/svg">
<path d="M115.222 189.526C124.229 192.057 132.103 189.948 139.383 184.727C141.055 183.514 145.046 178.03 146.017 177.872C157.774 181.616 175.302 182.407 181.881 169.961C181.45 170.805 177.351 171.596 176.327 171.86C174.762 172.334 173.198 172.756 171.634 173.02C168.938 173.495 166.187 173.653 163.437 173.336C160.525 173.02 157.666 172.282 154.862 171.438C151.248 170.383 148.066 168.959 144.669 167.325C143.914 166.955 142.997 166.586 142.242 166.903C141.487 167.219 141.109 168.01 140.786 168.696C138.251 173.969 134.422 179.032 129.514 182.459C127.195 184.094 124.66 185.36 121.91 186.204C120.453 186.626 118.997 186.942 117.487 187.153C116.84 187.258 113.496 187.047 113.173 187.417C111.069 189.79 114.143 189.21 115.222 189.473V189.526Z" fill="black"/>
<path d="M140.951 9C60.05 9 3.82627 69.4741 6.06454 144.121C9.98239 205.188 49.6412 242.687 75.6901 254.454C79.8626 245.697 78.0631 237.462 75.6901 223.013C75.2048 220.06 74.4497 217.106 73.5329 214.259C72.7778 211.938 71.9689 209.565 71.6453 208.194C71.5374 207.667 71.6453 207.087 71.861 206.612C77.5238 196.751 88.6877 186.837 97.5324 179.506C98.6111 178.61 103.788 175.973 103.195 174.497C102.063 170.172 86.5843 184.253 84.8585 186.046C79.1418 191.741 74.5576 198.28 70.5127 205.188C68.8948 208.563 62.0994 196.118 60.05 192.057C59.7264 191.477 59.1871 191.003 58.8635 190.422C57.7849 188.577 57.8927 188.788 58.8635 188.102C62.3691 185.518 71.9689 180.245 74.8272 178.874C81.8923 175.551 89.4966 172.282 97.3167 169.645C101.2 168.327 101.254 165.848 96.6695 166.375C87.609 167.43 70.6206 175.92 62.8005 181.036C61.1826 182.09 60.05 182.776 56.6523 185.254C53.8479 180.139 51.5288 173.758 51.0434 167.694C65.4971 162.262 83.2406 161.102 98.9346 161.471C99.5818 161.471 100.013 160.838 99.7436 160.311C96.1841 153.455 62.3691 162.051 56.7062 163.633C54.7647 164.319 52.0681 165.268 50.7738 165.268C50.7738 165.268 50.5041 160.1 50.3963 159.309C50.2884 158.465 50.0727 156.989 50.0187 156.25C50.0187 155.987 49.8569 155.723 49.6412 155.512C49.1019 155.037 48.0233 154.194 47.43 153.772C45.111 152.19 42.4683 151.188 39.9875 149.922C25.5338 138.637 36.6977 122.553 53.0928 123.976C80.7597 76.7258 151.14 60.2725 201.243 82.4739C201.512 82.5794 204.047 80.9446 204.425 80.7337C205.611 80.1536 206.798 79.679 207.984 79.2571C210.357 78.4661 212.838 77.9387 215.373 77.9387C217.8 77.9387 220.227 78.4661 222.384 79.5735C225.728 81.3665 227.831 84.5833 228.586 88.1693C229.287 91.5444 229.287 94.5503 227.561 97.6089C225.566 101.089 224.433 103.568 225.943 107.418C230.42 118.65 233.116 130.41 236.891 141.854C237.161 142.592 237.593 143.541 236.891 143.963C217.584 139.639 197.306 138.9 177.944 143.225C176.65 143.488 176.218 145.123 177.135 146.072C178.268 147.233 181.288 145.914 182.744 145.65C187.328 144.807 191.967 144.279 196.605 144.016C206.528 143.488 216.451 144.068 226.321 144.859C229.449 145.123 237.107 144.701 238.402 147.971C241.476 155.723 244.334 163.739 248.055 171.174C251.723 178.452 255.768 185.518 260.298 192.321C261.538 194.167 262.833 195.96 264.181 197.7C271.623 181.299 275.83 163.159 275.83 144.068C275.722 71.2941 221.852 9 140.951 9Z" fill="black"/>
<path d="M171.419 109.527C171.257 109.843 171.149 110.107 170.987 110.423C169.315 114.537 170.232 119.547 173.9 122.342C176.596 124.451 180.425 124.978 183.661 123.765C185.333 123.133 186.789 122.025 187.76 120.549C188.731 119.019 189.108 117.174 189.108 115.381C189.108 113.324 188.569 111.214 187.436 109.421C183.931 104.043 174.547 103.304 171.419 109.474V109.527Z" fill="black"/>
<path d="M234.303 229.604C232.2 228.655 230.15 227.706 228.047 226.809C224.002 225.069 219.795 223.487 215.643 222.327C207.337 220.112 198.708 219.11 190.133 219.426C189.486 219.426 188.785 219.426 188.245 219.163C187.544 218.794 187.221 218.003 186.951 217.264C183.176 207.825 177.459 199.124 170.178 191.899C167.374 189.157 163.653 186.414 159.823 187.416C157.882 187.944 159.068 193.323 159.284 194.588C159.5 195.748 159.931 197.014 159.823 198.227C159.716 199.229 159.068 199.493 158.529 198.649C157.289 196.75 157.289 194.43 156.426 192.373C155.455 190.053 153.891 187.258 150.925 188.049C150.17 188.26 149.469 188.682 148.929 189.209C137.388 200.442 133.289 216.684 129.568 232.083C127.303 232.61 125.092 233.296 122.88 234.087C115.6 236.724 108.858 240.626 102.98 245.636C100.067 248.114 97.3708 250.857 94.9439 253.81C92.1934 257.185 90.3597 260.929 88.3103 264.726C90.3058 263.249 92.2473 261.72 94.2428 260.243C104.598 252.386 115.222 244.423 127.734 240.52C133.02 238.886 138.952 238.042 143.86 240.52C147.743 242.524 150.332 246.374 151.734 250.435C154.43 258.503 152.597 267.89 146.988 274.429C159.554 274.165 172.066 271.951 183.877 267.837C178.915 264.62 174.223 260.718 171.365 255.603C168.453 250.487 167.536 244.106 170.07 238.78C172.174 234.245 176.542 230.975 181.342 229.288C186.142 227.6 191.319 227.284 196.389 227.548C207.607 228.022 218.609 230.923 229.341 234.298C230.15 234.561 232.415 235.142 234.519 235.194C236.838 235.3 238.941 234.772 238.617 232.557C238.348 230.817 235.705 230.237 234.357 229.657L234.303 229.604ZM163.329 212.94C167.751 216.157 162.196 223.065 157.828 219.374C154.107 216.262 158.098 209.09 163.329 212.94ZM167.05 236.882C166.942 237.251 166.619 237.515 166.295 237.673C162.196 239.571 157.666 239.835 153.244 239.36C148.282 238.833 143.536 236.934 139.707 233.77C138.413 232.716 137.226 231.239 136.795 229.552C136.525 228.391 136.633 227.126 138.197 227.653C138.305 227.653 138.413 227.759 138.521 227.759C140.3 228.497 141.433 230.343 142.997 231.397C145.208 232.927 147.689 234.087 150.224 234.878C152.812 235.722 155.509 236.196 158.259 236.354C159.77 236.46 161.334 236.513 162.844 236.249C163.383 236.143 167.697 235.036 167.104 236.882H167.05Z" fill="black"/>
<path d="M122.341 155.617C123.797 156.198 125.092 156.989 126.494 157.674C129.514 159.098 132.75 160.1 136.094 160.153C142.673 160.258 146.772 156.356 150.332 151.451C152.705 148.235 155.994 144.701 157.343 140.904C160.579 131.623 147.096 129.777 140.84 130.094C134.853 130.41 128.759 131.992 123.366 134.524C119.429 136.369 116.139 139.322 114.629 143.33C114.629 143.436 114.521 143.594 114.467 143.699C113.173 147.391 114.198 151.557 117.757 153.614C119.213 154.457 120.831 154.985 122.341 155.565V155.617Z" fill="black"/>
<path d="M76.2296 141.696C78.1172 150.08 89.7664 152.401 93.973 144.227C99.6898 127.879 74.0184 123.818 76.2296 141.696Z" fill="black"/>
<path d="M172.767 138.69C172.605 139.059 172.444 139.481 172.605 139.85C173.145 141.274 178.322 137.846 179.239 137.424C181.72 136.158 184.201 134.893 186.682 133.68C191.589 131.307 196.605 129.092 201.782 127.299C209.171 124.768 216.883 123.397 224.38 121.182C224.488 121.182 224.649 121.129 224.703 120.971C224.811 120.707 224.488 120.496 224.164 120.443C222.6 120.18 220.982 120.285 219.418 120.443C216.829 120.654 214.241 121.182 211.652 121.709C207.499 122.553 203.4 123.66 199.355 124.926C191.589 127.404 184.039 130.674 177.244 135.104C175.626 136.158 173.738 136.791 172.821 138.637L172.767 138.69Z" fill="black"/>
<path d="M229.503 169.065C229.88 169.223 230.15 168.748 229.827 168.537C226.105 165.584 221.629 163.422 217.26 161.523C210.789 158.676 204.047 156.461 197.252 154.457C194.286 153.613 191.319 152.822 188.299 152.084C187.49 151.873 186.681 151.715 185.872 151.609C184.093 151.398 182.313 151.346 180.479 151.398C179.616 151.398 177.351 151.135 176.758 151.82C175.086 153.666 178.969 154.088 180.048 154.141C196.713 157.674 213.917 162.895 229.449 169.065H229.503Z" fill="black"/>
</svg>
