<svg width="256" height="256" viewBox="0 0 256 256" fill="none" xmlns="http://www.w3.org/2000/svg">
<g clip-path="url(#clip0_338_416)">
<path d="M166.716 166.136C134.711 203.629 91.1426 225.007 53.6759 234.98C53.6626 234.985 53.6493 234.989 53.6359 234.994C52.6981 235.238 51.7693 235.483 50.8448 235.714C48.8315 236.136 46.747 236.358 44.6137 236.358C27.8537 236.358 14.2715 222.776 14.2715 206.016V32.3936C14.2759 70.9447 22.4981 129.998 43.6626 160.971C49.2137 169.096 55.5248 175.936 62.3648 181.416C62.3737 181.416 62.387 181.425 62.3959 181.438C62.9604 181.896 63.5337 182.34 64.107 182.771C94.147 205.527 134.72 200.363 165.827 165.691L166.716 166.136Z" fill="url(#paint0_linear_338_416)"/>
<path d="M166.366 165.78L166.223 165.949L166.201 165.975L165.215 167.144C154.841 178.42 143.299 186.731 131.241 191.775C131.028 191.864 130.81 191.953 130.597 192.038C121.93 195.495 112.988 197.278 104.001 197.278C102.508 197.278 101.019 197.229 99.5301 197.131C77.099 195.651 56.7124 183.078 42.1257 161.722C32.4501 147.562 25.059 126.709 20.1657 99.7397C20.0768 99.242 19.9835 98.7442 19.8946 98.2464C19.8946 98.2286 19.8901 98.2064 19.8857 98.1886C19.6146 96.6375 19.3524 95.0953 19.1035 93.562C19.0857 93.4286 19.0635 93.2953 19.0413 93.1664C18.8324 91.8597 18.6324 90.5619 18.4412 89.273C18.3479 88.6464 18.259 88.0242 18.1657 87.4064C17.8901 85.4597 17.6324 83.5353 17.3879 81.6286C17.2857 80.793 17.1835 79.9619 17.0813 79.1308C17.0324 78.6953 16.979 78.2597 16.9257 77.8242C16.8368 77.0419 16.7479 76.2641 16.6635 75.4908C16.6635 75.473 16.659 75.4553 16.659 75.4419C16.4901 73.913 16.3346 72.4019 16.1879 70.9086C16.179 70.8153 16.1701 70.7219 16.1612 70.6286C16.099 69.9708 16.0368 69.3175 15.9746 68.6686C15.9657 68.5352 15.9524 68.4064 15.939 68.2775C15.8501 67.2952 15.7657 66.3264 15.6857 65.3664C15.6412 64.8019 15.5968 64.2419 15.5479 63.6864C15.459 62.5575 15.379 61.4464 15.299 60.3486C15.2901 60.2508 15.2857 60.1486 15.2768 60.0508C15.2101 59.0552 15.1435 58.0775 15.0813 57.113C15.059 56.7352 15.0368 56.3575 15.0101 55.9797C14.9701 55.3175 14.9346 54.6597 14.8946 54.0108C14.899 54.0019 14.8946 53.993 14.8946 53.9841C14.859 53.3441 14.8279 52.713 14.7924 52.0863C14.7924 52.0463 14.7924 52.0063 14.7924 51.9619C14.7435 51.033 14.7035 50.1219 14.6635 49.2286C14.6235 48.3308 14.5879 47.4552 14.5568 46.5974C14.5524 46.4686 14.5479 46.3441 14.5435 46.2197C14.5213 45.6063 14.499 45.0063 14.4813 44.4197C14.4768 44.2908 14.4724 44.1619 14.4679 44.033C14.4546 43.5752 14.4412 43.1219 14.4279 42.6774C14.419 42.393 14.4146 42.1085 14.4057 41.833C14.3968 41.5574 14.3924 41.2863 14.3835 41.0197C14.3835 40.9397 14.3835 40.8597 14.379 40.7797C14.3701 40.393 14.3612 40.0152 14.3568 39.6419C14.339 38.7574 14.3257 37.9085 14.3124 37.0863C14.3079 36.6419 14.3035 36.2063 14.299 35.7841V35.5708C14.299 35.1752 14.2901 34.7885 14.2901 34.4108C14.2901 34.1974 14.2857 33.9841 14.2857 33.7708C14.2813 33.2819 14.2812 32.8108 14.2812 32.3574V31.913C14.299 27.7352 17.6857 24.3574 21.8679 24.3574C23.6812 24.3574 25.3435 24.993 26.6501 26.0596L27.7479 27.1574L166.37 165.78H166.366Z" fill="url(#paint1_radial_338_416)"/>
<path d="M19.0977 93.5625C19.3465 95.0958 19.6088 96.6381 19.8799 98.1892C19.6043 96.6425 19.3465 95.0958 19.0977 93.5625Z" fill="url(#paint2_radial_338_416)"/>
<path fill-rule="evenodd" clip-rule="evenodd" d="M22.7867 99.2644C27.0335 122.666 33.8958 144.96 44.319 160.219C59.1649 181.944 79.6206 193.587 101.063 194.547C122.512 195.507 145.162 185.786 164.39 164.356L166.375 166.137C146.715 188.049 123.331 198.213 100.944 197.211C78.5513 196.208 57.3692 184.043 42.1173 161.723L42.1172 161.723C31.376 145.999 24.4316 123.263 20.1629 99.7406C15.8884 76.1866 14.2715 51.6975 14.2715 32.3574H16.9382C16.9382 51.5685 18.5457 75.8951 22.7867 99.2644Z" fill="url(#paint3_linear_338_416)"/>
<path d="M89.3828 89.6901C121.387 52.1967 164.956 30.8189 202.423 20.8455C202.436 20.8411 202.449 20.8367 202.463 20.8322C203.401 20.5878 204.329 20.3433 205.254 20.1122C207.267 19.69 209.352 19.4678 211.485 19.4678C228.245 19.4678 241.827 33.05 241.827 49.81V223.432C241.823 184.881 233.601 125.828 212.436 94.8545C206.885 86.7301 200.574 79.8901 193.734 74.4101C193.725 74.4101 193.712 74.4012 193.703 74.3878C193.138 73.93 192.565 73.4856 191.992 73.0545C161.952 50.2989 121.378 55.4634 90.2717 90.1345L89.3828 89.6901Z" fill="url(#paint4_linear_338_416)"/>
<path d="M89.7402 90.0466L89.8825 89.8778L89.9047 89.8511L90.8913 88.6822C101.265 77.4066 112.807 69.0955 124.865 64.0511C125.078 63.9622 125.296 63.8733 125.509 63.7888C134.176 60.3311 143.118 58.5488 152.105 58.5488C153.598 58.5488 155.087 58.5977 156.576 58.6955C179.007 60.1755 199.394 72.7489 213.98 94.1044C223.656 108.264 231.047 129.118 235.94 156.087C236.029 156.584 236.122 157.082 236.211 157.58C236.211 157.598 236.216 157.62 236.22 157.638C236.491 159.189 236.754 160.731 237.002 162.265C237.02 162.398 237.042 162.531 237.065 162.66C237.274 163.967 237.474 165.265 237.665 166.553C237.758 167.18 237.847 167.802 237.94 168.42C238.216 170.367 238.474 172.291 238.718 174.198C238.82 175.033 238.922 175.865 239.025 176.696C239.074 177.131 239.127 177.567 239.18 178.002C239.269 178.785 239.358 179.562 239.442 180.336C239.442 180.353 239.447 180.371 239.447 180.385C239.616 181.913 239.771 183.425 239.918 184.918C239.927 185.011 239.936 185.105 239.945 185.198C240.007 185.856 240.069 186.509 240.131 187.158C240.14 187.291 240.154 187.42 240.167 187.549C240.256 188.531 240.34 189.5 240.42 190.46C240.465 191.025 240.509 191.585 240.558 192.14C240.647 193.269 240.727 194.38 240.807 195.478C240.816 195.576 240.82 195.678 240.829 195.776C240.896 196.771 240.962 197.749 241.025 198.713C241.047 199.091 241.069 199.469 241.096 199.847C241.136 200.509 241.171 201.167 241.211 201.816C241.207 201.825 241.211 201.833 241.211 201.842C241.247 202.482 241.278 203.113 241.314 203.74C241.314 203.78 241.314 203.82 241.314 203.865C241.362 204.793 241.402 205.705 241.442 206.598C241.482 207.496 241.518 208.371 241.549 209.229C241.554 209.358 241.558 209.482 241.562 209.607C241.585 210.22 241.607 210.82 241.625 211.407C241.629 211.536 241.634 211.665 241.638 211.793C241.651 212.251 241.665 212.705 241.678 213.149C241.687 213.433 241.691 213.718 241.7 213.993C241.709 214.269 241.714 214.54 241.722 214.807C241.722 214.887 241.722 214.967 241.727 215.047C241.736 215.433 241.745 215.811 241.749 216.185C241.767 217.069 241.78 217.918 241.794 218.74C241.798 219.185 241.802 219.62 241.807 220.042V220.256C241.807 220.651 241.816 221.038 241.816 221.416C241.816 221.629 241.82 221.842 241.82 222.056C241.825 222.545 241.825 223.016 241.825 223.469V223.913C241.807 228.091 238.42 231.469 234.238 231.469C232.425 231.469 230.762 230.833 229.456 229.767L228.358 228.669L89.7402 90.0466Z" fill="url(#paint5_radial_338_416)"/>
<path d="M237.005 162.263C236.756 160.73 236.494 159.188 236.223 157.637C236.498 159.183 236.756 160.73 237.005 162.263Z" fill="url(#paint6_radial_338_416)"/>
<path fill-rule="evenodd" clip-rule="evenodd" d="M155.038 61.2802C133.59 60.3201 110.94 70.0405 91.7114 91.4709L89.7266 89.69C109.387 67.7782 132.77 57.6141 155.157 58.6162C177.55 59.6186 198.732 71.7844 213.984 94.1038C224.728 109.825 231.672 132.562 235.94 156.085C240.214 179.639 241.83 204.129 241.83 223.469H239.163C239.163 204.258 237.557 179.931 233.317 156.561C229.07 133.159 222.208 110.864 211.783 95.6083L212.883 94.8561L211.783 95.6083C196.937 73.8832 176.481 62.2401 155.038 61.2802Z" fill="url(#paint7_linear_338_416)"/>
<path d="M127.999 182.361C158.021 182.361 182.359 158.023 182.359 128.001C182.359 97.9784 158.021 73.6406 127.999 73.6406C97.9764 73.6406 73.6387 97.9784 73.6387 128.001C73.6387 158.023 97.9764 182.361 127.999 182.361Z" fill="white"/>
</g>
<defs>
<linearGradient id="paint0_linear_338_416" x1="-29.2733" y1="103.961" x2="123.447" y2="187.663" gradientUnits="userSpaceOnUse">
<stop offset="0.42" stop-color="#C6B2FF"/>
<stop offset="0.84" stop-color="#735DFF"/>
</linearGradient>
<radialGradient id="paint1_radial_338_416" cx="0" cy="0" r="1" gradientUnits="userSpaceOnUse" gradientTransform="translate(121.623 142.275) rotate(180) scale(152.007 154.231)">
<stop offset="0.28" stop-color="#DAABFF"/>
<stop offset="0.87" stop-color="#735DFF"/>
</radialGradient>
<radialGradient id="paint2_radial_338_416" cx="0" cy="0" r="1" gradientUnits="userSpaceOnUse" gradientTransform="translate(19.7065 96.3181) scale(3.13778 3.13778)">
<stop offset="0.3" stop-color="#DAABFF"/>
<stop offset="0.87" stop-color="#735DFF"/>
</radialGradient>
<linearGradient id="paint3_linear_338_416" x1="63.1226" y1="19.0036" x2="112.042" y2="197.948" gradientUnits="userSpaceOnUse">
<stop stop-color="white" stop-opacity="0"/>
<stop offset="0.1" stop-color="white" stop-opacity="0.01"/>
<stop offset="0.3" stop-color="white" stop-opacity="0.0729"/>
<stop offset="0.59" stop-color="white" stop-opacity="0.3481"/>
<stop offset="0.94" stop-color="white"/>
</linearGradient>
<linearGradient id="paint4_linear_338_416" x1="122.821" y1="137.555" x2="259.519" y2="116.348" gradientUnits="userSpaceOnUse">
<stop offset="0.35" stop-color="#F02173"/>
<stop offset="0.61" stop-color="#E81DB8"/>
<stop offset="0.76" stop-color="#C516E1"/>
<stop offset="1" stop-color="#735DFF"/>
</linearGradient>
<radialGradient id="paint5_radial_338_416" cx="0" cy="0" r="1" gradientUnits="userSpaceOnUse" gradientTransform="translate(134.486 113.539) scale(152.003 154.231)">
<stop offset="0.22" stop-color="#FFD522"/>
<stop offset="0.27" stop-color="#FFCA27"/>
<stop offset="0.34" stop-color="#FFAC37"/>
<stop offset="0.45" stop-color="#FF7D50"/>
<stop offset="0.54" stop-color="#FF4B6C"/>
<stop offset="1" stop-color="#C81395"/>
</radialGradient>
<radialGradient id="paint6_radial_338_416" cx="0" cy="0" r="1" gradientUnits="userSpaceOnUse" gradientTransform="translate(236.396 159.508) rotate(180) scale(3.13777 3.13778)">
<stop offset="0.3" stop-color="#DAABFF"/>
<stop offset="0.87" stop-color="#735DFF"/>
</radialGradient>
<linearGradient id="paint7_linear_338_416" x1="193.079" y1="236.788" x2="144.177" y2="57.8706" gradientUnits="userSpaceOnUse">
<stop stop-color="white" stop-opacity="0"/>
<stop offset="0.1" stop-color="white" stop-opacity="0.01"/>
<stop offset="0.3" stop-color="white" stop-opacity="0.0729"/>
<stop offset="0.59" stop-color="white" stop-opacity="0.3481"/>
<stop offset="0.94" stop-color="white"/>
</linearGradient>
<clipPath id="clip0_338_416">
<rect width="227.556" height="227.556" fill="white" transform="translate(14.2207 14.2227)"/>
</clipPath>
</defs>
</svg>
