<?xml version="1.0" encoding="UTF-8"?>
<svg version="1.1" xmlns="http://www.w3.org/2000/svg" width="20" height="20" viewBox="0 0 280 280" preserveAspectRatio="xMidYMid meet">
<path d="M0 0 C0.69931641 -0.01160156 1.39863281 -0.02320312 2.11914062 -0.03515625 C8.14423147 -0.00133909 12.10151392 1.58564497 16.7421875 5.56640625 C17.50789063 6.34886719 18.27359375 7.13132812 19.0625 7.9375 C20.23425781 9.11505859 20.23425781 9.11505859 21.4296875 10.31640625 C23.1875 12.375 23.1875 12.375 23.1875 14.375 C23.8475 14.375 24.5075 14.375 25.1875 14.375 C26.84375 15.984375 26.84375 15.984375 28.6875 18.125 C29.2959375 18.82109375 29.904375 19.5171875 30.53125 20.234375 C32.06726963 22.21960792 33.1598966 24.09372045 34.1875 26.375 C34.8475 26.375 35.5075 26.375 36.1875 26.375 C37.64409977 27.98882948 39.02798951 29.66863216 40.375 31.375 C44.86988722 36.98819784 49.36719445 42.55954034 54.4609375 47.64453125 C57.73644762 50.92473407 60.90272695 54.29622304 64.0625 57.6875 C64.68455322 58.35467041 65.30660645 59.02184082 65.94750977 59.70922852 C70.11514988 64.19177887 74.20241359 68.7291212 78.1875 73.375 C79.49871022 74.87612758 80.81120866 76.37613091 82.125 77.875 C83.14583333 79.04166667 84.16666667 80.20833333 85.1875 81.375 C89.2317928 79.80274566 91.69323014 76.92327288 94.5 73.75 C94.98782959 73.20802979 95.47565918 72.66605957 95.97827148 72.10766602 C99.13832488 68.5877191 102.26031596 65.03415431 105.35546875 61.45703125 C108.55960975 57.81565139 111.8607047 54.26116167 115.1484375 50.6953125 C117.20327328 48.55553118 117.20327328 48.55553118 118.1875 46.375 C118.8475 46.375 119.5075 46.375 120.1875 46.375 C120.45554443 45.78477051 120.72358887 45.19454102 120.99975586 44.58642578 C122.19698994 42.35733096 123.45001195 40.81625218 125.19140625 38.9921875 C126.05475586 38.07759766 126.05475586 38.07759766 126.93554688 37.14453125 C127.53431641 36.51933594 128.13308594 35.89414063 128.75 35.25 C129.94082327 33.99931717 131.12972111 32.74679738 132.31640625 31.4921875 C132.84306885 30.94159668 133.36973145 30.39100586 133.91235352 29.82373047 C135.28987804 28.38295511 135.28987804 28.38295511 136.1875 26.375 C136.8475 26.375 137.5075 26.375 138.1875 26.375 C138.4453125 25.80265625 138.703125 25.2303125 138.96875 24.640625 C140.30115942 22.16371005 141.83806118 20.2408834 143.6875 18.125 C144.2959375 17.41859375 144.904375 16.7121875 145.53125 15.984375 C147.1875 14.375 147.1875 14.375 149.1875 14.375 C149.56455078 13.51261719 149.56455078 13.51261719 149.94921875 12.6328125 C151.34919681 10.08017112 152.94909549 8.31266878 155 6.25 C155.99966797 5.22519531 155.99966797 5.22519531 157.01953125 4.1796875 C161.73356735 0.25557096 166.36141309 0.03540033 172.3125 0.0625 C173.38564453 0.03833008 173.38564453 0.03833008 174.48046875 0.01367188 C179.67213534 0.00881985 179.67213534 0.00881985 182.1171875 1.74609375 C183.66322623 4.09900671 184.1875 5.5333493 184.1875 8.375 C182.4375 11.125 182.4375 11.125 179.1875 13.375 C176.68359375 13.6640625 176.68359375 13.6640625 173.875 13.75 C168.36496358 14.02365282 165.86239547 15.51649321 162.00390625 19.3671875 C161.40449219 20.02976562 160.80507812 20.69234375 160.1875 21.375 C159.63964844 21.97570312 159.09179688 22.57640625 158.52734375 23.1953125 C157.40110397 24.46799008 156.28960846 25.75383246 155.19140625 27.05078125 C152.16262607 30.56369394 148.99419532 33.94693665 145.83081055 37.33862305 C143.20578615 40.13738575 143.20578615 40.13738575 141.1875 43.375 C140.5275 43.375 139.8675 43.375 139.1875 43.375 C138.9296875 43.94734375 138.671875 44.5196875 138.40625 45.109375 C137.07384058 47.58628995 135.53693882 49.5091166 133.6875 51.625 C133.0790625 52.33140625 132.470625 53.0378125 131.84375 53.765625 C130.1875 55.375 130.1875 55.375 128.1875 55.375 C127.91945557 55.96522949 127.65141113 56.55545898 127.37524414 57.16357422 C126.17801006 59.39266904 124.92498805 60.93374782 123.18359375 62.7578125 C122.32024414 63.67240234 122.32024414 63.67240234 121.43945312 64.60546875 C120.84068359 65.23066406 120.24191406 65.85585937 119.625 66.5 C118.43417673 67.75068283 117.24527889 69.00320262 116.05859375 70.2578125 C115.53193115 70.80840332 115.00526855 71.35899414 114.46264648 71.92626953 C113.08512196 73.36704489 113.08512196 73.36704489 112.1875 75.375 C111.5275 75.375 110.8675 75.375 110.1875 75.375 C109.92179199 75.96071777 109.65608398 76.54643555 109.38232422 77.14990234 C107.33617538 80.96040511 104.25971121 83.86671232 101.3125 87 C100.68730469 87.680625 100.06210938 88.36125 99.41796875 89.0625 C98.50337891 90.04089844 98.50337891 90.04089844 97.5703125 91.0390625 C97.01746582 91.63154785 96.46461914 92.2240332 95.89501953 92.83447266 C92.29126355 96.0857881 89.21043914 96.62094198 84.3828125 96.8359375 C77.75506201 95.44434576 73.18047396 89.51008853 68.8125 84.75 C68.17183594 84.069375 67.53117187 83.38875 66.87109375 82.6875 C62.1875 77.63441165 62.1875 77.63441165 62.1875 75.375 C61.5275 75.375 60.8675 75.375 60.1875 75.375 C58.73347658 73.7373728 57.34901322 72.03765804 56 70.3125 C52.68470572 66.14960622 49.30216034 62.33168045 45.40234375 58.71484375 C44.1875 57.375 44.1875 57.375 44.1875 55.375 C43.5275 55.375 42.8675 55.375 42.1875 55.375 C40.53125 53.765625 40.53125 53.765625 38.6875 51.625 C38.0790625 50.92890625 37.470625 50.2328125 36.84375 49.515625 C35.30773037 47.53039208 34.2151034 45.65627955 33.1875 43.375 C32.5275 43.375 31.8675 43.375 31.1875 43.375 C29.73347658 41.7373728 28.34901322 40.03765804 27 38.3125 C23.68470572 34.14960622 20.30216034 30.33168045 16.40234375 26.71484375 C15.1875 25.375 15.1875 25.375 15.1875 23.375 C14.5275 23.375 13.8675 23.375 13.1875 23.375 C11.53125 21.66015625 11.53125 21.66015625 9.6875 19.4375 C7.29823001 16.45454821 7.29823001 16.45454821 4.1875 14.375 C2.41767834 14.27240164 0.64652191 14.19212126 -1.125 14.125 C-5.17516047 13.78438204 -6.62371315 13.50569859 -10.0625 11.125 C-11.8125 8.375 -11.8125 8.375 -11.8125 5.75 C-9.35478606 -0.08707061 -5.91761491 -0.09657032 0 0 Z " fill="#1A1D20" transform="translate(53.8125,87.625)"/>
<path d="M0 0 C4.07821252 2.03910626 5.83516013 3.75849603 8.8125 7.125 C9.6890625 8.10855469 10.565625 9.09210938 11.46875 10.10546875 C13.59652255 12.53861606 15.70671725 14.9853714 17.8125 17.4375 C22.2375101 22.90132173 22.2375101 22.90132173 28.578125 25.28125 C29.54234375 25.3328125 30.5065625 25.384375 31.5 25.4375 C35.5561979 25.67319799 36.78878181 25.85377202 40.25 28.25 C42 31 42 31 42 33.625 C40.88372026 36.27616439 40.33871565 37.33016651 38 39 C35.29997644 39.30032977 32.88149723 39.41896369 30.1875 39.375 C29.48818359 39.38660156 28.78886719 39.39820313 28.06835938 39.41015625 C22.04326853 39.37633909 18.08598608 37.78935503 13.4453125 33.80859375 C12.67960937 33.02613281 11.91390625 32.24367187 11.125 31.4375 C10.34382813 30.65246094 9.56265625 29.86742187 8.7578125 29.05859375 C7 27 7 27 7 25 C6.34 25 5.68 25 5 25 C3.34375 23.390625 3.34375 23.390625 1.5 21.25 C0.8915625 20.55390625 0.283125 19.8578125 -0.34375 19.140625 C-1.87976963 17.15539208 -2.9723966 15.28127955 -4 13 C-4.66 13 -5.32 13 -6 13 C-6.66 11.68 -7.32 10.36 -8 9 C-5.36 6.03 -2.72 3.06 0 0 Z " fill="#1A1D20" transform="translate(196,153)"/>
<path d="M0 0 C2.04119788 1.61594832 4.04072937 3.2856382 6 5 C6 5.66 6 6.32 6 7 C6.66 7 7.32 7 8 7 C8.8359375 8.6171875 8.8359375 8.6171875 9 11 C7.27262966 13.23786466 5.60625407 15.13891361 3.625 17.125 C-0.11348286 20.74496191 -0.11348286 20.74496191 -3 25 C-3.66 25 -4.32 25 -5 25 C-5.37705078 25.86238281 -5.37705078 25.86238281 -5.76171875 26.7421875 C-7.16169681 29.29482888 -8.76159549 31.06233122 -10.8125 33.125 C-11.47894531 33.80820313 -12.14539063 34.49140625 -12.83203125 35.1953125 C-17.54606735 39.11942904 -22.17391309 39.33959967 -28.125 39.3125 C-29.19814453 39.33666992 -29.19814453 39.33666992 -30.29296875 39.36132812 C-35.48463534 39.36618015 -35.48463534 39.36618015 -37.9296875 37.62890625 C-39.47572623 35.27599329 -40 33.8416507 -40 31 C-38.25 28.25 -38.25 28.25 -35 26 C-32.49609375 25.7109375 -32.49609375 25.7109375 -29.6875 25.625 C-24.03555739 25.38790904 -21.43987597 23.58102161 -17.4609375 19.69140625 C-15.92297984 18.05113644 -15.92297984 18.05113644 -15 16 C-14.34 16 -13.68 16 -13 16 C-12.78601563 15.46890625 -12.57203125 14.9378125 -12.3515625 14.390625 C-10.48655451 11.09182474 -7.95775758 8.49008292 -5.375 5.75 C-4.859375 5.19570312 -4.34375 4.64140625 -3.8125 4.0703125 C-2.54574965 2.7097288 -1.27342185 1.35434163 0 0 Z " fill="#1B1E21" transform="translate(82,153)"/>
<path d="M0 0 C0 3.54404336 -0.60989485 4.10267905 -2.875 6.6875 C-3.40867188 7.31011719 -3.94234375 7.93273437 -4.4921875 8.57421875 C-6 10 -6 10 -8 10 C-8.25523437 10.57234375 -8.51046875 11.1446875 -8.7734375 11.734375 C-10.13087159 14.24173733 -11.71974104 16.1330456 -13.625 18.25 C-14.25664062 18.95640625 -14.88828125 19.6628125 -15.5390625 20.390625 C-16.02117187 20.92171875 -16.50328125 21.4528125 -17 22 C-17.66 21.67 -18.32 21.34 -19 21 C-19 20.34 -19 19.68 -19 19 C-18.34 19 -17.68 19 -17 19 C-17 18.01 -17 17.02 -17 16 C-15.35178756 14.96986723 -13.68496298 13.96885372 -12 13 C-12 12.34 -12 11.68 -12 11 C-11.34 11 -10.68 11 -10 11 C-10 10.34 -10 9.68 -10 9 C-9.34 8.34 -8.68 7.68 -8 7 C-8 6.01 -8 5.02 -8 4 C-7.34 4 -6.68 4 -6 4 C-6 3.34 -6 2.68 -6 2 C-4.02 1.34 -2.04 0.68 0 0 Z " fill="#141618" transform="translate(201,121)"/>
<path d="M0 0 C0.99 0 1.98 0 3 0 C3.78260048 2.81736172 4.19511109 4.45969238 3.1875 7.25 C2 9 2 9 0 10 C-2.67911399 10.12413998 -5.32083099 10.18515807 -8 10.1875 C-8.73734375 10.19974609 -9.4746875 10.21199219 -10.234375 10.22460938 C-12.15770058 10.22987395 -14.08054263 10.12203447 -16 10 C-16.66 9.34 -17.32 8.68 -18 8 C-12.39 8.33 -6.78 8.66 -1 9 C-0.67 6.03 -0.34 3.06 0 0 Z " fill="#131417" transform="translate(234,182)"/>
<path d="M0 0 C0.66 0.33 1.32 0.66 2 1 C2.66 0.67 3.32 0.34 4 0 C4.99 0.33 5.98 0.66 7 1 C5.95125002 3.62187494 5.35068687 4.79371361 2.875 6.25 C2.25625 6.4975 1.6375 6.745 1 7 C-2 3.25 -2 3.25 -2 1 C-1.34 0.67 -0.68 0.34 0 0 Z " fill="#202427" transform="translate(177,139)"/>
<path d="M0 0 C1.98 0.99 1.98 0.99 4 2 C4.33 1.34 4.66 0.68 5 0 C5.99 0.33 6.98 0.66 8 1 C7.79375 1.556875 7.5875 2.11375 7.375 2.6875 C6.89304789 5.659538 7.73434972 7.31979941 9 10 C7 10 7 10 5.2734375 8.3203125 C4.64695312 7.59585938 4.02046875 6.87140625 3.375 6.125 C2.74335937 5.40570313 2.11171875 4.68640625 1.4609375 3.9453125 C0 2 0 2 0 0 Z " fill="#131618" transform="translate(78,121)"/>
<path d="M0 0 C3 2 3 2 4 4 C0.84044583 5.57977708 -2.53463817 5.18447084 -6 5.1875 C-6.73734375 5.19974609 -7.4746875 5.21199219 -8.234375 5.22460938 C-10.15770058 5.22987395 -12.08054263 5.12203447 -14 5 C-14.66 4.34 -15.32 3.68 -16 3 C-10.72 3 -5.44 3 0 3 C0 2.01 0 1.02 0 0 Z " fill="#0F1214" transform="translate(60,187)"/>
<path d="M0 0 C0.99 0 1.98 0 3 0 C3.66 0.99 4.32 1.98 5 3 C5.66 2.67 6.32 2.34 7 2 C9 4 9 4 10 7 C9.67 7.66 9.34 8.32 9 9 C7 9 7 9 5.2734375 7.28515625 C4.64695312 6.55167969 4.02046875 5.81820312 3.375 5.0625 C2.74335937 4.33160156 2.11171875 3.60070312 1.4609375 2.84765625 C0 1 0 1 0 0 Z " fill="#131417" transform="translate(60,102)"/>
<path d="M0 0 C1.32 0.33 2.64 0.66 4 1 C3.43410156 1.55429688 2.86820313 2.10859375 2.28515625 2.6796875 C1.55167969 3.40414062 0.81820312 4.12859375 0.0625 4.875 C-0.66839844 5.59429687 -1.39929688 6.31359375 -2.15234375 7.0546875 C-4.05667999 8.87027192 -4.05667999 8.87027192 -5 11 C-5.66 10.67 -6.32 10.34 -7 10 C-7 9.34 -7 8.68 -7 8 C-6.34 8 -5.68 8 -5 8 C-5 7.01 -5 6.02 -5 5 C-3.35178756 3.96986723 -1.68496298 2.96885372 0 2 C0 1.34 0 0.68 0 0 Z " fill="#0E0F11" transform="translate(189,132)"/>
<path d="M0 0 C0.99 0.33 1.98 0.66 3 1 C3 1.66 3 2.32 3 3 C3.99 3.33 4.98 3.66 6 4 C6 4.99 6 5.98 6 7 C4 7 2 7 0 7 C0 4.69 0 2.38 0 0 Z " fill="#212427" transform="translate(97,127)"/>
<path d="M0 0 C0.66 0 1.32 0 2 0 C3.61949011 2.57213134 4.04408751 3.67669159 3.625 6.75 C3.41875 7.4925 3.2125 8.235 3 9 C1.66666667 6.33333333 0.33333333 3.66666667 -1 1 C-0.67 0.67 -0.34 0.34 0 0 Z " fill="#141517" transform="translate(234,89)"/>
<path d="M0 0 C1.32 0 2.64 0 4 0 C4 0.66 4 1.32 4 2 C3.34 2 2.68 2 2 2 C1.731875 2.61875 1.46375 3.2375 1.1875 3.875 C0 6 0 6 -3 8 C-1.125 1.125 -1.125 1.125 0 0 Z " fill="#101112" transform="translate(75,176)"/>
<path d="M0 0 C0.33 0.99 0.66 1.98 1 3 C-1.64 4.98 -4.28 6.96 -7 9 C-5.04783565 5.09567131 -3.12613393 2.96160056 0 0 Z " fill="#0E0F12" transform="translate(153,156)"/>
<path d="M0 0 C0.66 0 1.32 0 2 0 C3.38938077 1.96147874 4.7260411 3.96166576 6 6 C4.68 6.33 3.36 6.66 2 7 C0 2.25 0 2.25 0 0 Z " fill="#121517" transform="translate(211,169)"/>
<path d="M0 0 C0.99 0.33 1.98 0.66 3 1 C2.34 1 1.68 1 1 1 C1.33 1.66 1.66 2.32 2 3 C2.99 3.33 3.98 3.66 5 4 C4.67 5.32 4.34 6.64 4 8 C2.35 6.35 0.7 4.7 -1 3 C-0.67 2.01 -0.34 1.02 0 0 Z " fill="#121215" transform="translate(117,162)"/>
<path d="M0 0 C1.32 0.66 2.64 1.32 4 2 C3.67 2.99 3.34 3.98 3 5 C1.35 5.33 -0.3 5.66 -2 6 C-2 3 -2 3 0 0 Z " fill="#121518" transform="translate(67,169)"/>
</svg>
