<svg xmlns="http://www.w3.org/2000/svg" xmlns:v="https://svgstorm.com"
viewBox = "0 0 400 400"
width="400"
height="400">
<g fill="None" fill-opacity="0.0" stroke="#4197D2" stroke-opacity="1.00" stroke-width="0.3"><path d="
M 0.00 1.00 
C 133.33 1.00 266.67 1.00 400.00 1.00
L 400.00 0.00
L 0.00 0.00
L 0.00 1.00 Z"/>
</g>
<g fill="None" fill-opacity="0.0" stroke="#0174C2" stroke-opacity="1.00" stroke-width="0.3"><path d="
M 0.00 400.00 
L 400.00 400.00
L 400.00 1.00
C 266.67 1.00 133.33 1.00 0.00 1.00
L 0.00 400.00
M 101.00 222.00 
C 100.38 222.40 94.64 222.38 94.00 222.00
C 93.41 221.65 91.98 217.32 92.00 217.00
C 86.21 220.97 78.59 226.08 70.93 222.07 C 63.26 218.06 61.56 212.52 60.00 205.00
C 59.39 202.03 59.48 199.88 60.00 197.00
C 61.13 180.34 80.05 169.81 93.00 183.00
C 93.00 175.67 93.00 168.33 93.00 161.00
C 95.67 161.00 98.33 161.00 101.00 161.00
C 104.55 163.48 101.43 176.37 102.00 181.00 C 102.57 185.63 102.55 197.42 102.00 202.00 C 101.45 206.58 104.52 219.76 101.00 222.00
M 117.00 169.00 
C 115.33 171.39 110.53 169.27 108.00 170.00
C 108.59 167.16 106.78 163.02 109.00 161.00
C 110.79 159.75 114.99 161.94 117.00 161.00
C 117.00 163.67 117.00 166.33 117.00 169.00
M 171.00 169.00 
C 169.75 167.21 171.94 163.01 171.00 161.00
C 173.67 161.00 176.33 161.00 179.00 161.00
C 181.39 162.67 179.27 167.47 180.00 170.00
C 177.16 169.41 173.02 171.23 171.00 169.00
M 338.00 161.00 
C 344.59 163.77 339.17 177.31 331.78 173.22 C 324.38 169.13 329.40 157.39 338.00 161.00
M 329.00 185.00 
C 327.15 187.77 320.83 184.99 318.00 186.00
C 315.34 189.80 319.52 198.40 318.00 203.00 C 316.48 207.60 320.44 212.28 324.00 214.00
C 325.82 214.57 328.13 213.57 330.00 214.00
C 331.64 219.02 328.55 226.30 323.00 222.00
C 314.91 220.36 310.47 216.25 310.00 208.00 C 309.53 199.75 314.10 185.45 304.00 186.00
C 302.97 181.22 304.49 177.43 310.00 179.00
C 310.00 174.67 310.00 170.33 310.00 166.00
C 319.86 162.85 318.22 172.37 318.00 179.00
C 321.67 179.00 325.33 179.00 329.00 179.00
C 329.00 181.00 329.00 183.00 329.00 185.00
M 137.00 232.00 
C 139.94 232.30 144.10 232.52 147.00 232.00
C 154.09 229.76 157.06 223.52 156.00 216.00
C 141.85 228.76 123.90 216.97 123.00 200.00 C 122.10 183.02 140.92 168.05 155.00 182.00
C 155.39 177.36 159.85 177.71 164.00 178.00
C 162.12 193.74 166.91 213.04 163.07 228.07 C 159.23 243.11 137.47 241.60 127.00 237.00
C 127.24 234.42 129.08 232.38 130.00 230.00
C 132.24 230.99 134.46 232.02 137.00 232.00
M 195.00 196.00 
C 194.65 198.29 194.65 201.71 195.00 204.00
C 196.69 209.96 200.03 213.31 206.00 215.00
C 208.29 215.35 211.71 215.35 214.00 215.00
C 217.73 213.94 220.60 211.52 224.00 210.00
C 228.81 224.65 206.21 226.01 195.77 219.23 C 185.33 212.44 181.92 195.31 191.25 185.25 C 200.58 175.19 215.41 174.43 226.00 183.00
C 225.45 185.28 223.01 186.59 223.00 189.00
C 214.22 183.23 197.22 182.44 195.00 196.00
M 269.00 201.00 
C 266.61 204.42 258.30 201.03 254.00 202.00 C 249.70 202.97 241.64 201.28 237.00 202.00
C 233.44 207.53 244.56 214.15 248.00 215.00
C 250.39 215.30 253.61 215.32 256.00 215.00
C 259.19 214.17 262.40 213.26 265.00 211.00
C 265.97 213.37 267.75 215.39 268.00 218.00
C 248.68 233.53 220.47 214.36 228.99 190.99 C 237.51 167.62 273.91 175.96 269.00 201.00
M 109.00 222.00 
C 105.86 219.80 108.02 204.02 108.00 200.00 C 107.98 195.98 105.91 180.17 109.00 178.00
C 110.79 176.75 114.99 178.94 117.00 178.00
C 117.00 192.67 117.00 207.33 117.00 222.00
C 114.33 222.00 111.67 222.00 109.00 222.00
M 179.00 222.00 
C 177.21 223.25 173.01 221.06 171.00 222.00
C 171.00 207.33 171.00 192.67 171.00 178.00
C 173.67 178.00 176.33 178.00 179.00 178.00
C 182.14 180.20 179.98 195.98 180.00 200.00 C 180.02 204.02 182.09 219.83 179.00 222.00
M 283.00 178.00 
C 283.00 181.00 283.00 184.00 283.00 187.00
C 285.85 181.07 291.80 176.49 299.00 178.00
C 302.32 188.76 288.05 185.15 285.08 194.08 C 282.12 203.01 283.13 212.37 283.00 222.00
C 271.21 224.95 275.52 211.90 275.00 204.00 C 274.48 196.10 275.39 186.09 275.00 178.00
C 277.67 178.00 280.33 178.00 283.00 178.00 Z"/>
</g>
<g fill="None" fill-opacity="0.0" stroke="#FAFCFE" stroke-opacity="1.00" stroke-width="0.3"><path d="
M 60.00 197.00 
C 59.83 199.56 59.77 202.45 60.00 205.00
C 61.56 212.52 63.26 218.06 70.93 222.07 C 78.59 226.08 86.21 220.97 92.00 217.00
C 92.66 216.54 92.77 214.83 94.00 215.00
C 94.00 217.33 94.00 219.67 94.00 222.00
C 94.64 222.38 100.38 222.40 101.00 222.00
C 101.00 201.67 101.00 181.33 101.00 161.00
C 98.33 161.00 95.67 161.00 93.00 161.00
C 93.00 168.33 93.00 175.67 93.00 183.00
C 80.05 169.81 61.13 180.34 60.00 197.00
M 69.00 205.00 
C 68.13 201.49 68.02 198.48 69.00 195.00
C 73.84 177.90 93.52 184.99 93.00 201.00 C 92.48 217.01 73.05 221.34 69.00 205.00 Z"/>
</g>
<g fill="None" fill-opacity="0.0" stroke="#80BAE1" stroke-opacity="1.00" stroke-width="0.3"><path d="
M 101.00 222.00 
C 104.52 219.76 101.45 206.58 102.00 202.00 C 102.55 197.42 102.57 185.63 102.00 181.00 C 101.43 176.37 104.55 163.48 101.00 161.00
C 101.00 181.33 101.00 201.67 101.00 222.00 Z"/>
</g>
<g fill="None" fill-opacity="0.0" stroke="#7CB7E0" stroke-opacity="1.00" stroke-width="0.3"><path d="
M 117.00 169.00 
C 114.33 169.00 111.67 169.00 109.00 169.00
C 109.00 166.33 109.00 163.67 109.00 161.00
C 106.78 163.02 108.59 167.16 108.00 170.00
C 110.53 169.27 115.33 171.39 117.00 169.00 Z"/>
</g>
<g fill="None" fill-opacity="0.0" stroke="#FFFFFF" stroke-opacity="1.00" stroke-width="0.3"><path d="
M 117.00 169.00 
C 117.00 166.33 117.00 163.67 117.00 161.00
C 114.99 161.94 110.79 159.75 109.00 161.00
C 109.00 163.67 109.00 166.33 109.00 169.00
C 111.67 169.00 114.33 169.00 117.00 169.00 Z"/>
</g>
<g fill="None" fill-opacity="0.0" stroke="#FFFFFF" stroke-opacity="1.00" stroke-width="0.3"><path d="
M 171.00 169.00 
C 173.67 169.00 176.33 169.00 179.00 169.00
C 179.00 166.33 179.00 163.67 179.00 161.00
C 176.33 161.00 173.67 161.00 171.00 161.00
C 171.94 163.01 169.75 167.21 171.00 169.00 Z"/>
</g>
<g fill="None" fill-opacity="0.0" stroke="#9CC8E7" stroke-opacity="1.00" stroke-width="0.3"><path d="
M 171.00 169.00 
C 173.02 171.23 177.16 169.41 180.00 170.00
C 179.27 167.47 181.39 162.67 179.00 161.00
C 179.00 163.67 179.00 166.33 179.00 169.00
C 176.33 169.00 173.67 169.00 171.00 169.00 Z"/>
</g>
<g fill="None" fill-opacity="0.0" stroke="#D5E8F5" stroke-opacity="1.00" stroke-width="0.3"><path d="
M 338.00 161.00 
C 329.40 157.39 324.38 169.13 331.78 173.22 C 339.17 177.31 344.59 163.77 338.00 161.00
M 339.00 165.00 
C 339.89 166.52 339.03 170.66 337.00 171.00
C 336.13 168.81 336.27 167.25 337.00 165.00
C 335.57 165.62 334.80 167.34 333.00 167.00
C 332.89 166.00 333.47 164.27 332.00 164.00
C 332.22 166.31 331.84 168.68 332.00 171.00
C 328.51 169.56 328.50 164.43 332.00 163.00
C 333.50 161.45 340.04 163.52 339.00 165.00
M 336.00 172.00 
C 329.52 172.15 335.84 164.52 336.00 172.00 Z"/>
</g>
<g fill="None" fill-opacity="0.0" stroke="#70AEDC" stroke-opacity="1.00" stroke-width="0.3"><path d="
M 332.00 163.00 
C 331.75 163.26 332.00 164.00 332.00 164.00
C 333.47 164.27 332.89 166.00 333.00 167.00
C 334.80 167.34 335.57 165.62 337.00 165.00
C 337.32 164.86 338.34 163.87 339.00 165.00
C 340.04 163.52 333.50 161.45 332.00 163.00 Z"/>
</g>
<g fill="None" fill-opacity="0.0" stroke="#177CC6" stroke-opacity="1.00" stroke-width="0.3"><path d="
M 332.00 164.00 
C 332.00 164.00 331.75 163.26 332.00 163.00
C 328.50 164.43 328.51 169.56 332.00 171.00
C 331.84 168.68 332.22 166.31 332.00 164.00 Z"/>
</g>
<g fill="None" fill-opacity="0.0" stroke="#2381C8" stroke-opacity="1.00" stroke-width="0.3"><path d="
M 337.00 165.00 
C 336.27 167.25 336.13 168.81 337.00 171.00
C 339.03 170.66 339.89 166.52 339.00 165.00
C 338.34 163.87 337.32 164.86 337.00 165.00 Z"/>
</g>
<g fill="None" fill-opacity="0.0" stroke="#FDFDFE" stroke-opacity="1.00" stroke-width="0.3"><path d="
M 323.00 222.00 
C 325.00 222.09 327.00 221.94 329.00 222.00
C 330.14 216.97 328.26 214.68 324.00 214.00
C 320.44 212.28 316.48 207.60 318.00 203.00 C 319.52 198.40 315.34 189.80 318.00 186.00
C 319.92 183.26 326.12 185.99 329.00 185.00
C 329.00 183.00 329.00 181.00 329.00 179.00
C 325.33 179.00 321.67 179.00 318.00 179.00
C 318.22 172.37 319.86 162.85 310.00 166.00
C 310.00 170.33 310.00 174.67 310.00 179.00
C 304.49 177.43 302.97 181.22 304.00 186.00
C 314.10 185.45 309.53 199.75 310.00 208.00 C 310.47 216.25 314.91 220.36 323.00 222.00 Z"/>
</g>
<g fill="None" fill-opacity="0.0" stroke="#2785CA" stroke-opacity="1.00" stroke-width="0.3"><path d="
M 336.00 172.00 
C 335.84 164.52 329.52 172.15 336.00 172.00 Z"/>
</g>
<g fill="None" fill-opacity="0.0" stroke="#F8FBFD" stroke-opacity="1.00" stroke-width="0.3"><path d="
M 147.00 232.00 
C 143.47 233.12 140.42 232.76 137.00 232.00
C 134.46 232.02 132.24 230.99 130.00 230.00
C 129.08 232.38 127.24 234.42 127.00 237.00
C 137.47 241.60 159.23 243.11 163.07 228.07 C 166.91 213.04 162.12 193.74 164.00 178.00
C 159.85 177.71 155.39 177.36 155.00 182.00
C 140.92 168.05 122.10 183.02 123.00 200.00 C 123.90 216.97 141.85 228.76 156.00 216.00
C 157.06 223.52 154.09 229.76 147.00 232.00
M 149.00 185.00 
C 163.24 189.32 155.26 220.87 139.78 213.22 C 124.30 205.57 131.91 179.81 149.00 185.00 Z"/>
</g>
<g fill="None" fill-opacity="0.0" stroke="#F8FBFD" stroke-opacity="1.00" stroke-width="0.3"><path d="
M 214.00 215.00 
C 210.96 215.86 208.99 215.84 206.00 215.00
C 200.03 213.31 196.69 209.96 195.00 204.00
C 194.14 200.96 194.16 198.98 195.00 196.00
C 197.22 182.44 214.22 183.23 223.00 189.00
C 223.01 186.59 225.45 185.28 226.00 183.00
C 215.41 174.43 200.58 175.19 191.25 185.25 C 181.92 195.31 185.33 212.44 195.77 219.23 C 206.21 226.01 228.81 224.65 224.00 210.00
C 220.60 211.52 217.73 213.94 214.00 215.00 Z"/>
</g>
<g fill="None" fill-opacity="0.0" stroke="#F9FBFD" stroke-opacity="1.00" stroke-width="0.3"><path d="
M 256.00 215.00 
C 252.96 215.79 250.98 215.74 248.00 215.00
C 244.56 214.15 233.44 207.53 237.00 202.00
C 239.20 198.58 247.79 201.97 252.00 201.00 C 256.21 200.03 264.43 201.73 269.00 201.00
C 273.91 175.96 237.51 167.62 228.99 190.99 C 220.47 214.36 248.68 233.53 268.00 218.00
C 267.75 215.39 265.97 213.37 265.00 211.00
C 262.40 213.26 259.19 214.17 256.00 215.00
M 260.00 195.00 
C 252.33 195.00 244.67 195.00 237.00 195.00
C 237.32 181.31 260.76 180.26 260.00 195.00 Z"/>
</g>
<g fill="None" fill-opacity="0.0" stroke="#80BAE1" stroke-opacity="1.00" stroke-width="0.3"><path d="
M 109.00 222.00 
C 109.00 207.33 109.00 192.67 109.00 178.00
C 105.91 180.17 107.98 195.98 108.00 200.00 C 108.02 204.02 105.86 219.80 109.00 222.00 Z"/>
</g>
<g fill="None" fill-opacity="0.0" stroke="#FFFFFF" stroke-opacity="1.00" stroke-width="0.3"><path d="
M 109.00 222.00 
C 111.67 222.00 114.33 222.00 117.00 222.00
C 117.00 207.33 117.00 192.67 117.00 178.00
C 114.99 178.94 110.79 176.75 109.00 178.00
C 109.00 192.67 109.00 207.33 109.00 222.00 Z"/>
</g>
<g fill="None" fill-opacity="0.0" stroke="#FFFFFF" stroke-opacity="1.00" stroke-width="0.3"><path d="
M 179.00 222.00 
C 179.00 207.33 179.00 192.67 179.00 178.00
C 176.33 178.00 173.67 178.00 171.00 178.00
C 171.00 192.67 171.00 207.33 171.00 222.00
C 173.01 221.06 177.21 223.25 179.00 222.00 Z"/>
</g>
<g fill="None" fill-opacity="0.0" stroke="#C0DCF0" stroke-opacity="1.00" stroke-width="0.3"><path d="
M 179.00 222.00 
C 182.09 219.83 180.02 204.02 180.00 200.00 C 179.98 195.98 182.14 180.20 179.00 178.00
C 179.00 192.67 179.00 207.33 179.00 222.00 Z"/>
</g>
<g fill="None" fill-opacity="0.0" stroke="#FCFDFE" stroke-opacity="1.00" stroke-width="0.3"><path d="
M 283.00 178.00 
C 280.33 178.00 277.67 178.00 275.00 178.00
C 275.39 186.09 274.48 196.10 275.00 204.00 C 275.52 211.90 271.21 224.95 283.00 222.00
C 283.13 212.37 282.12 203.01 285.08 194.08 C 288.05 185.15 302.32 188.76 299.00 178.00
C 291.80 176.49 285.85 181.07 283.00 187.00
C 283.00 184.00 283.00 181.00 283.00 178.00 Z"/>
</g>
<g fill="None" fill-opacity="0.0" stroke="#0C77C4" stroke-opacity="1.00" stroke-width="0.3"><path d="
M 260.00 195.00 
C 260.76 180.26 237.32 181.31 237.00 195.00
C 244.67 195.00 252.33 195.00 260.00 195.00 Z"/>
</g>
<g fill="None" fill-opacity="0.0" stroke="#0A76C4" stroke-opacity="1.00" stroke-width="0.3"><path d="
M 69.00 195.00 
C 68.55 197.93 68.63 202.05 69.00 205.00
C 73.05 221.34 92.48 217.01 93.00 201.00 C 93.52 184.99 73.84 177.90 69.00 195.00 Z"/>
</g>
<g fill="None" fill-opacity="0.0" stroke="#0A76C4" stroke-opacity="1.00" stroke-width="0.3"><path d="
M 149.00 185.00 
C 131.91 179.81 124.30 205.57 139.78 213.22 C 155.26 220.87 163.24 189.32 149.00 185.00 Z"/>
</g>
<g fill="None" fill-opacity="0.0" stroke="#C1DCF0" stroke-opacity="1.00" stroke-width="0.3"><path d="
M 318.00 186.00 
C 320.83 184.99 327.15 187.77 329.00 185.00
C 326.12 185.99 319.92 183.26 318.00 186.00 Z"/>
</g>
<g fill="None" fill-opacity="0.0" stroke="#96C6E6" stroke-opacity="1.00" stroke-width="0.3"><path d="
M 69.00 205.00 
C 68.63 202.05 68.55 197.93 69.00 195.00
C 68.02 198.48 68.13 201.49 69.00 205.00 Z"/>
</g>
<g fill="None" fill-opacity="0.0" stroke="#A0CBE8" stroke-opacity="1.00" stroke-width="0.3"><path d="
M 195.00 204.00 
C 194.65 201.71 194.65 198.29 195.00 196.00
C 194.16 198.98 194.14 200.96 195.00 204.00 Z"/>
</g>
<g fill="None" fill-opacity="0.0" stroke="#72B2DD" stroke-opacity="1.00" stroke-width="0.3"><path d="
M 60.00 205.00 
C 59.77 202.45 59.83 199.56 60.00 197.00
C 59.48 199.88 59.39 202.03 60.00 205.00 Z"/>
</g>
<g fill="None" fill-opacity="0.0" stroke="#7FB9E0" stroke-opacity="1.00" stroke-width="0.3"><path d="
M 237.00 202.00 
C 241.64 201.28 249.70 202.97 254.00 202.00 C 258.30 201.03 266.61 204.42 269.00 201.00
C 264.43 201.73 256.21 200.03 252.00 201.00 C 247.79 201.97 239.20 198.58 237.00 202.00 Z"/>
</g>
<g fill="None" fill-opacity="0.0" stroke="#72B2DD" stroke-opacity="1.00" stroke-width="0.3"><path d="
M 323.00 222.00 
C 328.55 226.30 331.64 219.02 330.00 214.00
C 328.13 213.57 325.82 214.57 324.00 214.00
C 328.26 214.68 330.14 216.97 329.00 222.00
C 327.00 221.94 325.00 222.09 323.00 222.00 Z"/>
</g>
<g fill="None" fill-opacity="0.0" stroke="#BCDAEF" stroke-opacity="1.00" stroke-width="0.3"><path d="
M 92.00 217.00 
C 91.98 217.32 93.41 221.65 94.00 222.00
C 94.00 219.67 94.00 217.33 94.00 215.00
C 92.77 214.83 92.66 216.54 92.00 217.00 Z"/>
</g>
<g fill="None" fill-opacity="0.0" stroke="#86BCE2" stroke-opacity="1.00" stroke-width="0.3"><path d="
M 214.00 215.00 
C 211.71 215.35 208.29 215.35 206.00 215.00
C 208.99 215.84 210.96 215.86 214.00 215.00 Z"/>
</g>
<g fill="None" fill-opacity="0.0" stroke="#6AACDB" stroke-opacity="1.00" stroke-width="0.3"><path d="
M 256.00 215.00 
C 253.61 215.32 250.39 215.30 248.00 215.00
C 250.98 215.74 252.96 215.79 256.00 215.00 Z"/>
</g>
<g fill="None" fill-opacity="0.0" stroke="#60A7D9" stroke-opacity="1.00" stroke-width="0.3"><path d="
M 147.00 232.00 
C 144.10 232.52 139.94 232.30 137.00 232.00
C 140.42 232.76 143.47 233.12 147.00 232.00 Z"/>
</g>
<g fill="#4197D2" fill-opacity="1.00" stroke="None">
<path d="
M 0.00 1.00 
C 133.33 1.00 266.67 1.00 400.00 1.00
L 400.00 0.00
L 0.00 0.00
L 0.00 1.00 Z"/>
</g>
<g fill="#0174C2" fill-opacity="1.00" stroke="None">
<path d="
M 0.00 400.00 
L 400.00 400.00
L 400.00 1.00
C 266.67 1.00 133.33 1.00 0.00 1.00
L 0.00 400.00
M 101.00 222.00 
C 100.38 222.40 94.64 222.38 94.00 222.00
C 93.41 221.65 91.98 217.32 92.00 217.00
C 86.21 220.97 78.59 226.08 70.93 222.07 C 63.26 218.06 61.56 212.52 60.00 205.00
C 59.39 202.03 59.48 199.88 60.00 197.00
C 61.13 180.34 80.05 169.81 93.00 183.00
C 93.00 175.67 93.00 168.33 93.00 161.00
C 95.67 161.00 98.33 161.00 101.00 161.00
C 104.55 163.48 101.43 176.37 102.00 181.00 C 102.57 185.63 102.55 197.42 102.00 202.00 C 101.45 206.58 104.52 219.76 101.00 222.00
M 117.00 169.00 
C 115.33 171.39 110.53 169.27 108.00 170.00
C 108.59 167.16 106.78 163.02 109.00 161.00
C 110.79 159.75 114.99 161.94 117.00 161.00
C 117.00 163.67 117.00 166.33 117.00 169.00
M 171.00 169.00 
C 169.75 167.21 171.94 163.01 171.00 161.00
C 173.67 161.00 176.33 161.00 179.00 161.00
C 181.39 162.67 179.27 167.47 180.00 170.00
C 177.16 169.41 173.02 171.23 171.00 169.00
M 338.00 161.00 
C 344.59 163.77 339.17 177.31 331.78 173.22 C 324.38 169.13 329.40 157.39 338.00 161.00
M 329.00 185.00 
C 327.15 187.77 320.83 184.99 318.00 186.00
C 315.34 189.80 319.52 198.40 318.00 203.00 C 316.48 207.60 320.44 212.28 324.00 214.00
C 325.82 214.57 328.13 213.57 330.00 214.00
C 331.64 219.02 328.55 226.30 323.00 222.00
C 314.91 220.36 310.47 216.25 310.00 208.00 C 309.53 199.75 314.10 185.45 304.00 186.00
C 302.97 181.22 304.49 177.43 310.00 179.00
C 310.00 174.67 310.00 170.33 310.00 166.00
C 319.86 162.85 318.22 172.37 318.00 179.00
C 321.67 179.00 325.33 179.00 329.00 179.00
C 329.00 181.00 329.00 183.00 329.00 185.00
M 137.00 232.00 
C 139.94 232.30 144.10 232.52 147.00 232.00
C 154.09 229.76 157.06 223.52 156.00 216.00
C 141.85 228.76 123.90 216.97 123.00 200.00 C 122.10 183.02 140.92 168.05 155.00 182.00
C 155.39 177.36 159.85 177.71 164.00 178.00
C 162.12 193.74 166.91 213.04 163.07 228.07 C 159.23 243.11 137.47 241.60 127.00 237.00
C 127.24 234.42 129.08 232.38 130.00 230.00
C 132.24 230.99 134.46 232.02 137.00 232.00
M 195.00 196.00 
C 194.65 198.29 194.65 201.71 195.00 204.00
C 196.69 209.96 200.03 213.31 206.00 215.00
C 208.29 215.35 211.71 215.35 214.00 215.00
C 217.73 213.94 220.60 211.52 224.00 210.00
C 228.81 224.65 206.21 226.01 195.77 219.23 C 185.33 212.44 181.92 195.31 191.25 185.25 C 200.58 175.19 215.41 174.43 226.00 183.00
C 225.45 185.28 223.01 186.59 223.00 189.00
C 214.22 183.23 197.22 182.44 195.00 196.00
M 269.00 201.00 
C 266.61 204.42 258.30 201.03 254.00 202.00 C 249.70 202.97 241.64 201.28 237.00 202.00
C 233.44 207.53 244.56 214.15 248.00 215.00
C 250.39 215.30 253.61 215.32 256.00 215.00
C 259.19 214.17 262.40 213.26 265.00 211.00
C 265.97 213.37 267.75 215.39 268.00 218.00
C 248.68 233.53 220.47 214.36 228.99 190.99 C 237.51 167.62 273.91 175.96 269.00 201.00
M 109.00 222.00 
C 105.86 219.80 108.02 204.02 108.00 200.00 C 107.98 195.98 105.91 180.17 109.00 178.00
C 110.79 176.75 114.99 178.94 117.00 178.00
C 117.00 192.67 117.00 207.33 117.00 222.00
C 114.33 222.00 111.67 222.00 109.00 222.00
M 179.00 222.00 
C 177.21 223.25 173.01 221.06 171.00 222.00
C 171.00 207.33 171.00 192.67 171.00 178.00
C 173.67 178.00 176.33 178.00 179.00 178.00
C 182.14 180.20 179.98 195.98 180.00 200.00 C 180.02 204.02 182.09 219.83 179.00 222.00
M 283.00 178.00 
C 283.00 181.00 283.00 184.00 283.00 187.00
C 285.85 181.07 291.80 176.49 299.00 178.00
C 302.32 188.76 288.05 185.15 285.08 194.08 C 282.12 203.01 283.13 212.37 283.00 222.00
C 271.21 224.95 275.52 211.90 275.00 204.00 C 274.48 196.10 275.39 186.09 275.00 178.00
C 277.67 178.00 280.33 178.00 283.00 178.00 Z"/>
</g>
<g fill="#FAFCFE" fill-opacity="1.00" stroke="None">
<path d="
M 60.00 197.00 
C 59.83 199.56 59.77 202.45 60.00 205.00
C 61.56 212.52 63.26 218.06 70.93 222.07 C 78.59 226.08 86.21 220.97 92.00 217.00
C 92.66 216.54 92.77 214.83 94.00 215.00
C 94.00 217.33 94.00 219.67 94.00 222.00
C 94.64 222.38 100.38 222.40 101.00 222.00
C 101.00 201.67 101.00 181.33 101.00 161.00
C 98.33 161.00 95.67 161.00 93.00 161.00
C 93.00 168.33 93.00 175.67 93.00 183.00
C 80.05 169.81 61.13 180.34 60.00 197.00
M 69.00 205.00 
C 68.13 201.49 68.02 198.48 69.00 195.00
C 73.84 177.90 93.52 184.99 93.00 201.00 C 92.48 217.01 73.05 221.34 69.00 205.00 Z"/>
</g>
<g fill="#80BAE1" fill-opacity="1.00" stroke="None">
<path d="
M 101.00 222.00 
C 104.52 219.76 101.45 206.58 102.00 202.00 C 102.55 197.42 102.57 185.63 102.00 181.00 C 101.43 176.37 104.55 163.48 101.00 161.00
C 101.00 181.33 101.00 201.67 101.00 222.00 Z"/>
</g>
<g fill="#7CB7E0" fill-opacity="1.00" stroke="None">
<path d="
M 117.00 169.00 
C 114.33 169.00 111.67 169.00 109.00 169.00
C 109.00 166.33 109.00 163.67 109.00 161.00
C 106.78 163.02 108.59 167.16 108.00 170.00
C 110.53 169.27 115.33 171.39 117.00 169.00 Z"/>
</g>
<g fill="#FFFFFF" fill-opacity="1.00" stroke="None">
<path d="
M 117.00 169.00 
C 117.00 166.33 117.00 163.67 117.00 161.00
C 114.99 161.94 110.79 159.75 109.00 161.00
C 109.00 163.67 109.00 166.33 109.00 169.00
C 111.67 169.00 114.33 169.00 117.00 169.00 Z"/>
</g>
<g fill="#FFFFFF" fill-opacity="1.00" stroke="None">
<path d="
M 171.00 169.00 
C 173.67 169.00 176.33 169.00 179.00 169.00
C 179.00 166.33 179.00 163.67 179.00 161.00
C 176.33 161.00 173.67 161.00 171.00 161.00
C 171.94 163.01 169.75 167.21 171.00 169.00 Z"/>
</g>
<g fill="#9CC8E7" fill-opacity="1.00" stroke="None">
<path d="
M 171.00 169.00 
C 173.02 171.23 177.16 169.41 180.00 170.00
C 179.27 167.47 181.39 162.67 179.00 161.00
C 179.00 163.67 179.00 166.33 179.00 169.00
C 176.33 169.00 173.67 169.00 171.00 169.00 Z"/>
</g>
<g fill="#D5E8F5" fill-opacity="1.00" stroke="None">
<path d="
M 338.00 161.00 
C 329.40 157.39 324.38 169.13 331.78 173.22 C 339.17 177.31 344.59 163.77 338.00 161.00
M 339.00 165.00 
C 339.89 166.52 339.03 170.66 337.00 171.00
C 336.13 168.81 336.27 167.25 337.00 165.00
C 335.57 165.62 334.80 167.34 333.00 167.00
C 332.89 166.00 333.47 164.27 332.00 164.00
C 332.22 166.31 331.84 168.68 332.00 171.00
C 328.51 169.56 328.50 164.43 332.00 163.00
C 333.50 161.45 340.04 163.52 339.00 165.00
M 336.00 172.00 
C 329.52 172.15 335.84 164.52 336.00 172.00 Z"/>
</g>
<g fill="#70AEDC" fill-opacity="1.00" stroke="None">
<path d="
M 332.00 163.00 
C 331.75 163.26 332.00 164.00 332.00 164.00
C 333.47 164.27 332.89 166.00 333.00 167.00
C 334.80 167.34 335.57 165.62 337.00 165.00
C 337.32 164.86 338.34 163.87 339.00 165.00
C 340.04 163.52 333.50 161.45 332.00 163.00 Z"/>
</g>
<g fill="#177CC6" fill-opacity="1.00" stroke="None">
<path d="
M 332.00 164.00 
C 332.00 164.00 331.75 163.26 332.00 163.00
C 328.50 164.43 328.51 169.56 332.00 171.00
C 331.84 168.68 332.22 166.31 332.00 164.00 Z"/>
</g>
<g fill="#2381C8" fill-opacity="1.00" stroke="None">
<path d="
M 337.00 165.00 
C 336.27 167.25 336.13 168.81 337.00 171.00
C 339.03 170.66 339.89 166.52 339.00 165.00
C 338.34 163.87 337.32 164.86 337.00 165.00 Z"/>
</g>
<g fill="#FDFDFE" fill-opacity="1.00" stroke="None">
<path d="
M 323.00 222.00 
C 325.00 222.09 327.00 221.94 329.00 222.00
C 330.14 216.97 328.26 214.68 324.00 214.00
C 320.44 212.28 316.48 207.60 318.00 203.00 C 319.52 198.40 315.34 189.80 318.00 186.00
C 319.92 183.26 326.12 185.99 329.00 185.00
C 329.00 183.00 329.00 181.00 329.00 179.00
C 325.33 179.00 321.67 179.00 318.00 179.00
C 318.22 172.37 319.86 162.85 310.00 166.00
C 310.00 170.33 310.00 174.67 310.00 179.00
C 304.49 177.43 302.97 181.22 304.00 186.00
C 314.10 185.45 309.53 199.75 310.00 208.00 C 310.47 216.25 314.91 220.36 323.00 222.00 Z"/>
</g>
<g fill="#2785CA" fill-opacity="1.00" stroke="None">
<path d="
M 336.00 172.00 
C 335.84 164.52 329.52 172.15 336.00 172.00 Z"/>
</g>
<g fill="#F8FBFD" fill-opacity="1.00" stroke="None">
<path d="
M 147.00 232.00 
C 143.47 233.12 140.42 232.76 137.00 232.00
C 134.46 232.02 132.24 230.99 130.00 230.00
C 129.08 232.38 127.24 234.42 127.00 237.00
C 137.47 241.60 159.23 243.11 163.07 228.07 C 166.91 213.04 162.12 193.74 164.00 178.00
C 159.85 177.71 155.39 177.36 155.00 182.00
C 140.92 168.05 122.10 183.02 123.00 200.00 C 123.90 216.97 141.85 228.76 156.00 216.00
C 157.06 223.52 154.09 229.76 147.00 232.00
M 149.00 185.00 
C 163.24 189.32 155.26 220.87 139.78 213.22 C 124.30 205.57 131.91 179.81 149.00 185.00 Z"/>
</g>
<g fill="#F8FBFD" fill-opacity="1.00" stroke="None">
<path d="
M 214.00 215.00 
C 210.96 215.86 208.99 215.84 206.00 215.00
C 200.03 213.31 196.69 209.96 195.00 204.00
C 194.14 200.96 194.16 198.98 195.00 196.00
C 197.22 182.44 214.22 183.23 223.00 189.00
C 223.01 186.59 225.45 185.28 226.00 183.00
C 215.41 174.43 200.58 175.19 191.25 185.25 C 181.92 195.31 185.33 212.44 195.77 219.23 C 206.21 226.01 228.81 224.65 224.00 210.00
C 220.60 211.52 217.73 213.94 214.00 215.00 Z"/>
</g>
<g fill="#F9FBFD" fill-opacity="1.00" stroke="None">
<path d="
M 256.00 215.00 
C 252.96 215.79 250.98 215.74 248.00 215.00
C 244.56 214.15 233.44 207.53 237.00 202.00
C 239.20 198.58 247.79 201.97 252.00 201.00 C 256.21 200.03 264.43 201.73 269.00 201.00
C 273.91 175.96 237.51 167.62 228.99 190.99 C 220.47 214.36 248.68 233.53 268.00 218.00
C 267.75 215.39 265.97 213.37 265.00 211.00
C 262.40 213.26 259.19 214.17 256.00 215.00
M 260.00 195.00 
C 252.33 195.00 244.67 195.00 237.00 195.00
C 237.32 181.31 260.76 180.26 260.00 195.00 Z"/>
</g>
<g fill="#80BAE1" fill-opacity="1.00" stroke="None">
<path d="
M 109.00 222.00 
C 109.00 207.33 109.00 192.67 109.00 178.00
C 105.91 180.17 107.98 195.98 108.00 200.00 C 108.02 204.02 105.86 219.80 109.00 222.00 Z"/>
</g>
<g fill="#FFFFFF" fill-opacity="1.00" stroke="None">
<path d="
M 109.00 222.00 
C 111.67 222.00 114.33 222.00 117.00 222.00
C 117.00 207.33 117.00 192.67 117.00 178.00
C 114.99 178.94 110.79 176.75 109.00 178.00
C 109.00 192.67 109.00 207.33 109.00 222.00 Z"/>
</g>
<g fill="#FFFFFF" fill-opacity="1.00" stroke="None">
<path d="
M 179.00 222.00 
C 179.00 207.33 179.00 192.67 179.00 178.00
C 176.33 178.00 173.67 178.00 171.00 178.00
C 171.00 192.67 171.00 207.33 171.00 222.00
C 173.01 221.06 177.21 223.25 179.00 222.00 Z"/>
</g>
<g fill="#C0DCF0" fill-opacity="1.00" stroke="None">
<path d="
M 179.00 222.00 
C 182.09 219.83 180.02 204.02 180.00 200.00 C 179.98 195.98 182.14 180.20 179.00 178.00
C 179.00 192.67 179.00 207.33 179.00 222.00 Z"/>
</g>
<g fill="#FCFDFE" fill-opacity="1.00" stroke="None">
<path d="
M 283.00 178.00 
C 280.33 178.00 277.67 178.00 275.00 178.00
C 275.39 186.09 274.48 196.10 275.00 204.00 C 275.52 211.90 271.21 224.95 283.00 222.00
C 283.13 212.37 282.12 203.01 285.08 194.08 C 288.05 185.15 302.32 188.76 299.00 178.00
C 291.80 176.49 285.85 181.07 283.00 187.00
C 283.00 184.00 283.00 181.00 283.00 178.00 Z"/>
</g>
<g fill="#0C77C4" fill-opacity="1.00" stroke="None">
<path d="
M 260.00 195.00 
C 260.76 180.26 237.32 181.31 237.00 195.00
C 244.67 195.00 252.33 195.00 260.00 195.00 Z"/>
</g>
<g fill="#0A76C4" fill-opacity="1.00" stroke="None">
<path d="
M 69.00 195.00 
C 68.55 197.93 68.63 202.05 69.00 205.00
C 73.05 221.34 92.48 217.01 93.00 201.00 C 93.52 184.99 73.84 177.90 69.00 195.00 Z"/>
</g>
<g fill="#0A76C4" fill-opacity="1.00" stroke="None">
<path d="
M 149.00 185.00 
C 131.91 179.81 124.30 205.57 139.78 213.22 C 155.26 220.87 163.24 189.32 149.00 185.00 Z"/>
</g>
<g fill="#C1DCF0" fill-opacity="1.00" stroke="None">
<path d="
M 318.00 186.00 
C 320.83 184.99 327.15 187.77 329.00 185.00
C 326.12 185.99 319.92 183.26 318.00 186.00 Z"/>
</g>
<g fill="#96C6E6" fill-opacity="1.00" stroke="None">
<path d="
M 69.00 205.00 
C 68.63 202.05 68.55 197.93 69.00 195.00
C 68.02 198.48 68.13 201.49 69.00 205.00 Z"/>
</g>
<g fill="#A0CBE8" fill-opacity="1.00" stroke="None">
<path d="
M 195.00 204.00 
C 194.65 201.71 194.65 198.29 195.00 196.00
C 194.16 198.98 194.14 200.96 195.00 204.00 Z"/>
</g>
<g fill="#72B2DD" fill-opacity="1.00" stroke="None">
<path d="
M 60.00 205.00 
C 59.77 202.45 59.83 199.56 60.00 197.00
C 59.48 199.88 59.39 202.03 60.00 205.00 Z"/>
</g>
<g fill="#7FB9E0" fill-opacity="1.00" stroke="None">
<path d="
M 237.00 202.00 
C 241.64 201.28 249.70 202.97 254.00 202.00 C 258.30 201.03 266.61 204.42 269.00 201.00
C 264.43 201.73 256.21 200.03 252.00 201.00 C 247.79 201.97 239.20 198.58 237.00 202.00 Z"/>
</g>
<g fill="#72B2DD" fill-opacity="1.00" stroke="None">
<path d="
M 323.00 222.00 
C 328.55 226.30 331.64 219.02 330.00 214.00
C 328.13 213.57 325.82 214.57 324.00 214.00
C 328.26 214.68 330.14 216.97 329.00 222.00
C 327.00 221.94 325.00 222.09 323.00 222.00 Z"/>
</g>
<g fill="#BCDAEF" fill-opacity="1.00" stroke="None">
<path d="
M 92.00 217.00 
C 91.98 217.32 93.41 221.65 94.00 222.00
C 94.00 219.67 94.00 217.33 94.00 215.00
C 92.77 214.83 92.66 216.54 92.00 217.00 Z"/>
</g>
<g fill="#86BCE2" fill-opacity="1.00" stroke="None">
<path d="
M 214.00 215.00 
C 211.71 215.35 208.29 215.35 206.00 215.00
C 208.99 215.84 210.96 215.86 214.00 215.00 Z"/>
</g>
<g fill="#6AACDB" fill-opacity="1.00" stroke="None">
<path d="
M 256.00 215.00 
C 253.61 215.32 250.39 215.30 248.00 215.00
C 250.98 215.74 252.96 215.79 256.00 215.00 Z"/>
</g>
<g fill="#60A7D9" fill-opacity="1.00" stroke="None">
<path d="
M 147.00 232.00 
C 144.10 232.52 139.94 232.30 137.00 232.00
C 140.42 232.76 143.47 233.12 147.00 232.00 Z"/>
</g>
</svg>