<svg height="511pt" viewBox="-10 0 511 511.9994" width="511pt" xmlns="http://www.w3.org/2000/svg"><path d="m376.824219 473.855469c68.335937-43.472657 113.675781-119.867188 113.675781-206.855469 0-135.3125-109.691406-245-245-245-132.085938 0-239.738281 104.527344-244.796875 235.375 0 0 167.039063 169.828125 376.121094 216.480469zm0 0" fill="#a2ec00"/><path d="m369.121094 48.269531c3.335937-.984375 6.816406 1.023438 7.628906 4.40625l1.226562 5.09375 13.074219-22.648437c2.214844-3.832032.902344-8.734375-2.929687-10.945313-3.832032-2.214843-8.734375-.898437-10.949219 2.933594l-13.074219 22.648437zm0 0" fill="#83d3fc"/><path d="m383.445312 32.269531c-5.109374-2.949219-6.859374-9.484375-3.910156-14.59375l7.121094-12.332031c2.949219-5.109375 9.484375-6.863281 14.59375-3.910156 5.109375 2.949218 6.859375 9.484375 3.910156 14.59375l-7.121094 12.335937c-2.949218 5.105469-9.484374 6.859375-14.59375 3.90625zm0 0" fill="#fadda0"/><path d="m391.046875 19.101562c-4.304687-2.484374-6.339844-7.378906-5.40625-12l-6.105469 10.574219c-2.949218 5.109375-1.199218 11.644531 3.910156 14.59375 5.109376 2.953125 11.644532 1.199219 14.59375-3.90625l6.105469-10.574219c-3.53125 3.117188-8.789062 3.800782-13.097656 1.3125zm0 0" fill="#fbb362"/><path d="m37.246094 250.082031 26.460937 52.125-53.367187-5.523437zm0 0" fill="#c78fe8"/><path d="m96.410156 307.988281c-.332031-1.832031-.335937-3.691406-.058594-5.503906l-94.511718-9.785156c5.421875 52.023437 27.132812 99.195312 59.929687 136.355469.335938-.945313.742188-1.871094 1.253907-2.761719l38.625-66.898438c1.976562-3.421875 2.675781-7.429687 1.976562-11.316406zm0 0" fill="#5294e5"/><path d="m15.714844 352.164062c10.574218 28.511719 26.304687 54.515626 46.054687 76.890626.335938-.945313.742188-1.871094 1.253907-2.761719l37.71875-65.328125zm0 0" fill="#4374d3"/><path d="m35.691406 226.601562c-3.832031-2.210937-5.148437-7.109374-2.933594-10.941406l20.652344-35.773437c2.210938-3.835938 7.113282-5.144531 10.945313-2.933594s5.144531 7.113281 2.933593 10.945313l-20.65625 35.773437c-2.210937 3.832031-7.109374 5.144531-10.941406 2.929687zm0 0" fill="#83d3fc"/><path d="m64.355469 176.953125c-3.832031-2.214844-8.730469-.902344-10.945313 2.933594l-10.734375 18.589843c2.683594-2.179687 6.53125-2.609374 9.703125-.777343 3.171875 1.828125 4.722656 5.378906 4.175782 8.789062l10.734374-18.589843c2.210938-3.835938.898438-8.734376-2.933593-10.945313zm0 0" fill="#61b6ff"/><path d="m16.699219 259.496094c5.636719 3.257812 8.777343 9.167968 8.777343 15.242187l23.53125-40.757812c4.203126-7.28125 1.707032-16.589844-5.574218-20.792969-7.28125-4.207031-16.589844-1.710938-20.792969 5.570312l-21.910156 37.949219c-.027344.675781-.054688 1.347657-.078125 2.023438 4.988281-2.257813 10.941406-2.179688 16.046875.765625zm0 0" fill="#b26cde"/><path d="m5.148438 314.667969 19.054687-33c4.855469-8.410157 1.972656-19.164063-6.4375-24.019531-5.453125-3.148438-11.882813-3.027344-17.0625-.273438-.121094 3.195312-.203125 6.398438-.203125 9.625 0 16.3125 1.609375 32.246094 4.648438 47.667969zm0 0" fill="#9d4ad3"/><path d="m364.863281 438.253906-58.371093 3.144532 31.46875 43.457031zm0 0" fill="#c78fe8"/><path d="m385.976562 427.863281c-3.832031-2.214843-5.148437-7.113281-2.933593-10.945312l20.652343-35.773438c2.214844-3.832031 7.113282-5.144531 10.945313-2.933593 3.832031 2.214843 5.144531 7.113281 2.933594 10.945312l-20.652344 35.773438c-2.214844 3.832031-7.113281 5.144531-10.945313 2.933593zm0 0" fill="#83d3fc"/><path d="m414.640625 378.210938c-3.832031-2.210938-8.730469-.898438-10.945313 2.933593l-10.734374 18.589844c2.683593-2.179687 6.53125-2.609375 9.703124-.777344 3.171876 1.832031 4.722657 5.378907 4.175782 8.792969l10.734375-18.59375c2.210937-3.832031.898437-8.734375-2.933594-10.945312zm0 0" fill="#61b6ff"/><path d="m292.980469 416.007812c-1.429688 1.148438-3.042969 2.070313-4.792969 2.703126l-38.328125 13.796874c-3.714844 1.339844-6.835937 3.949219-8.8125 7.367188l-38.625 66.902344c-.257813.445312-.546875.875-.839844 1.289062 14.25 2.578125 28.925781 3.933594 43.917969 3.933594 36.085938 0 70.351562-7.804688 101.199219-21.816406zm0 0" fill="#61b6ff"/><path d="m240.140625 441.445312-37.71875 65.332032c-.257813.445312-.546875.875-.839844 1.289062 14.25 2.578125 28.925781 3.933594 43.917969 3.933594 14.671875 0 29.042969-1.292969 43.003906-3.765625zm0 0" fill="#5294e5"/><path d="m224.722656 373.308594c-3.332031 2.378906-7.75 2.589844-11.296875.542968l-20.394531-11.773437-20.390625-11.777344c-3.550781-2.046875-5.574219-5.976562-5.179687-10.054687l-22.078126 7.03125c-4.175781 1.328125-7.707031 4.171875-9.898437 7.96875l-33.339844 57.75c-2.0625 3.570312-2.804687 7.75-2.101562 11.8125l3.210937 18.472656c.703125 4.058594-.039062 8.238281-2.097656 11.808594l-3.984375 6.902344c17.480469 13.316406 36.800781 24.339843 57.519531 32.613281l3.726563-6.453125c2.0625-3.570313 5.3125-6.304688 9.179687-7.722656l17.601563-6.457032c3.871093-1.421875 7.121093-4.152344 9.179687-7.722656l33.34375-57.753906c2.191406-3.792969 2.886719-8.273438 1.949219-12.554688zm0 0" fill="#9d4ad3"/><path d="m229.671875 395.941406-4.949219-22.632812c-3.332031 2.378906-7.75 2.589844-11.296875.542968l-19.285156-11.136718 2.625 12.015625c1.011719 4.617187.261719 9.445312-2.105469 13.539062l-35.957031 62.277344c-2.21875 3.851563-5.722656 6.796875-9.894531 8.328125l-18.984375 6.964844c-4.171875 1.53125-7.675781 4.476562-9.898438 8.328125l-1.378906 2.390625c11.464844 6.960937 23.542969 13.019531 36.144531 18.046875l3.726563-6.453125c2.0625-3.570313 5.308593-6.304688 9.179687-7.722656l17.601563-6.457032c3.871093-1.421875 7.117187-4.152344 9.179687-7.722656l33.339844-57.75c2.195312-3.796875 2.890625-8.277344 1.953125-12.558594zm0 0" fill="#8634c6"/><path d="m317.140625 371.476562.003906-.277343c.035157-2.539063-.558593-5.035157-1.632812-7.335938-18.183594-38.847656 15.054687-65.230469 15.054687-65.230469l-52.480468-3.3125-8.585938 42.390626c-.371094 1.820312-1.242188 3.484374-2.496094 4.820312zm0 0" fill="#61b6ff"/><path d="m221.824219 375 4.699219 21.496094c.886718 4.066406.226562 8.316406-1.855469 11.921875l-31.660157 54.839843c-1.957031 3.390626-5.042968 5.988282-8.71875 7.335938l-16.714843 6.128906c-3.671875 1.351563-6.757813 3.945313-8.714844 7.332032l-5.722656 9.917968c16.132812 6.570313 33.117187 11.472656 50.75 14.492188.132812-.207032.265625-.40625.386719-.621094l38.625-66.898438c1.976562-3.421874 5.097656-6.03125 8.8125-7.367187l38.328124-13.800781c3.714844-1.335938 6.835938-3.945313 8.8125-7.367188l13.429688-23.265625c3.105469-5.375 4.777344-11.457031 4.859375-17.667969l-50.679687-29.257812zm0 0" fill="#b9e9fd"/><path d="m204.273438 507.84375 37.242187-64.5c-18.238281 3.769531-24.011719-4.96875-25.820313-11.546875-.4375-1.59375-1.09375-3.097656-1.933593-4.484375l-20.753907 35.945312c-1.957031 3.390626-5.042968 5.984376-8.71875 7.332032l-16.714843 6.132812c-3.671875 1.347656-6.757813 3.945313-8.714844 7.332032l-5.722656 9.917968c16.132812 6.570313 33.117187 11.472656 50.75 14.492188.128906-.207032.265625-.410156.386719-.621094zm0 0" fill="#83d3fc"/><path d="m109.964844 272.339844-13.429688 23.265625c-1.976562 3.417969-2.675781 7.425781-1.976562 11.3125l7.214844 40.09375c.699218 3.886719 0 7.894531-1.976563 11.3125l-38.625 66.902343c-.378906.660157-.707031 1.339844-.992187 2.03125 11.457031 13.238282 24.308593 25.230469 38.324218 35.753907l5.976563-10.351563c1.957031-3.386718 2.664062-7.359375 1.992187-11.214844l-3.046875-17.539062c-.671875-3.855469.035157-7.824219 1.992188-11.214844l31.664062-54.84375c2.078125-3.605468 5.433594-6.300781 9.398438-7.566406l20.964843-6.675781 6.070313-55.050781-50.679687-29.257813c-5.335938 3.175781-9.765626 7.664063-12.871094 13.042969zm0 0" fill="#61b6ff"/><path d="m98.503906 463.015625 5.976563-10.351563c1.957031-3.390624 2.664062-7.359374 1.992187-11.214843l-3.046875-17.542969c-.667969-3.855469.035157-7.824219 1.992188-11.214844l20.125-34.855468c-1.496094-.179688-3.019531-.171876-4.53125.050781-23.8125 3.535156-22.597657-17.164063-22.597657-17.164063l-37.238281 64.503906c-.382812.660157-.710937 1.339844-.992187 2.03125 11.453125 13.238282 24.304687 25.230469 38.320312 35.757813zm0 0" fill="#5294e5"/><path d="m378.222656 132.75c6.886719-23.96875 7.441406-49.316406 1.605469-73.566406l-2.007813-8.355469c-.816406-3.382813-4.296874-5.394531-7.632812-4.40625l-8.242188 2.4375c-23.917968 7.074219-45.589843 20.226563-62.90625 38.175781l-119.832031 124.210938 29.113281 43.796875 46.128907-40.742188c3.195312-2.820312 7.839843-3.289062 11.535156-1.15625l19.550781 11.289063c3.695313 2.132812 5.613282 6.386718 4.765625 10.566406l-12.21875 60.320312 52.484375 3.3125zm0 0" fill="#9d4ad3"/><path d="m317.335938 238.269531c-1.75-2.355469-4.808594-3.339843-7.601563-2.445312-13.1875 4.234375-19.5-5.066407-19.507813-5.078125.320313 1.367187.363282 2.8125.074219 4.253906l-12.21875 60.320312 52.484375 3.3125 16.347656-56.902343c-17.90625 6.933593-26.078124 1.257812-29.578124-3.460938zm0 0" fill="#8634c6"/><path d="m179.207031 211.246094 29.113281 43.796875 46.128907-40.742188c1.101562-.96875 2.375-1.65625 3.722656-2.058593h-.003906c-11.519531-3.289063-14.578125-10.046876-15.199219-14.867188-.390625-3.035156-2.703125-5.410156-5.710938-5.976562-18.425781-3.476563-16.523437-23.191407-16.523437-23.191407zm0 0" fill="#8634c6"/><path d="m123.074219 259.152344-.238281.144531 50.136718 28.945313c.53125-1.753907 1.535156-3.339844 2.929688-4.570313l32.417968-28.632813-29.113281-43.792968s-6.226562 41.976562-48.960937 45.652344c-2.53125.21875-4.988282.957031-7.171875 2.253906zm0 0" fill="#5294e5"/><path d="m393.71875 414.445312c-7.277344-4.203124-16.589844-1.707031-20.792969 5.574219l-23.53125 40.753907c5.261719-3.035157 11.949219-3.273438 17.589844-.015626 5.191406 2.996094 8.257813 8.246094 8.710937 13.800782.46875-.292969.9375-.578125 1.402344-.871094l22.195313-38.445312c4.203125-7.28125 1.710937-16.59375-5.574219-20.796876zm0 0" fill="#b26cde"/><path d="m358.171875 129.253906c11.214844-27.070312 17.957031-54.035156 19.648437-78.425781-.8125-3.382813-4.292968-5.394531-7.628906-4.40625-20.28125 13.660156-40.265625 32.984375-58.097656 56.226563l-109.875 143.214843 6.101562 9.175781 46.128907-40.738281c3.199219-2.824219 7.839843-3.289062 11.535156-1.15625l19.550781 11.289063c3.695313 2.132812 5.613282 6.386718 4.765625 10.566406l-12.214843 60.320312 11 .691407zm0 0" fill="#b26cde"/><path d="m323.582031 212.742188-19.042969-39.335938c-.710937-1.46875-2.242187-2.351562-3.867187-2.234375l-43.589844 3.175781-54.863281 71.511719 6.101562 9.179687 46.128907-40.738281c3.199219-2.824219 7.839843-3.289062 11.535156-1.15625l19.550781 11.289063c3.695313 2.132812 5.613282 6.386718 4.765625 10.566406l-12.214843 60.320312 11 .691407zm0 0" fill="#83d3fc"/><g fill="#61b6ff"><path d="m254.449219 214.300781c1.101562-.972656 2.375-1.65625 3.722656-2.058593h-.003906c-11.519531-3.289063-14.578125-10.046876-15.199219-14.867188-.148438-1.140625-.566406-2.1875-1.1875-3.078125l-39.5625 51.566406 6.101562 9.179688zm0 0"/><path d="m290.226562 230.75c.324219 1.367188.367188 2.8125.074219 4.25l-12.214843 60.320312 11 .691407 24.921874-60.148438c-1.355468-.457031-2.847656-.496093-4.273437-.039062-13.1875 4.234375-19.503906-5.070313-19.507813-5.074219zm0 0"/><path d="m338.011719 177.917969c-8.523438-17.597657-16.300781-33.667969-15.945313-32.933594-1.019531-2.101563-3.214844-3.371094-5.542968-3.199219-20.273438 1.476563-29.695313 2.164063-36.496094 2.65625l-24.371094 31.769532 44.15625-3.214844c1.503906-.113282 2.921875.707031 3.578125 2.0625l19.296875 39.851562zm0 0"/></g><path d="m269.5 337.710938 20.800781-102.710938c.847657-4.179688-1.070312-8.433594-4.765625-10.566406l-19.550781-11.289063c-3.695313-2.132812-8.335937-1.667969-11.535156 1.15625l-78.546875 69.371094c-1.886719 1.664063-3.070313 3.984375-3.308594 6.488281l-5.148438 53.445313c-.375 3.871093 1.546876 7.601562 4.917969 9.546875l38.730469 22.363281c3.367188 1.945313 7.5625 1.742187 10.730469-.515625l43.710937-31.179688c2.046875-1.460937 3.464844-3.644531 3.964844-6.109374zm0 0" fill="#eec707"/><path d="m269.5 337.710938 20.800781-102.710938c.292969-1.441406.25-2.886719-.074219-4.25l-64.925781 119.359375-8.082031 26.644531c1.625-.191406 3.214844-.761718 4.605469-1.753906l6.257812-4.464844 37.453125-26.714844c2.046875-1.460937 3.464844-3.644531 3.964844-6.109374zm0 0" fill="#f9ecc6"/><path d="m187.261719 328.148438 70.90625-115.90625c-1.339844.398437-2.613281 1.085937-3.714844 2.054687l-78.550781 69.375c-1.886719 1.664063-3.070313 3.984375-3.3125 6.488281l-4.410156 45.792969-.734376 7.652344c-.164062 1.699219.136719 3.359375.785157 4.863281zm0 0" fill="#fc9949"/><path d="m168.230469 348.46875c.828125 1.929688 2.242187 3.59375 4.132812 4.6875l38.730469 22.359375c1.894531 1.09375 4.039062 1.484375 6.125 1.238281l8.082031-26.640625-38.039062-21.964843zm0 0" fill="#fbb362"/><path d="m344.03125 465.34375-19.390625 33.585938c18.488281-6.308594 35.980469-14.765626 52.183594-25.074219-.101563-5.972657-3.222657-11.746094-8.773438-14.949219-8.410156-4.855469-19.164062-1.972656-24.019531 6.4375zm0 0" fill="#9d4ad3"/><path d="m407.429688 390.703125c-5.109376-2.953125-6.859376-9.484375-3.910157-14.597656l7.121094-12.332031c2.949219-5.109376 9.484375-6.859376 14.59375-3.910157s6.859375 9.484375 3.910156 14.59375l-7.121093 12.335938c-2.949219 5.109375-9.484376 6.859375-14.59375 3.910156zm0 0" fill="#fadda0"/><path d="m415.03125 377.535156c-4.304688-2.488281-6.339844-7.382812-5.40625-12l-6.105469 10.574219c-2.949219 5.109375-1.199219 11.644531 3.910157 14.59375 5.109374 2.949219 11.644531 1.199219 14.59375-3.910156l6.105468-10.574219c-3.53125 3.117188-8.789062 3.800781-13.097656 1.316406zm0 0" fill="#fbb362"/><path d="m57.144531 189.441406c-5.109375-2.949218-6.859375-9.484375-3.910156-14.59375l7.121094-12.332031c2.949219-5.109375 9.484375-6.863281 14.59375-3.910156 5.109375 2.949219 6.859375 9.484375 3.910156 14.59375l-7.121094 12.332031c-2.949219 5.109375-9.484375 6.863281-14.59375 3.910156zm0 0" fill="#fadda0"/><path d="m64.746094 176.277344c-4.304688-2.488282-6.339844-7.382813-5.40625-12l-6.105469 10.570312c-2.949219 5.109375-1.199219 11.644532 3.910156 14.597656 5.109375 2.949219 11.644531 1.195313 14.59375-3.910156l6.105469-10.574218c-3.53125 3.117187-8.792969 3.800781-13.097656 1.316406zm0 0" fill="#fbb362"/></svg>