<svg xmlns="http://www.w3.org/2000/svg" width="2500" height="2500" viewBox="8.4 8.4 51.2 51.2"><path fill="#0071BA" d="M34 8.4C19.813 8.4 8.4 19.813 8.4 34S19.813 59.6 34 59.6 59.6 48.187 59.6 34 48.187 8.4 34 8.4zm9.493 13.226c.64.32 1.28.747 1.707 1.173 1.173 1.173 1.6 2.24 1.28 3.2l-5.44 7.467c-.106.32-.106 1.066 0 1.387l5.333 7.253c.107.32.213.96.107 1.28-.854 1.6-2.348 2.773-3.84 3.307-.32 0-.534 0-.747-.106l-7.253-5.333c-.32-.214-.854-.214-1.281-.107l-7.573 5.547c-.64.213-1.173.106-1.813-.32-1.387-.96-2.347-2.133-2.667-3.413 0-.427 0-.533.213-.747l5.333-7.359a1.705 1.705 0 0 0-.213-1.6l-5.12-6.934c-.106-.106-.106-.32-.213-.533.107-2.027 1.6-3.093 3.307-4.267.32-.107.854-.107 1.173 0l7.36 5.546c.427.107 1.174.107 1.494-.106L42 21.626c.533-.213.96-.106 1.387 0h.106z"/></svg>