<?xml version="1.0" encoding="UTF-8"?>
<svg version="1.1" xmlns="http://www.w3.org/2000/svg" width="823" height="807" viewBox="0 0 823 807">
<path d="M0 0 C0.73476563 0.5259375 1.46953125 1.051875 2.2265625 1.59375 C10.46259753 8.18257802 16.08071275 17.39608408 22 26 C22.52609863 26.76280273 23.05219727 27.52560547 23.59423828 28.31152344 C26.26282764 32.18751011 28.9162725 36.07356405 31.5625 39.96484375 C35.27646199 45.41837901 39.0411377 50.8360567 42.8125 56.25 C43.48385986 57.21381592 44.15521973 58.17763184 44.84692383 59.1706543 C46.21497946 61.13408409 47.58322574 63.09738106 48.95166016 65.06054688 C52.30418349 69.87155772 55.65188001 74.68592423 59 79.5 C60.33330948 81.41668326 61.66664283 83.33334991 63 85.25 C83 114 83 114 103 142.75 C103.66040283 143.69931396 104.32080566 144.64862793 105.0012207 145.62670898 C106.33054229 147.5376392 107.65980689 149.44860907 108.98901367 151.35961914 C112.38325348 156.23938502 115.7785719 161.11839466 119.17578125 165.99609375 C125.01304247 174.37901517 130.84963106 182.76177581 136.625 191.1875 C141.19454373 197.85291377 145.82252354 204.47632141 150.46191406 211.09326172 C156.98142682 220.39351749 163.46348433 229.71969694 169.94580078 239.04589844 C172.02373427 242.03413177 174.10340516 245.02114864 176.18359375 248.0078125 C182.01846154 256.38668264 187.85228414 264.7656464 193.625 273.1875 C198.19454373 279.85291377 202.82252354 286.47632141 207.46191406 293.09326172 C213.98142682 302.39351749 220.46348433 311.71969694 226.94580078 321.04589844 C229.02373427 324.03413177 231.10340516 327.02114864 233.18359375 330.0078125 C239.01846154 338.38668264 244.85228414 346.7656464 250.625 355.1875 C255.19454373 361.85291377 259.82252354 368.47632141 264.46191406 375.09326172 C270.98142682 384.39351749 277.46348433 393.71969694 283.94580078 403.04589844 C286.02373427 406.03413177 288.10340516 409.02114864 290.18359375 412.0078125 C296.01846154 420.38668264 301.85228414 428.7656464 307.625 437.1875 C311.61195696 443.00311736 315.64032933 448.78863415 319.6875 454.5625 C334.5604113 475.78806935 334.5604113 475.78806935 341.10888672 485.26513672 C342.33412682 487.037037 343.56214459 488.80702109 344.79345703 490.57470703 C358.29785848 510.00053601 365.99972082 528.96835729 361.8125 553.0625 C360.49427519 559.89842574 358.33646919 565.89577795 355 572 C354.54625 572.85078125 354.0925 573.7015625 353.625 574.578125 C345.11765369 589.65092335 331.40838291 600.73596767 314.85546875 606 C309.27558678 607.45989365 303.74671398 608.52895787 298 609 C297.04673828 609.07927734 297.04673828 609.07927734 296.07421875 609.16015625 C277.99188538 609.9433835 259.96773419 602.61148133 246.1875 591.25 C238.94680981 584.4844801 233.57665803 576.13167456 228 568 C227.4647168 567.22269531 226.92943359 566.44539062 226.37792969 565.64453125 C223.67516518 561.71622836 220.98613329 557.77881612 218.3046875 553.8359375 C214.97255514 548.94551416 211.58677334 544.09391658 208.1875 539.25 C198.52520187 525.47810567 188.88721675 511.68862365 179.375 497.8125 C174.80542314 491.1471086 170.17747677 484.52367903 165.53808594 477.90673828 C159.01857318 468.60648251 152.53651567 459.28030306 146.05419922 449.95410156 C143.97626573 446.96586823 141.89659484 443.97885136 139.81640625 440.9921875 C133.98153846 432.61331736 128.14771586 424.2343536 122.375 415.8125 C117.80545627 409.14708623 113.17747646 402.52367859 108.53808594 395.90673828 C102.01857318 386.60648251 95.53651567 377.28030306 89.05419922 367.95410156 C86.97626573 364.96586823 84.89659484 361.97885136 82.81640625 358.9921875 C76.98153846 350.61331736 71.14771586 342.2343536 65.375 333.8125 C60.80545627 327.14708623 56.17747646 320.52367859 51.53808594 313.90673828 C45.01857318 304.60648251 38.53651567 295.28030306 32.05419922 285.95410156 C29.97626573 282.96586823 27.89659484 279.97885136 25.81640625 276.9921875 C14.34315476 260.51642563 14.34315476 260.51642563 9.58496094 253.57250977 C7.84351446 251.03199796 6.09470981 248.49658511 4.34619141 245.9609375 C3.40420367 244.58878561 2.46674642 243.21351752 1.53271484 241.8359375 C-6.98159519 229.28450518 -15.10074497 218.00744472 -29 211 C-29.62003906 210.66097656 -30.24007813 210.32195312 -30.87890625 209.97265625 C-38.62958233 206.34004997 -49.14827414 206.62485432 -57.125 209.375 C-69.16250691 215.11381143 -77.55268181 224.18000089 -85 235 C-85.48404297 235.69770508 -85.96808594 236.39541016 -86.46679688 237.11425781 C-89.1965606 241.0574411 -91.9003605 245.01753366 -94.58984375 248.98828125 C-97.95010057 253.94241956 -101.37239733 258.85107955 -104.8125 263.75 C-114.47525601 277.52156449 -124.11278857 291.3113841 -133.625 305.1875 C-138.19457686 311.8528914 -142.82252323 318.47632097 -147.46191406 325.09326172 C-153.98142682 334.39351749 -160.46348433 343.71969694 -166.94580078 353.04589844 C-169.02373427 356.03413177 -171.10340516 359.02114864 -173.18359375 362.0078125 C-179.01846154 370.38668264 -184.85228414 378.7656464 -190.625 387.1875 C-195.19454373 393.85291377 -199.82252354 400.47632141 -204.46191406 407.09326172 C-210.98142682 416.39351749 -217.46348433 425.71969694 -223.94580078 435.04589844 C-226.02373427 438.03413177 -228.10340516 441.02114864 -230.18359375 444.0078125 C-236.01846154 452.38668264 -241.85228414 460.7656464 -247.625 469.1875 C-252.19454373 475.85291377 -256.82252354 482.47632141 -261.46191406 489.09326172 C-267.98142682 498.39351749 -274.46348433 507.71969694 -280.94580078 517.04589844 C-283.02373427 520.03413177 -285.10340516 523.02114864 -287.18359375 526.0078125 C-293.01846762 534.38669138 -298.85138488 542.76625612 -304.625 551.1875 C-306.41489277 553.79289001 -308.2071084 556.39667294 -310 559 C-310.55429687 559.80598633 -311.10859375 560.61197266 -311.6796875 561.44238281 C-327.48239653 584.37873834 -342.08169539 602.99878494 -371.14453125 608.3984375 C-388.62772321 610.95022489 -406.80321185 606.88435722 -421.40625 596.94140625 C-437.57603306 584.83842104 -446.60536123 569.35598678 -450.6875 549.6875 C-453.00239905 522.37169115 -442.35146088 503.83026581 -427.1015625 482.3828125 C-424.23525738 478.34513811 -421.42077141 474.27422209 -418.625 470.1875 C-414.55616073 464.24577306 -410.4468618 458.33382136 -406.3125 452.4375 C-399.20051514 442.29430574 -392.12456411 432.12633678 -385.05419922 421.95410156 C-382.97626573 418.96586823 -380.89659484 415.97885136 -378.81640625 412.9921875 C-372.98153846 404.61331736 -367.14771586 396.2343536 -361.375 387.8125 C-356.80545627 381.14708623 -352.17747646 374.52367859 -347.53808594 367.90673828 C-341.01857318 358.60648251 -334.53651567 349.28030306 -328.05419922 339.95410156 C-325.97626573 336.96586823 -323.89659484 333.97885136 -321.81640625 330.9921875 C-315.98153846 322.61331736 -310.14771586 314.2343536 -304.375 305.8125 C-299.80545627 299.14708623 -295.17747646 292.52367859 -290.53808594 285.90673828 C-284.01857318 276.60648251 -277.53651567 267.28030306 -271.05419922 257.95410156 C-268.97626573 254.96586823 -266.89659484 251.97885136 -264.81640625 248.9921875 C-258.98153846 240.61331736 -253.14771586 232.2343536 -247.375 223.8125 C-242.80545627 217.14708623 -238.17747646 210.52367859 -233.53808594 203.90673828 C-227.0113425 194.59616776 -220.52187387 185.25978739 -214.03222656 175.92333984 C-211.3538398 172.0705043 -208.6741792 168.21855576 -205.99438477 164.36669922 C-204.66665277 162.45823685 -203.33901578 160.54970839 -202.01147461 158.64111328 C-198.61709159 153.76108965 -195.22159577 148.88184608 -191.82421875 144.00390625 C-185.98695753 135.62098483 -180.15036894 127.23822419 -174.375 118.8125 C-169.80545627 112.14708623 -165.17747646 105.52367859 -160.53808594 98.90673828 C-154.01857318 89.60648251 -147.53651567 80.28030306 -141.05419922 70.95410156 C-138.97626573 67.96586823 -136.89659484 64.97885136 -134.81640625 61.9921875 C-128.93862304 53.55160232 -123.06463585 45.10924185 -117.25 36.625 C-115.95135722 34.73617544 -114.65150262 32.84819662 -113.35058594 30.9609375 C-112.40432115 29.5870404 -111.45980685 28.21193679 -110.51660156 26.8359375 C-95.29288768 4.67129129 -80.67385148 -9.22259778 -53.40234375 -14.49609375 C-34.45937084 -17.30165461 -15.31557254 -11.12146191 0 0 Z " fill="#EE2C8B" transform="translate(451,30)"/>
<path d="M0 0 C15.63146787 13.09663524 28.11314314 32.44377228 30.45703125 53.05859375 C32.36939919 79.12314431 27.51787775 101.71195459 10.45703125 122.05859375 C-3.55278146 138.22376227 -23.65585193 148.42776574 -44.91796875 150.80859375 C-46.4584104 150.91213163 -48.00028942 150.99677907 -49.54296875 151.05859375 C-50.24164063 151.09855469 -50.9403125 151.13851562 -51.66015625 151.1796875 C-72.62108312 151.83231709 -94.00723405 144.01894193 -109.54296875 130.05859375 C-110.46207031 129.23359375 -111.38117188 128.40859375 -112.328125 127.55859375 C-128.42948709 112.32099111 -137.64963094 91.12857581 -138.57421875 69.0078125 C-138.3957925 46.45919515 -131.75160101 26.12542356 -116.54296875 9.05859375 C-115.8778125 8.29933594 -115.21265625 7.54007813 -114.52734375 6.7578125 C-104.94853057 -3.51280385 -92.65501901 -10.22288297 -79.54296875 -14.94140625 C-78.60066406 -15.28171875 -77.65835938 -15.62203125 -76.6875 -15.97265625 C-50.187834 -23.69725524 -21.45608864 -16.5022091 0 0 Z " fill="#EE2C8A" transform="translate(460.54296875,655.94140625)"/>
</svg>

