<?xml version="1.0" encoding="utf-8"?>
<svg viewBox="168.419 120.023 131.984 152.407" xmlns="http://www.w3.org/2000/svg">
  <defs>
    <linearGradient id="paint0_linear_425_56" x1="62.128" x2="41.202" y1="105.54" y2="105.54" gradientUnits="userSpaceOnUse" gradientTransform="matrix(1, 0, 0, 1, 168.420441, 120.02298)">
      <stop stop-color="#FF3364" offset="0"/>
      <stop stop-color="#C91540" stop-opacity="0" offset="1"/>
    </linearGradient>
  </defs>
  <g clip-rule="evenodd" fill-rule="evenodd" transform="matrix(1, 0, 0, 1, 168.420441, 120.02298)">
    <path d="m103.79 140.09-3.0389-83.784-5.5036-22.089 36.735 3.8889v101.35l-22.44 12.951z" fill="#24386c"/>
    <path d="m131.98 38.1-22.44 12.96-46.308-10.158-54.203 22.069-9.0306-24.871 32.99-19.05 33-19.05 32.991 19.05z" fill="#7589be"/>
    <path d="m0 38.1 22.44 12.96 13.008 38.686 43.921 35.142-13.378 27.512-33-19.051-32.991-19.05v-76.2" fill="#b2bfe8"/>
    <path d="m80.868 104.56-14.877 21.932v25.91l21.11-12.18 10.877-16.242" fill="#24386c"/>
    <path d="m66 100.59-21.119-36.565 4.5489-12.119 17.293-8.3844 20.378 20.504z" fill="#7589be"/>
    <path d="m44.881 64.022 21.11 12.18v24.38l-19.524 0.84001-11.81-15.08 10.224-22.32" fill="#b2bfe8"/>
    <path d="m65.991 76.2 21.11-12.179 14.367 23.922-17.386 14.365-18.091-1.7272z" fill="#24386c"/>
    <path d="m87.101 140.22 22.44 12.181v-101.34l-21.78-12.57-21.77-12.57-21.78 12.57-21.77 12.57v50.289l21.77 12.57 21.78 12.571 21.11-12.191zm0-51.83-21.11 12.19-21.11-12.19v-24.37l21.11-12.19 21.11 12.19v24.37" fill="#dc244c"/>
  </g>
  <path d="M 234.421 246.523 L 234.421 220.609 L 213.421 208.523 L 213.421 234.394 L 234.421 246.523 Z" fill="url(#paint0_linear_425_56)"/>
</svg>