<svg xmlns="http://www.w3.org/2000/svg" xmlns:v="https://svgstorm.com"
viewBox = "0 0 1080 1080"
width="1080"
height="1080">
<g fill="None" fill-opacity="0.0" stroke="#000000" stroke-opacity="0.00" stroke-width="0.3"><path d="
M 0.00 556.00
C 0.50 556.00 1.00 556.00 1.00 556.00
C 1.00 543.96 2.41 535.71 2.78 523.78 C 3.15 511.85 11.33 508.51 23.00 510.00 C 34.67 511.49 46.33 508.88 58.00 510.00
C 55.03 445.25 54.61 379.85 52.00 315.00
C 52.00 238.88 46.74 163.03 46.00 87.00
C 69.27 87.75 91.77 85.43 115.00 86.00
C 117.35 160.24 118.93 234.68 121.00 309.00
C 121.00 334.70 122.92 360.28 123.00 386.00
C 396.02 370.77 676.00 370.80 949.00 386.00
C 953.33 310.01 957.61 233.99 962.00 158.00
C 984.98 158.73 1007.80 160.13 1031.00 160.00
C 1025.41 277.01 1020.46 394.23 1014.00 511.00
C 1028.45 510.50 1040.29 511.67 1055.00 511.00 C 1069.71 510.33 1070.10 524.83 1070.78 537.22 C 1071.45 549.61 1071.91 564.92 1072.00 578.00 C 1072.09 591.08 1072.51 603.84 1072.00 617.00 C 1071.49 630.16 1071.08 644.09 1070.00 657.00 C 1068.92 669.91 1067.52 682.36 1066.00 695.00 C 1064.49 707.65 1062.44 719.38 1061.00 732.00
C 1060.43 735.60 1058.90 739.18 1059.00 743.00
C 1042.00 743.00 1025.00 743.00 1008.00 743.00
C 1006.23 771.22 999.28 802.63 984.25 826.25 C 969.22 849.87 957.01 866.20 932.30 881.30 C 907.60 896.41 884.48 907.31 852.78 908.78 C 821.08 910.25 780.45 908.27 747.00 908.00 C 713.55 907.73 676.28 906.58 642.00 906.00 C 607.72 905.42 570.74 904.99 536.00 905.00 C 501.26 905.01 464.27 905.42 430.00 906.00 C 395.73 906.58 358.43 907.78 325.00 908.00 C 291.57 908.22 250.86 910.34 219.33 908.67 C 187.80 907.00 163.55 897.32 138.92 882.08 C 114.30 866.83 102.15 850.37 87.08 826.92 C 72.01 803.47 65.22 771.15 64.00 743.00
C 53.53 743.29 42.40 742.61 32.00 743.00 C 21.60 743.39 9.27 745.22 12.00 731.00
C 6.63 697.23 1.00 663.14 1.00 628.00
C 1.00 628.04 0.00 628.00 0.00 628.00
L 0.00 1080.00
L 1080.00 1080.00
L 1080.00 0.00
L 0.00 0.00
L 0.00 556.00
M 639.00 17.00
C 623.69 46.12 602.64 73.54 584.70 101.70 C 566.76 129.86 546.31 156.65 529.00 185.00
C 646.49 170.69 764.46 158.20 882.00 144.00
C 877.98 154.31 873.87 162.84 869.08 173.08 C 864.28 183.31 861.95 195.91 849.00 196.00 C 836.05 196.09 823.84 200.25 811.00 201.00 C 798.15 201.75 785.78 204.91 773.00 206.00 C 760.21 207.08 747.72 209.69 734.99 210.99 C 722.26 212.30 709.66 214.57 696.98 215.98 C 684.29 217.38 672.59 219.35 659.93 220.93 C 647.27 222.51 634.42 224.01 621.78 225.78 C 609.14 227.55 596.34 228.78 583.78 230.78 C 571.21 232.78 557.89 233.26 545.33 235.33 C 532.77 237.40 519.98 238.49 507.33 240.33 C 494.68 242.17 481.78 243.63 469.00 245.00 C 456.22 246.37 444.02 249.52 431.00 250.00
C 466.30 190.88 507.91 134.47 545.00 76.00
C 428.76 89.68 313.13 105.80 197.00 120.00
C 201.85 104.71 209.60 99.25 213.92 82.92 C 218.24 66.60 236.53 67.76 252.00 66.00 C 267.47 64.24 284.14 61.79 300.00 60.00 C 315.86 58.21 332.59 55.29 348.67 53.67 C 364.75 52.05 380.11 48.99 396.22 47.22 C 412.34 45.46 428.96 43.17 445.01 41.01 C 461.05 38.85 476.95 37.33 493.00 35.00 C 509.06 32.68 525.88 31.19 542.00 29.00 C 558.12 26.81 573.69 24.58 590.00 23.00 C 606.31 21.42 622.28 17.15 639.00 17.00 Z"/>
</g>
<g fill="None" fill-opacity="0.0" stroke="#4C1FCA" stroke-opacity="0.98" stroke-width="0.3"><path d="
M 639.00 17.00
C 622.28 17.15 606.31 21.42 590.00 23.00 C 573.69 24.58 558.12 26.81 542.00 29.00 C 525.88 31.19 509.06 32.68 493.00 35.00 C 476.95 37.33 461.05 38.85 445.01 41.01 C 428.96 43.17 412.34 45.46 396.22 47.22 C 380.11 48.99 364.75 52.05 348.67 53.67 C 332.59 55.29 315.86 58.21 300.00 60.00 C 284.14 61.79 267.47 64.24 252.00 66.00 C 236.53 67.76 218.24 66.60 213.92 82.92 C 209.60 99.25 201.85 104.71 197.00 120.00
C 313.13 105.80 428.76 89.68 545.00 76.00
C 507.91 134.47 466.30 190.88 431.00 250.00
C 444.02 249.52 456.22 246.37 469.00 245.00 C 481.78 243.63 494.68 242.17 507.33 240.33 C 519.98 238.49 532.77 237.40 545.33 235.33 C 557.89 233.26 571.21 232.78 583.78 230.78 C 596.34 228.78 609.14 227.55 621.78 225.78 C 634.42 224.01 647.27 222.51 659.93 220.93 C 672.59 219.35 684.29 217.38 696.98 215.98 C 709.66 214.57 722.26 212.30 734.99 210.99 C 747.72 209.69 760.21 207.08 773.00 206.00 C 785.78 204.91 798.15 201.75 811.00 201.00 C 823.84 200.25 836.05 196.09 849.00 196.00 C 861.95 195.91 864.28 183.31 869.08 173.08 C 873.87 162.84 877.98 154.31 882.00 144.00
C 764.46 158.20 646.49 170.69 529.00 185.00
C 546.31 156.65 566.76 129.86 584.70 101.70 C 602.64 73.54 623.69 46.12 639.00 17.00 Z"/>
</g>
<g fill="None" fill-opacity="0.0" stroke="#531FCB" stroke-opacity="0.99" stroke-width="0.3"><path d="
M 52.00 315.00
C 52.94 312.30 62.60 314.27 65.31 313.28 C 68.01 312.30 75.04 315.21 78.77 314.58 C 82.50 313.94 87.69 313.61 91.92 314.14 C 96.16 314.67 101.01 313.10 105.31 313.28 C 109.60 313.47 114.30 313.80 119.00 315.00
C 119.91 313.17 119.34 310.26 121.00 309.00
C 118.93 234.68 117.35 160.24 115.00 86.00
C 91.77 85.43 69.27 87.75 46.00 87.00
C 46.74 163.03 52.00 238.88 52.00 315.00 Z"/>
</g>
<g fill="None" fill-opacity="0.0" stroke="#731FCB" stroke-opacity="1.00" stroke-width="0.3"><path d="
M 121.00 309.00
C 119.34 310.26 119.91 313.17 119.00 315.00
C 114.30 313.80 109.60 313.47 105.31 313.28 C 101.01 313.10 96.16 314.67 91.92 314.14 C 87.69 313.61 82.50 313.94 78.77 314.58 C 75.04 315.21 68.01 312.30 65.31 313.28 C 62.60 314.27 52.94 312.30 52.00 315.00
C 54.61 379.85 55.03 445.25 58.00 510.00
C 46.33 508.88 34.67 511.49 23.00 510.00 C 11.33 508.51 3.15 511.85 2.78 523.78 C 2.41 535.71 1.00 543.96 1.00 556.00
C 1.00 560.33 1.00 564.67 1.00 569.00
C 1.00 575.83 1.83 583.99 0.00 590.00
L 0.00 603.00
C 1.82 610.42 1.00 619.82 1.00 628.00
C 1.00 663.14 6.63 697.23 12.00 731.00
C 16.70 734.32 26.99 729.52 33.00 731.00 C 39.01 732.48 47.33 730.36 54.00 731.00 C 60.67 731.64 69.08 730.71 76.00 731.00 C 82.92 731.29 89.97 730.89 97.00 731.00 C 104.03 731.11 111.98 730.99 119.00 731.00 C 126.02 731.01 133.09 731.09 140.00 731.00 C 146.91 730.91 154.26 731.25 161.00 731.00 C 167.74 730.75 176.68 731.54 183.00 731.00 C 189.32 730.46 198.77 732.27 204.00 731.00 C 209.23 729.73 222.64 734.17 225.00 730.00
C 184.35 674.23 191.93 593.33 244.08 547.08 C 296.23 500.84 376.81 499.34 428.75 546.25 C 480.69 593.16 487.96 675.06 448.00 731.00
C 458.62 727.50 471.70 732.56 483.00 731.00 C 494.30 729.44 507.43 731.77 519.00 731.00 C 530.57 730.23 542.32 731.45 554.00 731.00 C 565.68 730.55 578.32 731.44 590.00 731.00 C 601.68 730.57 614.19 732.16 625.00 730.00
C 584.91 674.43 590.92 592.78 643.75 546.75 C 696.59 500.72 775.96 498.95 828.75 546.25 C 881.54 593.55 885.75 674.52 847.00 731.00
C 855.70 727.46 867.44 732.53 877.00 731.00 C 886.56 729.47 898.05 731.69 908.00 731.00 C 917.95 730.31 928.93 731.30 939.00 731.00 C 949.07 730.70 958.86 731.09 969.00 731.00 C 979.14 730.91 989.81 730.95 1000.00 731.00 C 1010.19 731.05 1020.87 730.79 1031.00 731.00 C 1041.13 731.21 1051.36 730.03 1061.00 732.00
C 1062.44 719.38 1064.49 707.65 1066.00 695.00 C 1067.52 682.36 1068.92 669.91 1070.00 657.00 C 1071.08 644.09 1071.49 630.16 1072.00 617.00 C 1072.51 603.84 1072.09 591.08 1072.00 578.00 C 1071.91 564.92 1071.45 549.61 1070.78 537.22 C 1070.10 524.83 1069.71 510.33 1055.00 511.00 C 1040.29 511.67 1028.45 510.50 1014.00 511.00
C 1020.46 394.23 1025.41 277.01 1031.00 160.00
C 1007.80 160.13 984.98 158.73 962.00 158.00
C 957.61 233.99 953.33 310.01 949.00 386.00
C 676.00 370.80 396.02 370.77 123.00 386.00
C 122.92 360.28 121.00 334.70 121.00 309.00 Z"/>
</g>
<g fill="None" fill-opacity="0.0" stroke="#000000" stroke-opacity="0.00" stroke-width="0.3"><path d="
M 225.00 730.00
C 277.48 802.00 395.55 804.43 448.00 731.00
C 487.96 675.06 480.69 593.16 428.75 546.25 C 376.81 499.34 296.23 500.84 244.08 547.08 C 191.93 593.33 184.35 674.23 225.00 730.00
M 345.00 577.00
C 397.59 583.36 427.16 648.04 395.23 691.23 C 363.30 734.42 296.70 729.01 272.08 680.92 C 247.45 632.84 288.14 570.13 345.00 577.00 Z"/>
</g>
<g fill="None" fill-opacity="0.0" stroke="#000000" stroke-opacity="0.00" stroke-width="0.3"><path d="
M 625.00 730.00
C 676.62 801.55 796.06 805.26 847.00 731.00
C 885.75 674.52 881.54 593.55 828.75 546.25 C 775.96 498.95 696.59 500.72 643.75 546.75 C 590.92 592.78 584.91 674.43 625.00 730.00
M 745.00 577.00
C 798.20 583.43 826.54 649.80 794.23 692.23 C 761.92 734.66 695.72 728.95 671.23 680.77 C 646.73 632.59 688.83 570.21 745.00 577.00 Z"/>
</g>
<g fill="None" fill-opacity="0.0" stroke="#7920CB" stroke-opacity="0.38" stroke-width="0.3"><path d="
M 0.00 569.00
C 0.50 569.00 1.00 569.00 1.00 569.00
C 1.00 564.67 1.00 560.33 1.00 556.00
C 1.00 556.00 0.50 556.00 0.00 556.00
L 0.00 569.00 Z"/>
</g>
<g fill="None" fill-opacity="0.0" stroke="#7A1FCC" stroke-opacity="0.75" stroke-width="0.3"><path d="
M 0.00 590.00
C 1.83 583.99 1.00 575.83 1.00 569.00
C 1.00 569.00 0.50 569.00 0.00 569.00
L 0.00 590.00 Z"/>
</g>
<g fill="None" fill-opacity="0.0" stroke="#811FCB" stroke-opacity="0.99" stroke-width="0.3"><path d="
M 345.00 577.00
C 288.14 570.13 247.45 632.84 272.08 680.92 C 296.70 729.01 363.30 734.42 395.23 691.23 C 427.16 648.04 397.59 583.36 345.00 577.00 Z"/>
</g>
<g fill="None" fill-opacity="0.0" stroke="#811FCB" stroke-opacity="0.99" stroke-width="0.3"><path d="
M 745.00 577.00
C 688.83 570.21 646.73 632.59 671.23 680.77 C 695.72 728.95 761.92 734.66 794.23 692.23 C 826.54 649.80 798.20 583.43 745.00 577.00 Z"/>
</g>
<g fill="None" fill-opacity="0.0" stroke="#7E1FCB" stroke-opacity="0.50" stroke-width="0.3"><path d="
M 0.00 628.00
C 0.00 628.00 1.00 628.04 1.00 628.00
C 1.00 619.82 1.82 610.42 0.00 603.00
L 0.00 628.00 Z"/>
</g>
<g fill="None" fill-opacity="0.0" stroke="#931FCC" stroke-opacity="1.00" stroke-width="0.3"><path d="
M 12.00 731.00
C 9.27 745.22 21.60 743.39 32.00 743.00 C 42.40 742.61 53.53 743.29 64.00 743.00
C 65.22 771.15 72.01 803.47 87.08 826.92 C 102.15 850.37 114.30 866.83 138.92 882.08 C 163.55 897.32 187.80 907.00 219.33 908.67 C 250.86 910.34 291.57 908.22 325.00 908.00 C 358.43 907.78 395.73 906.58 430.00 906.00 C 464.27 905.42 501.26 905.01 536.00 905.00 C 570.74 904.99 607.72 905.42 642.00 906.00 C 676.28 906.58 713.55 907.73 747.00 908.00 C 780.45 908.27 821.08 910.25 852.78 908.78 C 884.48 907.31 907.60 896.41 932.30 881.30 C 957.01 866.20 969.22 849.87 984.25 826.25 C 999.28 802.63 1006.23 771.22 1008.00 743.00
C 1025.00 743.00 1042.00 743.00 1059.00 743.00
C 1058.90 739.18 1060.43 735.60 1061.00 732.00
C 1051.36 730.03 1041.13 731.21 1031.00 731.00 C 1020.87 730.79 1010.19 731.05 1000.00 731.00 C 989.81 730.95 979.14 730.91 969.00 731.00 C 958.86 731.09 949.07 730.70 939.00 731.00 C 928.93 731.30 917.95 730.31 908.00 731.00 C 898.05 731.69 886.56 729.47 877.00 731.00 C 867.44 732.53 855.70 727.46 847.00 731.00
C 796.06 805.26 676.62 801.55 625.00 730.00
C 614.19 732.16 601.68 730.57 590.00 731.00 C 578.32 731.44 565.68 730.55 554.00 731.00 C 542.32 731.45 530.57 730.23 519.00 731.00 C 507.43 731.77 494.30 729.44 483.00 731.00 C 471.70 732.56 458.62 727.50 448.00 731.00
C 395.55 804.43 277.48 802.00 225.00 730.00
C 222.64 734.17 209.23 729.73 204.00 731.00 C 198.77 732.27 189.32 730.46 183.00 731.00 C 176.68 731.54 167.74 730.75 161.00 731.00 C 154.26 731.25 146.91 730.91 140.00 731.00 C 133.09 731.09 126.02 731.01 119.00 731.00 C 111.98 730.99 104.03 731.11 97.00 731.00 C 89.97 730.89 82.92 731.29 76.00 731.00 C 69.08 730.71 60.67 731.64 54.00 731.00 C 47.33 730.36 39.01 732.48 33.00 731.00 C 26.99 729.52 16.70 734.32 12.00 731.00 Z"/>
</g>
<g fill="#000000" fill-opacity="0.00" stroke="None">
<path d="
M 0.00 556.00
C 0.50 556.00 1.00 556.00 1.00 556.00
C 1.00 543.96 2.41 535.71 2.78 523.78 C 3.15 511.85 11.33 508.51 23.00 510.00 C 34.67 511.49 46.33 508.88 58.00 510.00
C 55.03 445.25 54.61 379.85 52.00 315.00
C 52.00 238.88 46.74 163.03 46.00 87.00
C 69.27 87.75 91.77 85.43 115.00 86.00
C 117.35 160.24 118.93 234.68 121.00 309.00
C 121.00 334.70 122.92 360.28 123.00 386.00
C 396.02 370.77 676.00 370.80 949.00 386.00
C 953.33 310.01 957.61 233.99 962.00 158.00
C 984.98 158.73 1007.80 160.13 1031.00 160.00
C 1025.41 277.01 1020.46 394.23 1014.00 511.00
C 1028.45 510.50 1040.29 511.67 1055.00 511.00 C 1069.71 510.33 1070.10 524.83 1070.78 537.22 C 1071.45 549.61 1071.91 564.92 1072.00 578.00 C 1072.09 591.08 1072.51 603.84 1072.00 617.00 C 1071.49 630.16 1071.08 644.09 1070.00 657.00 C 1068.92 669.91 1067.52 682.36 1066.00 695.00 C 1064.49 707.65 1062.44 719.38 1061.00 732.00
C 1060.43 735.60 1058.90 739.18 1059.00 743.00
C 1042.00 743.00 1025.00 743.00 1008.00 743.00
C 1006.23 771.22 999.28 802.63 984.25 826.25 C 969.22 849.87 957.01 866.20 932.30 881.30 C 907.60 896.41 884.48 907.31 852.78 908.78 C 821.08 910.25 780.45 908.27 747.00 908.00 C 713.55 907.73 676.28 906.58 642.00 906.00 C 607.72 905.42 570.74 904.99 536.00 905.00 C 501.26 905.01 464.27 905.42 430.00 906.00 C 395.73 906.58 358.43 907.78 325.00 908.00 C 291.57 908.22 250.86 910.34 219.33 908.67 C 187.80 907.00 163.55 897.32 138.92 882.08 C 114.30 866.83 102.15 850.37 87.08 826.92 C 72.01 803.47 65.22 771.15 64.00 743.00
C 53.53 743.29 42.40 742.61 32.00 743.00 C 21.60 743.39 9.27 745.22 12.00 731.00
C 6.63 697.23 1.00 663.14 1.00 628.00
C 1.00 628.04 0.00 628.00 0.00 628.00
L 0.00 1080.00
L 1080.00 1080.00
L 1080.00 0.00
L 0.00 0.00
L 0.00 556.00
M 639.00 17.00
C 623.69 46.12 602.64 73.54 584.70 101.70 C 566.76 129.86 546.31 156.65 529.00 185.00
C 646.49 170.69 764.46 158.20 882.00 144.00
C 877.98 154.31 873.87 162.84 869.08 173.08 C 864.28 183.31 861.95 195.91 849.00 196.00 C 836.05 196.09 823.84 200.25 811.00 201.00 C 798.15 201.75 785.78 204.91 773.00 206.00 C 760.21 207.08 747.72 209.69 734.99 210.99 C 722.26 212.30 709.66 214.57 696.98 215.98 C 684.29 217.38 672.59 219.35 659.93 220.93 C 647.27 222.51 634.42 224.01 621.78 225.78 C 609.14 227.55 596.34 228.78 583.78 230.78 C 571.21 232.78 557.89 233.26 545.33 235.33 C 532.77 237.40 519.98 238.49 507.33 240.33 C 494.68 242.17 481.78 243.63 469.00 245.00 C 456.22 246.37 444.02 249.52 431.00 250.00
C 466.30 190.88 507.91 134.47 545.00 76.00
C 428.76 89.68 313.13 105.80 197.00 120.00
C 201.85 104.71 209.60 99.25 213.92 82.92 C 218.24 66.60 236.53 67.76 252.00 66.00 C 267.47 64.24 284.14 61.79 300.00 60.00 C 315.86 58.21 332.59 55.29 348.67 53.67 C 364.75 52.05 380.11 48.99 396.22 47.22 C 412.34 45.46 428.96 43.17 445.01 41.01 C 461.05 38.85 476.95 37.33 493.00 35.00 C 509.06 32.68 525.88 31.19 542.00 29.00 C 558.12 26.81 573.69 24.58 590.00 23.00 C 606.31 21.42 622.28 17.15 639.00 17.00 Z"/>
</g>
<g fill="#4C1FCA" fill-opacity="0.98" stroke="None">
<path d="
M 639.00 17.00
C 622.28 17.15 606.31 21.42 590.00 23.00 C 573.69 24.58 558.12 26.81 542.00 29.00 C 525.88 31.19 509.06 32.68 493.00 35.00 C 476.95 37.33 461.05 38.85 445.01 41.01 C 428.96 43.17 412.34 45.46 396.22 47.22 C 380.11 48.99 364.75 52.05 348.67 53.67 C 332.59 55.29 315.86 58.21 300.00 60.00 C 284.14 61.79 267.47 64.24 252.00 66.00 C 236.53 67.76 218.24 66.60 213.92 82.92 C 209.60 99.25 201.85 104.71 197.00 120.00
C 313.13 105.80 428.76 89.68 545.00 76.00
C 507.91 134.47 466.30 190.88 431.00 250.00
C 444.02 249.52 456.22 246.37 469.00 245.00 C 481.78 243.63 494.68 242.17 507.33 240.33 C 519.98 238.49 532.77 237.40 545.33 235.33 C 557.89 233.26 571.21 232.78 583.78 230.78 C 596.34 228.78 609.14 227.55 621.78 225.78 C 634.42 224.01 647.27 222.51 659.93 220.93 C 672.59 219.35 684.29 217.38 696.98 215.98 C 709.66 214.57 722.26 212.30 734.99 210.99 C 747.72 209.69 760.21 207.08 773.00 206.00 C 785.78 204.91 798.15 201.75 811.00 201.00 C 823.84 200.25 836.05 196.09 849.00 196.00 C 861.95 195.91 864.28 183.31 869.08 173.08 C 873.87 162.84 877.98 154.31 882.00 144.00
C 764.46 158.20 646.49 170.69 529.00 185.00
C 546.31 156.65 566.76 129.86 584.70 101.70 C 602.64 73.54 623.69 46.12 639.00 17.00 Z"/>
</g>
<g fill="#531FCB" fill-opacity="0.99" stroke="None">
<path d="
M 52.00 315.00
C 52.94 312.30 62.60 314.27 65.31 313.28 C 68.01 312.30 75.04 315.21 78.77 314.58 C 82.50 313.94 87.69 313.61 91.92 314.14 C 96.16 314.67 101.01 313.10 105.31 313.28 C 109.60 313.47 114.30 313.80 119.00 315.00
C 119.91 313.17 119.34 310.26 121.00 309.00
C 118.93 234.68 117.35 160.24 115.00 86.00
C 91.77 85.43 69.27 87.75 46.00 87.00
C 46.74 163.03 52.00 238.88 52.00 315.00 Z"/>
</g>
<g fill="#731FCB" fill-opacity="1.00" stroke="None">
<path d="
M 121.00 309.00
C 119.34 310.26 119.91 313.17 119.00 315.00
C 114.30 313.80 109.60 313.47 105.31 313.28 C 101.01 313.10 96.16 314.67 91.92 314.14 C 87.69 313.61 82.50 313.94 78.77 314.58 C 75.04 315.21 68.01 312.30 65.31 313.28 C 62.60 314.27 52.94 312.30 52.00 315.00
C 54.61 379.85 55.03 445.25 58.00 510.00
C 46.33 508.88 34.67 511.49 23.00 510.00 C 11.33 508.51 3.15 511.85 2.78 523.78 C 2.41 535.71 1.00 543.96 1.00 556.00
C 1.00 560.33 1.00 564.67 1.00 569.00
C 1.00 575.83 1.83 583.99 0.00 590.00
L 0.00 603.00
C 1.82 610.42 1.00 619.82 1.00 628.00
C 1.00 663.14 6.63 697.23 12.00 731.00
C 16.70 734.32 26.99 729.52 33.00 731.00 C 39.01 732.48 47.33 730.36 54.00 731.00 C 60.67 731.64 69.08 730.71 76.00 731.00 C 82.92 731.29 89.97 730.89 97.00 731.00 C 104.03 731.11 111.98 730.99 119.00 731.00 C 126.02 731.01 133.09 731.09 140.00 731.00 C 146.91 730.91 154.26 731.25 161.00 731.00 C 167.74 730.75 176.68 731.54 183.00 731.00 C 189.32 730.46 198.77 732.27 204.00 731.00 C 209.23 729.73 222.64 734.17 225.00 730.00
C 184.35 674.23 191.93 593.33 244.08 547.08 C 296.23 500.84 376.81 499.34 428.75 546.25 C 480.69 593.16 487.96 675.06 448.00 731.00
C 458.62 727.50 471.70 732.56 483.00 731.00 C 494.30 729.44 507.43 731.77 519.00 731.00 C 530.57 730.23 542.32 731.45 554.00 731.00 C 565.68 730.55 578.32 731.44 590.00 731.00 C 601.68 730.57 614.19 732.16 625.00 730.00
C 584.91 674.43 590.92 592.78 643.75 546.75 C 696.59 500.72 775.96 498.95 828.75 546.25 C 881.54 593.55 885.75 674.52 847.00 731.00
C 855.70 727.46 867.44 732.53 877.00 731.00 C 886.56 729.47 898.05 731.69 908.00 731.00 C 917.95 730.31 928.93 731.30 939.00 731.00 C 949.07 730.70 958.86 731.09 969.00 731.00 C 979.14 730.91 989.81 730.95 1000.00 731.00 C 1010.19 731.05 1020.87 730.79 1031.00 731.00 C 1041.13 731.21 1051.36 730.03 1061.00 732.00
C 1062.44 719.38 1064.49 707.65 1066.00 695.00 C 1067.52 682.36 1068.92 669.91 1070.00 657.00 C 1071.08 644.09 1071.49 630.16 1072.00 617.00 C 1072.51 603.84 1072.09 591.08 1072.00 578.00 C 1071.91 564.92 1071.45 549.61 1070.78 537.22 C 1070.10 524.83 1069.71 510.33 1055.00 511.00 C 1040.29 511.67 1028.45 510.50 1014.00 511.00
C 1020.46 394.23 1025.41 277.01 1031.00 160.00
C 1007.80 160.13 984.98 158.73 962.00 158.00
C 957.61 233.99 953.33 310.01 949.00 386.00
C 676.00 370.80 396.02 370.77 123.00 386.00
C 122.92 360.28 121.00 334.70 121.00 309.00 Z"/>
</g>
<g fill="#000000" fill-opacity="0.00" stroke="None">
<path d="
M 225.00 730.00
C 277.48 802.00 395.55 804.43 448.00 731.00
C 487.96 675.06 480.69 593.16 428.75 546.25 C 376.81 499.34 296.23 500.84 244.08 547.08 C 191.93 593.33 184.35 674.23 225.00 730.00
M 345.00 577.00
C 397.59 583.36 427.16 648.04 395.23 691.23 C 363.30 734.42 296.70 729.01 272.08 680.92 C 247.45 632.84 288.14 570.13 345.00 577.00 Z"/>
</g>
<g fill="#000000" fill-opacity="0.00" stroke="None">
<path d="
M 625.00 730.00
C 676.62 801.55 796.06 805.26 847.00 731.00
C 885.75 674.52 881.54 593.55 828.75 546.25 C 775.96 498.95 696.59 500.72 643.75 546.75 C 590.92 592.78 584.91 674.43 625.00 730.00
M 745.00 577.00
C 798.20 583.43 826.54 649.80 794.23 692.23 C 761.92 734.66 695.72 728.95 671.23 680.77 C 646.73 632.59 688.83 570.21 745.00 577.00 Z"/>
</g>
<g fill="#7920CB" fill-opacity="0.38" stroke="None">
<path d="
M 0.00 569.00
C 0.50 569.00 1.00 569.00 1.00 569.00
C 1.00 564.67 1.00 560.33 1.00 556.00
C 1.00 556.00 0.50 556.00 0.00 556.00
L 0.00 569.00 Z"/>
</g>
<g fill="#7A1FCC" fill-opacity="0.75" stroke="None">
<path d="
M 0.00 590.00
C 1.83 583.99 1.00 575.83 1.00 569.00
C 1.00 569.00 0.50 569.00 0.00 569.00
L 0.00 590.00 Z"/>
</g>
<g fill="#811FCB" fill-opacity="0.99" stroke="None">
<path d="
M 345.00 577.00
C 288.14 570.13 247.45 632.84 272.08 680.92 C 296.70 729.01 363.30 734.42 395.23 691.23 C 427.16 648.04 397.59 583.36 345.00 577.00 Z"/>
</g>
<g fill="#811FCB" fill-opacity="0.99" stroke="None">
<path d="
M 745.00 577.00
C 688.83 570.21 646.73 632.59 671.23 680.77 C 695.72 728.95 761.92 734.66 794.23 692.23 C 826.54 649.80 798.20 583.43 745.00 577.00 Z"/>
</g>
<g fill="#7E1FCB" fill-opacity="0.50" stroke="None">
<path d="
M 0.00 628.00
C 0.00 628.00 1.00 628.04 1.00 628.00
C 1.00 619.82 1.82 610.42 0.00 603.00
L 0.00 628.00 Z"/>
</g>
<g fill="#931FCC" fill-opacity="1.00" stroke="None">
<path d="
M 12.00 731.00
C 9.27 745.22 21.60 743.39 32.00 743.00 C 42.40 742.61 53.53 743.29 64.00 743.00
C 65.22 771.15 72.01 803.47 87.08 826.92 C 102.15 850.37 114.30 866.83 138.92 882.08 C 163.55 897.32 187.80 907.00 219.33 908.67 C 250.86 910.34 291.57 908.22 325.00 908.00 C 358.43 907.78 395.73 906.58 430.00 906.00 C 464.27 905.42 501.26 905.01 536.00 905.00 C 570.74 904.99 607.72 905.42 642.00 906.00 C 676.28 906.58 713.55 907.73 747.00 908.00 C 780.45 908.27 821.08 910.25 852.78 908.78 C 884.48 907.31 907.60 896.41 932.30 881.30 C 957.01 866.20 969.22 849.87 984.25 826.25 C 999.28 802.63 1006.23 771.22 1008.00 743.00
C 1025.00 743.00 1042.00 743.00 1059.00 743.00
C 1058.90 739.18 1060.43 735.60 1061.00 732.00
C 1051.36 730.03 1041.13 731.21 1031.00 731.00 C 1020.87 730.79 1010.19 731.05 1000.00 731.00 C 989.81 730.95 979.14 730.91 969.00 731.00 C 958.86 731.09 949.07 730.70 939.00 731.00 C 928.93 731.30 917.95 730.31 908.00 731.00 C 898.05 731.69 886.56 729.47 877.00 731.00 C 867.44 732.53 855.70 727.46 847.00 731.00
C 796.06 805.26 676.62 801.55 625.00 730.00
C 614.19 732.16 601.68 730.57 590.00 731.00 C 578.32 731.44 565.68 730.55 554.00 731.00 C 542.32 731.45 530.57 730.23 519.00 731.00 C 507.43 731.77 494.30 729.44 483.00 731.00 C 471.70 732.56 458.62 727.50 448.00 731.00
C 395.55 804.43 277.48 802.00 225.00 730.00
C 222.64 734.17 209.23 729.73 204.00 731.00 C 198.77 732.27 189.32 730.46 183.00 731.00 C 176.68 731.54 167.74 730.75 161.00 731.00 C 154.26 731.25 146.91 730.91 140.00 731.00 C 133.09 731.09 126.02 731.01 119.00 731.00 C 111.98 730.99 104.03 731.11 97.00 731.00 C 89.97 730.89 82.92 731.29 76.00 731.00 C 69.08 730.71 60.67 731.64 54.00 731.00 C 47.33 730.36 39.01 732.48 33.00 731.00 C 26.99 729.52 16.70 734.32 12.00 731.00 Z"/>
</g>
</svg>