<svg xmlns="http://www.w3.org/2000/svg" xmlns:xlink="http://www.w3.org/1999/xlink" width="1000" zoomAndPan="magnify" viewBox="0 0 750 749.999995" height="1000" preserveAspectRatio="xMidYMid meet" version="1.0"><path fill="#00d263" d="M 602.984375 155.953125 C 603.007812 155.933594 603.042969 155.910156 603.070312 155.882812 L 379.007812 26.429688 L 341.214844 48.140625 C 339.253906 49.078125 337.308594 50.074219 335.40625 51.167969 L 95.050781 189.542969 L 201.859375 251.222656 C 209.964844 255.902344 219.964844 255.914062 228.082031 251.238281 L 281.773438 220.328125 L 351.722656 180.054688 C 368.105469 170.625 388.273438 170.625 404.65625 180.054688 L 459.675781 211.730469 L 527.414062 250.726562 C 535.515625 255.394531 545.484375 255.394531 553.597656 250.738281 L 660.691406 189.171875 Z M 602.984375 155.953125 " fill-opacity="1" fill-rule="nonzero"/><path fill="#ff502e" d="M 586.3125 303.273438 C 578.179688 307.960938 573.167969 316.632812 573.167969 326.019531 L 573.167969 467.78125 C 573.167969 486.667969 563.058594 504.117188 546.667969 513.558594 L 421.332031 585.71875 C 413.191406 590.402344 408.175781 599.074219 408.175781 608.46875 L 408.175781 731.523438 L 650.328125 592.113281 C 650.667969 591.921875 650.976562 591.707031 651.308594 591.507812 L 693.15625 567.410156 L 693.15625 241.753906 Z M 586.3125 303.273438 " fill-opacity="1" fill-rule="nonzero"/><path fill="#0062ff" d="M 331.300781 585.710938 L 209.710938 515.710938 C 193.3125 506.269531 183.210938 488.820312 183.210938 469.933594 L 183.210938 328.089844 C 183.210938 318.703125 178.195312 310.03125 170.058594 305.34375 L 63.265625 243.847656 L 63.21875 243.644531 L 63.21875 243.820312 L 63.222656 520.367188 L 63.222656 569.300781 L 100.722656 590.929688 C 102.425781 592.085938 104.175781 593.199219 105.972656 594.234375 L 344.449219 731.53125 L 344.449219 608.460938 C 344.449219 599.070312 339.4375 590.398438 331.300781 585.710938 " fill-opacity="1" fill-rule="nonzero"/></svg>