<svg width="18" height="18" viewBox="0 0 18 18" fill="none" xmlns="http://www.w3.org/2000/svg">
<g id="icon">
<path id="Vector" d="M11.1213 10.6287C10.5587 10.0661 9.79565 9.75 9 9.75M9 9.75C8.20435 9.75 7.44129 10.0661 6.87868 10.6287C6.31607 11.1913 6 11.9544 6 12.75M9 9.75C10.2426 9.75 11.25 8.74264 11.25 7.5C11.25 6.25736 10.2426 5.25 9 5.25C7.75736 5.25 6.75 6.25736 6.75 7.5C6.75 8.74264 7.75736 9.75 9 9.75ZM15.75 8.25V3.75C15.75 2.92157 15.0784 2.25 14.25 2.25H3.75C2.92157 2.25 2.25 2.92157 2.25 3.75V14.25C2.25 15.0784 2.92157 15.75 3.75 15.75H6.75M15.75 11.25L12.375 14.625M15 12L15.75 12.75M12.75 15.75C12.75 16.5784 12.0784 17.25 11.25 17.25C10.4216 17.25 9.75 16.5784 9.75 15.75C9.75 14.9216 10.4216 14.25 11.25 14.25C12.0784 14.25 12.75 14.9216 12.75 15.75Z" stroke="#B45309" stroke-width="1.25" stroke-linecap="round" stroke-linejoin="round"/>
</g>
</svg>
