<svg width="180" height="181" viewBox="0 0 180 181" fill="none" xmlns="http://www.w3.org/2000/svg">
<path fill-rule="evenodd" clip-rule="evenodd" d="M32.0524 0.919922H147.948C165.65 0.919922 180 15.2703 180 32.9723V148.867C180 166.57 165.65 180.92 147.948 180.92H32.0524C14.3504 180.92 0 166.57 0 148.867V32.9723C0 15.2703 14.3504 0.919922 32.0524 0.919922ZM119.562 82.8879H85.0826C82.4732 82.8879 80.3579 85.0032 80.3579 87.6126V94.2348C80.3579 96.8442 82.4732 98.9595 85.0826 98.9595H119.562C122.171 98.9595 124.286 96.8442 124.286 94.2348V87.6126C124.286 85.0032 122.171 82.8879 119.562 82.8879ZM85.0826 49.1346H127.061C129.67 49.1346 131.785 51.2499 131.785 53.8593V60.4815C131.785 63.0909 129.67 65.2062 127.061 65.2062H85.0826C82.4732 65.2062 80.3579 63.0909 80.3579 60.4815V53.8593C80.3579 51.2499 82.4732 49.1346 85.0826 49.1346ZM131.785 127.981V121.358C131.785 118.75 129.669 116.634 127.061 116.634H76.5706C69.7821 116.634 64.2863 111.138 64.2863 104.349V53.8593C64.2863 51.2513 62.1697 49.1346 59.5616 49.1346H52.9395C50.3314 49.1346 48.2147 51.2513 48.2147 53.8593V114.199C48.8497 124.133 56.7873 132.07 66.7205 132.705H127.061C129.669 132.705 131.785 130.589 131.785 127.981Z" fill="#316BFF"/>
<path d="M85.0826 49.1346H127.061C129.67 49.1346 131.785 51.2499 131.785 53.8593V60.4815C131.785 63.0909 129.67 65.2062 127.061 65.2062H85.0826C82.4732 65.2062 80.3579 63.0909 80.3579 60.4815V53.8593C80.3579 51.2499 82.4732 49.1346 85.0826 49.1346Z" fill="white"/>
<path d="M85.0826 82.8879H119.562C122.171 82.8879 124.286 85.0032 124.286 87.6126V94.2348C124.286 96.8442 122.171 98.9595 119.562 98.9595H85.0826C82.4732 98.9595 80.3579 96.8442 80.3579 94.2348V87.6126C80.3579 85.0032 82.4732 82.8879 85.0826 82.8879Z" fill="white"/>
<path d="M131.785 121.358V127.981C131.785 130.589 129.669 132.705 127.061 132.705H66.7205C56.7873 132.07 48.8497 124.133 48.2147 114.199V53.8593C48.2147 51.2513 50.3314 49.1346 52.9395 49.1346H59.5616C62.1697 49.1346 64.2863 51.2513 64.2863 53.8593V104.349C64.2863 111.138 69.7821 116.634 76.5706 116.634H127.061C129.669 116.634 131.785 118.75 131.785 121.358Z" fill="white"/>
</svg>
