<?xml version="1.0" encoding="utf-8"?>
<!-- Generator: Adobe Illustrator 28.0.0, SVG Export Plug-In . SVG Version: 6.00 Build 0)  -->
<svg version="1.1" id="Слой_1" xmlns="http://www.w3.org/2000/svg" xmlns:xlink="http://www.w3.org/1999/xlink" x="0px" y="0px" width="24" height="24"
	 viewBox="0 0 1000 1000" enable-background="new 0 0 1000 1000" xml:space="preserve">
<circle cx="500" cy="500" r="500"/>
<g>
	<path fill="#FFFFFF" d="M893.4425049,374.6480103c-23.168457-73.6956787-67.3317261-140.4063416-126.6998291-189.7776031
		c-30.1660767-23.601944-69.263916-33.2353058-106.6690674-34.9211273c-6.9996338,0-14.7218018,0-21.4799805,0
		c-102.3239136,5.0574646-198.1331787,53.2246857-278.9812622,113.6742554c-0.7224731,0.4815674-0.7224731,1.4449158,0,2.1674194
		c33.3056641,36.6062927,64.6771851,75.1405945,95.0847778,114.3973389
		c0.4830017,0.7224426,1.4490662,0.7224426,1.9320679,0.2394409
		c65.1602173-46.7208557,133.2165527-89.8308105,206.3404541-123.547699c0.7224731-0.2408752,1.4470215,0,1.9299927,0.7226562
		c23.168457,45.0361023-54.059021,118.0092773-85.6741333,144.2595825
		C508.514679,459.6636963,427.427124,516.0180664,333.7914124,523.4842529
		c-17.1348267,1.4449463-34.5111694-0.7224731-50.9225159-4.8157349
		c-43.1987152-11.0785217-77.2264557-47.6868896-90.9826202-89.3504639
		c-6.7573242-21.4345703-6.7575378-44.555542-2.6547546-66.4710388
		c7.7225494-39.7377014,27.7532349-78.0300293,55.5066528-111.7469025
		c62.9887238-83.08815,175.691391-138.4802399,304.5628052-138.4802399s99.1884155,8.6700058,142.8687134,24.0835114
		c0.4830322-1.2042542,0.4830322-0.7224731,1.2075806-2.6491852
		c-54.3005981-28.4185715-115.5987549-44.3136673-176.6553345-46.722023c-13.2748413,0-26.7890625-0.481636-39.5787964,0.4817047
		C258.4943237,99.1331253,79.907608,286.7436829,87.3889465,506.3845215v0.4830017v0.480957
		c0,2.1673889,0.0002289,4.3348389,0.2415695,6.5022278c0,1.4448853,0,3.1313477,0,4.3347778
		c0,3.3728638,0.4827805,6.9852295,0.7241135,10.3560791c0,0.7224121-0.000351,1.6864014,0.2409821,2.4088745
		c0,0.7224731-0.0001221,1.6864014,0.4825439,2.4089355c0,0,0,0.2393799,0,0.480896
		c6.2746658,110.062561,65.8843231,204.7097168,180.7589111,221.8094482
		c27.2716675,3.6123657,54.7831726,3.3708496,82.0531311,1.9259033
		c146.4892883-10.595459,299.7367554-87.9034424,392.4085083-201.8198242
		c41.5087891-52.5005798,72.1578369-116.3232422,76.0198975-183.756134
		c0.4830933-4.5763245,0.2415161-9.1526489,0.4830933-13.4874268c0,0,0-0.2415161,0-0.480957c0-0.4830017,0.480957,0,0.7224731,0
		c0.7244873,0.7224426,1.6904907,1.4449463,2.4129639,2.1673889
		c46.8199463,51.5386658,75.7805176,117.5266724,82.5366211,186.6459961c1.9321289,0,1.4490967,0,3.3790894,0
		c6.9996338-58.0408325,1.6884766-117.5266113-15.9272461-173.4000854L893.4425049,374.6480103z"/>
	<path fill="#FFFFFF" d="M468.4591064,858.1181641c-105.2199707,0-202.4779358-32.5130615-281.635437-87.9035034
		c75.7788544,87.4225464,187.758194,142.5735474,312.526001,142.5735474
		c194.5147095,0,357.6558228-134.3869629,401.5796509-315.0117188
		C822.2548218,751.9094849,658.1477051,858.1181641,468.4591064,858.1181641z"/>
</g>
</svg>
