<?xml version="1.0" encoding="UTF-8"?>
<svg version="1.1" xmlns="http://www.w3.org/2000/svg" width="180" height="180">
<path d="M0 0 C1.53741858 1.14472235 3.05906756 2.31099368 4.5625 3.5 C5.30628906 4.08007812 6.05007812 4.66015625 6.81640625 5.2578125 C15.95115701 12.85157053 23.40316735 22.82277104 28.5625 33.5 C28.90667969 34.1909375 29.25085938 34.881875 29.60546875 35.59375 C32.6331554 41.99713326 34.59641045 48.70955628 36.5625 55.5 C37.08021973 57.06028931 37.08021973 57.06028931 37.60839844 58.65209961 C38.6862006 62.99888567 38.81721523 66.82784732 38.7578125 71.27734375 C38.7549826 72.08869278 38.75215271 72.90004181 38.74923706 73.73597717 C38.73812663 76.30330753 38.71303971 78.87027678 38.6875 81.4375 C38.67745836 83.18814597 38.66833459 84.93879746 38.66015625 86.68945312 C38.63992683 90.95988327 38.60076194 95.22954194 38.5625 99.5 C32.2925 99.5 26.0225 99.5 19.5625 99.5 C19.51351562 97.41300781 19.46453125 95.32601562 19.4140625 93.17578125 C19.35972756 91.10695494 19.30254956 89.03822481 19.24511719 86.96948242 C19.20732947 85.55484477 19.17239934 84.14012728 19.140625 82.7253418 C18.59050649 58.51153197 13.70068386 37.8364927 -4.1875 20.625 C-20.87150635 6.60416837 -40.08945897 2.25238721 -61.4375 3.5 C-78.6546237 5.80165759 -95.26173321 14.09703414 -106.4375 27.5 C-122.75290522 49.37869094 -122.76955596 73.32714009 -123.4375 99.5 C-129.3775 99.5 -135.3175 99.5 -141.4375 99.5 C-141.5302423 94.07715159 -141.60959358 88.65714599 -141.65722656 83.23413086 C-141.67711918 81.39646999 -141.70424332 79.55887049 -141.73925781 77.72143555 C-142.03958057 61.53492215 -140.04969252 48.06338233 -132.4375 33.5 C-131.94636719 32.54738281 -131.45523438 31.59476563 -130.94921875 30.61328125 C-120.33200042 11.22862249 -104.57018994 -1.84123716 -84.4375 -10.5 C-83.77363281 -10.80341309 -83.10976562 -11.10682617 -82.42578125 -11.41943359 C-54.86884487 -23.76542081 -24.0727209 -16.27137617 0 0 Z " fill="#1BD0EF" transform="translate(141.4375,20.5)"/>
<path d="M0 0 C6.93 0 13.86 0 21 0 C21.99 4.455 21.99 4.455 23 9 C25.76345071 12.49067458 27.65343155 14.26068588 32 15 C34.30965161 15.10285181 36.62174796 15.15485071 38.93359375 15.17578125 C40.31967604 15.19901573 41.70574373 15.22313443 43.09179688 15.24804688 C45.25033842 15.28281109 47.40835428 15.31231623 49.56713867 15.32592773 C64.03328588 15.43469576 76.79455408 17.70560852 87.89453125 27.70703125 C93.7524881 33.76918703 99 42.45672707 99 51 C96.91780951 51.81542431 94.83420239 52.62723189 92.75 53.4375 C91.58984375 53.88996094 90.4296875 54.34242188 89.234375 54.80859375 C86.81033692 55.70150633 84.51713525 56.45794365 82 57 C81.38125 55.39125 81.38125 55.39125 80.75 53.75 C78.56451367 48.77751735 76.46569332 46.63787733 71.3828125 44.42578125 C64.31753827 42.14826264 56.84881808 42.499833 49.5 42.4375 C24.82029027 42.16835578 24.82029027 42.16835578 16 34 C14.19688625 32.06559156 12.6058379 30.10766225 11 28 C9.948125 29.0828125 9.948125 29.0828125 8.875 30.1875 C0.28010803 38.70996311 -7.32500674 42.07155973 -19.35546875 42.17578125 C-20.79754042 42.19899323 -22.23959773 42.22311112 -23.68164062 42.24804688 C-25.92823741 42.28297819 -28.17430865 42.3124207 -30.42114258 42.32592773 C-40.2980201 42.39673363 -49.28684123 42.71513092 -57.5 48.875 C-59.32439131 51.45955435 -60.17110399 53.96071463 -61 57 C-64.73654172 56.19534869 -68.19422782 54.82425115 -71.75 53.4375 C-72.92046875 52.98246094 -74.0909375 52.52742188 -75.296875 52.05859375 C-76.63492188 51.53458984 -76.63492188 51.53458984 -78 51 C-77.35520577 41.1131551 -72.27910682 33.35210323 -65.59375 26.265625 C-53.66547683 15.84635024 -39.65887066 15.67235147 -24.76049805 15.54370117 C-22.64073166 15.52190717 -20.52181176 15.48248904 -18.40234375 15.44140625 C-17.14929443 15.42795166 -15.89624512 15.41449707 -14.60522461 15.40063477 C-9.64987615 14.84996592 -5.42564475 13.7107737 -2.125 9.75 C-0.62380915 6.39945809 -0.62380915 6.39945809 0 0 Z " fill="#1BD0EF" transform="translate(79,114)"/>
<path d="M0 0 C5.1665625 -0.061875 5.1665625 -0.061875 10.4375 -0.125 C11.50411865 -0.14320801 12.5707373 -0.16141602 13.66967773 -0.18017578 C28.25722164 -0.26384936 39.77878578 4.35438228 50.453125 14.4609375 C50.96359375 14.96882813 51.4740625 15.47671875 52 16 C51.31238981 19.65564909 49.74550455 22.51867272 47.9375 25.75 C47.38964844 26.73484375 46.84179688 27.7196875 46.27734375 28.734375 C45.64505859 29.85585937 45.64505859 29.85585937 45 31 C40.49812909 29.24972469 36.17009543 27.20813963 31.81640625 25.12109375 C25.20987398 22.49130906 18.14341037 22.70112256 11.125 22.4375 C10.05507812 22.39431641 8.98515625 22.35113281 7.8828125 22.30664062 C5.25534097 22.20107257 2.62768622 22.10008205 0 22 C0 14.74 0 7.48 0 0 Z " fill="#1BD0EF" transform="translate(98,74)"/>
<path d="M0 0 C4.31029386 2.32092746 7.19652553 4.39112079 9 9 C9.54454427 13.58324763 9.58720242 17.57835205 7.8125 21.875 C4.62007495 25.61784316 1.98395729 28.06403525 -2.9375 28.9375 C-7.02358619 29.26069326 -9.54661782 28.2760928 -13 26 C-16.2995009 23.1463776 -17.7730975 21.16115335 -18.23828125 16.73046875 C-18.4067835 10.95704954 -18.1063114 7.42218151 -14 3 C-9.36716402 -0.7727798 -5.91581188 -1.72096346 0 0 Z " fill="#1BD0EF" transform="translate(56,72)"/>
</svg>
