<svg xmlns="http://www.w3.org/2000/svg" viewBox="0 0 24 24" id="wolfram-mathematica"><path fill="#D71000" d="M15.769 10.7c-.534-1.53.141-4 .141-4S13.613 8.01 11.93 8C10.246 7.99 8.1 6.7 8.1 6.7s.564 2.46.07 4.04c-.484 1.58-2.489 3.34-2.489 3.34s2.6.23 3.88 1.1c1.28.87 2.439 3.46 2.439 3.46s.786-2.35 2.338-3.41c1.552-1.07 3.991-1.15 3.991-1.15s-2.016-1.84-2.56-3.37v-.01zm.645 2.7s-1.572.17-2.661.99c-1.099.81-1.764 2.19-1.764 2.19s-.766-1.43-1.814-2.22c-1.058-.79-2.59-.97-2.59-.97a5.068 5.068 0 0 0 1.533-2.334l.009-.036c.464-1.54.181-2.73.181-2.73s.927.7 2.641.7 2.812-.7 2.812-.7-.383 1.58.07 2.7c.444 1.14 1.583 2.41 1.583 2.41z"></path><path fill="#D71000" d="m18.612 7.23.504-4.94-4.596 2L12 0 9.48 4.29l-4.586-2 .494 4.95L.5 8.29 3.826 12 .51 15.7l4.888 1.07-.504 4.94 4.586-2L12 24l2.52-4.29 4.596 2-.504-4.94 4.888-1.06L20.174 12h-.01L23.5 8.3l-4.888-1.07zm1.814 7.5s-4.737.62-5.584 1.22h.01c-.836.61-2.852 4.86-2.852 4.86s-1.512-3.86-3.024-4.86c-1.492-1-5.422-1.22-5.422-1.22s3.014-2.37 3.598-4.47c.595-2.1-.373-5.37-.373-5.37s2.923 2.1 5.12 2.1c2.187 0 5.301-2.1 5.301-2.1s-.827 4.5-.534 5.46c.303.96 3.76 4.38 3.76 4.38z"></path><path fill="#D71000" d="M13.744 9.6s-.958.38-1.784.37c-.826 0-1.713-.37-1.713-.37.05.58 0 1.15-.171 1.7-.272.86-.917 1.64-.917 1.64a4.28 4.28 0 0 1 2.831 1.99l.01.02s.454-.85 1.189-1.33a5.975 5.975 0 0 1 1.643-.7s-.746-.78-1.028-1.57c-.282-.78-.06-1.75-.06-1.75z"></path></svg>