<?xml version="1.0" encoding="utf-8"?>
<!-- Generator: Adobe Illustrator 24.3.0, SVG Export Plug-In . SVG Version: 6.00 Build 0)  -->
<svg version="1.0" id="katman_1" xmlns="http://www.w3.org/2000/svg" xmlns:xlink="http://www.w3.org/1999/xlink" x="0px" y="0px"
	 viewBox="0 0 841.89 595.28" style="enable-background:new 0 0 841.89 595.28;" xml:space="preserve">
<style type="text/css">
	.st0{fill-rule:evenodd;clip-rule:evenodd;fill:#505AA5;}
</style>
<path class="st0" d="M349.6,124.45c48.94-54.99,129.98-71.12,196.61-39.38c88.52,42.17,120.82,149.6,72.62,232.48L510.41,503.76
	c-6.06,10.41-16.03,18-27.72,21.11c-11.69,3.11-24.15,1.49-34.64-4.51l131.26-225.49c34.97-60.15,11.58-138.11-52.6-168.8
	c-48.16-23.03-107.02-11.53-142.6,28.08c-19.62,21.74-30.64,49.82-31.01,79.01c-0.37,29.2,9.94,57.53,29.01,79.76
	c3.43,3.99,7.12,7.75,11.04,11.25l-76.63,131.88c-3,5.16-6.99,9.67-11.74,13.3c-4.76,3.62-10.18,6.28-15.97,7.82
	c-5.79,1.54-11.83,1.93-17.77,1.16c-5.94-0.78-11.67-2.71-16.87-5.68l83.19-143.17c-11.95-17.11-20.53-36.31-25.29-56.58
	L261.1,360.8c-6.06,10.41-16.03,18-27.72,21.11c-11.69,3.11-24.15,1.49-34.64-4.51l131.83-226.76
	C336.06,141.32,342.43,132.55,349.6,124.45z M501.76,196.63c31.75,18.21,42.71,58.7,24.34,90.22L399.69,503.74
	c-6.06,10.41-16.03,18-27.72,21.11c-11.69,3.11-24.15,1.49-34.64-4.51l117.38-201.93c-9.42-1.97-18.29-5.94-26.01-11.65
	c-7.72-5.71-14.1-13.01-18.7-21.4c-4.6-8.4-7.31-17.68-7.95-27.22c-0.64-9.54,0.82-19.1,4.27-28.02c3.45-8.92,8.8-17,15.7-23.67
	c6.9-6.67,15.17-11.77,24.24-14.95c9.08-3.18,18.74-4.37,28.32-3.49S493.43,191.83,501.76,196.63z M455.78,237.39
	c-2.17,1.66-4,3.72-5.36,6.08h-0.01c-2.06,3.55-3.02,7.62-2.75,11.71c0.27,4.09,1.76,8,4.27,11.25c2.51,3.25,5.94,5.69,9.84,7
	c3.91,1.32,8.12,1.45,12.1,0.39c3.99-1.06,7.56-3.27,10.28-6.35c2.72-3.08,4.46-6.89,5-10.95c0.54-4.06-0.15-8.19-1.97-11.87
	c-1.82-3.67-4.71-6.73-8.28-8.78c-2.37-1.36-4.99-2.24-7.71-2.6c-2.72-0.35-5.48-0.18-8.12,0.53
	C460.43,234.52,457.95,235.73,455.78,237.39z"/>
</svg>
