<?xml version="1.0" encoding="UTF-8"?>
<svg version="1.1" xmlns="http://www.w3.org/2000/svg" width="20" height="20" viewBox="0 0 204 204">
<path d="M0 0 C67.32 0 134.64 0 204 0 C204 67.32 204 134.64 204 204 C136.68 204 69.36 204 0 204 C0 136.68 0 69.36 0 0 Z " fill="#FEFEFE" transform="translate(0,0)"/>
<path d="M0 0 C5.94 0 11.88 0 18 0 C18 10.89 18 21.78 18 33 C18.66 33 19.32 33 20 33 C20.24234375 32.14792969 20.4846875 31.29585937 20.734375 30.41796875 C22.11964306 26.67688989 24.02987843 23.59045773 26.25 20.3125 C29.73568617 15.04848855 32.89614328 9.71853886 35.80859375 4.109375 C37 2 37 2 39 0 C40.87939453 -0.22705078 40.87939453 -0.22705078 43.1328125 -0.1953125 C44.34130859 -0.18564453 44.34130859 -0.18564453 45.57421875 -0.17578125 C46.83685547 -0.15064453 46.83685547 -0.15064453 48.125 -0.125 C49.39923828 -0.11146484 49.39923828 -0.11146484 50.69921875 -0.09765625 C52.79959884 -0.07405647 54.89983444 -0.03818483 57 0 C55.32735849 3.66388141 53.11876945 6.83032936 50.8125 10.125 C50.21791992 10.98170288 50.21791992 10.98170288 49.61132812 11.85571289 C47.73634107 14.55194728 45.83715666 17.22063617 43.88671875 19.86328125 C43.26410156 20.71277344 42.64148438 21.56226562 42 22.4375 C41.443125 23.17871094 40.88625 23.91992188 40.3125 24.68359375 C38.68644552 27.55338632 38.19715491 29.70709357 38 33 C38.72730772 35.84774562 38.72730772 35.84774562 40.0625 38.625 C40.52785156 39.67042969 40.99320313 40.71585938 41.47265625 41.79296875 C43.41717971 45.8759707 45.46927987 49.89913453 47.52734375 53.92578125 C49.54874246 58.14551809 51.14232881 62.4899921 52.765625 66.875 C54.28546336 70.72269204 56.11825874 74.33905157 58.08203125 77.9765625 C59 80 59 80 59 83 C53.06 83 47.12 83 41 83 C35.99024735 73.59144014 32.29291987 64.02479759 28.72460938 54.00048828 C27.87107148 51.6440565 26.95492901 49.31710715 26 47 C22.12218785 48.47089427 20.81322634 50.31761884 19 54 C18.51643732 57.16823162 18.51643732 57.16823162 18.5234375 60.578125 C18.4925 61.82078125 18.4615625 63.0634375 18.4296875 64.34375 C18.41164063 65.6328125 18.39359375 66.921875 18.375 68.25 C18.32425318 70.81778924 18.26977871 73.38550849 18.2109375 75.953125 C18.18459229 77.65710449 18.18459229 77.65710449 18.15771484 79.39550781 C18 82 18 82 17 83 C14.3226862 83.09981214 11.67695825 83.13879875 9 83.125 C7.87464844 83.13080078 7.87464844 83.13080078 6.7265625 83.13671875 C1.12661053 83.12661053 1.12661053 83.12661053 0 82 C-0.09506052 79.44410112 -0.12556761 76.91532028 -0.11352539 74.35913086 C-0.11367142 73.55919205 -0.11381744 72.75925323 -0.1139679 71.93507385 C-0.11326855 69.27830335 -0.10547518 66.62160207 -0.09765625 63.96484375 C-0.09579215 62.12781309 -0.09436821 60.29078194 -0.09336853 58.45375061 C-0.08954275 53.60890338 -0.07971196 48.76408592 -0.06866455 43.91925049 C-0.05845172 38.97937422 -0.05387119 34.03949315 -0.04882812 29.09960938 C-0.03808974 19.39972437 -0.02049246 9.69986931 0 0 Z " fill="#030303" transform="translate(60,74)"/>
<path d="M0 0 C4.31248609 -0.02886537 8.62494762 -0.04675255 12.9375 -0.0625 C14.16919922 -0.07087891 15.40089844 -0.07925781 16.66992188 -0.08789062 C17.83974609 -0.09111328 19.00957031 -0.09433594 20.21484375 -0.09765625 C21.84087524 -0.10551147 21.84087524 -0.10551147 23.49975586 -0.11352539 C26 0 26 0 27 1 C27.08748207 2.92667507 27.10697334 4.85651861 27.09765625 6.78515625 C27.09443359 7.95498047 27.09121094 9.12480469 27.08789062 10.33007812 C27.07951172 11.56177734 27.07113281 12.79347656 27.0625 14.0625 C27.05798828 15.29806641 27.05347656 16.53363281 27.04882812 17.80664062 C27.03699608 20.87114117 27.02051173 23.93554721 27 27 C22.52866839 27 22.15396799 26.68358611 19.0625 23.8125 C18.41410156 23.22082031 17.76570313 22.62914063 17.09765625 22.01953125 C12.62902963 17.71733393 8.36079023 13.27310461 4.1875 8.6875 C3.68541016 8.13771484 3.18332031 7.58792969 2.66601562 7.02148438 C1.44296032 5.68194761 0.22132992 4.34111008 -1 3 C-0.67 2.01 -0.34 1.02 0 0 Z " fill="#EB3927" transform="translate(118,47)"/>
<path d="M0 0 C8.58 0 17.16 0 26 0 C25.67 0.66 25.34 1.32 25 2 C21.22921314 2.16772931 17.45836341 2.33400125 13.6875 2.5 C12.61564453 2.54769531 11.54378906 2.59539063 10.43945312 2.64453125 C8.89741211 2.71220703 8.89741211 2.71220703 7.32421875 2.78125 C5.9024231 2.8440918 5.9024231 2.8440918 4.4519043 2.90820312 C2.63561776 2.9762031 0.81755902 3 -1 3 C-0.67 2.01 -0.34 1.02 0 0 Z " fill="#E74031" transform="translate(118,47)"/>
</svg>
