<?xml version="1.0" encoding="utf-8"?>
<!-- Generator: Adobe Illustrator 25.0.0, SVG Export Plug-In . SVG Version: 6.00 Build 0)  -->
<svg version="1.1" xmlns="http://www.w3.org/2000/svg" xmlns:xlink="http://www.w3.org/1999/xlink" x="0px" y="0px"
	 viewBox="0 0 345.07 345.07" style="enable-background:new 0 0 345.07 345.07;" xml:space="preserve">
<style type="text/css">
	.st0{fill:#F5F5F5;}
	.st1{fill:#E8EDC5;}
	.st2{fill:#FFFFFF;}
	.st3{fill:#85BAC6;}
	.st4{fill:#F6E1DC;}
	.st5{fill:#080717;}
	.st6{fill:none;stroke:#080717;stroke-width:2;stroke-linecap:round;stroke-linejoin:round;stroke-miterlimit:10;}
	.st7{fill:#F2ECDE;}
	.st8{fill:#C7E1E0;}
	.st9{fill:#FCDEDE;}
	.st10{fill:#EFCBBF;}
	.st11{fill:#CEE1E7;}
	.st12{fill:#FDEDE0;}
	.st13{fill:#B9D2D7;}
	.st14{fill:#EDE6E4;}
	.st15{fill:#FDE3EC;}
	.st16{fill:#DDD6CC;}
	.st17{fill:#F3F3F3;}
	.st18{fill:#E0D5C1;}
	.st19{fill:none;stroke:#000000;stroke-width:2;stroke-linecap:round;stroke-linejoin:round;stroke-miterlimit:10;}
	.st20{fill:#E0E0E0;}
	.st21{fill:#DBDDC0;}
</style>
<g id="Layer_3">
</g>
<g id="_x3C_Layer_x3E_">
	<g>

			<ellipse transform="matrix(0.7071 -0.7071 0.7071 0.7071 -71.4658 172.5337)" class="st11" cx="172.53" cy="172.53" rx="172.53" ry="172.53"/>
		<path d="M39.92,235.73l54.91-134.06c22.11-53.99,88.92-73.05,136.19-38.86l13.32,9.63l29.61,28.62
			c30.68,29.65,32.82,78.11,4.88,110.35l-11.53,13.31c-15.78,18.21-38.73,28.62-62.82,28.52l-153.35-0.69
			C42.5,252.49,36.65,243.72,39.92,235.73z"/>
		<g>

				<rect x="163.1" y="160.29" transform="matrix(0.9811 -0.1935 0.1935 0.9811 -38.1958 41.2276)" class="st2" width="57.79" height="111.79"/>
			<path d="M174.46,278.75c-1,0-1.89-0.71-2.1-1.72l-21.63-109.68c-0.11-0.56,0.01-1.13,0.32-1.6c0.32-0.47,0.8-0.8,1.36-0.91
				l56.7-11.18c0.56-0.11,1.13,0.01,1.6,0.32c0.47,0.32,0.8,0.81,0.91,1.36l21.63,109.68c0.23,1.16-0.53,2.28-1.68,2.51l-56.7,11.18
				C174.73,278.74,174.59,278.75,174.46,278.75z M155.34,168.61l20.8,105.49l52.5-10.35l-20.8-105.49L155.34,168.61z"/>
		</g>
		<path class="st2" d="M95.75,135.87l6.81,40.84c4.12,24.71,30.69,38.66,53.37,28.02l31.52-14.79
			c24.25-11.38,32.36-41.9,16.95-63.81l-37.74-53.68l-38.09,11.15C105.97,90.2,91.88,112.65,95.75,135.87z"/>
		<path d="M147.17,63.41l15.7,41.8l-76.43,27.86l-3.13-25.65c-2.33-19.05,10.74-36.48,29.32-39.11L147.17,63.41z"/>

			<ellipse transform="matrix(0.982 -0.1891 0.1891 0.982 -21.3549 42.3381)" class="st2" cx="211.19" cy="133.08" rx="21.32" ry="21.32"/>
		<path d="M146.99,74.22l34.21,42.61c8.35,10.4,22.04,10.42,30.42,0.05l11.88-14.7L191.5,68.06c-10.06-10.73-26.99-11.07-37.48-0.75
			L146.99,74.22z"/>
		<g>
			<path class="st5" d="M29.51,243.9c-0.36,0-0.72-0.09-1.05-0.28c-1.03-0.58-1.39-1.89-0.8-2.91
				c27.1-47.65,64.82-138.93,65.2-139.85c0.45-1.09,1.71-1.61,2.79-1.16c1.09,0.45,1.61,1.7,1.16,2.79
				c-0.38,0.92-38.21,92.45-65.44,140.33C30.98,243.51,30.26,243.9,29.51,243.9z"/>
		</g>
		<g>
			<path class="st2" d="M191.52,173.55c0,0-8.29,18.47-31.03,31.74L191.52,173.55z"/>
			<path d="M160.49,207.42c-0.73,0-1.45-0.38-1.85-1.06c-0.59-1.02-0.25-2.33,0.77-2.92c21.89-12.77,30.08-30.59,30.16-30.77
				c0.48-1.08,1.75-1.56,2.82-1.07c1.08,0.48,1.56,1.75,1.07,2.82c-0.35,0.78-8.83,19.25-31.9,32.71
				C161.23,207.33,160.86,207.42,160.49,207.42z"/>
		</g>
		<g>
			<path d="M95.12,143.71c-0.48,0-0.97-0.16-1.37-0.5c-0.91-0.76-1.03-2.1-0.27-3.01c3.93-4.71,9.35-6.3,9.58-6.37
				c1.13-0.32,2.31,0.33,2.64,1.47c0.32,1.13-0.33,2.31-1.46,2.64c-0.1,0.03-4.44,1.35-7.48,5
				C96.34,143.45,95.73,143.71,95.12,143.71z"/>
		</g>
		<g>
			<path d="M128.52,131.63c-0.91,0-1.75-0.59-2.04-1.5c-0.35-1.13,0.28-2.32,1.4-2.68c1.24-0.39,12.37-3.72,18.64-0.58
				c1.06,0.53,1.48,1.81,0.96,2.87c-0.53,1.06-1.81,1.48-2.87,0.96c-4.02-2.01-12.52-0.07-15.46,0.84
				C128.94,131.6,128.73,131.63,128.52,131.63z"/>
		</g>
		<g>
			<path class="st2" d="M120.17,148.32l-2.3,3.91c-2.13,3.61,0.48,8.17,4.67,8.17h4.02L120.17,148.32z"/>
			<path d="M126.56,162.54h-4.02c-2.74,0-5.2-1.42-6.56-3.8c-1.36-2.38-1.35-5.22,0.04-7.58l2.3-3.91c0.59-1.02,1.91-1.36,2.92-0.76
				c1.02,0.6,1.36,1.91,0.76,2.93l-2.3,3.91c-0.6,1.03-0.61,2.26-0.02,3.29c0.59,1.04,1.66,1.65,2.85,1.65h4.02
				c1.18,0,2.14,0.96,2.14,2.14C128.7,161.58,127.74,162.54,126.56,162.54z"/>
		</g>
		<g>
			<path d="M130.17,190.96c-5.66,0-11.03-5.89-16.4-17.96c-0.29-0.64-0.24-1.39,0.13-1.99c0.37-0.6,1.01-0.98,1.71-1.02l27.71-1.42
				c0.69-0.05,1.34,0.26,1.77,0.79c0.43,0.53,0.58,1.24,0.4,1.9c-0.52,1.94-5.34,18.94-14.69,19.67
				C130.6,190.95,130.39,190.96,130.17,190.96z M119,174.1c5.47,11.21,9.54,12.75,11.48,12.57c4.43-0.34,8.19-8.48,10-13.67
				L119,174.1z"/>
		</g>
		<path d="M140.6,143c0,2.84-2.31,5.15-5.15,5.15c-2.84,0-5.15-2.31-5.15-5.15c0-2.84,2.31-5.15,5.15-5.15
			C138.29,137.84,140.6,140.15,140.6,143z"/>
		<path d="M112.32,149.43c0,2.84-2.31,5.15-5.15,5.15c-2.84,0-5.15-2.31-5.15-5.15c0-2.84,2.31-5.15,5.15-5.15
			C110.02,144.27,112.32,146.58,112.32,149.43z"/>
		<path class="st2" d="M278.26,260.44c-11.78-20.61-36.74-29.67-59-21.42l-49.53,18.37l-33.42,83.83
			c11.68,2.5,23.79,3.84,36.22,3.84c48.69,0,92.63-20.2,124-52.64L278.26,260.44z"/>
		<g>
			<path class="st2" d="M296.54,292.43l-18.28-31.99c-11.78-20.61-36.74-29.67-59-21.42l-49.53,18.37l-33.42,83.83L296.54,292.43z"
				/>
			<path d="M136.31,343.36c-0.27,0-0.53-0.05-0.79-0.15c-1.1-0.44-1.63-1.68-1.19-2.78l33.42-83.83c0.22-0.56,0.67-1,1.24-1.21
				l49.53-18.37c23.34-8.66,49.25,0.74,61.6,22.36l18.28,31.99c0.59,1.02,0.23,2.33-0.79,2.92c-1.03,0.59-2.33,0.23-2.92-0.8
				L276.4,261.5c-11.31-19.79-35.03-28.4-56.4-20.47l-48.63,18.04l-33.07,82.95C137.96,342.85,137.16,343.36,136.31,343.36z"/>
		</g>
		<path d="M211.19,154.39l-15.88,96.85c0,0,29.37,1.89,50.21-9.47C266.37,230.39,211.19,154.39,211.19,154.39z"/>
	</g>
</g>
</svg>
