<?xml version="1.0" encoding="utf-8"?>
<!-- Generator: Adobe Illustrator 25.0.0, SVG Export Plug-In . SVG Version: 6.00 Build 0)  -->
<svg version="1.1" xmlns="http://www.w3.org/2000/svg" xmlns:xlink="http://www.w3.org/1999/xlink" x="0px" y="0px"
	 viewBox="0 0 345.07 345.07" style="enable-background:new 0 0 345.07 345.07;" xml:space="preserve">
<style type="text/css">
	.st0{fill:#F5F5F5;}
	.st1{fill:#E8EDC5;}
	.st2{fill:#FFFFFF;}
	.st3{fill:#85BAC6;}
	.st4{fill:#F6E1DC;}
	.st5{fill:#080717;}
	.st6{fill:none;stroke:#080717;stroke-width:2;stroke-linecap:round;stroke-linejoin:round;stroke-miterlimit:10;}
	.st7{fill:#F2ECDE;}
	.st8{fill:#C7E1E0;}
	.st9{fill:#FCDEDE;}
	.st10{fill:#EFCBBF;}
	.st11{fill:#CEE1E7;}
	.st12{fill:#FDEDE0;}
	.st13{fill:#B9D2D7;}
	.st14{fill:#EDE6E4;}
	.st15{fill:#FDE3EC;}
	.st16{fill:#DDD6CC;}
	.st17{fill:#F3F3F3;}
	.st18{fill:#E0D5C1;}
	.st19{fill:none;stroke:#000000;stroke-width:2;stroke-linecap:round;stroke-linejoin:round;stroke-miterlimit:10;}
	.st20{fill:#E0E0E0;}
	.st21{fill:#DBDDC0;}
</style>
<g id="Layer_3">
</g>
<g id="_x3C_Layer_x3E_">
	<g>

			<ellipse transform="matrix(0.7071 -0.7071 0.7071 0.7071 -71.4658 172.5338)" class="st4" cx="172.53" cy="172.53" rx="172.53" ry="172.53"/>
		<path d="M16.25,245.65c27.52,58.72,87.14,99.41,156.28,99.41c51.08,0,96.96-22.21,128.55-57.49
			c-43.76-37.08-107.7-60.48-178.96-60.48C84.09,227.1,48.17,233.8,16.25,245.65z"/>
		<path class="st2" d="M205.59,238.35c-25.98-7.27-54.1-11.25-83.46-11.25c-8.09,0-16.08,0.33-23.96,0.92
			c2.93,36.87,23.17,65.72,49.66,67.55C173.6,297.34,197.02,272.95,205.59,238.35z"/>

			<rect x="121.92" y="182.19" transform="matrix(0.9639 0.2664 -0.2664 0.9639 64.1317 -34.1172)" class="st2" width="71.82" height="74.32"/>
		<path d="M189.01,241.37l13.34-48.26l-43.97-12.15l-18.6,12.62C145.6,215.08,162.81,232.47,189.01,241.37z"/>
		<path d="M180.62,197.34h21.73c34.62,0,62.68-28.06,62.68-62.68v-25.64c0-34.62-28.06-62.68-62.68-62.68h-21.73
			c-34.62,0-62.68,28.06-62.68,62.68v25.64C117.93,169.28,146,197.34,180.62,197.34z"/>
		<path d="M140.82,175.08h65.3c15.86,0,28.72-12.86,28.72-28.72v-46.12c0-33.39-27.07-60.46-60.46-60.46h0
			c-34.4,0-62.29,27.89-62.29,62.29v44.29C112.1,162.22,124.96,175.08,140.82,175.08z"/>
		<g>
			<path d="M106.62,94.49c-0.15,0-0.3-0.01-0.44-0.05c-1.16-0.24-1.89-1.38-1.65-2.53c4.01-18.92,13.17-33.1,27.21-42.14
				c14.72-9.47,34.81-12.61,53.76-8.41c1.15,0.25,1.88,1.4,1.62,2.55c-0.26,1.15-1.39,1.89-2.55,1.62
				c-17.85-3.96-36.74-1.03-50.52,7.83c-13.05,8.4-21.57,21.66-25.34,39.43C108.49,93.8,107.6,94.49,106.62,94.49z"/>
		</g>
		<g>
			<path class="st2" d="M122.97,132.79l-13.28-3.95c-8.11-2.41-12.73-10.94-10.32-19.05l0,0c2.41-8.11,10.94-12.73,19.05-10.32
				l13.28,3.95c8.11,2.41,12.73,10.94,10.32,19.05l0,0C139.6,130.58,131.07,135.2,122.97,132.79z"/>
			<path d="M127.35,135.57c-1.67,0-3.35-0.24-5-0.73l0,0l-13.28-3.95c-4.47-1.33-8.15-4.32-10.37-8.42
				c-2.22-4.1-2.71-8.82-1.38-13.29c1.33-4.47,4.32-8.15,8.42-10.37c4.1-2.22,8.82-2.71,13.29-1.38l13.28,3.95
				c4.47,1.33,8.15,4.32,10.37,8.42c2.22,4.1,2.71,8.82,1.38,13.29c-1.33,4.47-4.32,8.15-8.42,10.37
				C133.06,134.86,130.22,135.57,127.35,135.57z M123.58,130.75c3.37,1,6.94,0.63,10.03-1.04c3.09-1.68,5.35-4.46,6.35-7.83
				c1.01-3.38,0.63-6.94-1.04-10.03c-1.68-3.1-4.46-5.35-7.83-6.36l-13.28-3.95c-3.37-1-6.94-0.63-10.03,1.04
				c-3.09,1.68-5.35,4.46-6.35,7.83c-1.01,3.38-0.63,6.94,1.04,10.03c1.68,3.1,4.46,5.35,7.83,6.36L123.58,130.75z"/>
		</g>
		<g>
			<path class="st2" d="M237.31,162.21l13.86-0.26c8.46-0.16,15.19-7.14,15.03-15.6v0c-0.16-8.46-7.14-15.19-15.6-15.03l-13.86,0.26
				c-8.46,0.16-15.19,7.14-15.03,15.6v0C221.87,155.64,228.85,162.37,237.31,162.21z"/>
			<path d="M237.02,164.35c-9.48,0-17.27-7.62-17.45-17.13c-0.18-9.62,7.51-17.59,17.13-17.77l13.86-0.26
				c9.66-0.19,17.59,7.51,17.77,17.13c0.18,9.62-7.51,17.59-17.13,17.77l-13.86,0.26l0,0C237.24,164.35,237.13,164.35,237.02,164.35
				z M237.31,162.21h0.02H237.31z M250.88,133.46c-0.08,0-0.16,0-0.25,0l-13.86,0.26c-7.27,0.13-13.07,6.15-12.94,13.42
				c0.13,7.18,6.02,12.94,13.18,12.94c0.08,0,0.16,0,0.25,0l13.86-0.26c7.27-0.13,13.07-6.15,12.94-13.42
				C263.92,139.22,258.04,133.46,250.88,133.46z"/>
		</g>
		<path class="st2" d="M178.18,216.79L178.18,216.79c35.2,0,63.74-28.54,63.74-63.74V132.8c0-35.2-28.54-63.74-63.74-63.74h0
			c-35.2,0-63.74,28.54-63.74,63.74v20.25C114.44,188.25,142.98,216.79,178.18,216.79z"/>
		<path d="M245.07,130.82v0.11c-10.98-7.42-19.08-33.28-19.08-64.05v-0.11C236.96,74.19,245.07,100.05,245.07,130.82z"/>
		<g>
			<path d="M179.93,218.93c-14.72,0-29.1-5.11-40.49-14.39c-0.91-0.75-1.05-2.09-0.31-3.01c0.75-0.91,2.09-1.05,3.01-0.31
				c10.63,8.66,24.05,13.43,37.79,13.43c30.46,0,56.02-22.78,59.47-53c0.13-1.17,1.18-2.03,2.36-1.88c1.17,0.13,2.01,1.19,1.88,2.37
				C239.96,194.51,212.56,218.93,179.93,218.93z"/>
		</g>
		<g>
			<path d="M115.84,121.94c-0.12,0-0.23-0.01-0.35-0.03c-1.16-0.19-1.95-1.29-1.76-2.46c1.19-7.16-4.59-10.8-4.83-10.95
				c-1-0.62-1.32-1.93-0.71-2.93c0.61-1,1.91-1.33,2.92-0.73c0.35,0.21,8.52,5.24,6.84,15.31
				C117.77,121.2,116.87,121.94,115.84,121.94z"/>
		</g>
		<g>
			<path d="M244.03,153.47c-0.08,0-0.15,0-0.23-0.01c-1.17-0.13-2.02-1.18-1.9-2.35c1.07-10.15,10.3-12.82,10.69-12.93
				c1.13-0.31,2.31,0.35,2.63,1.49c0.31,1.13-0.35,2.31-1.48,2.63c-0.29,0.08-6.83,2.05-7.59,9.26
				C246.04,152.66,245.11,153.47,244.03,153.47z"/>
		</g>
		<path d="M197.35,117.72c-0.92,2.38,3.69,6.37,10.28,8.9c6.59,2.54,12.68,2.66,13.6,0.28c0.92-2.38-3.69-6.37-10.28-8.9
			C204.36,115.47,198.27,115.34,197.35,117.72z"/>
		<path d="M149.99,114.31c0.18,2.54,6.03,4.21,13.08,3.73c7.05-0.48,12.62-2.94,12.44-5.49c-0.18-2.54-6.03-4.21-13.08-3.73
			C155.38,109.31,149.81,111.77,149.99,114.31z"/>
		<g>
			<path d="M178.39,157.35c-1.08,0-2.01-0.82-2.12-1.92c-0.12-1.17,0.73-2.22,1.91-2.34c1.77-0.18,3.32-1.07,4.36-2.5
				c1.05-1.43,1.43-3.18,1.07-4.91l-3.38-16.36c-0.24-1.15,0.51-2.29,1.66-2.52c1.15-0.24,2.28,0.5,2.52,1.66l3.38,16.36
				c0.6,2.89-0.06,5.92-1.81,8.3c-1.75,2.38-4.43,3.93-7.37,4.23C178.54,157.35,178.46,157.35,178.39,157.35z"/>
		</g>
		<g>
			<path d="M168.64,186.95c-1.99,0-3.87-0.47-5.65-1.41c-7.21-3.81-9.64-14.12-9.74-14.56c-0.26-1.15,0.45-2.29,1.6-2.56
				c1.15-0.26,2.3,0.45,2.56,1.6c0.02,0.09,2.11,8.85,7.59,11.74c2.24,1.18,4.74,1.2,7.64,0.07c1.09-0.43,2.34,0.11,2.77,1.21
				c0.43,1.1-0.11,2.34-1.21,2.77C172.27,186.57,170.42,186.95,168.64,186.95z"/>
		</g>
		<path d="M157.61,56.04c-12.51,4.2-23.43,9.75-31.48,15.59c0.28,2.28,0.78,4.55,1.53,6.78c3.56,10.59,11.91,18.53,22.74,22.99
			c6.54-1.09,13.54-2.82,20.7-5.23c28.87-9.7,49.25-26.54,45.52-37.63C212.89,47.47,186.47,46.34,157.61,56.04z"/>
		<path d="M247.18,89.8c7.81,10.65,9.86,22.4,7.46,32.05c-2.22,0.59-4.51,0.98-6.86,1.12c-11.15,0.66-21.63-4.11-29.83-12.49
			c2.94-7.18-1.33-21.39-11.28-32.05C185.9,56.17,223.73,57.83,247.18,89.8z"/>
		<path d="M161.26,132.84c-0.19,4.31,1.88,7.91,4.63,8.03c2.74,0.12,5.12-3.28,5.31-7.59c0.19-4.31-1.88-7.91-4.63-8.03
			C163.83,125.13,161.45,128.53,161.26,132.84z"/>
		<path d="M201.58,142.53c-0.19,4.31,1.88,7.91,4.63,8.03c2.74,0.12,5.12-3.28,5.31-7.59c0.19-4.31-1.88-7.91-4.63-8.03
			C204.14,134.82,201.77,138.22,201.58,142.53z"/>
		<g>
			<path d="M205.48,55.65c-0.05,0-0.09,0-0.14,0c-1.18-0.07-2.07-1.09-2-2.27c0.53-8.48-9.86-13.46-9.97-13.51
				c-1.07-0.5-1.53-1.77-1.03-2.84c0.5-1.07,1.76-1.53,2.84-1.03c0.54,0.25,13.14,6.24,12.43,17.65
				C207.54,54.78,206.6,55.65,205.48,55.65z"/>
		</g>
		<g>
			<path d="M206.29,50.69c-0.11,0-0.23-0.01-0.35-0.03c-1.16-0.19-1.96-1.29-1.77-2.45c0.99-6.07,5.75-7.84,8.13-7.92
				c0.02,0,0.05,0,0.08,0c1.15,0,2.09,0.91,2.13,2.06c0.04,1.17-0.87,2.16-2.04,2.21c-0.58,0.04-3.44,0.42-4.08,4.34
				C208.23,49.95,207.32,50.69,206.29,50.69z"/>
		</g>
		<g>
			<path d="M167.26,104.53c-0.98,0-1.86-0.68-2.08-1.67c-0.26-1.15,0.47-2.29,1.62-2.55c17.08-3.81,29.96-12.01,38.27-24.38
				c0.66-0.98,1.99-1.24,2.97-0.58c0.98,0.66,1.24,1.99,0.58,2.97c-8.94,13.3-22.69,22.11-40.88,26.17
				C167.57,104.51,167.41,104.53,167.26,104.53z"/>
		</g>
		<polygon points="122.38,84.35 120.7,125.67 127.4,127.46 144.15,79.86 		"/>
	</g>
</g>
</svg>
