<?xml version="1.0" encoding="utf-8"?>
<!-- Generator: Adobe Illustrator 25.0.0, SVG Export Plug-In . SVG Version: 6.00 Build 0)  -->
<svg version="1.1" xmlns="http://www.w3.org/2000/svg" xmlns:xlink="http://www.w3.org/1999/xlink" x="0px" y="0px"
	 viewBox="0 0 345.07 345.07" style="enable-background:new 0 0 345.07 345.07;" xml:space="preserve">
<style type="text/css">
	.st0{fill:#F5F5F5;}
	.st1{fill:#E8EDC5;}
	.st2{fill:#FFFFFF;}
	.st3{fill:#85BAC6;}
	.st4{fill:#F6E1DC;}
	.st5{fill:#080717;}
	.st6{fill:none;stroke:#080717;stroke-width:2;stroke-linecap:round;stroke-linejoin:round;stroke-miterlimit:10;}
	.st7{fill:#F2ECDE;}
	.st8{fill:#C7E1E0;}
	.st9{fill:#FCDEDE;}
	.st10{fill:#EFCBBF;}
	.st11{fill:#CEE1E7;}
	.st12{fill:#FDEDE0;}
	.st13{fill:#B9D2D7;}
	.st14{fill:#EDE6E4;}
	.st15{fill:#FDE3EC;}
	.st16{fill:#DDD6CC;}
	.st17{fill:#F3F3F3;}
	.st18{fill:#E0D5C1;}
	.st19{fill:none;stroke:#000000;stroke-width:2;stroke-linecap:round;stroke-linejoin:round;stroke-miterlimit:10;}
	.st20{fill:#E0E0E0;}
	.st21{fill:#DBDDC0;}
</style>
<g id="Layer_3">
</g>
<g id="_x3C_Layer_x3E_">
	<g>

			<ellipse transform="matrix(0.7071 -0.7071 0.7071 0.7071 -71.4658 172.5337)" class="st18" cx="172.53" cy="172.53" rx="172.53" ry="172.53"/>
		<circle cx="172.56" cy="108.25" r="61.11"/>
		<ellipse transform="matrix(0.4681 -0.8837 0.8837 0.4681 31.6304 239.8623)" cx="215.07" cy="93.66" rx="36.56" ry="36.56"/>
		<ellipse transform="matrix(0.9446 -0.3283 0.3283 0.9446 -35.428 44.0871)" cx="112.84" cy="126.96" rx="52.81" ry="52.81"/>
		<path class="st2" d="M137.52,137.4c-3.73-8.94-12.57-15.21-22.88-15.15c-12.99,0.07-23.96,10.66-24.47,23.64
			c-0.55,14.06,10.68,25.62,24.61,25.62c2.99,0,5.83-0.56,8.48-1.53l-19.51,122.25l32.74,5.22c24.8,3.96,48.12-12.94,52.08-37.75
			l17.77-111.33L137.52,137.4z"/>
		<g>
			<path d="M114.78,175.79c-1.18,0-2.14-0.96-2.14-2.14s0.96-2.14,2.14-2.14c4.04,0,7.99-1.08,11.45-3.12
				c1.62-0.96,3.12-2.13,4.46-3.46c0.83-0.83,2.19-0.83,3.02,0c0.83,0.83,0.83,2.19,0,3.02c-1.59,1.59-3.37,2.97-5.3,4.12
				C124.29,174.5,119.58,175.79,114.78,175.79z"/>
		</g>

			<ellipse transform="matrix(0.9803 -0.1977 0.1977 0.9803 -24.4444 41.3232)" class="st2" cx="194.69" cy="143.06" rx="57.65" ry="73.88"/>
		<path d="M134.38,133.82c0.56,0.16,1.11,0.34,1.68,0.49c31.64,8.05,65.71-18.07,76.1-58.35c0.12-0.46,0.21-0.91,0.32-1.36
			c-10.41-5.41-21.86-7.47-33.24-5.19C152.83,74.7,135.12,101.66,134.38,133.82z"/>
		<g>
			<path d="M193.9,220.51c-0.09,0-0.18-0.01-0.27-0.02c-17.81-2.27-34.57-14.12-45.98-32.51c-0.62-1-0.31-2.32,0.69-2.94
				c1-0.62,2.32-0.31,2.94,0.69c10.73,17.29,26.36,28.41,42.89,30.52c1.17,0.15,2,1.22,1.85,2.39
				C195.88,219.72,194.96,220.51,193.9,220.51z"/>
		</g>
		<path d="M236.11,120.52c-1.03,1.78,2.14,5.53,7.07,8.38c4.93,2.85,9.76,3.71,10.79,1.93c1.03-1.78-2.14-5.53-7.07-8.38
			C241.97,119.6,237.14,118.74,236.11,120.52z"/>
		<path d="M185.79,128.72c0.53,2.49,6.57,3.32,13.47,1.84c6.91-1.48,12.08-4.7,11.54-7.19c-0.53-2.49-6.57-3.32-13.47-1.84
			C190.42,123.01,185.26,126.23,185.79,128.72z"/>
		<g>
			<path d="M226.11,156.84c-0.58,0-1.16-0.24-1.58-0.7c-0.79-0.87-0.73-2.23,0.15-3.02c1.65-1.49,2.36-3.68,1.92-5.85l-3.38-16.36
				c-0.24-1.15,0.5-2.29,1.66-2.52c1.15-0.23,2.29,0.5,2.52,1.66l3.38,16.36c0.75,3.61-0.49,7.4-3.23,9.89
				C227.14,156.66,226.62,156.84,226.11,156.84z"/>
		</g>
		<g>
			<path d="M197.69,144.69c-0.4,0-0.81-0.11-1.18-0.35c-0.98-0.65-1.25-1.98-0.6-2.96c5.05-7.62,11.28-6.71,13.87-5.16
				c1.01,0.6,1.35,1.92,0.74,2.93c-0.6,1-1.9,1.34-2.91,0.76c-0.44-0.24-4.22-2.08-8.14,3.84
				C199.06,144.35,198.38,144.69,197.69,144.69z"/>
		</g>
		<g>
			<path d="M247.31,141.65c-0.82,0-1.6-0.48-1.96-1.28c-0.21-0.46-2.18-4.17-8.84-1.71c-1.1,0.4-2.33-0.16-2.74-1.26
				c-0.41-1.11,0.15-2.34,1.26-2.75c8.57-3.17,13.06,1.24,14.24,4.02c0.46,1.09-0.05,2.34-1.13,2.8
				C247.87,141.6,247.59,141.65,247.31,141.65z"/>
		</g>
		<g>
			<path d="M218.22,169.54c-3.82,0-6.38-2.08-7.44-3.72c-0.64-0.99-0.36-2.31,0.63-2.96c0.98-0.64,2.3-0.37,2.94,0.6
				c0.29,0.41,2.88,3.72,9,0.15c1.02-0.6,2.33-0.25,2.92,0.77c0.59,1.02,0.25,2.33-0.77,2.92
				C222.73,168.93,220.29,169.54,218.22,169.54z"/>
		</g>
		<path class="st3" d="M132.07,235.47c-42.29,0-81.29,6.2-112.61,16.64c28.77,55.22,86.5,92.95,153.07,92.95
			c52.34,0,99.21-23.34,130.85-60.15C274.54,255.81,208.7,235.47,132.07,235.47z"/>
		<path class="st2" d="M132.07,235.47c-14.63,0-28.87,0.74-42.53,2.15c5.26,31.76,35.48,56.12,71.97,56.12
			c32.44,0,59.9-19.24,69.31-45.82C202.17,240.03,168.33,235.47,132.07,235.47z"/>
		<g>
			<path d="M125.2,156.6c-0.06,0-0.13,0-0.2-0.01c-1.17-0.11-2.04-1.15-1.93-2.32c0.55-6.07-0.64-10.85-3.54-14.23
				c-4.13-4.8-10.49-5.23-10.55-5.24c-1.17-0.07-2.08-1.08-2.01-2.25c0.07-1.17,1.02-2.07,2.24-2.01c0.33,0.02,8.17,0.5,13.52,6.67
				c3.71,4.29,5.26,10.16,4.6,17.45C127.23,155.77,126.3,156.6,125.2,156.6z"/>
		</g>
	</g>
</g>
</svg>
