<?xml version="1.0" encoding="utf-8"?>
<!-- Generator: Adobe Illustrator 25.0.0, SVG Export Plug-In . SVG Version: 6.00 Build 0)  -->
<svg version="1.1" xmlns="http://www.w3.org/2000/svg" xmlns:xlink="http://www.w3.org/1999/xlink" x="0px" y="0px"
	 viewBox="0 0 345.07 345.07" style="enable-background:new 0 0 345.07 345.07;" xml:space="preserve">
<style type="text/css">
	.st0{fill:#F6E1DC;}
	.st1{fill:#F0AF9B;}
	.st2{fill:#FFFFFF;}
	.st3{fill:#080717;}
	.st4{fill:none;stroke:#85BAC6;stroke-width:0.4121;stroke-miterlimit:10;}
	.st5{fill:#F2ECDE;}
	.st6{fill:#85BAC6;}
	.st7{fill:#FCDEDE;}
	.st8{fill:#AAD2DC;}
	.st9{fill:#F5F5F5;}
	.st10{fill:#E8EDC5;}
	.st11{fill:#B9D2D7;}
	.st12{fill:#FFFFFF;stroke:#000000;stroke-width:2;stroke-linecap:round;stroke-linejoin:round;stroke-miterlimit:10;}
	.st13{fill:#CEE1E7;}
	.st14{fill:#EDE6E4;}
	.st15{fill:#FDE3EC;}
	.st16{fill:#FDEDE0;}
	.st17{fill:#C7E1E0;}
	.st18{fill:#EFCBBF;}
	.st19{fill:#23285C;}
	.st20{fill:#010101;}
	.st21{fill:#C6E0F5;}
	.st22{fill:#DDD6CC;}
	.st23{fill:#E0E0E0;}
	.st24{fill:#F3F3F3;}
</style>
<g id="Layer_3">
</g>
<g id="_x3C_Layer_x3E_">
	<g>

			<ellipse transform="matrix(0.7071 -0.7071 0.7071 0.7071 -71.4659 172.5338)" class="st5" cx="172.53" cy="172.53" rx="172.53" ry="172.53"/>
		<g>
			<path d="M262.36,151.63c-7.6-14.95-17.27-26.77-26.6-34.15c4.13-6.92,6.55-14.98,6.55-23.62c0-25.5-20.67-46.17-46.17-46.17
				c-6.12,0-11.96,1.22-17.3,3.38c-8.34-8.24-19.79-13.33-32.44-13.33c-25.5,0-46.17,20.67-46.17,46.17c0,8.84,2.53,17.08,6.84,24.1
				c-4.4,9.07-11.69,22.92-18.15,29.74c-10.08,10.65-14.12,24.07-7.56,33.79c6.55,9.72,20.17,7.87,24.2,18.05
				c4.03,10.18,13.11,32.4,46.38,25c33.27-7.41,58.48,2.78,71.09-11.57c12.6-14.35,16.13-12.03,21.17-15.27
				C249.25,184.49,272.95,172.46,262.36,151.63z"/>
			<path class="st2" d="M273.34,228.91l-75.96-26.36L146,205.32l-57.4,12.96c-1.91,0.76-41.06,42.39-54.62,56.84
				c31.43,42.43,81.85,69.94,138.71,69.94c54.65,0,103.34-25.44,134.95-65.09C297.97,257.52,274.28,229.09,273.34,228.91z"/>
			<g>
				<path class="st3" d="M307.64,282.11c-0.83,0-1.62-0.48-1.96-1.29c-9.14-21.22-30.74-47.41-33.38-50.01l-75.22-26.11l-50.78,2.74
					l-56.82,12.83c-2.96,2.42-23.43,23.8-53.94,56.31c-0.81,0.86-2.16,0.9-3.02,0.1c-0.86-0.81-0.9-2.16-0.1-3.02
					C85.3,217.3,87.06,216.6,87.82,216.3c0.1-0.04,0.21-0.07,0.32-0.1l57.39-12.96c0.12-0.03,0.24-0.04,0.36-0.05l51.38-2.78
					c0.27-0.02,0.56,0.02,0.82,0.11l75.96,26.36l-0.01,0.03c3.96,2.14,26.96,32.21,35.58,52.21c0.47,1.08-0.03,2.34-1.12,2.81
					C308.21,282.05,307.93,282.11,307.64,282.11z M88.61,218.28h0.02H88.61z"/>
			</g>
			<g>
				<path class="st3" d="M102.17,330.97c-1,0-1.9-0.71-2.09-1.73l-5.64-28.91c-0.12-0.62,0.04-1.26,0.44-1.75l18.56-22.95
					l-15.85-24.28c-0.5-0.76-0.46-1.75,0.1-2.47l33.75-43.7c0.73-0.93,2.07-1.1,3-0.38c0.93,0.72,1.11,2.06,0.39,3l-32.82,42.5
					l15.87,24.31c0.51,0.78,0.45,1.79-0.13,2.51l-18.91,23.38l5.45,27.93c0.23,1.16-0.53,2.28-1.69,2.51
					C102.45,330.95,102.31,330.97,102.17,330.97z"/>
			</g>
			<g>
				<path class="st3" d="M208.4,342.67c-0.2,0-0.4-0.03-0.6-0.09c-1.13-0.33-1.78-1.52-1.45-2.65l10-34.18l-15.53-19.97
					c-0.62-0.8-0.6-1.92,0.05-2.69l24.14-28.6l-22.43-50.7c-0.48-1.08,0.01-2.34,1.09-2.82c1.07-0.48,2.34,0.01,2.82,1.09
					l22.97,51.92c0.33,0.75,0.21,1.62-0.32,2.24l-23.88,28.3l15.14,19.46c0.42,0.54,0.56,1.25,0.37,1.91l-10.31,35.23
					C210.17,342.06,209.32,342.67,208.4,342.67z"/>
			</g>
			<g>
				<path class="st2" d="M146.47,180.79c0,0-6.81,33.25-9.44,46.66c-3.2,16.34,5.27,32.49,28.88,26.94
					c23.61-5.55,27.31-12.96,30.55-37.03c0.18-1.38-2.31-66.19-2.31-66.19S169.61,182.18,146.47,180.79z"/>
				<path d="M157.03,257.64c-7.98,0-13-2.94-16.01-5.84c-5.76-5.55-8.03-14.81-6.08-24.77c2.6-13.27,9.37-46.34,9.44-46.68
					c0.21-1.04,1.22-1.76,2.22-1.7c21.84,1.3,45.63-28.52,45.87-28.82c0.56-0.7,1.49-0.98,2.34-0.71c0.85,0.28,1.44,1.06,1.47,1.95
					c0.75,19.54,2.49,65.15,2.3,66.56c-3.42,25.4-7.81,33.09-32.18,38.83C162.9,257.29,159.78,257.64,157.03,257.64z M148.2,182.97
					c-1.44,7.04-6.83,33.4-9.07,44.89c-1.67,8.54,0.14,16.34,4.85,20.87c4.71,4.53,12.12,5.77,21.44,3.58
					c22.52-5.3,25.77-11.82,28.92-35.23c0.07-1.7-1.16-35.23-2.12-60.38C184.67,165.05,166.47,182.83,148.2,182.97z"/>
			</g>
			<g>
				<path class="st2" d="M155.74,184.49L155.74,184.49c-21.74,0-39.36-17.62-39.36-39.36v-31.1c0-21.74,17.62-39.36,39.36-39.36l0,0
					c21.74,0,39.36,17.62,39.36,39.36v31.1C195.1,166.87,177.48,184.49,155.74,184.49z"/>
				<path d="M155.74,186.63c-22.88,0-41.5-18.62-41.5-41.5v-31.1c0-22.88,18.62-41.5,41.5-41.5c22.88,0,41.5,18.62,41.5,41.5v31.1
					C197.24,168.01,178.63,186.63,155.74,186.63z M155.74,76.8c-20.53,0-37.23,16.7-37.23,37.23v31.1
					c0,20.53,16.7,37.23,37.23,37.23c20.52,0,37.22-16.7,37.22-37.23v-31.1C192.97,93.5,176.27,76.8,155.74,76.8z"/>
			</g>
			<g>
				<g>
					<path class="st6" d="M115.26,146.1c-10.89,0-19.75-8.86-19.75-19.75c0-10.89,8.86-19.75,19.75-19.75
						c10.89,0,19.75,8.86,19.75,19.75C135.01,137.24,126.15,146.1,115.26,146.1z M115.26,110.87c-8.54,0-15.48,6.94-15.48,15.48
						c0,8.54,6.94,15.48,15.48,15.48c8.54,0,15.48-6.94,15.48-15.48C130.73,117.81,123.79,110.87,115.26,110.87z"/>
				</g>
				<g>
					<path class="st6" d="M159.64,146.1c-10.89,0-19.75-8.86-19.75-19.75c0-10.89,8.86-19.75,19.75-19.75
						c10.89,0,19.75,8.86,19.75,19.75C179.39,137.24,170.53,146.1,159.64,146.1z M159.64,110.87c-8.53,0-15.48,6.94-15.48,15.48
						c0,8.54,6.94,15.48,15.48,15.48c8.53,0,15.48-6.94,15.48-15.48C175.12,117.81,168.18,110.87,159.64,110.87z"/>
				</g>
				<g>
					<path class="st6" d="M132.6,125.06c-0.55,0-1.09-0.21-1.51-0.63c-0.83-0.83-0.83-2.19,0-3.02c3.14-3.15,8.63-3.15,11.78,0
						c0.83,0.83,0.83,2.19,0,3.02c-0.83,0.83-2.19,0.83-3.02,0c-1.53-1.53-4.2-1.53-5.73,0C133.7,124.85,133.15,125.06,132.6,125.06
						z"/>
				</g>
			</g>
			<g>
				<path class="st3" d="M137.21,149.6c-0.26,0-0.52-0.05-0.77-0.14c-3.41-1.32-7.38-3.51-6.9-6.5c0.58-3.59,4.04-19.35,4.19-20.02
					c0.25-1.15,1.4-1.88,2.54-1.63c1.15,0.25,1.88,1.39,1.63,2.54c-0.03,0.16-3.32,15.12-4.07,19.34c0.61,0.6,2.44,1.62,4.14,2.28
					c1.1,0.43,1.65,1.66,1.22,2.76C138.88,149.08,138.07,149.6,137.21,149.6z"/>
			</g>
			<g>
				<path class="st3" d="M139.93,160.02c-4.62,0-7.43-1.87-7.63-2c-0.97-0.67-1.22-2-0.55-2.97c0.66-0.97,1.99-1.22,2.95-0.56
					c0.29,0.19,6.48,4.06,16.09-2.75c0.96-0.68,2.3-0.45,2.98,0.51c0.68,0.96,0.45,2.3-0.51,2.98
					C148,158.95,143.44,160.02,139.93,160.02z"/>
			</g>
			<path class="st2" d="M215.44,138.67c0,8.69-7.05,15.74-15.74,15.74c-8.69,0-15.74-7.05-15.74-15.74
				c0-8.69,7.05-15.74,15.74-15.74C208.39,122.93,215.44,129.97,215.44,138.67z"/>
			<path d="M165.96,103.49c0.6-7.49,3.06-12.64,6.07-15.87c-1.99,3.82-3.28,9.04-3.18,15.87h25.55c0,0,46.55-21.75,15.68-44.9
				c-15.45-11.58-28.07-9.22-37.41-4.72c-4.36-6.39-10.88-12.23-19.12-13.79c-17.1-3.24-63.18,7.41-41.8,63.41h27.44
				c2.09-10.98,6.35-18.92,11.35-24.29c-3.24,6.22-5.59,14.24-6.32,24.29H165.96z"/>
			<g>
				<path class="st3" d="M78.12,317.8c-1.18,0-2.13-0.95-2.14-2.13c-0.16-33.9,4.29-68.25,4.33-68.6c0.15-1.17,1.23-1.99,2.4-1.84
					c1.17,0.15,1.99,1.23,1.84,2.4c-0.04,0.34-4.46,34.42-4.3,68.02c0.01,1.18-0.95,2.14-2.13,2.15
					C78.13,317.8,78.13,317.8,78.12,317.8z"/>
			</g>
			<g>
				<path class="st3" d="M194.76,140.86c-0.15,0-0.3-0.02-0.45-0.05c-1.15-0.25-1.88-1.37-1.64-2.52c0.72-3.42,4.16-9.8,12.02-9.37
					c1.18,0.06,2.08,1.07,2.02,2.25c-0.06,1.18-1.02,2.07-2.25,2.02c-6.02-0.32-7.47,5.35-7.61,6
					C196.63,140.18,195.74,140.86,194.76,140.86z"/>
			</g>
			<path class="st3" d="M134.9,231.94c0,0-13.01,55.55-14.7,104.97c16.56,5.28,34.19,8.16,52.5,8.16c1.86,0,3.7-0.08,5.54-0.14
				C183,302.92,195,235.61,195,235.61S146.68,281.08,134.9,231.94z"/>
		</g>
	</g>
</g>
</svg>
