<?xml version="1.0" encoding="utf-8"?>
<!-- Generator: Adobe Illustrator 25.0.0, SVG Export Plug-In . SVG Version: 6.00 Build 0)  -->
<svg version="1.1" xmlns="http://www.w3.org/2000/svg" xmlns:xlink="http://www.w3.org/1999/xlink" x="0px" y="0px"
	 viewBox="0 0 345.07 345.07" style="enable-background:new 0 0 345.07 345.07;" xml:space="preserve">
<style type="text/css">
	.st0{fill:#F6E1DC;}
	.st1{fill:#F0AF9B;}
	.st2{fill:#FFFFFF;}
	.st3{fill:#080717;}
	.st4{fill:none;stroke:#85BAC6;stroke-width:0.4121;stroke-miterlimit:10;}
	.st5{fill:#F2ECDE;}
	.st6{fill:#85BAC6;}
	.st7{fill:#FCDEDE;}
	.st8{fill:#AAD2DC;}
	.st9{fill:#F5F5F5;}
	.st10{fill:#E8EDC5;}
	.st11{fill:#B9D2D7;}
	.st12{fill:#FFFFFF;stroke:#000000;stroke-width:2;stroke-linecap:round;stroke-linejoin:round;stroke-miterlimit:10;}
	.st13{fill:#CEE1E7;}
	.st14{fill:#EDE6E4;}
	.st15{fill:#FDE3EC;}
	.st16{fill:#FDEDE0;}
	.st17{fill:#C7E1E0;}
	.st18{fill:#EFCBBF;}
	.st19{fill:#23285C;}
	.st20{fill:#010101;}
	.st21{fill:#C6E0F5;}
	.st22{fill:#DDD6CC;}
	.st23{fill:#E0E0E0;}
	.st24{fill:#F3F3F3;}
</style>
<g id="Layer_3">
</g>
<g id="_x3C_Layer_x3E_">
	<g>

			<ellipse transform="matrix(0.7071 -0.7071 0.7071 0.7071 -71.4659 172.5338)" class="st0" cx="172.53" cy="172.53" rx="172.53" ry="172.53"/>
		<rect x="155.68" y="185.25" class="st2" width="42.79" height="69.94"/>
		<g>
			<path d="M198.47,257.33h-42.79c-1.18,0-2.14-0.96-2.14-2.14v-69.94c0-1.18,0.96-2.14,2.14-2.14h42.79c1.18,0,2.14,0.96,2.14,2.14
				v69.94C200.61,256.37,199.65,257.33,198.47,257.33z M157.82,253.05h38.51v-65.67h-38.51V253.05z"/>
		</g>
		<g>
			<ellipse transform="matrix(0.9614 -0.2752 0.2752 0.9614 -15.938 39.7233)" cx="133.57" cy="76.65" rx="46.88" ry="46.88"/>
			<ellipse transform="matrix(0.9959 -0.0901 0.0901 0.9959 -7.0193 16.9832)" cx="184.53" cy="86.21" rx="28.38" ry="30.24"/>
			<ellipse transform="matrix(0.4112 -0.9115 0.9115 0.4112 27.2871 268.1053)" cx="221.18" cy="112.93" rx="35.73" ry="35.73"/>
			<ellipse transform="matrix(0.8051 -0.5931 0.5931 0.8051 -51.7704 160.0943)" cx="217.74" cy="158.83" rx="26.99" ry="26.99"/>
			<path d="M134.26,121.69c1.14,12.59-8.14,23.72-20.73,24.86c-12.59,1.14-23.72-8.14-24.86-20.73s8.14-23.72,20.73-24.86
				C122,99.82,133.12,109.1,134.26,121.69z"/>
		</g>
		<path class="st2" d="M127.91,104.13c0,0-35.56,84.05-4.85,106.68c30.71,22.63,54.15,12.12,70.31,0
			c16.16-12.12,21.01-28.29,21.01-28.29s-13.74,5.66-13.74-8.08c0-13.74,8.89-39.6,2.42-48.49
			C196.61,117.06,173.17,97.66,127.91,104.13z"/>
		<g>
			<path d="M158.65,226.22c-12.15,0-24.48-4.57-36.86-13.69c-13.47-9.93-16.81-31.46-9.92-63.99c5.04-23.77,13.97-45.03,14.06-45.24
				c0.46-1.09,1.71-1.59,2.8-1.14c1.09,0.46,1.6,1.71,1.14,2.8c-0.35,0.83-34.56,82.76-5.55,104.13
				c17.89,13.18,34.83,16.24,51.8,9.34c1.09-0.45,2.34,0.08,2.78,1.17c0.44,1.09-0.08,2.34-1.17,2.78
				C171.44,224.94,165.07,226.22,158.65,226.22z"/>
		</g>
		<path class="st2" d="M218.36,148.58c0.69,3.4,1.09,6.96,1.09,10.65c0,6.58-1.2,12.77-3.28,18.27c8.09-0.81,14.38-7.06,14.38-14.65
			C230.55,155.97,225.36,150.2,218.36,148.58z"/>
		<g>
			<path d="M123.14,126.02c-0.55,0-1.1-0.21-1.52-0.63c-0.83-0.84-0.82-2.19,0.01-3.02c3.98-3.95,13.79-9.37,22.42-1.61
				c0.88,0.79,0.95,2.14,0.16,3.02c-0.79,0.88-2.14,0.95-3.02,0.16c-7.78-6.98-16.2,1.12-16.56,1.47
				C124.22,125.82,123.68,126.02,123.14,126.02z"/>
		</g>
		<path d="M136.51,136.13c-1,2.12-3.04,3.26-4.55,2.55c-1.51-0.71-1.93-3.01-0.93-5.13c1-2.12,3.04-3.26,4.55-2.55
			C137.09,131.72,137.51,134.01,136.51,136.13z"/>
		<g>
			<path d="M174.64,131.36c-0.79,0-1.55-0.44-1.92-1.2c-4.59-9.4-15.44-5.04-15.9-4.85c-1.09,0.45-2.34-0.07-2.79-1.15
				c-0.45-1.09,0.06-2.33,1.14-2.79c5.17-2.17,16.29-3.51,21.38,6.92c0.52,1.06,0.08,2.34-0.98,2.86
				C175.27,131.29,174.95,131.36,174.64,131.36z"/>
		</g>
		<path d="M165.4,139.36c-1,2.12-3.04,3.26-4.55,2.55c-1.51-0.71-1.93-3.01-0.93-5.13c1-2.12,3.04-3.26,4.55-2.55
			C165.98,134.95,166.4,137.25,165.4,139.36z"/>
		<g>
			<path class="st3" d="M146.9,155.97c-0.4,0-0.8-0.11-1.15-0.34l-8.49-5.46c-0.98-0.63-1.28-1.93-0.66-2.92l7.88-12.73
				c0.62-1,1.94-1.31,2.94-0.69c1,0.62,1.31,1.94,0.69,2.94l-6.77,10.94l6.72,4.32c0.99,0.64,1.28,1.96,0.64,2.95
				C148.29,155.62,147.61,155.97,146.9,155.97z"/>
		</g>
		<g>
			<path class="st3" d="M152.11,174.8c-0.7,0-1.13-0.05-1.22-0.06c-1.17-0.15-2-1.21-1.86-2.39c0.15-1.17,1.23-1.98,2.37-1.86
				c0.59,0.06,13.27,1.2,22.69-17.62c0.53-1.05,1.81-1.48,2.87-0.96c1.06,0.53,1.48,1.81,0.96,2.87
				C168.68,173.25,156.07,174.8,152.11,174.8z"/>
		</g>
		<path d="M197.36,262.94h-45.04c-2.74,0-4.96-2.22-4.96-4.96v-24.03c0-2.74,2.22-4.96,4.96-4.96h45.04c2.74,0,4.96,2.22,4.96,4.96
			v24.03C202.32,260.72,200.1,262.94,197.36,262.94z"/>
		<path d="M230.39,254.82H120.7c-21.57,0-39.06,17.49-39.06,39.06v25.29c26.4,16.4,57.53,25.9,90.9,25.9
			c35.93,0,69.29-10.99,96.92-29.79v-21.4C269.45,272.31,251.96,254.82,230.39,254.82z"/>
		<g>
			<path d="M186.97,217.36c-0.71,0-1.41-0.36-1.81-1.01c-0.62-1-0.32-2.32,0.68-2.94c2.05-1.28,4.1-2.69,6.25-4.31
				c15.37-11.52,20.2-27.04,20.25-27.19c0.34-1.13,1.53-1.77,2.66-1.43c1.13,0.34,1.77,1.53,1.43,2.66
				c-0.21,0.69-5.24,16.98-21.78,29.38c-2.25,1.69-4.4,3.17-6.55,4.51C187.75,217.25,187.36,217.36,186.97,217.36z"/>
		</g>
	</g>
</g>
</svg>
