<?xml version="1.0" encoding="utf-8"?>
<!-- Generator: Adobe Illustrator 25.0.0, SVG Export Plug-In . SVG Version: 6.00 Build 0)  -->
<svg version="1.1" xmlns="http://www.w3.org/2000/svg" xmlns:xlink="http://www.w3.org/1999/xlink" x="0px" y="0px"
	 viewBox="0 0 345.07 345.07" style="enable-background:new 0 0 345.07 345.07;" xml:space="preserve">
<style type="text/css">
	.st0{fill:#F6E1DC;}
	.st1{fill:#F0AF9B;}
	.st2{fill:#FFFFFF;}
	.st3{fill:#080717;}
	.st4{fill:none;stroke:#85BAC6;stroke-width:0.4121;stroke-miterlimit:10;}
	.st5{fill:#F2ECDE;}
	.st6{fill:#85BAC6;}
	.st7{fill:#FCDEDE;}
	.st8{fill:#AAD2DC;}
	.st9{fill:#F5F5F5;}
	.st10{fill:#E8EDC5;}
	.st11{fill:#B9D2D7;}
	.st12{fill:#FFFFFF;stroke:#000000;stroke-width:2;stroke-linecap:round;stroke-linejoin:round;stroke-miterlimit:10;}
	.st13{fill:#CEE1E7;}
	.st14{fill:#EDE6E4;}
	.st15{fill:#FDE3EC;}
	.st16{fill:#FDEDE0;}
	.st17{fill:#C7E1E0;}
	.st18{fill:#EFCBBF;}
	.st19{fill:#23285C;}
	.st20{fill:#010101;}
	.st21{fill:#C6E0F5;}
	.st22{fill:#DDD6CC;}
	.st23{fill:#E0E0E0;}
	.st24{fill:#F3F3F3;}
</style>
<g id="Layer_3">
</g>
<g id="_x3C_Layer_x3E_">
	<g>

			<ellipse transform="matrix(0.7071 -0.7071 0.7071 0.7071 -71.4658 172.5338)" class="st18" cx="172.53" cy="172.53" rx="172.53" ry="172.53"/>
		<g>
			<path d="M176.18,215.26c0,0,33.49,16.43,57.4,10.38c23.92-6.05,66.17-27.67,27.11-89.05c-39.07-61.39-57.4-56.2-78.93-64.84
				c-21.53-8.65-61.39-36.31-67.77-18.16c-6.38,18.16,4.78,39.77,9.57,48.42C128.34,110.65,176.18,215.26,176.18,215.26z"/>
			<g>
				<path class="st2" d="M209.16,247.05c-1.06-0.37-2.12-0.71-3.18-1.05c-2.11-4.49-4.16-9.09-5.88-13.45
					c-7.18-18.16-10.37-57.06-10.37-57.06s19.67-9.51,26.84-19.02c7.18-9.51,7.28-32.18-6.11-32.86
					c-11.43-0.58-18.86,15.8-19.93,15.56c-13.29-2.88-6.91-41.5-41.46-44.09c-23.91-1.8-34.28-17.29-34.28-17.29
					s-23.92,83-23.92,102.89c0,19.89,18.34,22.48,18.34,22.48l6.57,39.16c-4.12,0.62-8.39,1.27-12.34,1.87
					c-0.06,0.84-0.09,1.69-0.09,2.54c0,26.55,28.94,48.08,64.65,48.08c30.84,0,56.62-16.07,63.07-37.55
					C225.12,253.64,217.88,250.06,209.16,247.05z"/>
				<path d="M167.99,296.94c-36.82,0-66.78-22.53-66.78-50.21c0-0.9,0.03-1.8,0.1-2.69c0.07-1,0.82-1.81,1.81-1.96
					c3.27-0.5,6.76-1.03,10.2-1.54l-5.97-35.6c-4.75-1.23-18.61-6.35-18.61-24.25c0-19.96,23.02-100.08,24-103.48
					c0.23-0.8,0.9-1.39,1.72-1.52c0.82-0.13,1.64,0.23,2.1,0.92c0.1,0.14,10.16,14.66,32.67,16.35c22.93,1.72,29,18.58,33.43,30.88
					c2.17,6.03,4.07,11.31,7.26,12.88c0.23-0.32,0.49-0.7,0.74-1.06c3.27-4.76,10.04-14.7,19.91-14.17
					c4.79,0.24,8.65,2.97,10.85,7.69c3.75,8.04,2.29,21.39-3.14,28.58c-6.38,8.45-21.66,16.64-26.29,19
					c0.66,7.17,3.89,39.31,10.1,55.02c1.46,3.7,3.29,7.89,5.43,12.48c0.78,0.25,1.56,0.51,2.34,0.78
					c8.02,2.77,15.52,6.27,22.31,10.39c0.83,0.5,1.22,1.51,0.94,2.44C226.2,280.87,199.42,296.94,167.99,296.94z M105.48,246.03
					c-0.01,0.23-0.01,0.46-0.01,0.69c0,25.33,28.04,45.94,62.51,45.94c28.36,0,53.46-14.4,60.51-34.46
					c-6.14-3.59-12.87-6.66-20.03-9.14l0,0c-1.04-0.36-2.09-0.7-3.13-1.03c-0.57-0.18-1.04-0.59-1.29-1.13
					c-2.35-5-4.35-9.57-5.94-13.57c-7.21-18.24-10.37-56.07-10.51-57.67c-0.07-0.88,0.4-1.71,1.2-2.1
					c0.19-0.09,19.29-9.4,26.07-18.38c4.52-5.99,5.8-17.53,2.68-24.2c-1.55-3.31-3.97-5.07-7.19-5.23
					c-7.48-0.37-13.34,8.2-16.17,12.33c-1.63,2.37-2.44,3.55-4.11,3.19c-6.16-1.34-8.6-8.12-11.43-15.98
					c-4.48-12.45-9.57-26.56-29.73-28.07c-17.97-1.35-28.57-10.05-33.18-14.94c-4.7,16.62-22.73,81.48-22.73,98.4
					c0,17.73,15.83,20.27,16.51,20.36c0.92,0.13,1.65,0.85,1.8,1.76l6.56,39.16c0.09,0.57-0.04,1.15-0.38,1.61
					c-0.34,0.46-0.85,0.77-1.41,0.86C112.57,244.96,108.93,245.51,105.48,246.03z"/>
			</g>
			<g>
				<path class="st3" d="M191.53,160.77c-1.14,0-2.09-0.9-2.13-2.06c-0.28-7.36,6.34-14.8,8.37-16.91c2.05-2.12,4.17-4.32,6.5-5.58
					c1.04-0.57,2.33-0.18,2.9,0.86c0.56,1.04,0.18,2.33-0.86,2.9c-1.75,0.95-3.63,2.9-5.46,4.79c-3.58,3.71-7.35,9.28-7.17,13.78
					c0.04,1.18-0.88,2.17-2.06,2.22C191.58,160.77,191.56,160.77,191.53,160.77z"/>
			</g>
			<g>
				<path class="st3" d="M144.66,142.77c-5.23,0-10.47-1.97-14.44-5.68c-0.86-0.81-0.91-2.16-0.1-3.02c0.81-0.86,2.16-0.91,3.02-0.1
					c4.83,4.52,12.03,5.8,17.91,3.19c1.08-0.48,2.34,0.01,2.82,1.09c0.48,1.08-0.01,2.34-1.09,2.82
					C150.21,142.21,147.44,142.77,144.66,142.77z"/>
			</g>
			<g>
				<path class="st3" d="M112.02,128.17c-4.58,0-9.17-2.24-12.05-6.07c-0.71-0.94-0.52-2.28,0.42-2.99
					c0.95-0.71,2.29-0.52,2.99,0.42c2.51,3.34,6.8,5.01,10.65,4.15c1.16-0.25,2.29,0.47,2.55,1.62c0.25,1.15-0.47,2.29-1.62,2.55
					C113.99,128.07,113.01,128.17,112.02,128.17z"/>
			</g>
			<g>
				<path class="st3" d="M149.61,118.25c-0.42,0-0.84-0.12-1.21-0.38c-2.55-1.76-5.48-2.78-8.48-2.95
					c-1.18-0.07-2.08-1.08-2.01-2.26c0.07-1.18,1.1-2.06,2.26-2.01c3.79,0.22,7.48,1.5,10.67,3.71c0.97,0.67,1.21,2,0.54,2.97
					C150.95,117.93,150.28,118.25,149.61,118.25z"/>
			</g>
			<g>
				<path class="st3" d="M120.89,109.64c-0.49,0-0.97-0.16-1.38-0.5c-1.47-1.23-6.38-2.94-8.65-2.46c-1.16,0.25-2.29-0.48-2.54-1.63
					c-0.25-1.15,0.48-2.29,1.63-2.54c3.83-0.84,10.02,1.43,12.32,3.36c0.9,0.76,1.02,2.11,0.26,3.01
					C122.1,109.38,121.5,109.64,120.89,109.64z"/>
			</g>
			<g>
				<path class="st3" d="M115.05,160.94c-0.14,0-0.29-0.01-0.44-0.05c-3.65-0.77-6.97-2.88-9.34-5.96
					c-0.56-0.73-0.59-1.73-0.08-2.49c2.11-3.17,6.84-10.81,9.73-16.03c0.57-1.03,1.87-1.4,2.9-0.83c1.03,0.57,1.41,1.87,0.83,2.9
					c-2.59,4.67-6.62,11.25-9.02,14.96c1.63,1.65,3.7,2.81,5.85,3.27c1.16,0.24,1.9,1.37,1.65,2.53
					C116.93,160.25,116.04,160.94,115.05,160.94z"/>
			</g>
			<g>
				<path class="st3" d="M125.95,188.07c-1.58,0-3.17-0.27-4.7-0.83c-1.11-0.41-1.68-1.63-1.27-2.74c0.41-1.11,1.64-1.68,2.74-1.27
					c4.97,1.83,11.12-1.01,13.43-6.2c0.48-1.08,1.75-1.56,2.82-1.09c1.08,0.48,1.56,1.74,1.09,2.82
					C137.51,184.49,131.75,188.07,125.95,188.07z"/>
			</g>
			<g>
				<path class="st3" d="M120.69,206.71c-4.85,0-9.54-0.63-13.72-1.95c-1.12-0.35-1.75-1.55-1.39-2.68
					c0.35-1.13,1.56-1.75,2.68-1.39c12.16,3.83,29.11,1.31,40.31-6c0.99-0.65,2.31-0.37,2.96,0.62c0.64,0.99,0.37,2.31-0.62,2.96
					C142.56,203.71,131.26,206.71,120.69,206.71z"/>
			</g>
			<g>
				<path class="st3" d="M180.96,146.5c-0.43,0-0.87-0.13-1.25-0.4c-3.27-2.36-6.51-5.98-8.17-16.34
					c-1.46-9.16-6.05-16.66-13.64-22.29c-1.95-1.45-4.86-2.08-7.94-2.75c-5.68-1.23-12.75-2.76-13.38-11.05
					c-0.09-1.18,0.79-2.2,1.97-2.29c1.19-0.08,2.2,0.79,2.29,1.97c0.37,4.87,3.87,5.86,10.02,7.19c3.39,0.73,6.89,1.49,9.58,3.49
					c8.52,6.32,13.67,14.75,15.32,25.05c1.33,8.34,3.54,11.45,6.46,13.55c0.96,0.69,1.17,2.03,0.48,2.98
					C182.28,146.19,181.63,146.5,180.96,146.5z"/>
			</g>
			<g>
				<path class="st6" d="M194.21,197.8c-3.02,0-5.98-0.97-8.53-2.83c-6.84-5.01-8.67-15.1-4.07-22.49
					c2.52-4.05,6.56-6.66,11.08-7.16c1.15-0.13,2.23,0.72,2.36,1.89c0.13,1.17-0.72,2.23-1.89,2.36c-3.21,0.35-6.1,2.23-7.92,5.17
					c-3.45,5.54-2.11,13.07,2.96,16.78c2.34,1.71,5.16,2.36,7.92,1.83c2.91-0.56,5.44-2.35,7.11-5.04
					c3.45-5.54,2.11-13.07-2.96-16.78c-0.95-0.7-1.16-2.03-0.46-2.99c0.7-0.95,2.04-1.16,2.99-0.46c6.84,5.01,8.67,15.1,4.07,22.49
					c-2.31,3.71-5.83,6.19-9.93,6.98C196.03,197.71,195.12,197.8,194.21,197.8z"/>
			</g>
		</g>
		<g>
			<path class="st3" d="M24.78,265.22c-0.68,0-1.35-0.33-1.77-0.93c-0.67-0.97-0.42-2.3,0.56-2.97
				c27.23-18.63,77.71-19.25,79.84-19.27c0.01,0,0.01,0,0.02,0c1.17,0,2.13,0.95,2.14,2.12c0.01,1.18-0.94,2.14-2.12,2.15
				c-0.51,0-51.32,0.63-77.47,18.52C25.61,265.1,25.19,265.22,24.78,265.22z"/>
		</g>
		<g>
			<path class="st3" d="M296.92,292.22c-0.38,0-0.77-0.1-1.11-0.32c-43.18-26.46-65.08-32.53-65.3-32.59
				c-1.14-0.31-1.81-1.48-1.51-2.62c0.31-1.14,1.48-1.82,2.61-1.51c0.9,0.24,22.61,6.22,66.42,33.07c1.01,0.62,1.32,1.93,0.71,2.94
				C298.34,291.86,297.64,292.22,296.92,292.22z"/>
		</g>
	</g>
</g>
</svg>
