<?xml version="1.0" encoding="utf-8"?>
<!-- Generator: Adobe Illustrator 25.0.0, SVG Export Plug-In . SVG Version: 6.00 Build 0)  -->
<svg version="1.1" xmlns="http://www.w3.org/2000/svg" xmlns:xlink="http://www.w3.org/1999/xlink" x="0px" y="0px"
	 viewBox="0 0 345.07 345.15" style="enable-background:new 0 0 345.07 345.15;" xml:space="preserve">
<style type="text/css">
	.st0{fill:#F6E1DC;}
	.st1{fill:#F0AF9B;}
	.st2{fill:#FFFFFF;}
	.st3{fill:#080717;}
	.st4{fill:none;stroke:#85BAC6;stroke-width:0.4121;stroke-miterlimit:10;}
	.st5{fill:#F2ECDE;}
	.st6{fill:#85BAC6;}
	.st7{fill:#FCDEDE;}
	.st8{fill:#AAD2DC;}
	.st9{fill:#F5F5F5;}
	.st10{fill:#E8EDC5;}
	.st11{fill:#B9D2D7;}
	.st12{fill:#FFFFFF;stroke:#000000;stroke-width:2;stroke-linecap:round;stroke-linejoin:round;stroke-miterlimit:10;}
	.st13{fill:#CEE1E7;}
	.st14{fill:#EDE6E4;}
	.st15{fill:#FDE3EC;}
	.st16{fill:#FDEDE0;}
	.st17{fill:#C7E1E0;}
	.st18{fill:#EFCBBF;}
	.st19{fill:#23285C;}
	.st20{fill:#010101;}
	.st21{fill:#C6E0F5;}
	.st22{fill:#DDD6CC;}
	.st23{fill:#E0E0E0;}
	.st24{fill:#F3F3F3;}
</style>
<g id="Layer_3">
</g>
<g id="_x3C_Layer_x3E_">
	<g>

			<ellipse transform="matrix(0.7071 -0.7071 0.7071 0.7071 -71.4658 172.5337)" class="st7" cx="172.53" cy="172.53" rx="172.53" ry="172.53"/>
		<path class="st2" d="M137.52,228.5l-1.12-35.06c-17.26,7.88-29.2,10.91-35.56,9.01c-1-0.3-1.88-0.72-2.61-1.26
			c-2.21-1.61-2.72-4.1-2.49-5.76c-0.29-11.05-2.95-32.48-11.03-34.98c-7.53-2.33-10.71-4.74-12.06-6.35l-1.39-1.67l1.41-1.66
			c1.9-2.24,8.38-10.2,11.73-18.47c2.96-7.29,3.34-16.73,3.77-27.66c0.22-5.37,0.44-10.88,0.97-16.79
			c0.66-7.45,4.31-13.04,10.55-16.19l0.17-0.09l0.18-0.06c2.44-0.8,4.89-1.58,6.69-2.12l0.16-0.05l0.16-0.03
			c0.46-0.07,0.88-0.14,1.29-0.18l2.85-0.32l0.03,2.86c0.35,31.85,20.1,49.79,32.47,53.62c5.43,1.62,9.78-1.79,14.38-5.4
			c4.81-3.77,9.77-7.67,16.14-5.77c2,0.6,3.95,1.72,5.98,3.42c3.2,2.69,4.54,7.03,3.78,12.21c-1.22,8.18-8.06,18.83-20.58,24.18
			c-3.8,1.62-4.28,2.79-4.31,3.22c-0.12,1.65,4.07,4.22,7.76,6.49c4.68,2.88,9.98,6.13,12.74,10.38c4.07,6.25,0.1,12.17-4.5,19.03
			c-3.88,5.78-8.7,12.96-9.95,22.25c-1,7.49,1.76,14.42,8.21,20.61L137.52,228.5z"/>
		<g>
			<path class="st2" d="M173.44,233.03c-15.97,6.49-41.43-7.99-41.43-7.99L173.44,233.03z"/>
			<path d="M163.91,236.84c-15.26,0-32.08-9.44-32.95-9.94c-1.03-0.58-1.38-1.89-0.8-2.91c0.58-1.02,1.89-1.38,2.91-0.8
				c0.24,0.14,24.75,13.88,39.57,7.87c1.1-0.45,2.34,0.08,2.78,1.17c0.44,1.09-0.08,2.34-1.17,2.78
				C171.04,236.31,167.52,236.84,163.91,236.84z"/>
		</g>
		<g>
			<path d="M102.15,332.19c-0.07,0-0.14,0-0.21-0.01c-1.17-0.11-2.04-1.16-1.92-2.33c2.61-27.08,6.56-53.17,7.45-58.14
				c4.8-26.92,19.14-48.85,24.48-56.29c-3.75,0.03-11.59,1.09-23.36,3.21c-13.28,2.39-25.02,9.13-33.07,18.97
				c-3.96,4.84-6.59,9.86-7.82,14.91c-2.84,11.66-7.19,31.98-10.34,46.97c-0.24,1.15-1.37,1.89-2.53,1.65
				c-1.16-0.24-1.89-1.38-1.65-2.53c3.15-15.02,7.52-35.39,10.37-47.11c1.38-5.68,4.3-11.26,8.67-16.6
				c8.69-10.63,21.34-17.9,35.62-20.47c22.01-3.97,27.1-3.78,29.19-1.99c0.87,0.75,1,2.05,0.28,2.95c-0.2,0.25-20,25.55-25.62,57.08
				c-0.88,4.93-4.8,30.85-7.4,57.8C104.17,331.36,103.24,332.19,102.15,332.19z"/>
		</g>
		<g>
			<path d="M144.74,344.94c-1.09,0-2.02-0.83-2.13-1.94c-1.02-11.1-1.1-21.3-0.25-30.3c6.5-68.54,45.13-98.13,46.77-99.35
				c0.5-0.37,1.14-0.51,1.75-0.37c67.36,15.1,68.43,16,68.95,16.44c10.38,8.79,34.51,32.97,34.4,67.45c0,1.18-0.96,2.13-2.14,2.13
				c0,0,0,0-0.01,0c-1.18,0-2.13-0.96-2.13-2.14c0.1-32.43-22.6-55.41-32.65-63.98c-3.8-1.31-41.1-9.84-66.35-15.51
				c-5.41,4.49-38.51,34.35-44.33,95.73c-0.83,8.75-0.74,18.68,0.25,29.51c0.11,1.18-0.76,2.22-1.93,2.32
				C144.87,344.94,144.8,344.94,144.74,344.94z"/>
		</g>
		<g>
			<path class="st3" d="M159.58,141.55c-0.99,0-1.87-0.69-2.09-1.69c-1.24-5.8,2.79-10.86,6.89-15.05
				c1.45-1.48,5.87-5.97,10.58-3.91c1.08,0.47,1.58,1.73,1.1,2.81c-0.47,1.08-1.74,1.57-2.81,1.1c-1.35-0.59-3.3,0.42-5.82,2.99
				c-3.47,3.54-6.57,7.35-5.76,11.16c0.25,1.15-0.49,2.29-1.64,2.54C159.87,141.53,159.72,141.55,159.58,141.55z"/>
		</g>
		<g>
			<path class="st8" d="M79.44,135.99c-0.05,0-0.1,0-0.15,0c-5.37-0.18-7.49-9.88-7.19-18.82c0.16-4.62,0.93-8.97,2.19-12.25
				c1.96-5.1,4.46-6.09,6.24-6.05c5.37,0.18,7.49,9.88,7.19,18.82c-0.16,4.62-0.93,8.97-2.19,12.25
				C83.64,134.91,81.2,135.99,79.44,135.99z M80.38,103.14c-0.94,0.21-3.69,4.89-4,14.17c-0.31,9.28,2.11,14.13,3.08,14.41
				c0.94-0.21,3.69-4.89,4-14.17C83.77,108.27,81.35,103.42,80.38,103.14z"/>
		</g>
		<g>
			<path d="M105.07,203.78c-3.19,0-5.66-0.65-7.41-1.95c-2.62-1.96-2.99-4.85-2.78-6.44c-0.33-12.13-3.44-31.97-10.43-34.13
				c-11.38-3.52-13.19-7.34-13.47-8.43c-0.18-0.69,0-1.43,0.47-1.96c0.08-0.09,8.31-9.41,12.16-18.9c2.9-7.15,3.28-16.53,3.71-27.38
				c0.21-5.35,0.44-10.88,0.97-16.82c1.44-16.1,15.85-19.87,23.24-19.64c1.18,0.04,2.1,1.03,2.06,2.21
				c-0.04,1.18-0.98,2.12-2.2,2.06c-0.73-0.02-17.41-0.32-18.84,15.75c-0.52,5.84-0.74,11.32-0.95,16.62
				c-0.45,11.25-0.84,20.98-4.02,28.82c-3.3,8.12-9.33,15.84-11.82,18.84c1.06,0.96,3.73,2.83,9.96,4.75
				c12.24,3.79,13.36,34.78,13.45,38.3c0,0.15-0.01,0.31-0.04,0.46c-0.02,0.12-0.2,1.55,1.14,2.51c2.52,1.81,12.36,3.93,49.29-15.28
				c1.05-0.55,2.34-0.14,2.88,0.91c0.54,1.05,0.14,2.34-0.91,2.88C130,198.15,114.44,203.78,105.07,203.78z"/>
		</g>
		<g>
			<path class="st8" d="M102,143.64c-0.05,0-0.11,0-0.16,0c-2.04-0.07-4.89-1.47-6.82-7.73c-1.29-4.17-1.89-9.64-1.7-15.39
				c0.38-11.24,3.89-22.5,9.89-22.5c0.05,0,0.11,0,0.16,0c6.1,0.21,8.9,11.79,8.52,23.13C111.52,132.37,108,143.64,102,143.64z
				 M103.21,102.28c-1.51,0-5.21,6.19-5.62,18.37c-0.18,5.29,0.36,10.26,1.51,13.99c1.05,3.4,2.32,4.7,2.88,4.72
				c0.01,0,0.01,0,0.02,0c1.51,0,5.21-6.19,5.62-18.37c0.41-12.23-2.89-18.66-4.39-18.71C103.23,102.28,103.22,102.28,103.21,102.28
				z"/>
		</g>
		<path d="M185.31,245.52c0,0-24.2-10.01-21.47-30.37c2.73-20.35,21.45-29.95,14.65-40.4c-6.8-10.45-31.17-15.35-15.62-21.99
			c17.76-7.58,24.91-27.12,16.48-34.2c-15.04-12.65-22.33,12.24-36.05,7.99c-27.32-8.46-33.77-44.69-33.37-56.58
			c0.01-0.38-10.46,3.1-10.46,3.1s-0.41-21.87,10.66-20.73c11.08,1.14,6.62,8.27,28.71,1.35c22.08-6.92,48.57-10.46,62.75,3.64
			c26.34,26.19-3.97,61.2,24.16,68.28c28.13,7.08,41.23-6.28,39.25,18.57c-1.99,24.85,20.69,34.43,33.09,30.63
			C310.49,171.01,185.31,245.52,185.31,245.52z"/>
		<g>
			<path class="st8" d="M94.93,119.52c-0.12,0-0.24-0.01-0.36-0.03l-9.53-1.6c-1.16-0.2-1.95-1.3-1.75-2.46
				c0.2-1.16,1.29-1.95,2.46-1.75l9.53,1.6c1.16,0.2,1.95,1.3,1.75,2.46C96.86,118.78,95.96,119.52,94.93,119.52z"/>
		</g>
		<g>
			<path class="st3" d="M122.8,168.43c-0.76,0-1.5-0.41-1.88-1.12c-0.56-1.04-0.17-2.34,0.87-2.89c3.06-1.65,5.01-5.21,4.74-8.68
				c-0.09-1.18,0.79-2.2,1.96-2.3c1.16-0.09,2.2,0.79,2.3,1.96c0.4,5.18-2.4,10.31-6.97,12.77
				C123.48,168.35,123.14,168.43,122.8,168.43z"/>
		</g>
		<g>
			<path class="st2" d="M137.73,224.58l-0.04-32L137.73,224.58z"/>
			<path d="M137.73,226.72c-1.18,0-2.14-0.95-2.14-2.13l-0.04-32c0-1.18,0.95-2.14,2.13-2.14c0,0,0,0,0,0
				c1.18,0,2.14,0.95,2.14,2.13l0.04,32C139.86,225.76,138.91,226.72,137.73,226.72C137.73,226.72,137.73,226.72,137.73,226.72z"/>
		</g>
		<g>
			<path d="M158.36,345.15c-0.1,0-0.21-0.01-0.31-0.02c-1.17-0.17-1.98-1.26-1.81-2.42c2.78-19.04,12.54-40.82,15.14-46.4l-7.64-8.3
				c-0.48-0.52-0.67-1.24-0.51-1.93c0.16-0.69,0.65-1.25,1.31-1.51l13.87-5.34l33.07-60.22c0.57-1.04,1.86-1.41,2.9-0.84
				c1.03,0.57,1.41,1.87,0.84,2.9l-33.45,60.9c-0.24,0.44-0.63,0.78-1.11,0.96l-11.67,4.49l6.48,7.05c0.59,0.65,0.73,1.59,0.35,2.38
				c-0.12,0.25-12.33,25.56-15.38,46.46C160.32,344.39,159.41,345.15,158.36,345.15z"/>
		</g>
		<g>
			<path d="M211.42,341.96c-0.01,0-0.01,0-0.02,0c-1.18-0.01-2.13-0.98-2.12-2.16l0.31-32.44c0.01-1.17,0.97-2.12,2.14-2.12
				c0.01,0,0.01,0,0.02,0c1.18,0.01,2.13,0.98,2.12,2.16l-0.31,32.44C213.54,341.01,212.59,341.96,211.42,341.96z"/>
		</g>
		<g>
			<path d="M90.86,323.48c-0.97,0-1.85-0.66-2.08-1.65c-2.04-8.66-3.55-21.35-4.45-28.93c-0.35-2.91-0.7-5.93-0.84-6.47
				c-0.4-1.21-1.16-3.46,10.53-10.66l-11.3-6.22c-0.96-0.53-1.36-1.69-0.94-2.69c5.84-14.02,31.12-50.71,32.19-52.26
				c0.67-0.97,2-1.21,2.97-0.55c0.97,0.67,1.22,2,0.55,2.97c-0.25,0.36-24.06,34.92-30.99,49.73l12.84,7.07
				c0.68,0.37,1.1,1.08,1.11,1.85c0.01,0.77-0.4,1.49-1.06,1.87c-4.88,2.84-10.5,6.68-11.67,8.25c0.19,0.98,0.41,2.86,0.86,6.6
				c0.89,7.49,2.38,20.02,4.36,28.45c0.27,1.15-0.44,2.3-1.59,2.57C91.18,323.46,91.02,323.48,90.86,323.48z"/>
		</g>
	</g>
</g>
</svg>
