<?xml version="1.0" encoding="utf-8"?>
<!-- Generator: Adobe Illustrator 25.0.0, SVG Export Plug-In . SVG Version: 6.00 Build 0)  -->
<svg version="1.1" xmlns="http://www.w3.org/2000/svg" xmlns:xlink="http://www.w3.org/1999/xlink" x="0px" y="0px"
	 viewBox="0 0 345.07 345.07" style="enable-background:new 0 0 345.07 345.07;" xml:space="preserve">
<style type="text/css">
	.st0{fill:#F6E1DC;}
	.st1{fill:#F0AF9B;}
	.st2{fill:#FFFFFF;}
	.st3{fill:#080717;}
	.st4{fill:none;stroke:#85BAC6;stroke-width:0.4121;stroke-miterlimit:10;}
	.st5{fill:#F2ECDE;}
	.st6{fill:#85BAC6;}
	.st7{fill:#FCDEDE;}
	.st8{fill:#AAD2DC;}
	.st9{fill:#F5F5F5;}
	.st10{fill:#E8EDC5;}
	.st11{fill:#B9D2D7;}
	.st12{fill:#FFFFFF;stroke:#000000;stroke-width:2;stroke-linecap:round;stroke-linejoin:round;stroke-miterlimit:10;}
	.st13{fill:#CEE1E7;}
	.st14{fill:#EDE6E4;}
	.st15{fill:#FDE3EC;}
	.st16{fill:#FDEDE0;}
	.st17{fill:#C7E1E0;}
	.st18{fill:#EFCBBF;}
	.st19{fill:#23285C;}
	.st20{fill:#010101;}
	.st21{fill:#C6E0F5;}
	.st22{fill:#DDD6CC;}
	.st23{fill:#E0E0E0;}
	.st24{fill:#F3F3F3;}
</style>
<g id="Layer_3">
</g>
<g id="_x3C_Layer_x3E_">
	<g>

			<ellipse transform="matrix(0.7071 -0.7071 0.7071 0.7071 -71.4658 172.5338)" class="st5" cx="172.53" cy="172.53" rx="172.53" ry="172.53"/>
		<path class="st3" d="M307.57,279.87c-6.39-21.62-26.38-37.4-50.06-37.4H91.2c-24.91,0-45.74,17.45-50.94,40.8
			c31.65,37.77,79.15,61.8,132.28,61.8C227.24,345.07,275.96,319.58,307.57,279.87z"/>
		<g>
			<path d="M220.32,213.48c-32.08,0-58.18-26.1-58.18-58.18c0-32.08,26.1-58.18,58.18-58.18c32.08,0,58.18,26.1,58.18,58.18
				C278.5,187.38,252.4,213.48,220.32,213.48z M220.32,101.39c-29.72,0-53.91,24.18-53.91,53.91c0,29.72,24.18,53.91,53.91,53.91
				c29.72,0,53.91-24.18,53.91-53.91C274.22,125.58,250.04,101.39,220.32,101.39z"/>
		</g>

			<ellipse transform="matrix(0.7071 -0.7071 0.7071 0.7071 -53.7618 202.9503)" class="st3" cx="218.1" cy="166.37" rx="56.04" ry="56.04"/>
		<g>
			<path class="st2" d="M185.36,278.29h-45.31c-11.01,0-19.93-8.92-19.93-19.93V125.96c0-11.01,8.92-19.93,19.93-19.93h45.31
				c11.01,0,19.93,8.92,19.93,19.93v132.39C205.29,269.36,196.37,278.29,185.36,278.29z"/>
			<path d="M162.7,280.42c-24.66,0-44.72-20.06-44.72-44.72v-87.08c0-24.66,20.06-44.72,44.72-44.72s44.72,20.06,44.72,44.72v87.08
				C207.43,260.36,187.37,280.42,162.7,280.42z M162.7,108.17c-22.3,0-40.45,18.15-40.45,40.45v87.08
				c0,22.3,18.15,40.45,40.45,40.45s40.45-18.15,40.45-40.45v-87.08C203.16,126.32,185.01,108.17,162.7,108.17z"/>
		</g>
		<g>
			<path class="st2" d="M175.49,217.3c-9.52,4.84-20.54,6.99-31.94,5.57l0,0c-30.39-3.78-51.97-31.48-48.19-61.88l7.35-59.07
				c3.78-30.39,31.48-51.97,61.88-48.19h0c30.39,3.78,51.97,31.48,48.19,61.88L175.49,217.3z"/>
			<path d="M150.47,225.44c-2.39,0-4.78-0.15-7.18-0.45c-31.51-3.92-53.96-32.75-50.04-64.26l7.35-59.07
				c3.92-31.51,32.74-53.98,64.26-50.04c15.27,1.9,28.88,9.63,38.33,21.76c9.45,12.14,13.61,27.23,11.71,42.5
				c-0.15,1.17-1.22,2-2.38,1.86c-1.17-0.15-2-1.21-1.86-2.38c3.63-29.17-17.16-55.86-46.33-59.49
				c-29.17-3.63-55.86,17.16-59.49,46.33l-7.35,59.07c-3.63,29.17,17.16,55.86,46.33,59.49c10.6,1.32,21.22-0.53,30.71-5.36
				c1.05-0.53,2.34-0.11,2.87,0.94c0.53,1.05,0.11,2.34-0.94,2.87C168.36,223.32,159.49,225.44,150.47,225.44z"/>
		</g>
		<path class="st3" d="M102.71,101.93l-0.42,3.39c24.1-0.59,43.46-20.27,43.46-44.51c0-2.05-0.19-4.05-0.45-6.02
			C123.25,59.87,105.66,78.17,102.71,101.93z"/>
		<path class="st3" d="M164.59,53.74c-9.59-1.19-18.9,0.15-27.29,3.48c-3.61,7.4-5.69,15.69-5.69,24.47
			c0,30.95,25.09,56.05,56.04,56.05c7.79,0,15.21-1.6,21.95-4.47l3.17-17.66C216.55,85.22,194.98,57.52,164.59,53.74z"/>
		<g>
			<path class="st2" d="M188.07,152.4c1.92-10.84,12.26-18.06,23.09-16.15c10.84,1.92,18.06,12.26,16.15,23.09
				c-1.92,10.84-12.26,18.06-23.09,16.15L188.07,152.4z"/>
			<path d="M207.7,177.94c-1.27,0-2.56-0.11-3.86-0.34c-1.16-0.21-1.94-1.31-1.73-2.48c0.21-1.16,1.31-1.93,2.48-1.73
				c9.66,1.71,18.91-4.76,20.62-14.41c1.71-9.66-4.76-18.91-14.41-20.62c-9.66-1.71-18.91,4.76-20.62,14.41
				c-0.21,1.16-1.31,1.94-2.48,1.73c-1.16-0.21-1.94-1.31-1.73-2.48c2.12-11.98,13.59-19.99,25.57-17.88
				c11.98,2.12,20,13.59,17.88,25.57C227.52,170.4,218.19,177.94,207.7,177.94z"/>
		</g>
		<g>
			<path d="M127.3,179.52c-1.13,0-2.08-0.89-2.13-2.03c-0.06-1.18,0.85-2.18,2.03-2.24c4.38-0.21,8.57-2.42,11.23-5.9
				c0.71-0.94,2.05-1.12,3-0.4c0.94,0.72,1.12,2.06,0.4,3c-3.41,4.47-8.8,7.31-14.43,7.58C127.37,179.52,127.33,179.52,127.3,179.52
				z"/>
		</g>
		<g>
			<path d="M126.56,161.68c-0.12,0-0.24-0.01-0.36-0.03c-1.16-0.2-1.94-1.3-1.74-2.47l3.57-20.78c0.2-1.16,1.3-1.96,2.47-1.74
				c1.16,0.2,1.94,1.3,1.75,2.47l-3.57,20.78C128.49,160.94,127.58,161.68,126.56,161.68z"/>
		</g>
		<g>
			<path d="M106.87,142.25c-0.62,0-1.24-0.27-1.67-0.8c-0.74-0.92-0.59-2.26,0.32-3c3.97-3.2,7.62-3.76,12.59-1.93
				c1.11,0.41,1.68,1.63,1.27,2.74c-0.41,1.11-1.63,1.68-2.74,1.27c-4-1.47-5.98-0.73-8.44,1.24
				C107.82,142.1,107.34,142.25,106.87,142.25z"/>
		</g>
		<g>
			<path d="M156.9,149.05c-0.74,0-1.45-0.38-1.85-1.06c-1.73-2.97-5.67-4.56-8.96-3.61c-1.14,0.33-2.32-0.33-2.64-1.47
				c-0.32-1.14,0.33-2.32,1.47-2.64c5.18-1.48,11.13,0.92,13.83,5.58c0.59,1.02,0.25,2.33-0.78,2.92
				C157.63,148.95,157.26,149.05,156.9,149.05z"/>
		</g>
		<g>
			<path d="M196.73,161.48c-0.26,0-0.52-0.05-0.77-0.15c-1.1-0.43-1.65-1.66-1.22-2.76l0.08-0.22c1.11-2.87,2.25-5.83,4.3-8.37
				c3.23-4,8.59-4.5,12.22-3.72c3.03,0.66,5.13,2.19,5.62,4.1c0.29,1.14-0.4,2.31-1.54,2.6c-1.14,0.29-2.31-0.4-2.6-1.54
				c-0.17-0.22-1.64-1.07-3.98-1.19c-1.28-0.07-4.46,0.04-6.39,2.44c-1.63,2.02-2.61,4.55-3.64,7.22l-0.08,0.22
				C198.4,160.96,197.59,161.48,196.73,161.48z"/>
		</g>
	</g>
</g>
</svg>
