<svg width="24" height="22" viewBox="0 0 24 22" fill="none" xmlns="http://www.w3.org/2000/svg">
<path d="M23.0587 14.0906L22.373 8.32362V8.31907V8.31452C22.373 8.30997 22.373 8.30542 22.373 8.30542C22.373 8.30542 22.373 8.30542 22.373 8.30086C22.373 8.29631 22.373 8.29176 22.3684 8.29176V8.28721C22.3684 8.28266 22.3638 8.27811 22.3638 8.27811C22.3638 8.27811 22.3638 8.27811 22.3638 8.27355C22.3638 8.269 22.3592 8.269 22.3592 8.26445C22.3592 8.2599 22.3546 8.2599 22.3546 8.25535C22.3546 8.25535 22.3546 8.2508 22.35 8.2508C22.35 8.24624 22.3454 8.24624 22.3454 8.24169C22.3454 8.24169 22.3454 8.24169 22.3454 8.23714C22.3454 8.23259 22.3408 8.23259 22.3362 8.22804C22.3316 8.22349 22.3316 8.22349 22.327 8.21894C22.327 8.21894 22.327 8.21894 22.3224 8.21438L22.3178 8.20983L17.6511 3.19845C17.6511 3.1939 17.6465 3.1939 17.6465 3.1939C17.6418 3.1848 17.6326 3.18025 17.6234 3.17569C17.6188 3.17569 17.6188 3.17114 17.6142 3.17114H17.6096C17.605 3.16659 17.605 3.16659 17.6004 3.16659C17.5958 3.16659 17.5958 3.16204 17.5912 3.16204C17.5866 3.16204 17.582 3.15749 17.5774 3.15749C17.5728 3.15749 17.5682 3.15294 17.5682 3.15294H17.5636C17.559 3.15294 17.559 3.15294 17.5544 3.15294C17.5544 3.15294 17.5544 3.15294 17.5498 3.15294L7.12564 1.00455H7.12103C7.11183 1 7.09802 1 7.08421 1C7.07961 1 7.07501 1 7.07041 1C7.06581 1 7.0612 1 7.0612 1C7.052 1 7.0474 1.00455 7.03819 1.00455C7.03359 1.00455 7.02899 1.0091 7.02438 1.0091C7.01518 1.0091 7.01058 1.01365 7.00137 1.01821H6.99677C6.99217 1.01821 6.98757 1.02276 6.98296 1.02276C6.97836 1.02276 6.97376 1.02731 6.97376 1.02731C6.96916 1.03186 6.96456 1.03186 6.95995 1.03641C6.95535 1.04096 6.95075 1.04096 6.95075 1.04552L6.94615 1.05007L1.05063 6.53482C1.04602 6.53937 1.04602 6.53937 1.04142 6.54392C1.03682 6.54848 1.03682 6.54848 1.03682 6.55303C1.03682 6.55758 1.03222 6.55758 1.03222 6.56213C1.02761 6.56668 1.02301 6.57123 1.02301 6.57578C1.02301 6.58034 1.01841 6.58034 1.01841 6.58489C1.01381 6.58944 1.01381 6.59854 1.0092 6.6031C1.0092 6.60765 1.0046 6.60765 1.0046 6.6122C1 6.61675 1 6.62585 1 6.6304C1 6.63496 1 6.63496 1 6.63951C1 6.64406 1 6.64406 1 6.64861C1 6.65316 1 6.65771 1 6.66227C1 6.66682 1 6.67137 1 6.67592C1 6.68047 1 6.68503 1 6.68958C1 6.69413 1 6.69868 1 6.70323C1 6.70778 1 6.71234 1 6.71689C1 6.72144 1 6.72599 1.0046 6.73054V6.73509L2.43591 12.1971V12.2062C2.43591 12.2107 2.44051 12.2153 2.44051 12.2198C2.45432 12.2563 2.47273 12.2836 2.50495 12.3063C2.50955 12.3109 2.50955 12.3109 2.51415 12.3154C2.51875 12.32 2.52336 12.32 2.52796 12.3245C2.53256 12.3245 2.53716 12.3291 2.53716 12.3291C2.54637 12.3336 2.55557 12.3382 2.56017 12.3382C2.56478 12.3382 2.56938 12.3427 2.57398 12.3427C2.57858 12.3427 2.58318 12.3427 2.58779 12.3473H2.59239L4.93495 12.807L7.23149 15.6336C7.23609 15.6381 7.24069 15.6427 7.24069 15.6472C7.24069 15.6472 7.24069 15.6472 7.2453 15.6518C7.2499 15.6563 7.2545 15.6609 7.2591 15.6609C7.27291 15.67 7.28672 15.6791 7.30052 15.6882C7.30512 15.6882 7.30512 15.6928 7.30973 15.6928C7.31433 15.6928 7.31433 15.6973 7.31893 15.6973C7.32353 15.6973 7.32353 15.6973 7.32814 15.7019C7.33274 15.7019 7.33274 15.7019 7.33734 15.7064C7.34194 15.7064 7.34654 15.7064 7.35115 15.711C7.35575 15.711 7.35575 15.711 7.36035 15.711C7.36495 15.711 7.36495 15.711 7.36956 15.711L10.6832 16.1115L12.7174 19.3022C12.7266 19.3159 12.7358 19.3295 12.7496 19.3386C12.7542 19.3432 12.7542 19.3432 12.7588 19.3432C12.768 19.3523 12.7818 19.3614 12.791 19.366C12.7956 19.366 12.7956 19.3705 12.8002 19.3705C12.8095 19.3751 12.8141 19.3751 12.8233 19.3796C12.8279 19.3796 12.8325 19.3842 12.8371 19.3842C12.8417 19.3842 12.8417 19.3842 12.8463 19.3842C12.8601 19.3887 12.8693 19.3887 12.8831 19.3887C12.8969 19.3887 12.9153 19.3887 12.9337 19.3842C12.9521 19.3796 12.9705 19.3705 12.9843 19.3614L12.9889 19.3705L14.0705 20.9226C14.1073 20.9772 14.1671 21.0046 14.2316 21.0046C14.2454 21.0046 14.2592 21.0046 14.273 21L16.1599 20.5812C16.2474 20.563 16.3072 20.4902 16.3118 20.3992L16.3992 18.5057L19.469 17.7319H19.4736C19.4782 17.7319 19.4782 17.7319 19.4828 17.7319C19.4874 17.7319 19.4874 17.7319 19.492 17.7274C19.5058 17.7228 19.5196 17.7183 19.5288 17.7091C19.5334 17.7091 19.5334 17.7046 19.538 17.7046C19.5426 17.7046 19.5426 17.7 19.5472 17.7C19.5564 17.6955 19.561 17.6864 19.5702 17.6818L19.5748 17.6773C19.584 17.6682 19.5932 17.6545 19.5978 17.6409C19.5978 17.6409 19.5978 17.6363 19.6024 17.6363C19.6024 17.6318 19.607 17.6272 19.607 17.6227L20.2605 16.0569L22.9805 14.2817C23.0357 14.2362 23.0679 14.1634 23.0587 14.0906ZM21.8253 8.25535L19.966 8.84706C19.7957 8.54665 19.4736 8.34638 19.1008 8.34638C19.0824 8.34638 19.064 8.34638 19.0455 8.34638L17.8996 4.03596L21.8253 8.25535ZM17.605 12.8525C17.5728 12.848 17.5406 12.848 17.5084 12.848C17.2184 12.848 16.9607 12.9936 16.8042 13.2121L12.5747 11.5826C12.5839 11.5325 12.5885 11.4825 12.5885 11.4279C12.5885 11.4051 12.5885 11.3823 12.5839 11.3641L18.2217 9.77105C18.3046 9.93036 18.4334 10.0669 18.5853 10.1579L17.605 12.8525ZM18.0008 13.6946C18.0008 13.8175 17.9548 13.9267 17.8812 14.0132C17.7937 14.1133 17.6695 14.1771 17.5268 14.1862C17.5176 14.1862 17.513 14.1862 17.5038 14.1862C17.4347 14.1862 17.3749 14.1725 17.3151 14.1497C17.1908 14.0997 17.0896 13.9995 17.0436 13.8721C17.0251 13.822 17.0159 13.772 17.0113 13.7173C17.0113 13.7128 17.0113 13.7037 17.0113 13.6991C17.0113 13.5671 17.0666 13.4442 17.154 13.3532C17.2368 13.2713 17.3519 13.2167 17.4762 13.2076C17.4854 13.2076 17.4946 13.2076 17.5084 13.2076C17.6372 13.2076 17.7569 13.2576 17.8489 13.3396C17.941 13.426 18.0008 13.5535 18.0008 13.6946ZM14.9909 15.843C14.816 15.7201 14.5997 15.6472 14.365 15.6472C14.2592 15.6472 14.1533 15.6609 14.0567 15.6928L12.2342 12.1652C12.3124 12.1061 12.3768 12.0332 12.4321 11.9513L16.6616 13.5808C16.657 13.6172 16.6524 13.6582 16.6524 13.6991C16.6524 13.8584 16.6984 14.0041 16.772 14.1315L14.9909 15.843ZM15.0554 16.7169C15.0554 16.8216 15.0324 16.9263 14.9863 17.0173C14.8759 17.2449 14.6366 17.4042 14.3604 17.4042C14.3006 17.4042 14.2454 17.3951 14.1855 17.3814C14.0521 17.3496 13.937 17.2767 13.8496 17.1812C13.7345 17.0583 13.6655 16.8944 13.6655 16.7169C13.6655 16.5212 13.7483 16.3436 13.8818 16.2208C13.9784 16.1297 14.0981 16.0706 14.2316 16.0432C14.273 16.0341 14.3144 16.0296 14.3604 16.0296C14.4847 16.0296 14.5997 16.0614 14.701 16.1161C14.816 16.1798 14.9127 16.2754 14.9725 16.3937C15.0093 16.4665 15.037 16.5439 15.0462 16.6304C15.0554 16.6577 15.0554 16.685 15.0554 16.7169ZM12.2158 11.4324C12.2158 11.5781 12.1605 11.7055 12.0731 11.8056C12.0685 11.8102 12.0639 11.8147 12.0593 11.8193C11.9718 11.9103 11.8614 11.9741 11.7325 11.9923L11.7279 12.0241L11.7141 11.9968C11.6911 12.0014 11.6681 12.0014 11.6405 12.0014C11.5346 12.0014 11.4334 11.9741 11.3459 11.924C11.1756 11.8239 11.0606 11.6418 11.0606 11.4324C11.0606 11.2549 11.1434 11.091 11.2769 10.9863C11.3735 10.909 11.5024 10.8589 11.6405 10.8589C11.6451 10.8589 11.6451 10.8589 11.6497 10.8589C11.7003 10.8589 11.7463 10.868 11.7923 10.8771C11.9212 10.9135 12.0317 10.9909 12.1099 11.0956L12.1237 11.091L12.1145 11.1001C12.1743 11.2003 12.2158 11.3141 12.2158 11.4324ZM12.0133 10.5721C11.8982 10.5221 11.7739 10.4948 11.6405 10.4948C11.6037 10.4948 11.5622 10.4993 11.5254 10.5039L10.9455 8.83341C11.171 8.68776 11.3229 8.43741 11.3229 8.15066C11.3229 8.10059 11.3183 8.04597 11.3091 7.9959L14.6688 6.46655C14.7102 6.53027 14.7608 6.58489 14.8114 6.63951L12.0133 10.5721ZM9.78575 8.54665L7.89882 10.299L9.96524 5.34229L9.97445 5.31953L9.97905 5.34229L10.2138 7.39053C9.90081 7.50432 9.6799 7.80018 9.6799 8.15066C9.6799 8.29631 9.72132 8.42831 9.78575 8.54665ZM14.5031 6.11607L11.1434 7.64543C11.0146 7.48612 10.8259 7.37688 10.6096 7.34957L10.3748 5.30132C10.5635 5.23305 10.72 5.09194 10.8121 4.91443L14.4709 5.74283C14.4709 5.76559 14.4709 5.78835 14.4709 5.81111C14.4617 5.91579 14.4755 6.01593 14.5031 6.11607ZM10.4807 4.68229C10.4623 4.73236 10.4347 4.77788 10.4025 4.81884C10.3794 4.84615 10.3564 4.86436 10.3288 4.88712C10.2598 4.93264 10.1815 4.95995 10.0941 4.95995C9.96524 4.95995 9.85019 4.90077 9.77195 4.80974C9.71212 4.73691 9.6799 4.65043 9.6799 4.5503C9.6799 4.50023 9.68911 4.45471 9.70751 4.40919C9.75354 4.28175 9.86399 4.18161 10.0021 4.1543C10.0343 4.1452 10.0665 4.1452 10.0987 4.1452C10.2322 4.1452 10.3518 4.20892 10.4255 4.30451C10.4577 4.34547 10.4807 4.39554 10.4991 4.44561C10.5083 4.48202 10.5129 4.51843 10.5129 4.55485C10.4991 4.59581 10.4945 4.64133 10.4807 4.68229ZM10.2598 7.75466C10.3288 7.7137 10.4163 7.68639 10.5037 7.68639C10.5543 7.68639 10.605 7.69549 10.651 7.70915C10.7108 7.72736 10.766 7.75922 10.8121 7.79563C10.9133 7.88211 10.9777 8.00501 10.9777 8.15066C10.9777 8.28266 10.9225 8.401 10.8305 8.48748C10.7476 8.56486 10.6326 8.61493 10.5083 8.61493C10.4945 8.61493 10.4761 8.61493 10.4623 8.61038C10.4163 8.60583 10.3748 8.59672 10.3334 8.57852C10.2092 8.52845 10.1079 8.42376 10.0665 8.29631C10.0527 8.2508 10.0435 8.20073 10.0435 8.14611C10.0297 7.98225 10.1217 7.83204 10.2598 7.75466ZM15.1336 6.86254C15.2901 6.93537 15.4604 6.97633 15.6445 6.97633C15.893 6.97633 16.1231 6.89895 16.3164 6.76695L18.2908 8.76969C18.1803 8.92899 18.1159 9.11561 18.1159 9.32499C18.1159 9.3523 18.1159 9.37506 18.1205 9.40237L12.4827 10.9954C12.4459 10.9226 12.3952 10.8543 12.34 10.7952L15.1336 6.86254ZM14.8897 5.80655C14.8897 5.67911 14.9219 5.56076 14.9771 5.45608C15.106 5.21939 15.3545 5.06008 15.6445 5.06008C16.0587 5.06008 16.3992 5.39235 16.3992 5.80655C16.3992 5.94766 16.3624 6.0751 16.2934 6.18889C16.2243 6.30269 16.1277 6.39372 16.0126 6.45744C15.9022 6.51661 15.7779 6.55303 15.6445 6.55303C15.5524 6.55303 15.465 6.53937 15.3867 6.50751C15.1382 6.41648 14.9495 6.198 14.9035 5.934C14.8989 5.90214 14.8943 5.87028 14.8943 5.83842C14.8897 5.82931 14.8897 5.82021 14.8897 5.80655ZM18.5853 9.67547C18.5163 9.57533 18.4795 9.45699 18.4795 9.32499C18.4795 9.31588 18.4795 9.30678 18.4795 9.30223C18.4841 9.20665 18.5071 9.12016 18.5485 9.03823C18.5991 8.94265 18.6728 8.86072 18.7648 8.8061C18.7878 8.79244 18.8062 8.77879 18.8292 8.76969C18.9121 8.72872 19.0041 8.70596 19.1054 8.70596C19.1192 8.70596 19.133 8.70596 19.1422 8.70596C19.3355 8.71507 19.5058 8.8152 19.6116 8.96086C19.6853 9.06554 19.7313 9.18844 19.7313 9.32499V9.32954C19.7313 9.57078 19.5886 9.78016 19.3861 9.88029C19.3033 9.92126 19.2066 9.94401 19.1054 9.94401C19.1008 9.94401 19.0916 9.94401 19.087 9.94401C19.0547 9.94401 19.0271 9.93946 18.9995 9.93491C18.8937 9.91671 18.797 9.87574 18.7188 9.81202C18.6682 9.7756 18.6221 9.72554 18.5853 9.67547ZM18.6682 8.44652C18.6313 8.46472 18.5991 8.48293 18.5669 8.50114L16.5971 6.49841C16.7398 6.30724 16.8272 6.066 16.8272 5.80655C16.8272 5.16022 16.298 4.63678 15.6445 4.63678C15.152 4.63678 14.7286 4.93719 14.5537 5.36049L11.102 4.57761L17.3657 3.54893L18.6682 8.44652ZM16.4407 3.30769L10.8259 4.23168C10.7016 3.94948 10.4163 3.7492 10.0849 3.7492C9.95144 3.7492 9.82257 3.78106 9.71212 3.84024L7.62268 1.50068L16.4407 3.30769ZM7.18086 1.59627L9.41757 4.09968C9.33013 4.22713 9.2749 4.38188 9.2749 4.5503C9.2749 4.81429 9.40376 5.04643 9.60166 5.19208L7.48922 10.2581C7.4478 10.2535 7.41098 10.249 7.36956 10.249C7.30973 10.249 7.2499 10.2535 7.19467 10.2672L6.15916 8.20983C6.42609 8.01411 6.60098 7.69549 6.60098 7.34046C6.60098 6.9035 6.33864 6.52572 5.96126 6.35731L7.18086 1.59627ZM5.97967 7.8457C5.88302 7.93218 5.76336 7.9959 5.62989 8.01866C5.58847 8.02776 5.55166 8.02776 5.51023 8.02776C5.45041 8.02776 5.39058 8.01866 5.33535 8.00501C5.20188 7.97315 5.08682 7.90032 4.99938 7.80473C4.90273 7.7046 4.8383 7.5726 4.81989 7.42695C4.81529 7.39964 4.81529 7.36777 4.81529 7.33591C4.81529 7.23122 4.8383 7.13109 4.87972 7.04461C4.98557 6.81702 5.21569 6.65771 5.48262 6.64861C5.49183 6.64861 5.50103 6.64861 5.51023 6.64861C5.6391 6.64861 5.75876 6.68502 5.86461 6.7442C6.06711 6.86254 6.20518 7.08557 6.20518 7.33591C6.20058 7.54074 6.11774 7.7228 5.97967 7.8457ZM6.72984 1.79199L5.58387 6.26627C5.56086 6.26627 5.53325 6.26172 5.51023 6.26172C5.0316 6.26172 4.6266 6.56668 4.47472 6.98999L1.6121 6.54848L6.72984 1.79199ZM1.44642 6.91261L4.41029 7.36777C4.41949 7.68184 4.56217 7.96404 4.78768 8.15521L2.68904 11.6509L1.44642 6.91261ZM5.12364 8.36004C5.2433 8.40555 5.37217 8.42831 5.50563 8.42831C5.61149 8.42831 5.71274 8.41466 5.80938 8.38735L6.8449 10.4447C6.67001 10.5904 6.55955 10.8088 6.55495 11.0501L3.0158 11.8603L5.12364 8.36004ZM3.54966 12.1334L6.38927 11.4825L4.99018 12.4156L3.54966 12.1334ZM7.17626 14.9554L5.31694 12.6659L6.82649 11.6554C6.92314 11.7419 7.04279 11.8056 7.17626 11.8421V14.9554ZM7.37416 11.4916C7.30512 11.4916 7.23609 11.4734 7.17626 11.4461L7.15785 11.437C7.11183 11.4096 7.07041 11.3778 7.03359 11.3368C6.98296 11.2731 6.94615 11.2003 6.93694 11.1138C6.93234 11.0956 6.93234 11.0774 6.93234 11.0592C6.93234 11.0228 6.93694 10.9909 6.94615 10.959C6.95995 10.8999 6.98757 10.8498 7.01978 10.7997C7.09342 10.7041 7.20848 10.6359 7.33734 10.6268L7.35115 10.5904L7.36956 10.6268C7.42018 10.6268 7.47081 10.6359 7.51683 10.6541C7.58586 10.6814 7.6503 10.7223 7.69632 10.777C7.73774 10.8225 7.76535 10.8771 7.78376 10.9363C7.79757 10.9772 7.80217 11.0182 7.80217 11.0592C7.80217 11.132 7.78376 11.2048 7.74694 11.264C7.70552 11.3414 7.64109 11.4051 7.55825 11.4415C7.51683 11.4643 7.47081 11.4779 7.42478 11.4825C7.41558 11.487 7.39257 11.4916 7.37416 11.4916ZM7.57206 15.3332V11.8421C7.60427 11.833 7.63649 11.8239 7.6687 11.8147L10.3748 15.6791L7.57206 15.3332ZM7.98626 11.5917C8.11513 11.4506 8.18876 11.264 8.18876 11.0592C8.18876 10.9135 8.15194 10.7815 8.08291 10.6632L10.0527 8.83341C10.1816 8.91534 10.3334 8.96541 10.4991 8.96541C10.5221 8.96541 10.5451 8.96541 10.5727 8.96086L11.1526 10.6313C10.8765 10.7952 10.6924 11.0956 10.6924 11.437C10.6924 11.8284 10.9317 12.1607 11.2769 12.3018L10.6786 15.4288L7.98626 11.5917ZM12.8647 18.8198L10.9916 15.8839L11.6589 12.3746C11.7371 12.3746 11.8108 12.3609 11.8844 12.3427L13.7069 15.8703C13.4492 16.066 13.2835 16.371 13.2835 16.7169C13.2835 17.0355 13.4262 17.3223 13.6517 17.518L12.8647 18.8198ZM15.916 20.2308L14.3052 20.5903L13.3801 19.2613L15.9942 18.6013L15.916 20.2308ZM13.2835 18.8835L13.9876 17.7137C14.1027 17.7592 14.2316 17.782 14.365 17.782C14.8345 17.782 15.2303 17.4861 15.3821 17.0765L18.4657 17.5817L13.2835 18.8835ZM15.442 16.6941C15.4374 16.4802 15.3729 16.2845 15.2625 16.1206L17.0482 14.4046C17.1816 14.4866 17.3381 14.5366 17.5084 14.5366C17.5728 14.5366 17.6372 14.5275 17.6971 14.5139L19.0732 17.2813L15.442 16.6941ZM19.3999 17.0674L18.0468 14.3455C18.2355 14.1907 18.3598 13.954 18.3598 13.6946C18.3598 13.3987 18.2033 13.1393 17.9732 12.9845L18.9581 10.2945C18.9903 10.299 19.0225 10.3036 19.0547 10.3036L19.897 15.893L19.3999 17.0674ZM20.2421 15.5926L19.4413 10.249C19.8233 10.1124 20.0949 9.75284 20.0949 9.32499C20.0949 9.28858 20.0949 9.25216 20.0903 9.21575L22.014 8.60127L22.6583 14.0132L20.2421 15.5926Z" fill="#7F35FD" stroke="#7F35FD" stroke-width="0.325758" stroke-linejoin="round"/>
</svg>
