<svg width="32" height="32" viewBox="0 0 32 32" fill="none" xmlns="http://www.w3.org/2000/svg">
<path d="M26.2078 9.73763C26.435 9.38575 26.6922 8.97739 26.9048 8.65157C26.9964 8.50234 27.0232 8.32499 26.9796 8.15722C26.936 7.98946 26.8253 7.84451 26.6713 7.75319L22.1423 5.09887C22.0635 5.05261 21.9759 5.02173 21.8845 5.00805C21.7931 4.99437 21.6998 4.99815 21.6099 5.01918C21.5201 5.04021 21.4355 5.07806 21.3612 5.13052C21.2869 5.18299 21.2242 5.24902 21.177 5.32477C20.9578 5.68183 20.7345 6.03663 20.5073 6.3891C18.7136 9.20937 16.908 8.86531 13.6572 7.3848L9.15197 5.35084C9.06778 5.31274 8.97643 5.29112 8.88331 5.28724C8.79019 5.28336 8.6972 5.2973 8.60983 5.32825C8.52247 5.35919 8.44251 5.40651 8.37469 5.4674C8.30687 5.52828 8.25256 5.60151 8.21497 5.68273L6.05814 10.3276C5.98511 10.487 5.98071 10.6674 6.04589 10.8298C6.11107 10.9923 6.24062 11.124 6.40666 11.1964C7.35461 11.6221 9.23956 12.471 10.9366 13.2478C17.0476 16.068 22.2426 15.8795 26.2078 9.73763Z" fill="#2584FF" stroke="#2584FF" stroke-width="2"/>
<path d="M5.09768 22.3445C5.31006 22.0231 5.56711 21.5948 5.79316 21.2629C9.76184 15.1191 14.9456 14.9323 21.0681 17.7532C22.5734 18.4435 24.0819 19.1272 25.5937 19.8043C25.7596 19.8767 25.889 20.0083 25.9542 20.1708C26.0193 20.3333 26.0149 20.5136 25.9419 20.673L23.7871 25.3173C23.7496 25.3987 23.6953 25.472 23.6275 25.5329C23.5596 25.5939 23.4797 25.6413 23.3923 25.6722C23.3049 25.7032 23.2119 25.7171 23.1187 25.7131C23.0256 25.7092 22.9343 25.6874 22.8501 25.6492L18.3318 23.6189C15.0841 22.136 13.2812 21.7937 11.4882 24.6145C11.2339 25.0124 11.0015 25.3868 10.8201 25.6753C10.7729 25.751 10.7103 25.817 10.6361 25.8695C10.5618 25.922 10.4773 25.9598 10.3876 25.9808C10.2978 26.0018 10.2046 26.0056 10.1132 25.9919C10.0219 25.9783 9.93439 25.9474 9.85573 25.9011L5.33012 23.248C5.17486 23.1565 5.06351 23.0105 5.02004 22.8415C4.97656 22.6726 5.00445 22.4941 5.09768 22.3445Z" fill="#2584FF" stroke="#2584FF" stroke-width="2"/>
</svg>
