<?xml version="1.0" encoding="utf-8"?>
<!-- Generator: Adobe Illustrator 25.0.0, SVG Export Plug-In . SVG Version: 6.00 Build 0)  -->
<svg version="1.1" xmlns="http://www.w3.org/2000/svg" xmlns:xlink="http://www.w3.org/1999/xlink" x="0px" y="0px"
	 viewBox="0 0 345.07 345.07" style="enable-background:new 0 0 345.07 345.07;" xml:space="preserve">
<style type="text/css">
	.st0{fill:#F5F5F5;}
	.st1{fill:#E8EDC5;}
	.st2{fill:#FFFFFF;}
	.st3{fill:#85BAC6;}
	.st4{fill:#F6E1DC;}
	.st5{fill:#080717;}
	.st6{fill:none;stroke:#080717;stroke-width:2;stroke-linecap:round;stroke-linejoin:round;stroke-miterlimit:10;}
	.st7{fill:#F2ECDE;}
	.st8{fill:#C7E1E0;}
	.st9{fill:#FCDEDE;}
	.st10{fill:#EFCBBF;}
	.st11{fill:#CEE1E7;}
	.st12{fill:#FDEDE0;}
	.st13{fill:#B9D2D7;}
	.st14{fill:#EDE6E4;}
	.st15{fill:#FDE3EC;}
	.st16{fill:#DDD6CC;}
	.st17{fill:#F3F3F3;}
	.st18{fill:#E0D5C1;}
	.st19{fill:none;stroke:#000000;stroke-width:2;stroke-linecap:round;stroke-linejoin:round;stroke-miterlimit:10;}
	.st20{fill:#E0E0E0;}
	.st21{fill:#DBDDC0;}
</style>
<g id="Layer_3">
</g>
<g id="_x3C_Layer_x3E_">
	<g>

			<ellipse transform="matrix(0.7071 -0.7071 0.7071 0.7071 -71.4659 172.5338)" class="st4" cx="172.53" cy="172.53" rx="172.53" ry="172.53"/>
		<path d="M222.79,32.32c-47.4-10.12-86.01,8.61-106.11,30.32c-37.97,41.01-37.44,77.83-69.44,118
			c-14.07,17.66-28.35,30.07-40.75,38.71c20.41,72.53,87,125.72,166.05,125.72c31.9,0,61.76-8.69,87.4-23.79
			c3.04-2.55,6.09-5.21,9.15-8.01c0,0-32.24-86.37-8.04-172.82c3.01-10.74,9.23-22.64,14.37-31.38c5.62-9.56,5.89-21.39,0.63-31.16
			C267.14,61.37,255.91,39.39,222.79,32.32z"/>
		<g>

				<rect x="98.66" y="92.7" transform="matrix(0.866 0.5 -0.5 0.866 113.5499 -42.2564)" class="st2" width="73.94" height="196.11"/>
			<path d="M118.62,296.3c-0.37,0-0.74-0.1-1.07-0.29l-64.03-36.97c-1.02-0.59-1.37-1.9-0.78-2.92l98.05-169.84
				c0.59-1.02,1.9-1.37,2.92-0.78l64.04,36.97c0.49,0.28,0.85,0.75,1,1.3c0.15,0.55,0.07,1.13-0.21,1.62l-98.06,169.84
				c-0.28,0.49-0.75,0.85-1.3,1C118.99,296.28,118.8,296.3,118.62,296.3z M57.5,256.41l60.33,34.83l95.92-166.14l-60.33-34.83
				L57.5,256.41z"/>
		</g>
		<g>
			<path class="st2" d="M246.52,69.75c-24.83-11.08-55.49,0.22-78.53,25.86c-4.17-6.88-11.33-11.43-19.48-11.43
				c-12.87,0-23.31,11.34-23.31,25.32c0,12.39,8.2,22.69,19.03,24.87c-18.35,46.29-7.73,94.2,24.92,108.77
				c33.9,15.13,78.7-11.42,100.07-59.3C290.58,135.96,280.42,84.88,246.52,69.75z"/>
			<path d="M189.33,249.49c-7.26,0-14.37-1.42-21.06-4.41c-32.93-14.7-44.53-62.37-26.9-109.25c-10.74-3.37-18.31-14.05-18.31-26.34
				c0-15.14,11.42-27.46,25.45-27.46c7.72,0,14.92,3.74,19.74,10.14c24.1-25.61,54.93-35.18,79.14-24.37
				c34.92,15.58,45.59,68.03,23.77,116.91C253.53,224.22,219.99,249.49,189.33,249.49z M148.51,86.31
				c-11.68,0-21.17,10.4-21.17,23.18c0,11.17,7.28,20.75,17.31,22.78c0.62,0.13,1.15,0.52,1.45,1.08c0.3,0.56,0.34,1.22,0.11,1.81
				c-18.02,45.46-7.56,92.03,23.8,106.03c6.17,2.75,12.72,4.06,19.43,4.06c28.95,0,60.88-24.35,77.81-62.28
				c20.85-46.73,11.16-96.64-21.61-111.26c-23.12-10.32-52.97-0.38-76.07,25.33c-0.45,0.5-1.12,0.76-1.79,0.7
				c-0.67-0.06-1.28-0.44-1.63-1.02C162.22,90.2,155.62,86.31,148.51,86.31z"/>
		</g>
		<path class="st3" d="M23.59,259.58c29.95,51.13,85.42,85.48,148.94,85.48c24.68,0,48.14-5.22,69.37-14.56
			c-4.9-20.32-24-81.15-82.94-116.91C111.04,184.52,58.38,223.36,23.59,259.58z"/>
		<g>
			<path d="M156.01,114.93c-0.98,0-1.87-0.68-2.09-1.68l0,0c-0.02-0.1-2.38-10.41-10.94-13.54c-1.11-0.4-1.68-1.63-1.27-2.74
				c0.4-1.11,1.63-1.68,2.74-1.27c10.8,3.95,13.54,16.13,13.65,16.65c0.25,1.15-0.49,2.29-1.64,2.54
				C156.31,114.91,156.16,114.93,156.01,114.93z"/>
		</g>
		<g>
			<path d="M235.35,188.34c-2.17,0-4.3-0.67-6.09-1.95c-0.96-0.69-1.18-2.02-0.5-2.98c0.69-0.96,2.02-1.18,2.98-0.5
				c1.44,1.03,3.19,1.39,4.93,1.01c1.73-0.38,3.17-1.44,4.05-2.98l8.29-14.5c0.58-1.02,1.89-1.38,2.92-0.8
				c1.02,0.59,1.38,1.89,0.79,2.92l-8.29,14.5c-1.47,2.57-3.96,4.4-6.85,5.03C236.85,188.26,236.1,188.34,235.35,188.34z"/>
		</g>
		<g>
			<path d="M231.31,163.48c-0.09,0-0.19-0.01-0.28-0.02c-1.16-0.15-1.98-1.21-1.85-2.36c0.01-0.11,0.1-1.46-1.06-2.47
				c-1.12-0.98-4.23-2.34-12.41-0.43c-1.15,0.27-2.3-0.45-2.56-1.6c-0.27-1.15,0.45-2.3,1.6-2.57c7.75-1.8,13.23-1.31,16.29,1.47
				c2.25,2.03,2.56,4.8,2.38,6.11C233.29,162.7,232.37,163.48,231.31,163.48z"/>
		</g>
		<g>
			<path d="M265.47,182.77c-1.18,0-2.14-0.96-2.14-2.14c0-1.73-0.43-2.91-1.31-3.61c-1.48-1.18-4.12-0.92-4.92-0.74
				c-1.15,0.26-2.3-0.46-2.56-1.61c-0.26-1.15,0.46-2.3,1.61-2.56c0.53-0.12,5.22-1.09,8.54,1.57c1.33,1.06,2.91,3.13,2.91,6.95
				C267.61,181.82,266.65,182.77,265.47,182.77z"/>
		</g>
		<g>
			<path d="M225.68,196.04c-0.43,0-0.86-0.13-1.24-0.39c-4.18-2.97-6.62-6.6-7.25-10.81c-1.06-6.99,3.39-12.89,3.58-13.13
				c0.72-0.93,2.06-1.11,3-0.4c0.93,0.72,1.11,2.05,0.4,2.99l0,0c-0.04,0.05-3.54,4.75-2.74,9.93c0.46,3,2.31,5.67,5.5,7.93
				c0.96,0.68,1.19,2.02,0.5,2.98C227.01,195.72,226.35,196.04,225.68,196.04z"/>
		</g>
		<path d="M167.36,98.16c0,0,30.53,16.92,60.16,12.79c37.42-5.21,36-15.87,43.58-11.37c14.5,8.61-2.84-33.16-27.47-38.84
			C219,55.05,180.78,62.92,167.36,98.16z"/>
		<g>
			<path d="M221.36,123.51c-25.24,0-39.05-8.45-46.18-15.54c-7.87-7.82-9.6-15.67-9.67-16c-0.24-1.15,0.49-2.29,1.65-2.53
				c1.17-0.24,2.29,0.49,2.53,1.65c0.27,1.2,6.72,28.15,51.68,28.15c19.01,0,29.49-9.88,37.15-17.09
				c5.62-5.29,10.94-10.28,16.43-5.06c0.86,0.81,0.89,2.17,0.08,3.02c-0.81,0.85-2.16,0.89-3.02,0.08
				c-2.26-2.15-4.17-0.93-10.56,5.08C253.73,112.53,242.06,123.51,221.36,123.51z"/>
		</g>
		<path d="M248.6,136.65c0,2.55-5.73,4.62-12.79,4.62c-7.06,0-12.79-2.07-12.79-4.62c0-2.55,5.73-4.62,12.79-4.62
			C242.88,132.03,248.6,134.1,248.6,136.65z"/>
		<path d="M285.11,158.72c-1.28,2.21-6.38,1.65-11.41-1.25c-5.03-2.9-8.07-7.04-6.79-9.25c1.28-2.21,6.38-1.65,11.41,1.25
			C283.35,152.36,286.39,156.51,285.11,158.72z"/>
	</g>
</g>
</svg>
