<?xml version="1.0" encoding="utf-8"?>
<!-- Generator: Adobe Illustrator 25.0.0, SVG Export Plug-In . SVG Version: 6.00 Build 0)  -->
<svg version="1.1" xmlns="http://www.w3.org/2000/svg" xmlns:xlink="http://www.w3.org/1999/xlink" x="0px" y="0px"
	 viewBox="0 0 345.07 345.07" style="enable-background:new 0 0 345.07 345.07;" xml:space="preserve">
<style type="text/css">
	.st0{fill:#F5F5F5;}
	.st1{fill:#E8EDC5;}
	.st2{fill:#FFFFFF;}
	.st3{fill:#85BAC6;}
	.st4{fill:#F6E1DC;}
	.st5{fill:#080717;}
	.st6{fill:none;stroke:#080717;stroke-width:2;stroke-linecap:round;stroke-linejoin:round;stroke-miterlimit:10;}
	.st7{fill:#F2ECDE;}
	.st8{fill:#C7E1E0;}
	.st9{fill:#FCDEDE;}
	.st10{fill:#EFCBBF;}
	.st11{fill:#CEE1E7;}
	.st12{fill:#FDEDE0;}
	.st13{fill:#B9D2D7;}
	.st14{fill:#EDE6E4;}
	.st15{fill:#FDE3EC;}
	.st16{fill:#DDD6CC;}
	.st17{fill:#F3F3F3;}
	.st18{fill:#E0D5C1;}
	.st19{fill:none;stroke:#000000;stroke-width:2;stroke-linecap:round;stroke-linejoin:round;stroke-miterlimit:10;}
	.st20{fill:#E0E0E0;}
	.st21{fill:#DBDDC0;}
</style>
<g id="Layer_3">
</g>
<g id="_x3C_Layer_x3E_">
	<g>

			<ellipse transform="matrix(0.7071 -0.7071 0.7071 0.7071 -71.4658 172.5337)" class="st0" cx="172.53" cy="172.53" rx="172.53" ry="172.53"/>

			<ellipse transform="matrix(0.7071 -0.7071 0.7071 0.7071 -71.4658 172.5337)" class="st17" cx="172.53" cy="172.53" rx="172.53" ry="172.53"/>
		<path class="st3" d="M7.5,222.94c21.57,70.69,87.28,122.13,165.03,122.13c41.89,0,80.28-14.94,110.17-39.77
			c-7.84-56.91-83.61-101.57-175.98-101.57C69.94,203.73,35.79,210.82,7.5,222.94z"/>
		<g>
			<path d="M64.75,237.13c-0.28,0-0.57-0.06-0.84-0.17c-1.09-0.47-1.59-1.72-1.12-2.81c20.93-48.74,60.91-143.62,62.38-153.89
				c0.17-1.17,1.26-1.98,2.42-1.81c1.17,0.17,1.98,1.25,1.81,2.42c-1.91,13.39-60.2,149.19-62.68,154.97
				C66.36,236.65,65.58,237.13,64.75,237.13z"/>
		</g>
		<polygon points="281.52,161.07 279.55,269.1 245.01,268.22 244.03,238.11 236.13,265.56 98.97,251.39 108.84,213.31 88.12,246.96
			72.33,242.54 129.56,92.88 		"/>
		<path d="M198.02,220.51h5.9c43.6,0,78.95-35.35,78.95-78.95v-11.42c0-43.6-35.35-78.95-78.95-78.95h-5.9
			c-43.6,0-78.95,35.35-78.95,78.95v11.42C119.08,185.16,154.42,220.51,198.02,220.51z"/>
		<path d="M163.38,176.08h17.94c28.94,0,52.41-23.46,52.41-52.41V93.18c0-28.94-23.46-52.41-52.41-52.41h-17.94
			c-28.94,0-52.41,23.46-52.41,52.41v30.49C110.97,152.62,134.44,176.08,163.38,176.08z"/>
		<g>
			<path class="st2" d="M127.56,145l-17.23-5.12c-10.52-3.13-16.51-14.19-13.39-24.71l0,0c3.13-10.52,14.19-16.51,24.71-13.39
				l17.23,5.12c10.52,3.13,16.51,14.19,13.39,24.71l0,0C149.14,142.13,138.08,148.13,127.56,145z"/>
			<path d="M133.21,147.96c-2.07,0-4.18-0.3-6.26-0.91l-17.23-5.12c-11.63-3.46-18.28-15.74-14.83-27.37
				c3.46-11.63,15.73-18.29,27.37-14.83l17.23,5.12c5.63,1.67,10.28,5.44,13.08,10.61c2.8,5.17,3.42,11.12,1.74,16.75
				C151.48,141.77,142.7,147.96,133.21,147.96z M116,103.09c-7.65,0-14.72,4.99-17.01,12.68c-2.79,9.37,2.57,19.27,11.95,22.05
				l17.23,5.12l0,0c9.37,2.78,19.27-2.57,22.05-11.95c1.35-4.54,0.85-9.33-1.4-13.5c-2.26-4.16-6-7.2-10.54-8.55l-17.23-5.12
				C119.36,103.33,117.66,103.09,116,103.09z"/>
		</g>
		<g>
			<path class="st2" d="M223.43,170.5l18.99-0.35c11.59-0.21,20.82-9.79,20.61-21.38l0,0c-0.21-11.59-9.79-20.82-21.38-20.61
				l-18.99,0.35c-11.59,0.21-20.82,9.79-20.61,21.38l0,0C202.27,161.49,211.84,170.71,223.43,170.5z"/>
			<path d="M223.04,172.64c-12.56,0-22.89-10.1-23.12-22.71c-0.11-6.18,2.18-12.03,6.47-16.48c4.29-4.45,10.05-6.96,16.23-7.08
				l18.99-0.35c6.14-0.09,12.03,2.18,16.48,6.47c4.45,4.29,6.96,10.05,7.08,16.23c0.11,6.18-2.18,12.03-6.47,16.48
				c-4.29,4.45-10.05,6.96-16.23,7.08l-19,0.35l0,0C223.33,172.64,223.19,172.64,223.04,172.64z M223.43,170.5h0.02H223.43z
				 M242.05,130.29c-0.12,0-0.24,0-0.36,0l-18.99,0.35c-5.04,0.09-9.74,2.14-13.23,5.77c-3.5,3.63-5.37,8.4-5.28,13.44
				c0.19,10.4,8.9,18.72,19.2,18.51l18.99-0.35c5.04-0.09,9.74-2.14,13.23-5.77c3.5-3.63,5.37-8.4,5.28-13.44
				c-0.09-5.04-2.14-9.74-5.77-13.23C251.59,132.16,246.96,130.29,242.05,130.29z"/>
		</g>
		<path class="st2" d="M139.33,302.96L139.33,302.96c-19.22-4.84-30.87-24.35-26.02-43.56L137.1,165
			c4.84-19.22,24.35-30.87,43.56-26.02l0,0c19.22,4.84,30.87,24.35,26.02,43.56l-23.79,94.4
			C178.05,296.15,158.55,307.8,139.33,302.96z"/>
		<path d="M164.91,236.87L164.91,236.87c-19.22-4.84-30.87-24.35-26.02-43.56l0,0c4.84-19.22,24.35-30.87,43.56-26.02l0,0
			c19.22,4.84,30.87,24.35,26.02,43.56l0,0C203.63,230.07,184.13,241.72,164.91,236.87z"/>
		<path class="st2" d="M178.8,217.79L178.8,217.79c34.24,0,62-27.76,62-62V136.1c0-34.24-27.76-62-62-62l0,0
			c-34.24,0-62,27.76-62,62v19.69C116.81,190.03,144.56,217.79,178.8,217.79z"/>
		<g>
			<path d="M178.8,219.93c-14.72,0-29.1-5.11-40.49-14.39c-0.91-0.75-1.05-2.09-0.31-3.01c0.75-0.91,2.09-1.05,3.01-0.31
				c10.63,8.66,24.05,13.43,37.79,13.43c30.46,0,56.02-22.78,59.47-53c0.13-1.17,1.22-2.01,2.36-1.88c1.17,0.13,2.02,1.19,1.88,2.37
				C238.83,195.52,211.43,219.93,178.8,219.93z"/>
		</g>
		<g>
			<path d="M115.18,129.58c-0.12,0-0.23-0.01-0.35-0.03c-1.16-0.19-1.95-1.29-1.76-2.46c1.21-7.23-4.77-10.91-4.83-10.94
				c-1.01-0.61-1.34-1.92-0.73-2.93c0.61-1.01,1.92-1.34,2.93-0.73c0.35,0.21,8.52,5.24,6.84,15.31
				C117.12,128.84,116.21,129.58,115.18,129.58z"/>
		</g>
		<g>
			<path d="M242.91,154.47c-0.07,0-0.15,0-0.23-0.01c-1.17-0.12-2.02-1.18-1.9-2.35c1.07-10.15,10.29-12.82,10.69-12.93
				c1.13-0.3,2.31,0.35,2.63,1.49c0.31,1.13-0.35,2.31-1.48,2.63c-0.29,0.08-6.83,2.05-7.59,9.26
				C244.91,153.66,243.99,154.47,242.91,154.47z"/>
		</g>
		<path d="M196.23,118.72c-0.92,2.38,3.69,6.37,10.28,8.9c6.59,2.54,12.68,2.66,13.6,0.28c0.92-2.38-3.69-6.37-10.28-8.9
			C203.23,116.47,197.14,116.34,196.23,118.72z"/>
		<path d="M148.86,115.31c0.18,2.54,6.03,4.22,13.08,3.73c7.05-0.48,12.62-2.94,12.44-5.49c-0.18-2.54-6.03-4.21-13.08-3.73
			C154.26,110.31,148.69,112.77,148.86,115.31z"/>
		<g>
			<path d="M177.26,158.35c-1.08,0-2.01-0.82-2.12-1.92c-0.12-1.17,0.73-2.22,1.91-2.34c1.77-0.18,3.31-1.07,4.36-2.5
				c1.05-1.43,1.43-3.18,1.07-4.91l-3.38-16.36c-0.24-1.15,0.51-2.29,1.66-2.52c1.16-0.24,2.28,0.5,2.52,1.66l3.38,16.36
				c0.6,2.89-0.06,5.92-1.81,8.3c-1.75,2.38-4.43,3.92-7.37,4.23C177.41,158.35,177.34,158.35,177.26,158.35z"/>
		</g>
		<g>
			<path d="M175.09,172.79c-1.99,0-3.88-0.47-5.65-1.41c-7.21-3.82-9.64-14.12-9.74-14.56c-0.26-1.15,0.45-2.29,1.6-2.56
				c1.15-0.27,2.3,0.45,2.56,1.6c0.02,0.09,2.11,8.85,7.59,11.74c2.24,1.18,4.74,1.21,7.64,0.08c1.1-0.43,2.34,0.11,2.77,1.21
				c0.43,1.1-0.11,2.34-1.21,2.77C178.72,172.42,176.87,172.79,175.09,172.79z"/>
		</g>
		<ellipse transform="matrix(0.866 -0.5 0.5 0.866 -18.2197 89.6605)" cx="158.2" cy="78.83" rx="42.78" ry="19.95"/>
		<g>
			<path d="M146.21,113.33c-0.98,0-1.86-0.68-2.08-1.67c-0.25-1.15,0.47-2.29,1.62-2.55c31.36-6.98,42.56-27.26,46.42-43.06
				c0.28-1.14,1.45-1.84,2.59-1.57c1.15,0.28,1.85,1.44,1.57,2.58c-5.88,23.98-23.51,40.39-49.65,46.21
				C146.52,113.31,146.36,113.33,146.21,113.33z"/>
		</g>
		<path d="M210.67,139.85c0.3,4.26-2.01,7.89-5.16,8.12c-3.15,0.22-5.95-3.05-6.25-7.31c-0.3-4.26,2.01-7.89,5.16-8.12
			C207.57,132.32,210.37,135.59,210.67,139.85z"/>
		<path d="M166.14,134.17c0.3,4.26-2.01,7.89-5.16,8.12c-3.15,0.22-5.95-3.05-6.25-7.31c-0.3-4.26,2.01-7.89,5.16-8.12
			C163.04,126.63,165.84,129.91,166.14,134.17z"/>
	</g>
</g>
</svg>
