<?xml version="1.0" encoding="utf-8"?>
<!-- Generator: Adobe Illustrator 25.0.0, SVG Export Plug-In . SVG Version: 6.00 Build 0)  -->
<svg version="1.1" xmlns="http://www.w3.org/2000/svg" xmlns:xlink="http://www.w3.org/1999/xlink" x="0px" y="0px"
	 viewBox="0 0 345.07 345.07" style="enable-background:new 0 0 345.07 345.07;" xml:space="preserve">
<style type="text/css">
	.st0{fill:#F5F5F5;}
	.st1{fill:#E8EDC5;}
	.st2{fill:#FFFFFF;}
	.st3{fill:#85BAC6;}
	.st4{fill:#F6E1DC;}
	.st5{fill:#080717;}
	.st6{fill:none;stroke:#080717;stroke-width:2;stroke-linecap:round;stroke-linejoin:round;stroke-miterlimit:10;}
	.st7{fill:#F2ECDE;}
	.st8{fill:#C7E1E0;}
	.st9{fill:#FCDEDE;}
	.st10{fill:#EFCBBF;}
	.st11{fill:#CEE1E7;}
	.st12{fill:#FDEDE0;}
	.st13{fill:#B9D2D7;}
	.st14{fill:#EDE6E4;}
	.st15{fill:#FDE3EC;}
	.st16{fill:#DDD6CC;}
	.st17{fill:#F3F3F3;}
	.st18{fill:#E0D5C1;}
	.st19{fill:none;stroke:#000000;stroke-width:2;stroke-linecap:round;stroke-linejoin:round;stroke-miterlimit:10;}
	.st20{fill:#E0E0E0;}
	.st21{fill:#DBDDC0;}
</style>
<g id="Layer_3">
</g>
<g id="_x3C_Layer_x3E_">
	<g>

			<ellipse transform="matrix(0.7071 -0.7071 0.7071 0.7071 -71.4659 172.5338)" class="st16" cx="172.53" cy="172.53" rx="172.53" ry="172.53"/>
		<path d="M271.87,248.58c-15.54-14-36.38-20.59-57.14-18.07L69.06,248.25c-15.47,1.88-29.66,8.68-40.7,19.02
			c30.85,46.85,83.89,77.79,144.17,77.79c54.47,0,103-25.26,134.62-64.68L271.87,248.58z"/>
		<path class="st2" d="M141.25,282.4c34.46,0,62.4-16.83,62.4-37.6c0-4.39-1.26-8.6-3.55-12.51L78.97,247.04
			C80.89,266.77,108.04,282.4,141.25,282.4z"/>
		<path d="M186.47,205.72h-31.75c-36.5,0-66.36-29.86-66.36-66.36v-12.58c0-45.7,37.39-83.09,83.09-83.09l3.48,12.58
			c28.65,0,52.08,23.44,52.08,52.08v56.82C227.01,187.47,208.77,205.72,186.47,205.72z"/>
		<ellipse transform="matrix(0.6782 -0.7349 0.7349 0.6782 0.28 202.2165)" cx="231.02" cy="100.79" rx="33.32" ry="33.32"/>
		<path class="st2" d="M146.82,276.2l-38.81-18.72c-2.55-1.23-3.62-4.3-2.39-6.85l55.31-114.67l62.24,30.02l-48.46,100.47
			C169.7,276.86,157.21,281.22,146.82,276.2z"/>
		<polygon points="148.89,214.22 188.98,236.87 220.79,170.94 208.99,159.15 181.02,145.66 		"/>
		<path class="st2" d="M188.98,221.2h-0.75c-42.64,0-77.54-34.89-77.54-77.54v-0.53c0-31.84,26.05-57.89,57.89-57.89h14.89
			c38.9,0,70.73,31.83,70.73,70.73v0C254.2,191.85,224.85,221.2,188.98,221.2z"/>
		<path d="M158.19,54.01c-36.04,4.58-64.08,34.71-65.41,71.66c8.13,5.4,18.01,8.57,28.67,8.57c27.71,0,50.17-21.37,50.17-47.74
			C171.63,73.95,166.52,62.54,158.19,54.01z"/>
		<path d="M105.88,93.26c-19.03,30.94-13.14,71.68,14.82,95.89c9.3-2.95,17.97-8.65,24.65-16.96c17.37-21.59,14.81-52.49-5.73-69.02
			C129.83,95.3,117.74,92.12,105.88,93.26z"/>

			<ellipse transform="matrix(0.8627 -0.5058 0.5058 0.8627 -73.6971 88.6917)" class="st2" cx="126.46" cy="180.05" rx="25.95" ry="25.95"/>
		<g>
			<path d="M136.56,181.49c-0.98,0-1.87-0.68-2.09-1.68l0,0c-0.02-0.09-2.08-9.07-9.51-11.79c-1.11-0.4-1.68-1.63-1.27-2.74
				c0.4-1.11,1.64-1.68,2.74-1.27c9.67,3.54,12.12,14.44,12.22,14.9c0.25,1.15-0.49,2.29-1.64,2.54
				C136.87,181.48,136.71,181.49,136.56,181.49z"/>
		</g>
		<path d="M195.17,147.33c0.74,3.39,3.09,5.76,5.25,5.29c2.16-0.47,3.31-3.61,2.57-7c-0.74-3.39-3.09-5.76-5.25-5.29
			C195.58,140.81,194.43,143.94,195.17,147.33z"/>
		<path d="M233.09,144.97c0.74,3.39,3.09,5.76,5.25,5.29c2.16-0.47,3.31-3.61,2.57-7c-0.74-3.39-3.09-5.76-5.25-5.29
			C233.49,138.44,232.34,141.57,233.09,144.97z"/>
		<g>
			<path d="M185.24,135.78c-0.51,0-1.02-0.18-1.43-0.55c-0.88-0.79-0.95-2.14-0.15-3.02c7.08-7.85,18.39-5.99,18.87-5.91
				c1.16,0.2,1.94,1.31,1.74,2.47c-0.2,1.16-1.28,1.94-2.47,1.74l0,0c-0.09-0.01-9.49-1.52-14.98,4.56
				C186.41,135.55,185.83,135.78,185.24,135.78z"/>
		</g>
		<g>
			<path d="M216.38,189.25c-0.29,0-0.58-0.01-0.88-0.03c-3.78-0.29-6.93-2.41-9.35-6.29c-0.62-1-0.32-2.32,0.68-2.94
				c1.01-0.62,2.32-0.32,2.94,0.68c1.68,2.7,3.66,4.1,6.05,4.29c5.59,0.42,12.53-6,14.7-8.52c0.78-0.89,2.12-0.99,3.02-0.22
				c0.89,0.77,0.99,2.12,0.22,3.01C233.41,179.65,225.01,189.25,216.38,189.25z"/>
		</g>
		<g>
			<path d="M231.38,159.64c-0.29,0-0.58-0.06-0.86-0.18c-8.49-3.73-12.03-14.45-7.88-23.9c4.15-9.45,14.43-14.1,22.93-10.38
				c1.08,0.47,1.57,1.73,1.1,2.81c-0.48,1.08-1.74,1.57-2.82,1.1c-6.33-2.78-14.09,0.89-17.29,8.18c-3.2,7.29-0.65,15.49,5.69,18.27
				c1.08,0.47,1.57,1.73,1.1,2.81C232.98,159.16,232.2,159.64,231.38,159.64z"/>
		</g>
		<ellipse transform="matrix(0.7416 -0.6709 0.6709 0.7416 -6.8954 136.1424)" cx="173.26" cy="77.02" rx="33.32" ry="33.32"/>
		<ellipse transform="matrix(0.4881 -0.8728 0.8728 0.4881 39.4099 224.5726)" cx="211.16" cy="78.69" rx="34.27" ry="34.27"/>
		<g>
			<path d="M121.98,80.22c-0.93,0-1.79-0.62-2.06-1.56c-2.55-9.13-13.48-11.42-13.59-11.44c-1.16-0.23-1.91-1.36-1.68-2.51
				c0.23-1.16,1.34-1.91,2.51-1.68c0.55,0.11,13.63,2.85,16.87,14.48c0.32,1.14-0.35,2.31-1.48,2.63
				C122.37,80.19,122.17,80.22,121.98,80.22z"/>
		</g>
		<g>
			<path d="M123.33,79.4c-0.39,0-0.79-0.11-1.15-0.34c-10.17-6.51-8.95-19.82-8.9-20.38c0.12-1.17,1.17-2.03,2.34-1.91
				c1.17,0.12,2.03,1.16,1.91,2.34l0,0c-0.01,0.11-0.99,11.27,6.95,16.36c0.99,0.64,1.28,1.96,0.65,2.95
				C124.73,79.06,124.03,79.4,123.33,79.4z"/>
		</g>
	</g>
</g>
</svg>
