<svg xmlns="http://www.w3.org/2000/svg" fill="none" viewBox="0 0 24 24" id="Contentful--Streamline-Svg-Logos" height="24" width="24">
  <desc>
    Contentful Streamline Icon: https://streamlinehq.com
  </desc>
  <path fill="#fae501" d="M8.71365 16.6266c-1.248425 -1.175 -1.9828 -2.790625 -1.9828 -4.626575s0.734375 -3.451575 1.909375 -4.626575c1.028125 -1.028125 1.028125 -2.64375 0 -3.671875 -1.028125 -1.028125 -2.64375 -1.028125 -3.671875 0 -2.056275 2.1297 -3.37814 5.0672 -3.37814 8.29845 0 3.23125 1.321865 6.16875 3.451565 8.29845 1.028125 1.028125 2.64375 1.028125 3.671875 0 0.9547 -1.028125 0.9547 -2.64375 0 -3.671875Z" stroke-width="0.25"></path>
  <path fill="#4fb5e1" d="M8.713475 7.37345c1.175 -1.24845 2.790625 -1.982825 4.626575 -1.982825S16.791625 6.125 17.966625 7.3c1.028125 1.028125 2.64375 1.028125 3.671875 0 1.028125 -1.028125 1.028125 -2.64375 0 -3.671875C19.508825 1.5718775 16.5713 0.25 13.34005 0.25c-3.23125 0 -6.16875 1.3218775 -8.29845 3.451575 -1.028125 1.028125 -1.028125 2.64375 0 3.671875 1.028125 0.954675 2.64375 0.954675 3.671875 0Z" stroke-width="0.25"></path>
  <path fill="#f05751" d="M17.966625 16.62655c-1.175 1.248425 -2.790625 1.9828 -4.626575 1.9828s-3.451575 -0.734375 -4.626575 -1.909375c-1.028125 -1.028125 -2.64375 -1.028125 -3.671875 0 -1.028125 1.028125 -1.028125 2.64375 0 3.671875 2.1297 2.05625 5.0672 3.378125 8.29845 3.378125 3.23125 0 6.168775 -1.321875 8.29845 -3.45155 1.028125 -1.028125 1.028125 -2.64375 0 -3.671875 -1.028125 -0.9547 -2.64375 -0.9547 -3.671875 0Z" stroke-width="0.25"></path>
  <path fill="#0681b6" d="M6.8777 8.107725c1.419525 0 2.5703 -1.15075 2.5703 -2.5703s-1.150775 -2.570325 -2.5703 -2.570325c-1.41955 0 -2.570325 1.150775 -2.570325 2.570325 0 1.41955 1.150775 2.5703 2.570325 2.5703Z" stroke-width="0.25"></path>
  <path fill="#cd4739" d="M6.8777 21.03285c1.419525 0 2.5703 -1.150775 2.5703 -2.570325 0 -1.41955 -1.150775 -2.570325 -2.5703 -2.570325 -1.41955 0 -2.570325 1.150775 -2.570325 2.570325 0 1.41955 1.150775 2.570325 2.570325 2.570325Z" stroke-width="0.25"></path>
</svg>