<?xml version="1.0" encoding="utf-8"?>
<!-- Generator: Adobe Illustrator 25.0.0, SVG Export Plug-In . SVG Version: 6.00 Build 0)  -->
<svg version="1.1" xmlns="http://www.w3.org/2000/svg" xmlns:xlink="http://www.w3.org/1999/xlink" x="0px" y="0px"
	 viewBox="0 0 345.07 345.07" style="enable-background:new 0 0 345.07 345.07;" xml:space="preserve">
<style type="text/css">
	.st0{fill:#F5F5F5;}
	.st1{fill:#E8EDC5;}
	.st2{fill:#FFFFFF;}
	.st3{fill:#85BAC6;}
	.st4{fill:#F6E1DC;}
	.st5{fill:#080717;}
	.st6{fill:none;stroke:#080717;stroke-width:2;stroke-linecap:round;stroke-linejoin:round;stroke-miterlimit:10;}
	.st7{fill:#F2ECDE;}
	.st8{fill:#C7E1E0;}
	.st9{fill:#FCDEDE;}
	.st10{fill:#EFCBBF;}
	.st11{fill:#CEE1E7;}
	.st12{fill:#FDEDE0;}
	.st13{fill:#B9D2D7;}
	.st14{fill:#EDE6E4;}
	.st15{fill:#FDE3EC;}
	.st16{fill:#DDD6CC;}
	.st17{fill:#F3F3F3;}
	.st18{fill:#E0D5C1;}
	.st19{fill:none;stroke:#000000;stroke-width:2;stroke-linecap:round;stroke-linejoin:round;stroke-miterlimit:10;}
	.st20{fill:#E0E0E0;}
	.st21{fill:#DBDDC0;}
</style>
<g id="Layer_3">
</g>
<g id="_x3C_Layer_x3E_">
	<g>

			<ellipse transform="matrix(0.7071 -0.7071 0.7071 0.7071 -71.4659 172.5338)" class="st7" cx="172.53" cy="172.53" rx="172.53" ry="172.53"/>
		<ellipse transform="matrix(0.9741 -0.2259 0.2259 0.9741 -39.8151 21.7092)" cx="74.95" cy="184.82" rx="39.75" ry="39.75"/>
		<ellipse transform="matrix(0.121 -0.9926 0.9926 0.121 -103.4659 286.3518)" cx="109.96" cy="201.6" rx="39.75" ry="39.75"/>
		<ellipse transform="matrix(0.476 -0.8795 0.8795 0.476 -39.1556 295.1815)" cx="228.12" cy="180.45" rx="39.75" ry="39.75"/>
		<ellipse transform="matrix(0.9966 -0.0819 0.0819 0.9966 -11.4468 21.4517)" cx="255.62" cy="150.18" rx="39.75" ry="39.75"/>

			<rect x="130.75" y="158.98" transform="matrix(0.9882 -0.1531 0.1531 0.9882 -31.8459 29.8967)" class="st2" width="94.82" height="125.41"/>
		<path d="M241.13,279.56L135.65,295.9c-3.23,0.5-6.24-1.71-6.74-4.93l-4.52-29.15c-0.5-3.23,1.71-6.24,4.93-6.74l105.48-16.35
			c3.22-0.5,6.24,1.71,6.74,4.93l4.52,29.15C246.57,276.04,244.36,279.06,241.13,279.56z"/>
		<path d="M266.99,266.27l-134.07,20.78c-22.62,3.51-42.75,13.19-58.95,27.05c27.95,19.5,61.91,30.97,98.58,30.97
			c59.62,0,112.17-30.24,143.16-76.22C300.27,264.75,283.77,263.67,266.99,266.27z"/>
		<path d="M156.4,212.17L156.4,212.17c-40.62,0-73.54-32.93-73.54-73.54v-23.36c0-40.62,32.93-73.54,73.54-73.54l0,0
			c40.62,0,73.54,32.93,73.54,73.54v23.36C229.94,179.25,197.01,212.17,156.4,212.17z"/>
		<path d="M174.4,170.46L174.4,170.46c-33.9,0-61.38-27.48-61.38-61.38V96.54c0-33.9,27.48-61.38,61.38-61.38l0,0
			c33.9,0,61.38,27.48,61.38,61.38v12.55C235.78,142.99,208.3,170.46,174.4,170.46z"/>
		<path class="st2" d="M167.94,212.17L167.94,212.17c-34.24,0-62-27.76-62-62v-19.69c0-34.24,27.76-62,62-62h0
			c34.24,0,62,27.76,62,62v19.69C229.94,184.42,202.18,212.17,167.94,212.17z"/>
		<path d="M102.81,126.21v0.11c28.45-7.42,49.44-33.28,49.44-64.05v-0.11C123.81,69.57,102.81,95.43,102.81,126.21z"/>
		<g>
			<path d="M131.62,120.01c-0.25,0-0.5-0.04-0.74-0.13c-0.62-0.23-1.1-0.73-1.3-1.36c-0.34-1.07,0.2-2.24,1.22-2.66
				c15.6-9.97,22.6-29.21,17.04-46.92l4.06-1.34c6.21,19.75-1.67,41.14-19.14,52.08C132.41,119.9,132.01,120.01,131.62,120.01z"/>
		</g>
		<path d="M220.14,91.39l0.05,0.09c-28.21,8.29-59.52-3.07-75.37-29.45l-0.05-0.09C172.97,53.66,204.29,65.01,220.14,91.39z"/>
		<g>
			<path d="M167.94,214.31c-35.36,0-64.13-28.77-64.13-64.13c0-1.18,0.96-2.14,2.14-2.14s2.14,0.96,2.14,2.14
				c0,33.01,26.85,59.86,59.86,59.86c13.74,0,27.16-4.77,37.79-13.43c0.92-0.74,2.26-0.61,3.01,0.31c0.74,0.91,0.61,2.26-0.31,3.01
				C197.04,209.2,182.66,214.31,167.94,214.31z"/>
		</g>
		<path class="st2" d="M224.91,128.18l13.28-3.95c8.11-2.41,12.73-10.94,10.32-19.05l0,0c-2.41-8.11-10.94-12.73-19.05-10.32
			l-13.28,3.95c-8.11,2.41-12.73,10.94-10.32,19.05l0,0C208.27,125.97,216.8,130.59,224.91,128.18z"/>
		<g>
			<path d="M228.48,118.04c-1.03,0-1.93-0.74-2.11-1.79c-1.68-10.07,6.49-15.1,6.84-15.31c1.01-0.61,2.32-0.28,2.93,0.73
				c0.61,1.01,0.28,2.32-0.72,2.93c-0.27,0.17-6.02,3.81-4.83,10.95c0.19,1.16-0.59,2.26-1.76,2.46
				C228.71,118.03,228.6,118.04,228.48,118.04z"/>
		</g>
		<path class="st2" d="M110.57,157.6l-13.86-0.25c-8.46-0.16-15.19-7.14-15.03-15.6l0,0c0.16-8.46,7.14-15.19,15.6-15.03l13.86,0.25
			c8.46,0.16,15.19,7.14,15.03,15.6l0,0C126.01,151.02,119.03,157.75,110.57,157.6z"/>
		<g>
			<path d="M103.84,148.86c-1.08,0-2.01-0.81-2.12-1.91c-0.76-7.21-7.31-9.18-7.59-9.26c-1.13-0.33-1.79-1.5-1.47-2.64
				c0.32-1.13,1.48-1.79,2.62-1.48c0.39,0.11,9.61,2.77,10.69,12.93c0.13,1.17-0.73,2.23-1.9,2.35
				C103.99,148.85,103.92,148.86,103.84,148.86z"/>
		</g>
		<path d="M150.52,113.11c0.92,2.38-3.69,6.37-10.28,8.9c-6.59,2.54-12.68,2.66-13.6,0.28c-0.92-2.38,3.69-6.37,10.28-8.9
			C143.52,110.85,149.6,110.73,150.52,113.11z"/>
		<path d="M197.89,109.7c-0.17,2.54-6.03,4.22-13.08,3.73c-7.05-0.48-12.62-2.94-12.44-5.49c0.18-2.54,6.03-4.21,13.08-3.73
			C192.49,104.7,198.06,107.15,197.89,109.7z"/>
		<g>
			<path d="M133.71,138.13c-0.42,0-0.84-0.12-1.21-0.38c-0.97-0.67-1.21-2-0.54-2.97c5.77-8.35,15.25-6,19.46-3.6
				c1.02,0.59,1.38,1.89,0.8,2.92c-0.59,1.02-1.89,1.38-2.91,0.8c-0.39-0.22-8.87-4.86-13.83,2.32
				C135.06,137.81,134.39,138.13,133.71,138.13z"/>
		</g>
		<path d="M181.81,126.08c0.74,3.39,3.09,5.76,5.25,5.29c2.16-0.47,3.31-3.61,2.57-7c-0.74-3.39-3.09-5.76-5.25-5.29
			C182.22,119.55,181.07,122.69,181.81,126.08z"/>
		<g>
			<path d="M169.48,152.73c-0.07,0-0.15,0-0.22-0.01c-2.94-0.3-5.63-1.84-7.37-4.23c-1.75-2.38-2.41-5.41-1.81-8.3l3.38-16.36
				c0.24-1.16,1.37-1.91,2.52-1.66c1.16,0.24,1.9,1.37,1.66,2.53l-3.38,16.36c-0.36,1.74,0.02,3.48,1.07,4.91
				c1.05,1.43,2.6,2.32,4.36,2.5c1.17,0.12,2.03,1.17,1.91,2.34C171.49,151.91,170.57,152.73,169.48,152.73z"/>
		</g>
		<g>
			<path d="M179.68,169.93c-1.06,0-1.98-0.79-2.12-1.86c-0.15-1.17,0.68-2.24,1.85-2.39c3.08-0.4,5.26-1.62,6.66-3.73
				c3.42-5.16,1.05-13.86,1.03-13.95c-0.32-1.14,0.35-2.31,1.48-2.63c1.13-0.32,2.31,0.34,2.63,1.48
				c0.12,0.43,2.93,10.64-1.57,17.45c-2.1,3.17-5.35,5.06-9.69,5.62C179.86,169.93,179.77,169.93,179.68,169.93z"/>
		</g>
	</g>
</g>
</svg>
