<?xml version="1.0" encoding="utf-8"?>
<!-- Generator: Adobe Illustrator 25.0.0, SVG Export Plug-In . SVG Version: 6.00 Build 0)  -->
<svg version="1.1" xmlns="http://www.w3.org/2000/svg" xmlns:xlink="http://www.w3.org/1999/xlink" x="0px" y="0px"
	 viewBox="0 0 345.07 345.07" style="enable-background:new 0 0 345.07 345.07;" xml:space="preserve">
<style type="text/css">
	.st0{fill:#F5F5F5;}
	.st1{fill:#E8EDC5;}
	.st2{fill:#FFFFFF;}
	.st3{fill:#85BAC6;}
	.st4{fill:#F6E1DC;}
	.st5{fill:#080717;}
	.st6{fill:none;stroke:#080717;stroke-width:2;stroke-linecap:round;stroke-linejoin:round;stroke-miterlimit:10;}
	.st7{fill:#F2ECDE;}
	.st8{fill:#C7E1E0;}
	.st9{fill:#FCDEDE;}
	.st10{fill:#EFCBBF;}
	.st11{fill:#CEE1E7;}
	.st12{fill:#FDEDE0;}
	.st13{fill:#B9D2D7;}
	.st14{fill:#EDE6E4;}
	.st15{fill:#FDE3EC;}
	.st16{fill:#DDD6CC;}
	.st17{fill:#F3F3F3;}
	.st18{fill:#E0D5C1;}
	.st19{fill:none;stroke:#000000;stroke-width:2;stroke-linecap:round;stroke-linejoin:round;stroke-miterlimit:10;}
	.st20{fill:#E0E0E0;}
	.st21{fill:#DBDDC0;}
</style>
<g id="Layer_3">
</g>
<g id="_x3C_Layer_x3E_">
	<g>

			<ellipse transform="matrix(0.7071 -0.7071 0.7071 0.7071 -71.4658 172.5338)" class="st13" cx="172.53" cy="172.53" rx="172.53" ry="172.53"/>
		<path d="M197.32,59.58L197.32,59.58c-44.44-4.39-84.03,28.08-88.42,72.53l-9.54,96.61c-1.43,14.53,1.09,28.53,6.67,40.96
			c21.74,15.64,48.39,24.89,77.22,24.89c24.48,0,47.39-6.67,67.06-18.25c5.34-9.48,8.86-20.18,10-31.71l9.54-96.61
			C274.23,103.56,241.76,63.97,197.32,59.58z"/>
		<path class="st3" d="M172.53,345.07c39.62,0,76.09-13.39,105.22-35.84c-8.18-20.9-26.69-37.18-50.4-41.46l-91.98-16.57
			c-35.24-6.35-68.99,16.18-76.95,50.7C88.85,328.74,128.77,345.07,172.53,345.07z"/>
		<path class="st2" d="M119.49,203.71L119.49,203.71c-22.97-16.88-27.91-49.19-11.02-72.16l22.82-31.05
			c16.88-22.97,49.19-27.91,72.16-11.02h0c22.97,16.88,27.91,49.19,11.02,72.16l-22.82,31.05
			C174.77,215.66,142.46,220.59,119.49,203.71z"/>
		<path d="M266.56,181.24l3.28-33.24c4.18-42.33-25.09-80.23-66.28-87.53c-7.23,3.38-13.78,8.47-18.99,15.23l0,0
			c-17.4,22.58-13.21,54.99,9.36,72.39l30.51,23.52C236.89,181.2,252.31,184.22,266.56,181.24z"/>
		<path class="st2" d="M192.04,196.13l30.66-6.08c11.42-2.26,18.84-13.36,16.58-24.78l0,0c-2.26-11.42-13.36-18.84-24.78-16.58
			l-30.66,6.08c-11.42,2.27-18.84,13.36-16.58,24.78l0,0C169.52,190.97,180.62,198.39,192.04,196.13z"/>
		<path class="st2" d="M194.22,281.73l-43.07-10.81c-4.42-1.11-7.11-5.6-6-10.02l25.78-102.69l60.05,15.08l-25.54,101.73
			C204.19,279.96,199.17,282.97,194.22,281.73z"/>
		<g>
			<path d="M212.36,75.67c-0.65,0-1.29-0.3-1.71-0.85c-0.71-0.94-0.52-2.28,0.43-2.99c7.59-5.69,5.74-16.71,5.72-16.82
				c-0.21-1.16,0.57-2.27,1.73-2.48c1.15-0.21,2.27,0.57,2.47,1.73c0.1,0.56,2.3,13.73-7.36,20.98
				C213.26,75.53,212.81,75.67,212.36,75.67z"/>
		</g>
		<g>
			<path d="M213.61,76.64c-0.14,0-0.28-0.01-0.42-0.04c-1.16-0.23-1.91-1.36-1.68-2.52c2.37-11.84,15.21-15.54,15.76-15.69
				c1.13-0.32,2.32,0.35,2.63,1.49c0.32,1.14-0.35,2.31-1.48,2.63c-0.15,0.04-10.87,3.19-12.72,12.41
				C215.5,75.93,214.6,76.64,213.61,76.64z"/>
		</g>
		<circle class="st3" cx="229.81" cy="192.03" r="8"/>
		<g>
			<path d="M154.92,217.25c-1.05,0-1.97-0.77-2.11-1.84c-0.16-1.17,0.65-2.25,1.82-2.41c11.03-1.54,25.01-12.36,25.15-12.47
				c0.93-0.73,2.27-0.56,3,0.37c0.73,0.93,0.56,2.27-0.37,3c-0.61,0.47-15.04,11.64-27.19,13.33
				C155.12,217.25,155.02,217.25,154.92,217.25z"/>
		</g>
		<g>
			<path d="M123.67,141.83c-0.86,0-1.68-0.53-2-1.38c-0.42-1.1,0.14-2.34,1.25-2.75c0.65-0.24,15.8-6.13,13.91-18.77
				c-1.47-9.78-6.82-15.18-15.92-16.03c-1.17-0.11-2.04-1.15-1.93-2.33c0.11-1.18,1.16-2.04,2.33-1.93
				c7.77,0.73,17.51,4.72,19.75,19.65c1.93,12.85-10.03,20.93-16.63,23.4C124.17,141.78,123.92,141.83,123.67,141.83z"/>
		</g>
		<g>
			<path d="M181.31,147.15c-0.15,0-0.29-0.01-0.44-0.05c-1.15-0.24-1.89-1.38-1.65-2.53c0.6-2.86,0.76-5.51,0.46-7.88
				c-1.93-15.41-22.61-15.92-23.49-15.93c-1.18-0.02-2.12-0.99-2.1-2.17c0.02-1.18,0.94-2.15,2.16-2.1
				c8.73,0.12,25.75,4.39,27.67,19.67c0.36,2.84,0.18,5.97-0.52,9.3C183.18,146.46,182.3,147.15,181.31,147.15z"/>
		</g>
		<g>
			<path d="M139.12,176.19c-6.22,0-10.67-2.64-10.75-2.69c-1.01-0.62-1.32-1.93-0.71-2.94c0.61-1.01,1.93-1.32,2.93-0.71l0,0
				c0.48,0.29,11.82,6.88,22.79-4.73c0.81-0.86,2.16-0.9,3.02-0.09c0.86,0.81,0.9,2.16,0.09,3.02
				C150.46,174.43,144.2,176.19,139.12,176.19z"/>
		</g>
		<g>
			<path d="M231.26,165.82c-0.73,0-1.43-0.37-1.83-1.04c-3.35-5.59-14.02-1.22-14.13-1.17c-1.09,0.45-2.34-0.06-2.8-1.15
				c-0.45-1.09,0.05-2.34,1.14-2.8c0.58-0.24,14.2-5.85,19.45,2.91c0.61,1.01,0.28,2.32-0.73,2.93
				C232.01,165.72,231.63,165.82,231.26,165.82z"/>
		</g>
		<path d="M168.69,138.37c0,2.99-2.42,5.41-5.41,5.41s-5.41-2.42-5.41-5.41c0-2.99,2.42-5.41,5.41-5.41S168.69,135.38,168.69,138.37
			z"/>
		<path d="M130.53,124.42c0,2.99-2.42,5.41-5.41,5.41s-5.41-2.42-5.41-5.41c0-2.99,2.42-5.41,5.41-5.41S130.53,121.44,130.53,124.42
			z"/>
	</g>
</g>
</svg>
