<?xml version="1.0" encoding="utf-8"?>
<!-- Generator: Adobe Illustrator 25.0.0, SVG Export Plug-In . SVG Version: 6.00 Build 0)  -->
<svg version="1.1" xmlns="http://www.w3.org/2000/svg" xmlns:xlink="http://www.w3.org/1999/xlink" x="0px" y="0px"
	 viewBox="0 0 345.07 345.07" style="enable-background:new 0 0 345.07 345.07;" xml:space="preserve">
<style type="text/css">
	.st0{fill:#F6E1DC;}
	.st1{fill:#F0AF9B;}
	.st2{fill:#FFFFFF;}
	.st3{fill:#080717;}
	.st4{fill:none;stroke:#85BAC6;stroke-width:0.4121;stroke-miterlimit:10;}
	.st5{fill:#F2ECDE;}
	.st6{fill:#85BAC6;}
	.st7{fill:#FCDEDE;}
	.st8{fill:#AAD2DC;}
	.st9{fill:#F5F5F5;}
	.st10{fill:#E8EDC5;}
	.st11{fill:#B9D2D7;}
	.st12{fill:#FFFFFF;stroke:#000000;stroke-width:2;stroke-linecap:round;stroke-linejoin:round;stroke-miterlimit:10;}
	.st13{fill:#CEE1E7;}
	.st14{fill:#EDE6E4;}
	.st15{fill:#FDE3EC;}
	.st16{fill:#FDEDE0;}
	.st17{fill:#C7E1E0;}
	.st18{fill:#EFCBBF;}
	.st19{fill:#23285C;}
	.st20{fill:#010101;}
	.st21{fill:#C6E0F5;}
	.st22{fill:#DDD6CC;}
	.st23{fill:#E0E0E0;}
	.st24{fill:#F3F3F3;}
</style>
<g id="Layer_3">
</g>
<g id="_x3C_Layer_x3E_">
	<g>

			<ellipse transform="matrix(0.7071 -0.7071 0.7071 0.7071 -71.4658 172.5338)" class="st16" cx="172.53" cy="172.53" rx="172.53" ry="172.53"/>
		<ellipse transform="matrix(0.989 -0.1481 0.1481 0.989 -17.19 26.4064)" cx="168.75" cy="128.65" rx="78.66" ry="78.66"/>
		<ellipse transform="matrix(0.3382 -0.9411 0.9411 0.3382 -100.2877 224.4199)" cx="109.43" cy="183.52" rx="57.15" ry="57.15"/>
		<g>
			<path d="M235.55,249.48c-34.36,0-62.32-27.96-62.32-62.32c0-34.36,27.96-62.32,62.32-62.32c34.36,0,62.32,27.96,62.32,62.32
				C297.87,221.52,269.92,249.48,235.55,249.48z M235.55,129.11c-32.01,0-58.05,26.04-58.05,58.05s26.04,58.05,58.05,58.05
				s58.05-26.04,58.05-58.05S267.56,129.11,235.55,129.11z"/>
		</g>
		<ellipse transform="matrix(0.9521 -0.3057 0.3057 0.9521 -47.2284 78.8329)" cx="228.06" cy="190.19" rx="57.15" ry="57.15"/>
		<path class="st2" d="M127.01,98.88l-2.21-8.85c-16.62,10.36-27.71,28.75-27.71,49.78v27.73c0,21.63,17.53,39.16,39.16,39.16h5.94
			v41.56h51.29V142.15C163.66,147.32,134.46,128.72,127.01,98.88z"/>
		<path d="M136.92,137.2c1.31,3.35,4.32,5.29,6.73,4.35c2.41-0.94,3.3-4.42,1.99-7.76c-1.31-3.35-4.32-5.29-6.73-4.35
			C136.5,130.38,135.61,133.85,136.92,137.2z"/>
		<g>
			<path d="M138.57,187.98c-6.3,0-9.58-6.08-12.6-15.67c-0.18-0.57-0.11-1.19,0.18-1.7c0.3-0.52,0.8-0.89,1.38-1.02
				c5.85-1.34,19.81-4.3,23.03-2.94c0.85,0.36,2.25,1.4,2.02,4.32c-0.39,4.8-5.69,15.3-11.18,16.64
				C140.4,187.86,139.45,187.98,138.57,187.98z M130.78,173.24c4,11.59,6.97,10.86,9.62,10.22c1.03-0.25,2.98-1.83,5.1-5.45
				c1.95-3.33,2.79-6.25,2.85-7.51C145.85,170.34,138.01,171.67,130.78,173.24z"/>
		</g>
		<g>
			<path d="M121.99,162.31c-0.04,0-0.08,0-0.12,0c-0.93-0.05-9.15-0.65-11.74-5.45c-0.85-1.56-1.41-4.19,0.69-7.83
				c5.06-8.78,6.9-20.46,6.92-20.58c0.18-1.17,1.27-1.97,2.43-1.79c1.17,0.18,1.97,1.27,1.79,2.43c-0.08,0.51-1.97,12.57-7.44,22.07
				c-0.89,1.55-1.11,2.78-0.63,3.67c1.15,2.13,6.04,3.09,8.23,3.22c1.18,0.07,2.08,1.08,2.01,2.26
				C124.05,161.43,123.11,162.31,121.99,162.31z"/>
		</g>
		<g>
			<path d="M153.4,126.51c-0.46,0-0.92-0.15-1.31-0.45c-2.27-1.75-5.41-2.85-8.84-3.1c-4.18-0.3-8.14,0.75-10.61,2.8
				c-0.91,0.75-2.26,0.63-3.01-0.28c-0.75-0.91-0.63-2.26,0.28-3.01c3.29-2.73,8.4-4.14,13.64-3.77c4.27,0.3,8.23,1.71,11.16,3.98
				c0.93,0.72,1.1,2.06,0.38,3C154.67,126.23,154.04,126.51,153.4,126.51z"/>
		</g>
		<path d="M99.82,143.76c1.31,3.35,4.32,5.29,6.73,4.35c2.41-0.94,3.3-4.42,1.99-7.76c-1.31-3.35-4.32-5.29-6.73-4.35
			C99.4,136.94,98.51,140.41,99.82,143.76z"/>
		<g>
			<path d="M116.3,133.07c-0.46,0-0.92-0.15-1.31-0.45c-2.27-1.75-5.41-2.85-8.84-3.1c-4.17-0.3-8.14,0.75-10.61,2.8
				c-0.91,0.75-2.26,0.63-3.01-0.28c-0.75-0.91-0.63-2.26,0.28-3.01c3.29-2.73,8.4-4.13,13.64-3.77c4.27,0.3,8.23,1.72,11.16,3.98
				c0.93,0.72,1.11,2.06,0.38,3C117.57,132.79,116.94,133.07,116.3,133.07z"/>
		</g>
		<g>
			<path d="M141.91,211.18c-1.16,0-2.11-0.92-2.13-2.09c-0.03-1.18,0.91-2.16,2.09-2.18c20.99-0.48,31.5-20.52,31.6-20.72
				c0.54-1.05,1.83-1.46,2.88-0.93c1.05,0.54,1.46,1.83,0.93,2.88c-0.47,0.92-11.79,22.51-35.31,23.05
				C141.95,211.18,141.93,211.18,141.91,211.18z"/>
		</g>
		<path class="st2" d="M221.44,157.74c0,10.12-8.2,18.32-18.32,18.32c-10.12,0-18.32-8.2-18.32-18.32c0-10.12,8.2-18.32,18.32-18.32
			C213.24,139.41,221.44,147.62,221.44,157.74z"/>
		<g>
			<path d="M195.79,159.88c-1.18,0-2.14-0.96-2.14-2.14c0-6.63,5.4-12.03,12.03-12.03c1.18,0,2.14,0.96,2.14,2.14
				c0,1.18-0.96,2.14-2.14,2.14c-4.28,0-7.76,3.48-7.76,7.76C197.92,158.92,196.97,159.88,195.79,159.88z"/>
		</g>
		<g>
			<path d="M70.25,310.08c-0.13,0-0.27-0.01-0.4-0.04c-1.16-0.22-1.92-1.34-1.7-2.5l5.83-30.61c3.57-18.73,17.16-33.67,35.47-38.99
				l30.31-8.8c1.14-0.33,2.32,0.32,2.65,1.46c0.33,1.13-0.32,2.32-1.46,2.65l-30.31,8.8c-16.76,4.87-29.2,18.54-32.46,35.68
				l-5.83,30.61C72.16,309.37,71.26,310.08,70.25,310.08z"/>
		</g>
		<g>
			<path d="M273,312.92c-1.14,0-2.08-0.9-2.13-2.04l-0.52-11.7c-0.81-18.26-11.69-34.22-28.4-41.65l-22.87-10.16
				c-1.08-0.48-1.56-1.74-1.09-2.82c0.48-1.08,1.74-1.56,2.82-1.09l22.87,10.16c18.2,8.09,30.05,25.47,30.93,45.37l0.52,11.7
				c0.05,1.18-0.86,2.18-2.04,2.23C273.06,312.92,273.03,312.92,273,312.92z"/>
		</g>
		<g>
			<path d="M160.61,273.15c-34.01,0-44.9-30.52-45-30.83c-0.38-1.12,0.21-2.33,1.32-2.71c1.11-0.39,2.33,0.21,2.72,1.32
				c0.41,1.18,10.34,28.75,42.45,27.93c32.49-0.9,46.36-26.09,46.49-26.35c0.56-1.04,1.85-1.43,2.89-0.87
				c1.04,0.56,1.43,1.85,0.87,2.89c-0.6,1.13-15.2,27.63-50.14,28.6C161.67,273.15,161.14,273.15,160.61,273.15z"/>
		</g>
		<g>
			<path d="M221.6,336.37c-1.03,0-1.94-0.75-2.11-1.8l-3.55-22.03c-0.19-1.16,0.6-2.26,1.77-2.45c1.17-0.19,2.26,0.61,2.45,1.77
				l3.55,22.03c0.19,1.16-0.6,2.26-1.77,2.45C221.83,336.36,221.71,336.37,221.6,336.37z"/>
		</g>
		<g>
			<path d="M109.33,331.4c-0.03,0-0.06,0-0.08,0c-1.18-0.04-2.1-1.04-2.05-2.22l0.71-18.47c0.05-1.18,1.03-2.11,2.22-2.05
				c1.18,0.04,2.1,1.04,2.05,2.22l-0.71,18.47C111.42,330.5,110.48,331.4,109.33,331.4z"/>
		</g>
	</g>
</g>
</svg>
