<?xml version="1.0" encoding="utf-8"?>
<!-- Generator: Adobe Illustrator 25.0.0, SVG Export Plug-In . SVG Version: 6.00 Build 0)  -->
<svg version="1.1" xmlns="http://www.w3.org/2000/svg" xmlns:xlink="http://www.w3.org/1999/xlink" x="0px" y="0px"
	 viewBox="0 0 345.07 345.07" style="enable-background:new 0 0 345.07 345.07;" xml:space="preserve">
<style type="text/css">
	.st0{fill:#F6E1DC;}
	.st1{fill:#F0AF9B;}
	.st2{fill:#FFFFFF;}
	.st3{fill:#080717;}
	.st4{fill:none;stroke:#85BAC6;stroke-width:0.4121;stroke-miterlimit:10;}
	.st5{fill:#F2ECDE;}
	.st6{fill:#85BAC6;}
	.st7{fill:#FCDEDE;}
	.st8{fill:#AAD2DC;}
	.st9{fill:#F5F5F5;}
	.st10{fill:#E8EDC5;}
	.st11{fill:#B9D2D7;}
	.st12{fill:#FFFFFF;stroke:#000000;stroke-width:2;stroke-linecap:round;stroke-linejoin:round;stroke-miterlimit:10;}
	.st13{fill:#CEE1E7;}
	.st14{fill:#EDE6E4;}
	.st15{fill:#FDE3EC;}
	.st16{fill:#FDEDE0;}
	.st17{fill:#C7E1E0;}
	.st18{fill:#EFCBBF;}
	.st19{fill:#23285C;}
	.st20{fill:#010101;}
	.st21{fill:#C6E0F5;}
	.st22{fill:#DDD6CC;}
	.st23{fill:#E0E0E0;}
	.st24{fill:#F3F3F3;}
</style>
<g id="Layer_3">
</g>
<g id="_x3C_Layer_x3E_">
	<g>

			<ellipse transform="matrix(0.7071 -0.7071 0.7071 0.7071 -71.4658 172.5338)" class="st11" cx="172.53" cy="172.53" rx="172.53" ry="172.53"/>
		<path d="M172.53,345.07c59.82,0,112.52-30.46,143.47-76.7c-23.7-17.16-26.94-79.1-21.26-112.4c5.97-35.09-13.63-67.23-58.02-88.62
			C192.38,45.97,213.67,93.9,135.1,55.46c-78.55-38.43-91.28,85.4-67.02,130.73c31.38,58.61,11.11,101.68-2.89,121.37
			C94.66,331.02,131.94,345.07,172.53,345.07z"/>
		<path class="st2" d="M254.3,251.43c-45.52-13.8-161.62,17.32-210.71,35.69c31.6,35.54,77.64,57.94,128.94,57.94
			c51.26,0,97.27-22.37,128.87-57.86C293.73,274.06,279.73,259.14,254.3,251.43z"/>
		<g>
			<path d="M301.41,289.34c-0.73,0-1.45-0.38-1.85-1.06c-9.84-16.85-25.28-28.56-45.87-34.81c-24.78-7.51-69.67-0.97-102.97,5.83
				c-43.42,8.88-84.44,21.61-106.37,29.81c-1.1,0.42-2.34-0.15-2.75-1.25c-0.41-1.11,0.15-2.34,1.25-2.75
				c51.5-19.27,166.57-49.53,212.08-35.73c21.36,6.47,38.07,19.18,48.32,36.74c0.59,1.02,0.25,2.33-0.77,2.92
				C302.14,289.25,301.77,289.34,301.41,289.34z"/>
		</g>
		<g>
			<g>
				<path class="st2" d="M188.88,250.67c-0.35-3.78-0.65-7.19-0.66-9.99c-0.42-62.12-25.88-119.93-44.53-41.94
					c-0.4,1.68-0.51,3.42-0.35,5.13c0.88,9.59,2.57,44.43-17.38,58.76c-9.02,2.16-17.89,4.45-26.43,6.79
					c14.65,14.24,34.66,23.02,56.73,23.02c31.65,0,59.06-18.05,72.5-44.38C216.87,247.82,203.3,248.8,188.88,250.67z"/>
				<path d="M156.26,294.59c-21.86,0-42.54-8.39-58.22-23.63c-0.55-0.53-0.77-1.32-0.58-2.07c0.19-0.74,0.76-1.33,1.5-1.53
					c8.76-2.4,17.53-4.66,26.08-6.71c18.56-13.74,17.08-46.75,16.17-56.58c-0.18-1.99-0.05-3.95,0.4-5.83
					c6.47-27.06,14.34-40.28,23.45-39.21c11.91,1.36,24.96,32.96,25.29,81.63c0.02,2.21,0.21,4.83,0.45,7.6
					c14.36-1.78,27.16-2.57,37.99-2.35c0.74,0.02,1.41,0.41,1.79,1.04c0.38,0.63,0.4,1.41,0.07,2.07
					C216.32,277.13,187.81,294.59,156.26,294.59z M103.81,270.48c14.5,12.82,32.98,19.83,52.45,19.83
					c28.77,0,54.88-15.3,68.94-40.15c-0.04,0-0.07,0-0.11,0c-10.41,0-22.48,0.88-35.93,2.63c-0.57,0.08-1.16-0.09-1.61-0.45
					c-0.45-0.36-0.74-0.89-0.79-1.47c-0.34-3.67-0.65-7.21-0.67-10.17c-0.28-42.25-11.79-76.31-21.5-77.42
					c-3-0.32-10.81,2.48-18.81,35.96c-0.34,1.42-0.44,2.92-0.3,4.44c0.96,10.47,2.49,45.78-18.27,60.69
					c-0.23,0.16-0.48,0.28-0.75,0.34C119.03,266.49,111.43,268.43,103.81,270.48z"/>
			</g>
			<g>
				<path class="st3" d="M144.93,220.77c8.81,0.22,17.36-0.06,25.53-0.82c-9.12,6.44-19,11.98-29.53,16.39
					c1.29-1.82,2.27-3.75,2.86-5.84C144.73,227.17,145.02,223.91,144.93,220.77z"/>
				<g>
					<path class="st2" d="M230.68,159.98c-0.66-0.86-1.53-1.3-2.6-1.38c-7.1-2.75-16.03,1.44-20.52,9.93
						c-0.2,0.37-0.36,0.74-0.53,1.11c-4.96,0.29-6.76-6.05-6.56-17.76c0.28-17.1,17.12-20.03-15.86-22.67
						c-32.98-2.64-44.12-15.3-29.95-39.85c0,0-99.96,134.2,1.45,131.74c41.02-1,45.7-17.74,51.05-29.09
						c0.54-1.15,1.16-1.96,1.83-2.54c0.9,0.93,1.92,1.74,3.09,2.36c7.28,3.86,17.06-0.32,21.84-9.33
						C238.41,174.04,236.9,164.33,230.68,159.98z"/>
					<path d="M153.44,223.27c-21.01,0-34.83-6.13-41.09-18.25c-7.99-15.44-3.51-39.89,13.29-72.67
						c12.35-24.09,27.17-44.07,27.32-44.27c0.67-0.91,1.94-1.13,2.89-0.51c0.95,0.62,1.24,1.87,0.68,2.85
						c-5.79,10.03-7.2,18-4.2,23.72c3.76,7.16,14.69,11.52,32.47,12.94c15.03,1.21,19.89,2.42,21.7,5.43
						c1.43,2.38,0.33,4.93-0.95,7.89c-1.27,2.93-2.84,6.58-2.92,11.52c-0.17,10.19,1.29,13.78,2.55,14.98
						c0.19,0.19,0.4,0.33,0.62,0.43c4.97-9.18,14.69-13.78,22.8-10.83c1.43,0.18,2.65,0.84,3.57,1.91
						c6.99,5.11,8.57,15.84,3.66,25.1c-2.54,4.79-6.46,8.5-11.03,10.46c-4.73,2.02-9.59,1.94-13.7-0.24
						c-0.63-0.33-1.24-0.72-1.82-1.16c-0.06,0.11-0.12,0.23-0.17,0.35c-0.35,0.75-0.71,1.53-1.06,2.32
						c-5.18,11.41-12.26,27.04-51.87,28C155.24,223.26,154.33,223.27,153.44,223.27z M146.68,104.79
						c-15.67,24.14-43.56,73.09-30.54,98.27c5.72,11.06,19.2,16.38,39.92,15.9c36.93-0.9,43.11-14.54,48.09-25.49
						c0.37-0.81,0.73-1.6,1.09-2.37c0.64-1.36,1.42-2.43,2.38-3.25c0.86-0.73,2.15-0.67,2.93,0.14c0.78,0.82,1.64,1.47,2.55,1.96
						c2.94,1.56,6.5,1.59,10.02,0.08c3.68-1.57,6.85-4.6,8.93-8.53c3.9-7.35,2.76-16.03-2.58-19.77c-0.18-0.13-0.34-0.28-0.47-0.45
						c-0.27-0.36-0.58-0.52-1.06-0.55c-0.21-0.02-0.42-0.06-0.61-0.14c-6.1-2.37-13.96,1.56-17.86,8.94
						c-0.14,0.27-0.27,0.56-0.4,0.84c-0.33,0.72-1.1,1.36-1.89,1.41c-1.9,0.11-3.62-0.51-4.95-1.79c-2.84-2.73-4.03-8.32-3.87-18.14
						c0.1-5.78,1.93-10.03,3.27-13.14c0.67-1.56,1.51-3.5,1.21-4c-1.2-1.99-14.13-3.03-18.38-3.37
						c-19.61-1.57-31.36-6.55-35.91-15.21C146.8,112.83,146.18,109.04,146.68,104.79z"/>
				</g>
			</g>
			<g>
				<path d="M185.24,160.2c-0.78,0-1.53-0.43-1.91-1.17c-0.01-0.01-1.69-3.09-6.75-5.48c-6.09-2.88-9.65,1.35-10.03,1.85
					c-0.73,0.93-2.06,1.09-2.99,0.38c-0.93-0.72-1.11-2.04-0.4-2.98c2-2.63,7.76-6.66,15.26-3.11c6.48,3.07,8.65,7.24,8.73,7.42
					c0.53,1.05,0.11,2.34-0.95,2.87C185.89,160.13,185.56,160.2,185.24,160.2z"/>
			</g>
			<path d="M176.84,156.99c-0.22,3.49-2.43,6.2-4.94,6.04c-2.51-0.16-4.38-3.11-4.16-6.61c0.22-3.49,2.43-6.2,4.94-6.04
				C175.2,150.54,177.06,153.5,176.84,156.99z"/>
			<g>
				<path d="M149.3,153.09c-0.78,0-1.53-0.43-1.91-1.17c-0.01-0.01-1.69-3.08-6.75-5.48c-6.08-2.88-9.65,1.35-10.03,1.85
					c-0.72,0.93-2.06,1.1-2.99,0.38c-0.93-0.72-1.11-2.04-0.4-2.98c2-2.63,7.75-6.66,15.26-3.11c6.48,3.07,8.65,7.24,8.73,7.42
					c0.53,1.05,0.11,2.34-0.95,2.87C149.95,153.01,149.62,153.09,149.3,153.09z"/>
			</g>
			<path d="M139.25,150.32c-0.22,3.49-2.43,6.2-4.94,6.04c-2.51-0.16-4.38-3.11-4.16-6.61c0.22-3.49,2.43-6.2,4.95-6.04
				C137.6,143.87,139.47,146.83,139.25,150.32z"/>
			<g>
				<path d="M157.2,203.55c-5.2,0-10.61-4.93-12.87-8.15c-0.68-0.97-0.45-2.3,0.52-2.98c0.97-0.68,2.3-0.45,2.98,0.52
					c1.86,2.64,6.2,6.33,9.37,6.33c0.08,0,0.16,0,0.24-0.01c2.49-0.15,6.13-4.52,7.5-6.61c0.65-0.99,1.98-1.26,2.96-0.61
					c0.99,0.65,1.26,1.97,0.61,2.96c-0.55,0.84-5.54,8.21-10.81,8.53C157.53,203.55,157.36,203.55,157.2,203.55z"/>
			</g>
			<g>
				<path class="st6" d="M176.57,182.2c-1.09,0-2.2-0.08-3.31-0.25c-5.86-0.88-11.03-3.99-14.55-8.75
					c-3.52-4.76-4.97-10.62-4.1-16.48c1.82-12.1,13.15-20.46,25.23-18.64l0,0c12.1,1.82,20.46,13.13,18.65,25.23
					C196.84,174.29,187.35,182.2,176.57,182.2z M176.54,142.1c-8.71,0-16.37,6.38-17.7,15.25c-0.71,4.73,0.46,9.45,3.31,13.3
					c2.84,3.85,7.02,6.36,11.75,7.07c4.73,0.71,9.46-0.46,13.3-3.31c3.85-2.84,6.36-7.01,7.07-11.74
					c1.46-9.77-5.29-18.9-15.05-20.37l0,0C178.31,142.16,177.42,142.1,176.54,142.1z"/>
			</g>
			<g>
				<path class="st6" d="M126.05,169.74c-1.75,0-3.53-0.21-5.31-0.65c-5.75-1.42-10.61-4.99-13.67-10.07
					c-3.06-5.07-3.97-11.03-2.55-16.79c1.42-5.75,4.99-10.61,10.07-13.67c5.07-3.06,11.04-3.97,16.79-2.55
					c11.88,2.93,19.15,14.98,16.22,26.85C145.1,162.96,136.01,169.73,126.05,169.74z M126.02,129.63c-3.23,0-6.4,0.88-9.23,2.59
					c-4.1,2.47-6.98,6.39-8.13,11.04l0,0c-1.15,4.64-0.42,9.46,2.06,13.55c2.47,4.09,6.39,6.98,11.04,8.13
					c9.58,2.37,19.31-3.51,21.68-13.1c2.37-9.59-3.51-19.31-13.1-21.68C128.91,129.81,127.46,129.63,126.02,129.63z M106.59,142.75
					h0.02H106.59z"/>
			</g>
			<g>
				<path d="M140.59,179.69c-0.34,0-0.69-0.08-1.01-0.25c-0.8-0.43-7.84-4.35-8.16-9.68c-0.11-1.74,0.48-4.32,3.85-6.69
					c8.09-5.69,14.49-15.23,14.55-15.33c0.65-0.98,1.98-1.25,2.96-0.6c0.98,0.65,1.25,1.98,0.6,2.96
					c-0.28,0.42-6.91,10.31-15.65,16.46c-1.41,0.99-2.1,1.98-2.04,2.93c0.14,2.33,4.05,5.17,5.92,6.18
					c1.04,0.56,1.43,1.85,0.87,2.89C142.09,179.28,141.35,179.69,140.59,179.69z"/>
			</g>
			<g>
				<path class="st6" d="M157.36,157.39c-0.23,0-0.47-0.04-0.7-0.12l-12.76-4.41c-1.11-0.39-1.71-1.6-1.32-2.72
					c0.39-1.12,1.6-1.7,2.72-1.32l12.76,4.41c1.11,0.39,1.71,1.6,1.32,2.72C159.07,156.83,158.24,157.39,157.36,157.39z"/>
			</g>
		</g>
	</g>
</g>
</svg>
