<?xml version="1.0" encoding="utf-8"?>
<!-- Generator: Adobe Illustrator 25.0.0, SVG Export Plug-In . SVG Version: 6.00 Build 0)  -->
<svg version="1.1" xmlns="http://www.w3.org/2000/svg" xmlns:xlink="http://www.w3.org/1999/xlink" x="0px" y="0px"
	 viewBox="0 0 345.07 345.07" style="enable-background:new 0 0 345.07 345.07;" xml:space="preserve">
<style type="text/css">
	.st0{fill:#F5F5F5;}
	.st1{fill:#E8EDC5;}
	.st2{fill:#FFFFFF;}
	.st3{fill:#85BAC6;}
	.st4{fill:#F6E1DC;}
	.st5{fill:#080717;}
	.st6{fill:none;stroke:#080717;stroke-width:2;stroke-linecap:round;stroke-linejoin:round;stroke-miterlimit:10;}
	.st7{fill:#F2ECDE;}
	.st8{fill:#C7E1E0;}
	.st9{fill:#FCDEDE;}
	.st10{fill:#EFCBBF;}
	.st11{fill:#CEE1E7;}
	.st12{fill:#FDEDE0;}
	.st13{fill:#B9D2D7;}
	.st14{fill:#EDE6E4;}
	.st15{fill:#FDE3EC;}
	.st16{fill:#DDD6CC;}
	.st17{fill:#F3F3F3;}
	.st18{fill:#E0D5C1;}
	.st19{fill:none;stroke:#000000;stroke-width:2;stroke-linecap:round;stroke-linejoin:round;stroke-miterlimit:10;}
	.st20{fill:#E0E0E0;}
	.st21{fill:#DBDDC0;}
</style>
<g id="Layer_3">
</g>
<g id="_x3C_Layer_x3E_">
	<g>

			<ellipse transform="matrix(0.7071 -0.7071 0.7071 0.7071 -71.4659 172.5338)" class="st14" cx="172.53" cy="172.53" rx="172.53" ry="172.53"/>
		<path class="st3" d="M267.62,311.36c-8.01-29.91-35.11-50.72-66.08-50.72H85.78c-18,0-35.2,7.11-47.95,19.64
			c31.62,39.48,80.19,64.78,134.7,64.78c35.65,0,68.76-10.81,96.26-29.33L267.62,311.36z"/>
		<path class="st2" d="M166.23,307.73l-24.46-9.66c-14-5.53-23.2-19.06-23.2-34.11v-76.27h81.95v96.72
			C200.52,302.1,182.69,314.23,166.23,307.73z"/>
		<polygon points="138.21,219.44 200.52,282.09 200.52,187.69 		"/>
		<ellipse transform="matrix(0.7071 -0.7071 0.7071 0.7071 1.2587 181.6278)" cx="219.87" cy="89.29" rx="30.97" ry="36.68"/>
		<path class="st2" d="M94.89,149.8l41.69-80.06l74.66,18.84c14.5,3.66,24.52,16.9,24.1,31.85l-2.13,76.11
			c-0.53,18.81-15.93,33.79-34.75,33.79h-29.91c-21.01,0-40.19-11.98-49.41-30.86L94.89,149.8z"/>
		<path d="M89.2,162.11l15.63,53.53h14.21c0,0-3.79-34.58-10.42-45C101.99,160.22,89.2,162.11,89.2,162.11z"/>
		<path d="M181.22,66.27c-12.3-3.35-23.35-8.09-32.35-13.54c-1.03,1.85-1.86,3.84-2.43,5.94c-4.5,16.5,7.7,34.2,27.25,39.52
			c19.54,5.32,39.03-3.74,43.53-20.24c0.63-2.32,0.9-4.66,0.9-7C207.07,71.34,194.36,69.85,181.22,66.27z"/>
		<path d="M162.38,155.22c-0.3,4.26,2.01,7.89,5.16,8.12c3.15,0.22,5.95-3.05,6.25-7.31c0.3-4.26-2.01-7.89-5.16-8.12
			C165.48,147.69,162.68,150.96,162.38,155.22z"/>
		<g>
			<path d="M159.92,126.55c-0.51,0-1.02-0.18-1.43-0.55c-0.88-0.79-0.95-2.14-0.15-3.02c7.08-7.85,18.39-5.99,18.87-5.91
				c1.16,0.2,1.94,1.31,1.74,2.47c-0.2,1.16-1.3,1.95-2.46,1.74l0,0c-0.09-0.01-9.49-1.51-14.98,4.56
				C161.09,126.31,160.5,126.55,159.92,126.55z"/>
		</g>
		<path d="M217.08,152.71c-0.3,4.26,2.01,7.89,5.16,8.12c3.15,0.22,5.95-3.05,6.25-7.31c0.3-4.26-2.01-7.89-5.16-8.12
			C220.18,145.18,217.38,148.45,217.08,152.71z"/>
		<g>
			<path d="M226.1,126.35c-0.67,0-1.33-0.32-1.75-0.91c-0.3-0.4-2.95-3.66-9,0.07c-1.01,0.62-2.32,0.31-2.94-0.7
				c-0.62-1-0.31-2.32,0.69-2.94c7.78-4.8,13.05-1.36,14.76,1.13c0.67,0.97,0.42,2.3-0.56,2.97
				C226.94,126.23,226.52,126.35,226.1,126.35z"/>
		</g>
		<g>
			<path d="M206.21,185.09c-0.59,0-1.19-0.25-1.61-0.73c-0.78-0.89-0.69-2.24,0.2-3.02l2.1-1.84c4.34-3.8,4.94-10.32,1.36-14.84
				l-8.46-10.71c-0.73-0.93-0.58-2.27,0.35-3c0.93-0.73,2.27-0.57,3,0.35l8.46,10.71c4.99,6.31,4.16,15.41-1.9,20.71l-2.1,1.84
				C207.21,184.92,206.71,185.09,206.21,185.09z"/>
		</g>
		<g>
			<path d="M187.66,202.88c-5.81,0-10.66-2.75-10.94-2.92c-1.02-0.59-1.37-1.9-0.78-2.92c0.59-1.02,1.89-1.37,2.92-0.78l0,0
				c0.08,0.05,8.07,4.53,14.46,0.94c1.03-0.58,2.33-0.21,2.91,0.82c0.58,1.03,0.21,2.33-0.81,2.91
				C192.84,202.37,190.16,202.88,187.66,202.88z"/>
		</g>
		<g>
			<path d="M161.68,181.68c-4.2,0-8.12-0.29-11.72-0.87c-11.29-1.83-17.92-16.57-21.5-28.61c-1.25-4.22-0.46-8.66,2.18-12.2
				c2.65-3.56,6.72-5.6,11.16-5.6h104.23c3.08,0,5.96,1.22,8.11,3.42c2.15,2.21,3.29,5.12,3.21,8.2l-0.24,9.43
				c-0.3,11.7-9.37,25.62-20.61,26.03l-12.72,0c-4.74,0-9.38-1.94-12.71-5.31c-0.83-0.84-0.82-2.19,0.02-3.02
				c0.84-0.83,2.19-0.82,3.02,0.02c2.54,2.57,6.06,4.04,9.67,4.04h12.65c8.51-0.31,16.17-12.29,16.42-21.87l0.24-9.43
				c0.05-1.92-0.66-3.73-2-5.11c-1.34-1.37-3.13-2.13-5.05-2.13h-50.71l-2.94,20.31c-1.77,12.25-12.06,21.71-24.46,22.49
				C165.8,181.61,163.71,181.68,161.68,181.68z M141.81,138.67c-3.07,0-5.89,1.41-7.73,3.88c-1.82,2.44-2.37,5.51-1.51,8.43
				c4.56,15.36,10.98,24.46,18.08,25.61c5.01,0.81,10.74,1.02,17.02,0.62c10.4-0.66,19.02-8.58,20.5-18.84l2.84-19.7H141.81z"/>
		</g>
		<g>
			<path d="M208.1,162.35c-1.12,0-2.06-0.87-2.13-2.01l-1.42-23.68c-0.07-1.18,0.83-2.19,2.01-2.26c1.18-0.09,2.19,0.83,2.26,2
				l1.42,23.68c0.07,1.18-0.83,2.19-2.01,2.26C208.18,162.35,208.14,162.35,208.1,162.35z"/>
		</g>
		<ellipse cx="99.62" cy="116.21" rx="24.64" ry="38.41"/>
		<path d="M144.44,103.39c-12.1,12.1-29.7,14.1-39.32,4.48c-9.62-9.62-7.61-27.23,4.48-39.32c12.1-12.1,29.7-14.1,39.32-4.48
			C158.54,73.69,156.53,91.29,144.44,103.39z"/>
		<path class="st2" d="M103.92,142.96c-2.21,0.05-4.46,0.39-6.67,1.09c-12.47,3.95-19.38,17.27-15.43,29.74
			c3.95,12.47,17.27,19.38,29.74,15.43c2.22-0.7,4.25-1.71,6.08-2.95L103.92,142.96z"/>
		<path d="M98.67,90.58c0,0-3.32-42.16,32.69-45c36-2.84,85.95,6.9,93.79-0.95c0.95-0.95-6.16,39.32-26.05,40.27
			C179.2,85.85,119.04,72.58,98.67,90.58z"/>
		<path d="M113.83,137.95l7.23,31.03c0.48,2.07-0.55,4.19-2.47,5.1l0,0c-2.5,1.18-5.46-0.15-6.24-2.81l-10.36-35.22L113.83,137.95z"
			/>
		<g>
			<path d="M106.11,173.78c-0.98,0-1.87-0.68-2.09-1.68l0,0c-0.02-0.09-2.15-9.37-9.83-12.18c-1.11-0.4-1.68-1.63-1.27-2.74
				c0.41-1.11,1.63-1.68,2.74-1.27c9.93,3.63,12.44,14.82,12.54,15.29c0.25,1.15-0.49,2.29-1.64,2.54
				C106.41,173.77,106.26,173.78,106.11,173.78z"/>
		</g>
	</g>
</g>
</svg>
