<?xml version="1.0" encoding="utf-8"?>
<!-- Generator: Adobe Illustrator 25.0.0, SVG Export Plug-In . SVG Version: 6.00 Build 0)  -->
<svg version="1.1" xmlns="http://www.w3.org/2000/svg" xmlns:xlink="http://www.w3.org/1999/xlink" x="0px" y="0px"
	 viewBox="0 0 345.07 345.07" style="enable-background:new 0 0 345.07 345.07;" xml:space="preserve">
<style type="text/css">
	.st0{fill:#F6E1DC;}
	.st1{fill:#F0AF9B;}
	.st2{fill:#FFFFFF;}
	.st3{fill:#080717;}
	.st4{fill:none;stroke:#85BAC6;stroke-width:0.4121;stroke-miterlimit:10;}
	.st5{fill:#F2ECDE;}
	.st6{fill:#85BAC6;}
	.st7{fill:#FCDEDE;}
	.st8{fill:#AAD2DC;}
	.st9{fill:#F5F5F5;}
	.st10{fill:#E8EDC5;}
	.st11{fill:#B9D2D7;}
	.st12{fill:#FFFFFF;stroke:#000000;stroke-width:2;stroke-linecap:round;stroke-linejoin:round;stroke-miterlimit:10;}
	.st13{fill:#CEE1E7;}
	.st14{fill:#EDE6E4;}
	.st15{fill:#FDE3EC;}
	.st16{fill:#FDEDE0;}
	.st17{fill:#C7E1E0;}
	.st18{fill:#EFCBBF;}
	.st19{fill:#23285C;}
	.st20{fill:#010101;}
	.st21{fill:#C6E0F5;}
	.st22{fill:#DDD6CC;}
	.st23{fill:#E0E0E0;}
	.st24{fill:#F3F3F3;}
</style>
<g id="Layer_3">
</g>
<g id="_x3C_Layer_x3E_">
	<g>

			<ellipse transform="matrix(0.7071 -0.7071 0.7071 0.7071 -71.4658 172.5337)" class="st5" cx="172.53" cy="172.53" rx="172.53" ry="172.53"/>
		<ellipse transform="matrix(0.6214 -0.7835 0.7835 0.6214 -116.1445 153.5544)" cx="100.81" cy="196.95" rx="56.62" ry="56.62"/>
		<path d="M100.56,91.09c-9.26-22.19,15.69-74.16,60.41-49c44.73,25.17,37.72,2.18,63.01,16.25c25.32,14.07,33.41,30.07,24.83,44.54
			c-8.58,14.45-15.2,43.69,0.39,52.22c15.59,8.52,88.91,53.81,22.99,83.73c-65.92,29.91-251.58-32.34-198.03-91.71
			C74.16,147.1,117.27,131.11,100.56,91.09z"/>
		<g>
			<path class="st2" d="M192.19,162.31c5.51-32.08-51.13-7.95-51.13-7.95s-8.67,44.86-9.31,70.26c3.07,2.91,33.63,13.84,42.76,12.38
				C173.63,236.69,188.56,183.36,192.19,162.31z"/>
			<path d="M172.71,239.25c-11.39,0-38.92-9.75-42.44-13.08c-0.44-0.42-0.68-1-0.66-1.6c0.64-25.29,9.26-70.16,9.35-70.61
				c0.13-0.7,0.61-1.28,1.26-1.56c1.5-0.64,36.75-15.47,49.69-5.24c4.12,3.26,5.6,8.48,4.39,15.52v0
				c-2.1,12.19-8.03,35.38-12.36,52.3c-2.49,9.74-5.06,19.79-5.31,21.72c0.02,0.16,0.03,0.32,0.01,0.48
				c-0.09,0.97-0.82,1.77-1.79,1.92C174.22,239.2,173.51,239.25,172.71,239.25z M175.22,234.98c0.26,0.09,0.49,0.23,0.68,0.4
				C175.72,235.22,175.49,235.08,175.22,234.98z M133.91,223.56c4.93,2.94,29.35,11.51,38.77,11.44c0.55-3.22,2.1-9.29,5.11-21.08
				c4.31-16.86,10.21-39.94,12.29-51.97c0.94-5.46,0.01-9.2-2.83-11.45c-8.79-6.95-34,1.16-44.31,5.38
				C141.63,162.87,134.68,200.71,133.91,223.56z M175.22,234.98C175.22,234.98,175.22,234.98,175.22,234.98
				C175.22,234.98,175.22,234.98,175.22,234.98z M192.19,162.31h0.02H192.19z"/>
		</g>
		<g>
			<path class="st2" d="M205.73,83.19c0,0,14.34,38.35,9.61,60.63c-4.71,22.28-9.52,50.9-33.24,50.79
				c-19-0.1-56.85-33.09-59.44-48.49c-2.41-14.34,37.49-17.33,22.3-56.54C139.48,75.42,191.03,96.51,205.73,83.19z"/>
			<path d="M182.24,196.75c-0.05,0-0.1,0-0.15,0c-20.32-0.11-58.79-33.93-61.53-50.27c-1.07-6.4,4.35-10.74,10.08-15.32
				c9.57-7.65,21.48-17.17,12.33-40.8c-1.07-2.78-0.36-4.55,0.42-5.54c2.79-3.55,10.3-2.75,23.35-1.04
				c13.68,1.8,30.71,4.03,37.56-2.17c0.52-0.48,1.25-0.66,1.94-0.49c0.69,0.17,1.25,0.66,1.5,1.33c0.59,1.59,14.5,39.2,9.7,61.82
				l-0.66,3.15C212.19,169.4,206.48,196.75,182.24,196.75z M151.13,86.57c-2.24,0-3.88,0.24-4.38,0.88
				c-0.1,0.13-0.08,0.61,0.21,1.36c10.29,26.55-3.55,37.6-13.65,45.68c-5.7,4.56-9.16,7.54-8.54,11.28
				c2.41,14.39,39.4,46.61,57.34,46.71c0.04,0,0.08,0,0.12,0c20.77,0,25.86-24.4,30.35-45.94l0.66-3.16
				c3.84-18.09-5.51-47.78-8.58-56.78c-8.97,5.29-24.57,3.24-38.48,1.41C161.28,87.37,155.2,86.57,151.13,86.57z"/>
		</g>
		<path d="M133.9,165.93c6.68,5.46,16.94,17.16,27.79,21.43c1.86,4.42-22.19,6.65-26.94,1.47c-0.13-13.49-2.37-23.71-2.37-23.71
			s0.12-0.19,0.31-0.51C133.01,165.08,133.4,165.52,133.9,165.93z"/>
		<path class="st20" d="M175.75,119.31c1.33,2.98,0.86,6.45-1.06,7.75c-1.92,1.3-4.55-0.07-5.89-3.05
			c-1.33-2.98-0.86-6.45,1.06-7.75C171.78,114.96,174.42,116.33,175.75,119.31z"/>
		<g>
			<path class="st20" d="M183.85,172.39c-0.26,0-0.53-0.01-0.8-0.02c-5.24-0.29-10.17-7.96-11.1-12.04
				c-0.74-3.2,0.65-4.52,1.55-5.02c2.94-1.64,16.04-1.27,21.54-1.04c0.66,0.03,1.27,0.36,1.65,0.9c0.38,0.54,0.49,1.22,0.3,1.86
				C193.63,168.12,190.01,172.39,183.85,172.39z M176.01,158.9c0.12,1.02,1,3.36,2.85,5.75c1.89,2.46,3.57,3.4,4.43,3.44
				c2.9,0.17,5.59-0.5,8.75-9.65C185.29,158.25,178.21,158.37,176.01,158.9z"/>
		</g>
		<g>
			<path class="st20" d="M190.87,141.85c-0.98,0-1.87-0.68-2.08-1.68c-0.25-1.15,0.48-2.29,1.63-2.54c2.84-0.62,7.17-2.39,7.91-4.35
				c0.09-0.24,0.36-0.96-0.66-2.34c-5.41-7.36-7.47-17.49-7.55-17.92c-0.23-1.16,0.52-2.28,1.68-2.51c1.16-0.23,2.28,0.52,2.51,1.68
				c0.02,0.1,1.96,9.64,6.81,16.22c1.98,2.69,1.75,4.96,1.21,6.39c-1.85,4.89-10.07,6.81-11,7.01
				C191.18,141.83,191.02,141.85,190.87,141.85z"/>
		</g>
		<path class="st2" d="M129.12,135.65c-2.47,6.22-4.46,12.22-6.01,17.82c-5.76-0.34-10.57-3.7-11.94-9.12
			c-1.89-7.46,3.44-15.91,11.91-18.86c3.72-1.3,7.39-1.26,10.54-0.24C132.06,128.58,130.55,132.05,129.12,135.65z"/>
		<g>
			<path class="st20" d="M160.69,116.2c-0.59,0-1.18-0.24-1.6-0.72c-0.78-0.88-0.7-2.23,0.18-3.02c2.65-2.35,6.28-4.14,10.23-5.05
				c4.99-1.15,9.72-0.73,12.98,1.15c1.02,0.59,1.37,1.9,0.78,2.92c-0.59,1.02-1.9,1.37-2.92,0.78c-2.29-1.32-5.99-1.58-9.88-0.69
				c-3.26,0.75-6.23,2.2-8.35,4.08C161.7,116.02,161.19,116.2,160.69,116.2z"/>
		</g>
		<path class="st20" d="M210.74,119.3c1.2,3.04,0.57,6.48-1.4,7.69c-1.97,1.21-4.55-0.27-5.74-3.31c-1.2-3.04-0.57-6.48,1.4-7.7
			C206.97,114.78,209.54,116.27,210.74,119.3z"/>
		<g>
			<path class="st20" d="M195.58,116.04c-0.59,0-1.18-0.24-1.6-0.72c-0.78-0.88-0.7-2.23,0.18-3.02c2.65-2.35,6.28-4.14,10.23-5.05
				c4.99-1.15,9.72-0.73,12.98,1.15c1.02,0.59,1.37,1.9,0.78,2.92c-0.59,1.02-1.9,1.37-2.92,0.78c-2.3-1.33-5.99-1.58-9.88-0.68
				c-3.26,0.75-6.23,2.2-8.35,4.08C196.59,115.86,196.08,116.04,195.58,116.04z"/>
		</g>
		<g>
			<path class="st6" d="M117.52,185.67c-4.43,0-8.41-1.67-11.3-4.76c-3.25-3.48-4.69-8.28-4.07-13.51c0.66-5.5,3.6-10.78,8.07-14.49
				c0.91-0.75,2.26-0.63,3.01,0.28c0.75,0.91,0.63,2.26-0.28,3.01c-3.64,3.02-6.02,7.28-6.56,11.71c-0.47,3.96,0.57,7.54,2.95,10.09
				c2.2,2.36,5.35,3.55,8.85,3.39c7.84-0.39,15.03-7.38,16.01-15.59c0.47-3.96-0.57-7.54-2.95-10.09c-2.2-2.36-5.35-3.56-8.85-3.39
				c-1.16,0.08-2.18-0.85-2.24-2.03c-0.06-1.18,0.85-2.18,2.03-2.24c4.79-0.25,9.11,1.45,12.18,4.74c3.25,3.48,4.69,8.28,4.07,13.51
				c-1.22,10.18-10.21,18.86-20.04,19.35C118.11,185.66,117.81,185.67,117.52,185.67z"/>
		</g>
		<g>

				<rect x="159.58" y="231.63" transform="matrix(0.1477 -0.989 0.989 0.1477 -74.7537 380.7898)" class="st21" width="47.94" height="4.27"/>
		</g>
		<path class="st2" d="M241.02,261.86l-20.58-36.8c-7.1-12.69-22.55-18.63-36.8-14.14L83.34,248.3
			c-20.67,6.59-31.05,15.86-28.33,34.09l1.14,7.65c0.59,3.99,1.39,7.94,2.28,11.86c30.42,26.85,70.34,43.17,114.1,43.17
			c29.68,0,57.6-7.5,81.99-20.7l-0.03-13.8C256.1,293.24,251.31,275.93,241.02,261.86z"/>
		<g>
			<path d="M254.52,326.51c-1.18,0-2.13-0.95-2.14-2.13l-0.03-13.8c1.57-17.02-3.07-33.8-13.06-47.45c-0.05-0.07-0.1-0.14-0.14-0.22
				l-20.58-36.8c-6.6-11.8-21.02-17.33-34.29-13.15L84.09,250.3c-21.52,6.86-29.3,16.06-26.96,31.77l1.14,7.65
				c0.52,3.52,1.26,7.34,2.25,11.7c0.26,1.15-0.46,2.3-1.61,2.56c-1.16,0.27-2.3-0.46-2.56-1.61c-1.01-4.46-1.77-8.39-2.31-12.02
				l-1.14-7.65c-3.38-22.66,13.17-31.14,29.79-36.44l100.2-37.35c15.3-4.83,31.83,1.54,39.41,15.1l20.51,36.69
				c10.55,14.47,15.45,32.25,13.8,50.07l0.04,13.59C256.66,325.55,255.71,326.51,254.52,326.51
				C254.53,326.51,254.52,326.51,254.52,326.51z"/>
		</g>
		<g>
			<path class="st2" d="M124.25,234.05l4.32-29.11l1.29-9.45c19.07,5.18,38.15,10.07,57.23,14.57l-1.42,9.4l-5.67,38.01
				C180.01,257.47,157.41,267.21,124.25,234.05z"/>
			<path d="M171.27,260.98c-10,0-27.18-4.08-48.52-25.42c-0.48-0.48-0.7-1.15-0.6-1.82l4.32-29.11l1.29-9.42
				c0.08-0.61,0.42-1.15,0.94-1.49c0.52-0.34,1.15-0.44,1.74-0.28c19.79,5.38,39.02,10.28,57.16,14.55c1.08,0.25,1.79,1.3,1.62,2.4
				l-7.08,47.41c-0.11,0.73-0.59,1.36-1.27,1.65C180.5,259.59,177.1,260.98,171.27,260.98z M126.53,233.29
				c27.18,26.76,46.86,23.81,51.57,22.55l6.59-44.16c-16.9-4.01-34.73-8.54-53.04-13.5l-0.96,7.04L126.53,233.29z"/>
		</g>
	</g>
</g>
</svg>
