<?xml version="1.0" encoding="utf-8"?>
<!-- Generator: Adobe Illustrator 25.0.0, SVG Export Plug-In . SVG Version: 6.00 Build 0)  -->
<svg version="1.1" xmlns="http://www.w3.org/2000/svg" xmlns:xlink="http://www.w3.org/1999/xlink" x="0px" y="0px"
	 viewBox="0 0 345.07 345.07" style="enable-background:new 0 0 345.07 345.07;" xml:space="preserve">
<style type="text/css">
	.st0{fill:#F6E1DC;}
	.st1{fill:#F0AF9B;}
	.st2{fill:#FFFFFF;}
	.st3{fill:#080717;}
	.st4{fill:none;stroke:#85BAC6;stroke-width:0.4121;stroke-miterlimit:10;}
	.st5{fill:#F2ECDE;}
	.st6{fill:#85BAC6;}
	.st7{fill:#FCDEDE;}
	.st8{fill:#AAD2DC;}
	.st9{fill:#F5F5F5;}
	.st10{fill:#E8EDC5;}
	.st11{fill:#B9D2D7;}
	.st12{fill:#FFFFFF;stroke:#000000;stroke-width:2;stroke-linecap:round;stroke-linejoin:round;stroke-miterlimit:10;}
	.st13{fill:#CEE1E7;}
	.st14{fill:#EDE6E4;}
	.st15{fill:#FDE3EC;}
	.st16{fill:#FDEDE0;}
	.st17{fill:#C7E1E0;}
	.st18{fill:#EFCBBF;}
	.st19{fill:#23285C;}
	.st20{fill:#010101;}
	.st21{fill:#C6E0F5;}
	.st22{fill:#DDD6CC;}
	.st23{fill:#E0E0E0;}
	.st24{fill:#F3F3F3;}
</style>
<g id="Layer_3">
</g>
<g id="_x3C_Layer_x3E_">
	<g>

			<ellipse transform="matrix(0.7071 -0.7071 0.7071 0.7071 -71.4658 172.5337)" class="st9" cx="172.53" cy="172.53" rx="172.53" ry="172.53"/>

			<ellipse transform="matrix(0.7071 -0.7071 0.7071 0.7071 -71.4658 172.5337)" class="st10" cx="172.53" cy="172.53" rx="172.53" ry="172.53"/>
		<g>
			<path d="M287.82,303c-0.81,0-1.58-0.46-1.94-1.24c-4.73-10.2-9.58-16.56-15.89-23.52c-6.89-7.6-25.94-14.5-53.65-19.43
				c-0.86-0.16-1.71-0.3-2.54-0.44c-0.44,0.39-0.9,0.76-1.37,1.12c-0.42,0.32-0.82,0.63-1.24,0.92c-2.78,2.03-5.8,3.77-8.72,5.46
				c-9,5.19-16.49,8.19-23.76,9.57c-15.85,3.02-32.44-0.35-45.51-9.23c-2.89-1.95-5.46-4.1-7.63-6.39
				c-0.73-0.77-1.37-1.52-1.96-2.25c-6.95,0.41-45.73,2.89-63.12,7.04c-7.31,1.75-14.69,7.08-21.93,15.86
				c-0.75,0.91-2.1,1.04-3.01,0.29c-0.91-0.75-1.04-2.1-0.29-3.01c7.85-9.51,16-15.33,24.23-17.29c19.87-4.75,64.63-7.21,65.04-7.22
				c0.69-0.03,1.37,0.3,1.79,0.86c0.68,0.91,1.45,1.82,2.35,2.79c1.95,2.05,4.28,4,6.92,5.78c12.15,8.25,27.57,11.37,42.32,8.56
				c6.78-1.28,13.85-4.13,22.24-8.97c3-1.74,5.91-3.42,8.53-5.33c0.39-0.28,0.76-0.56,1.12-0.84c0.63-0.49,1.25-1.01,1.84-1.57
				c0.49-0.46,1.16-0.67,1.82-0.56c1.16,0.19,2.38,0.4,3.61,0.62c20.25,3.61,46.43,10.14,56.06,20.77
				c6.57,7.25,11.64,13.9,16.6,24.59c0.5,1.07,0.03,2.34-1.04,2.84C288.43,302.94,288.13,303,287.82,303z"/>
		</g>
		<g>
			<path d="M278.87,131.15c0.88-4.97-0.24-9.99-3.13-14.12c-2.28-3.26-5.47-5.62-9.15-6.92c0.63-0.67,1.26-1.34,1.8-2.1
				c2.9-4.14,4.01-9.15,3.13-14.12c-1.6-9.05-9.42-15.62-18.6-15.62c-0.04,0-0.09,0.01-0.13,0.01c2.27-5.29,2.17-11.53-0.92-16.9
				c-3.37-5.83-9.64-9.45-16.38-9.45c-2.24,0-4.45,0.44-6.55,1.21c0.05-0.91,0.11-1.83,0.03-2.75c-0.44-5.03-2.81-9.59-6.68-12.83
				c-3.4-2.85-7.71-4.42-12.14-4.42c-4.54,0-8.82,1.68-12.21,4.57c-1.65-5.55-5.75-10.29-11.6-12.42c-2.09-0.76-4.26-1.15-6.47-1.15
				c-6.84,0-13.09,3.75-16.41,9.56c-3.45-4.62-8.91-7.66-15.1-7.66c-9.34,0-17.06,6.82-18.58,15.73c-3.02-2-6.61-3.16-10.38-3.16
				c-2.2,0-4.38,0.39-6.46,1.14c-4.74,1.73-8.53,5.2-10.67,9.77c-1.67,3.59-2.13,7.52-1.43,11.33c-1.42-0.33-2.87-0.53-4.36-0.53
				c-4.43,0-8.74,1.57-12.14,4.42c-3.87,3.25-6.24,7.8-6.68,12.83c-0.35,3.94,0.57,7.79,2.52,11.13c-5.88,0.7-11.18,4.12-14.17,9.3
				c-2.52,4.37-3.2,9.47-1.89,14.34c1.03,3.84,3.21,7.14,6.21,9.62c-5.2,2.61-9.09,7.5-10.16,13.57c-0.88,4.97,0.24,9.99,3.13,14.12
				c2.28,3.26,5.47,5.62,9.15,6.92c-3.96,4.2-6.01,10.11-4.93,16.22c1.6,9.05,9.41,15.62,18.59,15.62c0.04,0,0.09-0.01,0.13-0.01
				c-2.27,5.29-2.17,11.53,0.92,16.9c3.37,5.83,9.65,9.45,16.38,9.45c2.24,0,4.45-0.43,6.55-1.21c-0.05,0.91-0.11,1.83-0.03,2.75
				c0.44,5.03,2.81,9.59,6.68,12.83c3.4,2.85,7.71,4.42,12.14,4.42c4.54,0,8.82-1.68,12.21-4.57c1.65,5.55,5.75,10.29,11.6,12.42
				c2.08,0.76,4.26,1.14,6.46,1.14c6.84,0,13.09-3.75,16.41-9.56c3.45,4.62,8.91,7.66,15.1,7.66c9.34,0,17.06-6.82,18.58-15.73
				c3.02,2,6.61,3.16,10.38,3.16c2.21,0,4.38-0.38,6.47-1.14c4.74-1.73,8.53-5.2,10.66-9.77c1.67-3.59,2.13-7.52,1.43-11.33
				c1.42,0.34,2.87,0.53,4.36,0.53c4.43,0,8.74-1.57,12.14-4.42c7.14-5.99,8.68-16.16,4.14-23.96c5.88-0.69,11.19-4.11,14.18-9.31
				c2.53-4.37,3.2-9.46,1.89-14.34c-1.03-3.84-3.21-7.14-6.22-9.62C273.9,142.11,277.8,137.22,278.87,131.15z"/>
			<g>
				<g>
					<path class="st2" d="M186.51,254.74c0.16-1.14,0.28-2.29,0.28-3.47v-88.51c0-13.43-10.87-24.32-24.3-24.35
						c-13.42,0.03-24.3,10.92-24.3,24.35v88.51c0,0.95-0.05,2.98,0.06,3.91c-7.81,0.6-14.11,1.03-15.89,1.58
						c-0.25,0.08-0.33,0.37-0.17,0.57c1.43,1.79,6.81,7.25,9.2,9.16c12.7,10.17,28.88,13.87,43.92,10.49
						c8.17-1.83,15.74-6.01,22.9-10.88c2.95-2.02,5.96-4.06,8.72-6.43c0.4-0.33,0.78-0.68,1.16-1.03c0.25-0.23,0.47-0.48,0.71-0.71
						C201.93,256.59,194.43,255.53,186.51,254.74z"/>
					<path d="M164.19,280.34c-12.18,0-24.18-4.21-34.15-12.2c-2.46-1.96-7.95-7.5-9.54-9.49c-0.52-0.65-0.68-1.51-0.44-2.3
						c0.24-0.79,0.86-1.4,1.65-1.64c1.73-0.53,5.93-0.87,13.81-1.47l0.5-0.04c0-0.38,0-0.79,0.01-1.21l0.01-0.72v-88.51
						c0-14.57,11.86-26.45,26.43-26.49c14.58,0.03,26.44,11.92,26.44,26.49v88.51c0,0.51-0.02,1.03-0.06,1.57
						c7.24,0.77,14.08,1.77,20.34,2.99c0.78,0.15,1.41,0.72,1.64,1.48c0.23,0.76,0.02,1.59-0.55,2.14l-0.25,0.25
						c-0.16,0.17-0.33,0.34-0.5,0.5c-0.42,0.38-0.82,0.74-1.23,1.09c-2.79,2.4-5.82,4.47-8.74,6.46
						c-8.99,6.12-16.51,9.67-23.8,11.31C171.93,279.92,168.05,280.34,164.19,280.34z M125.96,258.33c2.13,2.24,5.14,5.19,6.75,6.47
						c12.11,9.7,27.46,13.37,42.12,10.08c6.75-1.51,13.8-4.87,22.17-10.56c2.45-1.67,4.86-3.31,7.09-5.09
						c-5.56-0.95-11.53-1.75-17.79-2.36c-0.58-0.06-1.11-0.35-1.47-0.81c-0.36-0.46-0.52-1.04-0.43-1.62
						c0.17-1.22,0.25-2.22,0.25-3.17v-88.51c0-12.22-9.94-22.19-22.17-22.21c-12.21,0.03-22.16,9.99-22.16,22.21l-0.01,89.28
						c-0.01,0.86-0.02,2.3,0.05,2.9c0.07,0.58-0.11,1.16-0.47,1.6c-0.37,0.45-0.91,0.73-1.48,0.77l-2.55,0.2
						C132.1,257.79,128.46,258.06,125.96,258.33z"/>
				</g>
				<g>
					<path class="st2" d="M162.43,138.4c0.02,0,0.04,0,0.06,0c0.02,0,0.04,0,0.06,0H162.43z"/>
					<path d="M162.54,140.54c-0.07-0.03-0.25,0-0.32-0.01c-1.18,0-2.03-0.95-2.03-2.13c0-1.18,1.06-2.13,2.24-2.13h0.11
						c1.18,0,2.14,0.96,2.14,2.14C164.68,139.58,163.72,140.54,162.54,140.54z"/>
				</g>
			</g>
			<g>
				<path class="st2" d="M124.37,151.59c3.03,11.15,0.74,21.48-5.11,23.07c-5.85,1.59-13.05-6.17-16.08-17.32
					c-3.03-11.15-0.74-21.48,5.11-23.07C114.15,132.68,121.35,140.44,124.37,151.59z"/>
				<path d="M117.72,177c-6.55,0-13.54-7.83-16.6-19.1c-1.55-5.72-1.84-11.46-0.8-16.15c1.15-5.17,3.78-8.56,7.41-9.55
					c3.64-0.98,7.62,0.61,11.22,4.49c3.27,3.52,5.92,8.61,7.48,14.33l0,0c3.39,12.48,0.48,23.77-6.62,25.69
					C119.13,176.91,118.43,177,117.72,177z M109.84,136.21c-0.34,0-0.67,0.04-0.99,0.13c-2,0.54-3.59,2.86-4.36,6.35
					c-0.89,4.03-0.63,9.03,0.75,14.1c2.9,10.69,9.42,16.91,13.46,15.82c4.04-1.1,6.51-9.76,3.61-20.45l0,0
					c-1.38-5.07-3.68-9.52-6.48-12.54C113.78,137.4,111.66,136.21,109.84,136.21z"/>
			</g>
			<g>
				<path class="st2" d="M198.2,151.59c-3.03,11.15-0.74,21.48,5.11,23.07c5.85,1.59,13.05-6.17,16.08-17.32
					c3.03-11.15,0.74-21.48-5.11-23.07C208.42,132.68,201.23,140.44,198.2,151.59z"/>
				<path d="M204.85,177c-0.71,0-1.41-0.09-2.1-0.28c-7.1-1.93-10.01-13.21-6.62-25.7l0,0c1.55-5.72,4.21-10.81,7.48-14.33
					c3.6-3.88,7.59-5.48,11.22-4.49c3.63,0.99,6.27,4.38,7.41,9.55c1.04,4.69,0.76,10.42-0.8,16.15
					C218.39,169.17,211.4,177,204.85,177z M200.26,152.15c-2.9,10.69-0.42,19.35,3.61,20.45c4.04,1.09,10.56-5.13,13.46-15.82
					c1.38-5.07,1.64-10.07,0.75-14.1c-0.77-3.49-2.36-5.81-4.36-6.35c-2-0.55-4.54,0.65-6.97,3.27
					C203.94,142.63,201.64,147.08,200.26,152.15L200.26,152.15z"/>
			</g>
			<g>
				<path class="st2" d="M161.42,234.44L161.42,234.44c-25.27,0-45.75-29.68-45.75-54.94v-54.3c0-25.27,29-11.01,45.75-45.75h0
					c7.7,25.58,45.75,20.48,45.75,45.75v54.3C207.17,204.76,186.69,234.44,161.42,234.44z"/>
				<path d="M161.42,236.57c-12.45,0-24.54-6.68-34.03-18.82c-8.68-11.08-13.85-25.39-13.85-38.26v-54.3
					c0-13.76,8-17.13,17.26-21.02c9.13-3.84,20.49-8.61,28.7-25.66c0.38-0.79,1.23-1.27,2.09-1.2c0.88,0.07,1.62,0.67,1.88,1.51
					c3.44,11.42,13.64,16.36,23.5,21.13c10.98,5.31,22.34,10.81,22.34,25.24v54.3c0,12.88-5.18,27.18-13.85,38.26
					C185.96,229.89,173.87,236.57,161.42,236.57z M161.15,84.55c-8.65,15.13-19.69,19.77-28.7,23.56
					c-8.82,3.71-14.65,6.16-14.65,17.08v54.3c0,23.92,19.46,52.81,43.62,52.81c24.16,0,43.62-28.89,43.62-52.81v-54.3
					c0-11.75-9.23-16.22-19.93-21.39C176.15,99.47,166.14,94.63,161.15,84.55z"/>
			</g>
			<path d="M131.83,153.43c1.2,3.06,3.96,4.85,6.17,3.99c2.21-0.86,3.02-4.05,1.82-7.11c-1.2-3.06-3.96-4.85-6.17-3.99
				C131.44,147.18,130.63,150.37,131.83,153.43z"/>
			<g>
				<path d="M146.93,143.82c-0.46,0-0.92-0.15-1.31-0.45c-2.05-1.58-4.89-2.58-8-2.8c-3.78-0.27-7.37,0.67-9.59,2.52
					c-0.91,0.75-2.26,0.63-3.01-0.28c-0.75-0.91-0.63-2.26,0.28-3.01c3.05-2.53,7.77-3.84,12.62-3.49
					c3.95,0.28,7.61,1.59,10.32,3.68c0.93,0.72,1.1,2.06,0.38,3C148.2,143.54,147.56,143.82,146.93,143.82z"/>
			</g>
			<path d="M180.84,153.43c1.2,3.06,3.96,4.85,6.17,3.99c2.21-0.86,3.02-4.05,1.82-7.11c-1.2-3.06-3.96-4.85-6.17-3.99
				C180.46,147.18,179.64,150.37,180.84,153.43z"/>
			<g>
				<path d="M195.94,143.82c-0.46,0-0.92-0.15-1.31-0.45c-2.05-1.58-4.89-2.58-8-2.8c-3.78-0.27-7.37,0.67-9.59,2.52
					c-0.91,0.75-2.25,0.63-3.01-0.28c-0.75-0.91-0.63-2.26,0.28-3.01c3.05-2.53,7.78-3.84,12.62-3.49
					c3.95,0.28,7.61,1.59,10.32,3.68c0.93,0.72,1.1,2.06,0.38,3C197.21,143.54,196.57,143.82,195.94,143.82z"/>
			</g>
			<g>
				<path d="M159.01,174.49c-1.32,0-2.64-0.55-3.47-1.53c-1.63-1.92-1.46-4.45-1.36-5.96c0.56-8.52,1.33-17.14,2.28-25.63
					c0.13-1.17,1.2-2.01,2.36-1.88c1.17,0.13,2.02,1.19,1.88,2.36c-0.95,8.42-1.71,16.98-2.27,25.43c-0.07,1.12-0.11,2.36,0.36,2.91
					c0.01,0,0.03,0.01,0.06,0.01c0.38-0.86,1.3-1.39,2.27-1.26c1.17,0.17,1.98,1.26,1.81,2.42c-0.21,1.42-1.21,2.52-2.67,2.94
					C159.86,174.44,159.43,174.49,159.01,174.49z"/>
			</g>
			<g>
				<path d="M168.22,189.02c-1.55,0-3.07-0.27-4.5-0.82c-1.1-0.42-1.65-1.66-1.23-2.76c0.42-1.1,1.66-1.65,2.76-1.23
					c2.3,0.88,5.04,0.66,7.52-0.6c2.48-1.27,4.27-3.36,4.9-5.75c0.3-1.14,1.47-1.82,2.61-1.52c1.14,0.3,1.82,1.47,1.52,2.61
					c-0.94,3.56-3.52,6.64-7.09,8.46C172.64,188.48,170.41,189.02,168.22,189.02z"/>
			</g>
			<path d="M117.87,135.24c0,0,3.63-29.72,12.95-25.64c9.32,4.08,9.67,12.57,24.17,13.58c14.5,1.02,23.82-4.08,29,1.02
				c5.18,5.09,14.5,16.3,26.93,8.15c12.43-8.15,13.64-27.68-6.04-37.87c-19.68-10.19-49.2-11.72-65.77-12.74
				C122.53,80.73,105.44,110.79,117.87,135.24z"/>
		</g>
	</g>
</g>
</svg>
