<?xml version="1.0" encoding="utf-8"?>
<!-- Generator: Adobe Illustrator 25.0.0, SVG Export Plug-In . SVG Version: 6.00 Build 0)  -->
<svg version="1.1" xmlns="http://www.w3.org/2000/svg" xmlns:xlink="http://www.w3.org/1999/xlink" x="0px" y="0px"
	 viewBox="0 0 345.07 345.07" style="enable-background:new 0 0 345.07 345.07;" xml:space="preserve">
<style type="text/css">
	.st0{fill:#F5F5F5;}
	.st1{fill:#E8EDC5;}
	.st2{fill:#FFFFFF;}
	.st3{fill:#85BAC6;}
	.st4{fill:#F6E1DC;}
	.st5{fill:#080717;}
	.st6{fill:none;stroke:#080717;stroke-width:2;stroke-linecap:round;stroke-linejoin:round;stroke-miterlimit:10;}
	.st7{fill:#F2ECDE;}
	.st8{fill:#C7E1E0;}
	.st9{fill:#FCDEDE;}
	.st10{fill:#EFCBBF;}
	.st11{fill:#CEE1E7;}
	.st12{fill:#FDEDE0;}
	.st13{fill:#B9D2D7;}
	.st14{fill:#EDE6E4;}
	.st15{fill:#FDE3EC;}
	.st16{fill:#DDD6CC;}
	.st17{fill:#F3F3F3;}
	.st18{fill:#E0D5C1;}
	.st19{fill:none;stroke:#000000;stroke-width:2;stroke-linecap:round;stroke-linejoin:round;stroke-miterlimit:10;}
	.st20{fill:#E0E0E0;}
	.st21{fill:#DBDDC0;}
</style>
<g id="Layer_3">
</g>
<g id="_x3C_Layer_x3E_">
	<g>

			<ellipse transform="matrix(0.7071 -0.7071 0.7071 0.7071 -71.4658 172.5337)" class="st11" cx="172.53" cy="172.53" rx="172.53" ry="172.53"/>
		<path class="st3" d="M330.9,241.04c-9.89-19.94-25.47-36.69-45.18-47.54c-0.13,0.01-0.26,0.03-0.39,0.04
			c-10.46-5.92-26.41-5.07-41.84-1.74L73.93,245.68c-15.74,5.62-28.83,16.51-39.45,30.33c31.48,41.93,81.6,69.05,138.06,69.05
			C243.47,345.07,304.39,302.24,330.9,241.04z"/>
		<rect x="166.07" y="78.91" class="st2" width="72.82" height="146.85"/>
		<path d="M234.38,190.3H128.77c-16.62,0-30.09-13.47-30.09-30.09V83.33c0-14.76,11.96-26.72,26.72-26.72h98.06
			c18.71,0,33.87,15.17,33.87,33.87v76.86C257.33,180.02,247.06,190.3,234.38,190.3z"/>
		<g>
			<path class="st2" d="M211.81,178.32l18.69-3.41c11.41-2.08,18.97-13.02,16.89-24.43l0,0c-2.08-11.41-13.02-18.97-24.43-16.89
				l-18.69,3.41c-11.41,2.08-18.97,13.02-16.89,24.43l0,0C189.47,172.84,200.4,180.4,211.81,178.32z"/>
			<path d="M207.99,180.81c-4.66,0-9.2-1.41-13.11-4.11c-5.08-3.51-8.49-8.8-9.6-14.88c-1.11-6.08,0.21-12.23,3.73-17.31
				c3.51-5.08,8.8-8.49,14.88-9.6l18.69-3.41c6.08-1.11,12.23,0.22,17.31,3.73c5.08,3.51,8.49,8.8,9.6,14.88
				c1.11,6.08-0.21,12.23-3.73,17.31c-3.52,5.08-8.8,8.49-14.88,9.6l-18.69,3.41C210.79,180.68,209.39,180.81,207.99,180.81z
				 M226.77,135.39c-1.14,0-2.28,0.1-3.42,0.31l-18.69,3.41c-4.96,0.9-9.26,3.68-12.13,7.83c-2.87,4.14-3.94,9.16-3.04,14.11
				c0.91,4.96,3.69,9.26,7.83,12.13c4.14,2.86,9.15,3.95,14.11,3.04l0,0l18.69-3.41c4.96-0.9,9.26-3.68,12.13-7.83
				c2.87-4.14,3.94-9.16,3.04-14.11c-0.9-4.96-3.69-9.26-7.83-12.13C234.27,136.54,230.57,135.39,226.77,135.39z"/>
		</g>
		<g>
			<path d="M228.09,159.39c-1.12,0-2.07-0.88-2.13-2.02c-0.58-10.19,8.09-14.31,8.46-14.48c1.08-0.5,2.34-0.02,2.84,1.05
				c0.49,1.07,0.03,2.33-1.04,2.83l0,0c-0.26,0.12-6.4,3.12-5.99,10.36c0.07,1.18-0.83,2.19-2.01,2.25
				C228.17,159.39,228.13,159.39,228.09,159.39z"/>
		</g>
		<path class="st2" d="M207.81,232.52h-83.04c-9.18,0-16.62-7.44-16.62-16.62V92.18c0-9.18,7.44-16.62,16.62-16.62h83.04
			c9.18,0,16.62,7.44,16.62,16.62V215.9C224.43,225.08,216.99,232.52,207.81,232.52z"/>
		<path d="M181.42,106.15c15.32,0,28.48-10,34.26-24.3c-6.76-7.23-16.03-11.7-26.28-11.7h-47.65c-19.24,0-35.07,15.75-37.16,36
			H181.42z"/>
		<path d="M204.5,66.36h-1.52c-4.83,7.69-7.67,17.01-7.67,27.06c0,26.39,19.51,47.78,43.58,47.78c0.38,0,0.75-0.02,1.13-0.03V97.78
			C240.02,80.43,224.11,66.36,204.5,66.36z"/>
		<g>
			<path d="M223.73,76.07c-0.37,0-0.75-0.1-1.1-0.3c-1-0.6-1.33-1.89-0.75-2.9c0.06-0.12,0.93-1.81,0.13-4.46
				c-0.88-2.93-3.94-7.47-13.48-12.47c-1.05-0.55-1.45-1.84-0.9-2.88c0.55-1.05,1.83-1.45,2.88-0.9
				c8.85,4.63,14.12,9.77,15.66,15.26c1.23,4.38-0.41,7.31-0.61,7.63C225.16,75.7,224.46,76.07,223.73,76.07z"/>
		</g>
		<g>
			<path d="M213.91,81.53c-1.15,0-2.09-0.88-2.13-2.03c-0.01-0.37-0.05-3.73,3.14-6.98c4-4.07,11.07-6.04,21.07-5.85
				c1.18,0.02,2.12,1,2.1,2.18c-0.02,1.17-0.97,2.1-2.14,2.1c-0.01,0-0.03,0-0.04,0c-10.74-0.2-15.63,2.3-17.81,4.45
				c-2.01,1.98-2.04,3.9-2.04,3.98c0,1.16-0.93,2.13-2.1,2.16C213.93,81.53,213.92,81.53,213.91,81.53z"/>
		</g>
		<g>
			<path d="M179.21,131.93c-0.29,0-0.58-0.06-0.86-0.18c-6.65-2.93-14.37-3.19-21.21-0.72c-1.1,0.4-2.33-0.17-2.74-1.28
				c-0.4-1.11,0.17-2.33,1.28-2.74c7.86-2.84,16.74-2.54,24.38,0.83c1.08,0.48,1.57,1.74,1.09,2.82
				C180.82,131.46,180.04,131.93,179.21,131.93z"/>
		</g>
		<g>
			<path d="M107.67,132.08c-0.64,0-1.27-0.28-1.69-0.82c-0.72-0.93-0.56-2.27,0.37-3c6.76-5.26,14.48-6.32,22.96-3.14
				c1.1,0.41,1.66,1.65,1.25,2.75c-0.42,1.1-1.65,1.66-2.75,1.25c-7.09-2.66-13.25-1.84-18.83,2.51
				C108.59,131.93,108.13,132.08,107.67,132.08z"/>
		</g>
		<g>
			<path d="M142.44,176.84c-0.06,0-0.12,0-0.18-0.01c-8.43-0.69-14.8-7.57-15.06-7.86c-0.54-0.59-0.7-1.42-0.43-2.17l11.31-31.35
				c0.4-1.11,1.63-1.68,2.73-1.29c1.11,0.4,1.69,1.63,1.29,2.74l-10.84,30.06c1.83,1.67,6.23,5.19,11.36,5.61
				c1.18,0.1,2.05,1.13,1.96,2.3C144.48,175.99,143.54,176.84,142.44,176.84z"/>
		</g>
		<path d="M168.56,146.7c0.3,4.26-2.01,7.89-5.16,8.12c-3.15,0.22-5.95-3.05-6.25-7.31c-0.3-4.26,2.01-7.89,5.16-8.12
			C165.46,139.17,168.26,142.44,168.56,146.7z"/>
		<path d="M124.3,146.7c0.3,4.26-2.01,7.89-5.16,8.12c-3.15,0.22-5.95-3.05-6.25-7.31c-0.3-4.26,2.01-7.89,5.16-8.12
			C121.2,139.17,124,142.44,124.3,146.7z"/>
		<path d="M85.41,56.65h86.5v49.26H97.18c-6.5,0-11.77-5.27-11.77-11.77V56.65z"/>
		<path d="M196.66,151.9v11.25c0,9.7-7.86,17.56-17.56,17.56h-70.94v61.75c0,19.62,15.9,35.52,35.52,35.52h45.25
			c19.62,0,35.52-15.9,35.52-35.52v-6.54v-19.7v-83.66h-8.45C205.31,132.58,196.66,141.23,196.66,151.9z"/>
		<path class="st2" d="M170.18,194.88l-29.15,3.56C141.03,198.44,166.94,224.29,170.18,194.88z"/>
	</g>
</g>
</svg>
