<?xml version="1.0" encoding="utf-8"?>
<!-- Generator: Adobe Illustrator 25.0.0, SVG Export Plug-In . SVG Version: 6.00 Build 0)  -->
<svg version="1.1" xmlns="http://www.w3.org/2000/svg" xmlns:xlink="http://www.w3.org/1999/xlink" x="0px" y="0px"
	 viewBox="0 0 345.07 345.07" style="enable-background:new 0 0 345.07 345.07;" xml:space="preserve">
<style type="text/css">
	.st0{fill:#F6E1DC;}
	.st1{fill:#F0AF9B;}
	.st2{fill:#FFFFFF;}
	.st3{fill:#080717;}
	.st4{fill:none;stroke:#85BAC6;stroke-width:0.4121;stroke-miterlimit:10;}
	.st5{fill:#F2ECDE;}
	.st6{fill:#85BAC6;}
	.st7{fill:#FCDEDE;}
	.st8{fill:#AAD2DC;}
	.st9{fill:#F5F5F5;}
	.st10{fill:#E8EDC5;}
	.st11{fill:#B9D2D7;}
	.st12{fill:#FFFFFF;stroke:#000000;stroke-width:2;stroke-linecap:round;stroke-linejoin:round;stroke-miterlimit:10;}
	.st13{fill:#CEE1E7;}
	.st14{fill:#EDE6E4;}
	.st15{fill:#FDE3EC;}
	.st16{fill:#FDEDE0;}
	.st17{fill:#C7E1E0;}
	.st18{fill:#EFCBBF;}
	.st19{fill:#23285C;}
	.st20{fill:#010101;}
	.st21{fill:#C6E0F5;}
	.st22{fill:#DDD6CC;}
	.st23{fill:#E0E0E0;}
	.st24{fill:#F3F3F3;}
</style>
<g id="Layer_3">
</g>
<g id="_x3C_Layer_x3E_">
	<g>

			<ellipse transform="matrix(0.7071 -0.7071 0.7071 0.7071 -71.4658 172.5339)" class="st17" cx="172.53" cy="172.53" rx="172.53" ry="172.53"/>
		<path class="st3" d="M297.49,285.69c0-15.71-12.74-28.45-28.45-28.45H77.39c-15.71,0-28.45,12.74-28.45,28.45v7.17
			c29.28,30.06,69.4,49.5,114.07,51.93h19.05c45.37-2.47,86.05-22.49,115.44-53.37V285.69z"/>
		<path class="st3" d="M140.94,276.01H88.73c0,0-32.82-55.2,2.98-79.07C127.52,173.07,140.94,276.01,140.94,276.01z"/>
		<g>
			<path class="st2" d="M159.7,270.15h-12.83c-4.66,0-33.17-27.53-29.99-30.71v-99.67c0-23.65,19.17-42.82,42.82-42.82l0,0
				c23.65,0,42.82,19.17,42.82,42.82v87.55C202.52,250.97,183.35,270.15,159.7,270.15z"/>
			<path d="M159.71,272.28h-12.83c-5.56,0-28.95-22.95-31.9-30.06c-0.63-1.52-0.56-2.61-0.23-3.38v-99.08
				c0-24.79,20.17-44.96,44.96-44.96c24.79,0,44.96,20.17,44.96,44.96v87.55C204.66,252.11,184.49,272.28,159.71,272.28z
				 M118.82,240.35c1.2,4.71,23.64,26.85,28.16,27.67l12.73-0.01c22.43,0,40.68-18.25,40.68-40.68v-87.55
				c0-22.43-18.25-40.68-40.68-40.68c-22.43,0-40.68,18.25-40.68,40.68v99.67C119.02,239.76,118.95,240.07,118.82,240.35z"/>
		</g>
		<g>
			<path class="st2" d="M169.7,199.8c-17.34,13.1-41.52,15.35-61.52,3.8h0c-26.67-15.4-35.81-49.5-20.41-76.17l29.92-51.83
				c15.4-26.67,49.5-35.81,76.17-20.41v0c26.67,15.4,35.81,49.5,20.41,76.17L169.7,199.8z"/>
			<path d="M136.08,213.23c-9.96,0-19.95-2.57-28.97-7.78c-13.39-7.73-22.97-20.22-26.97-35.15c-4-14.94-1.95-30.54,5.78-43.93
				l29.92-51.83c7.73-13.39,20.22-22.97,35.15-26.97c14.94-4,30.54-1.95,43.93,5.78c13.39,7.73,22.97,20.22,26.97,35.15
				c4,14.94,1.95,30.54-5.78,43.93c-0.59,1.02-1.9,1.37-2.92,0.78c-1.02-0.59-1.37-1.9-0.78-2.92c7.16-12.4,9.06-26.85,5.36-40.69
				c-3.71-13.83-12.58-25.4-24.98-32.56c-12.4-7.16-26.85-9.06-40.69-5.36c-13.83,3.71-25.4,12.58-32.56,24.98l-29.92,51.83
				c-7.16,12.4-9.06,26.85-5.36,40.69c3.71,13.83,12.58,25.4,24.98,32.56c18.7,10.8,41.93,9.36,59.16-3.66
				c0.94-0.71,2.28-0.52,2.99,0.42c0.71,0.94,0.52,2.28-0.42,2.99C160.69,209.28,148.42,213.23,136.08,213.23z"/>
		</g>
		<path class="st3" d="M235.62,139.76c6.3-14.3,7.68-29.73,4.79-44.26c-4.26-7.46-10.9-13.15-18.83-15.61
			c2.43-4.9,3.81-10.5,3.89-16.44c-5.59-6.95-12.48-13.05-20.67-17.78c-35.5-20.5-80.89-8.33-101.38,27.16l-1.79,3.09
			c4.04,1.94,8.49,3.03,13.19,3.03c9.71,0,18.4-4.63,24.41-11.94c5.89,6.16,13.87,9.96,22.67,9.96c0.2,0,0.4-0.03,0.6-0.03
			c3.85,9.85,11.65,17.41,21.22,20.37c-2.5,5.05-3.92,10.82-3.92,16.96c0,19.76,14.69,35.78,32.81,35.78
			C221.57,150.05,229.7,146.12,235.62,139.76z"/>
		<g>
			<path class="st2" d="M187.69,146.69c0-17.62,14.28-31.9,31.9-31.9c17.62,0,31.9,14.28,31.9,31.9c0,17.62-14.28,31.9-31.9,31.9
				c-7.34,0-14.1-2.48-19.49-6.64L187.69,146.69z"/>
			<path d="M219.59,180.74c-7.6,0-14.79-2.45-20.79-7.09c-0.93-0.72-1.11-2.06-0.39-3c0.72-0.93,2.07-1.1,3-0.38
				c5.25,4.05,11.53,6.2,18.18,6.2c16.41,0,29.77-13.35,29.77-29.77c0-16.41-13.35-29.77-29.77-29.77
				c-16.41,0-29.77,13.35-29.77,29.77c0,1.18-0.96,2.14-2.14,2.14c-1.18,0-2.14-0.96-2.14-2.14c0-18.77,15.27-34.04,34.04-34.04
				c18.77,0,34.04,15.27,34.04,34.04C253.63,165.46,238.36,180.74,219.59,180.74z"/>
		</g>
		<path d="M115.39,115c-1.58,3.45-4.88,5.33-7.37,4.19c-2.49-1.14-3.22-4.86-1.63-8.32c1.58-3.45,4.88-5.33,7.37-4.19
			C116.25,107.82,116.98,111.55,115.39,115z"/>
		<path d="M147.48,132.62c-1.58,3.45-4.88,5.33-7.37,4.19c-2.49-1.14-3.22-4.86-1.63-8.32c1.58-3.45,4.88-5.33,7.37-4.19
			C148.33,125.44,149.07,129.17,147.48,132.62z"/>
		<g>
			<path d="M116.84,158.29c-2.26,0-4.51-0.39-6.64-1.17c-1.11-0.41-1.68-1.63-1.27-2.74c0.41-1.11,1.64-1.68,2.74-1.27
				c4.13,1.52,8.89,1.12,12.72-1.07c1.03-0.58,2.33-0.23,2.92,0.79c0.59,1.02,0.23,2.33-0.79,2.92
				C123.57,157.43,120.21,158.29,116.84,158.29z"/>
		</g>
		<g>
			<path d="M114.15,139.13c-0.39,0-0.79-0.11-1.15-0.34c-0.99-0.64-1.28-1.96-0.65-2.95L123.79,118c0.64-0.99,1.96-1.28,2.95-0.65
				c0.99,0.64,1.28,1.96,0.65,2.95l-11.43,17.85C115.54,138.79,114.85,139.13,114.15,139.13z"/>
		</g>
		<g>
			<path d="M121.71,99.68c-0.21,0-0.42-0.03-0.63-0.09c-3.17-0.97-6.58-1.24-9.87-0.77c-1.17,0.15-2.25-0.65-2.42-1.81
				c-0.17-1.17,0.65-2.25,1.81-2.42c3.9-0.55,7.96-0.24,11.73,0.92c1.13,0.35,1.76,1.54,1.42,2.67
				C123.47,99.09,122.62,99.68,121.71,99.68z"/>
		</g>
		<g>
			<path d="M157.65,123.44c-1.06,0-1.98-0.79-2.12-1.87c-0.44-3.43-3.47-6.45-6.9-6.87c-1.17-0.14-2.01-1.21-1.86-2.38
				c0.14-1.17,1.21-2,2.38-1.86c5.37,0.66,9.94,5.2,10.62,10.57c0.15,1.17-0.68,2.24-1.85,2.39
				C157.83,123.44,157.74,123.44,157.65,123.44z"/>
		</g>
		<g>
			<path d="M200.01,155.29c-0.08,0-0.16,0-0.24-0.01c-1.17-0.13-2.02-1.19-1.89-2.36c0.71-6.4,3.19-12.45,7.17-17.5
				c0.73-0.93,2.07-1.09,3-0.36c0.93,0.73,1.09,2.07,0.36,3c-3.44,4.37-5.67,9.81-6.28,15.33
				C202,154.48,201.08,155.29,200.01,155.29z"/>
		</g>
		<g>
			<path d="M236.68,84.17c-0.17,0-0.35-0.02-0.53-0.07l-0.94-0.24c-4.98-1.27-10.62-2.71-14.99-1.26c-1.06,0.35-2.22-0.17-2.65-1.21
				c-0.43-1.03,0.01-2.23,1.01-2.73c4.84-2.44,9.08-6.32,11.93-10.92c0.62-1,1.94-1.32,2.94-0.69c1,0.62,1.32,1.94,0.69,2.94
				c-1.84,2.98-4.13,5.65-6.76,7.91c3.1,0.34,6.16,1.12,8.88,1.82l0.93,0.24c1.14,0.29,1.84,1.45,1.55,2.6
				C238.51,83.53,237.64,84.17,236.68,84.17z"/>
		</g>
		<path class="st3" d="M132.78,275.67c0,0,69.65-77.77,109.12-73.13c26.54,3.12,39.47,25.54,39.47,53.4
			C281.37,283.8,134.52,273.93,132.78,275.67z"/>
		<g>
			<path class="st2" d="M278.95,263.09H209.2c-1.18,0-2.14-0.96-2.14-2.14c0-1.18,0.96-2.14,2.14-2.14h69.74
				c1.18,0,2.14,0.96,2.14,2.14C281.08,262.13,280.13,263.09,278.95,263.09z"/>
		</g>
		<g>
			<path class="st2" d="M159.71,313.54c-1.18,0-2.14-0.96-2.14-2.14v-41.26c0-1.18,0.96-2.14,2.14-2.14c1.18,0,2.14,0.96,2.14,2.14
				v41.26C161.84,312.59,160.89,313.54,159.71,313.54z"/>
		</g>
		<g>
			<path class="st2" d="M123.14,312.06c-1.18,0-2.14-0.96-2.14-2.14v-43.03c0-1.18,0.96-2.14,2.14-2.14c1.18,0,2.14,0.96,2.14,2.14
				v43.03C125.27,311.1,124.32,312.06,123.14,312.06z"/>
		</g>
		<g>
			<path class="st2" d="M110.52,276.45c-0.34,0-0.69-0.08-1.01-0.26l-28.94-15.58c-1.04-0.56-1.43-1.86-0.87-2.89
				c0.56-1.04,1.86-1.43,2.89-0.87l28.94,15.58c1.04,0.56,1.43,1.85,0.87,2.89C112.02,276.04,111.28,276.45,110.52,276.45z"/>
		</g>
	</g>
</g>
</svg>
