<?xml version="1.0" encoding="utf-8"?>
<!-- Generator: Adobe Illustrator 25.0.0, SVG Export Plug-In . SVG Version: 6.00 Build 0)  -->
<svg version="1.1" xmlns="http://www.w3.org/2000/svg" xmlns:xlink="http://www.w3.org/1999/xlink" x="0px" y="0px"
	 viewBox="0 0 345.07 345.07" style="enable-background:new 0 0 345.07 345.07;" xml:space="preserve">
<style type="text/css">
	.st0{fill:#F5F5F5;}
	.st1{fill:#E8EDC5;}
	.st2{fill:#FFFFFF;}
	.st3{fill:#85BAC6;}
	.st4{fill:#F6E1DC;}
	.st5{fill:#080717;}
	.st6{fill:none;stroke:#080717;stroke-width:2;stroke-linecap:round;stroke-linejoin:round;stroke-miterlimit:10;}
	.st7{fill:#F2ECDE;}
	.st8{fill:#C7E1E0;}
	.st9{fill:#FCDEDE;}
	.st10{fill:#EFCBBF;}
	.st11{fill:#CEE1E7;}
	.st12{fill:#FDEDE0;}
	.st13{fill:#B9D2D7;}
	.st14{fill:#EDE6E4;}
	.st15{fill:#FDE3EC;}
	.st16{fill:#DDD6CC;}
	.st17{fill:#F3F3F3;}
	.st18{fill:#E0D5C1;}
	.st19{fill:none;stroke:#000000;stroke-width:2;stroke-linecap:round;stroke-linejoin:round;stroke-miterlimit:10;}
	.st20{fill:#E0E0E0;}
	.st21{fill:#DBDDC0;}
</style>
<g id="Layer_3">
</g>
<g id="_x3C_Layer_x3E_">
	<g>

			<ellipse transform="matrix(0.7071 -0.7071 0.7071 0.7071 -71.4658 172.5338)" class="st8" cx="172.53" cy="172.53" rx="172.53" ry="172.53"/>

			<ellipse transform="matrix(0.7071 -0.7071 0.7071 0.7071 -71.4658 172.5338)" class="st8" cx="172.53" cy="172.53" rx="172.53" ry="172.53"/>
		<g>
			<path d="M45.22,233.34c0,0-19.25-31.77,18.29-68.83c37.55-37.07,48.14-72.2,61.61-92.9c13.48-20.7,58.25-46.69,84.24-25.03
				s34.18,38.99,28.88,64.98c-5.29,25.99,38.25,33.74,42.84,61.61C302.99,306.19,101.06,346.46,45.22,233.34z"/>
			<path class="st3" d="M172.53,345.07c43.95,0,84.03-16.46,114.5-43.51l-28.02-44.21c-13.8-21.77-38.64-33.98-64.31-31.6
				l-71.52,6.62c-24.78,2.29-46.38,17.82-56.45,40.58L55.21,299C86,327.57,127.22,345.07,172.53,345.07z"/>
			<path class="st2" d="M131.86,234.3c0,0,11.07-52.47,10.11-65.95c-0.96-13.48-0.96-15.4,16.85,2.41
				c17.81,17.81,38.99,24.55,38.99,24.55s-11.55,20.22-24.07,42.84c-23.07,41.71-40.43-0.48-40.43-0.48L131.86,234.3z"/>
			<path class="st2" d="M128.97,135.74c0,0,7.66,9.36,13.48,5.66c32.49-20.7,43.32-35.14,47.9-60.17c0,0,13.21,13.36,30.33,13.36
				c0.36,0,13.36,71.48-11.19,101.81C193.24,216.46,165.08,216.25,128.97,135.74z"/>
			<g>
				<path class="st3" d="M175.91,162.06c-10.73,0-19.47-11.49-19.47-25.6c0-14.12,8.73-25.6,19.47-25.6
					c10.73,0,19.47,11.49,19.47,25.6C195.37,150.58,186.64,162.06,175.91,162.06z M175.91,115.13c-8.38,0-15.19,9.57-15.19,21.33
					c0,11.76,6.82,21.33,15.19,21.33c8.38,0,15.19-9.57,15.19-21.33C191.1,124.7,184.28,115.13,175.91,115.13z"/>
			</g>
			<g>
				<path class="st3" d="M221.04,162.06c-10.73,0-19.47-11.49-19.47-25.6c0-14.12,8.73-25.6,19.47-25.6
					c10.73,0,19.46,11.49,19.46,25.6C240.5,150.58,231.77,162.06,221.04,162.06z M221.04,115.13c-8.38,0-15.19,9.57-15.19,21.33
					c0,11.76,6.82,21.33,15.19,21.33c8.38,0,15.19-9.57,15.19-21.33C236.23,124.7,229.41,115.13,221.04,115.13z"/>
			</g>
			<g>
				<path class="st3" d="M201.54,138.6h-6.49c-1.18,0-2.14-0.96-2.14-2.14c0-1.18,0.96-2.14,2.14-2.14h6.49
					c1.18,0,2.14,0.96,2.14,2.14C203.67,137.64,202.72,138.6,201.54,138.6z"/>
			</g>
			<g>
				<path class="st5" d="M198.31,162.46c-0.8,0-1.56-0.44-1.93-1.21c-0.51-1.06-0.07-2.34,1-2.85c0.34-0.16,0.64-0.4,0.89-0.69
					c-1.1-2.01-1.6-4.37-1.38-6.65c0.11-1.17,1.12-2.04,2.33-1.92c1.17,0.11,2.03,1.16,1.92,2.33c-0.16,1.73,0.32,3.52,1.34,4.92
					c0.42,0.58,0.52,1.32,0.27,1.99c-0.62,1.68-1.9,3.09-3.51,3.86C198.94,162.4,198.62,162.46,198.31,162.46z"/>
			</g>
			<g>
				<path class="st5" d="M182.45,175.85c-4.18,0-8.27-2.11-10.62-5.62c-0.66-0.98-0.39-2.31,0.59-2.96
					c0.98-0.65,2.31-0.39,2.96,0.59c1.79,2.68,5.27,4.17,8.44,3.61c1.17-0.21,2.27,0.57,2.47,1.74c0.2,1.16-0.57,2.27-1.74,2.47
					C183.87,175.79,183.16,175.85,182.45,175.85z"/>
			</g>
			<path d="M182.93,138.04c-0.2-4-2.37-7.13-4.86-7.01c-2.48,0.12-4.33,3.46-4.13,7.46c0.2,3.99,2.37,7.13,4.86,7.01
				C181.28,145.38,183.13,142.04,182.93,138.04z"/>
			<path d="M218.31,138.04c-0.2-4-2.37-7.13-4.86-7.01c-2.48,0.12-4.33,3.46-4.13,7.46c0.2,3.99,2.37,7.13,4.86,7.01
				C216.66,145.38,218.51,142.04,218.31,138.04z"/>
			<g>
				<path class="st2" d="M59.42,260.02c-0.69,0-1.36-0.33-1.78-0.95c-9.22-13.72-11.38-30.05-6.42-48.53
					c9.09-33.86,41.21-67.75,65.75-79.74c43.22-21.11,66.59-42.8,67.57-62.72c0.87-17.69-16.31-28.51-16.49-28.61
					c-1-0.62-1.32-1.93-0.7-2.94c0.62-1.01,1.94-1.32,2.94-0.7c0.79,0.49,19.49,12.2,18.52,32.43
					c-1.05,21.89-24.59,44.22-69.97,66.38c-23.7,11.58-54.72,44.31-63.5,77.01c-4.63,17.23-2.66,32.38,5.84,45.03
					c0.66,0.98,0.4,2.31-0.58,2.97C60.24,259.9,59.83,260.02,59.42,260.02z"/>
			</g>
			<path class="st2" d="M144.59,151.76c2.57,10.42,0.56,19.86-4.47,21.1c-5.03,1.24-11.19-6.2-13.76-16.61
				c-2.57-10.42-0.56-19.86,4.47-21.1C135.86,133.91,142.02,141.35,144.59,151.76z"/>
			<g>
				<path class="st5" d="M192.99,211.89c-0.01,0-0.02,0-0.03,0c-32.97-0.5-39.77-22.74-40.05-23.69c-0.33-1.13,0.33-2.32,1.46-2.65
					c1.13-0.32,2.31,0.32,2.64,1.46c0.26,0.86,6.35,20.16,36.01,20.6c1.18,0.02,2.12,0.99,2.1,2.17
					C195.11,210.95,194.16,211.89,192.99,211.89z"/>
			</g>
		</g>
	</g>
</g>
</svg>
