<?xml version="1.0" encoding="utf-8"?>
<!-- Generator: Adobe Illustrator 25.0.0, SVG Export Plug-In . SVG Version: 6.00 Build 0)  -->
<svg version="1.1" xmlns="http://www.w3.org/2000/svg" xmlns:xlink="http://www.w3.org/1999/xlink" x="0px" y="0px"
	 viewBox="0 0 345.07 345.07" style="enable-background:new 0 0 345.07 345.07;" xml:space="preserve">
<style type="text/css">
	.st0{fill:#F6E1DC;}
	.st1{fill:#F0AF9B;}
	.st2{fill:#FFFFFF;}
	.st3{fill:#080717;}
	.st4{fill:none;stroke:#85BAC6;stroke-width:0.4121;stroke-miterlimit:10;}
	.st5{fill:#F2ECDE;}
	.st6{fill:#85BAC6;}
	.st7{fill:#FCDEDE;}
	.st8{fill:#AAD2DC;}
	.st9{fill:#F5F5F5;}
	.st10{fill:#E8EDC5;}
	.st11{fill:#B9D2D7;}
	.st12{fill:#FFFFFF;stroke:#000000;stroke-width:2;stroke-linecap:round;stroke-linejoin:round;stroke-miterlimit:10;}
	.st13{fill:#CEE1E7;}
	.st14{fill:#EDE6E4;}
	.st15{fill:#FDE3EC;}
	.st16{fill:#FDEDE0;}
	.st17{fill:#C7E1E0;}
	.st18{fill:#EFCBBF;}
	.st19{fill:#23285C;}
	.st20{fill:#010101;}
	.st21{fill:#C6E0F5;}
	.st22{fill:#DDD6CC;}
	.st23{fill:#E0E0E0;}
	.st24{fill:#F3F3F3;}
</style>
<g id="Layer_3">
</g>
<g id="_x3C_Layer_x3E_">
	<g>

			<ellipse transform="matrix(0.7071 -0.7071 0.7071 0.7071 -71.4658 172.5338)" class="st23" cx="172.53" cy="172.53" rx="172.53" ry="172.53"/>
		<g>
			<path d="M54.68,300.62c-0.19,0-0.38-0.03-0.58-0.08c-1.14-0.32-1.8-1.5-1.48-2.63c4.25-15.22,10.19-26.01,17.65-32.09
				c5.69-6.99,13.06-12.36,21.32-15.52l101.41-35.86c32.66-11.55,69.59-3.12,94.09,21.48c10.33,10.38,20.41,21.1,29.96,31.87
				c0.78,0.88,0.7,2.23-0.18,3.02c-0.88,0.78-2.23,0.7-3.02-0.18c-9.49-10.71-19.51-21.37-29.79-31.69
				c-23.34-23.44-58.53-31.48-89.64-20.47L93.07,254.31c-7.58,2.9-14.38,7.88-19.62,14.37c-0.1,0.12-0.21,0.23-0.33,0.33
				c-6.84,5.48-12.35,15.59-16.39,30.05C56.47,300,55.61,300.62,54.68,300.62z"/>
		</g>
		<path class="st2" d="M146.83,68.45c0,0-50.37,49.76-63.11,81.92c-12.74,32.16-5.16,58.56,37.93,50.67c0,0,7.28-7.28,9.1,9.1
			c1.89,17.02,3.34,33.68,3.34,33.68s3.67,18.64,19.3,18.64c31.11,0,55.22-23.44,47.45-22.28c0,0-8.8-24.27-6.98-38.84
			c1.82-14.56,6.06-29.75,6.06-29.75l13.35-4.85c0,0,16.69-7.27,13.05-32.76C222.68,108.5,204.48,55.71,146.83,68.45z"/>
		<path d="M113.2,117.6c-0.98,2.07-2.97,3.19-4.45,2.49c-1.48-0.7-1.89-2.95-0.91-5.02c0.98-2.07,2.97-3.19,4.45-2.49
			C113.76,113.28,114.17,115.52,113.2,117.6z"/>
		<path d="M143.92,129.04c-0.98,2.07-2.97,3.19-4.45,2.49c-1.48-0.7-1.89-2.95-0.91-5.02c0.98-2.07,2.97-3.19,4.45-2.49
			C144.49,124.72,144.9,126.96,143.92,129.04z"/>
		<g>
			<path d="M158.39,120.26c-0.79,0-1.55-0.44-1.92-1.2c-4.5-9.21-15.05-4.92-15.49-4.73c-1.09,0.45-2.34-0.06-2.8-1.15
				c-0.46-1.09,0.06-2.34,1.15-2.8c5.07-2.12,15.99-3.44,20.98,6.8c0.52,1.06,0.08,2.34-0.98,2.86
				C159.02,120.19,158.7,120.26,158.39,120.26z"/>
		</g>
		<g>
			<path d="M121.37,112.37c-0.79,0-1.55-0.44-1.92-1.2c-4.47-9.16-15.05-4.91-15.5-4.73c-1.08,0.45-2.34-0.07-2.79-1.15
				c-0.45-1.09,0.06-2.33,1.14-2.79c5.07-2.13,15.99-3.44,20.98,6.8c0.52,1.06,0.08,2.34-0.98,2.86
				C122.01,112.3,121.69,112.37,121.37,112.37z"/>
		</g>
		<g>
			<path d="M106.3,204.95c-8.18,0-14.79-1.92-19.79-5.76c-13.54-10.4-10.18-31.07-8.83-37.15c4.9-22.05,47.13-77.95,48.93-80.32
				c0.71-0.94,2.05-1.13,2.99-0.41c0.94,0.71,1.12,2.05,0.41,2.99c-0.43,0.57-43.47,57.53-48.16,78.67
				c-1.21,5.46-4.28,23.97,7.26,32.84c9.05,6.95,30.18,9.86,79.48-15.78c1.05-0.55,2.34-0.14,2.88,0.91
				c0.54,1.05,0.14,2.34-0.91,2.88C143.5,197.89,122,204.94,106.3,204.95z"/>
		</g>
		<g>
			<path class="st3" d="M114.96,148.86c-0.16,0-0.32-0.02-0.48-0.05c-3.18-0.73-5.33-2.22-6.39-4.43c-1.53-3.17-0.08-6.41,0.09-6.76
				l11.92-20.19c0.6-1.02,1.91-1.35,2.93-0.75c1.02,0.6,1.35,1.91,0.75,2.93l-11.83,20.01c0,0,0,0,0,0c0.02,0-0.65,1.63-0.01,2.93
				c0.48,0.97,1.65,1.68,3.5,2.1c1.15,0.27,1.87,1.41,1.6,2.56C116.82,148.19,115.94,148.86,114.96,148.86z"/>
		</g>
		<g>
			<path class="st3" d="M115.22,167.24c-8.44,0-13.45-4.05-13.76-4.31c-0.91-0.76-1.03-2.1-0.27-3.01c0.75-0.9,2.09-1.03,3-0.28
				c0.42,0.34,10.11,7.97,25.79-1.11c1.02-0.59,2.33-0.24,2.92,0.78c0.59,1.02,0.24,2.33-0.78,2.92
				C125.58,166.01,119.88,167.24,115.22,167.24z"/>
		</g>
		<path d="M173.83,138.53c0,0,21.85-31.86,12.74-42.78c-9.1-10.92-45.51-8.19-50.06-5.46c-4.55,2.73-1.82-6.37-1.82-6.37
			l-18.21,7.28c0,0,0.91-23.67,16.38-30.04c15.47-6.37,10.01-1.82,10.01-1.82s-2.73-15.47,20.94-16.38
			c23.67-0.91,57.35,14.56,61.9,22.76c4.55,8.19,21.85,37.32,19.12,58.26c-2.73,20.94-20.94,21.85-20.94,21.85s0-14.56-19.12-13.65
			c-19.12,0.91-19.12,14.56-19.12,14.56L173.83,138.53z"/>
		<g>
			<path d="M190.21,157.96c-0.2,0-0.4-0.03-0.6-0.09c-1.13-0.33-1.78-1.52-1.45-2.65c0.13-0.44,3.27-10.92,10.94-14.12
				c4.14-1.72,8.91-1.22,12.77,1.35c2.94,1.96,4.76,4.75,4.76,7.3c0,1.18-0.96,2.14-2.14,2.14c-1.18,0-2.14-0.96-2.14-2.14
				c0-0.91-0.98-2.49-2.85-3.74c-1.28-0.85-4.7-2.65-8.75-0.96c-5.77,2.41-8.46,11.28-8.48,11.37
				C191.99,157.36,191.13,157.96,190.21,157.96z"/>
		</g>
		<g>
			<path d="M155.93,264.61c-2.55,0-5.04-0.33-7.42-1.08c-8.64-2.72-14.5-10.41-17.42-22.87c-4.18-17.83-6.1-40.74-6.12-40.97
				c-0.1-1.18,0.78-2.21,1.95-2.3c1.17-0.11,2.21,0.78,2.3,1.95c0.02,0.23,1.92,22.83,6.02,40.35c2.55,10.88,7.44,17.54,14.54,19.77
				c17.34,5.46,43.34-15.52,48.65-20.02l-1.17-4.65c-12.61-30.56-1.47-59.03,0.45-63.5c0-1.38,1.69-1.97,14.84-6.55
				c10.14-3.53,11.91-21.66,11.92-21.84c0.11-1.17,1.16-2.05,2.32-1.94c1.17,0.11,2.04,1.14,1.94,2.32
				c-0.08,0.86-2.03,21.06-14.78,25.49c-8.25,2.87-11.3,4-12.41,4.44c-1.93,4.71-11.98,31.87-0.27,60.08c0.04,0.1,0.07,0.2,0.1,0.3
				l1.52,6.08c0.19,0.77-0.06,1.58-0.65,2.11C201.1,242.82,176.54,264.61,155.93,264.61z"/>
		</g>
	</g>
</g>
</svg>
