<?xml version="1.0" encoding="utf-8"?>
<!-- Generator: Adobe Illustrator 25.0.0, SVG Export Plug-In . SVG Version: 6.00 Build 0)  -->
<svg version="1.1" xmlns="http://www.w3.org/2000/svg" xmlns:xlink="http://www.w3.org/1999/xlink" x="0px" y="0px"
	 viewBox="0 0 345.07 345.07" style="enable-background:new 0 0 345.07 345.07;" xml:space="preserve">
<style type="text/css">
	.st0{fill:#F5F5F5;}
	.st1{fill:#E8EDC5;}
	.st2{fill:#FFFFFF;}
	.st3{fill:#85BAC6;}
	.st4{fill:#F6E1DC;}
	.st5{fill:#080717;}
	.st6{fill:none;stroke:#080717;stroke-width:2;stroke-linecap:round;stroke-linejoin:round;stroke-miterlimit:10;}
	.st7{fill:#F2ECDE;}
	.st8{fill:#C7E1E0;}
	.st9{fill:#FCDEDE;}
	.st10{fill:#EFCBBF;}
	.st11{fill:#CEE1E7;}
	.st12{fill:#FDEDE0;}
	.st13{fill:#B9D2D7;}
	.st14{fill:#EDE6E4;}
	.st15{fill:#FDE3EC;}
	.st16{fill:#DDD6CC;}
	.st17{fill:#F3F3F3;}
	.st18{fill:#E0D5C1;}
	.st19{fill:none;stroke:#000000;stroke-width:2;stroke-linecap:round;stroke-linejoin:round;stroke-miterlimit:10;}
	.st20{fill:#E0E0E0;}
	.st21{fill:#DBDDC0;}
</style>
<g id="Layer_3">
</g>
<g id="_x3C_Layer_x3E_">
	<g>

			<ellipse transform="matrix(0.7071 -0.7071 0.7071 0.7071 -71.4658 172.5337)" class="st0" cx="172.53" cy="172.53" rx="172.53" ry="172.53"/>

			<ellipse transform="matrix(0.7071 -0.7071 0.7071 0.7071 -71.4658 172.5337)" class="st1" cx="172.53" cy="172.53" rx="172.53" ry="172.53"/>

			<ellipse transform="matrix(0.7071 -0.7071 0.7071 0.7071 -71.4658 172.5337)" class="st1" cx="172.53" cy="172.53" rx="172.53" ry="172.53"/>
		<g>
			<g>
				<ellipse transform="matrix(0.7071 -0.7071 0.7071 0.7071 -112.9915 117.6575)" cx="85.53" cy="195.22" rx="55.07" ry="55.07"/>
				<path d="M70.02,211.39c0,0-43.49-25.57-29.9-48.64c13.59-23.08,41.04-20.6,40.42-45.35c-0.62-24.74-10.47-48.92,32.04-41.82
					c42.51,7.1,46.49-44.34,72.36-32.27c25.88,12.06,17.51,33.2,40.22,46.84c22.72,13.65,65.95,8.2,56.37,50.25
					c-9.57,42.05-32.87,74.07-48.91,68.57c-16.03-5.49-8.25,19.04-12.12,33.18c-3.88,14.13-17.87,59.28-59.43,0.24
					C119.51,183.35,97.84,225.18,70.02,211.39z"/>
				<path class="st2" d="M187.46,141.95l-43.5,23.08c0,0-7.35,24.91-18.91,45.3c-11.56,20.38,47.59,11.66,47.59,11.66L187.46,141.95
					z"/>
				<path d="M142.99,189.04c0,0,23.68-5.5,35.26-21.16c6.16-8.32,6.62-17.35,4.11-23.22l-24.62,13.06c-0.1,0.45-0.14,0.73-0.14,0.73
					s-0.18-0.13-0.5-0.38l-13.13,6.96c0,0-3.3,11.18-8.96,24.69L142.99,189.04z"/>
				<path class="st2" d="M183.42,149.97c11.58-15.66,3.11-33.91-7.65-28.66c-10.76,5.24-13,19.24-13,19.24s-21.29-15.24-14.61-39.62
					c-8.83-1.04-18.36-3.72-27.92-8.04l-18.92,45.2l10.72,4.25l3.59,31.6l32.53-2.81C148.16,171.13,171.84,165.63,183.42,149.97z"/>
				<g>
					<path d="M132.1,114.46c-4.27-5.77-10.15-4.41-10.4-4.35l-1.06-4.14c0.36-0.09,8.88-2.19,14.89,5.95L132.1,114.46z"/>
				</g>
				<g>
					<path d="M129.44,155.18l-0.76-4.21c7.06-1.27,8.45-7.14,8.51-7.39l4.18,0.88C141.29,144.83,139.41,153.39,129.44,155.18z"/>
				</g>
				<path d="M126.72,119.34c-1.03,1.52-2.74,1.95-3.81,0.96c-1.07-0.99-1.11-3.02-0.07-4.54c1.03-1.52,2.74-1.95,3.81-0.96
					C127.72,115.79,127.76,117.82,126.72,119.34z"/>
				<path class="st3" d="M172.53,345.07c43.16,0,82.59-15.88,112.84-42.08l-10.26-24.9c-12.55-30.44-39.24-52.78-71.41-59.78
					l-59.45-12.92c-34.37-7.47-69.15,10.77-82.55,43.3l-16.55,40.19C76.7,323.41,122.08,345.07,172.53,345.07z"/>
				<path d="M325.34,208.72c0-27.76-21.09-50.6-48.13-53.37c-3.22-1.87-5.97-3.62-7.89-5.24c-9.74-8.2,1.54-11.79,2.56-23.07
					c1.03-11.28-30.55-21.66-30.55-21.66c-7.48-5.76-59.18-19.36-71.48-9.11c-12.31,10.25-6.15,36.92-4.1,31.79
					c2.05-5.13,6.1-11.1,13.09-6.21c12.54,8.77-3.86,20.05-3.86,20.05s-16.41,15.38-9.23,34.87c4.6,12.49,6.98,19.86,7.05,25.4
					c-2.43,6.21-3.78,12.97-3.78,20.04c0,30.41,25.02,50.38,55.07,55.07c50.09,7.82,89.16-28.63,97.21-48.11
					c3.29-5.95,4.29-11.99,3.98-17.77C325.32,210.52,325.34,209.62,325.34,208.72z"/>
			</g>
		</g>
	</g>
</g>
</svg>
