<?xml version="1.0" encoding="utf-8"?>
<!-- Generator: Adobe Illustrator 25.0.0, SVG Export Plug-In . SVG Version: 6.00 Build 0)  -->
<svg version="1.1" xmlns="http://www.w3.org/2000/svg" xmlns:xlink="http://www.w3.org/1999/xlink" x="0px" y="0px"
	 viewBox="0 0 345.07 345.07" style="enable-background:new 0 0 345.07 345.07;" xml:space="preserve">
<style type="text/css">
	.st0{fill:#F5F5F5;}
	.st1{fill:#E8EDC5;}
	.st2{fill:#FFFFFF;}
	.st3{fill:#85BAC6;}
	.st4{fill:#F6E1DC;}
	.st5{fill:#080717;}
	.st6{fill:none;stroke:#080717;stroke-width:2;stroke-linecap:round;stroke-linejoin:round;stroke-miterlimit:10;}
	.st7{fill:#F2ECDE;}
	.st8{fill:#C7E1E0;}
	.st9{fill:#FCDEDE;}
	.st10{fill:#EFCBBF;}
	.st11{fill:#CEE1E7;}
	.st12{fill:#FDEDE0;}
	.st13{fill:#B9D2D7;}
	.st14{fill:#EDE6E4;}
	.st15{fill:#FDE3EC;}
	.st16{fill:#DDD6CC;}
	.st17{fill:#F3F3F3;}
	.st18{fill:#E0D5C1;}
	.st19{fill:none;stroke:#000000;stroke-width:2;stroke-linecap:round;stroke-linejoin:round;stroke-miterlimit:10;}
	.st20{fill:#E0E0E0;}
	.st21{fill:#DBDDC0;}
</style>
<g id="Layer_3">
</g>
<g id="_x3C_Layer_x3E_">
	<g>

			<ellipse transform="matrix(0.7071 -0.7071 0.7071 0.7071 -71.4658 172.5337)" class="st4" cx="172.53" cy="172.53" rx="172.53" ry="172.53"/>
		<g>
			<path class="st2" d="M263.7,232.6c-0.01,0-0.01,0-0.02-0.01c0,0,0,0,0,0l-45.92-18.23l-8.65-15.91
				c-0.14-0.25-0.37-0.43-0.64-0.51c-0.27-0.08-0.57-0.05-0.81,0.09l-0.64,0.35l3.83-32.15c0.06-0.5-0.25-0.98-0.73-1.14
				c-0.48-0.15-1.01,0.06-1.26,0.51c-18.42,33.91-68.16,17.34-68.67,17.17c-0.3-0.1-0.64-0.06-0.91,0.11
				c-0.27,0.17-0.45,0.46-0.49,0.78l-2.13,18.92L125,215.6l-37.85,3.78c-14.32,1.43-27.35,8.26-36.68,19.23l-23.08,27.14
				c30.7,47.7,84.21,79.32,145.15,79.32c38.8,0,74.6-12.81,103.42-34.42c5.93-17.89,5.45-40.18,0.92-56.82
				C273.76,242.41,269.08,234.87,263.7,232.6z"/>
			<path class="st3" d="M151.86,232.16l-11.07,20.49l3.3,1.41l-38.08,77.69c7.6,3.18,15.48,5.84,23.59,7.92l23.44-32.39l-1.53-50.75
				l4.59-1.41L151.86,232.16z"/>
			<path class="st5" d="M163.4,46.7c-8.28,0-15.53,4.22-19.72,10.64h-8.11c-10.09,0-18.27,8.18-18.27,18.28v45.13h12.85v-18.36
				c0-7.09,5.77-12.85,12.86-12.85h7.49h-11.88h7.86c13.02,0,23.58-10.54,23.58-23.59V46.7H163.4z"/>
			<g>
				<path class="st2" d="M136.54,137.54c0,6.19-5.02,11.17-11.22,11.17h-0.93c-6.16,0-11.18-4.98-11.18-11.17v-13.58
					c0-6.15,5.02-11.16,11.18-11.16h0.93c4.59,0,8.52,2.74,10.27,6.66L136.54,137.54z"/>
				<path d="M125.32,150.85h-0.93c-7.34,0-13.32-5.97-13.32-13.31v-13.58c0-7.33,5.97-13.3,13.32-13.3h0.93
					c5.28,0,10.07,3.11,12.22,7.92c0.48,1.08,0,2.34-1.08,2.82c-1.09,0.48-2.34-0.01-2.82-1.08c-1.46-3.27-4.72-5.39-8.32-5.39
					h-0.93c-4.99,0-9.04,4.05-9.04,9.03v13.58c0,4.98,4.06,9.04,9.04,9.04h0.93c5.01,0,9.08-4.05,9.08-9.04
					c0-1.18,0.96-2.14,2.14-2.14c1.18,0,2.14,0.96,2.14,2.14C138.68,144.88,132.69,150.85,125.32,150.85z"/>
			</g>
			<path class="st5" d="M153.37,64.62V46.7h7.4h19.52h11.79c13.03,0,23.58,10.55,23.58,23.54v17.94h-7.43h-19.51h-11.79
				C163.92,88.19,153.37,77.63,153.37,64.62z"/>
			<g>
				<path class="st2" d="M199.7,123.96c0-6.18,4.99-11.16,11.17-11.16h0.94c6.16,0,11.2,4.99,11.2,11.16v13.58
					c0,6.16-5.04,11.17-11.2,11.17h-0.94c-4.56,0-8.5-2.72-10.24-6.64L199.7,123.96z"/>
				<path d="M211.81,150.85h-0.94c-5.27,0-10.06-3.1-12.19-7.91c-0.48-1.08,0-2.34,1.08-2.82c1.08-0.48,2.34,0.01,2.82,1.08
					c1.45,3.26,4.71,5.37,8.29,5.37h0.94c5,0,9.06-4.05,9.06-9.04v-13.58c0-4.98-4.07-9.03-9.06-9.03h-0.94
					c-4.98,0-9.04,4.05-9.04,9.03c0,1.18-0.96,2.14-2.14,2.14c-1.18,0-2.14-0.96-2.14-2.14c0-7.33,5.97-13.3,13.31-13.3h0.94
					c7.36,0,13.34,5.97,13.34,13.3v13.58C225.15,144.88,219.16,150.85,211.81,150.85z"/>
			</g>
			<g>
				<path class="st2" d="M212.33,154.7c-0.03,9.35-7.2,25.25-19.06,30.24c-16.14,6.68-35.24,6.68-51.37,0
					c-11.9-5-18.99-20.89-19.07-30.24c0-26.64,0-53.23,0-79.82c-0.05-9.44,9.37-17.36,20.97-17.59c15.85,0,31.71,0,47.58,0
					c11.61,0.22,21.04,8.15,20.95,17.59C212.33,101.48,212.33,128.07,212.33,154.7z"/>
				<path d="M167.57,192.07c-9.1,0-18.2-1.72-26.49-5.15c-13.01-5.46-20.31-22.51-20.39-32.2V74.88
					c-0.05-10.62,10.29-19.48,23.06-19.72h47.62c12.85,0.24,23.19,9.1,23.09,19.75v79.8c0,0,0,0,0,0.01
					c-0.03,9.67-7.3,26.7-20.37,32.21C185.78,190.35,176.68,192.07,167.57,192.07z M191.34,59.43h-47.54
					c-10.4,0.2-18.87,7.13-18.83,15.44v79.83c0.07,8.71,6.86,23.7,17.76,28.27c15.55,6.44,34.14,6.44,49.72,0
					c10.95-4.61,17.71-19.58,17.74-28.28V74.88C210.27,66.55,201.81,59.63,191.34,59.43z M212.32,154.7h0.02H212.32z"/>
			</g>
			<path class="st5" d="M176.72,46.7c8.29,0,15.53,4.22,19.75,10.64h8.09c10.07,0,18.25,8.18,18.25,18.28v45.13h-12.85v-18.36
				c0-7.09-5.77-12.85-12.86-12.85h-0.14h4.54h-20.82c-13.04,0-23.55-10.54-23.55-23.59V46.7H176.72z"/>
			<path class="st5" d="M157.14,69.24c0.27-1.49,0.43-3.03,0.43-4.62V46.7h-7.42h-9.24c-13.06,0-23.61,10.55-23.61,23.54v17.94h4.93
				h2.49H134c1.65,0,3.3-0.17,4.84-0.51C140.69,78.45,147.92,71.17,157.14,69.24z"/>
			<g>
				<path d="M165.35,173.19c-7.23,0-14.61-9.12-15.49-10.24c-0.5-0.64-0.6-1.52-0.24-2.25c0.36-0.74,1.1-1.2,1.92-1.2h21.62
					c0.65,0,1.27,0.3,1.68,0.81c0.4,0.51,0.55,1.18,0.4,1.82c-1.5,6.36-4.24,10.02-8.15,10.88
					C166.52,173.13,165.94,173.19,165.35,173.19z M156.41,163.77c2.88,2.76,6.84,5.71,9.77,5.06c1.98-0.44,3.29-2.66,4.14-5.06
					H156.41z"/>
			</g>
			<g>
				<path d="M188.93,99.92c-0.29,0-0.58-0.06-0.86-0.18c-4.76-2.1-10.3-2.28-15.2-0.52c-1.11,0.4-2.33-0.17-2.74-1.28
					c-0.4-1.11,0.17-2.34,1.28-2.74c5.92-2.14,12.61-1.91,18.37,0.62c1.08,0.48,1.57,1.74,1.09,2.82
					C190.54,99.45,189.76,99.92,188.93,99.92z"/>
			</g>
			<g>
				<path d="M130.68,102.12c-0.64,0-1.27-0.28-1.69-0.82c-0.72-0.93-0.56-2.27,0.37-3c5.15-4,11.01-4.81,17.45-2.39
					c1.1,0.42,1.66,1.65,1.25,2.75c-0.42,1.1-1.65,1.66-2.75,1.25c-5.02-1.88-9.38-1.3-13.32,1.76
					C131.6,101.97,131.14,102.12,130.68,102.12z"/>
			</g>
			<path d="M177.01,121.47c0,2.22,1.29,4.02,2.89,4.02c1.6,0,2.89-1.8,2.89-4.02c0-2.22-1.29-4.02-2.89-4.02
				C178.3,117.45,177.01,119.25,177.01,121.47z"/>
			<path d="M140.47,121.49c0,2.22,1.29,4.02,2.89,4.02c1.6,0,2.89-1.8,2.89-4.02c0-2.22-1.29-4.02-2.89-4.02
				C141.77,117.47,140.47,119.27,140.47,121.49z"/>
			<g>
				<path class="st3" d="M141,137.87c-0.39,0-0.78-0.01-1.17-0.04c-9.64-0.63-16.97-8.99-16.33-18.63
					c0.64-9.64,8.94-16.96,18.63-16.33l0,0c9.64,0.63,16.96,8.99,16.33,18.63c-0.31,4.67-2.41,8.94-5.93,12.03
					C149.3,136.35,145.25,137.87,141,137.87z M140.97,107.1c-6.91,0-12.75,5.38-13.21,12.38c-0.48,7.29,5.06,13.61,12.35,14.09
					c3.53,0.23,6.94-0.92,9.6-3.26c2.66-2.33,4.25-5.56,4.48-9.09c0.48-7.29-5.06-13.61-12.35-14.09
					C141.55,107.11,141.26,107.1,140.97,107.1z"/>
			</g>
			<g>
				<path d="M163.25,150.42c-0.06,0-0.12,0-0.18-0.01c-6.43-0.52-11.26-5.75-11.46-5.97c-0.53-0.59-0.7-1.42-0.43-2.16l8.32-23.08
					c0.4-1.11,1.63-1.68,2.73-1.29c1.11,0.4,1.69,1.63,1.29,2.74l-7.85,21.77c1.42,1.25,4.37,3.46,7.75,3.73
					c1.18,0.1,2.05,1.13,1.96,2.3C165.29,149.58,164.36,150.42,163.25,150.42z"/>
			</g>
			<g>
				<path class="st3" d="M180.86,136.78c-4.5,0-8.75-1.69-12.03-4.8c-3.4-3.22-5.34-7.57-5.47-12.24
					c-0.13-4.68,1.58-9.13,4.79-12.52c3.22-3.4,7.57-5.34,12.24-5.47c4.66-0.16,9.12,1.57,12.52,4.79c3.4,3.22,5.34,7.57,5.47,12.24
					c0.13,4.68-1.58,9.13-4.79,12.52c-3.22,3.4-7.56,5.34-12.24,5.47C181.19,136.78,181.03,136.78,180.86,136.78z M180.89,106.01
					c-0.12,0-0.25,0-0.37,0.01c-3.54,0.1-6.83,1.56-9.26,4.13c-2.43,2.57-3.72,5.93-3.62,9.47c0.1,3.54,1.56,6.82,4.13,9.26
					c2.57,2.43,5.87,3.72,9.47,3.62c3.54-0.1,6.83-1.56,9.26-4.13c2.43-2.57,3.72-5.93,3.62-9.47c-0.1-3.54-1.56-6.82-4.13-9.26
					C187.5,107.29,184.29,106.01,180.89,106.01z"/>
			</g>
			<g>
				<path class="st3" d="M164.65,121.99c-0.02,0-0.04,0-0.06,0l-7.27-0.19c-1.18-0.03-2.11-1.01-2.08-2.19
					c0.03-1.18,0.98-2.17,2.19-2.08l7.27,0.19c1.18,0.03,2.11,1.01,2.08,2.19C166.75,121.06,165.8,121.99,164.65,121.99z"/>
			</g>
			<g>
				<g>
					<path class="st5" d="M205.7,202.63c-0.08,0-0.17-0.01-0.25-0.01c-1.17-0.14-2.01-1.2-1.87-2.37l4.09-34.38
						c0.14-1.17,1.18-2,2.37-1.87c1.17,0.14,2.01,1.2,1.87,2.37l-4.09,34.38C207.69,201.83,206.77,202.63,205.7,202.63z"/>
				</g>
				<g>
					<path class="st5" d="M137.41,207.57c-0.08,0-0.16,0-0.24-0.01c-1.17-0.13-2.02-1.19-1.88-2.36l2.44-21.67
						c0.13-1.17,1.18-2.02,2.36-1.88c1.17,0.13,2.02,1.19,1.88,2.36l-2.44,21.67C139.41,206.76,138.48,207.57,137.41,207.57z"/>
				</g>
			</g>
			<g>
				<path class="st5" d="M158.01,262.21c-0.26,0-0.53-0.05-0.78-0.15c-0.69-0.27-1.2-0.89-1.32-1.62l-5.3-30.38
					c-0.16-0.9,0.27-1.79,1.07-2.24l55.46-30.73c0.5-0.28,1.09-0.34,1.63-0.18c0.55,0.16,1.01,0.53,1.28,1.03l8.83,16.25
					c0.5,0.93,0.25,2.08-0.58,2.72l-58.99,44.86C158.93,262.06,158.47,262.21,158.01,262.21z M155.08,230.82l4.44,25.42l54.74-41.63
					l-6.93-12.75L155.08,230.82z"/>
			</g>
			<g>
				<path class="st5" d="M136.11,259.73c-0.1,0-0.2-0.01-0.3-0.02c-0.85-0.12-1.55-0.74-1.77-1.58l-10.6-40.98
					c-0.18-0.69,0-1.43,0.48-1.96l12.01-13.42c0.46-0.51,1.12-0.77,1.82-0.7c0.68,0.07,1.29,0.47,1.63,1.06l15.19,26.49
					c0.38,0.67,0.38,1.49-0.02,2.16l-16.6,27.91C137.56,259.34,136.86,259.73,136.11,259.73z M127.87,217.19l9.03,34.91l13.34-22.43
					l-13.1-22.84L127.87,217.19z"/>
			</g>
			<g>
				<path class="st5" d="M28.19,268.58c-0.49,0-0.98-0.17-1.38-0.51c-0.9-0.76-1.01-2.11-0.24-3.01l23.08-27.13
					c9.51-11.18,22.79-18.14,37.39-19.6l38.27-3.83c1.2-0.11,2.22,0.74,2.34,1.91c0.12,1.17-0.74,2.22-1.91,2.34l-38.27,3.83
					c-13.5,1.35-25.77,7.78-34.56,18.12l-23.08,27.14C29.4,268.32,28.8,268.58,28.19,268.58z"/>
			</g>
			<g>
				<path class="st5" d="M51.78,309.98c-0.31,0-0.62-0.07-0.92-0.21c-1.06-0.51-1.51-1.79-1.01-2.85l18.63-38.94
					c0.51-1.06,1.78-1.51,2.85-1.01c1.06,0.51,1.51,1.79,1.01,2.85l-18.63,38.94C53.34,309.53,52.57,309.98,51.78,309.98z"/>
			</g>
			<g>
				<path class="st5" d="M129.04,340.63c-0.43,0-0.87-0.13-1.25-0.4c-0.96-0.69-1.17-2.03-0.48-2.98c0.06-0.09,6.48-8.95,15.22-20.5
					c15.73-20.79,36.66-47.24,47.04-55.19c10.92-8.36,55.58-37.95,74.55-29.95c15.39,6.5,22.48,50.27,12.86,79.38
					c-2.05,6.2-4.77,11.61-8.09,16.07c-0.7,0.95-2.04,1.15-2.99,0.44c-0.95-0.7-1.14-2.04-0.44-2.99c3.05-4.1,5.56-9.09,7.47-14.86
					c9.37-28.35,1.64-68.98-10.47-74.1c-6.28-2.65-18.41,0.02-34.2,7.51c-14.59,6.93-28.56,16.12-36.09,21.89
					c-7.8,5.97-24.22,25.28-46.23,54.37c-8.71,11.51-15.1,20.34-15.16,20.43C130.36,340.32,129.71,340.63,129.04,340.63z"/>
			</g>
			<g>
				<path class="st5" d="M263.28,235.71c-0.26,0-0.53-0.05-0.79-0.15l-46.28-18.37c-1.1-0.44-1.63-1.68-1.2-2.78
					c0.44-1.1,1.68-1.63,2.78-1.2l46.28,18.37c1.1,0.44,1.63,1.68,1.2,2.78C264.93,235.2,264.13,235.71,263.28,235.71z"/>
			</g>
		</g>
	</g>
</g>
</svg>
