<svg xmlns="http://www.w3.org/2000/svg" xml:space="preserve" style="enable-background:new 0 0 60.9 50" viewBox="0 0 60.9 50"><path d="m60.3 34.8-5.1-8.1-.5-.7c-.8-1.2-2.1-1.9-3.5-1.9L43 24l-.5 1-9.8 15.7-.5.9 4.1 6.6c.8 1.2 2.1 1.9 3.5 1.9h11.5c1.4 0 2.8-.7 3.5-1.9l.4-.6 5.1-8.2c.8-1.5.8-3.2 0-4.6zm-1.6 3.5-5.1 8.2s0 .1-.1.1c-.2.2-.4.2-.5.2-.1 0-.4 0-.6-.3l-5.1-8.2c-.1-.1-.1-.2-.2-.3 0-.1-.1-.2-.1-.3-.1-.4-.1-.8 0-1.3.1-.2.1-.4.3-.6l5.1-8.1c.1-.2.3-.3.4-.3h.2c.1 0 .4 0 .6.3l5.1 8.1c.5.8.5 1.7 0 2.5zM45.2 15.1c.8-1.3.8-3.1 0-4.4l-5.1-8.1-.4-.7C38.9.7 37.6 0 36.2 0H24.7c-1.4 0-2.7.7-3.5 1.9L.6 34.9c-.4.6-.6 1.4-.6 2.1 0 .8.2 1.5.6 2.2L6.1 48c.8 1.3 2.1 2 3.6 2h11.5c1.4 0 2.8-.7 3.5-1.9l.4-.7 4.1-6.6 12.1-19.4 3.9-6.3zM44 13c0 .4-.1.8-.4 1.2L23.5 46.4c-.2.3-.5.3-.6.3-.1 0-.4 0-.6-.3l-5.1-8.2c-.5-.7-.5-1.7 0-2.4L37.4 3.6c.2-.3.5-.3.6-.3.1 0 .4 0 .6.3l5.1 8.1c.2.4.3.8.3 1.3z"/></svg>