<svg width="172" height="36" viewBox="0 0 229 48" fill="none" xmlns="http://www.w3.org/2000/svg">
<rect width="229" height="48" rx="8" fill="#5B00EA"/>
<path d="M27.9501 26.3886H42.0374V33H19V26.3886H25.4759L34.3921 21.6114H19V15H42.0374V21.6114L27.9501 26.3886Z" fill="white"/>
<path d="M34.3155 15H19V21.6114H34.3155V15Z" fill="#BA8EFF"/>
<path d="M42.0357 26.3887H28.0214V33.0001H42.0357V26.3887Z" fill="#BA8EFF"/>
<path d="M58.456 30V18.16H61.704C65.32 18.16 67.56 20.032 67.56 24.032C67.56 28.016 65.32 30 61.832 30H58.456ZM60.824 28.096H61.56C63.768 28.096 65.144 26.912 65.144 24.032C65.144 21.136 63.768 20.048 61.56 20.048H60.824V28.096ZM69.8779 30V18.16H77.1419V20.128H72.2459V22.864H76.4059V24.848H72.2459V28.016H77.3179V30H69.8779ZM79.7216 30V18.16H83.6096C86.2336 18.16 88.2496 19.072 88.2496 21.872C88.2496 24.576 86.2176 25.792 83.6736 25.792H82.0896V30H79.7216ZM82.0896 23.92H83.5136C85.1456 23.92 85.9296 23.232 85.9296 21.872C85.9296 20.496 85.0656 20.032 83.4336 20.032H82.0896V23.92ZM90.3935 30V18.16H92.7615V28.016H97.5615V30H90.3935ZM103.723 30.224C100.587 30.224 98.4265 27.872 98.4265 24.032C98.4265 20.176 100.587 17.936 103.723 17.936C106.859 17.936 109.019 20.192 109.019 24.032C109.019 27.872 106.859 30.224 103.723 30.224ZM103.723 28.176C105.483 28.176 106.602 26.56 106.602 24.032C106.602 21.488 105.483 19.968 103.723 19.968C101.963 19.968 100.843 21.488 100.843 24.032C100.843 26.56 101.963 28.176 103.723 28.176ZM112.956 30V25.664L109.404 18.16H111.916L113.1 21.04C113.436 21.92 113.756 22.752 114.124 23.664H114.188C114.556 22.752 114.908 21.92 115.244 21.04L116.428 18.16H118.892L115.324 25.664V30H112.956ZM126.23 30V20.128H122.902V18.16H131.958V20.128H128.598V30H126.23ZM138.082 30.224C134.946 30.224 132.786 27.872 132.786 24.032C132.786 20.176 134.946 17.936 138.082 17.936C141.218 17.936 143.378 20.192 143.378 24.032C143.378 27.872 141.218 30.224 138.082 30.224ZM138.082 28.176C139.842 28.176 140.962 26.56 140.962 24.032C140.962 21.488 139.842 19.968 138.082 19.968C136.322 19.968 135.202 21.488 135.202 24.032C135.202 26.56 136.322 28.176 138.082 28.176ZM148.547 30V28.576L154.067 20.128H149.075V18.16H156.963V19.568L151.459 28.016H157.027V30H148.547ZM159.128 30V18.16H166.392V20.128H161.496V22.864H165.656V24.848H161.496V28.016H166.568V30H159.128ZM171.196 25.12H174.012L173.66 23.824C173.292 22.592 172.972 21.232 172.62 19.952H172.556C172.252 21.248 171.9 22.592 171.548 23.824L171.196 25.12ZM175.356 30L174.524 26.96H170.684L169.852 30H167.452L171.244 18.16H174.028L177.836 30H175.356ZM179.222 30V18.16H183.142C185.574 18.16 187.43 18.864 187.43 21.072C187.43 22.16 186.822 23.28 185.814 23.632V23.712C187.094 24.016 188.038 24.912 188.038 26.512C188.038 28.896 186.054 30 183.446 30H179.222ZM181.59 22.976H182.966C184.47 22.976 185.126 22.368 185.126 21.424C185.126 20.384 184.422 19.968 182.998 19.968H181.59V22.976ZM181.59 28.176H183.238C184.854 28.176 185.734 27.6 185.734 26.368C185.734 25.216 184.87 24.736 183.238 24.736H181.59V28.176ZM194.656 30.224C191.776 30.224 190.048 28.608 190.048 24.672V18.16H192.416V24.88C192.416 27.344 193.264 28.176 194.656 28.176C196.064 28.176 196.96 27.344 196.96 24.88V18.16H199.232V24.672C199.232 28.608 197.552 30.224 194.656 30.224ZM204.449 20.032V23.648H205.985C207.505 23.648 208.337 23.008 208.337 21.744C208.337 20.464 207.505 20.032 205.985 20.032H204.449ZM211.169 30H208.529L206.097 25.52H204.449V30H202.081V18.16H206.209C208.689 18.16 210.657 19.024 210.657 21.744C210.657 23.52 209.761 24.624 208.401 25.152L211.169 30Z" fill="white"/>
</svg>
