<svg width="285" height="382" viewBox="0 0 285 382" fill="none" xmlns="http://www.w3.org/2000/svg">
<g >
<g clip-path="url(#clip0_3291_5826)">
<g style="mix-blend-mode:plus-lighter">
<path opacity="0.0344828" d="M258.251 600.148C254.481 600.142 250.744 598.49 247.066 595.229C243.384 591.965 239.799 587.118 236.363 580.818C229.492 568.217 223.291 549.94 218.086 527.295C207.679 482.017 201.29 419.441 201.401 350.307C201.511 281.173 208.1 218.618 218.652 173.373C223.93 150.745 230.189 132.488 237.101 119.91C240.557 113.62 244.158 108.785 247.85 105.532C251.538 102.284 255.281 100.643 259.05 100.649C262.82 100.655 266.558 102.308 270.235 105.568C273.917 108.833 277.502 113.679 280.938 119.98C287.809 132.58 294.01 150.857 299.215 173.502C309.623 218.781 316.011 281.356 315.901 350.49C315.79 419.624 309.201 482.18 298.649 527.424C293.371 550.052 287.112 568.309 280.2 580.888C276.744 587.177 273.143 592.012 269.451 595.265C265.763 598.514 262.021 600.154 258.251 600.148Z" stroke="white" stroke-width="1.5"/>
<path opacity="0.0689655" d="M234.952 600.446C231.197 600.111 227.618 598.139 224.239 594.571C220.855 590.998 217.706 585.857 214.832 579.281C209.085 566.13 204.501 547.382 201.289 524.369C194.868 478.356 193.957 415.462 200.093 346.601C206.229 277.739 218.245 215.996 232.7 171.844C239.93 149.761 247.756 132.12 255.738 120.191C259.729 114.227 263.737 109.724 267.699 106.806C271.656 103.891 275.528 102.582 279.283 102.917C283.038 103.252 286.617 105.224 289.996 108.792C293.379 112.365 296.528 117.506 299.402 124.082C305.149 137.233 309.734 155.981 312.945 178.994C319.366 225.007 320.277 287.901 314.141 356.762C308.006 425.624 295.99 487.367 281.534 531.519C274.305 553.601 266.478 571.243 258.496 583.172C254.505 589.136 250.497 593.639 246.535 596.557C242.578 599.472 238.707 600.781 234.952 600.446Z" stroke="white" stroke-width="1.5"/>
<path opacity="0.103448" d="M211.821 598.851C208.109 598.19 204.715 595.914 201.66 592.064C198.601 588.21 195.912 582.814 193.622 576.013C189.043 562.41 186.11 543.334 184.917 520.13C182.53 473.732 187.105 410.998 199.219 342.933C211.333 274.869 228.684 214.408 246.932 171.683C256.059 150.315 265.394 133.422 274.385 122.235C278.881 116.641 283.266 112.505 287.467 109.943C291.663 107.384 295.634 106.418 299.345 107.079C303.057 107.739 306.45 110.016 309.506 113.865C312.565 117.72 315.254 123.115 317.543 129.916C322.122 143.519 325.055 162.595 326.249 185.8C328.636 232.197 324.061 294.932 311.947 362.996C299.833 431.061 282.482 491.521 264.233 534.246C255.107 555.614 245.772 572.507 236.781 583.694C232.285 589.288 227.9 593.424 223.699 595.986C219.503 598.545 215.532 599.511 211.821 598.851Z" stroke="white" stroke-width="1.5"/>
<path opacity="0.137931" d="M189.022 595.384C185.383 594.403 182.2 591.839 179.492 587.738C176.781 583.631 174.572 578.022 172.884 571.047C169.508 557.098 168.249 537.838 169.082 514.618C170.748 468.189 180.773 406.092 198.773 339.342C216.773 272.592 239.328 213.874 261.231 172.902C272.185 152.411 282.957 136.396 292.889 126.035C297.855 120.854 302.584 117.116 306.992 114.93C311.395 112.746 315.435 112.13 319.075 113.112C322.715 114.093 325.897 116.657 328.605 120.758C331.317 124.865 333.525 130.474 335.213 137.449C338.589 151.398 339.849 170.658 339.015 193.878C337.349 240.307 327.324 302.404 309.324 369.154C291.324 435.904 268.769 494.622 246.866 535.594C235.912 556.085 225.141 572.1 215.209 582.461C210.243 587.642 205.513 591.38 201.105 593.566C196.702 595.75 192.662 596.366 189.022 595.384Z" stroke="white" stroke-width="1.5"/>
<path opacity="0.172414" d="M166.72 590.082C163.179 588.787 160.232 585.956 157.892 581.634C155.549 577.307 153.837 571.527 152.764 564.431C150.616 550.24 151.04 530.945 153.894 507.885C159.601 461.778 174.999 400.791 198.749 335.864C222.498 270.937 250.085 214.408 275.475 175.501C288.173 156.043 300.3 141.028 311.097 131.572C316.496 126.843 321.533 123.532 326.115 121.738C330.691 119.946 334.769 119.685 338.31 120.98C341.85 122.275 344.797 125.106 347.137 129.428C349.481 133.755 351.192 139.535 352.266 146.631C354.413 160.822 353.989 180.117 351.135 203.177C345.429 249.284 330.03 310.271 306.281 375.198C282.531 440.125 254.945 496.654 229.554 535.56C216.856 555.019 204.73 570.034 193.933 579.49C188.534 584.218 183.497 587.53 178.914 589.324C174.338 591.115 170.26 591.377 166.72 590.082Z" stroke="white" stroke-width="1.5"/>
<path opacity="0.206897" d="M145.069 582.995C141.655 581.396 138.967 578.319 137.012 573.81C135.054 569.295 133.853 563.388 133.402 556.225C132.5 541.901 134.604 522.716 139.457 499.993C149.16 454.559 169.816 395.146 199.133 332.536C228.451 269.926 260.859 216.017 289.544 179.471C303.89 161.193 317.279 147.292 328.859 138.813C334.649 134.573 339.956 131.713 344.677 130.325C349.392 128.939 353.478 129.034 356.892 130.633C360.306 132.232 362.994 135.309 364.949 139.818C366.907 144.333 368.108 150.24 368.559 157.403C369.461 171.727 367.357 190.912 362.504 213.635C352.801 259.069 332.145 318.482 302.828 381.092C273.51 443.702 241.102 497.611 212.417 534.157C198.071 552.435 184.682 566.336 173.102 574.815C167.311 579.055 162.005 581.915 157.284 583.303C152.569 584.689 148.483 584.594 145.069 582.995Z" stroke="white" stroke-width="1.5"/>
<path opacity="0.241379" d="M124.225 574.187C120.963 572.297 118.553 568.997 116.998 564.335C115.442 559.667 114.76 553.677 114.935 546.503C115.284 532.155 119.053 513.226 125.868 491.012C139.494 446.596 165.249 389.21 199.912 329.393C234.575 269.577 271.558 218.697 303.319 184.79C319.204 167.832 333.753 155.151 346.028 147.714C352.166 143.995 357.701 141.608 362.526 140.637C367.344 139.668 371.405 140.118 374.667 142.008C377.929 143.898 380.339 147.198 381.893 151.86C383.45 156.529 384.131 162.518 383.957 169.693C383.607 184.041 379.839 202.97 373.024 225.183C359.398 269.599 333.643 326.986 298.98 386.802C264.317 446.619 227.333 497.498 195.573 531.405C179.688 548.363 165.139 561.044 152.864 568.482C146.726 572.201 141.19 574.588 136.366 575.558C131.548 576.528 127.486 576.078 124.225 574.187Z" stroke="white" stroke-width="1.5"/>
<path opacity="0.275862" d="M104.335 563.734C101.25 561.566 99.1365 558.069 97.9944 553.289C96.8507 548.503 96.6939 542.477 97.4932 535.345C99.0917 521.082 104.495 502.553 113.22 481.018C130.666 437.959 161.325 383.035 201.069 326.468C240.813 269.9 282.091 222.437 316.686 191.427C333.988 175.918 349.587 164.553 362.464 158.214C368.902 155.044 374.625 153.149 379.515 152.602C384.399 152.056 388.406 152.859 391.491 155.026C394.575 157.194 396.689 160.691 397.831 165.471C398.975 170.257 399.132 176.283 398.332 183.415C396.734 197.678 391.33 216.207 382.605 237.742C365.16 280.801 334.501 335.724 294.757 392.292C255.012 448.86 213.735 496.323 179.14 527.333C161.838 542.842 146.238 554.207 133.362 560.546C126.923 563.716 121.201 565.611 116.31 566.158C111.426 566.704 107.419 565.901 104.335 563.734Z" stroke="white" stroke-width="1.5"/>
<path opacity="0.310345" d="M85.5363 551.725C82.6523 549.298 80.8517 545.629 80.1305 540.768C79.4083 535.9 79.7773 529.883 81.1951 522.848C84.0307 508.779 91.0287 490.792 101.597 470.099C122.729 428.724 158.058 376.682 202.582 323.793C247.105 270.905 292.362 227.22 329.528 199.343C348.116 185.402 364.646 175.439 378.026 170.247C384.717 167.65 390.583 166.261 395.502 166.142C400.415 166.024 404.337 167.173 407.221 169.601C410.105 172.029 411.906 175.697 412.627 180.558C413.349 185.426 412.98 191.443 411.562 198.478C408.727 212.547 401.729 230.534 391.16 251.227C370.028 292.602 334.699 344.644 290.176 397.533C245.652 450.421 200.395 494.106 163.229 521.983C144.641 535.925 128.111 545.887 114.731 551.08C108.04 553.676 102.175 555.066 97.2551 555.184C92.3419 555.302 88.4203 554.153 85.5363 551.725Z" stroke="white" stroke-width="1.5"/>
<path opacity="0.344828" d="M67.962 538.263C65.3006 535.593 63.8265 531.782 63.5318 526.876C63.2366 521.964 64.1285 516.002 66.1542 509.117C70.2052 495.349 78.7442 478.04 91.0762 458.347C115.734 418.972 155.464 370.206 204.427 321.4C253.391 272.593 302.283 233.019 341.737 208.487C361.47 196.218 378.805 187.735 392.587 183.728C399.478 181.724 405.443 180.852 410.354 181.162C415.259 181.473 419.065 182.959 421.727 185.629C424.388 188.299 425.862 192.11 426.157 197.016C426.452 201.928 425.56 207.89 423.535 214.775C419.484 228.544 410.945 245.852 398.613 265.545C373.955 304.921 334.225 353.686 285.261 402.493C236.298 451.3 187.406 490.874 147.952 515.405C128.219 527.674 110.883 536.157 97.1017 540.164C90.2105 542.168 84.2459 543.041 79.3348 542.73C74.4299 542.419 70.6234 540.933 67.962 538.263Z" stroke="white" stroke-width="1.5"/>
<path opacity="0.37931" d="M51.7334 523.459C49.3148 520.568 48.1785 516.642 48.3124 511.73C48.4465 506.81 49.8547 500.949 52.4726 494.267C57.7083 480.904 67.7233 464.405 81.7248 445.862C109.72 408.785 153.55 363.668 206.58 319.315C259.611 274.961 311.767 239.799 353.209 218.8C373.935 208.297 391.944 201.357 406.023 198.566C413.063 197.171 419.081 196.821 423.946 197.559C428.805 198.296 432.468 200.108 434.886 203C437.305 205.892 438.441 209.817 438.307 214.73C438.173 219.649 436.765 225.51 434.147 232.192C428.911 245.556 418.896 262.054 404.895 280.597C376.899 317.674 333.07 362.791 280.039 407.145C227.008 451.498 174.853 486.66 133.411 507.66C112.684 518.162 94.6751 525.102 80.5965 527.893C73.5568 529.288 67.5389 529.638 62.6736 528.9C57.8145 528.163 54.152 526.351 51.7334 523.459Z" stroke="white" stroke-width="1.5"/>
<path opacity="0.413793" d="M36.9629 507.436C34.8056 504.345 34.0157 500.335 34.5773 495.453C35.1396 490.564 37.0532 484.848 40.2436 478.419C46.6241 465.563 58.0389 450 73.6032 432.748C104.724 398.252 152.318 357.127 209.013 317.564C265.708 278.001 320.729 247.518 363.844 230.211C385.407 221.555 403.952 216.211 418.221 214.658C425.355 213.881 431.381 214.058 436.163 215.216C440.94 216.374 444.43 218.499 446.588 221.59C448.745 224.682 449.535 228.691 448.973 233.573C448.411 238.462 446.497 244.178 443.307 250.607C436.926 263.463 425.512 279.026 409.947 296.278C378.827 330.774 331.232 371.899 274.537 411.462C217.843 451.025 162.821 481.508 119.707 498.815C98.1435 507.471 79.598 512.816 65.3298 514.368C58.1953 515.145 52.1698 514.969 47.3873 513.81C42.6109 512.652 39.1203 510.528 36.9629 507.436Z" stroke="white" stroke-width="1.5"/>
<path opacity="0.448276" d="M23.7514 490.325C21.8717 487.057 21.4343 482.994 22.4193 478.179C23.4055 473.358 25.8101 467.83 29.5486 461.704C37.0252 449.453 49.753 434.945 66.7618 419.114C100.77 387.462 151.768 350.642 211.695 316.171C271.622 281.699 329.091 256.128 373.55 242.644C395.786 235.901 414.726 232.193 429.076 231.89C436.251 231.738 442.238 232.438 446.901 234.01C451.559 235.579 454.851 238 456.73 241.268C458.61 244.536 459.048 248.598 458.063 253.413C457.076 258.235 454.672 263.762 450.933 269.888C443.457 282.139 430.729 296.648 413.72 312.478C379.712 344.13 328.714 380.951 268.786 415.422C208.859 449.893 151.391 475.465 106.932 488.948C84.6961 495.692 65.7554 499.4 51.4061 499.703C44.2311 499.855 38.2439 499.154 33.5806 497.583C28.9232 496.014 25.6311 493.593 23.7514 490.325Z" stroke="white" stroke-width="1.5"/>
<path opacity="0.482759" d="M12.1884 472.265C10.6007 468.846 10.519 464.761 11.9199 460.05C13.3226 455.333 16.1998 450.036 20.458 444.259C28.974 432.706 42.9179 419.362 61.2415 405.074C97.8792 376.507 151.892 344.271 214.596 315.154C277.299 286.037 336.778 265.572 382.243 256.014C404.982 251.234 424.173 249.191 438.494 250.14C445.655 250.614 451.559 251.834 456.067 253.806C460.57 255.775 463.639 258.473 465.227 261.893C466.814 265.312 466.896 269.397 465.495 274.108C464.092 278.825 461.215 284.122 456.957 289.899C448.441 301.452 434.497 314.796 416.173 329.084C379.536 357.651 325.523 389.887 262.819 419.004C200.116 448.121 140.637 468.586 95.172 478.144C72.4335 482.924 53.2416 484.967 38.9205 484.018C31.7596 483.544 25.8563 482.324 21.3476 480.352C16.8448 478.383 13.7762 475.685 12.1884 472.265Z" stroke="white" stroke-width="1.5"/>
<path opacity="0.517241" d="M2.34834 453.406C1.06464 449.861 1.33938 445.784 3.14551 441.213C4.95397 436.637 8.28187 431.611 13.0273 426.227C22.5178 415.46 37.5717 403.382 57.0709 390.746C96.0589 365.48 152.676 338.075 217.679 314.534C282.681 290.992 343.717 275.789 389.842 270.23C412.911 267.45 432.208 267.088 446.392 269.281C453.484 270.377 459.259 272.107 463.578 274.464C467.892 276.818 470.714 279.774 471.998 283.319C473.281 286.863 473.007 290.94 471.201 295.511C469.392 300.088 466.064 305.114 461.319 310.498C451.828 321.264 436.774 333.342 417.275 345.979C378.287 371.244 321.67 398.65 256.668 422.191C191.665 445.732 130.629 460.936 84.5038 466.494C61.4352 469.275 42.1383 469.637 27.9544 467.444C20.8621 466.347 15.0875 464.618 10.7678 462.26C6.45376 459.906 3.63204 456.951 2.34834 453.406Z" stroke="white" stroke-width="1.5"/>
<path opacity="0.551724" d="M-5.7039 433.899C-6.67378 430.256 -6.04475 426.218 -3.84712 421.822C-1.64667 417.421 2.10663 412.704 7.30326 407.754C17.696 397.855 33.7452 387.135 54.2716 376.247C95.3133 354.475 154.103 332.109 220.91 314.322C287.717 296.536 349.846 286.71 396.28 285.192C419.503 284.433 438.758 285.754 452.697 289.175C459.667 290.886 465.269 293.112 469.367 295.837C473.459 298.558 476.013 301.748 476.982 305.391C477.952 309.034 477.323 313.072 475.126 317.468C472.925 321.87 469.172 326.587 463.975 331.536C453.583 341.435 437.533 352.155 417.007 363.044C375.965 384.815 317.175 407.182 250.368 424.968C183.561 442.754 121.432 452.58 74.9982 454.098C51.775 454.857 32.5201 453.536 18.5812 450.115C11.6114 448.405 6.00958 446.178 1.91184 443.454C-2.18064 440.732 -4.73402 437.542 -5.7039 433.899Z" stroke="white" stroke-width="1.5"/>
<path opacity="0.586207" d="M-11.9199 413.903C-12.5686 410.19 -11.59 406.222 -9.01763 402.034C-6.44192 397.841 -2.2918 393.469 3.31645 388.992C14.5324 380.036 31.4549 370.756 52.8521 361.698C95.6351 343.586 156.151 326.428 224.254 314.532C292.357 302.636 355.106 298.263 401.495 300.798C424.696 302.066 443.763 305.06 457.35 309.682C464.145 311.994 469.531 314.7 473.376 317.772C477.216 320.839 479.481 324.24 480.13 327.954C480.778 331.667 479.8 335.635 477.228 339.822C474.652 344.015 470.502 348.387 464.893 352.865C453.678 361.82 436.755 371.101 415.358 380.159C372.575 398.271 312.059 415.429 243.956 427.325C175.853 439.221 113.104 443.594 66.7147 441.059C43.5137 439.791 24.4471 436.797 10.8595 432.174C4.0653 429.863 -1.3212 427.157 -5.16586 424.085C-9.00559 421.018 -11.2712 417.617 -11.9199 413.903Z" stroke="white" stroke-width="1.5"/>
<path opacity="0.62069" d="M-16.263 393.58C-16.5856 389.824 -15.265 385.957 -12.3374 382.009C-9.40603 378.057 -4.89065 374.063 1.08652 370.091C13.0403 362.148 30.7072 354.377 52.8125 347.218C97.0112 332.905 158.792 321.086 227.673 315.171C296.553 309.256 359.445 310.368 405.437 316.937C428.439 320.222 447.172 324.866 460.305 330.656C466.872 333.55 472.002 336.716 475.564 340.111C479.122 343.501 481.083 347.086 481.405 350.843C481.728 354.599 480.407 358.466 477.48 362.413C474.548 366.366 470.033 370.359 464.056 374.331C452.102 382.275 434.435 390.045 412.33 397.204C368.131 411.518 306.35 423.336 237.469 429.251C168.589 435.167 105.698 434.055 59.7055 427.486C36.7034 424.201 17.9703 419.556 4.83722 413.767C-1.72965 410.872 -6.8598 407.707 -10.4221 404.312C-13.9799 400.921 -15.9405 397.336 -16.263 393.58Z" stroke="white" stroke-width="1.5"/>
<path opacity="0.655172" d="M-18.7133 373.095C-18.7073 369.325 -17.0546 365.588 -13.7941 361.91C-10.5295 358.228 -5.6832 354.643 0.617414 351.207C13.218 344.336 31.4949 338.135 54.14 332.93C99.4181 322.523 161.994 316.134 231.128 316.245C300.262 316.356 362.817 322.944 408.062 333.497C430.69 338.774 448.947 345.034 461.525 351.945C467.815 355.402 472.65 359.002 475.903 362.694C479.151 366.382 480.792 370.125 480.786 373.895C480.78 377.664 479.127 381.402 475.867 385.079C472.602 388.761 467.756 392.346 461.455 395.782C448.855 402.654 430.578 408.855 407.933 414.06C362.655 424.467 300.079 430.855 230.945 430.745C161.811 430.634 99.2556 424.045 54.011 413.493C31.3827 408.215 13.1257 401.956 0.54723 395.044C-5.74235 391.588 -10.5771 387.988 -13.83 384.295C-17.0787 380.607 -18.7193 376.865 -18.7133 373.095Z" stroke="white" stroke-width="1.5"/>
<path opacity="0.689655" d="M-19.2621 352.612C-18.9275 348.857 -16.9555 345.278 -13.3869 341.899C-9.8137 338.516 -4.67344 335.367 1.90266 332.493C15.0542 326.746 33.802 322.161 56.8146 318.95C102.827 312.529 165.722 311.618 234.583 317.754C303.445 323.889 365.187 335.905 409.34 350.361C431.422 357.59 449.064 365.417 460.993 373.399C466.957 377.39 471.46 381.398 474.378 385.36C477.293 389.317 478.601 393.188 478.267 396.943C477.932 400.698 475.96 404.277 472.392 407.657C468.818 411.04 463.678 414.189 457.102 417.063C443.951 422.81 425.203 427.394 402.19 430.606C356.177 437.027 293.283 437.938 224.421 431.802C155.56 425.666 93.8173 413.65 49.6646 399.195C27.5824 391.965 9.94038 384.139 -1.98787 376.157C-7.95229 372.166 -12.4549 368.158 -15.3735 364.196C-18.2885 360.239 -19.5967 356.367 -19.2621 352.612Z" stroke="white" stroke-width="1.5"/>
<path opacity="0.724138" d="M-17.9178 332.299C-17.2572 328.587 -14.9807 325.194 -11.1312 322.138C-7.27671 319.079 -1.88157 316.39 4.91997 314.1C18.5224 309.521 37.5984 306.588 60.8033 305.395C107.201 303.008 169.935 307.583 238 319.697C306.064 331.811 366.525 349.162 409.25 367.411C430.618 376.537 447.511 385.872 458.698 394.863C464.292 399.359 468.428 403.744 470.99 407.945C473.549 412.141 474.515 416.112 473.854 419.823C473.194 423.535 470.917 426.928 467.068 429.984C463.213 433.043 457.818 435.732 451.016 438.021C437.414 442.601 418.338 445.534 395.133 446.727C348.736 449.114 286.001 444.539 217.937 432.425C149.872 420.311 89.4115 402.96 46.6867 384.711C25.3186 375.585 8.4259 366.25 -2.76129 357.259C-8.35517 352.763 -12.4913 348.378 -15.0535 344.177C-17.6125 339.981 -18.5784 336.01 -17.9178 332.299Z" stroke="white" stroke-width="1.5"/>
<path opacity="0.758621" d="M-14.7024 312.318C-13.7208 308.678 -11.1572 305.496 -7.05606 302.788C-2.94962 300.076 2.65934 297.868 9.63456 296.18C23.5843 292.803 42.8434 291.544 66.064 292.378C112.493 294.044 174.59 304.069 241.34 322.069C308.089 340.069 366.808 362.624 407.779 384.527C428.271 395.481 444.286 406.252 454.647 416.184C459.827 421.15 463.566 425.879 465.752 430.288C467.935 434.691 468.552 438.731 467.57 442.37C466.588 446.01 464.025 449.192 459.924 451.901C455.817 454.612 450.208 456.821 443.233 458.509C429.283 461.885 410.024 463.144 386.804 462.311C340.375 460.645 278.278 450.62 211.528 432.62C144.778 414.62 86.06 392.065 45.0882 370.162C24.5968 359.208 8.58201 348.436 -1.77898 338.504C-6.95974 333.538 -10.6979 328.809 -12.8843 324.4C-15.0678 319.998 -15.6839 315.958 -14.7024 312.318Z" stroke="white" stroke-width="1.5"/>
<path opacity="0.793103" d="M-9.65132 292.832C-8.35628 289.292 -5.5251 286.345 -1.2035 284.005C3.12365 281.661 8.90375 279.95 15.9996 278.876C30.1904 276.729 49.486 277.153 72.5456 280.007C118.653 285.713 179.64 301.112 244.567 324.861C309.493 348.611 366.022 376.197 404.929 401.588C424.388 414.286 439.403 426.412 448.859 437.209C453.587 442.608 456.899 447.645 458.693 452.227C460.484 456.804 460.746 460.882 459.451 464.422C458.156 467.963 455.325 470.91 451.003 473.25C446.676 475.593 440.896 477.305 433.8 478.378C419.609 480.526 400.314 480.102 377.254 477.248C331.147 471.541 270.16 456.142 205.233 432.393C140.306 408.644 83.7772 381.057 44.8703 355.667C25.4116 342.968 10.3965 330.842 0.940599 320.045C-3.78761 314.646 -7.09939 309.609 -8.89319 305.027C-10.6847 300.451 -10.9464 296.373 -9.65132 292.832Z" stroke="white" stroke-width="1.5"/>
<path opacity="0.827586" d="M-2.81553 273.999C-1.21685 270.585 1.86037 267.897 6.36951 265.942C10.8844 263.984 16.7917 262.784 23.9541 262.332C38.2781 261.43 57.4633 263.534 80.1864 268.387C125.621 278.09 185.034 298.746 247.643 328.063C310.253 357.381 364.163 389.789 400.709 418.474C418.987 432.82 432.888 446.209 441.367 457.789C445.606 463.58 448.467 468.886 449.854 473.607C451.24 478.322 451.145 482.408 449.547 485.822C447.948 489.236 444.871 491.925 440.362 493.879C435.847 495.837 429.939 497.038 422.777 497.489C408.453 498.392 389.268 496.287 366.545 491.434C321.11 481.731 261.698 461.076 199.088 431.758C136.478 402.44 82.5681 370.032 46.0222 341.347C27.7443 327.001 13.8432 313.612 5.36431 302.032C1.12463 296.242 -1.73556 290.935 -3.12315 286.214C-4.50895 281.499 -4.41421 277.414 -2.81553 273.999Z" stroke="white" stroke-width="1.5"/>
<path opacity="0.862069" d="M5.742 255.972C7.63215 252.711 10.932 250.3 15.5944 248.746C20.2627 247.189 26.2521 246.508 33.4266 246.683C47.7748 247.032 66.7036 250.8 88.9173 257.615C133.333 271.241 190.719 296.997 250.536 331.659C310.352 366.322 361.232 403.306 395.139 435.067C412.097 450.951 424.778 465.501 432.216 477.776C435.935 483.914 438.321 489.449 439.292 494.273C440.262 499.091 439.811 503.153 437.921 506.415C436.031 509.676 432.731 512.087 428.069 513.641C423.401 515.198 417.411 515.879 410.237 515.704C395.888 515.355 376.96 511.587 354.746 504.772C310.33 491.146 252.944 465.39 193.127 430.728C133.311 396.065 82.431 359.081 48.5241 327.32C31.5662 311.436 18.8849 296.886 11.4475 284.611C7.72864 278.473 5.34181 272.938 4.37099 268.114C3.40142 263.296 3.85184 259.234 5.742 255.972Z" stroke="white" stroke-width="1.5"/>
<path opacity="0.896552" d="M15.9439 238.899C18.1111 235.814 21.6085 233.7 26.3886 232.558C31.1748 231.415 37.2009 231.258 44.3328 232.057C58.596 233.656 77.1243 239.059 98.6595 247.784C141.718 265.23 196.642 295.888 253.21 335.633C309.778 375.377 357.24 416.655 388.25 451.25C403.759 468.552 415.124 484.151 421.463 497.028C424.633 503.466 426.528 509.189 427.075 514.079C427.621 518.963 426.818 522.97 424.651 526.055C422.484 529.139 418.987 531.253 414.206 532.395C409.42 533.539 403.394 533.695 396.262 532.896C381.999 531.298 363.471 525.894 341.936 517.169C298.877 499.724 243.953 469.065 187.385 429.32C130.817 389.576 83.3546 348.299 52.3449 313.704C36.8359 296.402 25.4709 280.802 19.1317 267.926C15.9619 261.487 14.0666 255.765 13.5199 250.874C12.974 245.99 13.7766 241.983 15.9439 238.899Z" stroke="white" stroke-width="1.5"/>
<path opacity="0.931035" d="M27.7009 222.918C30.1287 220.034 33.797 218.233 38.6584 217.512C43.5261 216.79 49.5429 217.159 56.578 218.576C70.6476 221.412 88.6345 228.41 109.327 238.979C150.702 260.111 202.744 295.44 255.633 339.963C308.522 384.486 352.206 429.743 380.083 466.909C394.025 485.497 403.987 502.028 409.18 515.408C411.776 522.098 413.166 527.964 413.284 532.883C413.402 537.797 412.253 541.718 409.826 544.602C407.398 547.486 403.729 549.287 398.868 550.008C394 550.73 387.984 550.361 380.948 548.943C366.879 546.108 348.892 539.11 328.199 528.541C286.824 507.409 234.782 472.08 181.893 427.557C129.005 383.034 85.3202 337.777 57.4436 300.611C43.5016 282.023 33.5395 265.492 28.3466 252.112C25.7501 245.422 24.3607 239.556 24.2424 234.636C24.1242 229.723 25.273 225.802 27.7009 222.918Z" stroke="white" stroke-width="1.5"/>
<path opacity="0.965517" d="M40.9125 208.16C43.5825 205.499 47.3937 204.025 52.2995 203.73C57.2116 203.435 63.1733 204.327 70.0581 206.352C83.827 210.403 101.136 218.942 120.829 231.274C160.204 255.932 208.969 295.662 257.776 344.626C306.583 393.589 346.157 442.481 370.688 481.935C382.957 501.668 391.441 519.004 395.448 532.785C397.451 539.677 398.324 545.641 398.013 550.552C397.703 555.457 396.216 559.264 393.546 561.925C390.876 564.586 387.065 566.061 382.159 566.355C377.247 566.65 371.286 565.759 364.401 563.733C350.632 559.682 333.323 551.143 313.63 538.811C274.255 514.153 225.49 474.423 176.683 425.46C127.876 376.496 88.3019 327.604 63.7707 288.15C51.5018 268.417 43.0183 251.082 39.0113 237.3C37.0078 230.409 36.1349 224.444 36.4458 219.533C36.7563 214.628 38.2426 210.822 40.9125 208.16Z" stroke="white" stroke-width="1.5"/>
<path d="M55.4654 194.75C58.3571 192.331 62.2823 191.195 67.1952 191.329C72.1143 191.463 77.9756 192.871 84.6577 195.489C98.0211 200.724 114.519 210.739 133.063 224.741C170.139 252.736 215.256 296.566 259.61 349.597C303.964 402.627 339.126 454.783 360.125 496.225C370.628 516.951 377.568 534.961 380.358 549.039C381.754 556.079 382.103 562.097 381.366 566.962C380.629 571.821 378.817 575.484 375.925 577.902C373.033 580.321 369.108 581.457 364.195 581.323C359.276 581.189 353.415 579.781 346.732 577.163C333.369 571.927 316.871 561.912 298.327 547.911C261.251 519.916 216.134 476.086 171.78 423.055C127.426 370.024 92.2642 317.869 71.265 276.427C60.7626 255.7 53.8223 237.691 51.0317 223.613C49.6364 216.573 49.2868 210.555 50.0245 205.69C50.7612 200.831 52.5736 197.168 55.4654 194.75Z" stroke="white" stroke-width="1.5"/>
</g>
</g>
</g>
<defs>
<clipPath id="clip0_3291_5826">
<path d="M0 12C0 5.37258 5.37258 0 12 0H273C279.627 0 285 5.37258 285 12V370C285 376.627 279.627 382 273 382H12C5.37258 382 0 376.627 0 370V12Z" fill="white"/>
</clipPath>
</defs>
</svg>
