<svg width="285" height="382" viewBox="0 0 285 382" fill="none" xmlns="http://www.w3.org/2000/svg">
<g>
<g clip-path="url(#clip0_3291_5826)">
<g style="mix-blend-mode:plus-lighter">
<path opacity="0.0344828" d="M31.9193 275.696L112.599 261.574C126.234 259.188 135.515 246.413 133.571 232.709L122.07 151.613C118.659 127.56 148.905 114.094 164.497 132.724L217.067 195.534C225.951 206.148 241.655 207.799 252.551 199.263L317.031 148.756C336.157 133.775 362.942 153.235 354.604 176.054L326.494 252.986C321.743 265.987 328.165 280.412 341.006 285.581L416.987 316.168C439.523 325.241 436.063 358.167 412.132 362.356L331.452 376.477C317.818 378.864 308.536 391.638 310.48 405.343L321.981 486.438C325.392 510.492 295.147 523.958 279.554 505.328L226.984 442.518C218.1 431.903 202.397 430.253 191.5 438.788L127.02 489.296C107.895 504.277 81.1098 484.817 89.4476 461.998L117.558 385.066C122.308 372.065 115.886 357.64 103.046 352.471L27.0647 321.884C4.52797 312.811 7.98872 279.884 31.9193 275.696Z" stroke="white" stroke-width="1.5"/>
<path opacity="0.0689655" d="M37.8197 266.34L116.769 256.747C130.51 255.077 140.447 242.806 139.223 229.018L132.192 149.799C130.045 125.6 160.954 113.735 175.55 133.156L223.333 196.732C231.649 207.797 247.245 210.267 258.573 202.313L323.664 156.615C343.547 142.655 369.277 163.491 359.756 185.842L328.589 259.011C323.165 271.745 328.823 286.487 341.375 292.321L413.497 325.841C435.528 336.081 430.348 368.781 406.232 371.712L327.282 381.305C313.541 382.974 303.604 395.246 304.828 409.033L311.859 488.252C314.007 512.452 283.098 524.316 268.501 504.896L220.718 441.32C212.402 430.255 196.806 427.785 185.478 435.738L120.388 481.437C100.504 495.397 74.7746 474.561 84.2953 452.21L115.462 379.041C120.887 366.306 115.228 351.565 102.676 345.731L30.5544 312.21C8.52339 301.971 13.7027 269.27 37.8197 266.34Z" stroke="white" stroke-width="1.5"/>
<path opacity="0.103448" d="M44.169 257.481L121.142 252.196C134.951 251.248 145.517 239.513 145.017 225.681L142.227 148.577C141.349 124.298 172.836 114.067 186.396 134.225L229.46 198.243C237.186 209.728 252.631 213.011 264.36 205.662L329.739 164.694C350.326 151.794 374.93 173.947 364.253 195.77L330.343 265.073C324.26 277.506 329.139 292.524 341.369 299.007L409.538 335.143C431.003 346.521 424.119 378.906 399.882 380.57L322.909 385.856C309.1 386.804 298.534 398.538 299.034 412.371L301.824 489.475C302.702 513.753 271.215 523.984 257.655 503.826L214.591 439.808C206.865 428.323 191.42 425.04 179.691 432.39L114.312 473.358C93.7249 486.258 69.1209 464.104 79.7982 442.282L113.708 372.978C119.791 360.545 114.912 345.528 102.682 339.045L34.5132 302.909C13.0482 291.53 19.9317 259.146 44.169 257.481Z" stroke="white" stroke-width="1.5"/>
<path opacity="0.137931" d="M50.932 249.141L125.7 247.93C139.54 247.706 150.706 236.54 150.93 222.7L152.141 147.932C152.535 123.641 184.514 115.072 197.001 135.912L235.434 200.058C242.548 211.931 257.8 216.018 269.898 209.292L335.255 172.957C356.489 161.152 379.899 184.563 368.095 205.796L331.759 271.153C325.033 283.251 329.12 298.503 340.994 305.618L405.14 344.051C425.98 356.537 417.411 388.517 393.12 388.91L318.351 390.122C304.511 390.346 293.346 401.511 293.122 415.351L291.91 490.119C291.517 514.411 259.537 522.98 247.051 502.14L208.618 437.994C201.503 426.12 186.251 422.033 174.154 428.759L108.797 465.095C87.563 476.899 64.1521 453.488 75.9569 432.255L112.292 366.898C119.018 354.8 114.931 339.548 103.058 332.434L38.9119 294.001C18.0718 281.514 26.6408 249.535 50.932 249.141Z" stroke="white" stroke-width="1.5"/>
<path opacity="0.172414" d="M58.0709 241.338L130.426 243.955C144.258 244.456 155.993 233.89 156.941 220.081L161.901 147.849C163.565 123.611 195.95 116.728 207.328 138.193L241.239 202.163C247.722 214.393 262.739 219.272 275.172 213.189L340.207 181.368C362.029 170.69 384.183 195.294 371.283 215.881L332.838 277.233C325.489 288.963 328.772 304.408 340.257 312.134L400.332 352.545C420.49 366.105 410.259 397.592 385.98 396.714L313.625 394.096C299.793 393.596 288.058 404.162 287.11 417.971L282.15 490.203C280.486 514.44 248.101 521.324 236.723 499.859L202.812 435.889C196.329 423.659 181.312 418.78 168.879 424.863L103.844 456.684C82.0219 467.361 59.8683 442.757 72.7682 422.171L111.213 360.818C118.562 349.089 115.279 333.644 103.794 325.918L43.7194 285.507C23.5614 271.947 33.7924 240.459 58.0709 241.338Z" stroke="white" stroke-width="1.5"/>
<path opacity="0.206897" d="M65.549 234.087L135.301 240.278C149.089 241.501 161.36 231.564 163.029 217.824L171.476 148.309C174.407 124.192 207.107 119.013 217.347 141.044L246.861 204.546C252.695 217.098 267.437 222.757 280.171 217.333L344.596 189.89C366.947 180.37 387.783 206.099 373.823 225.983L333.586 283.294C325.632 294.623 328.102 310.218 339.167 318.535L395.146 360.607C414.566 375.204 402.701 406.113 378.502 403.965L308.75 397.774C294.963 396.55 282.691 406.487 281.022 420.228L272.575 489.743C269.645 513.86 236.944 519.039 226.705 497.008L197.19 433.506C191.356 420.953 176.615 415.295 163.88 420.719L99.4551 448.162C77.1039 457.682 56.2684 431.952 70.2281 412.069L110.465 354.758C118.419 343.429 115.949 327.833 104.884 319.517L48.9056 277.445C29.4849 262.848 41.3498 231.939 65.549 234.087Z" stroke="white" stroke-width="1.5"/>
<path opacity="0.241379" d="M73.3279 227.403L140.308 236.902C154.012 238.845 166.787 229.564 169.173 215.93L180.837 149.293C185.026 125.362 217.952 121.901 227.025 144.438L252.288 207.194C257.457 220.034 271.882 226.457 284.883 221.706L348.424 198.489C371.243 190.151 390.704 216.936 375.722 236.061L334.006 289.318C325.47 300.215 327.121 315.918 337.735 324.802L389.613 368.222C408.243 383.815 394.777 414.06 370.723 410.649L303.743 401.15C290.039 399.206 277.264 408.487 274.878 422.122L263.214 488.759C259.026 512.689 226.099 516.15 217.026 493.613L191.763 430.857C186.594 418.017 172.169 411.595 159.168 416.345L95.6269 439.563C72.8081 447.9 53.3476 421.116 68.3288 401.99L110.045 348.734C118.581 337.837 116.93 322.133 106.316 313.249L54.4382 269.83C35.808 254.237 49.2742 223.991 73.3279 227.403Z" stroke="white" stroke-width="1.5"/>
<path opacity="0.275862" d="M81.369 221.297L145.428 233.832C159.012 236.49 172.255 227.89 175.352 214.399L189.955 150.78C195.391 127.101 228.453 125.369 236.334 148.349L257.507 210.094C261.997 223.187 276.067 230.356 289.298 226.292L351.696 207.129C374.92 199.997 392.952 227.764 376.99 246.079L334.105 295.288C325.011 305.723 325.837 321.492 335.972 330.919L383.767 375.376C401.555 391.922 386.524 421.422 362.682 416.756L298.623 404.221C285.039 401.563 271.796 410.163 268.7 423.654L254.096 487.273C248.661 510.952 215.598 512.684 207.717 489.704L186.544 427.959C182.054 414.866 167.985 407.697 154.753 411.761L92.3551 430.924C69.1313 438.056 51.0993 410.289 67.0609 391.974L109.946 342.765C119.04 332.33 118.214 316.561 108.079 307.134L60.2848 262.677C42.4962 246.131 57.5269 216.631 81.369 221.297Z" stroke="white" stroke-width="1.5"/>
<path opacity="0.310345" d="M89.6334 215.776L150.644 231.069C164.07 234.434 177.745 226.539 181.543 213.229L198.804 152.746C205.472 129.384 238.58 129.384 245.247 152.746L262.508 213.229C266.306 226.539 279.981 234.434 293.407 231.069L354.418 215.776C377.983 209.869 394.537 238.541 377.639 255.996L333.89 301.186C324.262 311.131 324.262 326.921 333.89 336.866L377.639 382.056C394.537 399.51 377.983 428.183 354.418 422.276L293.407 406.983C279.981 403.617 266.306 411.512 262.508 424.823L245.247 485.306C238.58 508.667 205.472 508.667 198.804 485.306L181.543 424.823C177.745 411.512 164.07 403.617 150.644 406.983L89.6334 422.276C66.0681 428.183 49.5141 399.51 66.4123 382.056L110.162 336.866C119.789 326.921 119.789 311.131 110.162 301.186L66.4123 255.996C49.5141 238.541 66.0681 209.869 89.6334 215.776Z" stroke="white" stroke-width="1.5"/>
<path opacity="0.344828" d="M98.082 210.848L155.937 228.615C169.169 232.679 183.238 225.51 187.728 212.417L207.36 155.168C215.241 132.187 248.303 133.92 253.739 157.598L267.279 216.586C270.376 230.077 283.619 238.677 297.203 236.019L356.598 224.396C380.44 219.731 395.471 249.23 377.682 265.776L333.368 306.997C323.233 316.424 322.406 332.192 331.5 342.627L371.263 388.254C387.225 406.569 369.193 434.336 345.969 427.204L288.114 409.436C274.882 405.373 260.813 412.541 256.323 425.634L236.691 482.884C228.811 505.864 195.748 504.132 190.313 480.453L176.772 421.465C173.675 407.974 160.433 399.375 146.849 402.033L87.4533 413.655C63.6111 418.321 48.5804 388.821 66.369 372.275L110.684 331.055C120.819 321.628 121.645 305.859 112.551 295.424L72.7877 249.798C56.8262 231.482 74.8581 203.716 98.082 210.848Z" stroke="white" stroke-width="1.5"/>
<path opacity="0.37931" d="M106.676 206.517L161.29 226.472C174.291 231.223 188.716 224.8 193.885 211.96L215.599 158.021C224.671 135.484 257.598 138.945 261.787 162.875L271.812 220.15C274.198 233.785 286.973 243.066 300.677 241.122L358.247 232.958C382.301 229.546 395.767 259.792 377.137 275.385L332.547 312.704C321.933 321.588 320.282 337.292 328.818 348.189L364.674 393.963C379.655 413.089 360.194 439.873 337.375 431.536L282.761 411.58C269.76 406.83 255.335 413.252 250.166 426.092L228.452 480.031C219.38 502.568 186.453 499.107 182.264 475.177L172.239 417.902C169.853 404.267 157.078 394.986 143.374 396.93L85.8042 405.094C61.7505 408.506 48.2843 378.26 66.9145 362.667L111.504 325.348C122.118 316.464 123.769 300.76 115.233 289.864L79.3775 244.089C64.3964 224.964 83.8568 198.179 106.676 206.517Z" stroke="white" stroke-width="1.5"/>
<path opacity="0.413793" d="M115.375 202.783L166.684 224.638C179.419 230.062 194.16 224.404 199.994 211.852L223.5 161.278C233.74 139.246 266.44 144.426 269.37 168.543L276.098 223.905C277.767 237.646 290.038 247.583 303.826 246.359L359.377 241.429C383.576 239.281 395.441 270.19 376.021 284.786L331.439 318.293C320.374 326.61 317.904 342.205 325.857 353.534L357.903 399.177C371.862 419.061 351.027 444.79 328.676 435.27L277.367 413.414C264.632 407.99 249.891 413.649 244.057 426.201L220.551 476.775C210.312 498.806 177.611 493.627 174.681 469.51L167.954 414.147C166.284 400.407 154.013 390.47 140.225 391.693L84.6741 396.624C60.4748 398.772 48.6099 367.863 68.0306 353.266L112.612 319.759C123.677 311.443 126.147 295.847 118.194 284.519L86.1485 238.875C72.1888 218.992 93.0243 193.262 115.375 202.783Z" stroke="white" stroke-width="1.5"/>
<path opacity="0.448276" d="M124.143 199.645L172.103 223.111C184.536 229.195 199.554 224.315 206.037 212.085L231.044 164.91C242.423 143.445 274.807 150.329 276.472 174.566L280.129 227.834C281.077 241.644 292.812 252.209 306.644 251.709L360.003 249.778C384.282 248.9 394.513 280.388 374.355 293.948L330.052 323.749C318.567 331.475 315.284 346.92 322.634 358.649L350.985 403.894C363.885 424.481 341.731 449.085 319.909 438.407L271.948 414.941C259.515 408.857 244.498 413.737 238.015 425.967L213.007 473.142C201.629 494.607 169.244 487.723 167.58 463.486L163.922 410.218C162.974 396.409 151.24 385.843 137.407 386.343L84.0485 388.274C59.77 389.152 49.539 357.664 69.697 344.105L114 314.303C125.485 306.577 128.768 291.132 121.418 279.403L93.0669 234.158C80.167 213.571 102.321 188.967 124.143 199.645Z" stroke="white" stroke-width="1.5"/>
<path opacity="0.482759" d="M132.939 197.1L177.529 221.889C189.627 228.615 204.879 224.528 211.993 212.655L238.214 168.891C250.7 148.051 282.68 156.62 283.074 180.911L283.9 231.922C284.124 245.762 295.289 256.927 309.129 257.152L360.14 257.978C384.431 258.371 393 290.351 372.16 302.838L328.397 329.059C316.523 336.173 312.436 351.425 319.162 363.523L343.952 408.113C355.757 429.346 332.346 452.757 311.112 440.952L266.523 416.162C254.425 409.437 239.173 413.523 232.058 425.397L205.837 469.16C193.351 490.001 161.371 481.432 160.978 457.14L160.151 406.13C159.927 392.29 148.762 381.124 134.922 380.9L83.9112 380.074C59.62 379.68 51.051 347.7 71.891 335.214L115.655 308.993C127.528 301.879 131.615 286.627 124.889 274.529L100.099 229.939C88.2945 208.706 111.705 185.295 132.939 197.1Z" stroke="white" stroke-width="1.5"/>
<path opacity="0.517241" d="M141.727 195.142L182.945 220.97C194.674 228.319 210.119 225.036 217.845 213.551L244.994 173.192C258.554 153.034 290.042 163.265 289.163 187.543L287.405 236.153C286.904 249.985 297.47 261.72 311.279 262.668L359.806 266C384.044 267.664 390.927 300.049 369.462 311.428L326.486 334.209C314.256 340.692 309.377 355.71 315.46 368.143L336.838 411.835C347.515 433.657 322.911 455.81 302.325 442.911L261.107 417.083C249.378 409.733 233.932 413.016 226.207 424.501L199.057 464.861C185.497 485.019 154.01 474.788 154.888 450.509L156.647 401.9C157.147 388.067 146.582 376.333 132.772 375.384L84.2453 372.052C60.008 370.388 53.1244 338.003 74.5894 326.625L117.566 303.843C129.796 297.36 134.675 282.343 128.591 269.91L107.214 226.218C96.5363 204.396 121.14 182.242 141.727 195.142Z" stroke="white" stroke-width="1.5"/>
<path opacity="0.551724" d="M150.469 193.762L188.334 220.346C199.663 228.3 215.258 225.83 223.575 214.765L251.371 177.781C265.968 158.36 296.877 170.225 294.729 194.424L290.639 240.508C289.415 254.296 299.352 266.567 313.093 268.237L359.02 273.817C383.137 276.748 388.317 309.448 366.286 319.688L324.33 339.188C311.778 345.022 306.12 359.763 311.544 372.498L329.675 415.062C339.195 437.414 313.466 458.249 293.582 444.289L255.717 417.705C244.389 409.752 228.793 412.222 220.477 423.287L192.68 460.271C178.084 479.691 147.175 467.827 149.322 443.627L153.413 397.543C154.636 383.756 144.699 371.484 130.959 369.815L85.0311 364.234C60.9141 361.304 55.7349 328.603 77.766 318.364L119.721 298.864C132.273 293.03 137.932 278.288 132.508 265.554L114.377 222.989C104.856 200.638 130.586 179.802 150.469 193.762Z" stroke="white" stroke-width="1.5"/>
<path opacity="0.586207" d="M159.13 192.951L193.681 220.016C204.578 228.551 220.281 226.901 229.165 216.286L257.335 182.63C272.927 163.999 303.173 177.466 299.762 201.519L293.599 244.974C291.655 258.678 300.937 271.453 314.571 273.839L357.803 281.406C381.734 285.595 385.194 318.522 362.658 327.594L321.944 343.984C309.103 349.153 302.681 363.578 307.431 376.579L322.494 417.803C330.832 440.622 304.047 460.082 284.922 445.101L250.37 418.036C239.474 409.501 223.77 411.151 214.886 421.766L186.717 455.423C171.124 474.053 140.878 460.586 144.29 436.533L150.452 393.078C152.396 379.374 143.115 366.599 129.48 364.213L86.2484 356.646C62.3178 352.457 58.8571 319.531 81.3938 310.458L122.108 294.068C134.948 288.899 141.371 274.474 136.62 261.473L121.557 220.249C113.22 197.431 140.004 177.97 159.13 192.951Z" stroke="white" stroke-width="1.5"/>
<path opacity="0.62069" d="M167.674 192.696L198.97 219.97C209.405 229.064 225.174 228.238 234.601 218.103L262.875 187.706C279.421 169.918 308.92 184.949 304.255 208.791L296.283 249.531C293.624 263.115 302.224 276.358 315.715 279.455L356.176 288.742C379.855 294.178 381.587 327.24 358.607 335.121L319.338 348.587C306.245 353.077 299.077 367.146 303.14 380.378L315.327 420.062C322.459 443.286 294.693 461.318 276.377 445.356L245.081 418.082C234.646 408.988 218.878 409.814 209.45 419.949L181.177 450.345C164.63 468.134 135.131 453.103 139.796 429.261L147.769 388.521C150.427 374.937 141.827 361.694 128.336 358.597L87.8751 349.309C64.1966 343.874 62.4638 310.811 85.4445 302.931L124.713 289.465C137.806 284.975 144.975 270.906 140.911 257.674L128.724 217.99C121.592 194.766 149.359 176.734 167.674 192.696Z" stroke="white" stroke-width="1.5"/>
<path opacity="0.655172" d="M176.067 192.981L204.186 220.203C214.13 229.831 229.921 229.831 239.865 220.203L267.984 192.981C285.439 176.083 314.111 192.637 308.204 216.202L298.688 254.165C295.323 267.591 303.218 281.266 316.528 285.064L354.163 295.805C377.525 302.472 377.525 335.58 354.163 342.247L316.528 352.987C303.218 356.786 295.323 370.461 298.688 383.887L308.204 421.85C314.111 445.415 285.439 461.969 267.984 445.071L239.865 417.848C229.921 408.221 214.13 408.221 204.186 417.848L176.067 445.071C158.612 461.969 129.94 445.415 135.847 421.85L145.363 383.887C148.728 370.461 140.833 356.786 127.523 352.987L89.8882 342.247C66.5266 335.58 66.5266 302.472 89.8882 295.805L127.523 285.064C140.833 281.266 148.728 267.591 145.363 254.165L135.847 216.202C129.94 192.637 158.612 176.083 176.067 192.981Z" stroke="white" stroke-width="1.5"/>
<path opacity="0.689655" d="M184.277 193.784L209.314 220.701C218.741 230.836 234.51 231.662 244.945 222.568L272.658 198.416C290.974 182.455 318.74 200.486 311.608 223.71L300.816 258.852C296.753 272.083 303.921 286.152 317.014 290.642L351.788 302.567C374.768 310.448 373.036 343.51 349.357 348.946L313.528 357.17C300.037 360.267 291.437 373.51 294.095 387.094L301.155 423.17C305.82 447.013 276.321 462.043 259.775 444.255L234.737 417.338C225.31 407.203 209.542 406.376 199.106 415.471L171.393 439.623C153.078 455.584 125.311 437.552 132.443 414.329L143.235 379.187C147.299 365.956 140.13 351.886 127.037 347.396L92.2637 335.472C69.2831 327.591 71.0158 294.529 94.6944 289.093L130.524 280.869C144.014 277.772 152.614 264.529 149.956 250.945L142.896 214.869C138.231 191.026 167.73 175.996 184.277 193.784Z" stroke="white" stroke-width="1.5"/>
<path opacity="0.724138" d="M192.272 195.099L214.341 221.467C223.225 232.082 238.928 233.733 249.825 225.197L276.894 203.994C296.019 189.012 322.804 208.473 314.467 231.292L302.666 263.588C297.915 276.589 304.338 291.014 317.178 296.183L349.075 309.024C371.612 318.096 368.151 351.023 344.221 355.212L310.351 361.14C296.716 363.527 287.435 376.301 289.379 390.006L294.207 424.05C297.618 448.104 267.373 461.57 251.78 442.94L229.711 416.572C220.827 405.957 205.123 404.306 194.226 412.842L167.157 434.045C148.032 449.027 121.247 429.566 129.585 406.747L141.386 374.451C146.136 361.45 139.714 347.025 126.873 341.856L94.9761 329.015C72.4393 319.943 75.9001 287.016 99.8306 282.827L133.701 276.899C147.335 274.512 156.616 261.738 154.673 248.033L149.844 213.989C146.433 189.935 176.679 176.469 192.272 195.099Z" stroke="white" stroke-width="1.5"/>
<path opacity="0.758621" d="M200.021 196.9L219.252 222.487C227.569 233.552 243.165 236.022 254.493 228.069L280.69 209.677C300.573 195.717 326.303 216.552 316.782 238.904L304.239 268.352C298.814 281.087 304.473 295.828 317.025 301.662L346.052 315.153C368.083 325.393 362.904 358.093 338.787 361.024L307.012 364.885C293.271 366.554 283.334 378.825 284.558 392.613L287.387 424.496C289.535 448.696 258.626 460.561 244.03 441.14L224.799 415.552C216.482 404.487 200.887 402.017 189.558 409.971L163.361 428.363C143.478 442.323 117.748 421.487 127.269 399.136L139.812 369.688C145.237 356.953 139.578 342.212 127.026 336.378L97.9992 322.887C75.9682 312.647 81.1474 279.947 105.264 277.016L137.039 273.155C150.78 271.485 160.717 259.214 159.493 245.427L156.664 213.543C154.516 189.344 185.425 177.479 200.021 196.9Z" stroke="white" stroke-width="1.5"/>
<path opacity="0.793103" d="M207.498 199.162L224.038 223.75C231.763 235.235 247.208 238.518 258.938 231.168L284.048 215.433C304.635 202.534 329.239 224.687 318.561 246.509L305.538 273.127C299.454 285.56 304.334 300.577 316.563 307.06L342.745 320.939C364.21 332.318 357.326 364.702 333.089 366.366L303.526 368.396C289.717 369.345 279.151 381.079 279.651 394.912L280.723 424.525C281.601 448.804 250.114 459.034 236.554 438.877L220.014 414.289C212.288 402.804 196.843 399.521 185.114 406.871L160.004 422.605C139.417 435.505 114.813 413.352 125.49 391.529L138.514 364.912C144.597 352.479 139.718 337.461 127.488 330.978L101.307 317.1C79.8417 305.721 86.7253 273.337 110.963 271.672L140.526 269.642C154.335 268.694 164.901 256.96 164.4 243.127L163.329 213.514C162.45 189.235 193.938 179.004 207.498 199.162Z" stroke="white" stroke-width="1.5"/>
<path opacity="0.827586" d="M214.674 201.864L228.683 225.246C235.797 237.119 251.049 241.206 263.147 234.48L286.97 221.236C308.203 209.431 331.614 232.842 319.809 254.076L306.565 277.898C299.839 289.996 303.926 305.248 315.8 312.362L339.181 326.371C360.021 338.857 351.452 370.837 327.161 371.231L299.908 371.672C286.068 371.896 274.902 383.062 274.678 396.902L274.237 424.155C273.843 448.446 241.863 457.015 229.377 436.175L215.368 412.794C208.254 400.92 193.002 396.833 180.904 403.559L157.082 416.803C135.848 428.608 112.437 405.197 124.242 383.964L137.486 360.141C144.212 348.043 140.125 332.791 128.252 325.677L104.87 311.668C84.0304 299.182 92.5994 267.202 116.891 266.808L144.144 266.367C157.984 266.143 169.149 254.977 169.373 241.138L169.815 213.884C170.208 189.593 202.188 181.024 214.674 201.864Z" stroke="white" stroke-width="1.5"/>
<path opacity="0.862069" d="M221.526 204.98L233.179 226.963C239.662 239.193 254.679 244.072 267.112 237.989L289.461 227.054C311.283 216.376 333.437 240.98 320.537 261.567L307.326 282.65C299.976 294.379 303.259 309.825 314.744 317.55L335.388 331.437C355.546 344.997 345.315 376.485 321.037 375.607L296.173 374.707C282.34 374.207 270.606 384.772 269.657 398.582L267.953 423.404C266.289 447.641 233.904 454.524 222.526 433.06L210.873 411.077C204.39 398.847 189.372 393.968 176.939 400.051L154.59 410.986C132.768 421.663 110.614 397.059 123.514 376.473L136.726 355.389C144.075 343.66 140.792 328.215 129.307 320.489L108.663 306.602C88.5049 293.042 98.7358 261.555 123.014 262.433L147.879 263.332C161.711 263.833 173.446 253.267 174.394 239.458L176.098 214.636C177.763 190.399 210.147 183.515 221.526 204.98Z" stroke="white" stroke-width="1.5"/>
<path opacity="0.896552" d="M228.029 208.482L237.514 228.89C243.348 241.442 258.089 247.101 270.824 241.677L291.529 232.857C313.88 223.337 334.715 249.066 320.756 268.95L307.824 287.368C299.871 298.697 302.341 314.292 313.406 322.609L331.396 336.13C350.816 350.726 338.952 381.635 314.752 379.487L292.336 377.498C278.548 376.274 266.277 386.211 264.608 399.952L261.893 422.292C258.963 446.409 226.262 451.588 216.023 429.557L206.537 409.149C200.703 396.597 185.962 390.938 173.227 396.363L152.523 405.182C130.172 414.702 109.336 388.973 123.296 369.089L136.227 350.671C144.181 339.342 141.711 323.747 130.646 315.43L112.656 301.909C93.235 287.313 105.1 256.404 129.299 258.552L151.715 260.542C165.503 261.765 177.774 251.828 179.444 238.087L182.158 215.747C185.089 191.63 217.789 186.451 228.029 208.482Z" stroke="white" stroke-width="1.5"/>
<path opacity="0.931035" d="M234.163 212.344L241.679 231.016C246.848 243.856 261.273 250.279 274.274 245.528L293.18 238.62C315.999 230.282 335.459 257.067 320.478 276.193L308.066 292.038C299.531 302.935 301.181 318.639 311.796 327.523L327.231 340.442C345.861 356.034 332.395 386.28 308.341 382.869L288.412 380.042C274.708 378.099 261.933 387.38 259.547 401.014L256.077 420.841C251.888 444.772 218.961 448.233 209.889 425.696L202.372 407.024C197.203 394.183 182.778 387.761 169.777 392.511L150.871 399.42C128.052 407.757 108.592 380.972 123.573 361.847L135.985 346.001C144.521 335.104 142.87 319.401 132.256 310.517L116.82 297.598C98.1899 282.005 111.656 251.76 135.71 255.171L155.639 257.997C169.343 259.941 182.118 250.66 184.504 237.025L187.975 217.198C192.163 193.268 225.09 189.807 234.163 212.344Z" stroke="white" stroke-width="1.5"/>
<path opacity="0.965517" d="M239.908 216.535L245.666 233.327C250.156 246.42 264.225 253.589 277.457 249.525L294.427 244.314C317.651 237.182 335.683 264.948 319.721 283.263L308.058 296.647C298.964 307.082 299.79 322.85 309.925 332.278L322.924 344.368C340.712 360.915 325.682 390.414 301.839 385.749L284.418 382.339C270.833 379.681 257.591 388.281 254.494 401.772L250.522 419.074C245.087 442.753 212.024 444.486 204.144 421.505L198.385 404.713C193.895 391.619 179.826 384.451 166.594 388.514L149.624 393.726C126.4 400.858 108.368 373.091 124.33 354.776L135.993 341.393C145.087 330.958 144.261 315.189 134.126 305.762L121.128 293.671C103.339 277.125 118.37 247.626 142.212 252.291L159.634 255.7C173.218 258.358 186.461 249.758 189.557 236.268L193.529 218.965C198.964 195.287 232.027 193.554 239.908 216.535Z" stroke="white" stroke-width="1.5"/>
<path d="M245.247 221.025L249.466 235.811C253.265 249.121 266.94 257.016 280.366 253.651L295.281 249.912C318.846 244.005 335.4 272.678 318.502 290.132L307.807 301.18C298.179 311.125 298.179 326.915 307.807 336.86L318.502 347.907C335.4 365.362 318.846 394.034 295.281 388.127L280.366 384.388C266.94 381.023 253.265 388.918 249.466 402.228L245.247 417.014C238.58 440.376 205.472 440.376 198.805 417.014L194.585 402.228C190.786 388.918 177.112 381.023 163.685 384.388L148.77 388.127C125.205 394.034 108.651 365.362 125.549 347.907L136.244 336.86C145.872 326.915 145.872 311.125 136.244 301.18L125.549 290.132C108.651 272.678 125.205 244.005 148.77 249.912L163.685 253.651C177.112 257.016 190.786 249.121 194.585 235.811L198.805 221.025C205.472 197.664 238.58 197.663 245.247 221.025Z" stroke="white" stroke-width="1.5"/>
</g>
</g>
</g>
<defs>
<clipPath id="clip0_3291_5826">
<path d="M0 12C0 5.37258 5.37258 0 12 0H273C279.627 0 285 5.37258 285 12V370C285 376.627 279.627 382 273 382H12C5.37258 382 0 376.627 0 370V12Z" fill="white"/>
</clipPath>
</defs>
</svg>
