<svg width="285" height="382" viewBox="0 0 285 382" fill="none" xmlns="http://www.w3.org/2000/svg">
<g>
<g clip-path="url(#clip0_3291_5826)">
<g style="mix-blend-mode:plus-lighter">
<path opacity="0.0526316" d="M114.726 491.499C134.655 488.986 177.122 468.824 187.556 408.28C200.598 332.599 154.096 273.875 154.764 200.06C155.256 145.578 183.973 14.8363 258.732 -27.0603" stroke="white" stroke-width="1.5"/>
<path opacity="0.105263" d="M79.5921 485.134C99.675 484.718 144.017 469.106 160.722 409.984C181.604 336.081 141.494 272.818 149.874 199.477C156.059 145.345 198.285 18.3214 277.014 -15.5313" stroke="white" stroke-width="1.5"/>
<path opacity="0.157895" d="M45.5091 476.017C65.5254 477.703 111.256 466.811 134.05 409.759C162.542 338.444 129.265 271.335 145.266 199.271C157.075 146.083 212.347 24.1685 294.183 -1.26939" stroke="white" stroke-width="1.5"/>
<path opacity="0.210526" d="M12.7576 464.272C32.488 468.041 79.107 461.989 107.739 407.632C143.53 339.686 117.45 269.466 140.895 199.469C158.2 147.807 225.913 32.3379 309.959 15.5936" stroke="white" stroke-width="1.5"/>
<path opacity="0.263158" d="M-18.3946 450.053C0.833841 455.863 47.8301 454.717 81.9873 403.651C124.684 339.818 106.087 267.257 136.721 200.095C159.331 150.524 238.742 42.7655 324.079 34.8981" stroke="white" stroke-width="1.5"/>
<path opacity="0.315789" d="M-47.6973 433.54C-29.1816 441.328 17.677 445.101 56.985 397.885C106.12 338.865 95.2097 264.757 132.696 201.165C160.363 154.229 250.604 55.3617 336.295 56.4576" stroke="white" stroke-width="1.5"/>
<path opacity="0.368421" d="M-74.9217 414.939C-57.3214 424.62 -11.114 433.27 32.9142 390.422C87.9493 336.861 84.8451 262.019 128.773 202.693C161.195 158.907 261.276 70.0136 346.383 80.0606" stroke="white" stroke-width="1.5"/>
<path opacity="0.421053" d="M-99.86 394.479C-83.3681 405.947 -38.318 419.38 9.94783 381.368C70.2801 333.853 75.016 259.097 124.905 204.688C161.726 164.53 270.55 86.5854 354.141 105.474" stroke="white" stroke-width="1.5"/>
<path opacity="0.473684" d="M-122.331 372.409C-107.128 385.538 -63.7289 403.606 -11.7542 370.848C53.2143 329.9 65.7384 256.048 121.041 207.152C161.858 171.063 278.234 104.921 359.392 132.443" stroke="white" stroke-width="1.5"/>
<path opacity="0.526316" d="M-142.18 348.996C-128.432 363.642 -87.1597 386.148 -32.0455 359.002C36.8473 325.07 57.0224 252.931 117.133 210.084C161.499 178.459 284.151 124.844 361.988 160.698" stroke="white" stroke-width="1.5"/>
<path opacity="0.578947" d="M-159.281 324.521C-147.14 340.524 -108.445 367.221 -50.7957 345.984C21.2666 319.439 48.8717 249.805 113.132 213.475C160.561 186.661 288.145 146.16 361.808 189.955" stroke="white" stroke-width="1.5"/>
<path opacity="0.631579" d="M-173.537 299.278C-163.135 316.462 -127.443 347.057 -67.8896 331.963C6.55267 313.096 41.2853 246.729 108.991 217.315C158.963 195.606 290.081 168.663 358.763 219.917" stroke="white" stroke-width="1.5"/>
<path opacity="0.684211" d="M-184.884 273.567C-176.336 291.745 -144.037 325.903 -83.2321 317.117C-7.22548 306.134 34.2541 243.761 104.663 221.586C156.631 205.219 289.848 192.129 352.795 250.282" stroke="white" stroke-width="1.5"/>
<path opacity="0.736842" d="M-193.29 247.696C-186.688 266.667 -158.138 304.015 -96.7471 301.632C-20.0088 298.655 27.7633 240.959 100.105 226.265C153.498 215.42 287.354 216.327 343.878 280.741" stroke="white" stroke-width="1.5"/>
<path opacity="0.789474" d="M-198.753 221.973C-194.17 241.53 -169.68 281.657 -108.377 285.705C-31.7474 290.765 21.7938 238.379 95.2749 231.328C149.509 226.123 282.537 241.016 332.018 310.986" stroke="white" stroke-width="1.5"/>
<path opacity="0.842105" d="M-201.305 196.704C-198.792 216.634 -178.63 259.101 -118.086 269.534C-42.4052 282.577 16.3185 236.074 90.1342 236.742C144.616 237.235 275.358 265.952 317.254 340.711" stroke="white" stroke-width="1.5"/>
<path opacity="0.894737" d="M-201.009 172.192C-200.593 192.275 -184.981 236.617 -125.859 253.322C-51.9564 274.203 11.3065 234.094 84.648 242.474C138.779 248.659 265.803 290.885 299.656 369.614" stroke="white" stroke-width="1.5"/>
<path opacity="0.947368" d="M-197.961 148.73C-199.647 168.746 -188.755 214.477 -131.703 237.271C-60.3878 265.763 6.72106 232.486 78.7849 248.486C131.973 260.296 253.888 315.568 279.325 397.404" stroke="white" stroke-width="1.5"/>
<path d="M-192.285 126.599C-196.054 146.33 -190.002 192.949 -135.645 221.581C-67.6985 257.371 2.52104 231.292 72.5176 254.737C124.18 272.042 239.649 339.754 256.393 423.801" stroke="white" stroke-width="1.5"/>
</g>
</g>
</g>
<defs>
<clipPath id="clip0_3291_5826">
<path d="M0 12C0 5.37258 5.37258 0 12 0H273C279.627 0 285 5.37258 285 12V370C285 376.627 279.627 382 273 382H12C5.37258 382 0 376.627 0 370V12Z" fill="white"/>
</clipPath>
</defs>
</svg>
