<?xml version="1.0" encoding="UTF-8"?><svg id="b" xmlns="http://www.w3.org/2000/svg" width="4.1672mm" height="3.9255mm" viewBox="0 0 11.8125 11.1275"><defs><style>.e{fill:#f15e4a;}.e,.f{stroke-width:0px;}.f{fill:#efeeed;}</style></defs><g id="c"><g id="d"><path class="e" d="M5.757,2.8355c-.2232,0-.4384.0339-.641.0965.3773.1696.641.5469.641.9873,0,.5986-.4853,1.0839-1.0838,1.0839-.4405,0-.8178-.2638-.9873-.641-.0626.2026-.0965.4179-.0965.641,0,1.1972.9705,2.1677,2.1677,2.1677s2.1677-.9705,2.1677-2.1677-.9705-2.1677-2.1677-2.1677Z"/><path class="e" d="M11.8063,5.5312l-.0004-.0117C11.7682,1.7693,7.3404-.9846,3.775.3351,1.3178,1.1897-.3013,3.7928.0471,6.3885c.2157,1.8492,1.3422,3.4241,3.0046,4.2349.4195.2047.8833.3673,1.3487.4604.8832.1562,1.9188-.1191,2.6684-.6222.5536-.3836,1.1673-.768,1.7029-1.1794.3247-.2555.7115-.4903,1.1404-.4426.2268.0161.461.1188.6608.257.2291.1536.4369.3587.656.4089.5022.1154.5693-.509.5618-.8776.0162-1.2735.0303-2.3345.0156-3.0968ZM5.174,8.8451c-2.0947,0-3.7928-1.6981-3.7928-3.7929s1.6981-3.7929,3.7928-3.7929,3.7929,1.6981,3.7929,3.7929-1.6981,3.7929-3.7929,3.7929Z"/><path class="f" d="M5.174,1.2594c-2.0947,0-3.7928,1.6981-3.7928,3.7929s1.6981,3.7929,3.7928,3.7929,3.7929-1.6981,3.7929-3.7929-1.6981-3.7929-3.7929-3.7929ZM5.757,7.171c-1.1972,0-2.1677-.9705-2.1677-2.1677,0-.2232.0339-.4384.0965-.641.1696.3773.5469.641.9873.641.5986,0,1.0838-.4853,1.0838-1.0839,0-.4404-.2638-.8178-.641-.9873.2026-.0626.4179-.0965.641-.0965,1.1972,0,2.1677.9705,2.1677,2.1677s-.9705,2.1677-2.1677,2.1677Z"/></g></g></svg>