<svg version="1.1" id="Layer_1" xmlns="http://www.w3.org/2000/svg" xmlns:xlink="http://www.w3.org/1999/xlink" x="0px" y="0px"
	 width="100%" viewBox="0 0 180 179" enable-background="new 0 0 180 179" xml:space="preserve">
<path fill="#F3FAFD" opacity="1.000000" stroke="none" 
	d="
M1.000000,72.000000 
	C1.000000,48.000004 1.000000,24.500011 1.000000,1.000013 
	C60.999981,1.000008 120.999962,1.000008 180.999954,1.000004 
	C180.999969,60.666630 180.999969,120.333260 180.999985,179.999908 
	C121.000046,179.999939 61.000095,179.999939 1.000073,179.999969 
	C1.000000,144.166672 1.000000,108.333336 1.000000,72.000000 
M162.002441,50.417995 
	C161.732803,50.198322 161.463150,49.978649 161.180634,49.889370 
	C161.180634,49.889370 161.304504,49.846676 161.268829,49.176796 
	C160.894485,48.636711 160.520157,48.096626 159.837494,47.028042 
	C158.695984,45.640450 157.554474,44.252857 156.317917,42.143257 
	C151.934799,37.398285 147.551682,32.653316 142.880463,27.287050 
	C138.054901,24.070215 133.229340,20.853380 128.289612,17.641813 
	C128.289612,17.641813 128.277176,17.755426 128.102234,17.218008 
	C127.757393,17.086210 127.412544,16.954412 126.610268,16.305367 
	C124.213829,15.494098 121.817383,14.682828 118.878471,13.338290 
	C116.968231,12.800175 115.057983,12.262059 113.155273,11.667752 
	C113.155273,11.667752 113.166397,11.612164 112.614311,11.119872 
	C100.073067,7.671402 87.439568,7.124749 74.724991,10.032559 
	C48.698212,15.984857 29.600178,30.736849 17.425596,55.251022 
	C17.259901,55.838299 17.094204,56.425575 16.744486,57.243172 
	C16.744486,57.243172 16.776161,57.536274 16.290831,58.026672 
	C16.171165,58.692680 16.051500,59.358688 15.754072,60.260269 
	C15.754072,60.260269 15.791641,60.552986 15.284616,61.027988 
	C15.134505,61.693027 14.984395,62.358067 14.666222,63.220863 
	C14.666222,63.220863 14.745591,63.467949 14.202156,64.017593 
	C13.404896,67.324448 12.607636,70.631294 11.483500,74.395454 
	C11.436332,74.946365 11.389164,75.497284 11.021426,76.829437 
	C10.932813,83.057365 10.844199,89.285294 10.610223,95.707878 
	C10.610223,95.707878 10.725247,95.921860 10.575928,96.632530 
	C10.643189,97.107811 10.710451,97.583099 10.688207,98.871254 
	C11.060059,100.700073 11.431911,102.528900 11.790829,105.049606 
	C12.166631,106.361809 12.542432,107.674019 12.870280,109.779480 
	C15.955604,116.852272 19.040926,123.925072 22.232582,131.666351 
	C25.480104,135.774902 28.727627,139.883469 32.226055,144.633209 
	C37.379379,148.808899 42.532707,152.984604 48.094406,157.741531 
	C55.061390,160.774460 62.028374,163.807373 69.434631,167.129654 
	C69.775322,167.134384 70.116005,167.139114 70.941772,167.656921 
	C71.622444,167.759735 72.303123,167.862534 73.627014,168.449814 
	C76.749443,168.884323 79.871872,169.318832 83.913857,169.957367 
	C114.061531,171.981247 138.227524,160.535172 156.433090,136.811096 
	C160.636658,131.333344 162.834885,124.316727 166.166458,117.218979 
	C166.296600,116.098854 166.266190,114.930725 166.584335,113.866814 
	C168.065857,108.912292 169.643753,103.986580 171.617966,98.342972 
	C171.337341,91.251907 171.056717,84.160835 170.876038,76.388077 
	C170.218307,73.601494 169.560562,70.814919 168.942505,67.258713 
	C167.009354,62.654400 165.076202,58.050083 163.249771,53.202717 
	C163.249771,53.202717 163.056534,53.020725 163.048325,52.405811 
	C162.716309,51.916378 162.384293,51.426945 162.000610,50.992260 
	C162.000610,50.992260 162.070511,50.964428 162.002441,50.417995 
z"/>
<path fill="#0FCFEF" opacity="1.000000" stroke="none" 
	d="
M11.341997,76.048195 
	C11.389164,75.497284 11.436332,74.946365 11.959300,73.962761 
	C13.205264,70.176025 13.975429,66.821991 14.745592,63.467949 
	C14.745591,63.467949 14.666222,63.220863 15.049484,62.918831 
	C15.552379,61.928860 15.672010,61.240925 15.791641,60.552986 
	C15.791641,60.552986 15.754072,60.260269 16.122757,59.923855 
	C16.586349,58.903717 16.681255,58.219997 16.776161,57.536274 
	C16.776161,57.536274 16.744486,57.243172 17.102543,56.953800 
	C17.617651,56.070820 17.774704,55.477207 17.931757,54.883598 
	C29.600178,30.736849 48.698212,15.984857 74.724991,10.032559 
	C87.439568,7.124749 100.073067,7.671402 112.468735,11.484919 
	C106.973854,12.242435 101.593307,12.412230 96.293304,13.156019 
	C94.588242,13.395304 92.062363,14.869060 91.688271,16.256872 
	C90.233360,21.654278 85.748726,22.308926 81.642494,24.020700 
	C79.071159,25.092615 76.755531,26.963120 74.598602,28.796925 
	C71.914825,31.078650 70.156158,34.696960 65.518265,33.510757 
	C64.637573,33.285511 62.983593,34.753155 62.178303,35.813335 
	C59.773109,38.979828 57.580677,42.311157 55.394653,45.636940 
	C55.111992,46.066975 55.355915,46.843128 55.355915,48.035885 
	C58.073189,48.035885 60.530312,48.035885 62.987976,48.213909 
	C62.988525,48.391933 62.987804,48.747982 62.538765,48.838161 
	C58.185478,49.291809 54.281227,49.655281 49.978310,50.016876 
	C47.522247,51.392319 45.148518,52.472576 43.497074,54.231129 
	C41.869759,55.963985 40.987698,58.391891 39.754017,60.500431 
	C38.195953,63.163376 37.106567,66.742737 32.795319,63.660561 
	C32.305084,63.310085 30.486500,63.973713 29.961609,64.674644 
	C28.415346,66.739510 26.720552,68.905418 25.963314,71.308846 
	C23.740978,78.362419 18.524162,80.109734 12.000334,79.650330 
	C11.778133,78.218300 11.560065,77.133247 11.341997,76.048195 
z"/>
<path fill="#12A4F8" opacity="1.000000" stroke="none" 
	d="
M70.456696,167.143845 
	C70.116005,167.139114 69.775322,167.134384 69.142990,166.649612 
	C67.509895,164.536606 66.168449,162.903641 65.213394,161.741028 
	C68.745964,158.912048 71.548416,156.481598 74.543907,154.318466 
	C77.898476,151.896072 81.448357,149.745941 84.874771,147.420639 
	C87.674057,145.520935 90.404800,143.520538 93.188843,141.597961 
	C94.972954,140.365921 96.722404,139.053223 98.621887,138.025162 
	C102.395012,135.982986 107.154312,135.116226 108.126541,129.451538 
	C117.375671,126.011078 124.141937,120.113213 129.451904,111.990097 
	C133.947403,112.053238 135.907166,110.032112 136.058472,105.932922 
	C136.103683,104.708221 136.564087,103.293503 137.308548,102.333748 
	C141.673004,96.707176 146.553558,91.443169 150.524734,85.560486 
	C154.135895,80.211121 158.810257,79.310356 164.307510,80.698914 
	C167.950378,81.619080 169.935974,80.631676 170.776077,77.069771 
	C171.056717,84.160835 171.337341,91.251907 171.060074,98.827393 
	C168.557144,100.054558 166.484299,101.632050 164.694901,101.358124 
	C161.440964,100.859962 158.355392,99.261803 155.199570,98.122681 
	C155.237961,98.741074 155.276352,99.359467 155.314743,99.977859 
	C153.156647,102.768524 151.360977,105.970924 148.760986,108.259583 
	C144.109329,112.354218 138.973068,115.898315 134.039383,119.672546 
	C134.270447,120.094566 134.501526,120.516586 134.732605,120.938606 
	C133.135437,120.283791 131.538269,119.628967 129.943069,118.974945 
	C126.892967,124.940407 118.703583,126.043129 117.788101,133.415054 
	C117.728401,133.895782 116.383438,134.171722 115.692390,134.627853 
	C113.789658,135.883774 111.709427,136.965897 110.074944,138.513412 
	C106.613884,141.790314 103.476990,145.407959 100.044319,148.716949 
	C97.287018,151.374893 94.258217,153.748978 91.413399,156.319305 
	C90.085609,157.518982 88.641563,158.720108 87.719620,160.210892 
	C85.968941,163.041702 84.556168,166.081467 83.001640,169.214172 
	C83.000229,169.393906 82.994301,169.753342 82.994301,169.753357 
	C79.871872,169.318832 76.749443,168.884323 73.071701,167.946777 
	C71.829826,167.343765 71.143265,167.243805 70.456696,167.143845 
z"/>
<path fill="#0FA0F9" opacity="1.000000" stroke="none" 
	d="
M83.003052,169.034454 
	C84.556168,166.081467 85.968941,163.041702 87.719620,160.210892 
	C88.641563,158.720108 90.085609,157.518982 91.413399,156.319305 
	C94.258217,153.748978 97.287018,151.374893 100.044319,148.716949 
	C103.476990,145.407959 106.613884,141.790314 110.074944,138.513412 
	C111.709427,136.965897 113.789658,135.883774 115.692390,134.627853 
	C116.383438,134.171722 117.728401,133.895782 117.788101,133.415054 
	C118.703583,126.043129 126.892967,124.940407 129.943069,118.974945 
	C131.538269,119.628967 133.135437,120.283791 134.732605,120.938606 
	C134.501526,120.516586 134.270447,120.094566 134.039383,119.672546 
	C138.973068,115.898315 144.109329,112.354218 148.760986,108.259583 
	C151.360977,105.970924 153.156647,102.768524 155.314743,99.977859 
	C155.276352,99.359467 155.237961,98.741074 155.199570,98.122681 
	C158.355392,99.261803 161.440964,100.859962 164.694901,101.358124 
	C166.484299,101.632050 168.557144,100.054558 170.844681,99.181183 
	C169.643753,103.986580 168.065857,108.912292 166.584335,113.866814 
	C166.266190,114.930725 166.296600,116.098854 165.685181,117.603745 
	C164.116013,117.352066 163.089554,116.541344 161.922318,116.130058 
	C160.837753,115.747887 158.987076,115.233566 158.531754,115.736092 
	C154.811050,119.842560 146.171829,119.003166 146.667435,127.407982 
	C146.697220,127.913284 145.597687,128.603104 144.907944,129.011810 
	C142.372253,130.514313 139.623337,131.710144 137.262268,133.440979 
	C134.143387,135.727341 128.583435,136.492218 130.798553,142.694580 
	C130.965729,143.162704 129.385544,144.949463 128.939682,144.837753 
	C122.250145,143.161835 118.678543,148.492172 114.376541,151.571625 
	C110.722313,154.187393 107.138611,157.613968 105.022301,161.498276 
	C101.882614,167.260925 97.818901,169.674347 91.461922,169.046646 
	C88.669121,168.770874 85.824272,169.022369 83.003052,169.034454 
z"/>
<path fill="#109BF8" opacity="1.000000" stroke="none" 
	d="
M83.001640,169.214188 
	C85.824272,169.022369 88.669121,168.770874 91.461922,169.046646 
	C97.818901,169.674347 101.882614,167.260925 105.022301,161.498276 
	C107.138611,157.613968 110.722313,154.187393 114.376541,151.571625 
	C118.678543,148.492172 122.250145,143.161835 128.939682,144.837753 
	C129.385544,144.949463 130.965729,143.162704 130.798553,142.694580 
	C128.583435,136.492218 134.143387,135.727341 137.262268,133.440979 
	C139.623337,131.710144 142.372253,130.514313 144.907944,129.011810 
	C145.597687,128.603104 146.697220,127.913284 146.667435,127.407982 
	C146.171829,119.003166 154.811050,119.842560 158.531754,115.736092 
	C158.987076,115.233566 160.837753,115.747887 161.922318,116.130058 
	C163.089554,116.541344 164.116013,117.352066 165.579910,117.998383 
	C162.834885,124.316727 160.636658,131.333344 156.433090,136.811096 
	C138.227524,160.535172 114.061531,171.981247 83.454079,169.855347 
	C82.994301,169.753342 83.000229,169.393906 83.001640,169.214188 
z"/>
<path fill="#0FC8F1" opacity="1.000000" stroke="none" 
	d="
M62.987431,48.035889 
	C60.530312,48.035885 58.073189,48.035885 55.355915,48.035885 
	C55.355915,46.843128 55.111992,46.066975 55.394653,45.636940 
	C57.580677,42.311157 59.773109,38.979828 62.178303,35.813335 
	C62.983593,34.753155 64.637573,33.285511 65.518265,33.510757 
	C70.156158,34.696960 71.914825,31.078650 74.598602,28.796925 
	C76.755531,26.963120 79.071159,25.092615 81.642494,24.020700 
	C85.748726,22.308926 90.233360,21.654278 91.688271,16.256872 
	C92.062363,14.869060 94.588242,13.395304 96.293304,13.156019 
	C101.593307,12.412230 106.973854,12.242435 112.744781,11.731065 
	C113.166397,11.612164 113.155273,11.667752 113.260254,12.080716 
	C115.383797,12.952973 117.402374,13.412266 119.420944,13.871559 
	C121.817383,14.682828 124.213829,15.494098 126.946625,16.822002 
	C127.614380,17.477568 127.945778,17.616497 128.277176,17.755426 
	C128.277176,17.755426 128.289612,17.641813 128.192200,18.021461 
	C125.988419,22.881109 121.498360,22.799520 117.833687,22.784307 
	C110.426262,22.753555 108.336975,23.758341 104.693542,29.993698 
	C103.621597,31.828209 100.942146,32.822052 98.855759,33.930870 
	C97.438843,34.683895 95.603767,34.688461 94.247025,35.509281 
	C89.740227,38.235867 85.368935,41.186062 80.937859,44.038364 
	C79.064507,45.244251 77.286880,47.131107 75.263336,47.458889 
	C71.245628,48.109688 67.087517,47.893681 62.987431,48.035889 
z"/>
<path fill="#10B7F4" opacity="1.000000" stroke="none" 
	d="
M31.975151,143.992020 
	C28.727627,139.883469 25.480104,135.774902 22.556597,131.331024 
	C28.826752,127.585899 34.742767,124.121712 40.738453,120.801392 
	C42.411636,119.874817 44.320137,119.373169 45.393059,118.958092 
	C46.694809,121.533401 47.542912,123.211243 48.391014,124.889084 
	C48.923534,124.672722 49.456055,124.456360 49.988575,124.240005 
	C49.988575,113.824654 49.988575,103.409309 49.990692,92.526398 
	C49.990925,86.370972 49.989033,80.683113 49.989582,74.526917 
	C50.031231,66.641251 50.070438,59.223923 50.455883,52.079414 
	C50.960205,55.322994 51.244888,58.293282 51.255920,61.264584 
	C51.330441,81.335854 51.333286,101.407394 51.407055,121.478668 
	C51.413330,123.185814 51.767647,124.891678 52.056602,127.451462 
	C53.828979,125.879280 54.899200,124.929947 56.337048,123.944519 
	C57.418846,122.777855 58.133011,121.647301 58.901489,120.260773 
	C59.337364,119.671791 59.718933,119.338776 60.302715,118.882889 
	C60.751560,118.542236 60.904846,118.271576 60.982693,117.972809 
	C61.000599,117.997604 60.947849,117.966774 61.181107,117.860138 
	C61.591667,117.468544 61.768967,117.183586 61.960396,116.937515 
	C61.974529,116.976402 61.896751,116.948158 62.141582,116.845978 
	C62.563549,116.446907 62.740681,116.150017 62.911484,115.899399 
	C62.905155,115.945663 62.839008,115.879738 63.197392,115.870926 
	C64.028076,114.909576 64.500381,113.957039 64.979126,112.995911 
	C64.985565,112.987328 64.998581,112.970253 65.374405,112.973495 
	C68.335487,111.643219 70.920746,110.309708 73.426224,109.017342 
	C72.964088,107.372849 72.494835,105.703049 72.423599,104.021652 
	C73.883415,104.006363 74.945213,104.002670 76.042229,104.346771 
	C77.546783,106.018295 79.226730,108.637306 80.448547,108.438644 
	C85.395927,107.634247 86.014893,110.295486 85.997955,113.995560 
	C86.000610,114.000000 85.991684,113.997559 85.769836,114.121292 
	C85.381958,114.534088 85.215927,114.823151 85.042389,115.073395 
	C85.034889,115.034569 85.112885,115.047707 84.868134,115.143982 
	C84.427406,115.522530 84.231422,115.804794 84.026260,116.051193 
	C84.017082,116.015312 84.088097,116.036324 83.848404,116.134941 
	C83.416046,116.512474 83.223373,116.791397 83.018631,117.038353 
	C83.006554,117.006393 83.070404,117.030731 82.833282,117.133972 
	C82.409370,117.519463 82.222588,117.801720 82.024139,118.049309 
	C82.012474,118.014648 82.083000,118.034012 81.840500,118.143661 
	C81.412941,118.547913 81.227882,118.842529 80.957932,119.364922 
	C80.663376,119.875458 80.382545,120.016464 79.668518,120.014679 
	C78.573593,120.716629 77.840675,121.419624 77.065125,122.112030 
	C77.022491,122.101448 77.105736,122.073410 76.866257,122.155838 
	C76.431496,122.504524 76.236214,122.770767 76.021622,123.018402 
	C76.002319,122.999786 76.034370,123.041458 75.811844,123.126984 
	C75.308304,123.389198 75.115463,123.635040 75.009964,123.979218 
	C75.009148,124.008369 74.951424,123.999931 74.537552,123.996796 
	C70.876740,123.617233 69.393471,124.867836 70.167259,128.203125 
	C70.126541,128.168060 70.222023,128.118744 69.936302,128.229950 
	C69.475471,128.698135 69.300362,129.055099 68.984222,129.661911 
	C68.300789,130.050522 67.758392,130.189301 66.968185,130.010590 
	C62.194832,127.836319 57.564266,127.337738 53.707798,130.761719 
	C49.677624,134.339905 43.472122,135.363754 41.351723,141.316833 
	C41.146469,141.893082 38.531597,142.036835 37.210159,141.698441 
	C34.690529,141.053207 32.219746,139.732513 31.975151,143.992020 
z"/>
<path fill="#0BC8F1" opacity="1.000000" stroke="none" 
	d="
M50.109642,51.806595 
	C50.070438,59.223923 50.031231,66.641251 49.634071,74.567368 
	C44.672821,76.177605 42.383049,79.639198 40.125336,83.433914 
	C39.015121,85.299934 36.354496,88.004456 35.080650,87.675583 
	C31.535114,86.760239 29.926092,88.614082 27.890516,90.544395 
	C26.856789,91.524681 25.473213,92.865540 24.286709,92.827560 
	C19.432938,92.672203 17.381651,95.867088 15.241505,99.330238 
	C14.551740,100.446404 13.146694,101.120537 12.043215,101.602997 
	C12.001126,100.156723 11.984690,99.104317 11.947128,97.719757 
	C11.525751,96.899017 11.125499,96.410439 10.725246,95.921860 
	C10.725247,95.921860 10.610223,95.707878 10.767039,95.111145 
	C11.284059,89.675377 11.644262,84.836334 12.004465,79.997299 
	C18.524162,80.109734 23.740978,78.362419 25.963314,71.308846 
	C26.720552,68.905418 28.415346,66.739510 29.961609,64.674644 
	C30.486500,63.973713 32.305084,63.310085 32.795319,63.660561 
	C37.106567,66.742737 38.195953,63.163376 39.754017,60.500431 
	C40.987698,58.391891 41.869759,55.963985 43.497074,54.231129 
	C45.148518,52.472576 47.522247,51.392319 49.904503,50.309551 
	C50.189453,51.004932 50.149548,51.405766 50.109642,51.806595 
z"/>
<path fill="#12C1F3" opacity="1.000000" stroke="none" 
	d="
M62.987976,48.213913 
	C67.087517,47.893681 71.245628,48.109688 75.263336,47.458889 
	C77.286880,47.131107 79.064507,45.244251 80.937859,44.038364 
	C85.368935,41.186062 89.740227,38.235867 94.247025,35.509281 
	C95.603767,34.688461 97.438843,34.683895 98.855759,33.930870 
	C100.942146,32.822052 103.621597,31.828209 104.693542,29.993698 
	C108.336975,23.758341 110.426262,22.753555 117.833687,22.784307 
	C121.498360,22.799520 125.988419,22.881109 128.249283,18.018826 
	C133.229340,20.853380 138.054901,24.070215 142.695282,27.761421 
	C139.068695,29.834438 135.953720,33.418312 131.727051,31.038395 
	C129.014618,29.511108 127.414871,30.032450 126.030128,32.439201 
	C122.063850,39.332813 114.006287,40.374966 108.167053,44.628601 
	C104.432060,47.349388 98.783905,47.443867 93.533829,48.809036 
	C83.045395,48.850872 73.016602,48.799427 62.987804,48.747986 
	C62.987804,48.747982 62.988525,48.391933 62.987976,48.213913 
z"/>
<path fill="#12BAF4" opacity="1.000000" stroke="none" 
	d="
M93.993454,48.715759 
	C98.783905,47.443867 104.432060,47.349388 108.167053,44.628601 
	C114.006287,40.374966 122.063850,39.332813 126.030128,32.439201 
	C127.414871,30.032450 129.014618,29.511108 131.727051,31.038395 
	C135.953720,33.418312 139.068695,29.834438 142.839340,28.072069 
	C147.551682,32.653316 151.934799,37.398285 155.929932,42.576897 
	C152.329834,43.096714 148.806046,44.053020 145.986526,43.043106 
	C142.656937,41.850494 141.525192,42.145367 140.810349,45.511459 
	C140.635849,46.333191 139.159042,47.036194 138.145599,47.494038 
	C134.194946,49.278820 129.989349,50.594570 126.256584,52.741875 
	C121.740723,55.339649 124.153923,59.466797 124.522339,62.974304 
	C116.201080,53.737827 105.600342,50.151066 93.993454,48.715759 
z"/>
<path fill="#11B0F6" opacity="1.000000" stroke="none" 
	d="
M32.100601,144.312622 
	C32.219746,139.732513 34.690529,141.053207 37.210159,141.698441 
	C38.531597,142.036835 41.146469,141.893082 41.351723,141.316833 
	C43.472122,135.363754 49.677624,134.339905 53.707798,130.761719 
	C57.564266,127.337738 62.194832,127.836319 67.204887,130.222580 
	C68.593826,131.349319 69.471832,132.412628 70.407135,132.465668 
	C75.249870,132.740341 80.107246,132.756775 84.935081,133.228516 
	C84.186890,134.431137 83.626289,135.599701 82.711929,136.050110 
	C78.065628,138.338898 72.619118,139.387558 70.218307,144.945221 
	C69.993935,145.464645 67.791321,145.845581 67.248344,145.395889 
	C63.520336,142.308411 62.019489,145.800873 59.920738,147.628021 
	C57.712502,149.550491 55.535721,151.516022 53.237301,153.325684 
	C51.473751,154.714233 49.542625,155.889938 47.686028,157.160309 
	C42.532707,152.984604 37.379379,148.808899 32.100601,144.312622 
z"/>
<path fill="#0DC3F2" opacity="1.000000" stroke="none" 
	d="
M12.068865,101.996880 
	C13.146694,101.120537 14.551740,100.446404 15.241505,99.330238 
	C17.381651,95.867088 19.432938,92.672203 24.286709,92.827560 
	C25.473213,92.865540 26.856789,91.524681 27.890516,90.544395 
	C29.926092,88.614082 31.535114,86.760239 35.080650,87.675583 
	C36.354496,88.004456 39.015121,85.299934 40.125336,83.433914 
	C42.383049,79.639198 44.672821,76.177605 49.631630,75.035706 
	C49.989033,80.683113 49.990925,86.370972 49.623489,92.533646 
	C47.840961,93.998642 46.281834,94.834320 45.040565,96.006577 
	C40.405800,100.383690 36.188736,105.279457 31.166203,109.135658 
	C28.842081,110.920059 24.576529,110.114601 24.323139,114.734070 
	C24.306374,115.039703 21.707989,115.832344 21.004873,115.361458 
	C18.161436,113.457214 15.590040,111.146751 12.918236,108.986221 
	C12.542432,107.674019 12.166631,106.361809 11.874826,104.313065 
	C11.995504,103.049973 12.032185,102.523430 12.068865,101.996880 
z"/>
<path fill="#13ABF7" opacity="1.000000" stroke="none" 
	d="
M170.826050,76.728928 
	C169.935974,80.631676 167.950378,81.619080 164.307510,80.698914 
	C158.810257,79.310356 154.135895,80.211121 150.524734,85.560486 
	C146.553558,91.443169 141.673004,96.707176 137.308548,102.333748 
	C136.564087,103.293503 136.103683,104.708221 136.058472,105.932922 
	C135.907166,110.032112 133.947403,112.053238 129.508636,111.638535 
	C134.720016,101.479935 135.214050,90.981102 133.798889,80.208923 
	C137.229111,78.231606 140.400497,76.338432 143.352448,74.149338 
	C144.747726,73.114632 145.506470,71.193893 146.929718,70.229889 
	C150.802582,67.606720 154.784424,65.098938 158.947937,62.989140 
	C159.770523,62.572300 162.036728,63.798248 162.863541,64.865791 
	C164.260437,66.669342 165.039505,68.951401 166.412308,71.701149 
	C167.681137,69.830002 168.291977,68.929169 168.902832,68.028336 
	C169.560562,70.814919 170.218307,73.601494 170.826050,76.728928 
z"/>
<path fill="#13A9F8" opacity="1.000000" stroke="none" 
	d="
M47.890217,157.450928 
	C49.542625,155.889938 51.473751,154.714233 53.237301,153.325684 
	C55.535721,151.516022 57.712502,149.550491 59.920738,147.628021 
	C62.019489,145.800873 63.520336,142.308411 67.248344,145.395889 
	C67.791321,145.845581 69.993935,145.464645 70.218307,144.945221 
	C72.619118,139.387558 78.065628,138.338898 82.711929,136.050110 
	C83.626289,135.599701 84.186890,134.431137 85.202988,132.897003 
	C92.965569,131.373001 100.435799,130.545776 107.906036,129.718536 
	C107.154312,135.116226 102.395012,135.982986 98.621887,138.025162 
	C96.722404,139.053223 94.972954,140.365921 93.188843,141.597961 
	C90.404800,143.520538 87.674057,145.520935 84.874771,147.420639 
	C81.448357,149.745941 77.898476,151.896072 74.543907,154.318466 
	C71.548416,156.481598 68.745964,158.912048 65.213394,161.741028 
	C66.168449,162.903641 67.509895,164.536606 68.923347,166.504944 
	C62.028374,163.807373 55.061390,160.774460 47.890217,157.450928 
z"/>
<path fill="#0DBDF3" opacity="1.000000" stroke="none" 
	d="
M12.894258,109.382851 
	C15.590040,111.146751 18.161436,113.457214 21.004873,115.361458 
	C21.707989,115.832344 24.306374,115.039703 24.323139,114.734070 
	C24.576529,110.114601 28.842081,110.920059 31.166203,109.135658 
	C36.188736,105.279457 40.405800,100.383690 45.040565,96.006577 
	C46.281834,94.834320 47.840961,93.998642 49.621368,93.001205 
	C49.988575,103.409309 49.988575,113.824654 49.988575,124.240005 
	C49.456055,124.456360 48.923534,124.672722 48.391014,124.889084 
	C47.542912,123.211243 46.694809,121.533401 45.393059,118.958092 
	C44.320137,119.373169 42.411636,119.874817 40.738453,120.801392 
	C34.742767,124.121712 28.826752,127.585899 22.503429,130.996765 
	C19.040926,123.925072 15.955604,116.852272 12.894258,109.382851 
z"/>
<path fill="#10B3F6" opacity="1.000000" stroke="none" 
	d="
M124.827118,63.098125 
	C124.153923,59.466797 121.740723,55.339649 126.256584,52.741875 
	C129.989349,50.594570 134.194946,49.278820 138.145599,47.494038 
	C139.159042,47.036194 140.635849,46.333191 140.810349,45.511459 
	C141.525192,42.145367 142.656937,41.850494 145.986526,43.043106 
	C148.806046,44.053020 152.329834,43.096714 155.977463,42.937901 
	C157.554474,44.252857 158.695984,45.640450 159.973267,47.654896 
	C160.507523,48.803391 160.906021,49.325031 161.304504,49.846672 
	C161.304504,49.846676 161.180634,49.889370 161.225967,50.091351 
	C161.537704,50.517029 161.804108,50.740726 162.070511,50.964424 
	C162.070511,50.964428 162.000610,50.992260 162.032227,51.275398 
	C162.394745,52.045929 162.725632,52.533329 163.056534,53.020729 
	C163.056534,53.020725 163.249771,53.202717 163.160995,53.721169 
	C163.028976,57.425133 161.194000,56.894360 159.532974,55.727867 
	C155.716095,53.047405 152.735153,55.491737 149.605713,57.103485 
	C147.242493,58.320606 145.025024,60.446125 142.572769,60.737553 
	C137.108627,61.386898 134.520523,64.030350 133.851715,69.351234 
	C133.717377,70.420189 131.853958,71.271812 130.798248,72.199173 
	C130.808701,72.174698 130.855133,72.148674 130.876678,71.823845 
	C130.529282,71.024506 130.160355,70.549995 129.850098,70.071739 
	C129.908768,70.067986 129.884384,70.183029 129.835648,69.941315 
	C129.645203,69.384689 129.415253,69.160233 128.971527,68.882401 
	C128.846008,68.738571 128.856720,68.356941 128.894073,67.961349 
	C127.905342,66.430565 126.879234,65.295364 125.850456,64.136620 
	C125.847786,64.113075 125.892311,64.129311 125.811951,63.884041 
	C125.452431,63.452255 125.173286,63.265747 124.878082,63.084927 
	C124.862022,63.090614 124.827118,63.098125 124.827118,63.098125 
z"/>
<path fill="#13AFF6" opacity="1.000000" stroke="none" 
	d="
M130.787781,72.223648 
	C131.853958,71.271812 133.717377,70.420189 133.851715,69.351234 
	C134.520523,64.030350 137.108627,61.386898 142.572769,60.737553 
	C145.025024,60.446125 147.242493,58.320606 149.605713,57.103485 
	C152.735153,55.491737 155.716095,53.047405 159.532974,55.727867 
	C161.194000,56.894360 163.028976,57.425133 163.107635,53.842697 
	C165.076202,58.050083 167.009354,62.654400 168.922668,67.643524 
	C168.291977,68.929169 167.681137,69.830002 166.412308,71.701149 
	C165.039505,68.951401 164.260437,66.669342 162.863541,64.865791 
	C162.036728,63.798248 159.770523,62.572300 158.947937,62.989140 
	C154.784424,65.098938 150.802582,67.606720 146.929718,70.229889 
	C145.506470,71.193893 144.747726,73.114632 143.352448,74.149338 
	C140.400497,76.338432 137.229111,78.231606 133.616882,79.920731 
	C132.319962,77.138084 131.553864,74.680870 130.787781,72.223648 
z"/>
<path fill="#31CBEB" opacity="1.000000" stroke="none" 
	d="
M12.000334,79.650330 
	C11.644262,84.836334 11.284059,89.675377 10.839720,95.013817 
	C10.844199,89.285294 10.932813,83.057365 11.181711,76.438812 
	C11.560065,77.133247 11.778133,78.218300 12.000334,79.650330 
z"/>
<path fill="#31CBEB" opacity="1.000000" stroke="none" 
	d="
M14.473874,63.742771 
	C13.975429,66.821991 13.205264,70.176025 12.122739,73.734108 
	C12.607636,70.631294 13.404896,67.324448 14.473874,63.742771 
z"/>
<path fill="#0FCFEF" opacity="1.000000" stroke="none" 
	d="
M119.149704,13.604925 
	C117.402374,13.412266 115.383797,12.952973 113.256485,12.108812 
	C115.057983,12.262059 116.968231,12.800175 119.149704,13.604925 
z"/>
<path fill="#31CBEB" opacity="1.000000" stroke="none" 
	d="
M12.043213,101.602997 
	C12.032185,102.523430 11.995504,103.049973 11.881292,103.967117 
	C11.431911,102.528900 11.060059,100.700073 11.030893,98.452621 
	C11.571806,98.039963 11.770030,98.045944 11.968254,98.051918 
	C11.984690,99.104317 12.001126,100.156723 12.043213,101.602997 
z"/>
<path fill="#31CBEB" opacity="1.000000" stroke="none" 
	d="
M15.538128,60.790489 
	C15.672010,61.240925 15.552379,61.928860 15.133516,62.819954 
	C14.984395,62.358067 15.134505,61.693027 15.538128,60.790489 
z"/>
<path fill="#13A9F8" opacity="1.000000" stroke="none" 
	d="
M70.699234,167.400391 
	C71.143265,167.243805 71.829826,167.343765 72.750092,167.704529 
	C72.303123,167.862534 71.622444,167.759735 70.699234,167.400391 
z"/>
<path fill="#13AFF6" opacity="1.000000" stroke="none" 
	d="
M161.286667,49.511734 
	C160.906021,49.325031 160.507523,48.803391 160.127411,47.919147 
	C160.520157,48.096626 160.894485,48.636711 161.286667,49.511734 
z"/>
<path fill="#31CBEB" opacity="1.000000" stroke="none" 
	d="
M16.533497,57.781471 
	C16.681255,58.219997 16.586349,58.903717 16.211639,59.806068 
	C16.051500,59.358688 16.171165,58.692680 16.533497,57.781471 
z"/>
<path fill="#0DC3F2" opacity="1.000000" stroke="none" 
	d="
M11.947128,97.719757 
	C11.770030,98.045944 11.571806,98.039963 11.075647,98.046188 
	C10.710451,97.583099 10.643189,97.107811 10.650587,96.277191 
	C11.125499,96.410439 11.525751,96.899017 11.947128,97.719757 
z"/>
<path fill="#13AFF6" opacity="1.000000" stroke="none" 
	d="
M163.052429,52.713272 
	C162.725632,52.533329 162.394745,52.045929 162.058075,51.248024 
	C162.384293,51.426945 162.716309,51.916378 163.052429,52.713272 
z"/>
<path fill="#31CBEB" opacity="1.000000" stroke="none" 
	d="
M17.678677,55.067310 
	C17.774704,55.477207 17.617651,56.070820 17.194553,56.838638 
	C17.094204,56.425575 17.259901,55.838299 17.678677,55.067310 
z"/>
<path fill="#12C1F3" opacity="1.000000" stroke="none" 
	d="
M128.189697,17.486717 
	C127.945778,17.616497 127.614380,17.477568 127.175339,17.080627 
	C127.412544,16.954412 127.757393,17.086210 128.189697,17.486717 
z"/>
<path fill="#13AFF6" opacity="1.000000" stroke="none" 
	d="
M162.036469,50.691208 
	C161.804108,50.740726 161.537704,50.517029 161.232407,50.026154 
	C161.463150,49.978649 161.732803,50.198322 162.036469,50.691208 
z"/>
<path fill="#F9FDFD" opacity="1.000000" stroke="none" 
	d="
M130.798248,72.199173 
	C131.553864,74.680870 132.319962,77.138084 133.268036,79.883499 
	C135.214050,90.981102 134.720016,101.479935 129.114227,111.635063 
	C124.141937,120.113213 117.375671,126.011078 108.126541,129.451538 
	C100.435799,130.545776 92.965569,131.373001 85.227425,132.531738 
	C80.107246,132.756775 75.249870,132.740341 70.407135,132.465668 
	C69.471832,132.412628 68.593826,131.349319 67.452698,130.540070 
	C67.758392,130.189301 68.300789,130.050522 69.251930,129.526001 
	C69.847794,128.799744 70.034912,128.459244 70.222023,128.118744 
	C70.222023,128.118744 70.126541,128.168060 70.476273,128.108612 
	C72.201141,126.699432 73.576286,125.349686 74.951431,123.999939 
	C74.951424,123.999931 75.009148,124.008369 75.253830,123.926056 
	C75.677132,123.576317 75.855751,123.308891 76.034370,123.041458 
	C76.034370,123.041458 76.002319,122.999786 76.281059,122.966805 
	C76.741783,122.647018 76.923759,122.360214 77.105743,122.073410 
	C77.105736,122.073410 77.022491,122.101448 77.375069,122.069176 
	C78.495270,121.363174 79.262901,120.689445 80.030533,120.015717 
	C80.382545,120.016464 80.663376,119.875458 81.215027,119.272659 
	C81.732346,118.646423 81.907669,118.340218 82.082993,118.034012 
	C82.083000,118.034012 82.012474,118.014648 82.275650,117.964218 
	C82.716019,117.619438 82.893211,117.325089 83.070404,117.030731 
	C83.070404,117.030731 83.006554,117.006393 83.272766,116.959846 
	C83.722015,116.620979 83.905060,116.328651 84.088104,116.036324 
	C84.088097,116.036324 84.017082,116.015312 84.286728,115.977768 
	C84.741875,115.642715 84.927383,115.345215 85.112885,115.047707 
	C85.112885,115.047707 85.034889,115.034569 85.296089,114.984230 
	C85.702087,114.621780 85.846886,114.309669 85.991684,113.997559 
	C85.991684,113.997559 86.000610,114.000000 86.284210,113.782364 
	C87.820023,109.699722 89.072235,105.834709 90.412766,101.553978 
	C89.799355,91.663513 83.307121,86.273987 77.369308,81.002792 
	C75.923103,87.601494 74.558067,93.829826 73.054298,100.256966 
	C72.915565,100.455780 72.853279,100.936638 72.894432,100.949402 
	C72.935585,100.962166 72.918243,100.877754 72.653702,101.042755 
	C72.210007,101.791924 72.030853,102.376091 71.893799,102.953674 
	C71.935890,102.947090 71.890289,102.875122 71.608131,103.061256 
	C69.216843,106.488342 67.107712,109.729301 64.998581,112.970253 
	C64.998581,112.970253 64.985565,112.987328 64.698898,113.129906 
	C63.887825,114.141571 63.363419,115.010651 62.839008,115.879738 
	C62.839008,115.879738 62.905155,115.945663 62.652191,115.981857 
	C62.231735,116.328087 62.064243,116.638123 61.896751,116.948158 
	C61.896751,116.948158 61.974529,116.976402 61.703453,117.013748 
	C61.270870,117.356323 61.109364,117.661552 60.947853,117.966774 
	C60.947849,117.966774 61.000599,117.997604 60.755371,118.069778 
	C60.224339,118.359100 60.087788,118.647041 60.100502,119.005760 
	C59.718933,119.338776 59.337364,119.671791 58.596741,120.418297 
	C57.481594,121.881393 56.725502,122.931000 55.969414,123.980606 
	C54.899200,124.929947 53.828979,125.879280 52.056602,127.451462 
	C51.767647,124.891678 51.413330,123.185814 51.407055,121.478668 
	C51.333286,101.407394 51.330441,81.335854 51.255920,61.264584 
	C51.244888,58.293282 50.960205,55.322994 50.455883,52.079414 
	C50.149548,51.405766 50.189453,51.004932 50.303169,50.311428 
	C54.281227,49.655281 58.185478,49.291809 62.538765,48.838165 
	C73.016602,48.799427 83.045395,48.850872 93.533829,48.809036 
	C105.600342,50.151066 116.201080,53.737827 124.522339,62.974304 
	C124.827118,63.098125 124.862022,63.090614 124.929428,63.351791 
	C125.295334,63.785080 125.593819,63.957195 125.892311,64.129311 
	C125.892311,64.129311 125.847786,64.113075 125.900543,64.456841 
	C126.921104,65.986053 127.888908,67.171494 128.856720,68.356941 
	C128.856720,68.356941 128.846008,68.738571 128.976303,69.145096 
	C129.365860,69.762093 129.625122,69.972565 129.884384,70.183029 
	C129.884384,70.183029 129.908768,70.067986 129.872559,70.380966 
	C130.175949,71.178856 130.515549,71.663765 130.855133,72.148674 
	C130.855133,72.148674 130.808701,72.174698 130.798248,72.199173 
z"/>
<path fill="#1EC2EF" opacity="1.000000" stroke="none" 
	d="
M73.193031,100.058151 
	C74.558067,93.829826 75.923103,87.601494 77.369308,81.002792 
	C83.307121,86.273987 89.799355,91.663513 89.953728,101.562889 
	C87.607941,101.989174 85.809509,101.990829 83.817230,101.754547 
	C82.076355,102.340340 80.529320,103.164062 78.610291,103.988953 
	C77.494530,103.993080 76.750778,103.996033 76.007019,103.998985 
	C74.945213,104.002670 73.883415,104.006363 72.392441,103.731598 
	C71.938942,103.260468 71.914619,103.067795 71.890289,102.875122 
	C71.890289,102.875122 71.935890,102.947090 72.169212,102.796173 
	C72.574440,102.056091 72.746346,101.466919 72.918243,100.877754 
	C72.918243,100.877754 72.935585,100.962166 73.068176,100.907379 
	C73.294228,100.783844 73.477615,100.686317 73.466331,100.651062 
	C73.400520,100.445335 73.289070,100.254211 73.193031,100.058151 
z"/>
<path fill="#15B9F0" opacity="1.000000" stroke="none" 
	d="
M84.011078,101.992477 
	C85.809509,101.990829 87.607941,101.989174 89.865417,101.978607 
	C89.072235,105.834709 87.820023,109.699722 86.281548,113.777924 
	C86.014893,110.295486 85.395927,107.634247 80.448547,108.438644 
	C79.226730,108.637306 77.546783,106.018295 76.042229,104.346771 
	C76.750778,103.996033 77.494530,103.993080 78.669258,104.332817 
	C80.290848,105.281044 81.481461,105.886574 82.672081,106.492111 
	C83.118416,104.992233 83.564743,103.492363 84.011078,101.992477 
z"/>
<path fill="#15B9F0" opacity="1.000000" stroke="none" 
	d="
M71.608131,103.061256 
	C71.914619,103.067795 71.938942,103.260468 71.994431,103.743195 
	C72.494835,105.703049 72.964088,107.372849 73.426224,109.017342 
	C70.920746,110.309708 68.335487,111.643219 65.374405,112.973495 
	C67.107712,109.729301 69.216843,106.488342 71.608131,103.061256 
z"/>
<path fill="#15B9F0" opacity="1.000000" stroke="none" 
	d="
M74.537552,123.996803 
	C73.576286,125.349686 72.201141,126.699432 70.516983,128.143692 
	C69.393471,124.867836 70.876740,123.617233 74.537552,123.996803 
z"/>
<path fill="#15B9F0" opacity="1.000000" stroke="none" 
	d="
M56.337044,123.944511 
	C56.725502,122.931000 57.481594,121.881393 58.542431,120.674263 
	C58.133011,121.647301 57.418846,122.777855 56.337044,123.944511 
z"/>
<path fill="#15B9F0" opacity="1.000000" stroke="none" 
	d="
M79.668518,120.014679 
	C79.262901,120.689445 78.495270,121.363174 77.417702,122.079758 
	C77.840675,121.419624 78.573593,120.716629 79.668518,120.014679 
z"/>
<path fill="#15B9F0" opacity="1.000000" stroke="none" 
	d="
M63.197392,115.870926 
	C63.363419,115.010651 63.887825,114.141571 64.692459,113.138489 
	C64.500381,113.957039 64.028076,114.909576 63.197392,115.870926 
z"/>
<path fill="#15B9F0" opacity="1.000000" stroke="none" 
	d="
M60.302711,118.882889 
	C60.087788,118.647041 60.224339,118.359100 60.737465,118.044983 
	C60.904846,118.271576 60.751560,118.542236 60.302711,118.882889 
z"/>
<path fill="#15B9F0" opacity="1.000000" stroke="none" 
	d="
M69.936302,128.229950 
	C70.034912,128.459244 69.847794,128.799744 69.392960,129.276154 
	C69.300362,129.055099 69.475471,128.698135 69.936302,128.229950 
z"/>
<path fill="#15B9F0" opacity="1.000000" stroke="none" 
	d="
M75.811844,123.126984 
	C75.855751,123.308891 75.677132,123.576317 75.254654,123.896896 
	C75.115463,123.635040 75.308304,123.389198 75.811844,123.126984 
z"/>
<path fill="#15B9F0" opacity="1.000000" stroke="none" 
	d="
M76.866257,122.155846 
	C76.923759,122.360214 76.741783,122.647018 76.300369,122.985413 
	C76.236214,122.770767 76.431496,122.504524 76.866257,122.155846 
z"/>
<path fill="#15B9F0" opacity="1.000000" stroke="none" 
	d="
M81.840500,118.143661 
	C81.907669,118.340218 81.732346,118.646423 81.299919,119.044891 
	C81.227882,118.842529 81.412941,118.547913 81.840500,118.143661 
z"/>
<path fill="#15B9F0" opacity="1.000000" stroke="none" 
	d="
M82.833282,117.133972 
	C82.893211,117.325089 82.716019,117.619438 82.287315,117.998886 
	C82.222588,117.801720 82.409370,117.519463 82.833282,117.133972 
z"/>
<path fill="#15B9F0" opacity="1.000000" stroke="none" 
	d="
M61.181110,117.860138 
	C61.109364,117.661552 61.270870,117.356323 61.689323,116.974861 
	C61.768967,117.183586 61.591667,117.468544 61.181110,117.860138 
z"/>
<path fill="#15B9F0" opacity="1.000000" stroke="none" 
	d="
M83.848404,116.134941 
	C83.905060,116.328651 83.722015,116.620979 83.284843,116.991806 
	C83.223373,116.791397 83.416046,116.512474 83.848404,116.134941 
z"/>
<path fill="#15B9F0" opacity="1.000000" stroke="none" 
	d="
M62.141582,116.845978 
	C62.064243,116.638123 62.231735,116.328087 62.658524,115.935593 
	C62.740681,116.150017 62.563549,116.446907 62.141582,116.845978 
z"/>
<path fill="#15B9F0" opacity="1.000000" stroke="none" 
	d="
M84.868134,115.143982 
	C84.927383,115.345215 84.741875,115.642715 84.295906,116.013641 
	C84.231422,115.804794 84.427406,115.522530 84.868134,115.143982 
z"/>
<path fill="#15B9F0" opacity="1.000000" stroke="none" 
	d="
M85.769836,114.121292 
	C85.846886,114.309669 85.702087,114.621780 85.303589,115.023056 
	C85.215927,114.823151 85.381958,114.534088 85.769836,114.121292 
z"/>
<path fill="#12BAF4" opacity="1.000000" stroke="none" 
	d="
M128.894073,67.961349 
	C127.888908,67.171494 126.921104,65.986053 125.903214,64.480385 
	C126.879234,65.295364 127.905342,66.430565 128.894073,67.961349 
z"/>
<path fill="#13AFF6" opacity="1.000000" stroke="none" 
	d="
M130.876678,71.823845 
	C130.515549,71.663765 130.175949,71.178856 129.813889,70.384720 
	C130.160355,70.549995 130.529282,71.024506 130.876678,71.823845 
z"/>
<path fill="#12BAF4" opacity="1.000000" stroke="none" 
	d="
M125.811951,63.884041 
	C125.593819,63.957195 125.295334,63.785080 124.945488,63.346104 
	C125.173286,63.265747 125.452431,63.452255 125.811951,63.884041 
z"/>
<path fill="#12BAF4" opacity="1.000000" stroke="none" 
	d="
M129.835648,69.941315 
	C129.625122,69.972565 129.365860,69.762093 129.101807,69.288925 
	C129.415253,69.160233 129.645203,69.384689 129.835648,69.941315 
z"/>
<path fill="#10B7F4" opacity="1.000000" stroke="none" 
	d="
M72.653702,101.042755 
	C72.746346,101.466919 72.574440,102.056091 72.127121,102.802750 
	C72.030853,102.376091 72.210007,101.791924 72.653702,101.042755 
z"/>
<path fill="#10B7F4" opacity="1.000000" stroke="none" 
	d="
M73.054298,100.256966 
	C73.289070,100.254211 73.400520,100.445335 73.466331,100.651062 
	C73.477615,100.686317 73.294228,100.783844 73.027023,100.894623 
	C72.853279,100.936638 72.915565,100.455780 73.054298,100.256966 
z"/>
<path fill="#10B7F4" opacity="1.000000" stroke="none" 
	d="
M83.817230,101.754547 
	C83.564743,103.492363 83.118416,104.992233 82.672081,106.492111 
	C81.481461,105.886574 80.290848,105.281044 79.041260,104.331650 
	C80.529320,103.164062 82.076355,102.340340 83.817230,101.754547 
z"/>
</svg>