<svg xmlns="http://www.w3.org/2000/svg" width="24" height="22" viewBox="0 0 24 22">
<rect x="1" y="2" width="2" height="1" fill="#000000"/>
<rect x="7" y="2" width="3" height="1" fill="#000000"/>
<rect x="14" y="2" width="2" height="1" fill="#000000"/>
<rect x="0" y="3" width="4" height="1" fill="#000000"/>
<rect x="7" y="3" width="4" height="1" fill="#000000"/>
<rect x="13" y="3" width="4" height="1" fill="#000000"/>
<rect x="0" y="4" width="5" height="1" fill="#000000"/>
<rect x="7" y="4" width="5" height="1" fill="#000000"/>
<rect x="13" y="4" width="5" height="1" fill="#000000"/>
<rect x="0" y="5" width="6" height="1" fill="#000000"/>
<rect x="8" y="5" width="5" height="1" fill="#000000"/>
<rect x="14" y="5" width="5" height="1" fill="#000000"/>
<rect x="0" y="6" width="7" height="1" fill="#000000"/>
<rect x="9" y="6" width="5" height="1" fill="#000000"/>
<rect x="15" y="6" width="5" height="1" fill="#000000"/>
<rect x="0" y="7" width="8" height="1" fill="#000000"/>
<rect x="10" y="7" width="5" height="1" fill="#000000"/>
<rect x="16" y="7" width="5" height="1" fill="#000000"/>
<rect x="0" y="8" width="9" height="1" fill="#000000"/>
<rect x="11" y="8" width="5" height="1" fill="#000000"/>
<rect x="17" y="8" width="5" height="1" fill="#000000"/>
<rect x="0" y="9" width="4" height="1" fill="#000000"/>
<rect x="5" y="9" width="5" height="1" fill="#000000"/>
<rect x="12" y="9" width="5" height="1" fill="#000000"/>
<rect x="18" y="9" width="5" height="1" fill="#000000"/>
<rect x="0" y="10" width="4" height="1" fill="#000000"/>
<rect x="6" y="10" width="5" height="1" fill="#000000"/>
<rect x="13" y="10" width="4" height="1" fill="#000000"/>
<rect x="19" y="10" width="5" height="1" fill="#000000"/>
<rect x="1" y="11" width="2" height="1" fill="#000000"/>
<rect x="6" y="11" width="5" height="1" fill="#000000"/>
<rect x="13" y="11" width="4" height="1" fill="#000000"/>
<rect x="19" y="11" width="5" height="1" fill="#000000"/>
<rect x="5" y="12" width="5" height="1" fill="#000000"/>
<rect x="12" y="12" width="5" height="1" fill="#000000"/>
<rect x="18" y="12" width="5" height="1" fill="#000000"/>
<rect x="4" y="13" width="5" height="1" fill="#000000"/>
<rect x="11" y="13" width="5" height="1" fill="#000000"/>
<rect x="17" y="13" width="5" height="1" fill="#000000"/>
<rect x="3" y="14" width="5" height="1" fill="#000000"/>
<rect x="10" y="14" width="5" height="1" fill="#000000"/>
<rect x="16" y="14" width="5" height="1" fill="#000000"/>
<rect x="2" y="15" width="5" height="1" fill="#000000"/>
<rect x="9" y="15" width="5" height="1" fill="#000000"/>
<rect x="15" y="15" width="5" height="1" fill="#000000"/>
<rect x="1" y="16" width="5" height="1" fill="#000000"/>
<rect x="8" y="16" width="5" height="1" fill="#000000"/>
<rect x="14" y="16" width="5" height="1" fill="#000000"/>
<rect x="0" y="17" width="5" height="1" fill="#000000"/>
<rect x="7" y="17" width="5" height="1" fill="#000000"/>
<rect x="13" y="17" width="5" height="1" fill="#000000"/>
<rect x="0" y="18" width="4" height="1" fill="#000000"/>
<rect x="7" y="18" width="4" height="1" fill="#000000"/>
<rect x="13" y="18" width="4" height="1" fill="#000000"/>
<rect x="1" y="19" width="2" height="1" fill="#000000"/>
<rect x="7" y="19" width="3" height="1" fill="#000000"/>
<rect x="14" y="19" width="2" height="1" fill="#000000"/>
</svg>