<svg width="150" height="100" viewBox="0 0 1318 258" fill="none" xmlns="http://www.w3.org/2000/svg">
<path d="M1226.43 123.28C1226.02 123.28 1225.66 123.56 1225.55 123.95C1218.12 150.1 1212.3 170.33 1208.11 184.65C1207.38 187.13 1205.11 188.82 1202.53 188.82H1173.7C1171.14 188.82 1168.88 187.15 1168.14 184.7L1135.81 78.8201C1134.67 75.0801 1137.47 71.3 1141.38 71.3H1163.83C1166.44 71.3 1168.73 73.04 1169.44 75.56L1188.31 143.31C1188.42 143.7 1188.78 143.98 1189.19 143.98C1189.6 143.98 1189.96 143.71 1190.07 143.31C1193.97 129.54 1196.97 119.18 1199.08 112.24L1209.6 75.5201C1210.32 73.0201 1212.6 71.3 1215.19 71.3H1239.98C1242.59 71.3 1244.87 73.03 1245.58 75.54L1264.67 143.31C1264.78 143.7 1265.14 143.98 1265.55 143.98C1265.96 143.98 1266.32 143.71 1266.43 143.31C1274.76 114.15 1281.13 91.57 1285.53 75.58C1286.23 73.05 1288.52 71.3 1291.14 71.3H1311.5C1315.41 71.3 1318.21 75.0801 1317.07 78.8201L1284.75 184.7C1284 187.15 1281.74 188.82 1279.18 188.82H1250.81C1248.23 188.82 1245.96 187.12 1245.23 184.65L1227.34 123.94C1227.23 123.55 1226.87 123.28 1226.46 123.28H1226.43Z" fill="black"/>
<path d="M1133.55 133.4C1133.55 145.21 1131.02 155.48 1125.96 164.22C1121.05 172.96 1114.23 179.63 1105.49 184.23C1096.75 188.83 1086.94 191.13 1076.05 191.13H1072.37C1061.48 191.13 1051.67 188.83 1042.93 184.23C1034.19 179.63 1027.29 172.96 1022.23 164.22C1017.32 155.48 1014.87 145.21 1014.87 133.4V126.73C1014.87 114.92 1017.32 104.65 1022.23 95.91C1027.29 87.17 1034.19 80.5 1042.93 75.9C1051.67 71.3 1061.48 69 1072.37 69H1076.05C1086.93 69 1096.75 71.3 1105.49 75.9C1114.23 80.5 1121.05 87.17 1125.96 95.91C1131.02 104.65 1133.55 114.92 1133.55 126.73V133.4ZM1099.51 120.75C1099.51 111.4 1097.13 104.27 1092.38 99.36C1087.78 94.45 1081.73 92 1074.21 92C1066.69 92 1060.56 94.45 1055.81 99.36C1051.21 104.27 1048.91 111.4 1048.91 120.75V139.38C1048.91 148.73 1051.21 155.86 1055.81 160.77C1060.56 165.68 1066.7 168.13 1074.21 168.13C1081.72 168.13 1087.78 165.68 1092.38 160.77C1097.13 155.86 1099.51 148.73 1099.51 139.38V120.75Z" fill="black"/>
<path d="M949.84 24.89C947.38 24.09 944.49 23.38 941.16 22.78C936.1 21.86 931.65 21.4 927.82 21.4C904.21 21.4 892.4 32.9 892.4 55.9V71.31H884.61C881.4 71.31 878.79 73.91 878.79 77.13V88.02C878.79 91.23 881.39 93.84 884.61 93.84H892.4V183.01C892.4 186.22 895.01 188.83 898.22 188.83H920.16C923.37 188.83 925.98 186.22 925.98 183.01V100.12C925.98 96.91 928.58 94.3 931.8 94.3H947.53C950.74 94.3 953.35 91.7 953.35 88.48V77.12C953.35 73.91 950.74 71.3 947.53 71.3H931.8C928.59 71.3 925.98 68.69 925.98 65.48V57.96C925.98 52.44 927.21 48.76 929.66 46.92C932.27 45.08 935.41 44.16 939.09 44.16C940.78 44.16 943.08 44.47 945.99 45.08C949.69 45.66 953.35 42.9 953.35 39.15V29.98C953.35 27.69 952.01 25.59 949.84 24.88V24.89Z" fill="black"/>
<path d="M995.07 23.24H973.13C969.916 23.24 967.31 25.8457 967.31 29.06V183.01C967.31 186.224 969.916 188.83 973.13 188.83H995.07C998.284 188.83 1000.89 186.224 1000.89 183.01V29.06C1000.89 25.8457 998.284 23.24 995.07 23.24Z" fill="black"/>
<path d="M654.92 75.92C655.97 80.82 662.54 82.36 666.39 79.15C674.49 72.39 684.06 69.01 695.11 69.01C707.07 69.01 716.88 72.23 724.55 78.67C732.37 85.11 736.28 94.46 736.28 106.73V183.01C736.28 186.22 733.68 188.83 730.46 188.83H708.52C705.31 188.83 702.7 186.22 702.7 183.01V114.08C702.7 108.1 700.94 103.19 697.41 99.36C694.04 95.37 689.67 93.38 684.3 93.38C678.32 93.38 673.19 95.68 668.89 100.28C664.6 104.73 662.45 110.17 662.45 116.61V183.01C662.45 186.22 659.84 188.83 656.63 188.83H634.69C631.48 188.83 628.87 186.22 628.87 183.01V77.13C628.87 73.92 631.48 71.31 634.69 71.31H649.23C651.97 71.31 654.35 73.24 654.92 75.92Z" fill="black"/>
<path fill-rule="evenodd" clip-rule="evenodd" d="M575.88 96.83C579.25 100.05 580.94 104.27 580.94 109.48V111.77L580.92 112.01C580.81 113.29 580.7 114.53 580.7 115.58C580.7 116.53 579.93 117.3 578.98 117.31C562.39 117.38 548.79 118.38 538.17 120.3C527.13 122.29 518.47 126.2 512.18 132.03C506.05 137.7 502.98 145.98 502.98 156.87C502.98 170.21 506.74 179.25 514.25 184.01C521.76 188.76 531.35 191.14 543 191.14C554.65 191.14 564 187.81 572.64 181.14C575.7 178.78 580.7 180.77 580.7 184.64C580.7 186.96 582.58 188.84 584.91 188.84H608.46C611.67 188.84 614.28 186.23 614.28 183.02V106.74C614.28 94.47 610.37 85.12 602.55 78.68C596.44 73.55 589.79 71.53 581.01 70.57C575.71 69.54 569.78 69.02 563.23 69.02H558.4C548.28 69.02 539.31 70.48 531.49 73.39C523.67 76.3 517.54 80.37 513.09 85.58C508.8 90.79 506.65 96.7 506.65 103.29C506.65 105.7 508.87 107.43 511.28 107.43H537.7C538.72 107.43 539.54 106.61 539.54 105.59C539.54 103.75 540.31 101.76 541.84 99.61C543.53 97.46 545.9 95.7 548.97 94.32C552.04 92.79 555.72 92.02 560.01 92.02C567.37 92.02 572.66 93.63 575.88 96.85V96.83ZM574.87 136.25C578.08 136.15 580.7 138.77 580.7 141.98V145.43C580.7 145.71 580.68 145.98 580.64 146.25C580.09 149.64 578.82 152.79 576.8 155.7C574.19 159.69 570.9 162.75 566.91 164.9C562.92 167.05 558.94 168.12 554.95 168.12C549.12 168.12 544.75 167.12 541.84 165.13C539.08 162.98 537.7 159.38 537.7 154.32C537.7 147.88 541.23 143.28 548.28 140.52C554.45 138.03 563.31 136.6 574.87 136.24V136.25Z" fill="black"/>
<path d="M409.44 188.82C406.23 188.82 403.62 186.21 403.62 183V36.87C403.62 33.66 406.23 31.05 409.44 31.05H433.45C436.66 31.05 439.27 33.66 439.27 36.87V153.56C439.27 156.77 441.88 159.38 445.09 159.38H485.44C488.15 159.38 490.51 161.26 491.11 163.9L495.17 181.7C496 185.34 493.23 188.81 489.5 188.81H409.44V188.82Z" fill="black"/>
<path d="M862.6 171.34C856.93 165.21 848.72 162.14 837.99 162.14H797.05C792.14 162.14 788.46 161.3 786.01 159.61C783.71 157.92 782.56 155.55 782.56 152.48C782.56 150.03 783.79 147.8 786.24 145.81C788.85 143.82 792.45 142.82 797.05 142.82H812.92C821.97 142.82 829.94 141.21 836.84 137.99C843.89 134.62 849.33 130.17 853.17 124.65C857 118.98 858.92 112.77 858.92 106.02C858.92 101.87 858.16 97.97 856.66 94.33H863.52C866.73 94.33 869.34 91.72 869.34 88.51V77.62C869.34 74.41 866.74 71.8 863.52 71.8H828.05C827.99 71.78 827.93 71.76 827.87 71.75C822.2 69.91 815.76 68.99 808.55 68.99H804.87C788.46 68.99 775.97 72.44 767.38 79.34C758.95 86.24 754.73 95.13 754.73 106.02C754.73 111.69 756.19 117.06 759.1 122.12C759.9 123.47 760.8 124.76 761.78 125.99C764.89 129.88 763.99 137.1 760.21 140.33C759.08 141.3 758.02 142.36 757.03 143.51C753.35 147.65 751.51 152.56 751.51 158.23C751.51 162.22 752.43 165.9 754.27 169.27C754.47 169.63 754.68 169.99 754.89 170.34C757.31 174.24 756.89 180.5 753.57 183.67C752.16 185.01 750.86 186.5 749.66 188.13C746.44 192.58 744.83 197.56 744.83 203.08C744.83 212.13 747.97 219.18 754.26 224.24C760.7 229.45 768.59 232.06 777.95 232.06H826.48C834.76 232.06 842.27 230.45 849.02 227.23C855.92 224.16 861.36 219.79 865.35 214.12C869.34 208.45 871.33 202.08 871.33 195.03C871.33 185.22 868.42 177.32 862.59 171.34H862.6ZM792.68 93.61C796.51 90.54 801.34 89.01 807.17 89.01C813 89.01 818.06 90.54 821.89 93.61C825.72 96.52 827.64 100.66 827.64 106.03C827.64 111.4 825.72 115.61 821.89 118.68C818.06 121.59 813.15 123.05 807.17 123.05C801.19 123.05 796.51 121.59 792.68 118.68C788.85 115.61 786.93 111.4 786.93 106.03C786.93 100.66 788.85 96.52 792.68 93.61ZM835.92 207.68C833.01 210.13 829.56 211.36 825.57 211.36H786.93C783.56 211.36 780.64 210.21 778.19 207.91C775.74 205.61 774.51 202.93 774.51 199.86C774.51 196.79 775.74 194.11 778.19 191.81C780.64 189.66 783.56 188.59 786.93 188.59H826.95C830.94 188.59 834.16 189.59 836.61 191.58C839.06 193.73 840.29 196.33 840.29 199.4C840.29 202.62 838.83 205.38 835.92 207.68Z" fill="black"/>
<path d="M241.05 136.17H281.58C289.53 136.17 295.97 142.61 295.97 150.56V174.47C295.97 182.42 289.53 188.86 281.58 188.86H246.23C242.41 188.86 238.75 190.38 236.05 193.08L175.39 253.73C172.69 256.43 169.03 257.95 165.21 257.95H136.05C128.25 257.95 121.86 251.73 121.66 243.93L121.03 219.52C120.82 211.43 127.32 204.75 135.42 204.75H160.52C164.34 204.75 168 203.23 170.7 200.53L230.85 140.38C233.55 137.68 237.21 136.16 241.03 136.16L241.05 136.17Z" fill="black"/>
<path d="M120.71 0.0500488H161.24C169.19 0.0500488 175.63 6.49005 175.63 14.44V38.3501C175.63 46.3001 169.19 52.7401 161.24 52.7401H125.89C122.07 52.7401 118.41 54.2601 115.71 56.9601L55.05 117.62C52.35 120.32 48.69 121.84 44.87 121.84H15.71C7.91 121.84 1.52 115.62 1.32 107.82L0.690008 83.41C0.480008 75.3201 6.98001 68.65 15.08 68.65H40.18C44 68.65 47.66 67.13 50.36 64.43L110.51 4.28004C113.21 1.58004 116.87 0.0600433 120.69 0.0600433L120.71 0.0500488Z" fill="black"/>
<path d="M241.05 30.8501H281.58C289.53 30.8501 295.97 37.2901 295.97 45.2401V69.1501C295.97 77.1001 289.53 83.5401 281.58 83.5401H246.23C242.41 83.5401 238.75 85.0601 236.05 87.7601L175.39 148.42C172.69 151.12 169.03 152.64 165.21 152.64H129.78C126.07 152.64 122.5 154.07 119.82 156.64L51.72 221.9C49.04 224.47 45.47 225.9 41.76 225.9H16.94C8.99005 225.9 2.55005 219.45 2.55005 211.51V186.94C2.55005 178.99 8.99005 172.55 16.94 172.55H41.58C45.4 172.55 49.06 171.03 51.76 168.33L116.43 103.66C119.13 100.96 122.79 99.4401 126.61 99.4401H160.52C164.34 99.4401 168 97.9201 170.7 95.2201L230.85 35.0701C233.55 32.3701 237.21 30.8501 241.03 30.8501H241.05Z" fill="black"/>
</svg>
