<svg width="18" height="18" viewBox="0 0 18 18" fill="none" xmlns="http://www.w3.org/2000/svg">
<g id="langflow-icon-color-black-transparent">
<g id="Group 3">
<path id="Vector" d="M13.121 9.31941H14.9266C15.2808 9.31941 15.5677 9.60632 15.5677 9.96049V11.0257C15.5677 11.3798 15.2808 11.6667 14.9266 11.6667H13.3518C13.1816 11.6667 13.0185 11.7345 12.8982 11.8547L10.1958 14.5567C10.0756 14.677 9.91251 14.7447 9.74233 14.7447H8.44325C8.09577 14.7447 7.81109 14.4676 7.80218 14.1201L7.77412 13.0326C7.76476 12.6722 8.05433 12.3746 8.41519 12.3746H9.53339C9.70357 12.3746 9.86662 12.3069 9.98691 12.1866L12.6666 9.50697C12.7869 9.38669 12.9499 9.31897 13.1201 9.31897L13.121 9.31941Z" fill="#7528FC"/>
<path id="Vector_2" d="M7.75986 3.25531H9.56546C9.91963 3.25531 10.2065 3.54221 10.2065 3.89638V4.96157C10.2065 5.31574 9.91963 5.60264 9.56546 5.60264H7.99063C7.82045 5.60264 7.65739 5.67036 7.53711 5.79064L4.83472 8.49303C4.71443 8.61332 4.55138 8.68104 4.3812 8.68104H3.08212C2.73464 8.68104 2.44996 8.40394 2.44105 8.05645L2.41299 6.96898C2.40363 6.60858 2.6932 6.31143 3.05406 6.31143H4.17226C4.34244 6.31143 4.50549 6.24371 4.62578 6.12343L7.30545 3.44376C7.42573 3.32347 7.58879 3.25576 7.75897 3.25576L7.75986 3.25531Z" fill="#FF3276"/>
<path id="Vector_3" d="M13.121 4.62744H14.9266C15.2808 4.62744 15.5677 4.91434 15.5677 5.26851V6.3337C15.5677 6.68787 15.2808 6.97477 14.9266 6.97477H13.3518C13.1816 6.97477 13.0185 7.04249 12.8982 7.16277L10.1958 9.86517C10.0756 9.98545 9.91251 10.0532 9.74233 10.0532H8.16393C7.99865 10.0532 7.8396 10.1169 7.72021 10.2314L4.68637 13.1387C4.56697 13.2532 4.40793 13.3169 4.24265 13.3169H3.13692C2.78275 13.3169 2.49585 13.0295 2.49585 12.6758V11.5812C2.49585 11.2271 2.78275 10.9402 3.13692 10.9402H4.23463C4.40481 10.9402 4.56786 10.8724 4.68815 10.7522L7.56918 7.87112C7.68947 7.75083 7.85252 7.68312 8.0227 7.68312H9.53339C9.70357 7.68312 9.86662 7.6154 9.98691 7.49511L12.6666 4.81544C12.7869 4.69516 12.9499 4.62744 13.1201 4.62744H13.121Z" fill="#F480FF"/>
</g>
</g>
</svg>
