<svg xmlns="http://www.w3.org/2000/svg" width="150" height="100" viewBox="0 0 150 100">
<rect x="0" y="39" width="4" height="1" fill="#FFFFFF"/>
<rect x="8" y="39" width="4" height="1" fill="#FFFFFF"/>
<rect x="16" y="39" width="4" height="1" fill="#FFFFFF"/>
<rect x="0" y="40" width="5" height="1" fill="#FFFFFF"/>
<rect x="8" y="40" width="5" height="1" fill="#FFFFFF"/>
<rect x="16" y="40" width="5" height="1" fill="#FFFFFF"/>
<rect x="0" y="41" width="6" height="1" fill="#FFFFFF"/>
<rect x="8" y="41" width="6" height="1" fill="#FFFFFF"/>
<rect x="16" y="41" width="6" height="1" fill="#FFFFFF"/>
<rect x="0" y="42" width="7" height="1" fill="#FFFFFF"/>
<rect x="8" y="42" width="7" height="1" fill="#FFFFFF"/>
<rect x="16" y="42" width="7" height="1" fill="#FFFFFF"/>
<rect x="0" y="43" width="8" height="1" fill="#FFFFFF"/>
<rect x="9" y="43" width="7" height="1" fill="#FFFFFF"/>
<rect x="17" y="43" width="7" height="1" fill="#FFFFFF"/>
<rect x="0" y="44" width="9" height="1" fill="#FFFFFF"/>
<rect x="10" y="44" width="7" height="1" fill="#FFFFFF"/>
<rect x="18" y="44" width="7" height="1" fill="#FFFFFF"/>
<rect x="31" y="44" width="5" height="1" fill="#FFFFFF"/>
<rect x="41" y="44" width="1" height="1" fill="#FFFFFF"/>
<rect x="47" y="44" width="2" height="1" fill="#FFFFFF"/>
<rect x="55" y="44" width="4" height="1" fill="#FFFFFF"/>
<rect x="65" y="44" width="4" height="1" fill="#FFFFFF"/>
<rect x="73" y="44" width="2" height="1" fill="#FFFFFF"/>
<rect x="79" y="44" width="2" height="1" fill="#FFFFFF"/>
<rect x="85" y="44" width="2" height="1" fill="#FFFFFF"/>
<rect x="91" y="44" width="2" height="1" fill="#FFFFFF"/>
<rect x="102" y="44" width="3" height="1" fill="#FFFFFF"/>
<rect x="109" y="44" width="2" height="1" fill="#FFFFFF"/>
<rect x="116" y="44" width="1" height="1" fill="#FFFFFF"/>
<rect x="120" y="44" width="8" height="1" fill="#FFFFFF"/>
<rect x="129" y="44" width="6" height="1" fill="#FFFFFF"/>
<rect x="139" y="44" width="2" height="1" fill="#FFFFFF"/>
<rect x="142" y="44" width="2" height="1" fill="#FFFFFF"/>
<rect x="148" y="44" width="2" height="1" fill="#FFFFFF"/>
<rect x="0" y="45" width="10" height="1" fill="#FFFFFF"/>
<rect x="11" y="45" width="7" height="1" fill="#FFFFFF"/>
<rect x="19" y="45" width="7" height="1" fill="#FFFFFF"/>
<rect x="31" y="45" width="7" height="1" fill="#FFFFFF"/>
<rect x="40" y="45" width="3" height="1" fill="#FFFFFF"/>
<rect x="46" y="45" width="3" height="1" fill="#FFFFFF"/>
<rect x="54" y="45" width="7" height="1" fill="#FFFFFF"/>
<rect x="64" y="45" width="7" height="1" fill="#FFFFFF"/>
<rect x="73" y="45" width="3" height="1" fill="#FFFFFF"/>
<rect x="79" y="45" width="2" height="1" fill="#FFFFFF"/>
<rect x="85" y="45" width="3" height="1" fill="#FFFFFF"/>
<rect x="91" y="45" width="2" height="1" fill="#FFFFFF"/>
<rect x="102" y="45" width="3" height="1" fill="#FFFFFF"/>
<rect x="109" y="45" width="3" height="1" fill="#FFFFFF"/>
<rect x="115" y="45" width="3" height="1" fill="#FFFFFF"/>
<rect x="120" y="45" width="8" height="1" fill="#FFFFFF"/>
<rect x="129" y="45" width="7" height="1" fill="#FFFFFF"/>
<rect x="139" y="45" width="2" height="1" fill="#FFFFFF"/>
<rect x="142" y="45" width="3" height="1" fill="#FFFFFF"/>
<rect x="147" y="45" width="3" height="1" fill="#FFFFFF"/>
<rect x="0" y="46" width="11" height="1" fill="#FFFFFF"/>
<rect x="12" y="46" width="7" height="1" fill="#FFFFFF"/>
<rect x="20" y="46" width="7" height="1" fill="#FFFFFF"/>
<rect x="31" y="46" width="2" height="1" fill="#FFFFFF"/>
<rect x="35" y="46" width="4" height="1" fill="#FFFFFF"/>
<rect x="40" y="46" width="3" height="1" fill="#FFFFFF"/>
<rect x="46" y="46" width="4" height="1" fill="#FFFFFF"/>
<rect x="53" y="46" width="3" height="1" fill="#FFFFFF"/>
<rect x="59" y="46" width="2" height="1" fill="#FFFFFF"/>
<rect x="63" y="46" width="3" height="1" fill="#FFFFFF"/>
<rect x="69" y="46" width="2" height="1" fill="#FFFFFF"/>
<rect x="73" y="46" width="3" height="1" fill="#FFFFFF"/>
<rect x="79" y="46" width="2" height="1" fill="#FFFFFF"/>
<rect x="84" y="46" width="4" height="1" fill="#FFFFFF"/>
<rect x="91" y="46" width="2" height="1" fill="#FFFFFF"/>
<rect x="102" y="46" width="3" height="1" fill="#FFFFFF"/>
<rect x="108" y="46" width="4" height="1" fill="#FFFFFF"/>
<rect x="115" y="46" width="3" height="1" fill="#FFFFFF"/>
<rect x="123" y="46" width="2" height="1" fill="#FFFFFF"/>
<rect x="129" y="46" width="2" height="1" fill="#FFFFFF"/>
<rect x="132" y="46" width="1" height="1" fill="#FFFFFF"/>
<rect x="134" y="46" width="3" height="1" fill="#FFFFFF"/>
<rect x="139" y="46" width="2" height="1" fill="#FFFFFF"/>
<rect x="143" y="46" width="2" height="1" fill="#FFFFFF"/>
<rect x="147" y="46" width="2" height="1" fill="#FFFFFF"/>
<rect x="0" y="47" width="4" height="1" fill="#FFFFFF"/>
<rect x="5" y="47" width="7" height="1" fill="#FFFFFF"/>
<rect x="13" y="47" width="7" height="1" fill="#FFFFFF"/>
<rect x="21" y="47" width="7" height="1" fill="#FFFFFF"/>
<rect x="31" y="47" width="2" height="1" fill="#FFFFFF"/>
<rect x="37" y="47" width="2" height="1" fill="#FFFFFF"/>
<rect x="40" y="47" width="3" height="1" fill="#FFFFFF"/>
<rect x="46" y="47" width="4" height="1" fill="#FFFFFF"/>
<rect x="53" y="47" width="2" height="1" fill="#FFFFFF"/>
<rect x="59" y="47" width="3" height="1" fill="#FFFFFF"/>
<rect x="63" y="47" width="2" height="1" fill="#FFFFFF"/>
<rect x="70" y="47" width="2" height="1" fill="#FFFFFF"/>
<rect x="73" y="47" width="4" height="1" fill="#FFFFFF"/>
<rect x="79" y="47" width="2" height="1" fill="#FFFFFF"/>
<rect x="84" y="47" width="5" height="1" fill="#FFFFFF"/>
<rect x="91" y="47" width="2" height="1" fill="#FFFFFF"/>
<rect x="102" y="47" width="4" height="1" fill="#FFFFFF"/>
<rect x="108" y="47" width="4" height="1" fill="#FFFFFF"/>
<rect x="114" y="47" width="5" height="1" fill="#FFFFFF"/>
<rect x="123" y="47" width="2" height="1" fill="#FFFFFF"/>
<rect x="129" y="47" width="2" height="1" fill="#FFFFFF"/>
<rect x="135" y="47" width="2" height="1" fill="#FFFFFF"/>
<rect x="139" y="47" width="2" height="1" fill="#FFFFFF"/>
<rect x="143" y="47" width="5" height="1" fill="#FFFFFF"/>
<rect x="0" y="48" width="5" height="1" fill="#FFFFFF"/>
<rect x="6" y="48" width="7" height="1" fill="#FFFFFF"/>
<rect x="14" y="48" width="7" height="1" fill="#FFFFFF"/>
<rect x="22" y="48" width="7" height="1" fill="#FFFFFF"/>
<rect x="31" y="48" width="2" height="1" fill="#FFFFFF"/>
<rect x="37" y="48" width="2" height="1" fill="#FFFFFF"/>
<rect x="40" y="48" width="3" height="1" fill="#FFFFFF"/>
<rect x="45" y="48" width="2" height="1" fill="#FFFFFF"/>
<rect x="48" y="48" width="2" height="1" fill="#FFFFFF"/>
<rect x="52" y="48" width="3" height="1" fill="#FFFFFF"/>
<rect x="63" y="48" width="2" height="1" fill="#FFFFFF"/>
<rect x="70" y="48" width="2" height="1" fill="#FFFFFF"/>
<rect x="73" y="48" width="5" height="1" fill="#FFFFFF"/>
<rect x="79" y="48" width="2" height="1" fill="#FFFFFF"/>
<rect x="84" y="48" width="2" height="1" fill="#FFFFFF"/>
<rect x="87" y="48" width="2" height="1" fill="#FFFFFF"/>
<rect x="91" y="48" width="2" height="1" fill="#FFFFFF"/>
<rect x="102" y="48" width="4" height="1" fill="#FFFFFF"/>
<rect x="108" y="48" width="4" height="1" fill="#FFFFFF"/>
<rect x="114" y="48" width="2" height="1" fill="#FFFFFF"/>
<rect x="117" y="48" width="2" height="1" fill="#FFFFFF"/>
<rect x="123" y="48" width="2" height="1" fill="#FFFFFF"/>
<rect x="129" y="48" width="8" height="1" fill="#FFFFFF"/>
<rect x="139" y="48" width="2" height="1" fill="#FFFFFF"/>
<rect x="144" y="48" width="4" height="1" fill="#FFFFFF"/>
<rect x="0" y="49" width="4" height="1" fill="#FFFFFF"/>
<rect x="7" y="49" width="6" height="1" fill="#FFFFFF"/>
<rect x="15" y="49" width="6" height="1" fill="#FFFFFF"/>
<rect x="23" y="49" width="6" height="1" fill="#FFFFFF"/>
<rect x="31" y="49" width="2" height="1" fill="#FFFFFF"/>
<rect x="37" y="49" width="2" height="1" fill="#FFFFFF"/>
<rect x="40" y="49" width="3" height="1" fill="#FFFFFF"/>
<rect x="45" y="49" width="2" height="1" fill="#FFFFFF"/>
<rect x="48" y="49" width="3" height="1" fill="#FFFFFF"/>
<rect x="52" y="49" width="3" height="1" fill="#FFFFFF"/>
<rect x="57" y="49" width="5" height="1" fill="#FFFFFF"/>
<rect x="63" y="49" width="2" height="1" fill="#FFFFFF"/>
<rect x="70" y="49" width="2" height="1" fill="#FFFFFF"/>
<rect x="73" y="49" width="2" height="1" fill="#FFFFFF"/>
<rect x="76" y="49" width="2" height="1" fill="#FFFFFF"/>
<rect x="79" y="49" width="2" height="1" fill="#FFFFFF"/>
<rect x="83" y="49" width="3" height="1" fill="#FFFFFF"/>
<rect x="87" y="49" width="2" height="1" fill="#FFFFFF"/>
<rect x="91" y="49" width="2" height="1" fill="#FFFFFF"/>
<rect x="102" y="49" width="4" height="1" fill="#FFFFFF"/>
<rect x="107" y="49" width="5" height="1" fill="#FFFFFF"/>
<rect x="114" y="49" width="2" height="1" fill="#FFFFFF"/>
<rect x="117" y="49" width="3" height="1" fill="#FFFFFF"/>
<rect x="123" y="49" width="2" height="1" fill="#FFFFFF"/>
<rect x="129" y="49" width="7" height="1" fill="#FFFFFF"/>
<rect x="139" y="49" width="2" height="1" fill="#FFFFFF"/>
<rect x="144" y="49" width="3" height="1" fill="#FFFFFF"/>
<rect x="1" y="50" width="2" height="1" fill="#FFFFFF"/>
<rect x="6" y="50" width="7" height="1" fill="#FFFFFF"/>
<rect x="14" y="50" width="7" height="1" fill="#FFFFFF"/>
<rect x="22" y="50" width="7" height="1" fill="#FFFFFF"/>
<rect x="31" y="50" width="2" height="1" fill="#FFFFFF"/>
<rect x="37" y="50" width="2" height="1" fill="#FFFFFF"/>
<rect x="40" y="50" width="3" height="1" fill="#FFFFFF"/>
<rect x="44" y="50" width="7" height="1" fill="#FFFFFF"/>
<rect x="52" y="50" width="3" height="1" fill="#FFFFFF"/>
<rect x="57" y="50" width="5" height="1" fill="#FFFFFF"/>
<rect x="63" y="50" width="2" height="1" fill="#FFFFFF"/>
<rect x="70" y="50" width="2" height="1" fill="#FFFFFF"/>
<rect x="73" y="50" width="2" height="1" fill="#FFFFFF"/>
<rect x="77" y="50" width="4" height="1" fill="#FFFFFF"/>
<rect x="83" y="50" width="7" height="1" fill="#FFFFFF"/>
<rect x="91" y="50" width="2" height="1" fill="#FFFFFF"/>
<rect x="102" y="50" width="2" height="1" fill="#FFFFFF"/>
<rect x="105" y="50" width="7" height="1" fill="#FFFFFF"/>
<rect x="113" y="50" width="7" height="1" fill="#FFFFFF"/>
<rect x="123" y="50" width="2" height="1" fill="#FFFFFF"/>
<rect x="129" y="50" width="2" height="1" fill="#FFFFFF"/>
<rect x="132" y="50" width="3" height="1" fill="#FFFFFF"/>
<rect x="139" y="50" width="2" height="1" fill="#FFFFFF"/>
<rect x="144" y="50" width="4" height="1" fill="#FFFFFF"/>
<rect x="5" y="51" width="7" height="1" fill="#FFFFFF"/>
<rect x="13" y="51" width="7" height="1" fill="#FFFFFF"/>
<rect x="21" y="51" width="7" height="1" fill="#FFFFFF"/>
<rect x="31" y="51" width="2" height="1" fill="#FFFFFF"/>
<rect x="37" y="51" width="2" height="1" fill="#FFFFFF"/>
<rect x="40" y="51" width="3" height="1" fill="#FFFFFF"/>
<rect x="44" y="51" width="8" height="1" fill="#FFFFFF"/>
<rect x="53" y="51" width="2" height="1" fill="#FFFFFF"/>
<rect x="60" y="51" width="2" height="1" fill="#FFFFFF"/>
<rect x="63" y="51" width="2" height="1" fill="#FFFFFF"/>
<rect x="69" y="51" width="3" height="1" fill="#FFFFFF"/>
<rect x="73" y="51" width="2" height="1" fill="#FFFFFF"/>
<rect x="77" y="51" width="4" height="1" fill="#FFFFFF"/>
<rect x="83" y="51" width="7" height="1" fill="#FFFFFF"/>
<rect x="91" y="51" width="2" height="1" fill="#FFFFFF"/>
<rect x="102" y="51" width="2" height="1" fill="#FFFFFF"/>
<rect x="105" y="51" width="7" height="1" fill="#FFFFFF"/>
<rect x="113" y="51" width="7" height="1" fill="#FFFFFF"/>
<rect x="123" y="51" width="2" height="1" fill="#FFFFFF"/>
<rect x="129" y="51" width="2" height="1" fill="#FFFFFF"/>
<rect x="134" y="51" width="2" height="1" fill="#FFFFFF"/>
<rect x="139" y="51" width="2" height="1" fill="#FFFFFF"/>
<rect x="143" y="51" width="2" height="1" fill="#FFFFFF"/>
<rect x="146" y="51" width="3" height="1" fill="#FFFFFF"/>
<rect x="4" y="52" width="7" height="1" fill="#FFFFFF"/>
<rect x="12" y="52" width="7" height="1" fill="#FFFFFF"/>
<rect x="20" y="52" width="7" height="1" fill="#FFFFFF"/>
<rect x="31" y="52" width="7" height="1" fill="#FFFFFF"/>
<rect x="40" y="52" width="3" height="1" fill="#FFFFFF"/>
<rect x="44" y="52" width="2" height="1" fill="#FFFFFF"/>
<rect x="50" y="52" width="2" height="1" fill="#FFFFFF"/>
<rect x="53" y="52" width="4" height="1" fill="#FFFFFF"/>
<rect x="58" y="52" width="4" height="1" fill="#FFFFFF"/>
<rect x="63" y="52" width="4" height="1" fill="#FFFFFF"/>
<rect x="68" y="52" width="3" height="1" fill="#FFFFFF"/>
<rect x="73" y="52" width="2" height="1" fill="#FFFFFF"/>
<rect x="78" y="52" width="3" height="1" fill="#FFFFFF"/>
<rect x="82" y="52" width="2" height="1" fill="#FFFFFF"/>
<rect x="88" y="52" width="10" height="1" fill="#FFFFFF"/>
<rect x="102" y="52" width="2" height="1" fill="#FFFFFF"/>
<rect x="105" y="52" width="3" height="1" fill="#FFFFFF"/>
<rect x="109" y="52" width="6" height="1" fill="#FFFFFF"/>
<rect x="119" y="52" width="2" height="1" fill="#FFFFFF"/>
<rect x="123" y="52" width="2" height="1" fill="#FFFFFF"/>
<rect x="129" y="52" width="2" height="1" fill="#FFFFFF"/>
<rect x="134" y="52" width="3" height="1" fill="#FFFFFF"/>
<rect x="139" y="52" width="2" height="1" fill="#FFFFFF"/>
<rect x="142" y="52" width="3" height="1" fill="#FFFFFF"/>
<rect x="147" y="52" width="3" height="1" fill="#FFFFFF"/>
<rect x="3" y="53" width="7" height="1" fill="#FFFFFF"/>
<rect x="11" y="53" width="7" height="1" fill="#FFFFFF"/>
<rect x="19" y="53" width="7" height="1" fill="#FFFFFF"/>
<rect x="31" y="53" width="7" height="1" fill="#FFFFFF"/>
<rect x="40" y="53" width="2" height="1" fill="#FFFFFF"/>
<rect x="43" y="53" width="3" height="1" fill="#FFFFFF"/>
<rect x="50" y="53" width="2" height="1" fill="#FFFFFF"/>
<rect x="54" y="53" width="7" height="1" fill="#FFFFFF"/>
<rect x="64" y="53" width="6" height="1" fill="#FFFFFF"/>
<rect x="73" y="53" width="2" height="1" fill="#FFFFFF"/>
<rect x="79" y="53" width="2" height="1" fill="#FFFFFF"/>
<rect x="82" y="53" width="2" height="1" fill="#FFFFFF"/>
<rect x="89" y="53" width="9" height="1" fill="#FFFFFF"/>
<rect x="102" y="53" width="2" height="1" fill="#FFFFFF"/>
<rect x="106" y="53" width="2" height="1" fill="#FFFFFF"/>
<rect x="109" y="53" width="5" height="1" fill="#FFFFFF"/>
<rect x="119" y="53" width="2" height="1" fill="#FFFFFF"/>
<rect x="123" y="53" width="2" height="1" fill="#FFFFFF"/>
<rect x="129" y="53" width="2" height="1" fill="#FFFFFF"/>
<rect x="135" y="53" width="3" height="1" fill="#FFFFFF"/>
<rect x="139" y="53" width="2" height="1" fill="#FFFFFF"/>
<rect x="142" y="53" width="2" height="1" fill="#FFFFFF"/>
<rect x="148" y="53" width="2" height="1" fill="#FFFFFF"/>
<rect x="2" y="54" width="7" height="1" fill="#FFFFFF"/>
<rect x="10" y="54" width="7" height="1" fill="#FFFFFF"/>
<rect x="18" y="54" width="7" height="1" fill="#FFFFFF"/>
<rect x="56" y="54" width="3" height="1" fill="#FFFFFF"/>
<rect x="66" y="54" width="3" height="1" fill="#FFFFFF"/>
<rect x="1" y="55" width="7" height="1" fill="#FFFFFF"/>
<rect x="9" y="55" width="7" height="1" fill="#FFFFFF"/>
<rect x="17" y="55" width="7" height="1" fill="#FFFFFF"/>
<rect x="0" y="56" width="7" height="1" fill="#FFFFFF"/>
<rect x="8" y="56" width="7" height="1" fill="#FFFFFF"/>
<rect x="16" y="56" width="7" height="1" fill="#FFFFFF"/>
<rect x="0" y="57" width="6" height="1" fill="#FFFFFF"/>
<rect x="8" y="57" width="6" height="1" fill="#FFFFFF"/>
<rect x="16" y="57" width="6" height="1" fill="#FFFFFF"/>
<rect x="0" y="58" width="5" height="1" fill="#FFFFFF"/>
<rect x="8" y="58" width="5" height="1" fill="#FFFFFF"/>
<rect x="16" y="58" width="5" height="1" fill="#FFFFFF"/>
<rect x="0" y="59" width="4" height="1" fill="#FFFFFF"/>
<rect x="8" y="59" width="4" height="1" fill="#FFFFFF"/>
<rect x="16" y="59" width="4" height="1" fill="#FFFFFF"/>
</svg>