<svg xmlns="http://www.w3.org/2000/svg" width="18" height="18" viewBox="0 0 18 18">
<rect x="0" y="2" width="3" height="1" fill="#1C9A92"/>
<rect x="5" y="2" width="3" height="1" fill="#1C9A92"/>
<rect x="10" y="2" width="3" height="1" fill="#1C9A92"/>
<rect x="0" y="3" width="4" height="1" fill="#1C9A92"/>
<rect x="5" y="3" width="4" height="1" fill="#1C9A92"/>
<rect x="10" y="3" width="4" height="1" fill="#1C9A92"/>
<rect x="0" y="4" width="5" height="1" fill="#1C9A92"/>
<rect x="6" y="4" width="4" height="1" fill="#1C9A92"/>
<rect x="11" y="4" width="4" height="1" fill="#1C9A92"/>
<rect x="0" y="5" width="6" height="1" fill="#1C9A92"/>
<rect x="7" y="5" width="4" height="1" fill="#1C9A92"/>
<rect x="12" y="5" width="4" height="1" fill="#1C9A92"/>
<rect x="0" y="6" width="7" height="1" fill="#1C9A92"/>
<rect x="8" y="6" width="4" height="1" fill="#1C9A92"/>
<rect x="13" y="6" width="4" height="1" fill="#1C9A92"/>
<rect x="0" y="7" width="3" height="1" fill="#1C9A92"/>
<rect x="4" y="7" width="4" height="1" fill="#1C9A92"/>
<rect x="9" y="7" width="4" height="1" fill="#1C9A92"/>
<rect x="14" y="7" width="4" height="1" fill="#1C9A92"/>
<rect x="0" y="8" width="3" height="1" fill="#1C9A92"/>
<rect x="5" y="8" width="3" height="1" fill="#1C9A92"/>
<rect x="10" y="8" width="3" height="1" fill="#1C9A92"/>
<rect x="14" y="8" width="4" height="1" fill="#1C9A92"/>
<rect x="4" y="9" width="4" height="1" fill="#1C9A92"/>
<rect x="9" y="9" width="4" height="1" fill="#1C9A92"/>
<rect x="14" y="9" width="4" height="1" fill="#1C9A92"/>
<rect x="3" y="10" width="4" height="1" fill="#1C9A92"/>
<rect x="8" y="10" width="4" height="1" fill="#1C9A92"/>
<rect x="13" y="10" width="4" height="1" fill="#1C9A92"/>
<rect x="2" y="11" width="4" height="1" fill="#1C9A92"/>
<rect x="7" y="11" width="4" height="1" fill="#1C9A92"/>
<rect x="12" y="11" width="4" height="1" fill="#1C9A92"/>
<rect x="1" y="12" width="4" height="1" fill="#1C9A92"/>
<rect x="6" y="12" width="4" height="1" fill="#1C9A92"/>
<rect x="11" y="12" width="4" height="1" fill="#1C9A92"/>
<rect x="0" y="13" width="4" height="1" fill="#1C9A92"/>
<rect x="5" y="13" width="4" height="1" fill="#1C9A92"/>
<rect x="10" y="13" width="4" height="1" fill="#1C9A92"/>
<rect x="0" y="14" width="3" height="1" fill="#1C9A92"/>
<rect x="5" y="14" width="3" height="1" fill="#1C9A92"/>
<rect x="10" y="14" width="3" height="1" fill="#1C9A92"/>
</svg>