<svg xmlns="http://www.w3.org/2000/svg" xml:space="preserve" viewBox="0 0 128 128"><path d="M36.04 98.76c-10.66 0-19.33 8.67-19.33 19.33v5.9h10.47v-5.9c0-4.89 3.97-8.86 8.86-8.86s8.86 3.97 8.86 8.86v5.9h10.47v-5.9c0-10.65-8.67-19.33-19.33-19.33M36.04 38.84c-10.66 0-19.33 8.67-19.33 19.33v11.65c0 10.66 8.67 19.33 19.33 19.33s19.33-8.67 19.33-19.33V58.18c0-10.66-8.67-19.34-19.33-19.34m8.85 30.98c0 4.89-3.97 8.86-8.86 8.86s-8.86-3.97-8.86-8.86V58.18c0-4.89 3.97-8.86 8.86-8.86s8.86 3.97 8.86 8.86zM36.04 29.24c10.66 0 19.33-8.67 19.33-19.33V4H44.89v5.91c0 4.88-3.97 8.86-8.86 8.86s-8.86-3.97-8.86-8.86V4H16.7v5.91c0 10.65 8.68 19.33 19.34 19.33M91.96 68.8c-10.66 0-19.33 8.67-19.33 19.33v11.65c0 10.66 8.67 19.33 19.33 19.33s19.33-8.67 19.33-19.33V88.14c.01-10.66-8.67-19.34-19.33-19.34m8.86 30.98c0 4.88-3.97 8.86-8.86 8.86s-8.86-3.97-8.86-8.86V88.14c0-4.89 3.97-8.86 8.86-8.86 4.88 0 8.86 3.97 8.86 8.86zM91.96 8.88c-10.66 0-19.33 8.67-19.33 19.33v11.65c0 10.66 8.67 19.33 19.33 19.33s19.33-8.67 19.33-19.33V28.22c.01-10.66-8.67-19.34-19.33-19.34m8.86 30.98c0 4.89-3.97 8.86-8.86 8.86s-8.86-3.97-8.86-8.86V28.22c0-4.88 3.97-8.86 8.86-8.86 4.88 0 8.86 3.97 8.86 8.86z" style="fill:#84b0c1"/><path d="M36.02 89.16c-2.89 0-5.62-.66-8.09-1.8.22-3.78.92-7.54 1.74-11.25.01-.03.02-.07.02-.1a8.81 8.81 0 0 0 6.33 2.67c2.68 0 5.07-1.2 6.7-3.08l.09.45c.28 1.49.59 2.99 1.25 4.34.67 1.36 1.75 2.57 3.18 3.08.75.27 1.6.29 2.37.08-3.49 3.46-8.29 5.61-13.59 5.61M36.02 29.24c-2.89 0-5.62-.66-8.09-1.8.22-3.78.92-7.54 1.74-11.25.01-.03.02-.07.02-.1a8.81 8.81 0 0 0 6.33 2.67c2.68 0 5.07-1.2 6.7-3.08l.09.45c.28 1.49.59 2.99 1.25 4.34.67 1.36 1.75 2.57 3.18 3.08.75.27 1.6.29 2.37.08a19.2 19.2 0 0 1-13.59 5.61M48.15 43.14c-.93.2-1.83.71-2.47 1.42-1.28 1.42-1.74 3.38-1.97 5.27-.14 1.1-.22 2.21-.4 3.31a8.85 8.85 0 0 0-7.28-3.82 8.84 8.84 0 0 0-6.8 3.19c-.41-3.87-.65-7.76-.69-11.65v-.5c2.3-.97 4.83-1.51 7.49-1.51 4.58-.01 8.8 1.61 12.12 4.29M91.98 59.2c-2.89 0-5.62-.66-8.09-1.8.22-3.78.92-7.54 1.74-11.25.01-.03.02-.07.02-.1a8.81 8.81 0 0 0 6.33 2.67c2.68 0 5.07-1.2 6.7-3.08l.09.45c.28 1.49.59 2.99 1.25 4.34.67 1.36 1.75 2.57 3.18 3.08.75.27 1.6.29 2.37.08-3.49 3.46-8.29 5.61-13.59 5.61M104.11 13.18c-.93.2-1.83.71-2.47 1.42-1.28 1.42-1.74 3.38-1.97 5.27-.14 1.1-.22 2.21-.4 3.31a8.85 8.85 0 0 0-7.28-3.82 8.84 8.84 0 0 0-6.8 3.19c-.41-3.87-.65-7.76-.69-11.65v-.5c2.3-.97 4.83-1.51 7.49-1.51 4.58-.01 8.8 1.61 12.12 4.29M91.98 119.11c-2.89 0-5.62-.66-8.09-1.8.22-3.78.92-7.54 1.74-11.25.01-.03.02-.07.02-.1a8.81 8.81 0 0 0 6.33 2.67c2.68 0 5.07-1.2 6.7-3.08l.09.45c.28 1.49.59 2.99 1.25 4.34.67 1.36 1.75 2.57 3.18 3.08.75.27 1.6.29 2.37.08a19.2 19.2 0 0 1-13.59 5.61M104.11 73.1c-.93.2-1.83.71-2.47 1.42-1.28 1.42-1.74 3.38-1.97 5.27-.14 1.1-.22 2.21-.4 3.31a8.85 8.85 0 0 0-7.28-3.82 8.84 8.84 0 0 0-6.8 3.19c-.41-3.87-.65-7.76-.69-11.65v-.5c2.3-.97 4.83-1.51 7.49-1.51 4.58-.01 8.8 1.61 12.12 4.29" style="fill:#2f7889"/><path d="M91.96 41.25c-2.89 0-5.24 2.35-5.24 5.24v35.02c0 2.89 2.35 5.24 5.24 5.24s5.24-2.35 5.24-5.24V46.49c0-2.89-2.35-5.24-5.24-5.24M91.96 26.83c2.89 0 5.24-2.35 5.24-5.24V4H86.73v17.59c0 2.89 2.35 5.24 5.23 5.24M91.96 101.17c-2.89 0-5.24 2.35-5.24 5.24V124H97.2v-17.59c0-2.89-2.35-5.24-5.24-5.24M36.44 71.63c-2.89 0-5.24 2.35-5.24 5.24v35.02c0 2.89 2.35 5.24 5.24 5.24s5.24-2.35 5.24-5.24V76.87c0-2.89-2.35-5.24-5.24-5.24M36.44 11.71c-2.89 0-5.24 2.35-5.24 5.24v35.02c0 2.89 2.35 5.24 5.24 5.24s5.24-2.35 5.24-5.24V16.95c0-2.89-2.35-5.24-5.24-5.24" style="fill:#84b0c1"/><path d="M33.52 17.81c-.54 3.4-.69 6.87-.07 10.25.27 1.49 1.3 2.67 2.27.72 1.73-3.45 3.23-7.97 3.29-11.92.02-1.45-.65-3.01-2.32-2.99-2.02.04-2.87 2.07-3.17 3.94M33.52 77.16c-.54 3.4-.69 6.87-.07 10.25.27 1.49 1.3 2.67 2.27.72 1.73-3.45 3.23-7.97 3.29-11.92.02-1.45-.65-3.01-2.32-2.99-2.02.04-2.87 2.08-3.17 3.94M88.8 47.49c-.54 3.4-.69 6.87-.07 10.25.27 1.49 1.3 2.67 2.27.72 1.73-3.45 3.23-7.97 3.29-11.92.02-1.45-.65-3.01-2.32-2.99-2.02.04-2.87 2.07-3.17 3.94M88.8 106.84c-.54 3.4-.69 6.87-.07 10.25.27 1.49 1.3 2.67 2.27.72 1.73-3.45 3.23-7.97 3.29-11.92.02-1.45-.65-3.01-2.32-2.99-2.02.04-2.87 2.07-3.17 3.94" style="fill:#a8e3f0"/></svg>