<svg id="Layer_1" data-name="Layer 1" xmlns="http://www.w3.org/2000/svg" viewBox="0 0 570.03 241.42"><defs><style>.cls-1{fill:#802dc8;}.cls-2{fill:#ff4f58;}</style></defs><path class="cls-1" d="M10,63.11V51.6a4.08,4.08,0,0,1,3.35-3.37H148.22a4.09,4.09,0,0,1,3.36,3.37V63.11a4.09,4.09,0,0,1-3.36,3.37H91.33V189.36a3.09,3.09,0,0,1-2.87,2.88H73.1a3.11,3.11,0,0,1-2.89-2.88V66.48H13.33A4.08,4.08,0,0,1,10,63.11Z" transform="translate(-9.98 -13.21)"/><path class="cls-1" d="M222.38,143c0,33.84-24.24,51.6-54,51.6s-54-17.76-54-51.6,24.24-51.6,54-51.6C198.38,91.44,222.38,109.19,222.38,143Zm-54-33.37c-20.16,0-32.88,13.93-32.88,33.37,0,19.92,12.72,33.36,32.88,33.36,19.92,0,32.88-13.68,32.88-33.36C201.26,123.6,188.3,109.67,168.38,109.67Z" transform="translate(-9.98 -13.21)"/><path class="cls-1" d="M235.35,112.08a4.09,4.09,0,0,1-3.36-3.37V97.2a4.08,4.08,0,0,1,3.36-3.37h13V71.51c0-1.44,2.64-4.07,4.08-4.07h13c1.44,0,4.08,2.63,4.08,4.07V93.83h32.64a4.08,4.08,0,0,1,3.36,3.37v11.51a4.09,4.09,0,0,1-3.36,3.37H269.43v45.6c0,15.6,6.48,18.72,16.56,18.72,5.52,0,12-3.36,15.6-5.52,2.4-1.44,3.84-.24,4.8,1.67l4.08,7.92a5.87,5.87,0,0,1,1,3.13c0,1.68-1,2.64-3.12,3.83-4.8,2.89-14.16,7.21-24,7.21-21.36,0-36-10.32-36-37v-45.6Z" transform="translate(-9.98 -13.21)"/><path class="cls-1" d="M429,143c0,33.84-24.24,51.6-54,51.6s-54-17.76-54-51.6,24.24-51.6,54-51.6C405,91.44,429,109.19,429,143Zm-54-33.37c-20.16,0-32.88,13.93-32.88,33.37,0,19.92,12.72,33.36,32.88,33.36,19.92,0,32.88-13.68,32.88-33.36C407.91,123.6,395,109.67,375,109.67Z" transform="translate(-9.98 -13.21)"/><path class="cls-1" d="M483.52,91.44c12.72,0,22.8,4.07,29.76,10.31h.48l.48-.72c3.84-5.76,11.28-9.59,21.36-9.59,2.88,0,4.08,1,4.08,2.39v16.08c0,1.2-1.68,2.41-2.64,2.41s-1.68-.24-4.08-.24a14.14,14.14,0,0,0-10.32,4.07,43.17,43.17,0,0,1,2.4,13.69c0,21.36-14.88,38.4-41.52,38.4a47.5,47.5,0,0,1-21.36-4.57c-2.16,2.41-4.8,6.25-4.8,10.81,0,6.48,5.28,9.6,13.68,9.6H497.2c27.12,0,40.32,15.6,40.32,32.64,0,18.24-13.92,37.92-49.44,37.92h-1c-29.76,0-47.52-15.6-47.52-33.12,0-10.09,5-18,10.8-23.76v-1C443,192.48,438.64,185,438.64,175c0-9.36,5.28-17,10.56-21.84-4.8-6.48-7.2-14.4-7.2-23.28C442,108.47,456.88,91.44,483.52,91.44Zm0,58.55c14.88,0,22.8-9.12,22.8-20.15s-7.92-20.17-22.8-20.17-22.8,9.12-22.8,20.17S468.64,150,483.52,150ZM469.6,201.84a20.67,20.67,0,0,0-8.88,16.8c0,10.08,9.84,17.76,25.2,17.76h2.64c19.2,0,27.84-9.12,27.84-19,0-7.2-4.56-15.6-19.2-15.6H469.6Z" transform="translate(-9.98 -13.21)"/><path class="cls-2" d="M567,45.83a13,13,0,1,1-13,13A12.91,12.91,0,0,1,567,45.83Z" transform="translate(-9.98 -13.21)"/><rect class="cls-1" x="546.51" y="80.62" width="21.12" height="98.4" rx="4.08"/><path class="cls-1" d="M359.91,107.07a43.1,43.1,0,0,0-50.77-32.56L300,76.41l-1.56-9.25a43,43,0,0,0-85.25,2.66L212.28,78l-8.67-.14a43,43,0,0,0-39.45,26.32l-16.67-7a61.09,61.09,0,0,1,49-36.91,61.15,61.15,0,0,1,117.72-4.62c1.24-.08,2.49-.12,3.74-.12a60.82,60.82,0,0,1,59.63,47.53Z" transform="translate(-9.98 -13.21)"/><path class="cls-2" d="M269.83,242c-35,0-67.54-8.1-89.32-22.21a9,9,0,0,1,9.83-15.18c18.66,12.08,48.37,19.3,79.49,19.3s59.9-6.89,78.85-18.9a9,9,0,1,1,9.69,15.28C336.6,234.07,304.33,242,269.83,242Z" transform="translate(-9.98 -13.21)"/></svg>