<svg width="32" height="32" viewBox="0 0 32 32" fill="none" xmlns="http://www.w3.org/2000/svg">
<circle cx="16" cy="16" r="15" fill="white"/>
<g transform="translate(3.2, 6.4) scale(0.8)">
  <path fill-rule="evenodd" clip-rule="evenodd" d="M5.70938 9.62621C3.71004 9.62621 2.44845 11.0067 2.44845 12.9347C2.44845 14.9102 3.71004 16.2432 5.70938 16.2432C7.68482 16.2432 8.97021 14.8865 8.97021 12.9347C8.97021 11.0067 7.68482 9.62621 5.70938 9.62621ZM11.0648 12.9347C11.0648 16.2908 8.66069 18.0521 5.70938 18.0521C2.75788 18.0521 0.354004 16.2908 0.354004 12.9347C0.354004 9.57861 2.75788 7.81738 5.70938 7.81738C8.68459 7.81738 11.0648 9.57861 11.0648 12.9347Z" fill="#802DC8"/>
  <path fill-rule="evenodd" clip-rule="evenodd" d="M12.351 9.86461C12.2082 9.86461 12.0176 9.6741 12.0176 9.53129V8.3889C12.0176 8.246 12.2082 8.05558 12.351 8.05558H13.6362V5.84203C13.6362 5.69922 13.898 5.4375 14.0408 5.4375H15.3262C15.4689 5.4375 15.7307 5.69922 15.7307 5.84203V8.05558H18.9678C19.1105 8.05558 19.3009 8.246 19.3009 8.3889V9.53129C19.3009 9.6741 19.1105 9.86461 18.9678 9.86461H15.7307V14.387C15.7307 15.934 16.3734 16.2434 17.3732 16.2434C17.9207 16.2434 18.563 15.9102 18.9202 15.6959C19.1582 15.5532 19.3009 15.6722 19.3961 15.8625L19.8007 16.648C19.8723 16.7909 19.8959 16.8386 19.8959 16.9575C19.8959 17.124 19.8007 17.2192 19.5868 17.3383C19.1105 17.6239 18.1823 18.0524 17.2064 18.0524C15.0881 18.0524 13.6362 17.0289 13.6362 14.387V9.86461H12.351Z" fill="#802DC8"/>
  <path fill-rule="evenodd" clip-rule="evenodd" d="M26.2045 9.62621C24.2049 9.62621 22.9436 11.0067 22.9436 12.9347C22.9436 14.9102 24.2049 16.2432 26.2045 16.2432C28.18 16.2432 29.4651 14.8865 29.4651 12.9347C29.4651 11.0067 28.18 9.62621 26.2045 9.62621ZM31.56 12.9347C31.56 16.2908 29.1559 18.0521 26.2045 18.0521C23.2531 18.0521 20.8491 16.2908 20.8491 12.9347C20.8491 9.57861 23.2531 7.81738 26.2045 7.81738C29.1796 7.81738 31.56 9.57861 31.56 12.9347Z" fill="#802DC8"/>
  <path fill-rule="evenodd" clip-rule="evenodd" d="M24.7044 9.36643C24.259 7.41301 22.5463 6.04858 20.5391 6.04858C20.2471 6.04858 19.9545 6.07863 19.6699 6.13744L18.7586 6.32607L18.6036 5.40861C18.2555 3.34798 16.4863 1.85254 14.397 1.85254C12.204 1.85254 10.3778 3.49476 10.1492 5.67241L10.0636 6.48782L9.20439 6.47433C7.49265 6.48375 5.95844 7.50583 5.2911 9.08369L3.63867 8.38501C4.49414 6.36266 6.35246 4.98345 8.49351 4.72441C9.12813 2.01697 11.5439 0.0585938 14.397 0.0585938C17.0713 0.0585938 19.3761 1.78352 20.1679 4.26603C20.2916 4.25849 20.4154 4.25463 20.5391 4.25463C23.389 4.25463 25.8209 6.19268 26.4533 8.96785L24.7044 9.36643Z" fill="#802DC8"/>
  <path fill-rule="evenodd" clip-rule="evenodd" d="M15.7707 22.7452C12.3017 22.7452 9.07304 21.9423 6.91274 20.5426C6.49691 20.2732 6.37839 19.7178 6.64775 19.302C6.9173 18.8862 7.47297 18.7674 7.88831 19.037C9.738 20.2357 12.6848 20.9512 15.7707 20.9512C18.8614 20.9512 21.712 20.268 23.5913 19.0767C24.0103 18.8112 24.564 18.9356 24.8292 19.3541C25.0944 19.7726 24.9703 20.3268 24.552 20.592C22.3929 21.9604 19.1924 22.7452 15.7707 22.7452Z" fill="#FF4F58"/>
</g>
</svg>
