<?xml version="1.0" encoding="UTF-8"?>
<svg width="1080" height="1080" version="1.0" viewBox="0 0 810 810" xmlns="http://www.w3.org/2000/svg" zoomAndPan="magnify">
<defs>
<clipPath id="e">
<path d="m0 0h601v602h-601z"/>
</clipPath>
<clipPath id="a">
<path d="m402.21-0.085938c-205.55 0-192.71 89.121-192.71 89.121l0.22656 92.34h196.13v27.719h-274.04s-131.52-14.914-131.52 192.45c0 207.38 114.8 200.03 114.8 200.03h68.508v-96.242s-3.6914-114.79 112.96-114.79h194.54s109.28 1.7734 109.28-105.62v-177.56s16.609-107.46-198.18-107.46zm-108.16 62.09c19.512 0 35.277 15.77 35.277 35.281 0 19.516-15.766 35.285-35.277 35.285-19.516 0-35.289-15.77-35.289-35.285 0-19.512 15.773-35.281 35.289-35.281z"/>
</clipPath>
<linearGradient id="f" x1=".0041684" x2="1.0278" y1="-.0040573" y2="1.0116" gradientTransform="matrix(600.39 0 0 601.69 .29686 -.08793)" gradientUnits="userSpaceOnUse">
<stop stop-color="#387db8" offset="0"/>
<stop stop-color="#387db8" offset=".125"/>
<stop stop-color="#387db7" offset=".14062"/>
<stop stop-color="#387db6" offset=".15625"/>
<stop stop-color="#377cb5" offset=".17188"/>
<stop stop-color="#377cb4" offset=".1875"/>
<stop stop-color="#377bb4" offset=".20312"/>
<stop stop-color="#377bb3" offset=".21875"/>
<stop stop-color="#377ab2" offset=".23438"/>
<stop stop-color="#377ab1" offset=".25"/>
<stop stop-color="#3779b0" offset=".26562"/>
<stop stop-color="#3779af" offset=".28125"/>
<stop stop-color="#3778ae" offset=".29688"/>
<stop stop-color="#3778ad" offset=".3125"/>
<stop stop-color="#3777ad" offset=".32812"/>
<stop stop-color="#3777ac" offset=".34375"/>
<stop stop-color="#3776ab" offset=".35938"/>
<stop stop-color="#3776aa" offset=".375"/>
<stop stop-color="#3775a9" offset=".39062"/>
<stop stop-color="#3775a8" offset=".40625"/>
<stop stop-color="#3774a7" offset=".42188"/>
<stop stop-color="#3774a7" offset=".4375"/>
<stop stop-color="#3773a6" offset=".45312"/>
<stop stop-color="#3773a5" offset=".46875"/>
<stop stop-color="#3672a4" offset=".48438"/>
<stop stop-color="#3672a3" offset=".49434"/>
<stop stop-color="#3671a3" offset=".5"/>
<stop stop-color="#3671a2" offset=".50566"/>
<stop stop-color="#3671a2" offset=".51562"/>
<stop stop-color="#3671a1" offset=".53125"/>
<stop stop-color="#3670a0" offset=".54688"/>
<stop stop-color="#3670a0" offset=".5625"/>
<stop stop-color="#366f9f" offset=".57812"/>
<stop stop-color="#366f9e" offset=".59375"/>
<stop stop-color="#366e9d" offset=".60938"/>
<stop stop-color="#366e9c" offset=".625"/>
<stop stop-color="#366d9b" offset=".64062"/>
<stop stop-color="#366d9a" offset=".65625"/>
<stop stop-color="#366c9a" offset=".67188"/>
<stop stop-color="#366c99" offset=".6875"/>
<stop stop-color="#366b98" offset=".70312"/>
<stop stop-color="#366b97" offset=".71875"/>
<stop stop-color="#366a96" offset=".73438"/>
<stop stop-color="#366a95" offset=".75"/>
<stop stop-color="#366994" offset=".76562"/>
<stop stop-color="#366994" offset=".78125"/>
<stop stop-color="#366993" offset=".8125"/>
<stop stop-color="#366993" offset=".875"/>
<stop stop-color="#366993" offset="1"/>
</linearGradient>
<clipPath id="c">
<path d="m209 203h601v602.5h-601z"/>
</clipPath>
<clipPath id="b">
<path d="m408.04 805.28c205.53 0 192.69-89.141 192.69-89.141l-0.22266-92.344h-196.14v-27.703h274.04s131.54 14.898 131.54-192.45c0-207.38-114.8-200.02-114.8-200.02h-68.508v96.227s3.6758 114.8-112.96 114.8h-194.56s-109.29-1.7734-109.29 105.62v177.55s-16.594 107.46 198.21 107.46zm108.14-62.102c-19.5 0-35.285-15.785-35.285-35.281 0-19.527 15.785-35.281 35.285-35.281 19.527 0 35.285 15.754 35.285 35.281 0 19.496-15.758 35.281-35.285 35.281z"/>
</clipPath>
<linearGradient id="d" x1="-.032645" x2="1.014" y1="-.0063659" y2=".98525" gradientTransform="matrix(600.4 0 0 601.7 209.54 203.58)" gradientUnits="userSpaceOnUse">
<stop stop-color="#ffdf52" offset="0"/>
<stop stop-color="#ffdf52" offset=".125"/>
<stop stop-color="#ffdf52" offset=".1875"/>
<stop stop-color="#ffdf51" offset=".21875"/>
<stop stop-color="#ffdf51" offset=".23438"/>
<stop stop-color="#ffde50" offset=".25"/>
<stop stop-color="#ffde4f" offset=".26562"/>
<stop stop-color="#ffdd4f" offset=".28125"/>
<stop stop-color="#ffdc4e" offset=".29688"/>
<stop stop-color="#ffdc4d" offset=".3125"/>
<stop stop-color="#ffdb4c" offset=".32812"/>
<stop stop-color="#ffda4c" offset=".34375"/>
<stop stop-color="#ffda4b" offset=".35938"/>
<stop stop-color="#ffd94a" offset=".375"/>
<stop stop-color="#ffd849" offset=".39062"/>
<stop stop-color="#ffd849" offset=".40625"/>
<stop stop-color="#ffd748" offset=".42188"/>
<stop stop-color="#ffd647" offset=".4375"/>
<stop stop-color="#ffd646" offset=".45312"/>
<stop stop-color="#ffd546" offset=".46875"/>
<stop stop-color="#ffd445" offset=".48284"/>
<stop stop-color="#ffd445" offset=".48438"/>
<stop stop-color="#ffd444" offset=".5"/>
<stop stop-color="#ffd343" offset=".51562"/>
<stop stop-color="#ffd243" offset=".51716"/>
<stop stop-color="#ffd242" offset=".53125"/>
<stop stop-color="#ffd242" offset=".54688"/>
<stop stop-color="#ffd141" offset=".5625"/>
<stop stop-color="#ffd040" offset=".57812"/>
<stop stop-color="#ffd040" offset=".59375"/>
<stop stop-color="#ffcf3f" offset=".60938"/>
<stop stop-color="#ffce3e" offset=".625"/>
<stop stop-color="#ffce3d" offset=".64062"/>
<stop stop-color="#ffcd3d" offset=".65625"/>
<stop stop-color="#ffcc3c" offset=".67188"/>
<stop stop-color="#ffcc3b" offset=".6875"/>
<stop stop-color="#ffcb3a" offset=".70312"/>
<stop stop-color="#ffca3a" offset=".71875"/>
<stop stop-color="#ffca39" offset=".73438"/>
<stop stop-color="#ffc938" offset=".75"/>
<stop stop-color="#ffc837" offset=".76562"/>
<stop stop-color="#ffc836" offset=".78125"/>
<stop stop-color="#ffc736" offset=".79688"/>
<stop stop-color="#ffc735" offset=".8125"/>
<stop stop-color="#ffc634" offset=".82812"/>
<stop stop-color="#ffc533" offset=".84375"/>
<stop stop-color="#ffc533" offset=".85938"/>
<stop stop-color="#ffc432" offset=".875"/>
<stop stop-color="#ffc331" offset=".89062"/>
<stop stop-color="#ffc331" offset=".90625"/>
<stop stop-color="#ffc330" offset=".9375"/>
<stop stop-color="#ffc330" offset="1"/>
</linearGradient>
</defs>
<g clip-path="url(#e)">
<g clip-path="url(#a)">
<path d="m0.29688 0v608.93h616.7v-608.93z" fill="url(#f)"/>
</g>
</g>
<g clip-path="url(#c)">
<g clip-path="url(#b)">
<path d="m193.24 196.26v609.02h616.7v-609.02z" fill="url(#d)"/>
</g>
</g>
</svg>
