<svg width="1520" height="470" viewBox="0 0 1520 470" fill="none" xmlns="http://www.w3.org/2000/svg">
<g clip-path="url(#clip0_666_1580)">
<path d="M1327.43 229.28C1327.02 229.28 1326.66 229.56 1326.55 229.95C1319.12 256.1 1313.3 276.33 1309.11 290.65C1308.38 293.13 1306.11 294.82 1303.53 294.82H1274.7C1272.14 294.82 1269.88 293.15 1269.14 290.7L1236.81 184.82C1235.67 181.08 1238.47 177.3 1242.38 177.3H1264.83C1267.44 177.3 1269.73 179.04 1270.44 181.56L1289.31 249.31C1289.42 249.7 1289.78 249.98 1290.19 249.98C1290.6 249.98 1290.96 249.71 1291.07 249.31C1294.97 235.54 1297.97 225.18 1300.08 218.24L1310.6 181.52C1311.32 179.02 1313.6 177.3 1316.19 177.3H1340.98C1343.59 177.3 1345.87 179.03 1346.58 181.54L1365.67 249.31C1365.78 249.7 1366.14 249.98 1366.55 249.98C1366.96 249.98 1367.32 249.71 1367.43 249.31C1375.76 220.15 1382.13 197.57 1386.53 181.58C1387.23 179.05 1389.52 177.3 1392.14 177.3H1412.5C1416.41 177.3 1419.21 181.08 1418.07 184.82L1385.75 290.7C1385 293.15 1382.74 294.82 1380.18 294.82H1351.81C1349.23 294.82 1346.96 293.12 1346.23 290.65L1328.34 229.94C1328.23 229.55 1327.87 229.28 1327.46 229.28H1327.43Z" fill="black"/>
<path d="M1234.55 239.4C1234.55 251.21 1232.02 261.48 1226.96 270.22C1222.05 278.96 1215.23 285.63 1206.49 290.23C1197.75 294.83 1187.94 297.13 1177.05 297.13H1173.37C1162.48 297.13 1152.67 294.83 1143.93 290.23C1135.19 285.63 1128.29 278.96 1123.23 270.22C1118.32 261.48 1115.87 251.21 1115.87 239.4V232.73C1115.87 220.92 1118.32 210.65 1123.23 201.91C1128.29 193.17 1135.19 186.5 1143.93 181.9C1152.67 177.3 1162.48 175 1173.37 175H1177.05C1187.93 175 1197.75 177.3 1206.49 181.9C1215.23 186.5 1222.05 193.17 1226.96 201.91C1232.02 210.65 1234.55 220.92 1234.55 232.73V239.4ZM1200.51 226.75C1200.51 217.4 1198.13 210.27 1193.38 205.36C1188.78 200.45 1182.73 198 1175.21 198C1167.69 198 1161.56 200.45 1156.81 205.36C1152.21 210.27 1149.91 217.4 1149.91 226.75V245.38C1149.91 254.73 1152.21 261.86 1156.81 266.77C1161.56 271.68 1167.7 274.13 1175.21 274.13C1182.72 274.13 1188.78 271.68 1193.38 266.77C1198.13 261.86 1200.51 254.73 1200.51 245.38V226.75Z" fill="black"/>
<path d="M1050.84 130.89C1048.38 130.09 1045.49 129.38 1042.16 128.78C1037.1 127.86 1032.65 127.4 1028.82 127.4C1005.21 127.4 993.4 138.9 993.4 161.9V177.31H985.61C982.4 177.31 979.79 179.91 979.79 183.13V194.02C979.79 197.23 982.39 199.84 985.61 199.84H993.4V289.01C993.4 292.22 996.01 294.83 999.22 294.83H1021.16C1024.37 294.83 1026.98 292.22 1026.98 289.01V206.12C1026.98 202.91 1029.58 200.3 1032.8 200.3H1048.53C1051.74 200.3 1054.35 197.7 1054.35 194.48V183.12C1054.35 179.91 1051.74 177.3 1048.53 177.3H1032.8C1029.59 177.3 1026.98 174.69 1026.98 171.48V163.96C1026.98 158.44 1028.21 154.76 1030.66 152.92C1033.27 151.08 1036.41 150.16 1040.09 150.16C1041.78 150.16 1044.08 150.47 1046.99 151.08C1050.69 151.66 1054.35 148.9 1054.35 145.15V135.98C1054.35 133.69 1053.01 131.59 1050.84 130.88V130.89Z" fill="black"/>
<path d="M1096.07 129.24H1074.13C1070.92 129.24 1068.31 131.846 1068.31 135.06V289.01C1068.31 292.224 1070.92 294.83 1074.13 294.83H1096.07C1099.28 294.83 1101.89 292.224 1101.89 289.01V135.06C1101.89 131.846 1099.28 129.24 1096.07 129.24Z" fill="black"/>
<path d="M755.92 181.92C756.97 186.82 763.54 188.36 767.39 185.15C775.49 178.39 785.06 175.01 796.11 175.01C808.07 175.01 817.88 178.23 825.55 184.67C833.37 191.11 837.28 200.46 837.28 212.73V289.01C837.28 292.22 834.68 294.83 831.46 294.83H809.52C806.31 294.83 803.7 292.22 803.7 289.01V220.08C803.7 214.1 801.94 209.19 798.41 205.36C795.04 201.37 790.67 199.38 785.3 199.38C779.32 199.38 774.19 201.68 769.89 206.28C765.6 210.73 763.45 216.17 763.45 222.61V289.01C763.45 292.22 760.84 294.83 757.63 294.83H735.69C732.48 294.83 729.87 292.22 729.87 289.01V183.13C729.87 179.92 732.48 177.31 735.69 177.31H750.23C752.97 177.31 755.35 179.24 755.92 181.92Z" fill="black"/>
<path fill-rule="evenodd" clip-rule="evenodd" d="M676.88 202.83C680.25 206.05 681.94 210.27 681.94 215.48V217.77L681.92 218.01C681.81 219.29 681.7 220.53 681.7 221.58C681.7 222.53 680.93 223.3 679.98 223.31C663.39 223.38 649.79 224.38 639.17 226.3C628.13 228.29 619.47 232.2 613.18 238.03C607.05 243.7 603.98 251.98 603.98 262.87C603.98 276.21 607.74 285.25 615.25 290.01C622.76 294.76 632.35 297.14 644 297.14C655.65 297.14 665 293.81 673.64 287.14C676.7 284.78 681.7 286.77 681.7 290.64C681.7 292.96 683.58 294.84 685.91 294.84H709.46C712.67 294.84 715.28 292.23 715.28 289.02V212.74C715.28 200.47 711.37 191.12 703.55 184.68C697.44 179.55 690.79 177.53 682.01 176.57C676.71 175.54 670.78 175.02 664.23 175.02H659.4C649.28 175.02 640.31 176.48 632.49 179.39C624.67 182.3 618.54 186.37 614.09 191.58C609.8 196.79 607.65 202.7 607.65 209.29C607.65 211.7 609.87 213.43 612.28 213.43H638.7C639.72 213.43 640.54 212.61 640.54 211.59C640.54 209.75 641.31 207.76 642.84 205.61C644.53 203.46 646.9 201.7 649.97 200.32C653.04 198.79 656.72 198.02 661.01 198.02C668.37 198.02 673.66 199.63 676.88 202.85V202.83ZM675.87 242.25C679.08 242.15 681.7 244.77 681.7 247.98V251.43C681.7 251.71 681.68 251.98 681.64 252.25C681.09 255.64 679.82 258.79 677.8 261.7C675.19 265.69 671.9 268.75 667.91 270.9C663.92 273.05 659.94 274.12 655.95 274.12C650.12 274.12 645.75 273.12 642.84 271.13C640.08 268.98 638.7 265.38 638.7 260.32C638.7 253.88 642.23 249.28 649.28 246.52C655.45 244.03 664.31 242.6 675.87 242.24V242.25Z" fill="black"/>
<path d="M510.44 294.82C507.23 294.82 504.62 292.21 504.62 289V142.87C504.62 139.66 507.23 137.05 510.44 137.05H534.45C537.66 137.05 540.27 139.66 540.27 142.87V259.56C540.27 262.77 542.88 265.38 546.09 265.38H586.44C589.15 265.38 591.51 267.26 592.11 269.9L596.17 287.7C597 291.34 594.23 294.81 590.5 294.81H510.44V294.82Z" fill="black"/>
<path d="M963.6 277.34C957.93 271.21 949.72 268.14 938.99 268.14H898.05C893.14 268.14 889.46 267.3 887.01 265.61C884.71 263.92 883.56 261.55 883.56 258.48C883.56 256.03 884.79 253.8 887.24 251.81C889.85 249.82 893.45 248.82 898.05 248.82H913.92C922.97 248.82 930.94 247.21 937.84 243.99C944.89 240.62 950.33 236.17 954.17 230.65C958 224.98 959.92 218.77 959.92 212.02C959.92 207.87 959.16 203.97 957.66 200.33H964.52C967.73 200.33 970.34 197.72 970.34 194.51V183.62C970.34 180.41 967.74 177.8 964.52 177.8H929.05C928.99 177.78 928.93 177.76 928.87 177.75C923.2 175.91 916.76 174.99 909.55 174.99H905.87C889.46 174.99 876.97 178.44 868.38 185.34C859.95 192.24 855.73 201.13 855.73 212.02C855.73 217.69 857.19 223.06 860.1 228.12C860.9 229.47 861.8 230.76 862.78 231.99C865.89 235.88 864.99 243.1 861.21 246.33C860.08 247.3 859.02 248.36 858.03 249.51C854.35 253.65 852.51 258.56 852.51 264.23C852.51 268.22 853.43 271.9 855.27 275.27C855.47 275.63 855.68 275.99 855.89 276.34C858.31 280.24 857.89 286.5 854.57 289.67C853.16 291.01 851.86 292.5 850.66 294.13C847.44 298.58 845.83 303.56 845.83 309.08C845.83 318.13 848.97 325.18 855.26 330.24C861.7 335.45 869.59 338.06 878.95 338.06H927.48C935.76 338.06 943.27 336.45 950.02 333.23C956.92 330.16 962.36 325.79 966.35 320.12C970.34 314.45 972.33 308.08 972.33 301.03C972.33 291.22 969.42 283.32 963.59 277.34H963.6ZM893.68 199.61C897.51 196.54 902.34 195.01 908.17 195.01C914 195.01 919.06 196.54 922.89 199.61C926.72 202.52 928.64 206.66 928.64 212.03C928.64 217.4 926.72 221.61 922.89 224.68C919.06 227.59 914.15 229.05 908.17 229.05C902.19 229.05 897.51 227.59 893.68 224.68C889.85 221.61 887.93 217.4 887.93 212.03C887.93 206.66 889.85 202.52 893.68 199.61ZM936.92 313.68C934.01 316.13 930.56 317.36 926.57 317.36H887.93C884.56 317.36 881.64 316.21 879.19 313.91C876.74 311.61 875.51 308.93 875.51 305.86C875.51 302.79 876.74 300.11 879.19 297.81C881.64 295.66 884.56 294.59 887.93 294.59H927.95C931.94 294.59 935.16 295.59 937.61 297.58C940.06 299.73 941.29 302.33 941.29 305.4C941.29 308.62 939.83 311.38 936.92 313.68Z" fill="black"/>
<path d="M342.05 242.17H382.58C390.53 242.17 396.97 248.61 396.97 256.56V280.47C396.97 288.42 390.53 294.86 382.58 294.86H347.23C343.41 294.86 339.75 296.38 337.05 299.08L276.39 359.73C273.69 362.43 270.03 363.95 266.21 363.95H237.05C229.25 363.95 222.86 357.73 222.66 349.93L222.03 325.52C221.82 317.43 228.32 310.75 236.42 310.75H261.52C265.34 310.75 269 309.23 271.7 306.53L331.85 246.38C334.55 243.68 338.21 242.16 342.03 242.16L342.05 242.17Z" fill="black"/>
<path d="M221.71 106.05H262.24C270.19 106.05 276.63 112.49 276.63 120.44V144.35C276.63 152.3 270.19 158.74 262.24 158.74H226.89C223.07 158.74 219.41 160.26 216.71 162.96L156.05 223.62C153.35 226.32 149.69 227.84 145.87 227.84H116.71C108.91 227.84 102.52 221.62 102.32 213.82L101.69 189.41C101.48 181.32 107.98 174.65 116.08 174.65H141.18C145 174.65 148.66 173.13 151.36 170.43L211.51 110.28C214.21 107.58 217.87 106.06 221.69 106.06L221.71 106.05Z" fill="black"/>
<path d="M342.05 136.85H382.58C390.53 136.85 396.97 143.29 396.97 151.24V175.15C396.97 183.1 390.53 189.54 382.58 189.54H347.23C343.41 189.54 339.75 191.06 337.05 193.76L276.39 254.42C273.69 257.12 270.03 258.64 266.21 258.64H230.78C227.07 258.64 223.5 260.07 220.82 262.64L152.72 327.9C150.04 330.47 146.47 331.9 142.76 331.9H117.94C109.99 331.9 103.55 325.45 103.55 317.51V292.94C103.55 284.99 109.99 278.55 117.94 278.55H142.58C146.4 278.55 150.06 277.03 152.76 274.33L217.43 209.66C220.13 206.96 223.79 205.44 227.61 205.44H261.52C265.34 205.44 269 203.92 271.7 201.22L331.85 141.07C334.55 138.37 338.21 136.85 342.03 136.85H342.05Z" fill="black"/>
</g>
<defs>
<clipPath id="clip0_666_1580">
<rect width="1520" height="470" fill="white"/>
</clipPath>
</defs>
</svg>
