<svg version="1.1" id="Layer_1" xmlns="http://www.w3.org/2000/svg" xmlns:xlink="http://www.w3.org/1999/xlink" x="0px" y="0px"
	 width="100%" viewBox="0 0 802 263" enable-background="new 0 0 802 263" xml:space="preserve">
<path fill="#F5FAFD" opacity="1.000000" stroke="none" 
	d="
M570.000000,264.000000 
	C380.044464,264.000000 190.588943,264.000000 1.066703,264.000000 
	C1.066703,176.398422 1.066703,88.796768 1.066703,1.097561 
	C268.333313,1.097561 535.666626,1.097561 802.972534,1.097561 
	C802.972534,88.744377 802.972534,176.372192 802.972534,264.000000 
	C725.463440,264.000000 647.981689,264.000000 570.000000,264.000000 
M88.117432,190.511002 
	C88.117432,190.511002 88.480354,190.840195 88.480354,190.840195 
	C88.480354,190.840195 88.970367,190.835938 89.535240,191.235748 
	C93.589371,194.552063 97.643501,197.868362 102.113037,201.747040 
	C110.731552,207.116531 119.895142,211.101074 130.794907,212.992615 
	C155.482620,217.072525 177.630692,211.155167 196.859161,195.324631 
	C207.330566,186.703690 215.775360,176.274475 220.672119,162.600052 
	C226.498047,149.535812 225.134003,135.726486 224.973618,121.198837 
	C222.408295,113.290237 219.842987,105.381638 217.291901,97.192406 
	C217.291901,97.192406 217.063492,97.025253 217.052887,96.408386 
	C216.720322,95.916977 216.387756,95.425568 216.001831,94.992111 
	C216.001831,94.992111 216.074615,94.962044 216.004456,94.413734 
	C215.732819,94.194939 215.461182,93.976143 215.188660,93.889641 
	C215.188660,93.889641 215.309525,93.835808 215.275467,93.164024 
	C214.545609,92.082817 213.815750,91.001602 212.998764,89.990128 
	C212.998764,89.990128 213.096451,89.937027 213.000610,89.392693 
	C212.709930,89.196922 212.419235,89.001160 212.123199,88.915688 
	C212.123199,88.915688 212.228012,88.880966 212.168289,88.289772 
	C211.784302,87.864792 211.400299,87.439819 211.012726,86.991539 
	C211.012726,86.991539 210.992813,86.978935 210.906281,86.425499 
	C210.634491,86.184494 210.362701,85.943497 210.035370,85.280579 
	C210.035370,85.280579 209.713226,85.002518 209.582047,84.362244 
	C201.924622,75.104195 193.554306,66.698479 182.291428,61.632904 
	C182.291428,61.632904 182.286438,61.738842 182.106033,61.205078 
	C181.761597,61.075218 181.417145,60.945358 180.648560,60.309216 
	C179.183578,59.841999 177.718582,59.374783 175.754272,58.365078 
	C172.887512,57.483253 170.020767,56.601425 167.158585,55.663799 
	C167.158585,55.663799 167.169739,55.608929 166.632065,55.120899 
	C162.551544,54.662823 158.475662,53.872219 154.389557,53.815495 
	C145.730698,53.695293 136.785217,52.595833 128.456757,54.316147 
	C102.444130,59.689274 83.504623,74.806435 71.424339,99.249329 
	C71.259361,99.837143 71.094383,100.424950 70.742714,101.239967 
	C70.742714,101.239967 70.779381,101.531731 70.290520,102.021179 
	C70.171310,102.688820 70.052101,103.356461 69.752869,104.255768 
	C69.752869,104.255768 69.796234,104.545937 69.243790,105.058609 
	C63.113876,121.121292 61.902786,137.408676 67.005600,154.749664 
	C68.945282,159.523102 70.884964,164.296555 72.865402,169.674515 
	C73.218803,170.134064 73.572205,170.593597 73.997398,170.998779 
	C73.997398,170.998779 73.922157,171.051804 73.930916,171.647186 
	C74.280144,172.104477 74.629379,172.561768 74.996597,173.004883 
	C74.996597,173.004883 74.978264,173.021378 75.096603,173.707443 
	C78.719666,178.470108 82.342728,183.232758 85.984558,188.022507 
	C85.984558,188.022507 86.011063,188.038391 86.127373,188.520157 
	C86.316811,188.830673 86.593399,188.988220 86.968788,189.030106 
	C86.968788,189.030106 87.005898,189.042419 87.124680,189.528290 
	C87.404373,189.687119 87.684067,189.845947 87.983521,190.016769 
	C87.983521,190.016769 87.995506,190.036545 88.117432,190.511002 
M657.673401,125.295174 
	C657.763794,124.865639 657.854187,124.436096 658.104980,123.117142 
	C658.073059,120.410652 658.041199,117.704155 658.229431,114.323036 
	C658.229431,112.727211 658.229431,111.131378 658.229431,109.407127 
	C649.869690,108.966774 643.208008,110.824890 638.183533,117.613960 
	C637.943665,115.201065 637.703796,112.788170 637.479309,110.529648 
	C632.138184,110.529648 627.225586,110.529648 622.490967,110.529648 
	C622.490967,129.768036 622.490967,148.650436 622.490967,167.686188 
	C627.857422,167.686188 632.819763,167.686188 638.270874,167.686188 
	C638.270874,165.765579 638.271118,163.958862 638.270813,162.152145 
	C638.269531,154.325974 638.092773,146.494644 638.322998,138.675293 
	C638.502197,132.587799 640.520691,127.419258 647.954712,125.508453 
	C648.972656,125.310745 649.990540,125.113029 651.500244,125.054337 
	C651.662231,125.001884 651.824280,124.949425 652.649109,125.076195 
	C653.099670,125.020271 653.550293,124.964348 654.729614,125.105484 
	C655.482544,125.127220 656.235474,125.148964 657.673401,125.295174 
M708.877625,167.806915 
	C712.331177,167.806915 715.784668,167.806915 719.549194,167.806915 
	C719.629089,166.071686 719.752625,164.778351 719.738098,163.486542 
	C719.605713,151.668854 720.096436,139.799103 719.146362,128.046326 
	C717.759216,110.887444 699.851257,103.075493 685.421143,112.850632 
	C683.652832,114.048531 682.097595,115.561104 680.140930,117.178024 
	C679.943298,114.497116 679.799683,112.548836 679.646851,110.474937 
	C674.323303,110.474937 669.266724,110.474937 664.230469,110.474937 
	C664.230469,129.704941 664.230469,148.605728 664.230469,167.553436 
	C669.622437,167.553436 674.699524,167.553436 680.078308,167.553436 
	C680.078308,165.642410 680.062805,164.007568 680.080872,162.373077 
	C680.182068,153.217545 679.905884,144.036285 680.517273,134.914658 
	C681.024475,127.347954 685.475586,123.352509 692.170593,123.015106 
	C699.264099,122.657616 701.544617,124.646439 703.633667,134.003174 
	C703.633667,145.111618 703.633667,156.220062 703.633667,167.581909 
	C705.442505,167.581909 706.711060,167.581909 708.877625,167.806915 
M321.026917,115.500000 
	C321.026917,105.428261 321.026917,95.356514 321.026917,85.299591 
	C315.193939,85.299591 310.099884,85.299591 304.665588,85.299591 
	C304.665588,90.677719 304.665588,95.817047 304.665588,100.956375 
	C304.665588,106.164680 304.665588,111.372986 304.665588,116.968193 
	C303.781036,116.416245 303.327881,116.224648 302.989990,115.909492 
	C289.831787,103.636452 268.537872,109.192139 263.068451,126.401436 
	C260.232666,135.324081 260.428223,144.296509 263.931091,152.975113 
	C267.677673,162.257538 274.593506,167.492203 284.778870,168.287689 
	C292.218536,168.868759 298.874023,167.137329 304.892609,161.605118 
	C305.026367,164.042694 305.114380,165.646301 305.218506,167.543518 
	C310.434235,167.543518 315.504974,167.543518 321.024689,167.543518 
	C321.024689,150.383545 321.024689,133.441772 321.026917,115.500000 
M451.005768,136.500000 
	C451.005768,154.256210 451.005768,172.012405 451.005768,189.752899 
	C456.759766,189.752899 461.839569,189.752899 467.208130,189.752899 
	C467.208130,184.984909 467.208160,180.513168 467.208160,176.041428 
	C467.208160,171.515152 467.208130,166.988876 467.208130,161.910812 
	C468.751617,162.964706 469.579254,163.507385 470.383728,164.082489 
	C482.341949,172.631668 499.258759,169.090622 506.276093,156.217529 
	C511.870087,145.955414 511.827545,135.047302 507.750305,124.338753 
	C504.470245,115.723839 497.710907,110.932503 488.589752,109.530121 
	C480.243439,108.246857 473.000336,110.452896 466.932770,117.004784 
	C466.755310,114.436943 466.621674,112.503006 466.475311,110.385422 
	C461.250397,110.385422 456.339355,110.385422 451.005493,110.385422 
	C451.005493,118.921562 451.005493,127.210777 451.005768,136.500000 
M436.311432,164.962311 
	C438.338501,163.599228 440.365601,162.236145 442.790833,160.605331 
	C439.917084,157.126770 437.427338,154.112961 435.029968,151.211014 
	C420.521027,158.818390 408.196167,155.831604 405.191437,143.938202 
	C418.496704,143.938202 431.674377,143.938202 445.343475,143.938202 
	C444.945038,139.586578 444.827087,135.769165 444.211792,132.033630 
	C442.020386,118.729408 434.693115,111.566917 421.350800,109.409149 
	C407.089264,107.102737 393.405518,116.238144 389.644989,130.576416 
	C385.531769,146.259308 392.424438,161.334122 406.376221,166.176453 
	C416.114288,169.556305 425.974030,169.201019 436.311432,164.962311 
M575.506714,147.445267 
	C575.308655,146.427689 575.110596,145.410126 574.808960,143.860352 
	C588.425537,143.860352 601.486877,143.860352 614.727844,143.860352 
	C614.727844,141.270142 614.886353,139.111816 614.701599,136.983307 
	C613.655334,124.929535 609.391602,114.910767 596.910278,110.670418 
	C580.433289,105.072601 563.664612,114.115501 559.442932,130.686340 
	C554.742676,149.136093 564.597168,165.088593 582.729309,167.758774 
	C587.431152,168.451187 592.404602,168.230560 597.133301,167.569946 
	C602.873535,166.768036 608.199280,164.522018 612.349121,159.854630 
	C609.782166,156.814560 607.438660,154.039139 605.132446,151.307846 
	C590.545471,157.619263 582.049194,156.672501 575.506714,147.445267 
M333.189301,156.182724 
	C344.189819,170.739899 368.926117,172.900223 382.257202,160.212875 
	C379.819763,157.179550 377.366516,154.126511 374.981873,151.158859 
	C360.118866,158.821884 346.883362,155.611893 344.627441,143.802948 
	C357.910736,143.802948 371.123627,143.802948 384.645782,143.802948 
	C384.469910,140.452652 384.347260,137.482941 384.152405,134.517990 
	C383.466675,124.083588 379.047821,115.743774 369.206909,111.623245 
	C358.920166,107.316055 348.585297,108.097328 339.452026,114.945091 
	C327.551025,123.867950 324.899231,141.229385 333.189301,156.182724 
M526.137817,94.776611 
	C523.674683,94.420288 522.503784,95.203926 522.651367,97.968979 
	C522.860962,101.898117 522.704590,105.846794 522.704590,110.266594 
	C519.169739,110.266594 516.264771,110.266594 513.287964,110.266594 
	C513.287964,114.849434 513.287964,118.927849 513.287964,123.219658 
	C516.409241,123.419540 519.292725,123.604202 522.925964,123.836876 
	C522.925964,134.198502 522.734619,144.001007 523.003723,153.790848 
	C523.145996,158.965424 524.984192,163.955261 530.030518,166.173477 
	C538.815491,170.035065 547.695679,169.080444 556.529602,165.610107 
	C555.367126,161.487991 554.342407,157.854172 553.221863,153.880829 
	C551.122498,154.172211 549.197510,154.555817 547.255493,154.686371 
	C542.112427,155.032166 539.030396,153.127563 538.791626,148.411041 
	C538.382751,140.333603 538.678711,132.220459 538.678711,123.507736 
	C543.822021,123.507736 548.872070,123.507736 554.013184,123.507736 
	C554.013184,118.791084 554.013184,114.694481 554.013184,110.042160 
	C548.697083,110.042160 543.633362,110.042160 538.230774,110.042160 
	C538.230774,104.715759 538.230774,99.943771 538.230774,94.772591 
	C534.242004,94.772591 530.605469,94.772591 526.137817,94.776611 
M724.828125,162.881485 
	C723.579895,163.554947 722.186829,164.067825 721.163513,164.990692 
	C720.814453,165.305511 721.394714,166.650757 721.669495,168.194366 
	C722.752380,166.839859 723.368103,166.069672 723.986816,165.295731 
	C724.991394,166.369583 725.775818,167.208130 726.560303,168.046661 
	C727.084900,167.753891 727.609497,167.461121 728.134094,167.168335 
	C727.279114,165.789566 726.424072,164.410782 724.828125,162.881485 
z"/>
<path fill="#0D2446" opacity="1.000000" stroke="none" 
	d="
M321.025818,116.000000 
	C321.024689,133.441772 321.024689,150.383545 321.024689,167.543518 
	C315.504974,167.543518 310.434235,167.543518 305.218506,167.543518 
	C305.114380,165.646301 305.026367,164.042694 304.892609,161.605118 
	C298.874023,167.137329 292.218536,168.868759 284.778870,168.287689 
	C274.593506,167.492203 267.677673,162.257538 263.931091,152.975113 
	C260.428223,144.296509 260.232666,135.324081 263.068451,126.401436 
	C268.537872,109.192139 289.831787,103.636452 302.989990,115.909492 
	C303.327881,116.224648 303.781036,116.416245 304.665588,116.968193 
	C304.665588,111.372986 304.665588,106.164680 304.665588,100.956375 
	C304.665588,95.817047 304.665588,90.677719 304.665588,85.299591 
	C310.099884,85.299591 315.193939,85.299591 321.026917,85.299591 
	C321.026917,95.356514 321.026917,105.428261 321.025818,116.000000 
M305.023346,135.915527 
	C304.840393,134.938980 304.721588,133.945206 304.464325,132.988632 
	C302.463135,125.547089 298.626984,122.465347 291.420197,122.468704 
	C284.988434,122.471703 280.294952,125.996857 278.779846,132.907867 
	C277.983368,136.540878 277.810913,140.552353 278.442078,144.205399 
	C279.682343,151.383575 285.018188,155.539810 291.619690,155.385574 
	C298.558044,155.223465 303.656311,151.047958 304.814667,144.254135 
	C305.228760,141.825531 305.011780,139.289322 305.023346,135.915527 
z"/>
<path fill="#0D2345" opacity="1.000000" stroke="none" 
	d="
M451.005615,136.000000 
	C451.005493,127.210777 451.005493,118.921562 451.005493,110.385422 
	C456.339355,110.385422 461.250397,110.385422 466.475311,110.385422 
	C466.621674,112.503006 466.755310,114.436943 466.932770,117.004784 
	C473.000336,110.452896 480.243439,108.246857 488.589752,109.530121 
	C497.710907,110.932503 504.470245,115.723839 507.750305,124.338753 
	C511.827545,135.047302 511.870087,145.955414 506.276093,156.217529 
	C499.258759,169.090622 482.341949,172.631668 470.383728,164.082489 
	C469.579254,163.507385 468.751617,162.964706 467.208130,161.910812 
	C467.208130,166.988876 467.208160,171.515152 467.208160,176.041428 
	C467.208160,180.513168 467.208130,184.984909 467.208130,189.752899 
	C461.839569,189.752899 456.759766,189.752899 451.005768,189.752899 
	C451.005768,172.012405 451.005768,154.256210 451.005615,136.000000 
M480.497101,122.430244 
	C477.044434,124.111046 472.774597,125.022148 470.312622,127.636063 
	C465.480835,132.765945 465.642670,144.264267 469.619080,150.161682 
	C473.419434,155.798019 480.284485,157.505234 486.260895,154.300247 
	C491.958496,151.244781 495.051361,143.554581 493.761719,135.650101 
	C492.392090,127.255066 489.103699,123.793800 480.497101,122.430244 
z"/>
<path fill="#10A2F9" opacity="1.000000" stroke="none" 
	d="
M224.876190,122.031792 
	C225.134003,135.726486 226.498047,149.535812 220.110138,162.635773 
	C215.581772,158.417526 214.836273,153.617371 216.876816,147.813889 
	C214.370010,149.735214 211.252716,152.289215 211.577347,154.282715 
	C212.149918,157.798752 210.665466,158.788483 208.292572,159.857483 
	C203.691452,161.930283 199.393311,164.153946 197.957932,169.721939 
	C197.636292,170.969604 195.611343,171.810303 194.319763,172.770004 
	C189.854141,176.088196 185.195755,179.171463 180.926392,182.723526 
	C174.450317,188.111496 168.290329,193.878586 161.846344,199.306870 
	C161.078140,199.953979 159.366043,199.418945 158.106186,199.561859 
	C156.910461,199.697510 155.188477,199.626236 154.696732,200.336975 
	C154.163452,201.107788 154.382278,202.937485 154.974564,203.850235 
	C156.963852,206.915802 155.817413,209.386261 153.052399,210.261795 
	C148.647888,211.656479 143.982788,212.460983 139.370041,212.883118 
	C136.313614,213.162811 133.156158,212.338623 129.801849,211.742584 
	C128.065781,210.833099 126.571785,210.189636 123.931038,209.052246 
	C126.708794,207.631256 128.223557,206.856354 129.835007,206.031998 
	C129.835953,201.552338 131.272141,197.987808 135.816925,196.171951 
	C139.749878,194.600555 144.006989,193.333145 147.336243,190.870636 
	C153.123230,186.590225 158.380539,181.573593 163.689011,176.680237 
	C165.050674,175.425049 165.773300,173.476624 166.816833,171.849838 
	C166.844131,171.852997 166.879868,171.893234 167.106812,171.842194 
	C167.629166,171.653580 167.838974,171.434204 168.093323,170.996597 
	C168.223404,170.860199 168.600311,170.853348 168.881302,170.813507 
	C169.420334,170.513138 169.678375,170.252625 169.946594,169.966675 
	C169.956757,169.941208 170.011490,169.938187 170.202087,169.881622 
	C170.639618,169.700333 170.817947,169.510956 171.064270,169.091370 
	C171.200928,168.925797 171.621918,168.841599 171.907135,168.788574 
	C172.420547,168.441818 172.648743,168.148056 173.040497,167.565552 
	C176.318726,163.782654 179.433380,160.288528 182.978607,156.848053 
	C185.253738,156.445404 188.453796,156.386292 188.722748,155.468353 
	C190.460922,149.536301 195.750839,145.913620 198.009766,140.823288 
	C199.358490,137.783997 200.434189,135.348007 203.029678,133.388672 
	C204.187042,132.514954 205.013290,131.196701 205.968689,130.062424 
	C209.028778,126.429504 212.688156,124.351646 217.587128,125.725571 
	C221.195496,126.737534 223.625290,125.589485 224.876190,122.031792 
z"/>
<path fill="#0D2446" opacity="1.000000" stroke="none" 
	d="
M435.953003,165.093582 
	C425.974030,169.201019 416.114288,169.556305 406.376221,166.176453 
	C392.424438,161.334122 385.531769,146.259308 389.644989,130.576416 
	C393.405518,116.238144 407.089264,107.102737 421.350800,109.409149 
	C434.693115,111.566917 442.020386,118.729408 444.211792,132.033630 
	C444.827087,135.769165 444.945038,139.586578 445.343475,143.938202 
	C431.674377,143.938202 418.496704,143.938202 405.191437,143.938202 
	C408.196167,155.831604 420.521027,158.818390 435.029968,151.211014 
	C437.427338,154.112961 439.917084,157.126770 442.790833,160.605331 
	C440.365601,162.236145 438.338501,163.599228 435.953003,165.093582 
M426.947784,133.857315 
	C428.820190,133.957291 430.068726,133.949615 429.408112,131.208237 
	C427.835236,124.681038 423.515869,121.001869 417.066589,121.283081 
	C410.042389,121.589363 405.635406,125.947159 404.677765,133.864517 
	C411.828552,133.864517 418.939819,133.864517 426.947784,133.857315 
z"/>
<path fill="#0E2446" opacity="1.000000" stroke="none" 
	d="
M575.702576,147.797592 
	C582.049194,156.672501 590.545471,157.619263 605.132446,151.307846 
	C607.438660,154.039139 609.782166,156.814560 612.349121,159.854630 
	C608.199280,164.522018 602.873535,166.768036 597.133301,167.569946 
	C592.404602,168.230560 587.431152,168.451187 582.729309,167.758774 
	C564.597168,165.088593 554.742676,149.136093 559.442932,130.686340 
	C563.664612,114.115501 580.433289,105.072601 596.910278,110.670418 
	C609.391602,114.910767 613.655334,124.929535 614.701599,136.983307 
	C614.886353,139.111816 614.727844,141.270142 614.727844,143.860352 
	C601.486877,143.860352 588.425537,143.860352 574.808960,143.860352 
	C575.110596,145.410126 575.308655,146.427689 575.702576,147.797592 
M597.955994,127.918350 
	C594.758179,122.439430 590.850464,120.411591 585.376465,121.390541 
	C578.834351,122.560501 575.637268,126.098579 574.396973,133.718292 
	C582.613586,133.718292 590.794556,133.718292 599.434204,133.718292 
	C598.976562,131.818695 598.598572,130.249435 597.955994,127.918350 
z"/>
<path fill="#0D2446" opacity="1.000000" stroke="none" 
	d="
M333.028687,155.850754 
	C324.899231,141.229385 327.551025,123.867950 339.452026,114.945091 
	C348.585297,108.097328 358.920166,107.316055 369.206909,111.623245 
	C379.047821,115.743774 383.466675,124.083588 384.152405,134.517990 
	C384.347260,137.482941 384.469910,140.452652 384.645782,143.802948 
	C371.123627,143.802948 357.910736,143.802948 344.627441,143.802948 
	C346.883362,155.611893 360.118866,158.821884 374.981873,151.158859 
	C377.366516,154.126511 379.819763,157.179550 382.257202,160.212875 
	C368.926117,172.900223 344.189819,170.739899 333.028687,155.850754 
M366.181213,133.896378 
	C369.308289,134.389664 369.343750,132.634720 368.803284,130.363922 
	C367.393951,124.442871 362.526642,120.947304 356.230042,121.381233 
	C349.041779,121.876610 344.916809,126.071198 344.372040,133.895859 
	C351.346252,133.895859 358.294312,133.895859 366.181213,133.896378 
z"/>
<path fill="#0FCFEF" opacity="1.000000" stroke="none" 
	d="
M69.796234,104.545937 
	C69.796234,104.545937 69.752869,104.255768 70.123764,103.921616 
	C70.589561,102.902222 70.684471,102.216972 70.779381,101.531731 
	C70.779381,101.531731 70.742714,101.239967 71.102684,100.952805 
	C71.619278,100.071655 71.775902,99.477676 71.932533,98.883690 
	C83.504623,74.806435 102.444130,59.689274 128.456757,54.316147 
	C136.785217,52.595833 145.730698,53.695293 154.389557,53.815495 
	C158.475662,53.872219 162.551544,54.662823 166.484390,55.485939 
	C160.978760,56.345470 155.580963,56.600975 150.287689,57.483498 
	C148.746536,57.740448 146.750443,59.546864 146.265961,61.060188 
	C144.820389,65.575630 141.114426,66.557449 137.439148,68.069031 
	C134.721466,69.186775 132.056213,70.709106 129.781387,72.559807 
	C126.587219,75.158417 124.577759,79.569740 119.237411,78.408157 
	C118.557709,78.260323 117.167397,79.115013 116.875870,79.822411 
	C115.249008,83.769913 113.393600,87.426918 109.402710,89.586494 
	C108.970795,89.820229 109.122658,91.132790 108.671036,91.964951 
	C107.565414,92.303986 106.792488,92.623009 105.853470,93.131287 
	C105.451241,93.558945 105.215126,93.797356 104.763214,94.141022 
	C104.279633,94.442032 104.093063,94.697174 103.627640,95.046967 
	C102.219803,95.795959 100.876167,96.295761 100.177559,97.261948 
	C97.687798,100.705284 95.525871,104.387566 92.997963,107.800224 
	C92.236938,108.827614 90.415741,110.124886 89.545830,109.846024 
	C83.676781,107.964615 81.521362,111.638176 80.629509,116.037918 
	C79.478180,121.717712 75.455124,123.516159 70.774582,124.871857 
	C69.199814,125.327972 67.578926,125.624886 65.979889,125.554680 
	C66.233521,122.851837 66.331558,120.558289 66.771523,118.332314 
	C67.683556,113.717842 68.777245,109.139267 69.796234,104.545937 
z"/>
<path fill="#0E2446" opacity="1.000000" stroke="none" 
	d="
M703.709290,133.077881 
	C701.544617,124.646439 699.264099,122.657616 692.170593,123.015106 
	C685.475586,123.352509 681.024475,127.347954 680.517273,134.914658 
	C679.905884,144.036285 680.182068,153.217545 680.080872,162.373077 
	C680.062805,164.007568 680.078308,165.642410 680.078308,167.553436 
	C674.699524,167.553436 669.622437,167.553436 664.230469,167.553436 
	C664.230469,148.605728 664.230469,129.704941 664.230469,110.474937 
	C669.266724,110.474937 674.323303,110.474937 679.646851,110.474937 
	C679.799683,112.548836 679.943298,114.497116 680.140930,117.178024 
	C682.097595,115.561104 683.652832,114.048531 685.421143,112.850632 
	C699.851257,103.075493 717.759216,110.887444 719.146362,128.046326 
	C720.096436,139.799103 719.605713,151.668854 719.738098,163.486542 
	C719.752625,164.778351 719.629089,166.071686 719.549194,167.806915 
	C715.784668,167.806915 712.331177,167.806915 708.307373,167.361176 
	C706.825562,165.218796 705.187988,163.547897 705.126770,161.821152 
	C704.845886,153.894775 705.078003,145.951599 704.948425,138.017349 
	C704.921448,136.364548 704.141968,134.724045 703.709290,133.077881 
z"/>
<path fill="#0D2345" opacity="1.000000" stroke="none" 
	d="
M526.553345,94.774597 
	C530.605469,94.772591 534.242004,94.772591 538.230774,94.772591 
	C538.230774,99.943771 538.230774,104.715759 538.230774,110.042160 
	C543.633362,110.042160 548.697083,110.042160 554.013184,110.042160 
	C554.013184,114.694481 554.013184,118.791084 554.013184,123.507736 
	C548.872070,123.507736 543.822021,123.507736 538.678711,123.507736 
	C538.678711,132.220459 538.382751,140.333603 538.791626,148.411041 
	C539.030396,153.127563 542.112427,155.032166 547.255493,154.686371 
	C549.197510,154.555817 551.122498,154.172211 553.221863,153.880829 
	C554.342407,157.854172 555.367126,161.487991 556.529602,165.610107 
	C547.695679,169.080444 538.815491,170.035065 530.030518,166.173477 
	C524.984192,163.955261 523.145996,158.965424 523.003723,153.790848 
	C522.734619,144.001007 522.925964,134.198502 522.925964,123.836876 
	C519.292725,123.604202 516.409241,123.419540 513.287964,123.219658 
	C513.287964,118.927849 513.287964,114.849434 513.287964,110.266594 
	C516.264771,110.266594 519.169739,110.266594 522.704590,110.266594 
	C522.704590,105.846794 522.860962,101.898117 522.651367,97.968979 
	C522.503784,95.203926 523.674683,94.420288 526.553345,94.774597 
z"/>
<path fill="#109BF8" opacity="1.000000" stroke="none" 
	d="
M130.043930,212.008606 
	C133.156158,212.338623 136.313614,213.162811 139.370041,212.883118 
	C143.982788,212.460983 148.647888,211.656479 153.052399,210.261795 
	C155.817413,209.386261 156.963852,206.915802 154.974564,203.850235 
	C154.382278,202.937485 154.163452,201.107788 154.696732,200.336975 
	C155.188477,199.626236 156.910461,199.697510 158.106186,199.561859 
	C159.366043,199.418945 161.078140,199.953979 161.846344,199.306870 
	C168.290329,193.878586 174.450317,188.111496 180.926392,182.723526 
	C185.195755,179.171463 189.854141,176.088196 194.319763,172.770004 
	C195.611343,171.810303 197.636292,170.969604 197.957932,169.721939 
	C199.393311,164.153946 203.691452,161.930283 208.292572,159.857483 
	C210.665466,158.788483 212.149918,157.798752 211.577347,154.282715 
	C211.252716,152.289215 214.370010,149.735214 216.876816,147.813889 
	C214.836273,153.617371 215.581772,158.417526 219.842529,162.872803 
	C215.775360,176.274475 207.330566,186.703690 196.859161,195.324631 
	C177.630692,211.155167 155.482620,217.072525 130.404968,212.678070 
	C130.015045,212.363525 130.043930,212.008606 130.043930,212.008606 
z"/>
<path fill="#13ACF7" opacity="1.000000" stroke="none" 
	d="
M224.924896,121.615311 
	C223.625290,125.589485 221.195496,126.737534 217.587128,125.725571 
	C212.688156,124.351646 209.028778,126.429504 205.968689,130.062424 
	C205.013290,131.196701 204.187042,132.514954 203.029678,133.388672 
	C200.434189,135.348007 199.358490,137.783997 198.009766,140.823288 
	C195.750839,145.913620 190.460922,149.536301 188.722748,155.468353 
	C188.453796,156.386292 185.253738,156.445404 183.086731,156.497833 
	C190.036392,143.139343 189.775772,129.801987 185.177353,116.154800 
	C187.949661,113.083183 190.334671,110.081306 193.004929,106.720428 
	C195.784622,105.628372 199.928528,104.824066 202.988968,102.557076 
	C205.822876,100.457863 208.068436,98.742218 211.757889,99.694130 
	C213.903976,100.247841 216.540924,100.919853 217.277679,97.473038 
	C219.842987,105.381638 222.408295,113.290237 224.924896,121.615311 
z"/>
<path fill="#0FC8F2" opacity="1.000000" stroke="none" 
	d="
M109.003731,91.944931 
	C109.122658,91.132790 108.970795,89.820229 109.402710,89.586494 
	C113.393600,87.426918 115.249008,83.769913 116.875870,79.822411 
	C117.167397,79.115013 118.557709,78.260323 119.237411,78.408157 
	C124.577759,79.569740 126.587219,75.158417 129.781387,72.559807 
	C132.056213,70.709106 134.721466,69.186775 137.439148,68.069031 
	C141.114426,66.557449 144.820389,65.575630 146.265961,61.060188 
	C146.750443,59.546864 148.746536,57.740448 150.287689,57.483498 
	C155.580963,56.600975 160.978760,56.345470 166.753235,55.729950 
	C167.169739,55.608929 167.158585,55.663799 167.249451,56.062614 
	C170.311417,57.276810 173.282516,58.092186 176.253601,58.907570 
	C177.718582,59.374783 179.183578,59.841999 180.966476,60.822449 
	C181.618408,61.470070 181.952423,61.604454 182.286438,61.738842 
	C182.286438,61.738842 182.291428,61.632904 182.216522,62.028858 
	C180.826218,65.803215 171.889740,70.952950 169.449905,69.245979 
	C165.633301,66.575798 164.420197,68.983719 163.163620,71.698448 
	C160.754822,76.902489 156.507217,79.273964 151.240738,81.236542 
	C146.830139,82.880157 143.138809,86.452766 139.127136,89.168495 
	C137.729523,90.114616 136.347809,91.827827 134.922256,91.867218 
	C126.288628,92.105820 117.644409,91.961372 109.003731,91.944931 
z"/>
<path fill="#11B8F2" opacity="1.000000" stroke="none" 
	d="
M103.987701,95.011703 
	C104.093063,94.697174 104.279633,94.442032 104.814339,94.603333 
	C105.081268,119.851585 105.081268,144.742783 105.081268,169.633972 
	C105.540558,169.844849 105.999847,170.055725 106.459145,170.266617 
	C114.682480,162.964691 121.181488,154.193146 126.975723,145.135590 
	C128.671539,146.284149 131.239670,148.133606 131.776062,147.663727 
	C135.718628,144.210022 140.153168,146.209961 144.411926,146.367828 
	C143.686523,153.912292 140.151901,159.447144 134.659760,163.886642 
	C130.793884,167.011551 126.988144,170.210861 122.948990,173.060867 
	C119.351669,172.273361 115.152039,170.307404 112.726807,171.619980 
	C106.299438,175.098587 99.058632,177.649231 94.273590,183.815155 
	C93.644905,184.625275 91.458725,184.902512 90.309677,184.507660 
	C86.707481,183.269867 85.769737,184.789383 85.965790,187.995422 
	C82.342728,183.232758 78.719666,178.470108 75.411469,173.351608 
	C79.289558,171.034485 82.775185,168.911560 86.436119,167.153778 
	C90.782684,165.066833 95.169876,162.209946 99.748634,161.744522 
	C103.121063,161.401718 104.059616,161.151367 104.028061,157.928543 
	C103.933655,148.284454 103.990837,138.638885 103.991356,128.525909 
	C103.991814,117.042519 103.989761,106.027107 103.987701,95.011703 
z"/>
<path fill="#0F2547" opacity="1.000000" stroke="none" 
	d="
M647.175110,125.541779 
	C640.520691,127.419258 638.502197,132.587799 638.322998,138.675293 
	C638.092773,146.494644 638.269531,154.325974 638.270813,162.152145 
	C638.271118,163.958862 638.270874,165.765579 638.270874,167.686188 
	C632.819763,167.686188 627.857422,167.686188 622.490967,167.686188 
	C622.490967,148.650436 622.490967,129.768036 622.490967,110.529648 
	C627.225586,110.529648 632.138184,110.529648 637.479309,110.529648 
	C637.703796,112.788170 637.943665,115.201065 638.963623,117.801384 
	C643.919556,116.950050 648.095459,115.911301 652.284241,114.869331 
	C650.333130,118.945000 648.754089,122.243385 647.175110,125.541779 
z"/>
<path fill="#14BFF3" opacity="1.000000" stroke="none" 
	d="
M108.671036,91.964951 
	C117.644409,91.961372 126.288628,92.105820 134.922256,91.867218 
	C136.347809,91.827827 137.729523,90.114616 139.127136,89.168495 
	C143.138809,86.452766 146.830139,82.880157 151.240738,81.236542 
	C156.507217,79.273964 160.754822,76.902489 163.163620,71.698448 
	C164.420197,68.983719 165.633301,66.575798 169.449905,69.245979 
	C171.889740,70.952950 180.826218,65.803215 182.269379,62.024731 
	C193.554306,66.698479 201.924622,75.104195 209.267029,84.683678 
	C207.187271,84.350082 204.902817,84.183990 203.747345,82.955780 
	C198.619934,77.505592 195.003876,76.616608 188.633102,79.630348 
	C187.043137,80.382484 185.100571,80.371895 183.475311,81.072144 
	C182.098419,81.665375 180.689117,82.568726 179.753510,83.711075 
	C178.326050,85.454041 177.171814,87.457207 176.122314,89.465271 
	C174.300217,92.951599 172.646866,96.526123 170.583420,99.980316 
	C162.432297,95.080696 153.960999,92.831558 144.763275,92.923302 
	C131.849915,93.052116 118.934250,92.947052 106.019569,92.942024 
	C106.792488,92.623009 107.565414,92.303986 108.671036,91.964951 
z"/>
<path fill="#0DC0F2" opacity="1.000000" stroke="none" 
	d="
M103.988838,128.993896 
	C103.990837,138.638885 103.933655,148.284454 104.028061,157.928543 
	C104.059616,161.151367 103.121063,161.401718 99.748634,161.744522 
	C95.169876,162.209946 90.782684,165.066833 86.436119,167.153778 
	C82.775185,168.911560 79.289558,171.034485 75.352295,173.008575 
	C74.978264,173.021378 74.996597,173.004883 74.972794,172.709671 
	C74.606705,171.960236 74.264435,171.506027 73.922157,171.051804 
	C73.922157,171.051804 73.997398,170.998779 73.958679,170.713272 
	C73.554855,169.975174 73.189751,169.522583 72.824646,169.069992 
	C70.884964,164.296555 68.945282,159.523102 67.033020,153.941422 
	C67.022057,151.426865 66.983665,149.720566 67.321655,147.970596 
	C70.816383,146.942749 74.010796,146.142532 77.021301,144.897583 
	C78.551453,144.264786 80.382347,143.102219 80.979874,141.708618 
	C82.722748,137.643723 85.636528,136.704391 89.687569,136.891144 
	C91.457176,136.972717 94.690979,136.129410 94.850975,135.261856 
	C95.853752,129.824249 100.110413,129.814026 103.988838,128.993896 
z"/>
<path fill="#10B6F5" opacity="1.000000" stroke="none" 
	d="
M170.922760,100.063667 
	C172.646866,96.526123 174.300217,92.951599 176.122314,89.465271 
	C177.171814,87.457207 178.326050,85.454041 179.753510,83.711075 
	C180.689117,82.568726 182.098419,81.665375 183.475311,81.072144 
	C185.100571,80.371895 187.043137,80.382484 188.633102,79.630348 
	C195.003876,76.616608 198.619934,77.505592 203.747345,82.955780 
	C204.902817,84.183990 207.187271,84.350082 209.332611,85.003815 
	C209.713226,85.002518 210.035370,85.280579 210.123108,85.760994 
	C210.471497,86.487251 210.732147,86.733093 210.992813,86.978935 
	C210.992813,86.978935 211.012726,86.991539 211.037857,87.309441 
	C211.451324,88.045219 211.839661,88.463097 212.228012,88.880966 
	C212.228012,88.880966 212.123199,88.915688 212.192612,89.119171 
	C212.540176,89.527443 212.818314,89.732231 213.096451,89.937027 
	C213.096451,89.937027 212.998764,89.990128 213.045578,90.302505 
	C213.831436,91.688522 214.570480,92.762161 215.309525,93.835808 
	C215.309525,93.835808 215.188660,93.889641 215.229828,94.091095 
	C215.538864,94.515717 215.806732,94.738884 216.074615,94.962044 
	C216.074615,94.962044 216.001831,94.992111 216.034729,95.274887 
	C216.399582,96.046860 216.731537,96.536057 217.063492,97.025253 
	C217.063492,97.025253 217.291901,97.192406 217.284790,97.332718 
	C216.540924,100.919853 213.903976,100.247841 211.757889,99.694130 
	C208.068436,98.742218 205.822876,100.457863 202.988968,102.557076 
	C199.928528,104.824066 195.784622,105.628372 193.004929,106.720428 
	C190.334671,110.081306 187.949661,113.083183 185.188690,116.128342 
	C184.812759,116.171623 184.864258,116.147980 184.876312,115.812370 
	C184.483139,115.012085 184.077881,114.547409 183.420776,113.882629 
	C181.737930,111.519554 180.306946,109.356590 178.909424,106.803513 
	C177.607483,105.299873 176.272095,104.186348 174.959442,103.038483 
	C174.982147,103.004135 174.944962,103.070961 174.842346,102.833862 
	C174.448944,102.426468 174.158173,102.256165 173.918671,102.091827 
	C173.969940,102.097786 173.879440,102.147476 173.868576,101.786484 
	C172.886078,100.971611 171.914444,100.517738 170.945374,100.053589 
	C170.947922,100.043297 170.922760,100.063667 170.922760,100.063667 
z"/>
<path fill="#12A7F8" opacity="1.000000" stroke="none" 
	d="
M129.801849,211.742584 
	C130.043930,212.008606 130.015045,212.363525 130.002670,212.541077 
	C119.895142,211.101074 110.731552,207.116531 102.223312,201.255524 
	C102.973663,200.013336 103.576622,198.650421 104.259705,198.608994 
	C109.661736,198.281494 112.455605,194.397171 115.769310,190.964615 
	C116.699638,190.000931 119.069443,190.517349 120.731766,190.144470 
	C122.399399,189.770432 124.843224,189.628479 125.496597,188.525589 
	C128.175949,184.002960 132.280197,182.100891 137.003220,180.791016 
	C138.684662,180.324661 140.212143,179.303131 141.809906,178.535034 
	C141.687622,178.202347 141.565338,177.869659 141.443039,177.536972 
	C137.961227,177.089767 134.479401,176.642578 131.458649,176.102783 
	C143.688156,175.838211 155.636429,177.172195 166.789520,171.846680 
	C165.773300,173.476624 165.050674,175.425049 163.689011,176.680237 
	C158.380539,181.573593 153.123230,186.590225 147.336243,190.870636 
	C144.006989,193.333145 139.749878,194.600555 135.816925,196.171951 
	C131.272141,197.987808 129.835953,201.552338 129.835007,206.031998 
	C128.223557,206.856354 126.708794,207.631256 123.931038,209.052246 
	C126.571785,210.189636 128.065781,210.833099 129.801849,211.742584 
z"/>
<path fill="#11B0F6" opacity="1.000000" stroke="none" 
	d="
M130.997574,176.195374 
	C134.479401,176.642578 137.961227,177.089767 141.443039,177.536972 
	C141.565338,177.869659 141.687622,178.202347 141.809906,178.535034 
	C140.212143,179.303131 138.684662,180.324661 137.003220,180.791016 
	C132.280197,182.100891 128.175949,184.002960 125.496597,188.525589 
	C124.843224,189.628479 122.399399,189.770432 120.731766,190.144470 
	C119.069443,190.517349 116.699638,190.000931 115.769310,190.964615 
	C112.455605,194.397171 109.661736,198.281494 104.259705,198.608994 
	C103.576622,198.650421 102.973663,200.013336 102.015610,200.974335 
	C97.643501,197.868362 93.589371,194.552063 89.137177,190.851227 
	C88.538925,190.240906 88.291054,190.097519 87.995506,190.036545 
	C87.995506,190.036545 87.983521,190.016769 87.876602,189.795197 
	C87.579941,189.303329 87.325348,189.126251 87.005898,189.042419 
	C87.005898,189.042419 86.968788,189.030106 86.867462,188.798080 
	C86.578026,188.299210 86.326340,188.123322 86.011063,188.038391 
	C86.011063,188.038391 85.984558,188.022507 85.975174,188.008972 
	C85.769737,184.789383 86.707481,183.269867 90.309677,184.507660 
	C91.458725,184.902512 93.644905,184.625275 94.273590,183.815155 
	C99.058632,177.649231 106.299438,175.098587 112.726807,171.619980 
	C115.152039,170.307404 119.351669,172.273361 122.841476,173.326508 
	C123.718353,174.643814 124.407127,175.849350 125.292549,176.017151 
	C127.139168,176.367081 129.089722,176.168549 130.997574,176.195374 
z"/>
<path fill="#102649" opacity="1.000000" stroke="none" 
	d="
M647.564941,125.525116 
	C648.754089,122.243385 650.333130,118.945000 652.284241,114.869331 
	C648.095459,115.911301 643.919556,116.950050 639.338989,117.982208 
	C643.208008,110.824890 649.869690,108.966774 658.229431,109.407127 
	C658.229431,111.131378 658.229431,112.727211 657.842712,114.914078 
	C656.304260,118.639549 655.152588,121.773987 654.000854,124.908432 
	C653.550293,124.964348 653.099670,125.020271 652.224731,124.837715 
	C651.536377,124.704597 651.272400,124.809967 651.008484,124.915321 
	C649.990540,125.113029 648.972656,125.310745 647.564941,125.525116 
z"/>
<path fill="#2FCBEB" opacity="1.000000" stroke="none" 
	d="
M66.945274,148.014252 
	C66.983665,149.720566 67.022057,151.426865 67.034653,153.558899 
	C61.902786,137.408676 63.113876,121.121292 69.520012,104.802277 
	C68.777245,109.139267 67.683556,113.717842 66.771523,118.332314 
	C66.331558,120.558289 66.233521,122.851837 65.818428,125.937096 
	C65.495071,131.196518 65.333939,135.633621 65.156647,140.353836 
	C65.418350,141.102844 65.696213,141.568756 65.974304,142.434631 
	C66.298119,144.561157 66.621696,146.287704 66.945274,148.014252 
z"/>
<path fill="#031732" opacity="1.000000" stroke="none" 
	d="
M703.671509,133.540527 
	C704.141968,134.724045 704.921448,136.364548 704.948425,138.017349 
	C705.078003,145.951599 704.845886,153.894775 705.126770,161.821152 
	C705.187988,163.547897 706.825562,165.218796 707.858276,167.248657 
	C706.711060,167.581909 705.442505,167.581909 703.633667,167.581909 
	C703.633667,156.220062 703.633667,145.111618 703.671509,133.540527 
z"/>
<path fill="#C1CFDA" opacity="1.000000" stroke="none" 
	d="
M725.198608,162.956741 
	C726.424072,164.410782 727.279114,165.789566 728.134094,167.168335 
	C727.609497,167.461121 727.084900,167.753891 726.560303,168.046661 
	C725.775818,167.208130 724.991394,166.369583 723.986816,165.295731 
	C723.368103,166.069672 722.752380,166.839859 721.669495,168.194366 
	C721.394714,166.650757 720.814453,165.305511 721.163513,164.990692 
	C722.186829,164.067825 723.579895,163.554947 725.198608,162.956741 
z"/>
<path fill="#0F2547" opacity="1.000000" stroke="none" 
	d="
M654.365234,125.006958 
	C655.152588,121.773987 656.304260,118.639549 657.732666,115.251389 
	C658.041199,117.704155 658.073059,120.410652 657.804871,123.700241 
	C657.332642,124.579124 657.160522,124.874916 656.988403,125.170700 
	C656.235474,125.148964 655.482544,125.127220 654.365234,125.006958 
z"/>
<path fill="#0FCFEF" opacity="1.000000" stroke="none" 
	d="
M176.003937,58.636322 
	C173.282516,58.092186 170.311417,57.276810 167.247162,56.090515 
	C170.020767,56.601425 172.887512,57.483253 176.003937,58.636322 
z"/>
<path fill="#13ACF7" opacity="1.000000" stroke="none" 
	d="
M215.292496,93.499916 
	C214.570480,92.762161 213.831436,91.688522 213.089142,90.267639 
	C213.815750,91.001602 214.545609,92.082817 215.292496,93.499916 
z"/>
<path fill="#11B8F2" opacity="1.000000" stroke="none" 
	d="
M72.845024,169.372253 
	C73.189751,169.522583 73.554855,169.975174 73.922791,170.740448 
	C73.572205,170.593597 73.218803,170.134064 72.845024,169.372253 
z"/>
<path fill="#11B8F2" opacity="1.000000" stroke="none" 
	d="
M73.926537,171.349487 
	C74.264435,171.506027 74.606705,171.960236 74.963791,172.716766 
	C74.629379,172.561768 74.280144,172.104477 73.926537,171.349487 
z"/>
<path fill="#13ACF7" opacity="1.000000" stroke="none" 
	d="
M212.198151,88.585373 
	C211.839661,88.463097 211.451324,88.045219 211.039642,87.321091 
	C211.400299,87.439819 211.784302,87.864792 212.198151,88.585373 
z"/>
<path fill="#13ACF7" opacity="1.000000" stroke="none" 
	d="
M217.058197,96.716820 
	C216.731537,96.536057 216.399582,96.046860 216.061401,95.245911 
	C216.387756,95.425568 216.720322,95.916977 217.058197,96.716820 
z"/>
<path fill="#2FCBEB" opacity="1.000000" stroke="none" 
	d="
M71.678436,99.066513 
	C71.775902,99.477676 71.619278,100.071655 71.196030,100.839203 
	C71.094383,100.424950 71.259361,99.837143 71.678436,99.066513 
z"/>
<path fill="#2FCBEB" opacity="1.000000" stroke="none" 
	d="
M70.534950,101.776459 
	C70.684471,102.216972 70.589561,102.902222 70.213776,103.805786 
	C70.052101,103.356461 70.171310,102.688820 70.534950,101.776459 
z"/>
<path fill="#14BFF3" opacity="1.000000" stroke="none" 
	d="
M182.196228,61.471962 
	C181.952423,61.604454 181.618408,61.470070 181.178558,61.075588 
	C181.417145,60.945358 181.761597,61.075218 182.196228,61.471962 
z"/>
<path fill="#11B8F2" opacity="1.000000" stroke="none" 
	d="
M86.069214,188.279266 
	C86.326340,188.123322 86.578026,188.299210 86.861633,188.779419 
	C86.593399,188.988220 86.316811,188.830673 86.069214,188.279266 
z"/>
<path fill="#11B8F2" opacity="1.000000" stroke="none" 
	d="
M87.065292,189.285355 
	C87.325348,189.126251 87.579941,189.303329 87.866730,189.789185 
	C87.684067,189.845947 87.404373,189.687119 87.065292,189.285355 
z"/>
<path fill="#11B8F2" opacity="1.000000" stroke="none" 
	d="
M88.056473,190.273773 
	C88.291054,190.097519 88.538925,190.240906 88.854736,190.651337 
	C88.970367,190.835938 88.480354,190.840195 88.480354,190.840195 
	C88.480354,190.840195 88.117432,190.511002 88.056473,190.273773 
z"/>
<path fill="#13ACF7" opacity="1.000000" stroke="none" 
	d="
M210.949554,86.702217 
	C210.732147,86.733093 210.471497,86.487251 210.150879,85.971954 
	C210.362701,85.943497 210.634491,86.184494 210.949554,86.702217 
z"/>
<path fill="#13ACF7" opacity="1.000000" stroke="none" 
	d="
M213.048523,89.664856 
	C212.818314,89.732231 212.540176,89.527443 212.195282,89.064026 
	C212.419235,89.001160 212.709930,89.196922 213.048523,89.664856 
z"/>
<path fill="#13ACF7" opacity="1.000000" stroke="none" 
	d="
M216.039536,94.687889 
	C215.806732,94.738884 215.538864,94.515717 215.230286,94.024948 
	C215.461182,93.976143 215.732819,94.194939 216.039536,94.687889 
z"/>
<path fill="#102649" opacity="1.000000" stroke="none" 
	d="
M657.330933,125.232941 
	C657.160522,124.874916 657.332642,124.579124 657.724731,124.144943 
	C657.854187,124.436096 657.763794,124.865639 657.330933,125.232941 
z"/>
<path fill="#0F2547" opacity="1.000000" stroke="none" 
	d="
M651.254395,124.984833 
	C651.272400,124.809967 651.536377,124.704597 651.893311,124.748108 
	C651.824280,124.949425 651.662231,125.001884 651.254395,124.984833 
z"/>
<path fill="#F0F7FA" opacity="1.000000" stroke="none" 
	d="
M305.053101,136.358887 
	C305.011780,139.289322 305.228760,141.825531 304.814667,144.254135 
	C303.656311,151.047958 298.558044,155.223465 291.619690,155.385574 
	C285.018188,155.539810 279.682343,151.383575 278.442078,144.205399 
	C277.810913,140.552353 277.983368,136.540878 278.779846,132.907867 
	C280.294952,125.996857 284.988434,122.471703 291.420197,122.468704 
	C298.626984,122.465347 302.463135,125.547089 304.464325,132.988632 
	C304.721588,133.945206 304.840393,134.938980 305.053101,136.358887 
z"/>
<path fill="#EFF5F9" opacity="1.000000" stroke="none" 
	d="
M480.884186,122.466660 
	C489.103699,123.793800 492.392090,127.255066 493.761719,135.650101 
	C495.051361,143.554581 491.958496,151.244781 486.260895,154.300247 
	C480.284485,157.505234 473.419434,155.798019 469.619080,150.161682 
	C465.642670,144.264267 465.480835,132.765945 470.312622,127.636063 
	C472.774597,125.022148 477.044434,124.111046 480.884186,122.466660 
z"/>
<path fill="#F9FDFD" opacity="1.000000" stroke="none" 
	d="
M131.458649,176.102783 
	C129.089722,176.168549 127.139168,176.367081 125.292549,176.017151 
	C124.407127,175.849350 123.718353,174.643814 123.048035,173.642609 
	C126.988144,170.210861 130.793884,167.011551 134.659760,163.886642 
	C140.151901,159.447144 143.686523,153.912292 144.537506,146.062134 
	C143.902359,135.851074 137.387390,130.371506 131.454269,125.075104 
	C129.910233,131.760529 128.408768,138.261566 126.907303,144.762619 
	C121.181488,154.193146 114.682480,162.964691 106.459145,170.266617 
	C105.999847,170.055725 105.540558,169.844849 105.081268,169.633972 
	C105.081268,144.742783 105.081268,119.851585 105.030136,94.498077 
	C105.215126,93.797356 105.451241,93.558945 105.853470,93.131287 
	C118.934250,92.947052 131.849915,93.052116 144.763275,92.923302 
	C153.960999,92.831558 162.432297,95.080696 170.583420,99.980316 
	C170.922760,100.063667 170.947922,100.043297 171.070740,100.343643 
	C172.088852,101.145149 172.984146,101.646317 173.879440,102.147476 
	C173.879440,102.147476 173.969940,102.097786 173.995575,102.347420 
	C174.329132,102.755020 174.637054,102.912987 174.944962,103.070953 
	C174.944962,103.070961 174.982147,103.004135 175.065063,103.341934 
	C176.390640,104.851036 177.633316,106.022331 178.875977,107.193626 
	C180.306946,109.356590 181.737930,111.519554 183.487686,114.187973 
	C184.159058,115.178276 184.511658,115.663124 184.864258,116.147980 
	C184.864258,116.147980 184.812759,116.171623 184.801422,116.198074 
	C189.775772,129.801987 190.036392,143.139343 182.656158,156.444183 
	C179.433380,160.288528 176.318726,163.782654 172.769562,167.638245 
	C172.097336,168.280334 171.859634,168.560974 171.621918,168.841599 
	C171.621918,168.841599 171.200928,168.925797 170.849792,169.099091 
	C170.201843,169.395889 170.039459,169.617828 170.011490,169.938187 
	C170.011490,169.938187 169.956757,169.941208 169.665405,170.000458 
	C169.116135,170.324249 168.858215,170.588791 168.600311,170.853333 
	C168.600311,170.853348 168.223404,170.860199 167.842133,171.001007 
	C167.267197,171.392288 167.073532,171.642761 166.879868,171.893234 
	C166.879868,171.893234 166.844131,171.852997 166.816833,171.849838 
	C155.636429,177.172195 143.688156,175.838211 131.458649,176.102783 
z"/>
<path fill="#12A7F8" opacity="1.000000" stroke="none" 
	d="
M167.106812,171.842194 
	C167.073532,171.642761 167.267197,171.392288 167.712036,171.137421 
	C167.838974,171.434204 167.629166,171.653580 167.106812,171.842194 
z"/>
<path fill="#12A7F8" opacity="1.000000" stroke="none" 
	d="
M168.881287,170.813492 
	C168.858215,170.588791 169.116135,170.324249 169.655228,170.025909 
	C169.678375,170.252625 169.420334,170.513138 168.881287,170.813492 
z"/>
<path fill="#12A7F8" opacity="1.000000" stroke="none" 
	d="
M170.202087,169.881622 
	C170.039459,169.617828 170.201843,169.395889 170.713135,169.264648 
	C170.817947,169.510956 170.639618,169.700333 170.202087,169.881622 
z"/>
<path fill="#12A7F8" opacity="1.000000" stroke="none" 
	d="
M171.907135,168.788574 
	C171.859634,168.560974 172.097336,168.280334 172.605988,167.927002 
	C172.648743,168.148056 172.420547,168.441818 171.907135,168.788574 
z"/>
<path fill="#EAEFF5" opacity="1.000000" stroke="none" 
	d="
M426.499451,133.860916 
	C418.939819,133.864517 411.828552,133.864517 404.677765,133.864517 
	C405.635406,125.947159 410.042389,121.589363 417.066589,121.283081 
	C423.515869,121.001869 427.835236,124.681038 429.408112,131.208237 
	C430.068726,133.949615 428.820190,133.957291 426.499451,133.860916 
z"/>
<path fill="#E9F0F6" opacity="1.000000" stroke="none" 
	d="
M598.088257,128.299255 
	C598.598572,130.249435 598.976562,131.818695 599.434204,133.718292 
	C590.794556,133.718292 582.613586,133.718292 574.396973,133.718292 
	C575.637268,126.098579 578.834351,122.560501 585.376465,121.390541 
	C590.850464,120.411591 594.758179,122.439430 598.088257,128.299255 
z"/>
<path fill="#E8EEF4" opacity="1.000000" stroke="none" 
	d="
M365.711792,133.896118 
	C358.294312,133.895859 351.346252,133.895859 344.372040,133.895859 
	C344.916809,126.071198 349.041779,121.876610 356.230042,121.381233 
	C362.526642,120.947304 367.393951,124.442871 368.803284,130.363922 
	C369.343750,132.634720 369.308289,134.389664 365.711792,133.896118 
z"/>
<path fill="#0BC7F1" opacity="1.000000" stroke="none" 
	d="
M67.321655,147.970596 
	C66.621696,146.287704 66.298119,144.561157 65.967834,142.151459 
	C65.698364,141.002457 65.435593,140.536591 65.172813,140.070740 
	C65.333939,135.633621 65.495071,131.196518 65.817657,126.376984 
	C67.578926,125.624886 69.199814,125.327972 70.774582,124.871857 
	C75.455124,123.516159 79.478180,121.717712 80.629509,116.037918 
	C81.521362,111.638176 83.676781,107.964615 89.545830,109.846024 
	C90.415741,110.124886 92.236938,108.827614 92.997963,107.800224 
	C95.525871,104.387566 97.687798,100.705284 100.177559,97.261948 
	C100.876167,96.295761 102.219803,95.795959 103.627640,95.046967 
	C103.989761,106.027107 103.991814,117.042519 103.991356,128.525909 
	C100.110413,129.814026 95.853752,129.824249 94.850975,135.261856 
	C94.690979,136.129410 91.457176,136.972717 89.687569,136.891144 
	C85.636528,136.704391 82.722748,137.643723 80.979874,141.708618 
	C80.382347,143.102219 78.551453,144.264786 77.021301,144.897583 
	C74.010796,146.142532 70.816383,146.942749 67.321655,147.970596 
z"/>
<path fill="#1DC3EF" opacity="1.000000" stroke="none" 
	d="
M126.975716,145.135590 
	C128.408768,138.261566 129.910233,131.760529 131.454269,125.075104 
	C137.387390,130.371506 143.902359,135.851074 144.475983,145.643661 
	C140.153168,146.209961 135.718628,144.210022 131.776062,147.663727 
	C131.239670,148.133606 128.671539,146.284149 126.975716,145.135590 
z"/>
<path fill="#14BFF3" opacity="1.000000" stroke="none" 
	d="
M178.909424,106.803513 
	C177.633316,106.022331 176.390640,104.851036 175.042358,103.376282 
	C176.272095,104.186348 177.607483,105.299873 178.909424,106.803513 
z"/>
<path fill="#14BFF3" opacity="1.000000" stroke="none" 
	d="
M173.868576,101.786484 
	C172.984146,101.646317 172.088852,101.145149 171.068176,100.353928 
	C171.914444,100.517738 172.886078,100.971611 173.868576,101.786484 
z"/>
<path fill="#13ACF7" opacity="1.000000" stroke="none" 
	d="
M184.876312,115.812370 
	C184.511658,115.663124 184.159058,115.178276 183.739548,114.388077 
	C184.077881,114.547409 184.483139,115.012085 184.876312,115.812370 
z"/>
<path fill="#14BFF3" opacity="1.000000" stroke="none" 
	d="
M174.842346,102.833862 
	C174.637054,102.912987 174.329132,102.755020 173.944305,102.341461 
	C174.158173,102.256165 174.448944,102.426468 174.842346,102.833862 
z"/>
<path fill="#0DC0F2" opacity="1.000000" stroke="none" 
	d="
M65.156647,140.353836 
	C65.435593,140.536591 65.698364,141.002457 65.967606,141.751495 
	C65.696213,141.568756 65.418350,141.102844 65.156647,140.353836 
z"/>
</svg>