<svg width="1479" height="186" viewBox="0 0 1479 186" fill="none" xmlns="http://www.w3.org/2000/svg">
<path d="M1456.86 52.7735C1456.34 47.9305 1454.16 44.1596 1450.32 41.4608C1446.51 38.7621 1441.55 37.4127 1435.45 37.4127C1431.17 37.4127 1427.49 38.0596 1424.42 39.3536C1421.35 40.6475 1419 42.4036 1417.38 44.6217C1415.75 46.8399 1414.92 49.3723 1414.88 52.219C1414.88 54.585 1415.42 56.6369 1416.49 58.3744C1417.6 60.112 1419.1 61.5908 1420.98 62.8108C1422.87 63.9938 1424.96 64.992 1427.25 65.8053C1429.54 66.6186 1431.85 67.3026 1434.18 67.8571L1444.83 70.5189C1449.11 71.5171 1453.24 72.8665 1457.19 74.5671C1461.19 76.2677 1464.75 78.4119 1467.9 80.9998C1471.07 83.5877 1473.59 86.7116 1475.44 90.3716C1477.29 94.0316 1478.21 98.3201 1478.21 103.237C1478.21 109.892 1476.51 115.751 1473.11 120.816C1469.71 125.844 1464.79 129.781 1458.36 132.628C1451.96 135.438 1444.22 136.842 1435.12 136.842C1426.29 136.842 1418.61 135.474 1412.11 132.739C1405.64 130.003 1400.57 126.01 1396.91 120.761C1393.29 115.511 1391.33 109.115 1391.04 101.573H1411.28C1411.57 105.529 1412.79 108.819 1414.94 111.444C1417.08 114.069 1419.87 116.028 1423.31 117.322C1426.79 118.616 1430.67 119.263 1434.96 119.263C1439.43 119.263 1443.35 118.598 1446.71 117.267C1450.11 115.899 1452.77 114.014 1454.7 111.611C1456.62 109.171 1457.6 106.324 1457.64 103.071C1457.6 100.113 1456.73 97.6731 1455.03 95.7507C1453.33 93.7913 1450.94 92.1646 1447.88 90.8707C1444.84 89.5398 1441.3 88.3568 1437.23 87.3216L1424.31 83.9943C1414.95 81.5913 1407.56 77.9498 1402.13 73.0698C1396.73 68.1529 1394.03 61.6277 1394.03 53.4944C1394.03 46.8029 1395.84 40.9433 1399.46 35.9154C1403.12 30.8875 1408.1 26.9873 1414.38 24.2145C1420.67 21.4048 1427.78 20 1435.73 20C1443.79 20 1450.85 21.4048 1456.92 24.2145C1463.02 26.9873 1467.8 30.8506 1471.28 35.8045C1474.75 40.7214 1476.55 46.3778 1476.66 52.7735H1456.86Z" fill="#7528FC"/>
<path d="M1368.3 59.8717H1347.56C1346.97 56.4705 1345.88 53.4575 1344.29 50.8326C1342.7 48.1708 1340.72 45.9157 1338.35 44.0672C1335.99 42.2187 1333.29 40.8324 1330.26 39.9081C1327.26 38.9469 1324.03 38.4663 1320.55 38.4663C1314.38 38.4663 1308.91 40.019 1304.14 43.1245C1299.37 46.1929 1295.63 50.7032 1292.94 56.6553C1290.24 62.5705 1288.89 69.798 1288.89 78.338C1288.89 87.0259 1290.24 94.3458 1292.94 100.298C1295.67 106.213 1299.41 110.686 1304.14 113.718C1308.91 116.712 1314.36 118.21 1320.5 118.21C1323.9 118.21 1327.08 117.766 1330.03 116.879C1333.03 115.955 1335.71 114.605 1338.08 112.831C1340.48 111.056 1342.49 108.875 1344.12 106.287C1345.78 103.699 1346.93 100.742 1347.56 97.4143L1368.3 97.5252C1367.52 102.923 1365.84 107.988 1363.25 112.72C1360.7 117.452 1357.36 121.629 1353.21 125.252C1349.07 128.838 1344.23 131.648 1338.69 133.681C1333.14 135.678 1326.98 136.676 1320.22 136.676C1310.24 136.676 1301.33 134.365 1293.49 129.744C1285.65 125.123 1279.48 118.45 1274.97 109.725C1270.46 101 1268.2 90.538 1268.2 78.338C1268.2 66.1011 1270.48 55.6387 1275.02 46.9508C1279.57 38.226 1285.76 31.553 1293.6 26.9318C1301.44 22.3106 1310.31 20 1320.22 20C1326.54 20 1332.42 20.8873 1337.85 22.6618C1343.29 24.4364 1348.13 27.0427 1352.38 30.4809C1356.63 33.8821 1360.13 38.0596 1362.86 43.0136C1365.64 47.9305 1367.45 53.5499 1368.3 59.8717Z" fill="#7528FC"/>
<path d="M1243.64 78.338C1243.64 90.5749 1241.34 101.056 1236.76 109.781C1232.21 118.468 1226 125.123 1218.13 129.744C1210.29 134.365 1201.4 136.676 1191.45 136.676C1181.51 136.676 1172.6 134.365 1164.72 129.744C1156.89 125.086 1150.68 118.413 1146.09 109.725C1141.54 101 1139.27 90.538 1139.27 78.338C1139.27 66.1011 1141.54 55.6387 1146.09 46.9508C1150.68 38.226 1156.89 31.553 1164.72 26.9318C1172.6 22.3106 1181.51 20 1191.45 20C1201.4 20 1210.29 22.3106 1218.13 26.9318C1226 31.553 1232.21 38.226 1236.76 46.9508C1241.34 55.6387 1243.64 66.1011 1243.64 78.338ZM1222.95 78.338C1222.95 69.7241 1221.6 62.4596 1218.9 56.5444C1216.24 50.5923 1212.54 46.1005 1207.81 43.069C1203.08 40.0006 1197.63 38.4663 1191.45 38.4663C1185.28 38.4663 1179.83 40.0006 1175.09 43.069C1170.36 46.1005 1166.65 50.5923 1163.95 56.5444C1161.29 62.4596 1159.96 69.7241 1159.96 78.338C1159.96 86.9519 1161.29 94.2349 1163.95 100.187C1166.65 106.102 1170.36 110.594 1175.09 113.662C1179.83 116.694 1185.28 118.21 1191.45 118.21C1197.63 118.21 1203.08 116.694 1207.81 113.662C1212.54 110.594 1216.24 106.102 1218.9 100.187C1221.6 94.2349 1222.95 86.9519 1222.95 78.338Z" fill="#7528FC"/>
<path d="M1059.49 135.123H1021V21.5527H1060.26C1071.54 21.5527 1081.22 23.8264 1089.32 28.3736C1097.45 32.8839 1103.7 39.3721 1108.06 47.8381C1112.43 56.3041 1114.61 66.4338 1114.61 78.2271C1114.61 90.0574 1112.41 100.224 1108.01 108.727C1103.65 117.23 1097.34 123.755 1089.1 128.302C1080.89 132.85 1071.02 135.123 1059.49 135.123ZM1041.57 117.322H1058.49C1066.4 117.322 1073 115.881 1078.28 112.997C1083.57 110.076 1087.55 105.732 1090.21 99.9652C1092.87 94.161 1094.2 86.915 1094.2 78.2271C1094.2 69.5393 1092.87 62.3302 1090.21 56.5999C1087.55 50.8326 1083.61 46.5257 1078.4 43.679C1073.22 40.7954 1066.79 39.3536 1059.1 39.3536H1041.57V117.322Z" fill="#7528FC"/>
<path d="M878.83 88.3529C878.536 88.3529 878.278 88.5536 878.199 88.8332C872.872 107.582 868.699 122.087 865.695 132.354C865.171 134.132 863.544 135.343 861.694 135.343H841.023C839.188 135.343 837.568 134.146 837.037 132.39L813.857 56.4761C813.04 53.7947 815.047 51.0845 817.851 51.0845H833.947C835.818 51.0845 837.46 52.332 837.969 54.1388L851.499 102.714C851.577 102.994 851.835 103.194 852.129 103.194C852.423 103.194 852.681 103.001 852.76 102.714C855.557 92.8411 857.707 85.4133 859.22 80.4375L866.763 54.1101C867.279 52.3177 868.914 51.0845 870.771 51.0845H888.545C890.416 51.0845 892.051 52.3248 892.56 54.1245L906.247 102.714C906.326 102.994 906.584 103.194 906.878 103.194C907.172 103.194 907.43 103.001 907.509 102.714C913.481 81.8069 918.048 65.6176 921.203 54.1531C921.705 52.3392 923.347 51.0845 925.225 51.0845H939.823C942.626 51.0845 944.634 53.7947 943.816 56.4761L920.644 132.39C920.106 134.146 918.486 135.343 916.65 135.343H896.31C894.46 135.343 892.832 134.125 892.309 132.354L879.482 88.8261C879.403 88.5465 879.145 88.3529 878.851 88.3529H878.83Z" fill="white"/>
<path d="M812.237 95.6087C812.237 104.076 810.422 111.44 806.795 117.706C803.274 123.972 798.384 128.755 792.118 132.053C785.852 135.351 778.818 137 771.01 137H768.372C760.564 137 753.531 135.351 747.264 132.053C740.998 128.755 736.051 123.972 732.423 117.706C728.902 111.44 727.146 104.076 727.146 95.6087V90.8265C727.146 82.359 728.902 74.9957 732.423 68.7293C736.051 62.463 740.998 57.6807 747.264 54.3826C753.531 51.0845 760.564 49.4355 768.372 49.4355H771.01C778.811 49.4355 785.852 51.0845 792.118 54.3826C798.384 57.6807 803.274 62.463 806.795 68.7293C810.422 74.9957 812.237 82.359 812.237 90.8265V95.6087ZM787.831 86.539C787.831 79.8353 786.124 74.7232 782.719 71.2029C779.42 67.6825 775.083 65.9259 769.691 65.9259C764.299 65.9259 759.904 67.6825 756.499 71.2029C753.201 74.7232 751.552 79.8353 751.552 86.539V99.8962C751.552 106.6 753.201 111.712 756.499 115.232C759.904 118.753 764.307 120.509 769.691 120.509C775.076 120.509 779.42 118.753 782.719 115.232C786.124 111.712 787.831 106.6 787.831 99.8962V86.539Z" fill="white"/>
<path d="M680.521 17.8096C678.758 17.236 676.686 16.727 674.298 16.2968C670.67 15.6372 667.48 15.3074 664.734 15.3074C647.806 15.3074 639.338 23.5526 639.338 40.043V51.0916H633.753C631.451 51.0916 629.58 52.9558 629.58 55.2644V63.0723C629.58 65.3738 631.444 67.2451 633.753 67.2451H639.338V131.178C639.338 133.479 641.21 135.351 643.511 135.351H659.242C661.543 135.351 663.414 133.479 663.414 131.178V71.7477C663.414 69.4462 665.278 67.5749 667.587 67.5749H678.865C681.167 67.5749 683.038 65.7108 683.038 63.4021V55.2573C683.038 52.9558 681.167 51.0845 678.865 51.0845H667.587C665.286 51.0845 663.414 49.2132 663.414 46.9117V41.52C663.414 37.5623 664.296 34.9238 666.053 33.6046C667.924 32.2854 670.175 31.6257 672.814 31.6257C674.026 31.6257 675.675 31.848 677.761 32.2854C680.414 32.7012 683.038 30.7223 683.038 28.0337V21.459C683.038 19.8171 682.077 18.3115 680.521 17.8025V17.8096Z" fill="white"/>
<path d="M712.95 16.6267H697.22C694.915 16.6267 693.047 18.4949 693.047 20.7995V131.178C693.047 133.482 694.915 135.351 697.22 135.351H712.95C715.255 135.351 717.123 133.482 717.123 131.178V20.7995C717.123 18.4949 715.255 16.6267 712.95 16.6267Z" fill="white"/>
<path d="M469.071 54.3968C469.824 57.91 474.535 59.0141 477.295 56.7126C483.102 51.8659 489.964 49.4425 497.886 49.4425C506.461 49.4425 513.495 51.7512 518.994 56.3685C524.601 60.9858 527.404 67.6895 527.404 76.4868V131.178C527.404 133.479 525.54 135.351 523.232 135.351H507.501C505.2 135.351 503.328 133.479 503.328 131.178V81.7566C503.328 77.4691 502.066 73.9487 499.535 71.2027C497.119 68.342 493.986 66.9152 490.136 66.9152C485.848 66.9152 482.17 68.5642 479.087 71.8623C476.011 75.0529 474.47 78.9532 474.47 83.5706V131.178C474.47 133.479 472.599 135.351 470.297 135.351H454.567C452.265 135.351 450.394 133.479 450.394 131.178V55.2644C450.394 52.9629 452.265 51.0916 454.567 51.0916H464.992C466.956 51.0916 468.662 52.4753 469.071 54.3968Z" fill="white"/>
<path fill-rule="evenodd" clip-rule="evenodd" d="M412.401 69.3888C414.817 71.6975 416.029 74.7231 416.029 78.4586V80.1004L416.014 80.2725C415.936 81.1902 415.857 82.0793 415.857 82.8321C415.857 83.5133 415.305 84.0653 414.623 84.0725C402.729 84.1227 392.978 84.8397 385.364 86.2162C377.448 87.643 371.239 90.4464 366.73 94.6264C362.334 98.6916 360.133 104.628 360.133 112.436C360.133 122 362.829 128.482 368.214 131.895C373.598 135.3 380.474 137.007 388.827 137.007C397.179 137.007 403.883 134.619 410.078 129.837C412.272 128.145 415.857 129.572 415.857 132.346C415.857 134.01 417.205 135.358 418.875 135.358H435.76C438.061 135.358 439.933 133.486 439.933 131.185V76.4941C439.933 67.6968 437.129 60.993 431.523 56.3757C427.142 52.6976 422.374 51.2493 416.079 50.5611C412.279 49.8226 408.027 49.4497 403.331 49.4497H399.868C392.612 49.4497 386.181 50.4965 380.574 52.5829C374.968 54.6693 370.573 57.5874 367.382 61.3228C364.306 65.0583 362.765 69.2956 362.765 74.0205C362.765 75.7484 364.356 76.9888 366.084 76.9888H385.027C385.758 76.9888 386.346 76.4008 386.346 75.6695C386.346 74.3503 386.898 72.9235 387.995 71.382C389.207 69.8405 390.906 68.5786 393.107 67.5892C395.308 66.4922 397.947 65.9402 401.022 65.9402C406.299 65.9402 410.092 67.0945 412.401 69.4032V69.3888ZM411.677 97.652C413.978 97.5803 415.857 99.4588 415.857 101.76V104.234C415.857 104.435 415.842 104.628 415.814 104.822C415.419 107.252 414.509 109.511 413.06 111.597C411.189 114.458 408.83 116.652 405.97 118.193C403.109 119.735 400.255 120.502 397.395 120.502C393.215 120.502 390.081 119.785 387.995 118.358C386.016 116.817 385.027 114.236 385.027 110.608C385.027 105.99 387.558 102.692 392.612 100.714C397.036 98.9282 403.388 97.903 411.677 97.6448V97.652Z" fill="white"/>
<path d="M293.067 135.343C290.766 135.343 288.895 133.472 288.895 131.171V26.399C288.895 24.0975 290.766 22.2262 293.067 22.2262H310.282C312.583 22.2262 314.455 24.0975 314.455 26.399V110.063C314.455 112.364 316.326 114.236 318.628 114.236H347.557C349.5 114.236 351.193 115.584 351.623 117.476L354.534 130.239C355.129 132.848 353.143 135.336 350.468 135.336H293.067V135.343Z" fill="white"/>
<path d="M617.973 122.811C613.907 118.416 608.021 116.215 600.328 116.215H570.975C567.455 116.215 564.816 115.612 563.059 114.401C561.41 113.189 560.586 111.49 560.586 109.289C560.586 107.532 561.468 105.933 563.224 104.506C565.096 103.08 567.677 102.363 570.975 102.363H582.353C588.842 102.363 594.556 101.208 599.503 98.8996C604.558 96.4834 608.458 93.2928 611.211 89.3351C613.958 85.2699 615.334 80.8175 615.334 75.9779C615.334 73.0024 614.789 70.2062 613.714 67.5964H618.632C620.934 67.5964 622.805 65.7251 622.805 63.4236V55.6158C622.805 53.3143 620.941 51.443 618.632 51.443H593.201C593.158 51.4286 593.115 51.4143 593.072 51.4071C589.007 50.0879 584.389 49.4283 579.22 49.4283H576.582C564.816 49.4283 555.861 51.9018 549.702 56.849C543.658 61.7961 540.632 68.17 540.632 75.9779C540.632 80.0431 541.679 83.8933 543.766 87.5212C544.339 88.4891 544.984 89.414 545.687 90.2959C547.917 93.0849 547.272 98.2615 544.561 100.577C543.751 101.273 542.991 102.033 542.281 102.857C539.643 105.826 538.324 109.346 538.324 113.411C538.324 116.272 538.983 118.91 540.303 121.327C540.446 121.585 540.597 121.843 540.747 122.094C542.482 124.89 542.181 129.378 539.801 131.651C538.79 132.612 537.858 133.68 536.997 134.849C534.689 138.039 533.534 141.61 533.534 145.568C533.534 152.056 535.786 157.111 540.295 160.739C544.913 164.474 550.57 166.345 557.281 166.345H592.075C598.012 166.345 603.396 165.191 608.236 162.883C613.183 160.681 617.084 157.548 619.944 153.483C622.805 149.418 624.232 144.851 624.232 139.796C624.232 132.762 622.145 127.098 617.965 122.811H617.973ZM567.842 67.0802C570.588 64.8791 574.051 63.7821 578.231 63.7821C582.411 63.7821 586.039 64.8791 588.785 67.0802C591.531 69.1666 592.907 72.1349 592.907 75.985C592.907 79.8352 591.531 82.8537 588.785 85.0548C586.039 87.1412 582.518 88.188 578.231 88.188C573.943 88.188 570.588 87.1412 567.842 85.0548C565.096 82.8537 563.719 79.8352 563.719 75.985C563.719 72.1349 565.096 69.1666 567.842 67.0802ZM598.844 148.866C596.757 150.622 594.284 151.504 591.423 151.504H563.719C561.303 151.504 559.209 150.68 557.453 149.031C555.696 147.381 554.814 145.46 554.814 143.259C554.814 141.058 555.696 139.136 557.453 137.487C559.209 135.946 561.303 135.179 563.719 135.179H592.412C595.273 135.179 597.582 135.896 599.338 137.322C601.095 138.864 601.977 140.728 601.977 142.929C601.977 145.238 600.93 147.217 598.844 148.866Z" fill="white"/>
<path d="M172.336 98.0381H201.395C207.095 98.0381 211.712 102.655 211.712 108.355V125.498C211.712 131.198 207.095 135.816 201.395 135.816H176.05C173.311 135.816 170.687 136.905 168.751 138.841L125.259 182.326C123.323 184.262 120.699 185.351 117.96 185.351H97.0533C91.4609 185.351 86.8794 180.892 86.736 175.299L86.2843 157.798C86.1337 151.998 90.7941 147.208 96.6016 147.208H114.598C117.337 147.208 119.961 146.118 121.896 144.183L165.023 101.057C166.958 99.1207 169.583 98.0309 172.321 98.0309L172.336 98.0381Z" fill="white"/>
<path d="M86.055 0.443359H115.114C120.814 0.443359 125.431 5.06068 125.431 10.7606V27.9035C125.431 33.6035 120.814 38.2208 115.114 38.2208H89.7689C87.0301 38.2208 84.4059 39.3106 82.4701 41.2464L38.9783 84.7382C37.0425 86.674 34.4184 87.7638 31.6795 87.7638H10.7725C5.18011 87.7638 0.598636 83.3042 0.455241 77.7118L0.00354829 60.2105C-0.147017 54.4101 4.51332 49.6279 10.3208 49.6279H28.3169C31.0558 49.6279 33.6799 48.5381 35.6157 46.6022L78.7418 3.47616C80.6776 1.54033 83.3018 0.450525 86.0406 0.450525L86.055 0.443359Z" fill="white"/>
<path d="M201.395 22.5262C207.095 22.5262 211.712 27.1435 211.712 32.8435V49.9863C211.712 55.6863 207.095 60.3036 201.395 60.3036H176.05C173.311 60.3036 170.687 61.3934 168.751 63.3293L125.259 106.821C123.324 108.757 120.7 109.847 117.961 109.847H92.5582C89.8982 109.847 87.3386 110.872 85.4171 112.715L36.5911 159.504C34.6696 161.347 32.11 162.372 29.45 162.372H11.6547C5.95473 162.372 1.3374 157.748 1.3374 152.055V134.439C1.3374 128.739 5.95473 124.122 11.6547 124.122H29.321C32.0598 124.122 34.6839 123.032 36.6198 121.096L82.9866 74.7292C84.9224 72.7933 87.5466 71.7035 90.2854 71.7035H114.598C117.337 71.7035 119.961 70.6137 121.897 68.6779L165.023 25.5518C166.959 23.616 169.583 22.5262 172.322 22.5262H201.395Z" fill="white"/>
</svg>
