<svg width="1330" height="185" viewBox="0 0 1330 185" fill="none" xmlns="http://www.w3.org/2000/svg">
<path d="M172.336 97.5947H201.395C207.095 97.5948 211.713 102.212 211.713 107.912V125.055C211.713 130.755 207.095 135.372 201.395 135.372H176.05C173.312 135.372 170.687 136.462 168.752 138.397L125.259 181.883C123.324 183.819 120.699 184.908 117.961 184.908H97.0534C91.4612 184.908 86.8796 180.449 86.736 174.856L86.2848 157.354C86.1343 151.554 90.7947 146.765 96.6022 146.765H114.598C117.337 146.765 119.961 145.675 121.897 143.739L165.023 100.613C166.959 98.6775 169.583 97.5879 172.322 97.5879L172.336 97.5947Z" fill="black"/>
<path fill-rule="evenodd" clip-rule="evenodd" d="M579.22 48.9854C584.39 48.9854 589.007 49.6447 593.072 50.9639C593.115 50.971 593.159 50.9857 593.202 51H618.632C620.941 51 622.805 52.8714 622.805 55.1729V62.9805C622.805 65.2819 620.934 67.1533 618.632 67.1533H613.714C614.79 69.7629 615.335 72.559 615.335 75.5342C615.335 80.3738 613.958 84.8264 611.212 88.8916C608.458 92.8493 604.558 96.0399 599.504 98.4561C594.556 100.765 588.842 101.919 582.353 101.919H570.975C567.677 101.919 565.096 102.636 563.224 104.062C561.468 105.489 560.587 107.089 560.587 108.846C560.587 111.047 561.411 112.745 563.06 113.957C564.817 115.169 567.455 115.771 570.975 115.771H600.328C608.021 115.771 613.908 117.972 617.973 122.367H617.965C622.145 126.655 624.232 132.319 624.232 139.353C624.232 144.407 622.806 148.975 619.945 153.04C617.084 157.105 613.183 160.238 608.236 162.439C603.397 164.748 598.012 165.902 592.076 165.902H557.281C550.57 165.902 544.913 164.03 540.296 160.295C535.786 156.667 533.535 151.612 533.535 145.124C533.535 141.166 534.689 137.596 536.998 134.405C537.858 133.237 538.79 132.169 539.801 131.208C542.182 128.935 542.483 124.447 540.748 121.65C540.597 121.399 540.447 121.141 540.303 120.883C538.984 118.467 538.324 115.828 538.324 112.968C538.324 108.903 539.643 105.382 542.282 102.414C542.992 101.59 543.752 100.829 544.562 100.134C547.272 97.8178 547.917 92.6415 545.687 89.8525C544.985 88.9708 544.34 88.0459 543.766 87.0781C541.68 83.4502 540.632 79.5994 540.632 75.5342C540.633 67.7265 543.659 61.3523 549.703 56.4053C555.862 51.4584 564.816 48.9854 576.582 48.9854H579.22ZM563.719 134.735C561.303 134.735 559.209 135.502 557.453 137.044C555.696 138.693 554.814 140.614 554.814 142.815C554.814 145.016 555.696 146.938 557.453 148.587C559.209 150.236 561.303 151.061 563.719 151.061H591.423C594.284 151.06 596.758 150.178 598.844 148.422C600.93 146.773 601.977 144.794 601.977 142.485C601.977 140.284 601.095 138.42 599.339 136.879C597.582 135.452 595.273 134.735 592.413 134.735H563.719ZM578.231 63.3389C574.051 63.3389 570.588 64.4358 567.842 66.6367C565.096 68.7231 563.719 71.6918 563.719 75.542C563.719 79.392 565.096 82.4103 567.842 84.6113C570.588 86.6976 573.944 87.7441 578.231 87.7441C582.518 87.7441 586.039 86.6977 588.785 84.6113C591.531 82.4103 592.908 79.392 592.908 75.542C592.908 71.6918 591.531 68.7231 588.785 66.6367C586.039 64.4357 582.411 63.3389 578.231 63.3389Z" fill="black"/>
<path d="M201.395 22.083C207.095 22.083 211.713 26.7004 211.713 32.4004V49.543C211.713 55.2429 207.095 59.8604 201.395 59.8604H176.05C173.312 59.8604 170.687 60.95 168.752 62.8857L125.259 106.378C123.324 108.314 120.699 109.403 117.961 109.403H92.5582C89.8983 109.403 87.339 110.429 85.4176 112.271L36.5914 159.061C34.6699 160.903 32.1098 161.929 29.4498 161.929H11.6549C5.95497 161.929 1.33753 157.304 1.33753 151.611V133.995C1.33777 128.295 5.95512 123.679 11.6549 123.679H29.3209C32.0598 123.679 34.6839 122.588 36.6198 120.652L82.9869 74.2861C84.9228 72.3503 87.5469 71.2598 90.2858 71.2598H114.598C117.337 71.2598 119.961 70.1702 121.897 68.2344L165.023 25.1084C166.959 23.1726 169.583 22.083 172.322 22.083H201.395Z" fill="black"/>
<path fill-rule="evenodd" clip-rule="evenodd" d="M403.332 49.0068C408.028 49.0069 412.279 49.3797 416.079 50.1182C422.374 50.8065 427.142 52.2545 431.523 55.9326C437.13 60.5499 439.933 67.2536 439.933 76.0508V130.741C439.933 133.043 438.062 134.914 435.76 134.914H418.876C417.205 134.914 415.857 133.567 415.857 131.903C415.857 129.129 412.272 127.701 410.078 129.394C403.883 134.176 397.179 136.563 388.827 136.563C380.474 136.563 373.598 134.857 368.214 131.451C362.829 128.038 360.134 121.557 360.133 111.993C360.133 104.185 362.335 98.2479 366.73 94.1826C371.24 90.0028 377.449 87.1992 385.364 85.7725C392.978 84.3959 402.729 83.6791 414.624 83.6289C415.305 83.6217 415.857 83.0698 415.857 82.3887C415.857 81.6359 415.935 80.7468 416.014 79.8291L416.029 79.6572V78.0156C416.029 74.2802 414.817 71.254 412.401 68.9453V68.96C410.092 66.6514 406.3 65.4971 401.023 65.4971C397.947 65.4971 395.308 66.0485 393.107 67.1455C390.906 68.1349 389.207 69.3971 387.996 70.9385C386.899 72.48 386.346 73.9073 386.346 75.2266C386.346 75.9577 385.758 76.5449 385.027 76.5449H366.085C364.357 76.5449 362.765 75.305 362.765 73.5771C362.765 68.8523 364.307 64.6153 367.382 60.8799C370.573 57.1444 374.968 54.226 380.575 52.1396C386.182 50.0533 392.613 49.0068 399.869 49.0068H403.332ZM411.677 97.2012C403.389 97.4593 397.037 98.4853 392.613 100.271C387.558 102.249 385.027 105.547 385.027 110.164C385.027 113.792 386.017 116.374 387.996 117.915C390.082 119.342 393.215 120.059 397.395 120.059C400.256 120.059 403.109 119.291 405.969 117.75C408.83 116.209 411.19 114.015 413.061 111.154C414.509 109.068 415.42 106.808 415.814 104.378C415.843 104.185 415.857 103.991 415.857 103.79V101.317C415.857 99.016 413.979 97.1375 411.677 97.209V97.2012Z" fill="black"/>
<path fill-rule="evenodd" clip-rule="evenodd" d="M771.01 48.9922C778.811 48.9922 785.852 50.6414 792.119 53.9395C798.385 57.2375 803.274 62.0199 806.795 68.2861C810.422 74.5524 812.237 81.9155 812.237 90.3828V95.165C812.237 103.633 810.422 110.996 806.795 117.263C803.274 123.529 798.385 128.311 792.119 131.609C785.852 134.907 778.818 136.557 771.01 136.557H768.372C760.564 136.557 753.531 134.907 747.264 131.609C740.998 128.311 736.05 123.529 732.422 117.263C728.902 110.996 727.146 103.632 727.146 95.165V90.3828C727.146 81.9156 728.902 74.5524 732.422 68.2861C736.05 62.0198 740.998 57.2375 747.264 53.9395C753.531 50.6414 760.564 48.9922 768.372 48.9922H771.01ZM769.691 65.4824C764.3 65.4825 759.904 67.2395 756.499 70.7598C753.201 74.2801 751.552 79.3922 751.552 86.0957V99.4531C751.552 106.157 753.201 111.269 756.499 114.789C759.904 118.309 764.307 120.066 769.691 120.066C775.075 120.066 779.42 118.309 782.718 114.789C786.124 111.269 787.831 106.157 787.831 99.4531V86.0957C787.831 79.392 786.124 74.2801 782.718 70.7598C779.42 67.2395 775.083 65.4824 769.691 65.4824Z" fill="black"/>
<path d="M497.886 48.999C506.461 48.999 513.496 51.3075 518.995 55.9248C524.601 60.5421 527.405 67.2467 527.405 76.0439V130.734C527.405 133.036 525.541 134.907 523.232 134.907H507.502C505.2 134.907 503.329 133.036 503.329 130.734V81.3135C503.329 77.0261 502.067 73.5057 499.536 70.7598C497.12 67.8991 493.986 66.4717 490.136 66.4717C485.849 66.4717 482.171 68.1209 479.088 71.4189C476.012 74.6094 474.47 78.5097 474.47 83.127V130.734C474.47 133.036 472.599 134.907 470.297 134.907H454.567C452.266 134.907 450.394 133.036 450.394 130.734V54.8213C450.394 52.5198 452.266 50.6484 454.567 50.6484H464.992C466.956 50.6485 468.662 52.0319 469.071 53.9531C469.824 57.4663 474.535 58.571 477.296 56.2695C483.103 51.4229 489.964 48.9991 497.886 48.999Z" fill="black"/>
<path d="M664.734 14.8643C667.48 14.8643 670.671 15.1939 674.298 15.8535C676.686 16.2837 678.757 16.7927 680.521 17.3662V17.3594C682.077 17.8684 683.038 19.3738 683.038 21.0156V27.5898C683.038 30.2785 680.414 32.2576 677.761 31.8418C675.675 31.4044 674.026 31.1826 672.814 31.1826C670.176 31.1826 667.925 31.842 666.053 33.1611C664.297 34.4803 663.415 37.1187 663.415 41.0762V46.4688C663.415 48.77 665.286 50.6406 667.588 50.6406H678.866C681.167 50.6409 683.037 52.5123 683.038 54.8135V62.959C683.038 65.2674 681.167 67.1316 678.866 67.1318H667.588C665.279 67.1318 663.415 69.0032 663.415 71.3047V130.734C663.415 133.036 661.543 134.907 659.242 134.907H643.511C641.21 134.907 639.339 133.036 639.339 130.734V66.8018H633.754C631.445 66.8018 629.581 64.9304 629.581 62.6289V54.8213C629.581 52.5126 631.452 50.6484 633.754 50.6484H639.339V39.5996C639.339 23.1092 647.806 14.8643 664.734 14.8643Z" fill="black"/>
<path d="M712.95 16.1836C715.254 16.1836 717.123 18.0519 717.123 20.3564V130.734C717.123 133.039 715.254 134.907 712.95 134.907H697.219C694.915 134.907 693.047 133.039 693.047 130.734V20.3564C693.047 18.052 694.915 16.1838 697.219 16.1836H712.95Z" fill="black"/>
<path d="M310.282 21.7832C312.583 21.7832 314.455 23.6546 314.455 25.9561V109.619C314.455 111.921 316.326 113.792 318.628 113.792H347.558C349.501 113.792 351.193 115.141 351.623 117.033L354.534 129.795C355.129 132.405 353.143 134.893 350.468 134.893H293.068V134.9C290.767 134.9 288.895 133.029 288.895 130.728V25.9561C288.895 23.6546 290.767 21.7832 293.068 21.7832H310.282Z" fill="black"/>
<path d="M833.947 50.6416C835.818 50.6416 837.46 51.8886 837.969 53.6953L851.499 102.271C851.578 102.55 851.836 102.751 852.13 102.751C852.423 102.751 852.682 102.557 852.76 102.271C855.557 92.3978 857.708 84.9699 859.22 79.9941L866.763 53.667C867.28 51.8746 868.914 50.6416 870.771 50.6416H888.545C890.416 50.6416 892.051 51.8812 892.56 53.6807L906.247 102.271C906.326 102.55 906.584 102.751 906.878 102.751C907.172 102.751 907.431 102.557 907.509 102.271C913.482 81.3637 918.048 65.1744 921.203 53.71C921.705 51.8961 923.347 50.6417 925.225 50.6416H939.823C942.626 50.6416 944.633 53.3517 943.816 56.0332L920.644 131.946C920.106 133.703 918.485 134.9 916.65 134.9H896.31C894.46 134.9 892.833 133.681 892.309 131.91L879.482 88.3828C879.403 88.1032 879.145 87.9092 878.851 87.9092H878.83C878.536 87.9093 878.278 88.1102 878.199 88.3896C872.872 107.138 868.699 121.643 865.695 131.91C865.172 133.688 863.544 134.9 861.694 134.9H841.024C839.189 134.9 837.568 133.703 837.038 131.946L813.858 56.0332C813.041 53.3517 815.048 50.6416 817.851 50.6416H833.947Z" fill="black"/>
<path d="M115.114 0C120.814 0 125.431 4.61743 125.431 10.3174V27.46C125.431 33.1599 120.814 37.7773 115.114 37.7773H89.7692C87.0304 37.7773 84.4062 38.867 82.4703 40.8027L38.9782 84.2949C37.0423 86.2306 34.418 87.3203 31.6793 87.3203H10.7731C5.1807 87.3203 0.599138 82.8609 0.455697 77.2686L0.0035481 59.7676C-0.147015 53.9673 4.5135 49.1847 10.3209 49.1846H28.317C31.0558 49.1846 33.68 48.0949 35.6159 46.1592L78.7418 3.0332C80.6776 1.09742 83.3019 0.00689882 86.0407 0.00683594L86.0553 0H115.114Z" fill="black"/>
<path d="M1032.96 135.705H1004V50.1694H1033.55C1042.03 50.1694 1049.32 51.8818 1055.41 55.3066C1061.53 58.7035 1066.23 63.5901 1069.52 69.9663C1072.8 76.3425 1074.44 83.9717 1074.44 92.8538C1074.44 101.764 1072.79 109.421 1069.48 115.825C1066.19 122.229 1061.45 127.143 1055.25 130.568C1049.07 133.993 1041.64 135.705 1032.96 135.705ZM1019.48 122.299H1032.21C1038.16 122.299 1043.13 121.213 1047.11 119.041C1051.09 116.841 1054.08 113.57 1056.08 109.226C1058.08 104.854 1059.08 99.3971 1059.08 92.8538C1059.08 86.3105 1058.08 80.881 1056.08 76.5653C1054.08 72.2216 1051.11 68.9779 1047.19 66.8339C1043.3 64.6621 1038.46 63.5762 1032.67 63.5762H1019.48V122.299Z" fill="#9F9FA9"/>
<path d="M1165.52 92.9374C1165.52 102.154 1163.79 110.047 1160.34 116.618C1156.92 123.162 1152.25 128.174 1146.32 131.654C1140.42 135.134 1133.73 136.875 1126.25 136.875C1118.77 136.875 1112.06 135.134 1106.14 131.654C1100.24 128.146 1095.56 123.12 1092.11 116.577C1088.69 110.006 1086.98 102.126 1086.98 92.9374C1086.98 83.7211 1088.69 75.8413 1092.11 69.2981C1095.56 62.7269 1100.24 57.7012 1106.14 54.2207C1112.06 50.7402 1118.77 49 1126.25 49C1133.73 49 1140.42 50.7402 1146.32 54.2207C1152.25 57.7012 1156.92 62.7269 1160.34 69.2981C1163.79 75.8413 1165.52 83.7211 1165.52 92.9374ZM1149.95 92.9374C1149.95 86.4498 1148.94 80.9785 1146.91 76.5235C1144.9 72.0407 1142.12 68.6577 1138.56 66.3745C1135 64.0634 1130.9 62.9079 1126.25 62.9079C1121.6 62.9079 1117.5 64.0634 1113.94 66.3745C1110.38 68.6577 1107.58 72.0407 1105.55 76.5235C1103.55 80.9785 1102.55 86.4498 1102.55 92.9374C1102.55 99.4249 1103.55 104.91 1105.55 109.393C1107.58 113.848 1110.38 117.231 1113.94 119.542C1117.5 121.825 1121.6 122.967 1126.25 122.967C1130.9 122.967 1135 121.825 1138.56 119.542C1142.12 117.231 1144.9 113.848 1146.91 109.393C1148.94 104.91 1149.95 99.4249 1149.95 92.9374Z" fill="#9F9FA9"/>
<path d="M1253.31 79.0294H1237.7C1237.26 76.4678 1236.44 74.1985 1235.24 72.2216C1234.04 70.2169 1232.56 68.5184 1230.77 67.1262C1228.99 65.7341 1226.96 64.6899 1224.68 63.9938C1222.43 63.2699 1219.99 62.9079 1217.38 62.9079C1212.73 62.9079 1208.62 64.0774 1205.03 66.4162C1201.44 68.7273 1198.63 72.1242 1196.6 76.607C1194.57 81.062 1193.55 86.5055 1193.55 92.9374C1193.55 99.4806 1194.57 104.994 1196.6 109.477C1198.66 113.931 1201.47 117.301 1205.03 119.584C1208.62 121.839 1212.72 122.967 1217.34 122.967C1219.9 122.967 1222.29 122.633 1224.52 121.964C1226.77 121.268 1228.79 120.252 1230.57 118.916C1232.37 117.579 1233.89 115.936 1235.11 113.987C1236.37 112.038 1237.23 109.811 1237.7 107.305L1253.31 107.388C1252.73 111.453 1251.46 115.268 1249.51 118.832C1247.59 122.396 1245.07 125.542 1241.96 128.271C1238.84 130.972 1235.2 133.088 1231.03 134.619C1226.85 136.123 1222.22 136.875 1217.13 136.875C1209.62 136.875 1202.91 135.134 1197.01 131.654C1191.12 128.174 1186.47 123.148 1183.08 116.577C1179.68 110.006 1177.99 102.126 1177.99 92.9374C1177.99 83.7211 1179.7 75.8413 1183.12 69.2981C1186.54 62.7269 1191.2 57.7012 1197.1 54.2207C1203 50.7402 1209.67 49 1217.13 49C1221.89 49 1226.31 49.6682 1230.4 51.0047C1234.49 52.3412 1238.13 54.3042 1241.33 56.8937C1244.53 59.4553 1247.16 62.6016 1249.22 66.3327C1251.31 70.0359 1252.67 74.2682 1253.31 79.0294Z" fill="#9F9FA9"/>
<path d="M1313.93 73.6834C1313.54 70.0359 1311.9 67.1959 1309.01 65.1633C1306.14 63.1307 1302.42 62.1144 1297.83 62.1144C1294.6 62.1144 1291.83 62.6016 1289.52 63.5762C1287.21 64.5507 1285.45 65.8733 1284.22 67.5439C1283 69.2145 1282.37 71.1218 1282.34 73.2658C1282.34 75.0478 1282.75 76.5931 1283.55 77.9018C1284.39 79.2104 1285.52 80.3242 1286.93 81.243C1288.35 82.134 1289.92 82.8858 1291.65 83.4983C1293.37 84.1109 1295.11 84.626 1296.87 85.0437L1304.88 87.0484C1308.11 87.8002 1311.21 88.8165 1314.18 90.0973C1317.19 91.3781 1319.87 92.993 1322.24 94.9421C1324.63 96.8912 1326.52 99.2439 1327.91 102C1329.3 104.757 1330 107.987 1330 111.69C1330 116.702 1328.72 121.115 1326.16 124.93C1323.6 128.716 1319.9 131.682 1315.06 133.826C1310.25 135.942 1304.42 137 1297.58 137C1290.93 137 1285.15 135.97 1280.26 133.909C1275.39 131.849 1271.58 128.842 1268.82 124.888C1266.1 120.934 1264.62 116.117 1264.4 110.437H1279.63C1279.85 113.416 1280.77 115.894 1282.39 117.871C1284 119.848 1286.1 121.324 1288.69 122.299C1291.3 123.273 1294.22 123.76 1297.45 123.76C1300.82 123.76 1303.77 123.259 1306.3 122.257C1308.86 121.227 1310.86 119.807 1312.31 117.997C1313.75 116.159 1314.49 114.015 1314.52 111.565C1314.49 109.337 1313.84 107.5 1312.56 106.052C1311.28 104.576 1309.48 103.351 1307.17 102.376C1304.89 101.374 1302.22 100.483 1299.16 99.7034L1289.44 97.1974C1282.4 95.3876 1276.84 92.645 1272.75 88.9696C1268.68 85.2664 1266.65 80.352 1266.65 74.2264C1266.65 69.1867 1268.02 64.7735 1270.74 60.9867C1273.5 57.2 1277.24 54.2625 1281.97 52.1742C1286.7 50.0581 1292.05 49 1298.03 49C1304.1 49 1309.41 50.0581 1313.98 52.1742C1318.57 54.2625 1322.17 57.1721 1324.78 60.9032C1327.4 64.6064 1328.75 68.8665 1328.83 73.6834H1313.93Z" fill="#9F9FA9"/>
</svg>
