<svg width="744" height="186" viewBox="0 0 744 186" fill="none" xmlns="http://www.w3.org/2000/svg">
<path d="M722.062 62.7735C721.544 57.9305 719.363 54.1596 715.518 51.4608C711.71 48.7621 706.756 47.4127 700.656 47.4127C696.368 47.4127 692.689 48.0596 689.621 49.3536C686.552 50.6475 684.205 52.4036 682.578 54.6217C680.951 56.8399 680.12 59.3723 680.083 62.219C680.083 64.585 680.619 66.6369 681.691 68.3744C682.8 70.112 684.297 71.5908 686.183 72.8108C688.068 73.9938 690.157 74.992 692.449 75.8053C694.741 76.6186 697.052 77.3026 699.381 77.8571L710.028 80.5189C714.317 81.5171 718.439 82.8665 722.394 84.5671C726.387 86.2677 729.955 88.4119 733.097 90.9998C736.276 93.5877 738.79 96.7116 740.639 100.372C742.487 104.032 743.412 108.32 743.412 113.237C743.412 119.892 741.711 125.751 738.31 130.816C734.909 135.844 729.992 139.781 723.559 142.628C717.163 145.438 709.418 146.842 700.324 146.842C691.488 146.842 683.817 145.474 677.31 142.739C670.84 140.003 665.775 136.01 662.115 130.761C658.492 125.511 656.533 119.115 656.237 111.573H676.478C676.774 115.529 677.994 118.819 680.138 121.444C682.282 124.069 685.074 126.028 688.512 127.322C691.987 128.616 695.869 129.263 700.157 129.263C704.63 129.263 708.549 128.598 711.914 127.267C715.315 125.899 717.977 124.014 719.899 121.611C721.821 119.171 722.801 116.324 722.838 113.071C722.801 110.113 721.932 107.673 720.232 105.751C718.531 103.791 716.147 102.165 713.078 100.871C710.047 99.5398 706.497 98.3568 702.431 97.3216L689.51 93.9943C680.157 91.5913 672.763 87.9498 667.328 83.0698C661.931 78.1529 659.232 71.6277 659.232 63.4944C659.232 56.8029 661.043 50.9433 664.666 45.9154C668.326 40.8875 673.299 36.9873 679.584 34.2145C685.868 31.4048 692.985 30 700.934 30C708.993 30 716.054 31.4048 722.117 34.2145C728.217 36.9873 733.005 40.8506 736.48 45.8045C739.955 50.7214 741.748 56.3778 741.859 62.7735H722.062Z" fill="white"/>
<path d="M633.5 69.8717H612.76C612.168 66.4705 611.078 63.4575 609.488 60.8326C607.898 58.1708 605.921 55.9157 603.555 54.0672C601.189 52.2187 598.49 50.8324 595.458 49.9081C592.464 48.9469 589.229 48.4663 585.754 48.4663C579.58 48.4663 574.108 50.019 569.339 53.1245C564.57 56.1929 560.836 60.7032 558.137 66.6553C555.439 72.5705 554.089 79.798 554.089 88.338C554.089 97.0259 555.439 104.346 558.137 110.298C560.873 116.213 564.607 120.686 569.339 123.718C574.108 126.712 579.561 128.21 585.698 128.21C589.099 128.21 592.279 127.766 595.236 126.879C598.231 125.955 600.911 124.605 603.277 122.831C605.68 121.056 607.695 118.875 609.322 116.287C610.985 113.699 612.132 110.742 612.76 107.414L633.5 107.525C632.724 112.923 631.041 117.988 628.454 122.72C625.903 127.452 622.557 131.629 618.416 135.252C614.276 138.838 609.433 141.648 603.887 143.681C598.342 145.678 592.186 146.676 585.421 146.676C575.439 146.676 566.53 144.365 558.692 139.744C550.854 135.123 544.681 128.45 540.17 119.725C535.66 111 533.405 100.538 533.405 88.338C533.405 76.1011 535.678 65.6387 540.226 56.9508C544.773 48.226 550.965 41.553 558.803 36.9318C566.64 32.3106 575.513 30 585.421 30C591.743 30 597.621 30.8873 603.055 32.6618C608.49 34.4364 613.333 37.0427 617.585 40.4809C621.836 43.8821 625.33 48.0596 628.065 53.0136C630.838 57.9305 632.65 63.5499 633.5 69.8717Z" fill="white"/>
<path d="M508.838 88.338C508.838 100.575 506.546 111.056 501.961 119.781C497.414 128.468 491.203 135.123 483.329 139.744C475.491 144.365 466.6 146.676 456.655 146.676C446.71 146.676 437.801 144.365 429.926 139.744C422.089 135.086 415.878 128.413 411.294 119.725C406.746 111 404.473 100.538 404.473 88.338C404.473 76.1011 406.746 65.6387 411.294 56.9508C415.878 48.226 422.089 41.553 429.926 36.9318C437.801 32.3106 446.71 30 456.655 30C466.6 30 475.491 32.3106 483.329 36.9318C491.203 41.553 497.414 48.226 501.961 56.9508C506.546 65.6387 508.838 76.1011 508.838 88.338ZM488.153 88.338C488.153 79.7241 486.804 72.4596 484.105 66.5444C481.443 60.5923 477.746 56.1005 473.014 53.069C468.282 50.0006 462.829 48.4663 456.655 48.4663C450.481 48.4663 445.028 50.0006 440.296 53.069C435.564 56.1005 431.849 60.5923 429.15 66.5444C426.488 72.4596 425.157 79.7241 425.157 88.338C425.157 96.9519 426.488 104.235 429.15 110.187C431.849 116.102 435.564 120.594 440.296 123.662C445.028 126.694 450.481 128.21 456.655 128.21C462.829 128.21 468.282 126.694 473.014 123.662C477.746 120.594 481.443 116.102 484.105 110.187C486.804 104.235 488.153 96.9519 488.153 88.338Z" fill="white"/>
<path d="M324.687 145.123H286.202V31.5527H325.463C336.739 31.5527 346.425 33.8264 354.522 38.3736C362.655 42.8839 368.903 49.3721 373.265 57.8381C377.628 66.3041 379.809 76.4338 379.809 88.2271C379.809 100.057 377.609 110.224 373.21 118.727C368.847 127.23 362.544 133.755 354.3 138.302C346.092 142.85 336.222 145.123 324.687 145.123ZM306.775 127.322H323.689C331.6 127.322 338.199 125.881 343.486 122.997C348.773 120.076 352.747 115.732 355.409 109.965C358.071 104.161 359.402 96.915 359.402 88.2271C359.402 79.5393 358.071 72.3302 355.409 66.5999C352.747 60.8326 348.81 56.5257 343.597 53.679C338.421 50.7954 331.989 49.3536 324.299 49.3536H306.775V127.322Z" fill="white"/>
<path d="M172.336 98.0381H201.395C207.095 98.0381 211.712 102.655 211.712 108.355V125.498C211.712 131.198 207.095 135.816 201.395 135.816H176.05C173.311 135.816 170.687 136.905 168.751 138.841L125.259 182.326C123.323 184.262 120.699 185.351 117.96 185.351H97.0533C91.4609 185.351 86.8794 180.892 86.736 175.299L86.2843 157.798C86.1337 151.998 90.7941 147.208 96.6016 147.208H114.598C117.337 147.208 119.961 146.118 121.896 144.183L165.023 101.057C166.958 99.1207 169.583 98.0309 172.321 98.0309L172.336 98.0381Z" fill="white"/>
<path d="M86.055 0.443359H115.114C120.814 0.443359 125.431 5.06068 125.431 10.7606V27.9035C125.431 33.6035 120.814 38.2208 115.114 38.2208H89.7689C87.0301 38.2208 84.4059 39.3106 82.4701 41.2464L38.9783 84.7382C37.0425 86.674 34.4184 87.7638 31.6795 87.7638H10.7725C5.18011 87.7638 0.598636 83.3042 0.455241 77.7118L0.00354829 60.2105C-0.147017 54.4101 4.51332 49.6279 10.3208 49.6279H28.3169C31.0558 49.6279 33.6799 48.5381 35.6157 46.6022L78.7418 3.47616C80.6776 1.54033 83.3018 0.450525 86.0406 0.450525L86.055 0.443359Z" fill="white"/>
<path d="M201.395 22.5262C207.095 22.5262 211.712 27.1435 211.712 32.8435V49.9863C211.712 55.6863 207.095 60.3036 201.395 60.3036H176.05C173.311 60.3036 170.687 61.3934 168.751 63.3293L125.259 106.821C123.324 108.757 120.7 109.847 117.961 109.847H92.5582C89.8982 109.847 87.3386 110.872 85.4171 112.715L36.5911 159.504C34.6696 161.347 32.11 162.372 29.45 162.372H11.6547C5.95473 162.372 1.3374 157.748 1.3374 152.055V134.439C1.3374 128.739 5.95473 124.122 11.6547 124.122H29.321C32.0598 124.122 34.6839 123.032 36.6198 121.096L82.9866 74.7292C84.9224 72.7933 87.5466 71.7035 90.2854 71.7035H114.598C117.337 71.7035 119.961 70.6137 121.897 68.6779L165.023 25.5518C166.959 23.616 169.583 22.5262 172.322 22.5262H201.395Z" fill="white"/>
</svg>
