<svg id="Layer_1" data-name="Layer 1" xmlns="http://www.w3.org/2000/svg" xmlns:xlink="http://www.w3.org/1999/xlink" viewBox="0 0 1000 1000"><defs><style>.cls-1{fill:url(#linear-gradient);}.cls-2{fill:#eb0d8c;}</style><linearGradient id="linear-gradient" x1="204.46" y1="9969.45" x2="784.6" y2="9969.45" gradientTransform="matrix(1, 0, 0, -1, -5.21, 10469.45)" gradientUnits="userSpaceOnUse"><stop offset="0.02" stop-color="#fdb515"/><stop offset="0.1" stop-color="#fba91e"/><stop offset="0.26" stop-color="#f68935"/><stop offset="0.47" stop-color="#f05656"/><stop offset="0.73" stop-color="#ed1684"/><stop offset="0.77" stop-color="#eb0d8c"/></linearGradient></defs><path class="cls-1" d="M512.4,281H255.71l25.46,87.46H512.73a44,44,0,0,1,43.9,43.9v43.9H337.47a131.36,131.36,0,1,0,0,262.72H512.4c72.38,0,131.36-59,131-131.36V412.37C643.43,340,584.78,281.34,512.4,281ZM556,586.63a43.76,43.76,0,0,1-43.56,43.89H337.47a43.82,43.82,0,0,1,0-87.46H556Z"/><polygon class="cls-2" points="768.76 456.27 689 456.27 689 543.73 793.89 543.73 768.76 456.27"/></svg>