<svg xmlns="http://www.w3.org/2000/svg" xmlns:v="https://svgstorm.com"
viewBox = "0 0 330 330"
width="330"
height="330">
<g fill="None" fill-opacity="0.0" stroke="#F7FD34" stroke-opacity="1.00" stroke-width="0.3"><path d="
M 0.00 330.00 
L 330.00 330.00
L 330.00 0.00
L 0.00 0.00
L 0.00 330.00
M 54.00 67.00 
C 57.14 63.32 62.40 55.70 67.00 54.00
C 71.46 52.35 77.46 60.98 81.00 64.00
C 83.53 66.16 85.72 68.72 88.00 71.00
C 89.58 72.35 91.47 73.69 93.00 75.00
C 95.53 77.16 97.72 79.72 100.00 82.00
C 110.98 91.38 121.14 101.72 132.00 111.00
C 134.53 113.16 136.72 115.72 139.00 118.00
C 143.56 121.90 154.96 138.50 161.69 132.69 C 168.43 126.89 159.30 112.57 157.22 103.78 C 155.15 94.98 150.56 82.30 147.22 72.78 C 143.89 63.26 141.98 52.01 138.02 41.98 C 134.07 31.94 128.00 18.84 143.00 19.00 C 158.01 19.17 166.43 14.28 181.00 18.00
C 179.86 38.82 182.51 64.68 181.00 85.00 C 179.49 105.32 187.25 128.85 172.75 143.75 C 158.25 158.66 140.27 142.80 125.92 136.08 C 111.58 129.35 96.84 119.78 82.30 112.70 C 67.77 105.61 52.91 96.39 38.00 90.00
C 41.19 81.27 48.64 74.61 54.00 67.00
M 260.00 50.00 
C 266.41 53.97 274.94 61.46 279.00 68.00
C 281.42 71.90 278.58 72.94 275.00 76.00
C 258.38 90.21 243.23 109.35 229.00 126.00
C 226.53 128.89 223.61 131.39 221.00 134.00
C 213.01 143.35 209.92 144.20 201.75 154.75 C 193.58 165.31 211.91 167.45 220.68 161.68 C 229.45 155.91 241.46 156.28 251.02 152.02 C 260.59 147.77 271.36 145.91 281.22 142.22 C 291.09 138.54 301.89 135.96 312.00 133.00
C 315.36 146.80 316.38 161.24 316.00 176.00
C 315.89 177.49 316.07 180.85 315.00 182.00
C 311.09 186.19 300.17 181.91 294.00 183.00 C 287.83 184.09 277.76 182.66 271.00 183.00 C 264.24 183.34 255.91 183.26 249.00 183.00 C 242.09 182.74 232.66 183.95 226.00 183.00 C 219.34 182.05 209.07 185.75 204.00 182.00
C 203.50 182.00 203.00 182.00 203.00 182.00
C 179.00 178.08 181.32 152.34 191.92 136.92 C 202.53 121.50 208.53 103.92 217.92 87.92 C 227.32 71.93 234.86 55.11 244.00 39.00
C 249.93 41.75 254.54 46.53 260.00 50.00
M 129.00 153.00 
C 152.90 157.95 149.78 182.42 139.23 198.23 C 128.68 214.04 123.13 230.63 113.69 246.69 C 104.26 262.76 96.98 278.76 88.00 295.00
C 79.87 290.92 73.42 284.20 66.00 279.00
C 62.00 275.84 58.12 271.95 55.00 268.00
C 53.90 266.60 51.84 264.90 52.00 263.00
C 52.25 260.01 60.71 253.60 63.00 252.00
C 63.20 251.60 63.00 251.00 63.00 251.00
C 63.78 248.06 66.90 246.94 69.00 245.00
C 71.61 242.58 74.51 239.49 77.00 237.00
C 86.29 226.13 96.75 215.82 106.00 205.00
C 108.16 202.47 110.72 200.28 113.00 198.00
C 118.29 191.81 120.61 187.61 127.25 182.25 C 133.89 176.89 132.48 166.29 122.98 168.98 C 113.47 171.66 108.47 174.22 99.78 176.78 C 91.08 179.33 84.34 181.11 75.98 183.98 C 67.61 186.84 61.85 187.96 53.32 191.32 C 44.79 194.68 38.85 194.14 29.78 198.78 C 20.70 203.42 16.12 194.75 17.00 185.00 C 17.89 175.24 12.76 164.58 16.00 155.00
C 18.33 148.09 34.43 153.12 42.00 152.00 C 49.57 150.88 62.33 152.44 71.00 152.00 C 79.67 151.56 90.89 152.04 100.00 152.00 C 109.11 151.96 120.60 151.26 129.00 153.00
M 177.00 185.00 
C 197.94 189.64 215.77 206.07 235.69 214.31 C 255.62 222.54 273.86 236.81 294.00 245.00
C 289.92 253.13 283.20 259.58 278.00 267.00
C 273.79 272.33 268.11 276.67 264.00 282.00
C 260.97 281.59 258.74 278.26 257.00 276.00
C 250.15 270.15 243.72 263.74 237.00 258.00
C 234.47 255.84 232.28 253.28 230.00 251.00
C 228.06 249.34 225.89 247.62 224.00 246.00
C 221.47 243.84 219.28 241.28 217.00 239.00
C 206.74 230.23 197.47 220.27 187.00 212.00
C 183.38 209.14 180.81 205.66 177.00 203.00
C 171.59 199.83 168.12 203.80 168.00 209.00
C 173.06 244.62 193.39 277.63 200.00 313.00
C 185.85 316.29 171.11 317.46 156.00 317.00
C 154.85 316.88 151.88 316.79 151.00 316.00
C 146.79 312.23 151.20 300.99 150.00 295.00 C 148.80 289.01 150.45 279.69 150.00 273.00 C 149.55 266.31 150.00 257.97 150.00 251.00 C 150.00 244.03 149.56 236.00 150.00 229.00 C 150.44 222.00 148.43 213.04 151.00 207.00
C 151.00 206.50 150.98 205.50 151.00 205.00
C 151.39 195.43 160.37 187.51 169.00 185.00
C 172.06 184.11 174.05 184.35 177.00 185.00 Z"/>
</g>
<g fill="None" fill-opacity="0.0" stroke="#010201" stroke-opacity="1.00" stroke-width="0.3"><path d="
M 139.00 118.00 
C 136.47 115.84 134.28 113.28 132.00 111.00
C 121.14 101.72 110.98 91.38 100.00 82.00
C 97.47 79.84 95.28 77.28 93.00 75.00
C 91.47 73.69 89.58 72.35 88.00 71.00
C 85.47 68.84 83.28 66.28 81.00 64.00
C 77.46 60.98 71.46 52.35 67.00 54.00
C 63.17 55.80 57.13 63.87 54.00 67.00
C 48.64 74.61 41.19 81.27 38.00 90.00
C 52.91 96.39 67.77 105.61 82.30 112.70 C 96.84 119.78 111.58 129.35 125.92 136.08 C 140.27 142.80 158.25 158.66 172.75 143.75 C 187.25 128.85 179.49 105.32 181.00 85.00 C 182.51 64.68 179.86 38.82 181.00 18.00
C 166.43 14.28 158.01 19.17 143.00 19.00 C 128.00 18.84 134.07 31.94 138.02 41.98 C 141.98 52.01 143.89 63.26 147.22 72.78 C 150.56 82.30 155.15 94.98 157.22 103.78 C 159.30 112.57 168.43 126.89 161.69 132.69 C 154.96 138.50 143.56 121.90 139.00 118.00 Z"/>
</g>
<g fill="None" fill-opacity="0.0" stroke="#010101" stroke-opacity="1.00" stroke-width="0.3"><path d="
M 203.00 182.00 
C 207.08 177.75 217.71 182.21 224.00 181.00 C 230.29 179.79 240.07 181.59 247.00 181.00 C 253.93 180.41 261.75 181.29 269.00 181.00 C 276.25 180.71 284.64 181.22 292.00 181.00 C 299.36 180.78 307.01 181.70 314.00 180.00
C 313.70 178.43 314.25 176.39 316.00 176.00
C 316.38 161.24 315.36 146.80 312.00 133.00
C 301.89 135.96 291.09 138.54 281.22 142.22 C 271.36 145.91 260.59 147.77 251.02 152.02 C 241.46 156.28 229.45 155.91 220.68 161.68 C 211.91 167.45 193.58 165.31 201.75 154.75 C 209.92 144.20 213.01 143.35 221.00 134.00
C 223.47 131.11 226.39 128.61 229.00 126.00
C 243.23 109.35 258.38 90.21 275.00 76.00
C 275.50 75.46 275.61 74.56 276.00 74.00
C 277.88 71.31 278.34 70.10 277.00 67.00
C 271.23 61.61 266.06 54.69 260.00 50.00
C 254.54 46.53 249.93 41.75 244.00 39.00
C 234.86 55.11 227.32 71.93 217.92 87.92 C 208.53 103.92 202.53 121.50 191.92 136.92 C 181.32 152.34 179.00 178.08 203.00 182.00 Z"/>
</g>
<g fill="None" fill-opacity="0.0" stroke="#8C8C3A" stroke-opacity="1.00" stroke-width="0.3"><path d="
M 277.00 67.00 
C 277.44 67.41 278.67 67.63 279.00 68.00
C 274.94 61.46 266.41 53.97 260.00 50.00
C 266.06 54.69 271.23 61.61 277.00 67.00 Z"/>
</g>
<g fill="None" fill-opacity="0.0" stroke="#7D7F30" stroke-opacity="1.00" stroke-width="0.3"><path d="
M 54.00 67.00 
C 57.13 63.87 63.17 55.80 67.00 54.00
C 62.40 55.70 57.14 63.32 54.00 67.00 Z"/>
</g>
<g fill="None" fill-opacity="0.0" stroke="#727322" stroke-opacity="1.00" stroke-width="0.3"><path d="
M 88.00 71.00 
C 85.72 68.72 83.53 66.16 81.00 64.00
C 83.28 66.28 85.47 68.84 88.00 71.00 Z"/>
</g>
<g fill="None" fill-opacity="0.0" stroke="#2F2A00" stroke-opacity="1.00" stroke-width="0.3"><path d="
M 276.00 74.00 
C 277.61 72.28 281.54 70.84 279.00 68.00
C 278.67 67.63 277.44 67.41 277.00 67.00
C 278.34 70.10 277.88 71.31 276.00 74.00 Z"/>
</g>
<g fill="None" fill-opacity="0.0" stroke="#BEBE5D" stroke-opacity="1.00" stroke-width="0.3"><path d="
M 276.00 74.00 
C 275.61 74.56 275.50 75.46 275.00 76.00
C 278.58 72.94 281.42 71.90 279.00 68.00
C 281.54 70.84 277.61 72.28 276.00 74.00 Z"/>
</g>
<g fill="None" fill-opacity="0.0" stroke="#7F7D2C" stroke-opacity="1.00" stroke-width="0.3"><path d="
M 100.00 82.00 
C 97.72 79.72 95.53 77.16 93.00 75.00
C 95.28 77.28 97.47 79.84 100.00 82.00 Z"/>
</g>
<g fill="None" fill-opacity="0.0" stroke="#7F8131" stroke-opacity="1.00" stroke-width="0.3"><path d="
M 139.00 118.00 
C 136.72 115.72 134.53 113.16 132.00 111.00
C 134.28 113.28 136.47 115.84 139.00 118.00 Z"/>
</g>
<g fill="None" fill-opacity="0.0" stroke="#848637" stroke-opacity="1.00" stroke-width="0.3"><path d="
M 221.00 134.00 
C 223.61 131.39 226.53 128.89 229.00 126.00
C 226.39 128.61 223.47 131.11 221.00 134.00 Z"/>
</g>
<g fill="None" fill-opacity="0.0" stroke="#616219" stroke-opacity="1.00" stroke-width="0.3"><path d="
M 16.00 155.00 
C 18.62 149.75 30.98 154.03 37.00 153.00 C 43.02 151.97 53.09 153.41 60.00 153.00 C 66.91 152.59 75.70 153.07 83.00 153.00 C 90.30 152.93 98.55 152.77 106.00 153.00 C 113.45 153.23 121.54 152.32 129.00 153.00
C 120.60 151.26 109.11 151.96 100.00 152.00 C 90.89 152.04 79.67 151.56 71.00 152.00 C 62.33 152.44 49.57 150.88 42.00 152.00 C 34.43 153.12 18.33 148.09 16.00 155.00 Z"/>
</g>
<g fill="None" fill-opacity="0.0" stroke="#010101" stroke-opacity="1.00" stroke-width="0.3"><path d="
M 16.00 155.00 
C 12.76 164.58 17.89 175.24 17.00 185.00 C 16.12 194.75 20.70 203.42 29.78 198.78 C 38.85 194.14 44.79 194.68 53.32 191.32 C 61.85 187.96 67.61 186.84 75.98 183.98 C 84.34 181.11 91.08 179.33 99.78 176.78 C 108.47 174.22 113.47 171.66 122.98 168.98 C 132.48 166.29 133.89 176.89 127.25 182.25 C 120.61 187.61 118.29 191.81 113.00 198.00
C 110.84 200.53 108.28 202.72 106.00 205.00
C 96.75 215.82 86.29 226.13 77.00 237.00
C 74.53 239.89 71.61 242.39 69.00 245.00
C 66.97 247.03 65.38 249.34 63.00 251.00
C 63.00 251.00 63.20 251.60 63.00 252.00
C 60.81 256.47 55.21 259.52 52.00 263.00
C 51.84 264.90 53.90 266.60 55.00 268.00
C 58.30 271.57 62.48 275.74 66.00 279.00
C 73.42 284.20 79.87 290.92 88.00 295.00
C 96.98 278.76 104.26 262.76 113.69 246.69 C 123.13 230.63 128.68 214.04 139.23 198.23 C 149.78 182.42 152.90 157.95 129.00 153.00
C 121.54 152.32 113.45 153.23 106.00 153.00 C 98.55 152.77 90.30 152.93 83.00 153.00 C 75.70 153.07 66.91 152.59 60.00 153.00 C 53.09 153.41 43.02 151.97 37.00 153.00 C 30.98 154.03 18.62 149.75 16.00 155.00 Z"/>
</g>
<g fill="None" fill-opacity="0.0" stroke="#161400" stroke-opacity="1.00" stroke-width="0.3"><path d="
M 203.00 182.00 
C 203.00 182.00 203.50 182.00 204.00 182.00
C 210.07 182.00 215.90 182.05 222.00 182.00 C 228.10 181.95 234.93 182.12 241.00 182.00 C 247.07 181.88 253.04 182.29 259.00 182.00 C 264.96 181.71 272.27 182.61 278.00 182.00 C 283.73 181.39 290.87 183.42 296.00 182.00 C 301.13 180.58 311.03 185.00 315.00 182.00
C 316.07 180.85 315.89 177.49 316.00 176.00
C 314.25 176.39 313.70 178.43 314.00 180.00
C 307.01 181.70 299.36 180.78 292.00 181.00 C 284.64 181.22 276.25 180.71 269.00 181.00 C 261.75 181.29 253.93 180.41 247.00 181.00 C 240.07 181.59 230.29 179.79 224.00 181.00 C 217.71 182.21 207.08 177.75 203.00 182.00 Z"/>
</g>
<g fill="None" fill-opacity="0.0" stroke="#CFD371" stroke-opacity="1.00" stroke-width="0.3"><path d="
M 315.00 182.00 
C 311.03 185.00 301.13 180.58 296.00 182.00 C 290.87 183.42 283.73 181.39 278.00 182.00 C 272.27 182.61 264.96 181.71 259.00 182.00 C 253.04 182.29 247.07 181.88 241.00 182.00 C 234.93 182.12 228.10 181.95 222.00 182.00 C 215.90 182.05 210.07 182.00 204.00 182.00
C 209.07 185.75 219.34 182.05 226.00 183.00 C 232.66 183.95 242.09 182.74 249.00 183.00 C 255.91 183.26 264.24 183.34 271.00 183.00 C 277.76 182.66 287.83 184.09 294.00 183.00 C 300.17 181.91 311.09 186.19 315.00 182.00 Z"/>
</g>
<g fill="None" fill-opacity="0.0" stroke="#C9CD71" stroke-opacity="1.00" stroke-width="0.3"><path d="
M 169.00 185.00 
C 171.37 184.62 174.61 184.75 177.00 185.00
C 174.05 184.35 172.06 184.11 169.00 185.00 Z"/>
</g>
<g fill="None" fill-opacity="0.0" stroke="#010101" stroke-opacity="1.00" stroke-width="0.3"><path d="
M 151.00 205.00 
C 150.79 240.61 153.25 279.36 152.00 315.00
C 154.28 315.06 159.86 314.36 156.00 317.00
C 171.11 317.46 185.85 316.29 200.00 313.00
C 193.39 277.63 173.06 244.62 168.00 209.00
C 167.42 204.89 170.46 196.72 177.00 202.00
C 180.99 203.66 184.11 209.11 187.00 212.00
C 197.47 220.27 206.74 230.23 217.00 239.00
C 219.53 241.16 221.72 243.72 224.00 246.00
C 225.89 247.62 228.06 249.34 230.00 251.00
C 232.53 253.16 234.72 255.72 237.00 258.00
C 243.72 263.74 250.15 270.15 257.00 276.00
C 258.74 277.48 261.06 278.83 262.00 281.00
C 268.36 278.33 272.16 270.78 278.00 267.00
C 283.20 259.58 289.92 253.13 294.00 245.00
C 273.86 236.81 255.62 222.54 235.69 214.31 C 215.77 206.07 197.94 189.64 177.00 185.00
C 174.61 184.75 171.37 184.62 169.00 185.00
C 160.37 187.51 151.39 195.43 151.00 205.00 Z"/>
</g>
<g fill="None" fill-opacity="0.0" stroke="#707426" stroke-opacity="1.00" stroke-width="0.3"><path d="
M 106.00 205.00 
C 108.28 202.72 110.84 200.53 113.00 198.00
C 110.72 200.28 108.16 202.47 106.00 205.00 Z"/>
</g>
<g fill="None" fill-opacity="0.0" stroke="#D5D781" stroke-opacity="1.00" stroke-width="0.3"><path d="
M 168.00 209.00 
C 168.12 203.80 171.59 199.83 177.00 203.00
C 176.77 202.84 177.00 202.00 177.00 202.00
C 170.46 196.72 167.42 204.89 168.00 209.00 Z"/>
</g>
<g fill="None" fill-opacity="0.0" stroke="#9A9744" stroke-opacity="1.00" stroke-width="0.3"><path d="
M 177.00 203.00 
C 180.81 205.66 183.38 209.14 187.00 212.00
C 184.11 209.11 180.99 203.66 177.00 202.00
C 177.00 202.00 176.77 202.84 177.00 203.00 Z"/>
</g>
<g fill="None" fill-opacity="0.0" stroke="#151400" stroke-opacity="1.00" stroke-width="0.3"><path d="
M 151.00 207.00 
C 151.00 243.33 151.00 279.67 151.00 316.00
C 151.88 316.79 154.85 316.88 156.00 317.00
C 159.86 314.36 154.28 315.06 152.00 315.00
C 153.25 279.36 150.79 240.61 151.00 205.00
C 150.98 205.50 151.00 206.50 151.00 207.00 Z"/>
</g>
<g fill="None" fill-opacity="0.0" stroke="#DEE18D" stroke-opacity="1.00" stroke-width="0.3"><path d="
M 151.00 316.00 
C 151.00 279.67 151.00 243.33 151.00 207.00
C 148.43 213.04 150.44 222.00 150.00 229.00 C 149.56 236.00 150.00 244.03 150.00 251.00 C 150.00 257.97 149.55 266.31 150.00 273.00 C 150.45 279.69 148.80 289.01 150.00 295.00 C 151.20 300.99 146.79 312.23 151.00 316.00 Z"/>
</g>
<g fill="None" fill-opacity="0.0" stroke="#6F6B24" stroke-opacity="1.00" stroke-width="0.3"><path d="
M 69.00 245.00 
C 71.61 242.39 74.53 239.89 77.00 237.00
C 74.51 239.49 71.61 242.58 69.00 245.00 Z"/>
</g>
<g fill="None" fill-opacity="0.0" stroke="#848338" stroke-opacity="1.00" stroke-width="0.3"><path d="
M 224.00 246.00 
C 221.72 243.72 219.53 241.16 217.00 239.00
C 219.28 241.28 221.47 243.84 224.00 246.00 Z"/>
</g>
<g fill="None" fill-opacity="0.0" stroke="#CCCC6E" stroke-opacity="1.00" stroke-width="0.3"><path d="
M 63.00 251.00 
C 65.38 249.34 66.97 247.03 69.00 245.00
C 66.90 246.94 63.78 248.06 63.00 251.00 Z"/>
</g>
<g fill="None" fill-opacity="0.0" stroke="#7A7D2C" stroke-opacity="1.00" stroke-width="0.3"><path d="
M 237.00 258.00 
C 234.72 255.72 232.53 253.16 230.00 251.00
C 232.28 253.28 234.47 255.84 237.00 258.00 Z"/>
</g>
<g fill="None" fill-opacity="0.0" stroke="#9D9F4A" stroke-opacity="1.00" stroke-width="0.3"><path d="
M 52.00 263.00 
C 55.21 259.52 60.81 256.47 63.00 252.00
C 60.71 253.60 52.25 260.01 52.00 263.00 Z"/>
</g>
<g fill="None" fill-opacity="0.0" stroke="#878731" stroke-opacity="1.00" stroke-width="0.3"><path d="
M 257.00 276.00 
C 258.74 278.26 260.97 281.59 264.00 282.00
C 268.11 276.67 273.79 272.33 278.00 267.00
C 272.16 270.78 268.36 278.33 262.00 281.00
C 261.06 278.83 258.74 277.48 257.00 276.00 Z"/>
</g>
<g fill="None" fill-opacity="0.0" stroke="#7E802C" stroke-opacity="1.00" stroke-width="0.3"><path d="
M 66.00 279.00 
C 62.48 275.74 58.30 271.57 55.00 268.00
C 58.12 271.95 62.00 275.84 66.00 279.00 Z"/>
</g>
<g fill="#F7FD34" fill-opacity="1.00" stroke="None">
<path d="
M 0.00 330.00 
L 330.00 330.00
L 330.00 0.00
L 0.00 0.00
L 0.00 330.00
M 54.00 67.00 
C 57.14 63.32 62.40 55.70 67.00 54.00
C 71.46 52.35 77.46 60.98 81.00 64.00
C 83.53 66.16 85.72 68.72 88.00 71.00
C 89.58 72.35 91.47 73.69 93.00 75.00
C 95.53 77.16 97.72 79.72 100.00 82.00
C 110.98 91.38 121.14 101.72 132.00 111.00
C 134.53 113.16 136.72 115.72 139.00 118.00
C 143.56 121.90 154.96 138.50 161.69 132.69 C 168.43 126.89 159.30 112.57 157.22 103.78 C 155.15 94.98 150.56 82.30 147.22 72.78 C 143.89 63.26 141.98 52.01 138.02 41.98 C 134.07 31.94 128.00 18.84 143.00 19.00 C 158.01 19.17 166.43 14.28 181.00 18.00
C 179.86 38.82 182.51 64.68 181.00 85.00 C 179.49 105.32 187.25 128.85 172.75 143.75 C 158.25 158.66 140.27 142.80 125.92 136.08 C 111.58 129.35 96.84 119.78 82.30 112.70 C 67.77 105.61 52.91 96.39 38.00 90.00
C 41.19 81.27 48.64 74.61 54.00 67.00
M 260.00 50.00 
C 266.41 53.97 274.94 61.46 279.00 68.00
C 281.42 71.90 278.58 72.94 275.00 76.00
C 258.38 90.21 243.23 109.35 229.00 126.00
C 226.53 128.89 223.61 131.39 221.00 134.00
C 213.01 143.35 209.92 144.20 201.75 154.75 C 193.58 165.31 211.91 167.45 220.68 161.68 C 229.45 155.91 241.46 156.28 251.02 152.02 C 260.59 147.77 271.36 145.91 281.22 142.22 C 291.09 138.54 301.89 135.96 312.00 133.00
C 315.36 146.80 316.38 161.24 316.00 176.00
C 315.89 177.49 316.07 180.85 315.00 182.00
C 311.09 186.19 300.17 181.91 294.00 183.00 C 287.83 184.09 277.76 182.66 271.00 183.00 C 264.24 183.34 255.91 183.26 249.00 183.00 C 242.09 182.74 232.66 183.95 226.00 183.00 C 219.34 182.05 209.07 185.75 204.00 182.00
C 203.50 182.00 203.00 182.00 203.00 182.00
C 179.00 178.08 181.32 152.34 191.92 136.92 C 202.53 121.50 208.53 103.92 217.92 87.92 C 227.32 71.93 234.86 55.11 244.00 39.00
C 249.93 41.75 254.54 46.53 260.00 50.00
M 129.00 153.00 
C 152.90 157.95 149.78 182.42 139.23 198.23 C 128.68 214.04 123.13 230.63 113.69 246.69 C 104.26 262.76 96.98 278.76 88.00 295.00
C 79.87 290.92 73.42 284.20 66.00 279.00
C 62.00 275.84 58.12 271.95 55.00 268.00
C 53.90 266.60 51.84 264.90 52.00 263.00
C 52.25 260.01 60.71 253.60 63.00 252.00
C 63.20 251.60 63.00 251.00 63.00 251.00
C 63.78 248.06 66.90 246.94 69.00 245.00
C 71.61 242.58 74.51 239.49 77.00 237.00
C 86.29 226.13 96.75 215.82 106.00 205.00
C 108.16 202.47 110.72 200.28 113.00 198.00
C 118.29 191.81 120.61 187.61 127.25 182.25 C 133.89 176.89 132.48 166.29 122.98 168.98 C 113.47 171.66 108.47 174.22 99.78 176.78 C 91.08 179.33 84.34 181.11 75.98 183.98 C 67.61 186.84 61.85 187.96 53.32 191.32 C 44.79 194.68 38.85 194.14 29.78 198.78 C 20.70 203.42 16.12 194.75 17.00 185.00 C 17.89 175.24 12.76 164.58 16.00 155.00
C 18.33 148.09 34.43 153.12 42.00 152.00 C 49.57 150.88 62.33 152.44 71.00 152.00 C 79.67 151.56 90.89 152.04 100.00 152.00 C 109.11 151.96 120.60 151.26 129.00 153.00
M 177.00 185.00 
C 197.94 189.64 215.77 206.07 235.69 214.31 C 255.62 222.54 273.86 236.81 294.00 245.00
C 289.92 253.13 283.20 259.58 278.00 267.00
C 273.79 272.33 268.11 276.67 264.00 282.00
C 260.97 281.59 258.74 278.26 257.00 276.00
C 250.15 270.15 243.72 263.74 237.00 258.00
C 234.47 255.84 232.28 253.28 230.00 251.00
C 228.06 249.34 225.89 247.62 224.00 246.00
C 221.47 243.84 219.28 241.28 217.00 239.00
C 206.74 230.23 197.47 220.27 187.00 212.00
C 183.38 209.14 180.81 205.66 177.00 203.00
C 171.59 199.83 168.12 203.80 168.00 209.00
C 173.06 244.62 193.39 277.63 200.00 313.00
C 185.85 316.29 171.11 317.46 156.00 317.00
C 154.85 316.88 151.88 316.79 151.00 316.00
C 146.79 312.23 151.20 300.99 150.00 295.00 C 148.80 289.01 150.45 279.69 150.00 273.00 C 149.55 266.31 150.00 257.97 150.00 251.00 C 150.00 244.03 149.56 236.00 150.00 229.00 C 150.44 222.00 148.43 213.04 151.00 207.00
C 151.00 206.50 150.98 205.50 151.00 205.00
C 151.39 195.43 160.37 187.51 169.00 185.00
C 172.06 184.11 174.05 184.35 177.00 185.00 Z"/>
</g>
<g fill="#010201" fill-opacity="1.00" stroke="None">
<path d="
M 139.00 118.00 
C 136.47 115.84 134.28 113.28 132.00 111.00
C 121.14 101.72 110.98 91.38 100.00 82.00
C 97.47 79.84 95.28 77.28 93.00 75.00
C 91.47 73.69 89.58 72.35 88.00 71.00
C 85.47 68.84 83.28 66.28 81.00 64.00
C 77.46 60.98 71.46 52.35 67.00 54.00
C 63.17 55.80 57.13 63.87 54.00 67.00
C 48.64 74.61 41.19 81.27 38.00 90.00
C 52.91 96.39 67.77 105.61 82.30 112.70 C 96.84 119.78 111.58 129.35 125.92 136.08 C 140.27 142.80 158.25 158.66 172.75 143.75 C 187.25 128.85 179.49 105.32 181.00 85.00 C 182.51 64.68 179.86 38.82 181.00 18.00
C 166.43 14.28 158.01 19.17 143.00 19.00 C 128.00 18.84 134.07 31.94 138.02 41.98 C 141.98 52.01 143.89 63.26 147.22 72.78 C 150.56 82.30 155.15 94.98 157.22 103.78 C 159.30 112.57 168.43 126.89 161.69 132.69 C 154.96 138.50 143.56 121.90 139.00 118.00 Z"/>
</g>
<g fill="#010101" fill-opacity="1.00" stroke="None">
<path d="
M 203.00 182.00 
C 207.08 177.75 217.71 182.21 224.00 181.00 C 230.29 179.79 240.07 181.59 247.00 181.00 C 253.93 180.41 261.75 181.29 269.00 181.00 C 276.25 180.71 284.64 181.22 292.00 181.00 C 299.36 180.78 307.01 181.70 314.00 180.00
C 313.70 178.43 314.25 176.39 316.00 176.00
C 316.38 161.24 315.36 146.80 312.00 133.00
C 301.89 135.96 291.09 138.54 281.22 142.22 C 271.36 145.91 260.59 147.77 251.02 152.02 C 241.46 156.28 229.45 155.91 220.68 161.68 C 211.91 167.45 193.58 165.31 201.75 154.75 C 209.92 144.20 213.01 143.35 221.00 134.00
C 223.47 131.11 226.39 128.61 229.00 126.00
C 243.23 109.35 258.38 90.21 275.00 76.00
C 275.50 75.46 275.61 74.56 276.00 74.00
C 277.88 71.31 278.34 70.10 277.00 67.00
C 271.23 61.61 266.06 54.69 260.00 50.00
C 254.54 46.53 249.93 41.75 244.00 39.00
C 234.86 55.11 227.32 71.93 217.92 87.92 C 208.53 103.92 202.53 121.50 191.92 136.92 C 181.32 152.34 179.00 178.08 203.00 182.00 Z"/>
</g>
<g fill="#8C8C3A" fill-opacity="1.00" stroke="None">
<path d="
M 277.00 67.00 
C 277.44 67.41 278.67 67.63 279.00 68.00
C 274.94 61.46 266.41 53.97 260.00 50.00
C 266.06 54.69 271.23 61.61 277.00 67.00 Z"/>
</g>
<g fill="#7D7F30" fill-opacity="1.00" stroke="None">
<path d="
M 54.00 67.00 
C 57.13 63.87 63.17 55.80 67.00 54.00
C 62.40 55.70 57.14 63.32 54.00 67.00 Z"/>
</g>
<g fill="#727322" fill-opacity="1.00" stroke="None">
<path d="
M 88.00 71.00 
C 85.72 68.72 83.53 66.16 81.00 64.00
C 83.28 66.28 85.47 68.84 88.00 71.00 Z"/>
</g>
<g fill="#2F2A00" fill-opacity="1.00" stroke="None">
<path d="
M 276.00 74.00 
C 277.61 72.28 281.54 70.84 279.00 68.00
C 278.67 67.63 277.44 67.41 277.00 67.00
C 278.34 70.10 277.88 71.31 276.00 74.00 Z"/>
</g>
<g fill="#BEBE5D" fill-opacity="1.00" stroke="None">
<path d="
M 276.00 74.00 
C 275.61 74.56 275.50 75.46 275.00 76.00
C 278.58 72.94 281.42 71.90 279.00 68.00
C 281.54 70.84 277.61 72.28 276.00 74.00 Z"/>
</g>
<g fill="#7F7D2C" fill-opacity="1.00" stroke="None">
<path d="
M 100.00 82.00 
C 97.72 79.72 95.53 77.16 93.00 75.00
C 95.28 77.28 97.47 79.84 100.00 82.00 Z"/>
</g>
<g fill="#7F8131" fill-opacity="1.00" stroke="None">
<path d="
M 139.00 118.00 
C 136.72 115.72 134.53 113.16 132.00 111.00
C 134.28 113.28 136.47 115.84 139.00 118.00 Z"/>
</g>
<g fill="#848637" fill-opacity="1.00" stroke="None">
<path d="
M 221.00 134.00 
C 223.61 131.39 226.53 128.89 229.00 126.00
C 226.39 128.61 223.47 131.11 221.00 134.00 Z"/>
</g>
<g fill="#616219" fill-opacity="1.00" stroke="None">
<path d="
M 16.00 155.00 
C 18.62 149.75 30.98 154.03 37.00 153.00 C 43.02 151.97 53.09 153.41 60.00 153.00 C 66.91 152.59 75.70 153.07 83.00 153.00 C 90.30 152.93 98.55 152.77 106.00 153.00 C 113.45 153.23 121.54 152.32 129.00 153.00
C 120.60 151.26 109.11 151.96 100.00 152.00 C 90.89 152.04 79.67 151.56 71.00 152.00 C 62.33 152.44 49.57 150.88 42.00 152.00 C 34.43 153.12 18.33 148.09 16.00 155.00 Z"/>
</g>
<g fill="#010101" fill-opacity="1.00" stroke="None">
<path d="
M 16.00 155.00 
C 12.76 164.58 17.89 175.24 17.00 185.00 C 16.12 194.75 20.70 203.42 29.78 198.78 C 38.85 194.14 44.79 194.68 53.32 191.32 C 61.85 187.96 67.61 186.84 75.98 183.98 C 84.34 181.11 91.08 179.33 99.78 176.78 C 108.47 174.22 113.47 171.66 122.98 168.98 C 132.48 166.29 133.89 176.89 127.25 182.25 C 120.61 187.61 118.29 191.81 113.00 198.00
C 110.84 200.53 108.28 202.72 106.00 205.00
C 96.75 215.82 86.29 226.13 77.00 237.00
C 74.53 239.89 71.61 242.39 69.00 245.00
C 66.97 247.03 65.38 249.34 63.00 251.00
C 63.00 251.00 63.20 251.60 63.00 252.00
C 60.81 256.47 55.21 259.52 52.00 263.00
C 51.84 264.90 53.90 266.60 55.00 268.00
C 58.30 271.57 62.48 275.74 66.00 279.00
C 73.42 284.20 79.87 290.92 88.00 295.00
C 96.98 278.76 104.26 262.76 113.69 246.69 C 123.13 230.63 128.68 214.04 139.23 198.23 C 149.78 182.42 152.90 157.95 129.00 153.00
C 121.54 152.32 113.45 153.23 106.00 153.00 C 98.55 152.77 90.30 152.93 83.00 153.00 C 75.70 153.07 66.91 152.59 60.00 153.00 C 53.09 153.41 43.02 151.97 37.00 153.00 C 30.98 154.03 18.62 149.75 16.00 155.00 Z"/>
</g>
<g fill="#161400" fill-opacity="1.00" stroke="None">
<path d="
M 203.00 182.00 
C 203.00 182.00 203.50 182.00 204.00 182.00
C 210.07 182.00 215.90 182.05 222.00 182.00 C 228.10 181.95 234.93 182.12 241.00 182.00 C 247.07 181.88 253.04 182.29 259.00 182.00 C 264.96 181.71 272.27 182.61 278.00 182.00 C 283.73 181.39 290.87 183.42 296.00 182.00 C 301.13 180.58 311.03 185.00 315.00 182.00
C 316.07 180.85 315.89 177.49 316.00 176.00
C 314.25 176.39 313.70 178.43 314.00 180.00
C 307.01 181.70 299.36 180.78 292.00 181.00 C 284.64 181.22 276.25 180.71 269.00 181.00 C 261.75 181.29 253.93 180.41 247.00 181.00 C 240.07 181.59 230.29 179.79 224.00 181.00 C 217.71 182.21 207.08 177.75 203.00 182.00 Z"/>
</g>
<g fill="#CFD371" fill-opacity="1.00" stroke="None">
<path d="
M 315.00 182.00 
C 311.03 185.00 301.13 180.58 296.00 182.00 C 290.87 183.42 283.73 181.39 278.00 182.00 C 272.27 182.61 264.96 181.71 259.00 182.00 C 253.04 182.29 247.07 181.88 241.00 182.00 C 234.93 182.12 228.10 181.95 222.00 182.00 C 215.90 182.05 210.07 182.00 204.00 182.00
C 209.07 185.75 219.34 182.05 226.00 183.00 C 232.66 183.95 242.09 182.74 249.00 183.00 C 255.91 183.26 264.24 183.34 271.00 183.00 C 277.76 182.66 287.83 184.09 294.00 183.00 C 300.17 181.91 311.09 186.19 315.00 182.00 Z"/>
</g>
<g fill="#C9CD71" fill-opacity="1.00" stroke="None">
<path d="
M 169.00 185.00 
C 171.37 184.62 174.61 184.75 177.00 185.00
C 174.05 184.35 172.06 184.11 169.00 185.00 Z"/>
</g>
<g fill="#010101" fill-opacity="1.00" stroke="None">
<path d="
M 151.00 205.00 
C 150.79 240.61 153.25 279.36 152.00 315.00
C 154.28 315.06 159.86 314.36 156.00 317.00
C 171.11 317.46 185.85 316.29 200.00 313.00
C 193.39 277.63 173.06 244.62 168.00 209.00
C 167.42 204.89 170.46 196.72 177.00 202.00
C 180.99 203.66 184.11 209.11 187.00 212.00
C 197.47 220.27 206.74 230.23 217.00 239.00
C 219.53 241.16 221.72 243.72 224.00 246.00
C 225.89 247.62 228.06 249.34 230.00 251.00
C 232.53 253.16 234.72 255.72 237.00 258.00
C 243.72 263.74 250.15 270.15 257.00 276.00
C 258.74 277.48 261.06 278.83 262.00 281.00
C 268.36 278.33 272.16 270.78 278.00 267.00
C 283.20 259.58 289.92 253.13 294.00 245.00
C 273.86 236.81 255.62 222.54 235.69 214.31 C 215.77 206.07 197.94 189.64 177.00 185.00
C 174.61 184.75 171.37 184.62 169.00 185.00
C 160.37 187.51 151.39 195.43 151.00 205.00 Z"/>
</g>
<g fill="#707426" fill-opacity="1.00" stroke="None">
<path d="
M 106.00 205.00 
C 108.28 202.72 110.84 200.53 113.00 198.00
C 110.72 200.28 108.16 202.47 106.00 205.00 Z"/>
</g>
<g fill="#D5D781" fill-opacity="1.00" stroke="None">
<path d="
M 168.00 209.00 
C 168.12 203.80 171.59 199.83 177.00 203.00
C 176.77 202.84 177.00 202.00 177.00 202.00
C 170.46 196.72 167.42 204.89 168.00 209.00 Z"/>
</g>
<g fill="#9A9744" fill-opacity="1.00" stroke="None">
<path d="
M 177.00 203.00 
C 180.81 205.66 183.38 209.14 187.00 212.00
C 184.11 209.11 180.99 203.66 177.00 202.00
C 177.00 202.00 176.77 202.84 177.00 203.00 Z"/>
</g>
<g fill="#151400" fill-opacity="1.00" stroke="None">
<path d="
M 151.00 207.00 
C 151.00 243.33 151.00 279.67 151.00 316.00
C 151.88 316.79 154.85 316.88 156.00 317.00
C 159.86 314.36 154.28 315.06 152.00 315.00
C 153.25 279.36 150.79 240.61 151.00 205.00
C 150.98 205.50 151.00 206.50 151.00 207.00 Z"/>
</g>
<g fill="#DEE18D" fill-opacity="1.00" stroke="None">
<path d="
M 151.00 316.00 
C 151.00 279.67 151.00 243.33 151.00 207.00
C 148.43 213.04 150.44 222.00 150.00 229.00 C 149.56 236.00 150.00 244.03 150.00 251.00 C 150.00 257.97 149.55 266.31 150.00 273.00 C 150.45 279.69 148.80 289.01 150.00 295.00 C 151.20 300.99 146.79 312.23 151.00 316.00 Z"/>
</g>
<g fill="#6F6B24" fill-opacity="1.00" stroke="None">
<path d="
M 69.00 245.00 
C 71.61 242.39 74.53 239.89 77.00 237.00
C 74.51 239.49 71.61 242.58 69.00 245.00 Z"/>
</g>
<g fill="#848338" fill-opacity="1.00" stroke="None">
<path d="
M 224.00 246.00 
C 221.72 243.72 219.53 241.16 217.00 239.00
C 219.28 241.28 221.47 243.84 224.00 246.00 Z"/>
</g>
<g fill="#CCCC6E" fill-opacity="1.00" stroke="None">
<path d="
M 63.00 251.00 
C 65.38 249.34 66.97 247.03 69.00 245.00
C 66.90 246.94 63.78 248.06 63.00 251.00 Z"/>
</g>
<g fill="#7A7D2C" fill-opacity="1.00" stroke="None">
<path d="
M 237.00 258.00 
C 234.72 255.72 232.53 253.16 230.00 251.00
C 232.28 253.28 234.47 255.84 237.00 258.00 Z"/>
</g>
<g fill="#9D9F4A" fill-opacity="1.00" stroke="None">
<path d="
M 52.00 263.00 
C 55.21 259.52 60.81 256.47 63.00 252.00
C 60.71 253.60 52.25 260.01 52.00 263.00 Z"/>
</g>
<g fill="#878731" fill-opacity="1.00" stroke="None">
<path d="
M 257.00 276.00 
C 258.74 278.26 260.97 281.59 264.00 282.00
C 268.11 276.67 273.79 272.33 278.00 267.00
C 272.16 270.78 268.36 278.33 262.00 281.00
C 261.06 278.83 258.74 277.48 257.00 276.00 Z"/>
</g>
<g fill="#7E802C" fill-opacity="1.00" stroke="None">
<path d="
M 66.00 279.00 
C 62.48 275.74 58.30 271.57 55.00 268.00
C 58.12 271.95 62.00 275.84 66.00 279.00 Z"/>
</g>
</svg>