<svg width="248" height="248" viewBox="0 0 248 248" fill="none" xmlns="http://www.w3.org/2000/svg">
<rect width="248" height="248" rx="50" fill="black"/>
<path d="M202.72 142.673C198.708 140.28 190.118 139.592 177.173 140.628C181.317 128.06 186.02 106.399 173.747 96.4475C168.381 92.0946 160.075 90.5097 150.348 91.983C147.446 92.425 144.386 93.1348 141.24 94.0947C131.842 80.0495 119.434 72 107.162 72C92.9167 72 79.791 81.0763 70.195 97.5502C59.6014 115.752 54 141.945 54 173.308V173.603L57.5568 175.942L57.8321 175.83C84.1783 164.883 120.698 154.687 153.287 149.177C154.284 157.187 154.79 165.303 154.79 173.312V173.589L158.121 176L158.387 175.915C158.875 175.759 207.144 160.334 205.979 147.414C205.857 146.066 205.194 144.146 202.72 142.673ZM200.482 147.901C200.784 151.258 185.505 160.504 164.386 168.116C168.462 161.517 172.262 153.812 175.183 146.217C187.898 145.034 196.654 145.436 199.872 147.356C200.45 147.7 200.482 147.901 200.482 147.901ZM169.152 146.851C166.602 153.039 163.51 159.12 160.143 164.575C159.94 159.004 159.525 153.53 158.915 148.262C162.495 147.713 165.934 147.24 169.152 146.851ZM170.245 100.671C177.751 106.756 178.148 121.882 171.323 141.182C167.257 141.624 162.851 142.213 158.225 142.932C155.711 125.627 151.007 110.845 144.237 98.9744C147.338 98.0636 149.708 97.6082 151.184 97.3806C159.335 96.1439 166.106 97.3136 170.245 100.671ZM107.157 77.4645C118.211 77.4645 127.916 83.6657 136.013 95.9028C110.953 105.573 83.9255 129.744 59.7053 164.142C61.3347 122.038 76.7308 77.4645 107.162 77.4645M64.0609 167.486C94.2212 124.422 121.317 107.421 138.956 100.756C145.248 112.082 149.942 126.967 152.547 143.86C123.605 148.816 89.1749 158.017 64.0609 167.486Z" fill="white"/>
</svg>
