<svg width="65" height="65" viewBox="0 0 65 65" fill="none" xmlns="http://www.w3.org/2000/svg">
<path d="M27.4941 1.22885C30.6309 -0.409588 34.3672 -0.409644 37.5039 1.22885L59.1709 12.5521C62.7539 14.4242 65 18.1405 65 22.1937V30.6312H50.0488C41.4318 30.6311 34.4492 23.629 34.4492 14.9886V7.81869H30.5488V14.9886C30.5488 23.6289 23.5662 30.631 14.9492 30.6312H7.79785V34.5413H14.9492C23.5662 34.5415 30.5488 41.5479 30.5488 50.1839V65.0003C29.4968 64.8058 28.4686 64.4554 27.4941 63.9496L5.8291 52.6204C2.24614 50.7505 3.91808e-05 47.032 0 42.9788V22.1956C8.82192e-05 18.1426 2.2462 14.4263 5.8291 12.5521L27.4941 1.22885ZM64.9971 34.5413V42.9788C64.9971 47.0321 62.751 50.7506 59.168 52.6204L37.5029 63.9496C36.5285 64.4532 35.5002 64.8058 34.4482 65.0003V50.1839H34.4463C34.4463 41.5479 41.429 34.5415 50.0459 34.5413H64.9971Z" fill="url(#paint0_linear_9856_18465)"/>
<defs>
<linearGradient id="paint0_linear_9856_18465" x1="65" y1="0" x2="-0.000328063" y2="65" gradientUnits="userSpaceOnUse">
<stop offset="0.15" stop-color="#A0A4EE"/>
<stop offset="0.8" stop-color="#596CED"/>
</linearGradient>
</defs>
</svg>
