<svg xmlns="http://www.w3.org/2000/svg" xmlns:xlink="http://www.w3.org/1999/xlink" viewBox="0,0,256,256" width="23px" height="23px" fill-rule="nonzero"><g fill="none" fill-rule="nonzero" stroke="none" stroke-width="1" stroke-linecap="butt" stroke-linejoin="miter" stroke-miterlimit="10" stroke-dasharray="" stroke-dashoffset="0" font-family="none" font-weight="none" font-size="none" text-anchor="none" style="mix-blend-mode: normal"><g transform="scale(5.33333,5.33333)"><path d="M43.2,33.9c-0.4,2.1 -2.1,3.7 -4.2,4c-3.3,0.5 -8.8,1.1 -15,1.1c-6.1,0 -11.6,-0.6 -15,-1.1c-2.1,-0.3 -3.8,-1.9 -4.2,-4c-0.4,-2.3 -0.8,-5.7 -0.8,-9.9c0,-4.2 0.4,-7.6 0.8,-9.9c0.4,-2.1 2.1,-3.7 4.2,-4c3.3,-0.5 8.8,-1.1 15,-1.1c6.2,0 11.6,0.6 15,1.1c2.1,0.3 3.8,1.9 4.2,4c0.4,2.3 0.9,5.7 0.9,9.9c-0.1,4.2 -0.5,7.6 -0.9,9.9z" fill="#ff0000"></path><path d="M20,31v-14l12,7z" fill="#ffffff"></path></g></g></svg>