<svg xmlns="http://www.w3.org/2000/svg" width="460" height="460" viewBox="0 0 460 460" version="1.1"><path d="M 293.250 65.728 C 295.313 65.944, 298.688 65.944, 300.750 65.728 C 302.813 65.513, 301.125 65.336, 297 65.336 C 292.875 65.336, 291.188 65.513, 293.250 65.728 M 263.264 66.718 C 264.784 66.947, 267.034 66.941, 268.264 66.704 C 269.494 66.467, 268.250 66.279, 265.500 66.286 C 262.750 66.294, 261.744 66.488, 263.264 66.718 M 410.250 137.031 C 409.012 137.529, 408 138.133, 408 138.374 C 408 139.118, 411.998 137.812, 412.575 136.879 C 413.211 135.850, 413.184 135.852, 410.250 137.031 M 287.768 146.725 C 289.565 146.947, 292.265 146.943, 293.768 146.715 C 295.271 146.486, 293.800 146.304, 290.500 146.310 C 287.200 146.315, 285.971 146.502, 287.768 146.725 M 298.269 146.693 C 299.242 146.947, 300.592 146.930, 301.269 146.656 C 301.946 146.382, 301.150 146.175, 299.500 146.195 C 297.850 146.215, 297.296 146.439, 298.269 146.693 M 304.250 146.689 C 305.212 146.941, 306.788 146.941, 307.750 146.689 C 308.712 146.438, 307.925 146.232, 306 146.232 C 304.075 146.232, 303.288 146.438, 304.250 146.689 M 11.269 181.693 C 12.242 181.947, 13.592 181.930, 14.269 181.656 C 14.946 181.382, 14.150 181.175, 12.500 181.195 C 10.850 181.215, 10.296 181.439, 11.269 181.693 M 330.872 182.750 C 329.680 184.271, 329.697 184.354, 331 183.384 C 331.825 182.771, 333.175 182.019, 334 181.713 C 335.255 181.249, 335.234 181.145, 333.872 181.079 C 332.977 181.036, 331.627 181.787, 330.872 182.750 M 153.861 208.059 L 151.500 210.119 154.250 208.444 C 155.762 207.523, 157 206.597, 157 206.385 C 157 205.604, 156.165 206.050, 153.861 208.059 M 84.433 292.891 C 85.146 294.045, 89 296.374, 89 295.650 C 89 295.419, 87.820 294.457, 86.377 293.511 C 84.934 292.566, 84.059 292.287, 84.433 292.891 M 277.250 300.716 C 278.762 300.945, 281.238 300.945, 282.750 300.716 C 284.262 300.487, 283.025 300.300, 280 300.300 C 276.975 300.300, 275.738 300.487, 277.250 300.716 M 293.250 300.716 C 294.762 300.945, 297.238 300.945, 298.750 300.716 C 300.262 300.487, 299.025 300.300, 296 300.300 C 292.975 300.300, 291.738 300.487, 293.250 300.716 M 108.911 308.337 C 110.373 310.157, 116 314.442, 116 313.735 C 116 313.515, 114.088 311.815, 111.750 309.957 C 109.412 308.100, 108.135 307.370, 108.911 308.337 M 119.615 316.179 C 124.047 319.526, 124.905 319.793, 121.539 316.777 C 119.868 315.279, 118.102 314.042, 117.615 314.027 C 117.128 314.012, 118.028 314.981, 119.615 316.179 M 126.433 320.891 C 127.146 322.045, 131 324.374, 131 323.650 C 131 323.419, 129.820 322.457, 128.377 321.511 C 126.934 320.566, 126.059 320.287, 126.433 320.891 M 137 328.500 C 138.292 329.875, 139.574 331, 139.849 331 C 140.124 331, 139.292 329.875, 138 328.500 C 136.708 327.125, 135.426 326, 135.151 326 C 134.876 326, 135.708 327.125, 137 328.500 M 163.722 347.050 C 164.944 348.337, 166.138 349.189, 166.374 348.944 C 166.611 348.700, 165.611 347.648, 164.152 346.606 L 161.500 344.712 163.722 347.050 M 168.083 349.303 C 168.313 349.469, 169.850 350.396, 171.500 351.362 L 174.500 353.119 172.139 351.059 C 170.841 349.927, 169.303 349, 168.723 349 C 168.142 349, 167.854 349.136, 168.083 349.303 M 175 353.417 C 175 353.629, 176.575 354.732, 178.500 355.867 C 180.425 357.003, 182 357.581, 182 357.151 C 182 356.722, 180.425 355.619, 178.500 354.701 C 176.575 353.783, 175 353.206, 175 353.417 M 204 367.383 C 204 367.594, 205.111 367.979, 206.470 368.239 C 207.828 368.499, 208.702 368.326, 208.411 367.856 C 207.899 367.027, 204 366.610, 204 367.383 M 285.250 382.689 C 286.212 382.941, 287.788 382.941, 288.750 382.689 C 289.712 382.438, 288.925 382.232, 287 382.232 C 285.075 382.232, 284.288 382.438, 285.250 382.689 M 292.269 382.693 C 293.242 382.947, 294.592 382.930, 295.269 382.656 C 295.946 382.382, 295.150 382.175, 293.500 382.195 C 291.850 382.215, 291.296 382.439, 292.269 382.693 M 298.750 382.706 C 299.988 382.944, 302.012 382.944, 303.250 382.706 C 304.488 382.467, 303.475 382.272, 301 382.272 C 298.525 382.272, 297.512 382.467, 298.750 382.706" stroke="none" fill="#94a4b4" fill-rule="evenodd"/><path d="M 321 47.924 L 321 65.982 302.750 65.920 C 284.644 65.858, 259.802 66.742, 255 67.619 C 253.625 67.870, 249.967 68.509, 246.871 69.040 C 243.775 69.571, 236.575 71.351, 230.871 72.996 C 225.167 74.641, 219.760 75.990, 218.855 75.994 C 215.178 76.008, 176.440 93.760, 172 97.466 C 171.175 98.154, 167.288 100.602, 163.362 102.906 C 159.436 105.210, 155.429 107.973, 154.457 109.047 C 153.485 110.121, 152.182 111, 151.560 111 C 150.939 111, 149.096 112.122, 147.465 113.494 C 143.940 116.459, 131.570 125.325, 125.282 129.393 C 122.823 130.983, 119.404 133.571, 117.683 135.143 C 115.962 136.714, 114.236 138, 113.848 138 C 113.459 138, 107.413 141.825, 100.413 146.500 C 93.412 151.175, 87.310 155, 86.853 155 C 86.395 155, 82.861 157.025, 79 159.500 C 75.139 161.975, 71.346 164, 70.571 164 C 69.796 164, 67.888 164.669, 66.331 165.487 C 60.410 168.596, 53.667 171.150, 46.218 173.105 C 41.973 174.219, 37.150 175.525, 35.500 176.006 C 24.122 179.326, 12.511 181.951, 6.739 182.508 L -0.022 183.162 0.239 223.831 L 0.500 264.500 3 264.662 C 6.265 264.873, 15.915 266.830, 17 267.500 C 17.465 267.788, 19.793 268.259, 22.173 268.547 C 24.553 268.836, 27.175 269.197, 28 269.349 C 31.097 269.921, 41.539 273.218, 42.500 273.927 C 43.050 274.334, 47.100 275.683, 51.500 276.927 C 59.708 279.246, 78.234 288.031, 85.680 293.135 C 87.979 294.711, 90.529 296, 91.347 296 C 92.164 296, 92.983 296.343, 93.167 296.763 C 93.579 297.705, 103.757 305, 104.660 305 C 105.020 305, 107.779 306.901, 110.790 309.224 C 113.801 311.547, 117.088 313.909, 118.093 314.474 C 121.408 316.334, 135.437 326.305, 138.785 329.180 C 140.591 330.731, 142.629 332, 143.313 332 C 143.996 332, 145.316 332.888, 146.245 333.973 C 147.978 335.997, 162.611 345.898, 169.177 349.489 C 179.402 355.082, 181.540 356.322, 182 356.926 C 182.275 357.288, 184.419 358.202, 186.764 358.957 C 189.110 359.712, 191.527 360.930, 192.137 361.665 C 192.746 362.399, 193.759 363, 194.387 363 C 195.016 363, 197.209 363.900, 199.261 365 C 201.314 366.100, 204.029 367, 205.296 367 C 206.563 367, 208.028 367.376, 208.550 367.835 C 209.381 368.565, 218.655 372.336, 220 372.491 C 220.275 372.522, 222.525 373.097, 225 373.768 C 227.475 374.439, 230.850 375.179, 232.500 375.412 C 234.150 375.645, 235.500 375.910, 235.500 376.001 C 235.500 376.092, 236.400 376.321, 237.500 376.511 C 242.301 377.336, 245.671 377.967, 248 378.475 C 260.453 381.193, 269.970 381.876, 296.750 381.973 L 318 382.050 318 400.147 L 318 418.244 320.250 416.612 C 321.488 415.714, 324.975 413.719, 328 412.179 C 331.025 410.640, 335.525 408.059, 338 406.445 C 340.475 404.831, 344.300 402.574, 346.500 401.429 C 355.242 396.881, 359 394.592, 359 393.814 C 359 393.367, 359.839 393, 360.865 393 C 361.891 393, 363.874 392.100, 365.273 391 C 366.671 389.900, 368.307 389, 368.908 389 C 369.508 389, 370 388.550, 370 388 C 370 387.450, 370.620 387, 371.378 387 C 372.135 387, 373.315 386.325, 374 385.500 C 374.685 384.675, 375.860 384, 376.613 384 C 377.365 384, 380.880 382.015, 384.425 379.588 C 387.969 377.162, 391.911 374.850, 393.184 374.451 C 394.458 374.052, 397.381 372.438, 399.680 370.863 C 401.979 369.288, 404.252 368, 404.731 368 C 405.210 368, 408.372 366.200, 411.758 364 C 415.144 361.800, 418.346 360, 418.874 360 C 419.401 360, 419.983 359.662, 420.167 359.250 C 420.350 358.837, 422.525 357.490, 425 356.255 C 429.529 353.996, 433.074 351.926, 434 351 C 434.275 350.725, 436.300 349.626, 438.500 348.557 C 440.700 347.488, 443.963 345.552, 445.750 344.256 C 447.538 342.959, 450.639 341.213, 452.642 340.376 C 457.001 338.555, 456.475 337.769, 447.795 333.125 C 439.651 328.768, 437.567 327.575, 437 326.943 C 436.725 326.636, 432.915 324.434, 428.534 322.048 C 424.153 319.663, 419.959 317.102, 419.213 316.356 C 418.467 315.610, 417.144 315, 416.273 315 C 415.402 315, 413.296 313.943, 411.594 312.652 C 409.892 311.361, 405.575 308.727, 402 306.799 C 394.998 303.024, 387.379 298.561, 376.879 292.084 C 373.237 289.838, 369.562 288, 368.712 288 C 367.862 288, 367.017 287.662, 366.833 287.250 C 366.300 286.049, 355.686 279.351, 352.974 278.504 C 351.613 278.078, 350.275 277.432, 350 277.067 C 349.464 276.357, 341.878 271.778, 335.806 268.500 C 333.768 267.400, 329.222 264.813, 325.704 262.750 C 322.186 260.688, 319.014 259, 318.654 259 C 318.294 259, 318 268.176, 318 279.391 L 318 299.781 310.250 300.268 C 305.988 300.536, 294.850 300.593, 285.500 300.394 C 265.605 299.970, 266.752 300.043, 261 298.827 C 258.525 298.304, 254.700 297.649, 252.500 297.373 C 247.169 296.704, 238.432 294.232, 233.500 291.998 C 231.300 291.002, 226.918 289.047, 223.763 287.654 C 220.608 286.261, 216.558 284.025, 214.763 282.685 C 212.968 281.346, 209.860 279.490, 207.855 278.561 C 205.851 277.632, 202.404 275.326, 200.196 273.436 C 197.988 271.546, 195.832 270, 195.403 270 C 194.975 270, 192.047 267.975, 188.897 265.500 C 185.746 263.025, 182.736 261, 182.207 261 C 181.678 261, 180.728 260.377, 180.095 259.615 C 179.463 258.853, 175.780 256.106, 171.912 253.510 C 168.043 250.915, 163.714 247.713, 162.293 246.395 C 160.871 245.078, 159.148 244, 158.463 244 C 157.778 244, 155.045 242.204, 152.389 240.009 C 149.733 237.815, 146.171 235.360, 144.474 234.555 C 142.778 233.750, 139.652 231.710, 137.529 230.023 C 135.405 228.335, 132.618 226.691, 131.334 226.369 C 127.981 225.527, 128.419 224.531, 133.429 221.594 C 135.865 220.167, 138.453 218.431, 139.179 217.738 C 139.906 217.044, 141.625 215.980, 143 215.372 C 144.375 214.765, 147.680 212.604, 150.344 210.569 C 153.008 208.535, 156.945 205.954, 159.094 204.834 C 161.242 203.714, 163 202.434, 163 201.988 C 163 201.543, 164.913 200.251, 167.250 199.117 C 169.588 197.983, 172.022 196.213, 172.661 195.184 C 173.299 194.155, 175.324 192.543, 177.161 191.603 C 178.997 190.663, 182.300 188.554, 184.500 186.916 C 186.700 185.279, 189.625 183.183, 191 182.259 C 192.375 181.335, 196.053 178.649, 199.174 176.290 C 202.295 173.930, 205.332 172, 205.924 172 C 206.516 172, 207 171.618, 207 171.152 C 207 170.685, 208.800 169.492, 211 168.500 C 213.200 167.508, 215 166.376, 215 165.985 C 215 165.046, 235.604 154.900, 239.482 153.929 C 241.142 153.513, 245.200 152.424, 248.500 151.507 C 256.612 149.255, 260.270 148.498, 268.500 147.370 C 274.428 146.558, 304.036 146.100, 312.411 146.691 L 320.961 147.294 321.231 168.207 L 321.500 189.120 327.149 185.161 C 330.257 182.984, 334.194 180.897, 335.899 180.522 C 337.605 180.148, 339 179.522, 339 179.132 C 339 178.742, 341.587 176.914, 344.750 175.071 C 347.913 173.227, 352.750 170.373, 355.500 168.727 C 358.250 167.082, 363.425 164.153, 367 162.218 C 370.575 160.283, 374.892 157.643, 376.594 156.350 C 378.296 155.058, 380.379 154, 381.222 154 C 382.065 154, 383.315 153.325, 384 152.500 C 384.685 151.675, 385.710 151, 386.278 151 C 386.846 151, 388.732 149.916, 390.469 148.591 C 392.206 147.267, 395.383 145.449, 397.528 144.553 C 399.674 143.656, 401.671 142.602, 401.965 142.211 C 402.528 141.463, 403.841 140.687, 412.295 136.107 C 415.158 134.556, 419.250 132.098, 421.390 130.644 C 423.529 129.190, 426.079 128, 427.056 128 C 428.034 128, 428.983 127.644, 429.167 127.209 C 429.628 126.115, 438.476 120.271, 442.329 118.517 C 444.073 117.722, 447.750 115.686, 450.500 113.992 C 453.250 112.298, 456.283 110.655, 457.240 110.342 C 458.800 109.831, 458.746 109.588, 456.716 107.992 C 455.472 107.012, 451.314 104.508, 447.476 102.426 C 443.639 100.344, 438.700 97.447, 436.500 95.989 C 434.300 94.530, 431.714 93.051, 430.753 92.701 C 429.791 92.351, 426.520 90.475, 423.483 88.532 C 420.446 86.590, 417.624 85, 417.213 85 C 416.801 85, 414.758 83.840, 412.672 82.423 C 410.586 81.006, 405.419 78.019, 401.190 75.787 C 396.960 73.554, 393.259 71.356, 392.965 70.902 C 392.671 70.449, 390.421 69.136, 387.965 67.986 C 385.509 66.835, 381.475 64.569, 379 62.950 C 376.525 61.331, 372.954 59.289, 371.065 58.412 C 369.175 57.535, 364.981 55.059, 361.744 52.909 C 358.507 50.759, 355.416 49, 354.874 49 C 354.333 49, 351.240 47.200, 348 45 C 344.760 42.800, 341.693 41, 341.183 41 C 340.674 41, 336.887 38.800, 332.769 36.112 C 320.062 27.817, 321 26.875, 321 47.924" stroke="none" fill="#94a4bc" fill-rule="evenodd"/></svg>