<?xml version="1.0" standalone="no"?>
<!DOCTYPE svg PUBLIC "-//W3C//DTD SVG 20010904//EN" "http://www.w3.org/TR/2001/REC-SVG-20010904/DTD/svg10.dtd">
<!-- Created using Krita: https://krita.org -->
<svg xmlns="http://www.w3.org/2000/svg" 
    xmlns:xlink="http://www.w3.org/1999/xlink"
    xmlns:krita="http://krita.org/namespaces/svg/krita"
    xmlns:sodipodi="http://sodipodi.sourceforge.net/DTD/sodipodi-0.dtd"
    width="271.68pt"
    height="271.44pt"
    viewBox="0 0 271.68 271.44">
<defs/>
<rect id="shape0" transform="translate(16.8, 33.6)" fill="#4b28be" fill-rule="evenodd" stroke="#4b28be" stroke-width="0.372" stroke-linecap="square" stroke-linejoin="bevel" width="236.16" height="200.16"/><path id="shape2" transform="matrix(0.399445214979196 0 0 0.399445214979196 0.109507997143154 0.017051155089268)" fill="#4b28be" stroke-opacity="0" stroke="#000000" stroke-width="0" stroke-linecap="square" stroke-linejoin="bevel" d="M679.263 529.176C680.144 546.544 678.154 563.599 672.719 580.097C666.893 597.781 658.016 613.826 645.925 628.139C634.824 641.281 622.063 652.293 607.177 660.888C593.353 668.871 578.617 674.552 562.858 676.901C553.087 678.357 543.105 678.409 532.283 679.094C457.581 679.087 383.815 679.067 310.048 679.073C256.097 679.077 202.146 679.116 148.196 679.139C130.176 679.76 112.646 677.313 95.5415 671.419C79.4197 665.863 65.156 657.331 51.9901 646.572C28.2677 627.187 13.0435 602.397 4.74632 573.215C0.935175 559.811 -0.59824 546.022 0.209217 531.106C0.210438 499.852 0.159851 469.533 0.247892 439.215C0.54244 337.783 0.886549 236.352 1.21168 134.92C3.17311 108.791 10.8993 84.7115 25.7043 62.854C38.5803 43.8444 55.29 29.074 75.1428 18.1812C90.023 10.0167 106.166 4.97546 123.307 2.79391C140.325 0.628092 157.3 0.00290231 174.397 0.0147842C293.863 0.0978192 413.33 -0.193441 532.795 0.274008C556.424 0.366467 579.958 4.14694 601.012 16.037C610.946 21.6468 620.135 28.7042 629.186 35.7184C645.001 47.9736 656.702 63.719 665.187 81.7088C671.902 95.9441 676.482 110.978 678.139 126.688C679.023 135.069 678.933 143.553 679.224 152.927C679.142 164.856 679.099 175.85 679.098 186.844C679.092 254.978 679.075 323.112 679.103 391.245C679.121 437.222 679.207 483.199 679.263 529.176M500.088 566.556C500.576 566.66 501.065 566.855 501.553 566.855C528.013 566.873 554.479 567.173 580.931 566.711C589.829 566.555 597.878 562.747 602.967 554.834C608.867 545.659 609.946 535.803 605.225 525.826C600.019 514.825 590.595 510.387 578.875 510.186C556.084 509.794 533.292 509.401 510.499 509.226C507.094 509.199 503.679 510.351 499.452 510.76C496.815 510.47 494.179 509.927 491.542 509.926C449.393 509.909 407.245 509.949 365.096 510.016C360.101 510.024 355.087 510.043 350.114 510.453C338.701 511.392 330.949 517.862 326.344 527.87C322.024 537.259 323.529 546.346 329.609 554.743C335.888 563.415 344.523 567.273 354.974 567.284C400.455 567.334 445.937 567.321 491.418 567.262C494.053 567.258 496.686 566.646 500.088 566.556M413.953 489.904C419.278 490.042 424.604 490.308 429.928 490.295C452.388 490.238 474.865 490.59 497.302 489.818C512.871 489.282 524.751 475.567 524.242 460.562C523.731 445.513 511.062 433.302 495.505 433.041C471.536 432.64 447.565 432.3 423.594 432.06C420.477 432.028 417.352 432.738 413.3 432.99C410.139 432.906 406.978 432.749 403.817 432.748C329.207 432.735 254.598 432.709 179.989 432.793C174.03 432.799 168.041 433.337 162.12 434.062C149.825 435.568 141.449 443.488 139.359 455.164C136.937 468.695 141.804 481.194 152.963 486.165C158.968 488.84 166.08 490.135 172.7 490.157C249.973 490.423 327.247 490.334 404.521 490.305C407.341 490.304 410.161 489.95 413.953 489.904M329.044 413.454C329.695 413.587 330.347 413.835 330.999 413.836C358.294 413.868 385.603 414.412 412.878 413.682C428.005 413.277 440.475 398.552 440.21 383.792C439.927 368.022 427.434 355.63 410.403 355.502C386.435 355.322 371.777 355.751 347.807 355.828C345.682 355.835 333.345 355.834 330.294 356.014C327.801 355.919 325.307 355.741 322.813 355.741C244.375 355.726 165.938 355.727 87.5002 355.735C85.1698 355.735 82.8293 355.708 80.5106 355.9C66.8699 357.029 56.6355 365.661 54.3005 377.928C51.5854 392.193 56.5905 405.008 68.5205 409.889C74.886 412.494 82.4506 412.993 89.4799 413.022C156.259 413.297 223.04 413.275 289.82 413.318C302.636 413.327 315.452 413.245 329.044 413.454M415.11 275.2C412.453 275.061 409.796 274.801 407.139 274.802C328.863 274.826 250.588 274.87 172.313 274.941C169.323 274.944 166.299 275.001 163.349 275.433C148.553 277.603 139.583 287.467 138.738 302.302C137.906 316.911 146.376 328.723 160.759 331.995C166.54 333.31 172.632 333.741 178.583 333.748C253.361 333.838 328.139 333.779 402.917 333.744C405.579 333.743 408.242 333.595 411.885 333.673C427.023 333.837 442.16 334.077 457.299 334.141C469.777 334.194 482.27 334.383 494.732 333.885C510.662 333.25 525.013 318.93 525.029 304.108C525.042 291.949 515.413 274.845 496.293 274.896C469.533 274.967 442.773 275.183 415.11 275.2M362.1 121.371C358.936 121.312 355.771 121.185 352.608 121.207C334.78 121.329 316.95 121.777 299.127 121.565C270.641 121.227 242.162 120.41 213.678 119.887C193.205 119.512 172.726 118.904 152.257 119.127C138.65 119.275 124.816 119.395 111.51 121.847C87.0082 126.363 84.4378 149.486 94.7375 166.798C100.08 175.777 108.989 179.011 119.512 178.991C184.832 178.866 250.153 179.002 315.474 178.986C331.964 178.982 348.454 178.741 365.917 178.781C396.072 178.851 426.229 179.124 456.383 178.881C467.227 178.794 475.111 171.092 476.392 160.197C477.088 154.272 477.286 148.217 476.973 142.26C476.275 129 466.978 121.699 453.754 121.57C432.102 121.358 414.656 121.517 393.003 121.471C384.207 121.452 371.804 121.016 362.1 121.371M481.147 197.211C480.148 197.166 479.15 197.081 478.151 197.081C398.999 197.101 319.848 197.105 240.696 197.22C236.744 197.226 232.669 197.748 228.863 198.797C215.338 202.525 206.711 213.625 206.672 226.804C206.633 240.031 214.96 251.193 228.24 254.613C233.15 255.877 238.465 255.917 243.595 255.925C312.749 256.035 381.903 256.054 451.056 256.06C461.716 256.061 472.375 255.887 483.932 255.953C509.891 256.207 535.849 256.488 561.808 256.672C564.284 256.689 566.78 256.183 569.24 255.767C580.869 253.802 590.038 244.919 592.204 233.589C596.047 213.496 583.067 197.292 562.414 197.071C536.96 196.8 511.5 197.015 486.043 197.038C484.715 197.039 483.386 197.206 481.147 197.211Z" sodipodi:nodetypes="cccccccccccccccccccccccccccccscccccccccccccccccccccccccccccccccccccccccccccccccccccccccccccccccccccccccccccccccccccccc"/><path id="shape6" transform="matrix(0.399445214979196 0 0 0.399445214979196 82.8436884699077 78.6052371115253)" fill="#ffffff" stroke-opacity="0" stroke="#000000" stroke-width="0" stroke-linecap="square" stroke-linejoin="bevel" d="M276.363 58.7125C265.703 58.8056 255.044 58.9797 244.384 58.9787C175.23 58.9725 106.077 58.9541 36.9234 58.8439C31.7925 58.8357 26.4781 58.7959 21.5681 57.5314C8.28812 54.1116 -0.0390622 42.9498 0.000137795 29.7223C0.0391998 16.5432 8.66606 5.44347 22.1911 1.71602C25.9972 0.667068 30.0715 0.144485 34.0239 0.138763C113.176 0.024002 192.327 0.019882 271.479 3.6772e-08C272.478 -0.000243963 277.052 1.21391 275.116 0.441513C280.399 3.05732 284.048 5.96888 286.43 9.7419C296.028 20.4267 297.164 36.834 287.82 48.3696C286.721 53.8101 281.801 56.4241 276.363 58.7125Z" sodipodi:nodetypes="cccccccccccc"/><path id="shape7" transform="matrix(0.399445214979196 0 0 0.399445214979196 35.8559386867037 47.4475282671036)" fill="#ffffff" stroke-opacity="0" stroke="#000000" stroke-width="0" stroke-linecap="square" stroke-linejoin="bevel" d="M275.904 59.5305C259.414 59.6626 242.924 59.9036 226.435 59.9076C161.114 59.9233 95.7929 59.7871 30.4724 59.9124C19.9495 59.9326 11.0401 56.6982 5.69791 47.7189C-4.60178 30.407 -2.03133 7.28397 22.4707 2.76845C35.776 0.316423 49.6105 0.196214 63.2175 0.0478996C83.6861 -0.175215 104.166 0.432725 124.638 0.808473C153.122 1.33124 181.602 2.14787 210.087 2.48633C227.91 2.69809 245.741 2.2497 263.568 2.12782C266.732 2.10619 269.896 2.23331 273.755 2.54073C276.193 3.74623 277.921 4.73468 279.684 5.65437C301.426 16.9938 303.64 41.5924 283.048 54.793C280.96 56.132 277.932 58.0973 275.904 59.5305Z" sodipodi:nodetypes="ccccccccccccc"/><path id="shape8" transform="matrix(0.399445214979196 0 0 0.399445214979196 55.6852840137271 109.650272160327)" fill="#ffffff" stroke-opacity="0" stroke="#000000" stroke-width="0" stroke-linecap="square" stroke-linejoin="bevel" d="M272.222 58.7138C269.56 58.7933 266.898 58.9411 264.235 58.9424C189.457 58.9775 114.679 59.0366 39.9011 58.9466C33.95 58.9395 27.8581 58.5083 22.0776 57.1932C7.69463 53.9208 -0.775817 42.1097 0.0561069 27.5005C0.90088 12.6653 9.87112 2.80093 24.6675 0.631561C27.6169 0.199127 30.6409 0.141937 33.6308 0.139251C111.906 0.0686342 190.182 0.0238952 268.457 1.54183e-07C271.114 -0.000823846 277.376 3.30139 280.642 3.79456C284.463 7.28037 284.169 7.27539 287.265 10.5183C298.127 21.8974 297.33 39.495 285.305 49.5872C282.15 54.4481 277.647 57.3835 272.222 58.7138Z" sodipodi:nodetypes="cccccccccccc"/><path id="shape9" transform="matrix(0.399445214979196 0 0 0.399445214979196 21.6917696165387 141.976496696844)" fill="#ffffff" stroke-opacity="0" stroke="#000000" stroke-width="0" stroke-linecap="square" stroke-linejoin="bevel" d="M274.688 57.4751C261.872 57.5154 249.056 57.5972 236.24 57.5889C169.46 57.5459 102.679 57.5679 35.9 57.2926C28.8707 57.2636 21.3061 56.7642 14.9405 54.1596C3.0105 49.278 -1.99459 36.4638 0.720556 22.1988C3.0555 9.93136 13.2899 1.29952 26.9307 0.170766C29.2494 -0.021067 31.5898 0.00590999 33.9202 0.00569699C112.358 -0.00202401 190.795 -0.00339701 269.233 0.011129C271.727 0.011587 274.221 0.18923 277.363 0.627493C282.063 3.07259 286.034 5.68547 288.26 9.16715C300.794 22.1802 297.23 43.3061 282.34 53.5547C279.743 55.3424 277.289 55.693 274.688 57.4751Z" sodipodi:nodetypes="cccccccccccc"/><path id="shape10" transform="matrix(0.399445214979196 0 0 0.399445214979196 55.7127321140887 172.735371374857)" fill="#ffffff" stroke-opacity="0" stroke="#000000" stroke-width="0" stroke-linecap="square" stroke-linejoin="bevel" d="M274.23 57.0277C271.41 57.2169 268.59 57.5703 265.77 57.5714C188.496 57.6009 111.222 57.6898 33.9491 57.4239C27.3297 57.4011 20.2173 56.1066 14.212 53.4315C3.05346 48.4607 -1.81395 35.9615 0.608333 22.431C2.6987 10.7545 11.0743 2.83423 23.3695 1.32846C29.291 0.60321 35.2795 0.0658256 41.2384 0.0591116C115.848 -0.0248414 190.457 0.00106764 265.066 0.0148916C268.227 0.0154716 271.389 0.172088 275.238 0.559204C279.024 3.35214 282.32 5.634 285.187 8.36661C300.043 22.5277 297.38 43.3438 279.556 53.4345C277.698 54.4863 276.002 55.8232 274.23 57.0277Z" sodipodi:nodetypes="cccccccccccc"/><path id="shape11" transform="matrix(0.399445214979196 0 0 0.399445214979196 129.659226682326 203.567979542275)" fill="#ffffff" stroke-opacity="0" stroke="#000000" stroke-width="0" stroke-linecap="square" stroke-linejoin="bevel" d="M175.447 56.3942C172.813 56.7234 170.179 57.3363 167.545 57.3397C122.063 57.3989 76.5817 57.4117 31.1002 57.3621C20.6496 57.3506 12.0148 53.4931 5.73568 44.821C-0.344313 36.4241 -1.84925 27.3373 2.47088 17.9475C7.07503 7.9403 14.8278 1.46996 26.2405 0.530508C31.2133 0.121267 36.2272 0.101797 41.2227 0.0938006C83.3712 0.0265396 125.52 -0.0128884 167.668 0.00383454C170.305 0.00487254 173.167 1.22347 176.445 1.85861C179.116 3.64895 180.95 4.37853 182.944 5.87139C197.985 17.1314 198.379 38.3962 183.751 50.0829C181.035 52.2524 178.217 54.2937 175.447 56.3942Z" sodipodi:nodetypes="cccccccccccc"/><path id="shape12" transform="matrix(0.399445214979196 0 0 0.399445214979196 145.38714487656 48.3477066647318)" fill="#5a5571" stroke-opacity="0" stroke="#000000" stroke-width="0" stroke-linecap="square" stroke-linejoin="bevel" d="M2.1821 57.3629C3.72379 55.8437 5.69989 54.3291 7.78861 52.99C26.5116 39.7894 25.4821 14.7402 5.47589 3.4008C3.71249 2.48111 1.98496 1.49266 0 0.31386C8.55637 -0.316877 19.6074 0.194894 28.4036 0.213525C50.0562 0.259347 63.1082 0.0253642 84.7608 0.237248C94.0371 0.75954 106.556 0.310963 116.879 14.581C121.214 20.7607 120.873 37.5817 117.03 43.7648C108.241 55.8767 99.7212 57.1108 93.1346 57.5489C62.9816 57.7917 32.8243 57.5183 2.1821 57.3629Z" sodipodi:nodetypes="cccccccccc"/><path id="shape13" transform="matrix(0.399445214979196 0 0 0.399445214979196 192.199223750412 78.5246338511362)" fill="#5a5571" stroke-opacity="0" stroke="#000000" stroke-width="0" stroke-linecap="square" stroke-linejoin="bevel" d="M3.04283 58.994C6.49686 56.3645 10.5262 53.6729 14.0518 48.5714C22.8526 37.4665 22.042 21.0985 12.6612 9.94369C10.1439 6.55558 5.14878 2.95444 0 0.159838C1.14313 -0.199354 4.27403 0.159246 5.60252 0.158072C31.0596 0.135427 56.519 -0.0797819 81.9731 0.191717C102.627 0.412008 115.606 16.6167 111.763 36.7097C109.597 48.0393 100.429 56.9227 88.7996 58.8874C86.339 59.3032 83.8434 59.8095 81.3674 59.792C55.4083 59.609 29.4499 59.3278 3.04283 58.994Z" sodipodi:nodetypes="cccccccccc"/><path id="shape14" transform="matrix(0.399445214979196 0 0 0.399445214979196 163.556522347955 109.559106883273)" fill="#595471" stroke-opacity="0" stroke="#000000" stroke-width="0" stroke-linecap="square" stroke-linejoin="bevel" d="M2.66029 59.0206C6.92904 57.0644 11.5654 54.3287 15.2525 49.8154C27.2774 39.7232 28.0739 22.1256 17.2123 10.7466C13.747 5.04958 2.55541 0.939513 0 0.14848C26.6028 -0.291522 60.7983 0.393511 87.5588 0.322283C106.678 0.27138 116.307 17.3751 116.295 29.5343C116.279 44.3567 101.927 58.6762 85.9976 59.3119C73.5359 59.8093 61.0426 59.6202 48.5641 59.5677C33.426 59.504 18.2886 59.2634 2.66029 59.0206Z" sodipodi:nodetypes="ccccccccc"/><path id="shape15" transform="matrix(0.399445214979196 0 0 0.399445214979196 131.003225724251 141.729191798256)" fill="#595471" stroke-opacity="0" stroke="#000000" stroke-width="0" stroke-linecap="square" stroke-linejoin="bevel" d="M1.41749 58.2188C3.6544 56.3881 6.56604 55.5902 8.83216 52.7469C22.9125 42.6601 25.8566 24.4905 15.3945 11.063C13.8491 7.15912 4.92164 2.11595 0 0.418056C1.93838 -0.177281 8.2298 0.123475 10.3548 0.11667C34.3244 0.0395819 58.2953 -0.0884391 82.2636 0.0912489C99.2945 0.218904 112.689 12.9119 112.972 28.6821C113.237 43.4415 100.767 58.167 85.6398 58.5717C58.3648 59.3015 31.0557 58.758 3.76087 58.7254C3.10892 58.7246 2.45728 58.4763 1.41749 58.2188Z" sodipodi:nodetypes="cccccccccc"/><path id="shape16" transform="matrix(0.399445214979196 0 0 0.399445214979196 165.446894113731 172.465802770133)" fill="#585170" stroke-opacity="0" stroke="#000000" stroke-width="0" stroke-linecap="square" stroke-linejoin="bevel" d="M0 57.7742C1.28516 56.498 3.82649 56.0061 5.68428 54.9543C23.5083 44.8636 25.327 23.2026 10.4706 9.04147C7.60385 6.30886 4.30746 4.027 0.986755 1.29171C3.88538 0.679587 7.01001 -0.0302818 10.1272 0.000998148C34.0985 0.241751 58.0691 0.581076 82.0383 0.982474C97.5947 1.24297 110.264 13.4543 110.775 28.503C111.284 43.5081 99.4042 57.2237 83.8351 57.7592C61.398 58.531 38.9214 58.1789 16.4615 58.236C11.1367 58.2496 5.81128 57.9833 0 57.7742Z" sodipodi:nodetypes="cccccccccc"/><path id="shape17" transform="matrix(0.399445214979196 0 0 0.399445214979196 197.489902393624 203.283501401026)" fill="#554e6e" stroke-opacity="0" stroke="#000000" stroke-width="0" stroke-linecap="square" stroke-linejoin="bevel" d="M6.01858 57.2263C8.40524 55.0059 11.2232 52.9646 13.9387 50.7951C28.5664 39.1084 28.1725 17.8436 13.1317 6.58357C11.6675 4.38422 3.07171 1.3668 0 0.754265C3.17743 -0.098152 13.4079 -0.0105443 16.8136 0.0156397C39.6065 0.190994 62.398 0.583694 85.1889 0.975845C96.9091 1.1775 106.334 5.61513 111.54 16.6165C116.261 26.593 115.181 36.4495 109.281 45.6241C104.192 53.5371 96.1438 57.3453 87.2453 57.5008C60.7931 57.9633 34.3275 57.663 7.86709 57.6451C7.37881 57.6448 6.89072 57.4501 6.01858 57.2263Z" sodipodi:nodetypes="ccccccccccc"/>
</svg>
