<?xml version="1.0" encoding="UTF-8"?>
<svg version="1.1" xmlns="http://www.w3.org/2000/svg" width="512" height="512">
<path d="M0 0 C168.96 0 337.92 0 512 0 C512 168.96 512 337.92 512 512 C343.04 512 174.08 512 0 512 C0 343.04 0 174.08 0 0 Z " fill="#FEFEFE" transform="translate(0,0)"/>
<path d="M0 0 C0.87342295 -0.00445784 1.7468459 -0.00891569 2.6467362 -0.01350862 C4.10261095 -0.01323207 4.10261095 -0.01323207 5.5878973 -0.01294994 C6.61060142 -0.01662663 7.63330554 -0.02030332 8.68700069 -0.02409142 C12.14289838 -0.03517822 15.59876606 -0.03898066 19.05467892 -0.04278088 C21.52144626 -0.04904218 23.98821265 -0.05568867 26.45497799 -0.0626936 C33.88370259 -0.08196729 41.31241921 -0.09253344 48.7411615 -0.10142139 C52.24222824 -0.1058036 55.74329347 -0.11117101 59.24435902 -0.11641026 C70.89120227 -0.13343437 82.53804458 -0.1479233 94.18489838 -0.155159 C97.21001404 -0.15706885 100.23512969 -0.15898917 103.26024532 -0.16094494 C104.01210839 -0.16142868 104.76397146 -0.16191242 105.53861826 -0.16241082 C117.68809606 -0.17069122 129.83747476 -0.19598897 141.9869094 -0.22852562 C154.47139729 -0.26168532 166.95583503 -0.27961623 179.44036716 -0.28280324 C186.44522923 -0.28496135 193.44994729 -0.29360553 200.45476627 -0.31926441 C207.05638268 -0.34339016 213.65778805 -0.34674138 220.25945568 -0.33650303 C222.67319315 -0.33600965 225.08694369 -0.34227111 227.50064182 -0.35605907 C251.14871887 -0.48350183 272.33359756 2.68788979 289.9704504 20.13422108 C302.17892361 33.90738784 309.00617417 50.52307998 308.31029415 68.98578358 C307.17139586 86.21111353 299.227223 102.14485037 286.87279415 114.17718983 C274.16098047 125.148822 258.53326692 129.85735972 242.79784298 134.72162342 C242.13795376 134.926106 241.47806454 135.13058857 240.79817867 135.34126759 C238.98597566 135.90010032 237.17151923 136.45161057 235.35692501 137.00262928 C231.79597163 138.19252322 228.41603824 139.6462423 224.9704504 141.13422108 C223.02335136 141.80940796 221.06614562 142.45624309 219.09935665 143.07172108 C217.49544064 143.57832264 217.49544064 143.57832264 215.85912228 144.09515858 C214.76148556 144.4380492 213.66384884 144.78093983 212.5329504 145.13422108 C203.22386108 148.05053205 203.22386108 148.05053205 194.05126095 151.36127186 C188.43000394 153.4493746 182.6896919 155.22492149 176.98998165 157.08539295 C172.2643714 158.64358337 167.59679748 160.245368 162.9938879 162.13812733 C156.22290799 164.90622739 149.22878729 166.96799775 142.24779415 169.13422108 C136.56920364 170.91792558 131.05102537 172.86676626 125.54759884 175.12982655 C120.56614291 177.07125414 115.44719557 178.60549166 110.3454504 180.19672108 C104.19497985 182.12333029 98.07304109 184.0415176 92.05785275 186.35907459 C86.43416723 188.44740226 80.6919345 190.22418947 74.98998165 192.08539295 C70.2964413 193.63300886 65.6605952 195.22058471 61.09154415 197.10687733 C53.64041648 200.15364343 45.90735205 202.39090576 38.22630978 204.77875233 C22.05642271 209.45988878 22.05642271 209.45988878 10.82017422 221.17372799 C9.44286044 224.35148302 9.39959454 227.50450638 9.42455196 230.90546131 C9.41421429 231.64775486 9.40387661 232.39004841 9.39322567 233.1548357 C9.36395907 235.58438775 9.362302 238.01310091 9.3610754 240.44281483 C9.34608275 242.13676495 9.32935333 243.83070052 9.31096554 245.5246172 C9.26740126 249.96494716 9.2473173 254.40507997 9.23223019 258.84558582 C9.21261956 263.38397292 9.17065406 267.92214832 9.13060665 272.46039295 C9.05542301 281.35160352 9.00505996 290.24276643 8.9704504 299.13422108 C37.13513795 299.09699867 65.29969865 299.03705584 93.46427917 298.95031834 C106.5425915 298.91056697 119.620844 298.87815462 132.69921017 298.86322498 C144.10285508 298.85018828 155.50636812 298.823172 166.90993875 298.77960801 C172.94392743 298.75703877 178.97775374 298.74130768 185.01178837 298.74233723 C190.70078278 298.74308651 196.38941887 298.72502803 202.0783205 298.69305325 C204.15703984 298.68459208 206.23579956 298.68277833 208.31452847 298.68841839 C231.45548896 298.74280181 251.14721477 293.79806708 268.1501379 276.97797108 C272.95016894 271.83378687 276.66334622 266.33256604 279.9704504 260.13422108 C280.33912228 259.45101795 280.70779415 258.76781483 281.0876379 258.06390858 C288.66519194 242.61509686 290.59338607 224.05659663 286.14623165 207.42718983 C282.6250674 197.56559028 277.75423769 188.14066771 270.9704504 180.13422108 C269.8876379 178.64922108 269.8876379 178.64922108 268.7829504 177.13422108 C263.04469412 170.36602136 254.62141899 165.73292194 246.96654415 161.45843983 C244.9704504 160.13422108 244.9704504 160.13422108 242.9704504 157.13422108 C242.4210837 152.26840173 242.23554667 150.23657667 244.9704504 146.13422108 C248.69971735 143.64804311 251.65091294 143.58154619 255.9704504 144.13422108 C266.69154933 148.3385736 274.99423089 156.07112075 282.9704504 164.13422108 C283.72068478 164.86254139 284.47091915 165.5908617 285.2438879 166.34125233 C302.70487194 184.38887022 308.5081404 209.43791421 308.1735754 233.71625233 C308.10177654 238.00289494 308.10177654 238.00289494 306.9704504 239.13422108 C306.52610687 241.21182732 306.11587414 243.29675157 305.7204504 245.38422108 C302.50571672 260.68138376 296.00256629 274.1575541 285.9704504 286.13422108 C285.42646603 286.81226795 284.88248165 287.49031483 284.3220129 288.18890858 C274.35765951 300.21162605 260.90268992 308.26068139 246.3454504 313.50922108 C245.36209713 313.86717762 245.36209713 313.86717762 244.35887814 314.23236561 C231.06040452 318.74513435 217.5259858 318.42663278 203.66600704 318.40887928 C201.41621895 318.41323191 199.16643234 318.41841689 196.91664791 318.42436695 C190.83662135 318.43770154 184.75665714 318.43834234 178.67661881 318.43580365 C173.59647196 318.43473125 168.51633758 318.43962363 163.43619341 318.44440907 C150.77402018 318.45611469 138.11188503 318.45528991 125.44971239 318.44885226 C114.4574896 318.44367292 103.46535515 318.45497045 92.47314984 318.47395048 C81.16922506 318.49331857 69.86534098 318.50129577 58.56139559 318.49782723 C52.2216269 318.49601271 45.88193936 318.4986685 39.54218388 318.51254177 C33.58886193 318.5250842 27.6357179 318.52321004 21.6823988 318.51013088 C19.49624796 318.50775861 17.31008472 318.51052296 15.1239481 318.51875401 C12.14398998 318.52916688 9.16463509 318.52116496 6.18469906 318.50844288 C5.31642154 318.51581716 4.44814403 318.52319145 3.55355507 318.5307892 C-1.14236129 318.48850089 -4.19799754 318.15468287 -8.0295496 315.13422108 C-10.83414713 311.53107097 -10.31784318 307.12400774 -10.3042078 302.76068592 C-10.30931873 301.91785053 -10.31442966 301.07501514 -10.31969547 300.20663929 C-10.33359712 297.4194068 -10.33263339 294.63242163 -10.33033085 291.84515858 C-10.33421925 289.90184913 -10.33855421 287.95854054 -10.34331608 286.01523304 C-10.35078083 281.93816852 -10.35048646 277.86119058 -10.34522343 273.78412342 C-10.33944755 268.57914721 -10.35631293 263.37452903 -10.3795681 258.16961193 C-10.39436304 254.15280581 -10.39516899 250.13608457 -10.39205837 246.11925602 C-10.39256932 244.20166411 -10.39776427 242.28406716 -10.40787029 240.36650181 C-10.48208427 224.30603316 -9.07443349 212.58484461 2.2829504 200.38422108 C9.73007398 193.45616851 18.87148802 190.58905567 28.4079504 187.57172108 C30.74092681 186.82335911 33.07297596 186.07209969 35.40404415 185.31781483 C36.93629635 184.83139515 36.93629635 184.83139515 38.49950314 184.33514881 C41.30281185 183.36522016 44.02414419 182.31949039 46.76976681 181.20282459 C51.70121932 179.20830775 56.69068422 177.49767082 61.74779415 175.85297108 C72.72088321 172.23858054 83.62991891 168.45387348 94.5329504 164.63422108 C96.3395428 164.00257272 98.14618341 163.37106222 99.95287228 162.73968983 C107.11886549 160.23468465 114.28376086 157.72657149 121.44652462 155.21234608 C122.33677837 154.90011097 123.22703213 154.58787586 124.14426327 154.26617908 C125.81607269 153.67977938 127.48768988 153.09283118 129.15906429 152.50519276 C134.41276664 150.66293003 139.68429597 148.88106127 144.9704504 147.13422108 C145.94224239 146.81203602 146.91403439 146.48985096 147.91527462 146.15790272 C148.7765295 145.87293934 149.63778439 145.58797596 150.5251379 145.29437733 C164.14663898 140.77709832 177.73478204 136.17215 191.30336666 131.49875355 C199.58437308 128.64745519 207.87222103 125.82050591 216.18529415 123.06390858 C216.93323238 122.81577412 217.68117062 122.56763966 218.45177364 122.31198597 C222.01188515 121.13203913 225.57339646 119.95654888 229.13695431 118.78705311 C235.42988301 116.71318036 241.64152632 114.54412474 247.76903439 112.0189867 C249.86012174 111.178563 251.95931418 110.42929858 254.0954504 109.71234608 C266.77630181 105.4198243 276.47745708 99.31270348 282.9704504 87.13422108 C288.14581778 75.43053495 290.45665019 63.04461396 286.06810665 50.63422108 C280.26580605 37.41901686 272.42977693 28.58379749 258.9704504 23.13422108 C247.63313973 18.94972575 235.65241365 19.69259087 223.76048946 19.70184803 C221.41391645 19.69282145 219.06734815 19.68249204 216.72078609 19.67096424 C210.37871117 19.64347358 204.03672592 19.63412047 197.69459915 19.62811017 C191.72962959 19.6196599 185.76471705 19.59752469 179.79978582 19.57549169 C167.99341023 19.53232363 156.18703989 19.50230006 144.38060665 19.48065662 C132.91899194 19.4596169 121.45742003 19.43231581 109.99584103 19.39667225 C109.28808876 19.39447342 108.5803365 19.3922746 107.85113719 19.39000914 C104.30017552 19.37893874 100.74921425 19.36774608 97.19825315 19.35649264 C67.78902625 19.26344904 38.37976767 19.19200659 8.9704504 19.13422108 C8.97321578 19.93359435 8.97598116 20.73296762 8.97883034 21.55656433 C9.04506903 41.00261515 9.09472069 60.44864347 9.12588692 79.89478302 C9.14135908 89.29877428 9.16245528 98.70269025 9.19676876 108.10663319 C9.22666041 116.30263516 9.24602286 124.49858262 9.25271589 132.6946376 C9.25662854 137.03482932 9.26583108 141.37486507 9.28764057 145.71500683 C9.30800204 149.80008182 9.31428491 153.88493657 9.30977345 157.97005749 C9.3105988 159.46926031 9.31656658 160.96847049 9.32806683 162.46762943 C9.34300381 164.51522715 9.33761379 166.56294302 9.33121395 168.61058521 C9.33397933 169.75637389 9.33674471 170.90216257 9.33959389 172.08267212 C8.92589316 175.50255644 7.99099058 177.37243318 5.9704504 180.13422108 C2.76107631 182.45825059 -0.14460981 182.60992799 -4.0295496 182.13422108 C-6.72945622 180.33428333 -8.5714361 179.05044808 -10.0295496 176.13422108 C-10.13482682 173.91588493 -10.17351237 171.69431087 -10.18344975 169.47350025 C-10.187832 168.78111533 -10.19221425 168.08873041 -10.1967293 167.37536412 C-10.21013613 165.04392247 -10.21630035 162.71251863 -10.22242069 160.38104725 C-10.23032013 158.71400754 -10.23858898 157.04696954 -10.24720097 155.37993336 C-10.27343768 149.89570217 -10.28872944 144.41146327 -10.3029871 138.92718983 C-10.30834595 137.04086585 -10.31372345 135.15454192 -10.31911945 133.26821804 C-10.34074988 125.42324422 -10.35948767 117.57827247 -10.37074184 109.73327637 C-10.38698805 98.48163576 -10.42018019 87.23034011 -10.47714269 75.97882956 C-10.51580989 68.07219469 -10.53537066 60.16565222 -10.54066241 52.25892526 C-10.54432007 47.53414277 -10.55638525 42.80972806 -10.58876514 38.08504772 C-10.61878953 33.64033396 -10.62517792 29.19621159 -10.61338139 24.75141811 C-10.61316018 23.11997367 -10.62150398 21.48850224 -10.63903522 19.85715199 C-10.66167332 17.62935091 -10.65345995 15.40370417 -10.63755131 13.17589283 C-10.64086145 11.92946097 -10.6441716 10.68302912 -10.64758205 9.3988266 C-9.86382497 5.2588212 -8.20265054 3.80190794 -5.0295496 1.13422108 C-3.50052562 -0.3948029 -2.13304514 0.00502317 0 0 Z " fill="#3B7EBB" transform="translate(108.02954959869385,96.86577892303467)"/>
<path d="M0 0 C9.53317432 5.51748788 16.90773578 14.39795126 20 25 C21.37171628 37.11682711 18.84310311 48.54321139 11.24609375 58.23828125 C3.3228242 66.73778858 -6.83368343 70.87097264 -18.3125 71.375 C-28.87558102 71.1409151 -37.12250053 66.54323409 -44.6484375 59.4453125 C-52.72529226 50.87646659 -54.75033622 41.74257126 -54.5871582 30.27905273 C-54.28864018 23.53280005 -53.20237787 18.43664269 -49 13 C-48.33355469 12.12988281 -47.66710937 11.25976562 -46.98046875 10.36328125 C-34.73052275 -4.33236325 -17.48247739 -8.08815764 0 0 Z " fill="#3B7EBB" transform="translate(220,157)"/>
<path d="M0 0 C8.22287396 5.95683443 13.79043251 13.37129752 17 23 C17.83930826 37.36508367 16.07989555 47.81326945 6.2890625 58.9453125 C-1.66029994 66.69342526 -12.01703673 69.82727991 -22.96655273 69.73242188 C-32.5735447 69.16737281 -42.12457759 64.25713417 -48.5390625 57.09375 C-56.29382799 45.97996845 -58.81594027 34.64941244 -56.5390625 21.296875 C-53.40892002 10.7648662 -44.51781361 1.76531189 -35.0625 -3.5 C-24.01720687 -7.82122871 -9.92456154 -6.05489305 0 0 Z " fill="#3A7EBB" transform="translate(316,290)"/>
<path d="M0 0 C5.03977569 1.93575141 8.61829933 4.47215702 11.65234375 8.97265625 C14.11375706 14.73460104 13.46296392 20.91107233 11.62109375 26.76171875 C8.4352298 31.07805056 4.82497157 34.67292614 -0.31640625 36.38671875 C-6.97705944 37.13994286 -12.13636651 36.87850466 -17.66015625 32.8828125 C-22.45612637 28.55060364 -24.03488607 24.31452858 -24.62890625 18.13671875 C-24.16298315 12.54564159 -22.53610463 8.41339988 -18.33984375 4.58203125 C-12.32351423 0.00962081 -7.59701121 -2.01135035 0 0 Z " fill="#FAFCFD" transform="translate(301.31640625,303.61328125)"/>
<path d="M0 0 C5.76048161 2.61256043 9.22338406 6.45315981 11.7265625 12.265625 C12.71616255 19.03172769 11.69971522 24.67473909 7.7265625 30.265625 C3.4721391 34.5200484 -0.77297341 36.03831008 -6.7109375 36.578125 C-12.65599807 36.05662846 -16.64683776 34.28351451 -20.5859375 29.828125 C-24.56457738 24.9556537 -25.80169095 21.14042442 -25.64453125 14.86328125 C-24.89959376 9.64871883 -22.34537516 6.15379879 -18.51171875 2.66015625 C-12.76428615 -1.5017777 -6.73792217 -2.17651094 0 0 Z " fill="#FBFCFD" transform="translate(209.2734375,172.734375)"/>
<path d="M0 0 C0.99 0.33 1.98 0.66 3 1 C2.350704 1.68105395 1.701408 2.36210791 1.03243637 3.06379986 C-1.46305691 6.66896449 -1.50597547 8.62529015 -1.51898193 12.97920227 C-1.52648319 13.66951119 -1.53398444 14.35982011 -1.541713 15.07104748 C-1.56196659 17.37750673 -1.55389271 19.68298072 -1.54589844 21.98950195 C-1.55463478 23.64540071 -1.56512077 25.30129102 -1.57722473 26.95716858 C-1.60509809 31.4485319 -1.60848912 35.93961995 -1.60750484 40.43105721 C-1.6106328 45.12631672 -1.63624856 49.82145204 -1.65948486 54.51664734 C-1.7000574 63.40588696 -1.72038852 72.29505321 -1.73345876 81.18437117 C-1.74932455 91.30527941 -1.78773841 101.4260627 -1.82805204 111.54689848 C-1.91046815 132.36455778 -1.96454958 153.18221123 -2 174 C-2.33 174 -2.66 174 -3 174 C-3.0700377 151.90385868 -3.12296247 129.80773563 -3.15543652 107.71150589 C-3.17091461 97.45216413 -3.19202213 87.19289128 -3.22631836 76.93359375 C-3.25619187 67.99304749 -3.27556815 59.05255114 -3.28226548 50.11195636 C-3.28618122 45.37665045 -3.29540328 40.64148732 -3.31719017 35.90622711 C-3.33752298 31.45099016 -3.34384031 26.99595506 -3.33932304 22.54067612 C-3.34014968 20.90398691 -3.34613444 19.26729108 -3.35761642 17.63064194 C-3.37251072 15.39847043 -3.36896529 13.16706417 -3.36076355 10.93487549 C-3.36352893 9.6849242 -3.36629431 8.43497292 -3.36914349 7.14714432 C-2.97582235 3.79387267 -2.28563279 2.42349919 0 0 Z " fill="#4585BF" transform="translate(101,99)"/>
<path d="M0 0 C0.66 0.33 1.32 0.66 2 1 C-0.31 3.64 -2.62 6.28 -5 9 C-5.66 8.34 -6.32 7.68 -7 7 C-4.69 4.69 -2.38 2.38 0 0 Z " fill="#4384BE" transform="translate(180,160)"/>
<path d="M0 0 C0.66 0 1.32 0 2 0 C1 3 1 3 -0.6875 4.1875 C-3.54969093 5.19313465 -5.98827908 5.13689641 -9 5 C-9 4.34 -9 3.68 -9 3 C-7.88625 2.87625 -6.7725 2.7525 -5.625 2.625 C-1.96896323 2.3534187 -1.96896323 2.3534187 0 0 Z " fill="#4887C0" transform="translate(113,274)"/>
</svg>
