<svg xmlns="http://www.w3.org/2000/svg"  viewBox="0 0 48 48" width="23px" height="23px" baseProfile="basic"><path fill="#f44336" d="M37,6H11c-2.761,0-5,2.239-5,5v5.29l6.406,3.7c0.309,0.178,0.689,0.179,0.999,0.001l12.747-7.329	c0.152-0.087,0.338-0.089,0.492-0.004l1.666,0.923c0.34,0.189,0.344,0.677,0.007,0.871L13.4,23.024	c-0.309,0.178-0.689,0.177-0.998-0.001L6,19.329v3.045l6.406,3.7c0.309,0.178,0.689,0.179,0.999,0.001l12.747-7.329	c0.152-0.087,0.338-0.089,0.492-0.004l1.666,0.923c0.34,0.189,0.344,0.677,0.007,0.871L13.4,29.108	c-0.309,0.178-0.689,0.177-0.998-0.001L6,25.413v3.045l6.406,3.7c0.309,0.178,0.689,0.179,0.999,0.001l12.747-7.329	c0.152-0.087,0.338-0.089,0.492-0.004l1.666,0.923c0.34,0.189,0.344,0.677,0.007,0.871L13.4,35.192	c-0.309,0.178-0.689,0.177-0.998-0.001L6,31.497V37c0,2.761,2.239,5,5,5h26c2.761,0,5-2.239,5-5V11C42,8.239,39.761,6,37,6z"/></svg>