<?xml version="1.0" encoding="utf-8"?>
<!-- Generator: Adobe Illustrator 19.2.1, SVG Export Plug-In . SVG Version: 6.00 Build 0)  -->
<svg version="1.1" id="layer" xmlns="http://www.w3.org/2000/svg" xmlns:xlink="http://www.w3.org/1999/xlink" x="0px" y="0px"
	 viewBox="0 0 652 652" style="enable-background:new 0 0 652 652;" xml:space="preserve">
<style type="text/css">
	.st0{fill:#73787F;}
	.st1{fill:#00A551;}
	.st2{fill:#A5CD39;}
</style>
<path class="st0" d="M128.9,264.5L93.5,370.5L61.3,264.9H25.5l52.6,157.5h28.5L141.4,318l34.3,104.5h28.5l52.8-157.5h-35.1
	l-32.2,105.6L154,264.5H128.9z"/>
<path class="st0" d="M259,422.4V310.8h31.5v24.6c9.7-28.9,42.6-24.6,42.6-24.6v30.9c0,0-42.6-3.1-42.6,31.4v49.2H259z"/>
<path class="st0" d="M347.8,422.4v-68.8l31.5-30.1v98.8H347.8z"/>
<path class="st0" d="M405.8,422.4V299.1l31.5-31.4v83.8l38.5-40.7h38.8L466,361.2l56.2,61.2h-40.8l-44.1-48.1v48.1H405.8z"/>
<path class="st0" d="M594.8,354.5c-0.7-12.2-9.3-22.1-23.2-22.1c-14.1,0-23.6,9-25.1,22.1H594.8z M533.1,408
	c-11.7-10.6-17.6-24.8-17.6-42.2c0-16.4,5.2-30.1,15.9-41.1c10.6-11.2,24.5-16.8,41.5-16.8c16.1,0,28.8,5.7,38.2,17
	c9.5,11.2,14.4,24.9,14.4,41.3v8.1h-79c3.2,15,17.4,23,36.9,23c12.4,0,24.1-3.3,35.3-9.7v24.9c-9.9,7.5-23.8,11.2-42,11.2
	C559.4,423.9,544.9,418.5,533.1,408L533.1,408z"/>
<path class="st1" d="M411.9,227.5l-70.6,70.6l20.9,21l91.6-91.6H411.9z"/>
<path class="st2" d="M349.7,264.6h-42l54.6,54.5l21-20.9L349.7,264.6z"/>
</svg>
