<svg height="512pt" viewBox="-5 0 512 512.00007" width="512pt" xmlns="http://www.w3.org/2000/svg"><path d="m245 22c-117.609375 0-215.847656 82.875-239.539062 193.410156l-3.5 82.703125c11.550781 91.152344 73.195312 166.667969 156.46875 198.132813l29.449218 9.039062c13.765625 3.289063 27.984375 5.414063 42.546875 6.269532l30.761719-.101563c14.523438-.945313 28.695312-3.15625 42.417969-6.527344l29.378906-9.21875c91.839844-35.351562 157.015625-124.410156 157.015625-228.707031 0-135.308594-109.6875-245-245-245zm0 0" fill="#9d4ad3"/><path d="m245.808594 385.167969c-8.496094 0-15.382813 6.886719-15.382813 15.378906v111.007813c4.824219.285156 9.679688.445312 14.574219.445312 5.441406 0 10.835938-.195312 16.1875-.546875v-110.90625c0-8.492187-6.886719-15.378906-15.378906-15.378906zm0 0" fill="#e0f9fe"/><path d="m261.1875 439.960938v-39.414063c0-8.492187-6.886719-15.378906-15.382812-15.378906-8.492188 0-15.378907 6.886719-15.378907 15.378906v39.414063c6.257813-12.820313 24.496094-12.835938 30.761719 0zm0 0" fill="#b9e9fd"/><path d="m198.425781 387.683594c-.667969 1-1.242187 2.085937-1.671875 3.269531l-38.324218 105.292969c9.546874 3.609375 19.375 6.636718 29.449218 9.042968l37.78125-103.816406c.644532-1.761718.925782-3.566406.914063-5.339844h-12.125c-6.652344 0-12.523438-3.351562-16.023438-8.449218zm0 0" fill="#e0f9fe"/><path d="m214.449219 396.132812c-6.652344 0-12.523438-3.351562-16.023438-8.449218-.667969 1-1.242187 2.085937-1.671875 3.269531l-16.058594 44.113281c10.285157-9.804687 27.453126-3.496094 28.847657 10.695313l16.117187-44.289063c.644532-1.761718.925782-3.566406.914063-5.339844zm0 0" fill="#b9e9fd"/><path d="m294.859375 390.953125c-.429687-1.183594-1.003906-2.269531-1.671875-3.269531-3.5 5.097656-9.371094 8.449218-16.023438 8.449218h-12.125c-.011718 1.773438.269532 3.578126.910157 5.339844l37.65625 103.453125c10.050781-2.464843 19.859375-5.550781 29.382812-9.214843zm0 0" fill="#e0f9fe"/><path d="m311.1875 435.820312-16.328125-44.867187c-.429687-1.183594-1.003906-2.269531-1.671875-3.269531-3.5 5.097656-9.371094 8.449218-16.023438 8.449218h-12.125c-.011718 1.773438.269532 3.578126.910157 5.339844l15.792969 43.382813c2.160156-14.171875 19.734374-19.5 29.445312-9.035157zm0 0" fill="#b9e9fd"/><path d="m261.1875 347.210938v-75.714844c-4.621094 2.339844-9.84375 3.667968-15.378906 3.667968-5.539063 0-10.761719-1.328124-15.382813-3.667968v75.714844zm0 0" fill="#5294e5"/><path d="m245.625 295.328125h.183594.179687c6.757813-.03125 12.609375 3.914063 15.199219 9.667969v-33.5c-4.621094 2.339844-9.84375 3.667968-15.378906 3.667968-5.539063 0-10.761719-1.328124-15.382813-3.667968v33.5c2.589844-5.753906 8.441407-9.699219 15.199219-9.667969zm0 0" fill="#4374d3"/><path d="m63.492188 194.289062-58.03125 21.121094c-3.566407 16.636719-5.460938 33.890625-5.460938 51.589844 0 10.539062.667969 20.925781 1.957031 31.113281 3.039063 2.617188 7.359375 3.566407 11.394531 2.097657l78.316407-28.503907zm0 0" fill="#b9e9fd"/><path d="m32.480469 229.628906 12.660156 34.777344c3.152344 8.664062 1.929687 17.851562-2.527344 25.15625l49.054688-17.855469-28.175781-77.417969-48.855469 17.78125c7.996093 2.773438 14.722656 8.988282 17.84375 17.558594zm0 0" fill="#83d3fc"/><path d="m172.84375 233.667969c-4.652344-12.78125 1.9375-26.914063 14.722656-31.566407l77.339844-28.148437c12.78125-4.652344 26.914062 1.9375 31.566406 14.71875l7.734375 21.253906 83.417969-30.363281-38.1875-104.925781-284.589844 103.582031c-5.4375 1.980469-8.238281 7.988281-6.261718 13.425781l31.023437 85.242188c1.980469 5.433593 7.988281 8.238281 13.425781 6.257812l77.542969-28.222656zm0 0" fill="#e0f9fe"/><path d="m58.585938 191.644531 31.023437 85.242188c1.980469 5.433593 7.988281 8.238281 13.425781 6.257812l77.542969-28.222656-7.734375-21.253906c-4.652344-12.785157 1.9375-26.914063 14.722656-31.566407l32.875-11.96875c-.808594-1.152343-2.09375-1.960937-3.605468-2.042968-7.859376-.441406-10.0625-8.882813-10.0625-8.882813s-5.667969-15.046875-11.332032-30.378906c-5.667968-15.335937 5.492188-20.140625 5.492188-20.140625l-136.085938 49.53125c-5.4375 1.980469-8.238281 7.988281-6.261718 13.425781zm0 0" fill="#b9e9fd"/><path d="m403.308594 198.195312 68.15625-24.808593-53.835938-147.910157-68.15625 24.804688c-5.523437 2.011719-8.371094 8.121094-6.359375 13.644531l46.554688 127.90625c2.007812 5.523438 8.117187 8.375 13.640625 6.363281zm0 0" fill="#5294e5"/><path d="m380.777344 122.277344 63.652344-23.167969-26.800782-73.632813-68.15625 24.804688c-5.523437 2.011719-8.371094 8.121094-6.359375 13.644531l26.902344 73.921875c-.074219-6.753906 4.050781-13.128906 10.761719-15.570312zm0 0" fill="#4374d3"/><path d="m492.007812 188.191406c-7.980468 2.902344-16.808593-1.210937-19.714843-9.195312l-57.632813-158.347656c-2.90625-7.984376 1.207032-16.808594 9.191406-19.714844 7.984376-2.90625 16.808594 1.207031 19.714844 9.191406l57.636719 158.351562c2.902344 7.980469-1.210937 16.808594-9.195313 19.714844zm0 0" fill="#61b6ff"/><path d="m492.007812 188.191406c-7.980468 2.902344-16.808593-1.210937-19.714843-9.195312l-57.632813-158.347656c-2.90625-7.984376 1.207032-16.808594 9.191406-19.714844 7.984376-2.90625 16.808594 1.207031 19.714844 9.191406l57.636719 158.351562c2.902344 7.980469-1.210937 16.808594-9.195313 19.714844zm0 0" fill="#83d3fc"/><path d="m455.015625 85.777344c6.199219-2.253906 12.84375-.667969 17.371094 3.527344l-28.820313-79.179688c-2.90625-7.984375-11.730468-12.097656-19.714844-9.191406-7.984374 2.90625-12.097656 11.730468-9.191406 19.714844l29.195313 80.210937c.347656-6.601563 4.554687-12.675781 11.160156-15.082031zm0 0" fill="#61b6ff"/><path d="m307.171875 211.699219-9.132813-25.09375c-4.777343-13.128907-19.296874-19.898438-32.421874-15.121094l-79.4375 28.914063c-13.128907 4.777343-19.898438 19.292968-15.121094 32.421874l9.136718 25.097657c2 5.496093 8.078126 8.332031 13.578126 6.332031l22.300781-8.117188c-1.675781-3.90625-2.605469-8.203124-2.605469-12.714843 0-17.828125 14.507812-32.339844 32.339844-32.339844 14.574218 0 26.921875 9.695313 30.949218 22.96875l24.082032-8.765625c5.5-2.003906 8.332031-8.082031 6.332031-13.582031zm0 0" fill="#b9e9fd"/><path d="m232.609375 213.90625c-.289063-1.625-1.375-3.042969-2.984375-3.707031-8.203125-3.378907-8.980469-11.144531-8.316406-16.746094.246094-2.070313-.890625-4-2.652344-4.875l-32.476562 11.820313c-13.128907 4.777343-19.898438 19.292968-15.121094 32.421874l9.136718 25.09375c2 5.5 8.078126 8.335938 13.578126 6.332032l22.300781-8.117188c-1.675781-3.902344-2.605469-8.199218-2.605469-12.710937 0-13.132813 7.871094-24.453125 19.140625-29.511719zm0 0" fill="#83d3fc"/><path d="m277.164062 400.878906h-62.714843c-10.730469 0-19.425781-8.699218-19.425781-19.425781v-34.242187h101.566406v34.238281c0 10.730469-8.695313 19.429687-19.425782 19.429687zm0 0" fill="#5294e5"/><path d="m235.6875 381.453125v-34.242187h-40.664062v34.242187c0 10.726563 8.695312 19.425781 19.425781 19.425781h40.667969c-10.730469 0-19.429688-8.699218-19.429688-19.425781zm0 0" fill="#4374d3"/><path d="m296.589844 356.703125h-101.566406c-6.554688 0-11.867188-5.3125-11.867188-11.867187 0-6.554688 5.3125-11.867188 11.867188-11.867188h101.566406c6.554687 0 11.871094 5.316406 11.871094 11.867188 0 6.554687-5.316407 11.867187-11.871094 11.867187zm0 0" fill="#83d3fc"/><path d="m226.574219 344.835938c0-6.554688 5.3125-11.867188 11.867187-11.867188h-43.421875c-6.550781 0-11.867187 5.3125-11.867187 11.867188 0 6.554687 5.316406 11.867187 11.867187 11.867187h43.421875c-6.550781 0-11.867187-5.3125-11.867187-11.867187zm0 0" fill="#61b6ff"/><path d="m195.023438 380.570312h-35.554688c-4.914062 0-8.898438-3.984374-8.898438-8.898437 0-4.917969 3.984376-8.902344 8.898438-8.902344h35.554688c4.914062 0 8.898437 3.984375 8.898437 8.902344 0 4.914063-3.984375 8.898437-8.898437 8.898437zm0 0" fill="#83d3fc"/><path d="m166.507812 397.914062c-5.117187 0-9.261718-4.148437-9.261718-9.261718v-33.960938c0-5.117187 4.144531-9.261718 9.261718-9.261718 5.113282 0 9.261719 4.144531 9.261719 9.261718v33.960938c0 5.113281-4.148437 9.261718-9.261719 9.261718zm0 0" fill="#e0f9fe"/><path d="m166.507812 373.453125c-5.117187 0-9.261718-4.148437-9.261718-9.265625v24.464844c0 5.113281 4.144531 9.261718 9.261718 9.261718 5.113282 0 9.261719-4.148437 9.261719-9.261718v-24.460938c0 5.113282-4.148437 9.261719-9.261719 9.261719zm0 0" fill="#b9e9fd"/><path d="m279.925781 243.417969c0 18.84375-15.273437 34.117187-34.117187 34.117187s-34.121094-15.273437-34.121094-34.117187 15.277344-34.117188 34.121094-34.117188 34.117187 15.273438 34.117187 34.117188zm0 0" fill="#61b6ff"/><path d="m253.066406 255.761719c.25-2.066407-.8125-4.050781-2.671875-4.988281-7.386719-3.726563-8.710937-11.324219-8.839843-15.519532-.054688-1.710937-.9375-3.316406-2.425782-4.164062-7.234375-4.136719-7.386718-10.921875-6.523437-15.34375.242187-1.253906-.011719-2.492188-.632813-3.515625-11.949218 5.308593-20.285156 17.269531-20.285156 31.1875 0 18.84375 15.277344 34.117187 34.117188 34.117187 7.59375 0 14.605468-2.480468 20.273437-6.675781-12.636719-1.832031-13.597656-10.171875-13.011719-15.097656zm0 0" fill="#5294e5"/><path d="m245.808594 255.285156c-6.46875 0-11.871094-5.246094-11.871094-11.867187 0-7.402344 6.804688-13.121094 14.183594-11.632813 4.429687.832032 8.3125 4.371094 9.316406 9.316406 1.46875 7.222657-4.078125 14.183594-11.628906 14.183594zm0 0" fill="#b9e9fd"/></svg>