<svg height="512pt" viewBox="-10 0 511 512" width="512pt" xmlns="http://www.w3.org/2000/svg"><path d="m456.304688 391.886719c21.714843-36.570313 34.195312-79.269531 34.195312-124.886719 0-135.308594-109.6875-245-245-245s-245 109.691406-245 245c0 45.613281 12.480469 88.304688 34.1875 124.875zm0 0" fill="#162680"/><path d="m456.894531 390.886719c-6.921875-17.320313-14.15625-31.984375-21.132812-44.21875-.019531-.03125-.039063-.066407-.054688-.097657-21.394531-37.46875-40.347656-52.347656-40.347656-52.347656h-2.460937c-48.402344 72.949219-18.664063 141.792969-18.664063 141.792969 1.023437 3.296875 1.585937 6.96875 1.824219 10.914063 0 0-2.007813 8.960937.511718 27.085937 32.9375-20.898437 60.539063-49.4375 80.324219-83.128906zm0 0" fill="#83d3fc"/><path d="m420.140625 438.78125c-8.777344-70.632812-49.492187-92.398438-50.28125-92.8125-12.609375 50.710938 4.375 90.046875 4.375 90.046875 1.019531 3.296875 1.585937 6.96875 1.824219 10.914063 0 0-2.011719 8.960937.511718 27.085937 15.855469-10.0625 30.460938-21.910156 43.570313-35.234375zm0 0" fill="#61b6ff"/><path d="m395.359375 294.222656h-2.460937c-48.402344 72.949219-18.664063 141.792969-18.664063 141.792969.253906.820313.480469 1.664063.679687 2.53125 14.535157-49.609375 37.191407-83.664063 53.789063-103.601563-18.355469-28.945312-33.34375-40.722656-33.34375-40.722656zm0 0" fill="#61b6ff"/><path d="m400 377.515625c-14-22.921875-29.652344-31.289063-30.140625-31.546875-12.605469 50.710938 4.375 90.046875 4.375 90.046875.253906.820313.480469 1.664063.679687 2.53125 7.003907-23.902344 15.894532-44.1875 25.085938-61.03125zm0 0" fill="#5294e5"/><path d="m95.640625 294.222656s-33.378906 26.195313-61.542969 96.652344c19.785156 33.695312 47.390625 62.238281 80.332032 83.140625 2.519531-18.125.511718-27.085937.511718-27.085937.238282-3.945313.804688-7.617188 1.824219-10.914063 0 0 29.742187-68.84375-18.664063-141.792969zm0 0" fill="#83d3fc"/><path d="m70.765625 438.6875c13.132813 13.363281 27.769531 25.242188 43.664063 35.328125 2.519531-18.125.511718-27.085937.511718-27.085937.238282-3.945313.804688-7.617188 1.824219-10.914063 0 0 16.980469-39.332031 4.375-90.042969l-.085937-.015625c.003906 0-41.402344 21.480469-50.289063 92.730469zm0 0" fill="#61b6ff"/><path d="m95.640625 294.222656h2.460937c48.40625 72.949219 18.664063 141.792969 18.664063 141.792969-.253906.820313-.480469 1.664063-.679687 2.53125-14.535157-49.609375-37.191407-83.664063-53.789063-103.601563 18.355469-28.945312 33.34375-40.722656 33.34375-40.722656zm0 0" fill="#61b6ff"/><path d="m90.953125 377.425781c9.207031 16.859375 18.117187 37.175781 25.132813 61.121094.199218-.867187.425781-1.710937.679687-2.53125 0 0 16.980469-39.332031 4.375-90.042969l-.082031-.015625s-15.898438 8.25-30.105469 31.46875zm0 0" fill="#5294e5"/><path d="m338.867188 258.574219c-14.363282 21.140625-53.875 45.085937-93.367188 45.085937-39.464844 0-73.28125-14.835937-87.667969-35.953125l-62.191406 26.515625c48.40625 72.949219 18.664063 141.792969 18.664063 141.792969-3.113282 10.054687-2.03125 23.554687-.164063 37.820313 37.960937 24.160156 83.023437 38.164062 131.359375 38.164062s93.398438-14.003906 131.363281-38.164062c1.863281-14.265626 2.945313-27.765626-.167969-37.820313 0 0-29.738281-68.84375 18.664063-141.792969zm0 0" fill="#b9e9fd"/><path d="m376.191406 434.753906c-7.824218 21.273438-28.328125 36.550782-52.226562 36.550782h-156.765625c-23.984375 0-44.542969-15.386719-52.304688-36.773438-.367187.96875-.589843 1.484375-.589843 1.484375-3.113282 10.054687-2.03125 23.554687-.164063 37.820313 37.960937 24.160156 83.023437 38.164062 131.359375 38.164062s93.398438-14.003906 131.363281-38.167969c1.863281-14.261719 2.945313-27.761719-.167969-37.816406 0 0-.1875-.433594-.503906-1.261719zm0 0" fill="#83d3fc"/><path d="m235.140625 304.617188v207.148437c3.4375.144531 6.886719.234375 10.359375.234375 4.785156 0 9.535156-.152344 14.253906-.421875v-207.269531c-4.652344.433594-9.40625.667968-14.253906.667968-3.503906 0-6.953125-.128906-10.359375-.359374zm0 0" fill="#e0f9fe"/><path d="m235.140625 304.617188v207.148437c3.4375.144531 6.886719.234375 10.359375.234375 4.785156 0 9.535156-.152344 14.253906-.421875v-207.269531c-4.652344.433594-9.40625.667968-14.253906.667968-3.503906 0-6.953125-.128906-10.359375-.359374zm0 0" fill="#e0f9fe"/><path d="m247.699219 483.476562c-6.597657.058594-11.464844-4.441406-12.558594-10.023437v38.3125c3.4375.144531 6.886719.234375 10.359375.234375 4.785156 0 9.535156-.152344 14.253906-.421875v-38.128906c-1.105468 5.667969-6.066406 9.976562-12.054687 10.027343zm0 0" fill="#b9e9fd"/><path d="m331.222656 241.484375c-12.265625-6.574219-38-16.839844-80.25-17.664063-1.824218-.03125-3.648437-.054687-5.46875-.054687h-.003906c-1.824219 0-3.652344.023437-5.476562.054687-42.773438.835938-68.753907 11.34375-80.914063 17.90625-.386719.226563-4.011719 2.425782-6.007813 6.847657 26.089844 18.53125 57.960938 29.453125 92.398438 29.453125 34.316406 0 66.082031-10.84375 92.117188-29.257813-2.183594-4.609375-5.972657-7.027343-6.394532-7.285156zm0 0" fill="#61b6ff"/><path d="m245.5 280.492188c32.320312 0 64.828125-9.78125 87.535156-28.5625-57.386718-15.054688-117.683594-15.054688-175.066406 0 24.066406 18.78125 55.214844 28.5625 87.53125 28.5625zm0 0" fill="#5294e5"/><path d="m311.304688 266.144531c-10.234376-5.425781-21.363282-14.769531-21.363282-29.78125h-42.492187v43.917969c22.75-.273438 44.347656-5.296875 63.855469-14.136719zm0 0" fill="#00c82f"/><path d="m245.5 280.320312c.652344 0 1.296875-.03125 1.945312-.039062v-43.917969h-42.492187c0 15.890625-12.46875 25.429688-23.148437 30.695313 19.515624 8.507812 41.042968 13.261718 63.695312 13.261718zm0 0" fill="#04ad24"/><path d="m337.617188 248.769531c-26.035157 18.410157-57.800782 29.261719-92.117188 29.261719-34.4375 0-66.304688-10.929688-92.394531-29.460938-1.28125 2.84375-1.890625 6.601563-.53125 11.351563 9.261719 26.40625 47.339843 46.199219 92.929687 46.199219 46.359375 0 84.949219-20.464844 93.367188-47.546875.691406-3.964844-.027344-7.222657-1.253906-9.804688zm0 0" fill="#83d3fc"/><path d="m295.453125 278.820312c0-4.1875 1.882813-7.9375 4.839844-10.457031-17.085938 6.25-35.539063 9.664063-54.792969 9.664063-34.4375 0-66.304688-10.925782-92.394531-29.457032-1.285157 2.84375-1.890625 6.601563-.53125 11.351563 9.261719 26.40625 47.335937 46.199219 92.925781 46.199219 23.328125 0 44.683594-5.183594 61.222656-13.785156-6.410156-1.167969-11.269531-6.769532-11.269531-13.515626zm0 0" fill="#61b6ff"/><path d="m354.824219 105.070312c-.007813-.003906-.011719-.003906-.019531-.007812-1.347657-.628906-2.207032-1.972656-2.355469-3.453125-5.691407-57.128906-50.433594-101.609375-104.792969-101.609375-54.292969 0-98.992188 44.375-104.769531 101.40625-.152344 1.488281-1.042969 2.804688-2.386719 3.460938-.117188.058593-.234375.117187-.355469.171874-8.898437 4.101563-15.113281 13.117188-15.113281 23.511719v21.996094c0 10.261719 6.054688 19.175781 14.761719 23.355469 3.78125 1.8125 6.816406 4.894531 8.476562 8.742187 3.21875 7.464844 7.253907 14.496094 12 20.976563 14.535157 19.863281 28.089844 40.429687 40.015625 61.964844l4.882813 8.820312c18.394531 33.226562 66.164062 33.226562 84.558593 0l5.46875-9.878906c11.726563-21.175782 25.117188-41.351563 39.414063-60.882813 4.75-6.488281 8.792969-13.527343 12.019531-21.003906 1.65625-3.847656 4.695313-6.925781 8.472656-8.738281 8.710938-4.179688 14.761719-13.09375 14.761719-23.351563v-21.996093c0-10.371094-6.179687-19.363282-15.039062-23.484376zm0 0" fill="#a2ec00"/><path d="m257.195312.464844c-3.140624-.304688-6.324218-.464844-9.539062-.464844-54.292969 0-98.992188 44.375-104.769531 101.40625-.152344 1.488281-1.042969 2.804688-2.386719 3.460938-.117188.058593-.234375.117187-.355469.171874-8.898437 4.101563-15.113281 13.117188-15.113281 23.511719v21.996094c0 10.261719 6.054688 19.175781 14.761719 23.355469 3.78125 1.8125 6.816406 4.894531 8.476562 8.742187 3.21875 7.464844 7.253907 14.496094 12 20.976563 14.535157 19.863281 28.089844 40.429687 40.015625 61.964844l4.882813 8.820312c10.152343 18.335938 29.25 26.546875 47.421875 24.644531-27.355469-6.667969-17.617188-28.027343-33.5625-57.953125-12.6875-23.808594-6.757813-41.355468-3.613282-47.8125.675782-1.386718.339844-3.007812-.71875-4.136718-1.164062-1.238282-1.257812-2.75-1.078124-3.914063.183593-1.179687-.21875-2.386719-1.101563-3.191406-5.078125-4.613281-4.542969-10.367188-3.667969-13.597657.402344-1.492187-.1875-3.066406-1.464844-3.941406-12.128906-8.308594-9.164062-22.113281-7.757812-26.691406.304688-.992188.140625-2.054688-.390625-2.941406-6.800781-11.324219 4-16.75 4-16.75 8.953125-5.96875 1.761719-15.949219 1.761719-15.949219-24.546875-83.5625 52.199218-101.707031 52.199218-101.707031zm0 0" fill="#00c82f"/><path d="m264.773438 236.628906c-.035157 0-3.722657-.078125-6.878907-1.851562-1.550781-.875-3.421875-.980469-5.0625-.289063l-3.90625 1.648438-3.910156-1.648438c-1.640625-.691406-3.511719-.585937-5.066406.289063-3.117188 1.753906-6.761719 1.847656-6.910157 1.851562-3.164062.019532-5.726562 2.589844-5.726562 5.761719 0 3.183594 2.578125 5.765625 5.761719 5.765625.570312 0 5.007812-.066406 9.84375-2.042969l3.765625 1.589844c1.445312.609375 3.042968.609375 4.480468 0l3.765626-1.589844c4.835937 1.976563 9.273437 2.042969 9.84375 2.042969 3.183593 0 5.761718-2.582031 5.761718-5.765625 0-3.179687-2.582031-5.761719-5.761718-5.761719zm0 0" fill="#00c82f"/><path d="m326.429688 118.269531c-11.996094-10.332031-34.730469-3.605469-50.78125 15.023438-16.050782 18.628906-19.335938 42.109375-7.34375 52.445312 11.996093 10.332031 34.730468 3.605469 50.78125-15.023437 16.050781-18.628906 19.339843-42.109375 7.34375-52.445313zm0 0" fill="#d7f9b7"/><path d="m316.46875 164.160156c0-16.609375-13.464844-30.078125-30.082031-30.078125-5.128907 0-9.957031 1.285157-14.183594 3.550781-13.007813 17.792969-14.976563 38.550782-3.898437 48.097657 10.792968 9.296875 30.28125 4.777343 45.769531-9.792969 1.539062-3.617188 2.394531-7.597656 2.394531-11.777344zm0 0" fill="#4374d3"/><path d="m222.195312 133.277344c-16.050781-18.628906-38.789062-25.355469-50.78125-15.019532-11.996093 10.332032-8.707031 33.8125 7.34375 52.441407 16.050782 18.632812 38.785157 25.355469 50.78125 15.023437 11.992188-10.335937 8.707032-33.8125-7.34375-52.445312zm0 0" fill="#d7f9b7"/><path d="m215.5625 190.574219c-.179688-.519531-.472656-1.007813-.867188-1.425781-1.164062-1.238282-1.257812-2.75-1.078124-3.917969.183593-1.179688-.21875-2.386719-1.101563-3.191407-5.078125-4.613281-4.542969-10.367187-3.667969-13.597656.402344-1.492187-.1875-3.0625-1.464844-3.9375-12.128906-8.308594-9.164062-22.117187-7.757812-26.695312.304688-.988282.140625-2.054688-.390625-2.941406-6.800781-11.324219 4-16.746094 4-16.746094-11.957031-6.085938-24.105469-6.503906-31.816406.140625-11.996094 10.332031-8.707031 33.8125 7.34375 52.441406 10.996093 12.769531 25.128906 19.941406 36.800781 19.871094zm0 0" fill="#8fe98a"/><path d="m181.378906 164.160156c0-16.609375 13.464844-30.078125 30.082032-30.078125 5.128906 0 9.953124 1.285157 14.179687 3.550781 13.011719 17.792969 14.980469 38.550782 3.898437 48.097657-10.792968 9.296875-30.277343 4.777343-45.765624-9.792969-1.542969-3.617188-2.394532-7.597656-2.394532-11.777344zm0 0" fill="#4374d3"/><path d="m215.558594 190.570312c-.179688-.515624-.472656-1.003906-.863282-1.421874-1.164062-1.238282-1.257812-2.75-1.078124-3.917969.183593-1.179688-.21875-2.386719-1.101563-3.191407-5.078125-4.613281-4.542969-10.367187-3.667969-13.597656.402344-1.492187-.1875-3.0625-1.464844-3.9375-12.128906-8.308594-9.164062-22.117187-7.757812-26.695312.140625-.449219.175781-.910156.128906-1.367188-10.796875 4.566406-18.375 15.257813-18.375 27.71875 0 4.183594.851563 8.160156 2.394532 11.777344 10.070312 9.472656 21.824218 14.691406 31.785156 14.632812zm0 0" fill="#3957c9"/><path d="m219.023438 175.21875c0 5.121094-4.148438 9.273438-9.269532 9.273438-5.125 0-9.273437-4.152344-9.273437-9.273438s4.148437-9.273438 9.273437-9.273438c5.121094 0 9.269532 4.152344 9.269532 9.273438zm0 0" fill="#61b6ff"/><g fill="#00c82f"><path d="m212.449219 60.867188c0 5.121093-4.152344 9.273437-9.273438 9.273437-5.121093 0-9.273437-4.152344-9.273437-9.273437 0-5.121094 4.152344-9.273438 9.273437-9.273438 5.121094 0 9.273438 4.152344 9.273438 9.273438zm0 0"/><path d="m244.617188 53.195312c0 5.121094-4.152344 9.273438-9.273438 9.273438s-9.273438-4.152344-9.273438-9.273438c0-5.121093 4.152344-9.273437 9.273438-9.273437s9.273438 4.152344 9.273438 9.273437zm0 0"/><path d="m209.753906 90.460938c0 5.121093-4.152344 9.273437-9.273437 9.273437-5.121094 0-9.273438-4.152344-9.273438-9.273437 0-5.121094 4.152344-9.273438 9.273438-9.273438 5.121093 0 9.273437 4.152344 9.273437 9.273438zm0 0"/><path d="m222.371094 36.949219c0 8.972656-7.273438 16.246093-16.246094 16.246093s-16.246094-7.273437-16.246094-16.246093c0-8.972657 7.273438-16.25 16.246094-16.25s16.246094 7.277343 16.246094 16.25zm0 0"/></g><path d="m268.308594 185.730469c7.476562 6.441406 19.132812 6.246093 30.738281.671875-5.070313-.003906-3.714844-5.390625-3.714844-5.390625l-7.238281-15.066407c-18.949219-6.613281-15.890625-28.3125-15.890625-28.3125-13.007813 17.792969-14.976563 38.550782-3.894531 48.097657zm0 0" fill="#3957c9"/><path d="m297.367188 175.21875c0 5.121094-4.152344 9.273438-9.273438 9.273438s-9.273438-4.152344-9.273438-9.273438 4.152344-9.273438 9.273438-9.273438 9.273438 4.152344 9.273438 9.273438zm0 0" fill="#61b6ff"/><path d="m311.304688 375.238281c-6.199219 0-11.445313-5.042969-11.445313-11.457031 0-7.351562 6.769531-12.609375 13.679687-11.21875 5.429688 1.105469 9.214844 5.804688 9.214844 11.21875-.003906 6.394531-5.226562 11.457031-11.449218 11.457031zm0 0" fill="#face7a"/><path d="m311.304688 412.851562c-6.171876 0-11.445313-5.011718-11.445313-11.457031 0-7.304687 6.734375-12.621093 13.679687-11.21875 5.410157 1.097657 9.214844 5.792969 9.214844 11.21875-.003906 6.335938-5.175781 11.457031-11.449218 11.457031zm0 0" fill="#f948b4"/><path d="m200.867188 497.847656h-35.328126c-7.554687 0-13.734374-6.183594-13.734374-13.738281v-117.894531c0-7.554688 6.179687-13.738282 13.734374-13.738282h35.328126c7.554687 0 13.734374 6.183594 13.734374 13.738282v117.894531c0 7.554687-6.179687 13.738281-13.734374 13.738281zm0 0" fill="#61b6ff"/><path d="m167.199219 471.304688c-5.335938 0-10.5-.777344-15.394531-2.195313v15c0 7.554687 6.179687 13.738281 13.734374 13.738281h35.328126c7.554687 0 13.734374-6.183594 13.734374-13.738281v-12.804687zm0 0" fill="#5294e5"/><path d="m200.867188 352.476562h-35.328126c-7.554687 0-13.734374 6.183594-13.734374 13.738282v24.898437c0 7.554688 6.179687 13.738281 13.734374 13.738281h35.328126c7.554687 0 13.734374-6.183593 13.734374-13.738281v-24.898437c0-7.554688-6.179687-13.738282-13.734374-13.738282zm0 0" fill="#83d3fc"/></svg>