<svg height="512pt" viewBox="-3 0 512 512.00001" width="512pt" xmlns="http://www.w3.org/2000/svg"><path d="m416.425781 442.136719c45.5-44.496094 73.753907-106.554688 73.753907-175.226563 0-135.355468-109.730469-245.085937-245.089844-245.085937s-245.089844 109.730469-245.089844 245.085937c0 33.023438 6.546875 64.507813 18.382812 93.257813zm0 0" fill="#162680"/><path d="m205.011719 56.433594c-3.125 0-6.113281-1.78125-7.503907-4.808594-1.90625-4.140625-.09375-9.039062 4.046876-10.945312 27.523437-12.65625 56.789062-19.789063 86.992187-21.199219 4.574219-.1875 8.417969 3.304687 8.632813 7.859375.210937 4.550781-3.308594 8.414062-7.859376 8.628906-28.078124 1.308594-55.28125 7.9375-80.867187 19.707031-1.117187.511719-2.289063.757813-3.441406.757813zm0 0" fill="#9d4ad3"/><path d="m74.269531 270.335938c-4.394531 0-8.050781-3.464844-8.242187-7.898438-.996094-23.253906 1.488281-46.4375 7.390625-68.902344 1.15625-4.40625 5.671875-7.042968 10.078125-5.886718 4.40625 1.160156 7.042968 5.671874 5.882812 10.078124-5.480468 20.867188-7.789062 42.398438-6.859375 64.003907.195313 4.554687-3.339843 8.402343-7.894531 8.597656-.117188.007813-.234375.007813-.355469.007813zm0 0" fill="#dcb1f3"/><path d="" style="fill:none;stroke-width:10;stroke-linecap:round;stroke-linejoin:round;stroke:#000;stroke-miterlimit:10" transform="matrix(1.00036 0 0 1.00036 -5.41294 .000009)"/><path d="m260.3125 267.003906c4.148438-5.941406 7.09375-12.859375 8.40625-20.472656 4.773438-27.707031-13.816406-54.035156-41.523438-58.8125-27.707031-4.773438-54.035156 13.820312-58.808593 41.527344-1.957031 11.363281.019531 22.492187 4.9375 31.996094 29.09375-4.074219 58.75-2.09375 86.988281 5.761718zm0 0" fill="#face7a"/><path d="m233.359375 261.347656c1.980469-9.539062 8.082031-18.300781-5.796875-27.382812-27.207031-17.8125-9.410156-46.355469-9.019531-46.976563-24.339844-.023437-45.886719 17.457031-50.15625 42.257813-1.957031 11.363281.019531 22.492187 4.9375 31.996094 19.960937-2.796876 40.183593-2.742188 60.035156.105468zm0 0" fill="#fbb362"/><path d="m205.347656 259.191406c1.007813-2.085937 1.753906-4.34375 2.167969-6.746094 2.375-13.789062-6.878906-26.894531-20.667969-29.269531-6.5-1.121093-12.839844.347657-17.984375 3.652344-.175781.796875-.335937 1.601563-.476562 2.417969-1.957031 11.363281.027343 22.488281 4.949219 31.996094 10.628906-1.488282 21.328124-2.171876 32.011718-2.050782zm0 0" fill="#fc9949"/><path d="m17.933594 359.066406c36.421875 89.683594 124.398437 152.933594 227.15625 152.933594 67.121094 0 127.933594-26.992188 172.195312-70.703125-3.96875-25.972656-12.738281-51.65625-26.667968-75.777344-60.03125-103.976562-192.980469-139.597656-296.953126-79.570312-31.976562 18.460937-57.476562 43.828125-75.730468 73.117187zm0 0" fill="#61b6ff"/><path d="m233.429688 259.054688c-46.632813-6.769532-95.792969 1.507812-139.765626 26.894531-31.976562 18.464843-57.476562 43.828125-75.730468 73.117187 19.199218 47.273438 52.722656 87.191406 95.179687 114.382813.414063-39.863281 36.265625-50.871094 36.265625-50.871094s19.578125-7.550781 17.246094-29.566406c-1.203125-11.335938 5.945312-19.398438 13.160156-24.550781 6.023438-4.300782 8.539063-11.890626 6.664063-19.046876-2.792969-10.671874 1.84375-21.527343 5.164062-27.472656 1.71875-3.070312 2.496094-6.589844 2.144531-10.089844-4.226562-42.0625 35.351563-51.855468 39.671876-52.796874zm0 0" fill="#5294e5"/><path d="m390.617188 365.519531c-59.480469-103.027343-190.558594-138.925781-294.097657-81.167969-2.921875 14.265626 1.167969 30.097657 11.570313 40.414063 2.988281 2.964844 6.578125 5.765625 7.617187 9.84375.816407 3.203125-.125 6.550781-.835937 9.777344-.011719.042969-.019532.085937-.027344.128906-1.484375 6.796875 7.363281 10.925781 11.679688 5.46875 8.746093-11.050781 9.949218-29.480469 21.070312-20.894531 17.832031 13.769531 29.722656-.6875 29.722656-.6875 5.371094-8.507813 16.320313-11.207032 26.1875-13.1875 10.21875-2.054688 25.003906-1.445313 23.515625 11.910156-.238281 2.128906-1.011719 4.117188-2.171875 5.871094-3.199218 4.835937-2.71875 11.375 1.304688 15.546875 3.296875 3.417969 9 5.351562 18.875 1.78125 16.195312-5.953125 34.566406-5.753907 50.632812.550781 2.253906.882812 4.582032 1.980469 5.925782 3.996094 1.984374 2.976562 1.21875 6.957031.066406 10.34375-7.429688 21.894531-27.808594 40.109375-26.339844 63.183594.9375 14.761718 10.976562 27.421874 22.285156 36.960937 10.304688 8.695313 22.03125 15.699219 34.570313 20.648437 4.054687 1.601563 8.316406 3.078126 12.230469 5.023438 27.28125-12.109375 51.9375-29.046875 72.886718-49.734375-3.96875-25.972656-12.738281-51.65625-26.667968-75.777344zm0 0" fill="#a2ec00"/><path d="m96.519531 284.351562c-2.921875 14.265626 1.167969 30.097657 11.570313 40.414063 2.988281 2.964844 6.578125 5.765625 7.617187 9.84375.816407 3.203125-.125 6.550781-.835937 9.777344-.011719.042969-.019532.085937-.027344.128906-1.484375 6.792969 7.363281 10.925781 11.679688 5.46875 8.746093-11.050781 9.949218-29.480469 21.070312-20.894531 17.832031 13.769531 29.722656-.6875 29.722656-.6875 3.539063-5.605469 9.503906-8.683594 15.980469-10.699219.484375-1.902344.65625-3.878906.457031-5.851563-4.203125-41.894531 35.042969-51.78125 39.621094-52.789062-45.609375-6.601562-93.632812 1.175781-136.855469 25.289062zm0 0" fill="#00c82f"/><path d="m219.089844 393.007812c-1.949219-.460937-3.867188-1.019531-5.707032-1.820312-5.34375-2.328125-10.101562-7.816406-8.769531-13.488281.351563-1.507813 1.113281-2.914063 1.296875-4.453125.289063-2.425782-.914062-4.820313-2.539062-6.640625-5.421875-6.085938-14.917969-6.761719-22.722656-4.40625-7.804688 2.355469-14.613282 7.140625-21.957032 10.679687-5.90625 2.84375-10.390625 2.691406-15.867187.96875-2.757813-.867187-5.765625-.496094-8.1875 1.089844-7.015625 5.289062-7.347657 15.601562-6.261719 24.320312.648438 5.195313 2.144531 11.148438 6.910156 13.320313 1.789063.8125 3.828125.964844 5.601563 1.800781 3.582031 1.691406 5.371093 5.761719 8.488281 8.199219 6.0625 4.738281 15.027344 2.03125 21.484375-2.148437 6.457031-4.183594 12.492187-9.820313 20.117187-10.824219 6.507813-.855469 12.902344 1.875 18.855469 4.644531.546875.253906 1.097657.511719 1.652344.765625 6.101563 2.816406 13.3125-.160156 15.71875-6.4375 2.523437-6.570313-1.261719-13.945313-8.113281-15.570313zm0 0" fill="#a2ec00"/><path d="m179.785156 368.460938c2.660156-1.898438 4.632813-4.441407 5.847656-7.300782-1.699218.207032-3.378906.554688-4.984374 1.039063-7.804688 2.355469-14.613282 7.140625-21.957032 10.679687-5.90625 2.84375-10.390625 2.691406-15.867187.96875-2.757813-.867187-5.765625-.496094-8.1875 1.089844-7.015625 5.289062-7.347657 15.601562-6.261719 24.320312.648438 5.195313 2.144531 11.148438 6.910156 13.320313 1.789063.8125 3.828125.964844 5.601563 1.800781 3.582031 1.691406 5.371093 5.761719 8.488281 8.199219 0 0 19.582031-7.550781 17.25-29.566406-1.203125-11.335938 5.945312-19.398438 13.160156-24.550781zm0 0" fill="#00c82f"/><path d="m70.9375 315.082031c-1.980469-1.496093-4.449219-2.246093-6.40625-3.769531-1.085938-.84375-1.949219-1.875-2.703125-3.003906-17.484375 14.777344-32.175781 31.964844-43.890625 50.765625.253906.625.507812 1.25.765625 1.871093 4.125-1.195312 8.242187-2.449218 12.414063-3.417968 8.066406-1.875 13.546874-.445313 19.816406 3.1875 3.164062 1.832031 6.96875 2.207031 10.390625.925781 10.105469-4.578125 13.371093-17.191406 14.441406-28.234375.640625-6.582031.441406-14.328125-4.828125-18.324219zm0 0" fill="#4374d3"/><path d="m390.617188 365.519531c-8.511719-14.742187-18.492188-28.101562-29.644532-40.015625-8.75 18.949219-24.871094 35.6875-23.5625 56.304688.9375 14.765625 10.980469 27.425781 22.285156 36.964844 10.304688 8.691406 22.03125 15.695312 34.574219 20.648437 5.738281 2.261719 11.886719 4.28125 16.875 7.734375 2.074219-1.914062 4.117188-3.863281 6.125-5.84375-3.96875-25.976562-12.722656-51.664062-26.652343-75.792969zm0 0" fill="#d7f9b7"/><path d="m427.253906 194.855469c-3-2.347657-4.394531-6.179688-6.886718-9.0625-4.285157-4.957031-11.324219-6.566407-17.878907-6.652344-6.554687-.089844-13.128906 1.042969-19.644531.3125-6.515625-.726563-13.328125-3.851563-15.996094-9.84375-2.152344-4.824219-1.191406-10.375-.933594-15.652344.257813-5.277343-.652343-11.339843-5.046874-14.265625-3.597657-2.394531-8.296876-1.875-12.570313-2.492187-9.738281-1.40625-17.421875-8.828125-23.796875-16.324219-2.476562-2.914062-4.953125-5.96875-8.296875-7.824219-4.972656-2.761719-11.027344-2.433593-16.6875-1.882812-.023437 0-.046875.003906-.070313.007812.226563 2.21875.515626 4.445313.890626 6.675781 9.234374 55.074219 61.367187 92.230469 116.441406 82.996094 5.320312-.894531 10.472656-2.191406 15.433594-3.847656-1.800782-.328125-3.496094-1-4.957032-2.144531zm0 0" fill="#f948b4"/><path d="m324.5 120.875c-2.476562-2.914062-4.957031-5.96875-8.296875-7.824219-4.976563-2.761719-11.027344-2.433593-16.691406-1.882812-.019531.003906-.042969.003906-.066407.007812.222657 2.21875.515626 4.445313.886719 6.675781 3.667969 21.851563 14.089844 40.878907 28.765625 55.3125-4.390625-18.058593 4.777344-27.171874 11.730469-31.339843 2.109375-1.265625 3.753906-3.074219 4.808594-5.183594-8.492188-2.246094-15.355469-8.964844-21.136719-15.765625zm0 0" fill="#c6237c"/><path d="m474.632812 152.835938c-6.980468-8.078126-18.445312-10.695313-29.121093-10.839844-10.679688-.144532-21.386719 1.703125-32 .515625-10.613281-1.191407-21.710938-6.28125-26.058594-16.035157-3.5-7.859374-1.941406-16.902343-1.519531-25.496093.417968-8.597657-1.058594-18.472657-8.222656-23.238281-5.855469-3.898438-13.511719-3.058594-20.472657-4.0625-15.867187-2.289063-28.382812-14.378907-38.765625-26.589844-.722656-.851563-1.464844-1.707032-2.203125-2.5625-13.210937 19.550781-19.640625 43.726562-16.59375 68.746094.058594-.007813.121094-.015626.183594-.019532 5.546875-.539062 11.480469-.863281 16.355469 1.84375 3.277344 1.820313 5.707031 4.816406 8.132812 7.671875 6.25 7.347657 13.78125 14.621094 23.328125 16 4.191407.605469 8.796875.097657 12.320313 2.445313 4.3125 2.867187 5.199218 8.808594 4.945312 13.984375-.25 5.171875-1.191406 10.613281.917969 15.34375 2.613281 5.867187 9.292969 8.929687 15.679687 9.648437 6.386719.714844 12.832032-.398437 19.257813-.3125 6.425781.089844 13.320313 1.664063 17.523437 6.523438 2.441407 2.824218 3.8125 6.582031 6.75 8.882812 1.628907 1.273438 3.550782 1.953125 5.585938 2.21875 20.527344-6.492187 37.84375-19.191406 50.1875-35.597656-2.046875-3.019531-3.824219-6.308594-6.210938-9.070312zm0 0" fill="#fc7acd"/><path d="m357.238281 73.679688c-15.867187-2.289063-28.378906-14.378907-38.761719-26.589844-.726562-.855469-1.46875-1.707032-2.207031-2.5625-13.207031 19.546875-19.640625 43.726562-16.59375 68.746094.0625-.007813.121094-.015626.183594-.019532 5.550781-.542968 11.480469-.863281 16.355469 1.84375 3.277344 1.820313 5.707031 4.816406 8.132812 7.671875 5.597656 6.578125 12.226563 13.085938 20.402344 15.367188 1.519531-2.210938 2.320312-4.878907 2.191406-7.664063-1.492187-31.8125 14.144532-43.878906 23.410156-48.214844 2.484376-1.160156 4.445313-3.113281 5.65625-5.484374-5.589843-2.777344-12.460937-2.183594-18.769531-3.09375zm0 0" fill="#f948b4"/><path d="m499.230469 95.234375c-4.738281 1.257813-10.238281 1.546875-14.101563-1.476563-2.957031-2.316406-4.335937-6.09375-6.792968-8.9375-4.230469-4.894531-11.175782-6.480468-17.640626-6.566406-6.46875-.085937-12.957031 1.03125-19.382812.308594-6.429688-.71875-13.152344-3.800781-15.785156-9.710938-2.121094-4.761718-1.175782-10.238281-.921875-15.445312.253906-5.203125-.640625-11.183594-4.980469-14.074219-3.546875-2.359375-8.183594-1.851562-12.402344-2.460937-9.609375-1.386719-17.1875-8.707032-23.476562-16.105469-2.445313-2.875-4.890625-5.886719-8.1875-7.71875-4.910156-2.722656-10.878906-2.402344-16.464844-1.855469-2.230469.214844-4.457031.464844-6.683594.730469-15.167968 8.101563-27.839844 19.875-37.035156 33.960937 1.195312 1.351563 2.359375 2.730469 3.523438 4.097657 10.167968 11.960937 22.425781 23.800781 37.964843 26.042969 6.820313.984374 14.316407.160156 20.054688 3.976562 7.015625 4.671875 8.464843 14.34375 8.050781 22.761719-.410156 8.417969-1.9375 17.273437 1.492188 24.972656 4.253906 9.554687 15.125 14.539063 25.519531 15.703125s20.886719-.644531 31.34375-.5c10.457031.140625 21.683593 2.703125 28.523437 10.613281 2.792969 3.230469 4.726563 7.203125 7.285156 10.582031 15.21875-19.117187 23.492188-43.652343 21.828126-69.402343-.570313.179687-1.148438.351562-1.730469.503906zm0 0" fill="#b26cde"/><path d="m383.746094 20.765625c-2.445313-2.875-4.886719-5.890625-8.1875-7.71875-4.90625-2.726563-10.878906-2.402344-16.464844-1.859375-2.230469.21875-4.457031.46875-6.683594.734375-15.167968 8.097656-27.839844 19.875-37.035156 33.957031 1.195312 1.351563 2.363281 2.734375 3.523438 4.101563 10.167968 11.957031 22.425781 23.800781 37.964843 26.039062 5.976563.863281 12.46875.339844 17.84375 2.761719 1.414063-1.789062 2.339844-3.957031 2.585938-6.296875 2.113281-20.386719 12.78125-28.605469 20.488281-31.902344 2.289062-.976562 4.152344-2.636719 5.421875-4.671875-7.738281-2.546875-14.074219-8.8125-19.457031-15.144531zm0 0" fill="#9d4ad3"/><path d="m498.019531 95.46875c-4.707031 1.25-10.171875 1.53125-14.007812-1.46875-2.9375-2.300781-4.308594-6.054688-6.75-8.882812-4.203125-4.859376-11.097657-6.433594-17.523438-6.519532-6.273437-.085937-12.5625.957032-18.800781.34375l-1.109375.878906s14.683594 16.046876.820313 26.203126c-13.859376 10.160156-7.542969 29.625 2.679687 36.910156 10.457031.144531 21.683594 2.703125 28.523437 10.617187 2.792969 3.230469 4.722657 7.199219 7.28125 10.582031 15.257813-19.164062 23.53125-43.765624 21.820313-69.582031-.96875.339844-1.941406.65625-2.933594.917969zm0 0" fill="#c78fe8"/><path d="m383.328125 1.410156c-12.542969 2.101563-24.15625 6.4375-34.507813 12.523438 3.105469-.394532 6.214844-.746094 9.328126-1.050782 5.550781-.539062 11.480468-.859374 16.355468 1.84375 3.277344 1.820313 5.707032 4.816407 8.132813 7.671876 6.25 7.347656 13.78125 14.621093 23.328125 16 4.191406.605468 8.796875.097656 12.320312 2.445312 4.3125 2.867188 5.199219 8.808594 4.949219 13.984375-.253906 5.171875-1.191406 10.613281.914063 15.34375 2.617187 5.871094 9.292968 8.933594 15.679687 9.648437 6.386719.714844 12.832031-.398437 19.257813-.308593 6.425781.085937 13.324218 1.660156 17.523437 6.523437 2.445313 2.824219 3.8125 6.578125 6.753906 8.882813 3.832031 3 9.296875 2.714843 14.007813 1.464843 1.226562-.324218 2.4375-.714843 3.625-1.160156-.214844-3.585937-.617188-7.191406-1.222656-10.816406-9.234376-55.074219-61.371094-92.234375-116.445313-82.996094zm0 0" fill="#dcb1f3"/><path d="m424.90625 3.097656c-13.195312-3.351562-27.285156-4.085937-41.578125-1.6875-12.546875 2.101563-24.15625 6.4375-34.507813 12.523438 3.105469-.394532 6.210938-.746094 9.328126-1.050782 5.546874-.539062 11.480468-.859374 16.355468 1.84375 3.277344 1.820313 5.707032 4.816407 8.132813 7.671876 5.367187 6.3125 11.6875 12.558593 19.414062 15.070312 1.949219-2.234375 3.066407-5.167969 3.011719-8.246094-.457031-25.878906 19.839844-26.125 19.84375-26.125zm0 0" fill="#c78fe8"/><path d="m232.574219 225.808594c-6.15625 0-11.003907-5.015625-11.003907-11.003906 0-5.085938 3.546876-9.703126 8.859376-10.78125 6.628906-1.335938 13.148437 3.703124 13.148437 10.78125 0 5.980468-4.84375 11.003906-11.003906 11.003906zm0 0" fill="#fadda0"/><path d="m110.429688 117.835938-16.695313 21.25c-1.378906-.382813-2.875-.105469-4.035156.765624-.351563.238282-.675781.53125-.953125.882813l-6.535156 8.320313c-3.289063 1.25-6.90625 1.347656-10.261719.277343l-24.324219-7.789062c-2.65625-.847657-3.648438-4.085938-1.925781-6.277344l10.492187-13.355469zm0 0" fill="#b9e9fd"/><path d="m89.699219 139.851562c-.351563.238282-.675781.53125-.953125.882813l-6.535156 8.320313c-3.289063 1.25-6.90625 1.347656-10.261719.277343l-6.238281-2c1.355468-.207031 5.605468-1.5 11.304687-9.421875 5.625-7.820312 10.980469-15.761718 12.832031-18.527344l20.578125-1.546874-16.691406 21.25c-1.378906-.382813-2.875-.105469-4.035156.765624zm0 0" fill="#61b6ff"/><path d="m140.574219 209.804688c-1.722657 2.191406-5.101563 1.992187-6.554688-.386719l-13.324219-21.789063c-1.835937-3.003906-2.597656-6.542968-2.160156-10.035156l6.535156-8.320312c.277344-.351563.484376-.734376.632813-1.132813.570313-1.335937.488281-2.855469-.210937-4.105469l16.695312-21.246094 8.878906 53.660157zm0 0" fill="#b9e9fd"/><path d="m125.703125 168.140625c.570313-1.335937.488281-2.855469-.210937-4.105469l16.695312-21.25 3.304688 19.96875c-3.011719 3.472656-7.957032 9.132813-13.980469 15.832032-5.5 6.121093-7.257813 10.960937-7.722657 14.101562l-3.09375-5.058594c-1.835937-3.003906-2.597656-6.542968-2.160156-10.035156l6.535156-8.320312c.277344-.355469.484376-.734376.632813-1.132813zm0 0" fill="#61b6ff"/><path d="m150.59375 197.046875-8.878906-53.660156 9.015625-11.472657 8.394531 50.738282c.308594 1.863281-.179688 3.769531-1.34375 5.25zm0 0" fill="#d0f6fa"/><path d="m148.664062 159.070312s-1.328124 1.558594-3.652343 4.238282l-3.296875-19.921875 9.015625-11.472657 4.34375 26.261719c-3.210938-3.226562-6.410157.894531-6.410157.894531zm0 0" fill="#b9e9fd"/><path d="m109.957031 118.4375-54.238281 4.074219 7.1875-9.144531c1.164062-1.484376 2.898438-2.410157 4.78125-2.550782l51.285156-3.851562zm0 0" fill="#d0f6fa"/><path d="m87.507812 109.328125 31.464844-2.363281-9.015625 11.472656-20.503906 1.542969c.691406-1.03125 1.082031-1.621094 1.082031-1.621094s7.148438-8.234375-3.027344-9.03125zm0 0" fill="#b9e9fd"/><path d="m178.496094 55.992188-4.679688 5.960937c-1.664062 2.113281-1.296875 5.175781.816406 6.835937 2.117188 1.660157 5.175782 1.292969 6.835938-.820312l4.683594-5.960938c1.660156-2.113281 1.292968-5.175781-.820313-6.835937-2.117187-1.660156-5.175781-1.289063-6.835937.820313zm0 0" fill="#fc7acd"/><path d="m138.320312 80.351562c9.515626-7.144531 23.828126-15.699218 36.792969-18.195312 2.601563-.503906 5.730469 1.957031 5.859375 4.605469.644532 13.1875-4.277344 29.117187-8.96875 40.050781zm0 0" fill="#f948b4"/><path d="m180.972656 66.761719c.035156.667969.046875 1.34375.054688 2.023437-26.320313 10.503906-22.015625 19.566406-22.015625 19.566406l-.886719-.085937-14.699219-11.546875c9.125-6.179688 20.871094-12.480469 31.6875-14.5625 2.601563-.503906 5.730469 1.957031 5.859375 4.605469zm0 0" fill="#f6159c"/><path d="m124.367188 163.410156-29.757813-23.378906c-.519531-.410156-1.109375-.671875-1.71875-.796875l45.945313-58.480469 32.65625 25.65625-45.941407 58.480469c-.269531-.5625-.664062-1.070313-1.183593-1.480469zm0 0" fill="#b9e9fd"/><path d="m109.488281 151.71875-14.878906-11.6875c-.519531-.410156-1.109375-.667969-1.71875-.796875l45.945313-58.476563 16.328124 12.824219zm0 0" fill="#83d3fc"/><path d="m95.011719 139.519531 29.757812 23.382813c2.09375 1.644531 2.457031 4.675781.8125 6.769531l-9.804687 12.480469c-1.644532 2.097656-4.675782 2.460937-6.773438.8125l-29.757812-23.375c-2.09375-1.648438-2.457032-4.679688-.8125-6.773438l9.804687-12.480468c1.644531-2.097657 4.675781-2.460938 6.773438-.816407zm0 0" fill="#d0f6fa"/><path d="m109.542969 151.902344-14.824219 18.871094c-.160156.203124-.308594.40625-.449219.613281l-15.023437-11.800781c-2.09375-1.644532-2.457032-4.679688-.8125-6.773438l9.804687-12.480469c1.644531-2.09375 4.675781-2.457031 6.773438-.8125l15.019531 11.804688c-.167969.183593-.328125.378906-.488281.578125zm0 0" fill="#b9e9fd"/><path d="m135.550781 102.644531c-2.214843 2.820313-1.726562 6.902344 1.09375 9.117188l5.242188 4.117187c2.816406 2.214844 6.898437 1.722656 9.113281-1.09375 2.214844-2.820312 1.726562-6.898437-1.09375-9.113281l-5.242188-4.121094c-2.820312-2.214843-6.902343-1.722656-9.113281 1.09375zm0 0" fill="#fbb362"/><path d="m133.214844 76.339844c-2.214844 2.820312-1.722656 6.902344 1.09375 9.117187l33.6875 26.460938c2.820312 2.214843 6.898437 1.726562 9.113281-1.09375 2.214844-2.820313 1.726563-6.898438-1.09375-9.113281l-33.6875-26.464844c-2.828125-2.222656-6.90625-1.714844-9.113281 1.09375zm0 0" fill="#fc7acd"/><path d="m151.371094 90.585938c-1.875 2.386718-1.90625 5.632812-.308594 8.03125l-16.753906-13.164063c-2.816406-2.214844-3.308594-6.292969-1.09375-9.113281 2.207031-2.808594 6.285156-3.316406 9.113281-1.09375l16.683594 13.105468c-2.691407-.9375-5.789063-.121093-7.640625 2.234376zm0 0" fill="#f948b4"/><path d="m136.15625 128.28125-38.410156 48.894531c-2.183594 2.777344-6.191406 3.300781-9.011719 1.171875-2.902344-2.1875-3.441406-6.335937-1.199219-9.191406l38.550782-49.066406c2.289062-2.917969 6.589843-3.351563 9.421874-.839844 2.59375 2.304688 2.792969 6.304688.648438 9.03125zm0 0" fill="#61b6ff"/><path d="m105.375 157.207031c2.273438 1.71875 5.253906 1.84375 7.613281.566407l-15.242187 19.402343c-2.183594 2.78125-6.191406 3.300781-9.011719 1.171875-2.902344-2.1875-3.441406-6.332031-1.199219-9.191406l15.289063-19.460938c-.746094 2.707032.167969 5.714844 2.550781 7.511719zm0 0" fill="#5294e5"/></svg>