<svg height="511pt" viewBox="-10 0 511 511.9923" width="511pt" xmlns="http://www.w3.org/2000/svg"><path d="m452.132812 398.667969c24.285157-38.03125 38.363282-83.210938 38.363282-131.675781 0-135.3125-109.691406-245-245-245s-245 109.6875-245 245c0 .917968.023437 1.832031.035156 2.75zm0 0" fill="#162680"/><path d="m77.429688 445.242188c43.871093 41.378906 103 66.75 168.066406 66.75s124.195312-25.371094 168.066406-66.75zm0 0" fill="#a2ec00"/><path d="m221.40625 445.242188h-143.976562c37.335937 35.214843 85.726562 58.824218 139.421874 65.078124-40.132812-5.164062-36.273437-65.078124 4.554688-65.078124zm0 0" fill="#00c82f"/><path d="m41.945312 243.898438c5.464844 1.929687 11.082032 2.5 16.488282 1.890624v28.996094h-26.707032v-36.402344c3.058594 2.332032 6.492188 4.199219 10.21875 5.515626zm0 0" fill="#83d3fc"/><path d="m51.734375 256.242188h-13.308594c-3.699219 0-6.699219-3-6.699219-6.703126v25.246094h26.707032v-25.246094c0 3.703126-3 6.703126-6.699219 6.703126zm0 0" fill="#61b6ff"/><path d="m89.488281 222.140625c1.464844-4.148437-.714843-8.703125-4.863281-10.164063-4.152344-1.464843-8.703125.710938-10.164062 4.863282-3.914063 11.089844-16.121094 16.933594-27.210938 13.019531-11.117188-3.921875-16.945312-16.089844-13.023438-27.207031 1.464844-4.152344-.710937-8.703125-4.863281-10.167969-4.148437-1.460937-8.699219.714844-10.164062 4.867187-6.851563 19.421876 3.320312 40.6875 22.746093 47.539063 19.378907 6.832031 40.707032-3.371094 47.542969-22.75zm0 0" fill="#e0f9fe"/><path d="m118.050781 284.035156c0-1.570312-.167969-3.097656-.484375-4.574218h101.316406c3.425782 0 6.53125-1.378907 8.792969-3.609376v28.929688h-124.460937c8.621094-2.957031 14.835937-11.136719 14.835937-20.746094zm0 0" fill="#5294e5"/><path d="m163.65625 279.460938h-46.089844c.316406 1.472656.484375 3.003906.484375 4.574218 0 9.609375-6.214843 17.789063-14.835937 20.742188h60.441406zm0 0" fill="#4374d3"/><path d="m146.941406 199.886719v33.519531h25.074219v-33.53125c-7.941406 3.335938-17.011719 3.40625-25.074219.011719zm0 0" fill="#b9e9fd"/><path d="m159.308594 214.027344h.277344c5.609374-.019532 10.433593 3.292968 12.429687 8.121094v-22.273438c-7.941406 3.335938-17.011719 3.40625-25.078125.011719v22.265625c1.992188-4.816406 6.792969-8.144532 12.371094-8.125zm0 0" fill="#83d3fc"/><path d="m131.441406 39.210938c-19.007812 38.167968-15.777344 79.375 5.722656 110.667968 11.4375-10.675781 29.300782-11.390625 41.585938-1.078125 11.910156 9.992188 14.527344 26.933594 6.921875 39.910157 33.523437 13.394531 72.59375 8.777343 105.453125-15.507813zm0 0" fill="#5294e5"/><path d="m178.902344 79.035156-47.460938-39.824218c-19.007812 38.167968-15.777344 79.375 5.722656 110.667968 9.480469-8.847656 23.375-10.84375 34.851563-5.398437-12.949219-38.855469 6.398437-64.640625 6.398437-64.640625zm0 0" fill="#4374d3"/><path d="m159.46875 41.0625c-4.34375 0-8.035156-3.332031-8.398438-7.742188-.386718-4.644531 3.066407-8.71875 7.710938-9.105468l122.015625-10.09375c4.636719-.390625 8.722656 3.070312 9.105469 7.714844.386718 4.644531-3.066406 8.722656-7.714844 9.105468l-122.015625 10.09375c-.234375.019532-.472656.027344-.703125.027344zm0 0" fill="#b9e9fd"/><path d="m213.960938 27.964844c-.285157-3.472656 1.273437-6.667969 3.855468-8.632813l-59.035156 4.886719c-4.644531.382812-8.097656 4.460938-7.714844 9.105469.367188 4.40625 4.058594 7.742187 8.402344 7.742187.230469 0 .46875-.011718.703125-.03125l59.558594-4.925781c-3.152344-1.421875-5.464844-4.457031-5.769531-8.144531zm0 0" fill="#83d3fc"/><path d="m284.335938 145.21875-11.246094-121.910156c-.425782-4.640625 2.988281-8.75 7.628906-9.179688 4.652344-.421875 8.75 2.988282 9.175781 7.628906l11.246094 121.914063c.429687 4.640625-2.984375 8.75-7.625 9.175781-4.632813.425782-8.75-2.976562-9.179687-7.628906zm0 0" fill="#b9e9fd"/><path d="m301.140625 143.671875-5.464844-59.261719c-1.230469 3.183594-4.167969 5.566406-7.792969 5.902344-3.851562.355469-7.371093-1.703125-9.066406-4.933594l5.519532 59.84375c.429687 4.648438 4.546874 8.050782 9.179687 7.628906 4.640625-.429687 8.054687-4.539062 7.625-9.179687zm0 0" fill="#83d3fc"/><path d="m220.683594 95c-3.570313-2.996094-4.035156-8.316406-1.039063-11.886719l55.71875-66.402343c2.996094-3.570313 8.316407-4.039063 11.886719-1.039063 3.570312 2.992187 4.039062 8.316406 1.042969 11.886719l-55.71875 66.402344c-2.980469 3.550781-8.304688 4.050781-11.890625 1.039062zm0 0" fill="#e0f9fe"/><path d="m247.703125 62.546875c-2.664063-2.234375-3.835937-5.585937-3.421875-8.796875l-24.636719 29.363281c-2.996093 3.570313-2.53125 8.890625 1.039063 11.886719 3.585937 3.011719 8.910156 2.511719 11.890625-1.039062l24.984375-29.777344c-3.222656 1.242187-7.007813.753906-9.855469-1.636719zm0 0" fill="#b9e9fd"/><path d="m296.726562 3.738281c-6.75-5.664062-16.816406-4.785156-22.480468 1.964844-5.667969 6.753906-4.785156 16.816406 1.964844 22.484375 6.75 5.664062 16.816406 4.785156 22.480468-1.96875 5.667969-6.75 4.785156-16.816406-1.964844-22.480469zm0 0" fill="#fc7acd"/><path d="m300.121094 16.164062c-3.496094 4.167969-9.703125 4.710938-13.871094 1.214844-4.164062-3.496094-4.707031-9.703125-1.214844-13.871094 1.316406-1.566406 3.015625-2.621093 4.847656-3.140624-5.613281-1.222657-11.695312.621093-15.640624 5.324218-5.667969 6.753906-4.785157 16.816406 1.964843 22.484375 6.753907 5.664063 16.820313 4.785157 22.484375-1.96875 3.304688-3.9375 4.367188-9 3.347656-13.664062-.367187 1.289062-1 2.527343-1.917968 3.621093zm0 0" fill="#f948b4"/><path d="m180.25 147.195312c-13.675781-11.476562-34.0625-9.691406-45.535156 3.980469-11.476563 13.675781-9.695313 34.0625 3.980468 45.539063 13.675782 11.472656 34.0625 9.691406 45.535157-3.984375 11.476562-13.671875 9.695312-34.0625-3.980469-45.535157zm0 0" fill="#e0f9fe"/><path d="m177.292969 232.09375h-35.628907c-6.925781 0-12.535156 5.613281-12.535156 12.535156 0 6.925782 5.613282 12.539063 12.535156 12.539063h35.628907c6.921875 0 12.535156-5.613281 12.535156-12.539063.003906-6.921875-5.613281-12.535156-12.535156-12.535156zm0 0" fill="#e0f9fe"/><path d="m157.484375 244.628906c0-6.921875 5.613281-12.539062 12.539063-12.539062h-28.359376c-6.925781 0-12.539062 5.617187-12.539062 12.539062 0 6.925782 5.613281 12.539063 12.539062 12.539063h28.359376c-6.925782 0-12.539063-5.613281-12.539063-12.539063zm0 0" fill="#b9e9fd"/><path d="m292.21875 175.332031-163.066406-136.828125c-5.304688-4.453125-6-12.363281-1.546875-17.664062 4.453125-5.304688 12.359375-5.996094 17.664062-1.546875l163.070313 136.832031c5.304687 4.449219 5.996094 12.359375 1.542968 17.664062-4.449218 5.304688-12.359374 5.996094-17.664062 1.542969zm0 0" fill="#61b6ff"/><path d="m308.339844 156.121094-23.277344-19.527344c-5.160156-2.144531-11.324219-.820312-15.105469 3.691406-3.78125 4.507813-4.019531 10.804688-1.011719 15.515625l23.273438 19.53125c5.304688 4.453125 13.214844 3.757813 17.664062-1.542969 4.453126-5.308593 3.761719-13.214843-1.542968-17.667968zm0 0" fill="#83d3fc"/><path d="m181.292969 65.882812c3.371093-4.015624 8.394531-5.816406 13.242187-5.253906l-49.265625-41.335937c-5.304687-4.453125-13.210937-3.761719-17.664062 1.542969-4.449219 5.304687-3.757813 13.214843 1.546875 17.664062l49.265625 41.335938c-1.398438-4.671876-.496094-9.933594 2.875-13.953126zm0 0" fill="#5294e5"/><path d="m96.125 262.105469c-1.589844 0-3.140625.175781-4.636719.496093 2.15625-3.796874 6.226563-6.359374 10.902344-6.359374h116.488281c6.925782 0 12.539063 5.613281 12.539063 12.535156 0 6.925781-5.613281 12.539062-12.539063 12.539062h-101c-1.34375-10.8125-10.582031-19.210937-21.753906-19.210937zm0 0" fill="#b9e9fd"/><path d="m163.203125 256.242188h-60.808594c-4.675781 0-8.75 2.566406-10.90625 6.359374 1.496094-.320312 3.046875-.496093 4.636719-.496093 11.171875 0 20.410156 8.398437 21.753906 19.210937h45.324219c-5.238281-1.761718-9.015625-6.703125-9.015625-12.539062-.003906-5.832032 3.777344-10.773438 9.015625-12.535156zm0 0" fill="#83d3fc"/><path d="m172.328125 201.601562c-17.957031-2.347656-12.851563-17.125-12.851563-17.125l4.058594-24.394531c-6.589844-14.679687 7.632813-18.265625 7.640625-18.269531-12.546875-4.871094-27.324219-1.527344-36.457031 9.355469-11.476562 13.675781-9.691406 34.0625 3.980469 45.539062 9.695312 8.132813 22.757812 9.597657 33.628906 4.894531zm0 0" fill="#b9e9fd"/><path d="m167.53125 162.351562c-5.304688-4.453124-13.210938-3.761718-17.664062 1.542969-4.449219 5.304688-3.757813 13.210938 1.546874 17.664063 5.304688 4.449218 13.210938 3.757812 17.664063-1.546875 4.449219-5.300781 3.757813-13.210938-1.546875-17.660157zm0 0" fill="#83d3fc"/><path d="m67.054688 434.855469h169.707031c2.332031-11.507813 4.46875-20.011719 13.351562-28.6875v-30.671875h-224.320312c10.796875 21.824218 24.75 41.808594 41.261719 59.359375zm0 0" fill="#4374d3"/><path d="m54.832031 413.339844v-37.84375h-29.039062c8.394531 16.964844 18.703125 32.8125 30.628906 47.273437-1.023437-2.957031-1.589844-6.128906-1.589844-9.429687zm0 0" fill="#3957c9"/><path d="m64.292969 431.886719c8.78125 9.640625 18.324219 18.570312 28.527343 26.707031h144.078126c-1.242188-4.3125-1.898438-8.777344-1.898438-13.351562 0-4.578126.65625-9.042969 1.898438-13.355469zm0 0" fill="#e0f9fe"/><path d="m96.125 305.960938c-12.09375 0-21.929688-9.835938-21.929688-21.925782 0-5.734375 2.214844-10.957031 5.828126-14.867187h-79.5c.332031 38.15625 9.386718 74.230469 25.269531 106.328125h224.320312v-72.695313h-142.65625c-3.3125 2.003907-7.1875 3.160157-11.332031 3.160157zm0 0" fill="#5294e5"/><path d="m54.832031 296.125c0-12.175781 7.597657-22.65625 18.277344-26.957031h-72.585937c.332031 38.15625 9.386718 74.226562 25.269531 106.324219h29.039062zm0 0" fill="#4374d3"/><g fill="#61b6ff"><path d="m215.875 355.214844c4.097656 0 7.417969-3.320313 7.417969-7.417969v-16.703125c0-4.097656-3.320313-7.421875-7.417969-7.421875-4.101562 0-7.421875 3.324219-7.421875 7.421875v16.703125c0 4.09375 3.320313 7.417969 7.421875 7.417969zm0 0"/><path d="m187.664062 355.214844c4.097657 0 7.417969-3.320313 7.417969-7.417969v-16.703125c0-4.097656-3.320312-7.421875-7.417969-7.421875-4.101562 0-7.421874 3.324219-7.421874 7.421875v16.703125c0 4.09375 3.320312 7.417969 7.421874 7.417969zm0 0"/><path d="m159.449219 355.214844c4.097656 0 7.417969-3.320313 7.417969-7.417969v-16.703125c0-4.097656-3.320313-7.421875-7.417969-7.421875-4.097657 0-7.417969 3.324219-7.417969 7.421875v16.703125c0 4.09375 3.320312 7.417969 7.417969 7.417969zm0 0"/><path d="m129.875 343.460938c5.425781 0 9.890625-4.433594 9.890625-9.890626 0-6.296874-5.796875-10.925781-11.820313-9.703124-4.714843.953124-7.964843 5.054687-7.964843 9.703124.003906 5.53125 4.539062 9.890626 9.894531 9.890626zm0 0"/><path d="m100.574219 343.457031c5.40625 0 9.894531-4.417969 9.894531-9.894531 0-4.546875-3.171875-8.730469-7.964844-9.703125-5.984375-1.195313-11.820312 3.375-11.820312 9.703125 0 5.449219 4.4375 9.894531 9.890625 9.894531zm0 0"/></g><path d="m116.398438 272.320312c-6.464844-11.195312-20.785157-15.035156-31.984376-8.566406-11.195312 6.464844-15.03125 20.78125-8.566406 31.980469 6.464844 11.195313 20.78125 15.03125 31.980469 8.566406 11.195313-6.464843 15.035156-20.78125 8.570313-31.980469zm0 0" fill="#83d3fc"/><path d="m84.417969 263.757812c-11.199219 6.464844-15.035157 20.785157-8.570313 31.984376 6.464844 11.195312 20.785156 15.03125 31.984375 8.566406-8.972656-2.402344-6.761719-11.707032-6.761719-11.707032l-9.890624-17.132812c-9.589844-2.570312-6.761719-11.710938-6.761719-11.710938zm0 0" fill="#61b6ff"/><path d="m101.070312 292.601562c-4.679687 2.703126-10.773437 1.121094-13.511718-3.621093-2.273438-3.9375-1.621094-9.148438 2.042968-12.386719 4.585938-4.027344 11.925782-2.988281 15.089844 2.496094 2.726563 4.71875 1.105469 10.785156-3.621094 13.511718zm0 0" fill="#5294e5"/><path d="m263.871094 215.117188h41.195312c26.882813 0 50.980469 16.574218 60.601563 41.671874l12.082031 31.519532c8.703125 15.746094 22.78125 27.835937 39.664062 34.054687.121094.046875.242188.089844.363282.136719 18.246094 6.828125 30.179687 24.46875 30.179687 43.953125v67.414063h-83.28125c-6.183593-29.605469-32.476562-53.890626-63.890625-53.890626-21.59375 0-40.765625 10.550782-52.652344 26.757813v-175.882813c0-8.6875 7.046876-15.734374 15.738282-15.734374zm0 0" fill="#f948b4"/><path d="m313.574219 363.433594v-132.582032c0-5.828124 3.179687-10.902343 7.886719-13.621093-5.273438-1.378907-10.773438-2.113281-16.394532-2.113281h-41.199218c-8.6875 0-15.734376 7.046874-15.734376 15.734374v175.882813c11.886719-16.210937 31.058594-26.761719 52.652344-26.761719 6.179688 0 12.15625.953125 17.824219 2.691406-3.179687-5.851562-5.035156-12.472656-5.035156-19.230468zm0 0" fill="#f6159c"/><path d="m300.789062 343.386719h15.339844c4.097656 0 7.421875-3.320313 7.421875-7.417969s-3.324219-7.421875-7.421875-7.421875h-15.339844c-4.101562 0-7.421874 3.324219-7.421874 7.421875s3.320312 7.417969 7.421874 7.417969zm0 0" fill="#fc7acd"/><path d="m304.652344 290.316406h-12.9375c-3.980469 0-7.207032-3.226562-7.207032-7.207031v-32.269531c0-2.972656 2.414063-5.386719 5.386719-5.386719h70.09375c2.230469 3.542969 4.140625 7.328125 5.679688 11.335937l12.082031 31.519532c5.359375 9.699218 12.769531 18.003906 21.609375 24.414062h-76.953125c-3.121094 0-5.890625-2.011718-6.855469-4.980468l-4.042969-12.445313c-.964843-2.96875-3.730468-4.980469-6.855468-4.980469zm0 0" fill="#61b6ff"/><path d="m284.511719 250.839844v32.269531c0 3.980469 3.226562 7.207031 7.207031 7.207031h12.9375c3.121094 0 5.886719 2.011719 6.851562 4.980469l2.070313 6.363281v-56.207031h-23.683594c-2.972656 0-5.382812 2.414063-5.382812 5.386719zm0 0" fill="#5294e5"/><path d="m419.257812 389.128906h31.171876c6.53125 0 11.871093 5.339844 11.871093 11.871094v19.015625c0 6.527344-5.339843 11.871094-11.871093 11.871094h-31.171876c-6.527343 0-11.871093-5.34375-11.871093-11.871094v-19.015625c0-6.53125 5.34375-11.871094 11.871093-11.871094zm0 0" fill="#ffade5"/><path d="m434.84375 420.015625v-19.019531c0-6.527344 5.34375-11.871094 11.871094-11.871094h-27.457032c-6.527343 0-11.871093 5.34375-11.871093 11.871094v19.019531c0 6.527344 5.34375 11.871094 11.871093 11.871094h27.457032c-6.527344 0-11.871094-5.34375-11.871094-11.871094zm0 0" fill="#fc7acd"/><path d="m366.054688 445.242188c0-4.578126-.480469-9.042969-1.378907-13.355469h84.269531c7.375 0 13.355469 5.980469 13.355469 13.355469s-5.980469 13.351562-13.355469 13.351562h-84.269531c.898438-4.3125 1.378907-8.777344 1.378907-13.351562zm0 0" fill="#e0f9fe"/><path d="m367.539062 445.242188c0 36.863281-29.886718 66.75-66.75 66.75-36.867187 0-66.75-29.886719-66.75-66.75 0-36.867188 29.882813-66.75 66.75-66.75 36.863282 0 66.75 29.882812 66.75 66.75zm0 0" fill="#4374d3"/><path d="m315.929688 478.382812c.582031-2.257812-.636719-4.566406-2.78125-5.488281-7.671876-3.300781-7.527344-10.238281-6.710938-14.210937.367188-1.765625-.300781-3.546875-1.679688-4.707032-6.128906-5.15625-6.753906-13.683593-6.617187-18.066406.050781-1.683594-.839844-3.226562-2.257813-4.140625-7.335937-4.742187-5.757812-11.648437-3.867187-15.761719.917969-1.992187.296875-4.382812-1.472656-5.679687-17.230469-12.636719-2.4375-30.320313-2.140625-30.671875-30.945313 5.808594-54.367188 32.953125-54.367188 65.585938 0 36.863281 29.886719 66.75 66.75 66.75 11.238282 0 21.820313-2.789063 31.113282-7.695313-18.230469-6.40625-17.6875-19.253906-15.96875-25.914063zm0 0" fill="#3957c9"/><path d="m334.164062 445.242188c0 18.429687-14.945312 33.375-33.375 33.375-18.433593 0-33.375-14.945313-33.375-33.375 0-18.433594 14.941407-33.375 33.375-33.375 18.429688 0 33.375 14.941406 33.375 33.375zm0 0" fill="#e0f9fe"/><path d="m313.148438 472.894531c-7.671876-3.300781-7.527344-10.238281-6.710938-14.210937.367188-1.765625-.300781-3.546875-1.679688-4.707032-6.128906-5.15625-6.753906-13.683593-6.617187-18.066406.050781-1.683594-.839844-3.226562-2.257813-4.140625-7.335937-4.742187-5.757812-11.648437-3.867187-15.761719.453125-.980468.527344-2.054687.28125-3.046874-14.320313 3.753906-24.886719 16.78125-24.886719 32.28125 0 18.429687 14.941406 33.375 33.375 33.375 5.3125 0 10.328125-1.246094 14.785156-3.453126-.496093-.988281-1.339843-1.804687-2.421874-2.269531zm0 0" fill="#83d3fc"/><path d="m300.78125 457.605469c6.835938 0 12.375-5.570313 12.375-12.363281 0-6.425782-4.933594-11.699219-11.15625-12.304688-7.246094-.71875-13.582031 5.011719-13.582031 12.304688 0 6.8125 5.5625 12.363281 12.363281 12.363281zm0 0" fill="#83d3fc"/><path d="m288.417969 445.242188c0 6.816406 5.5625 12.363281 12.363281 12.363281 1.988281 0 3.859375-.480469 5.523438-1.316407-.277344-.882812-.804688-1.691406-1.546876-2.3125-6.128906-5.15625-6.753906-13.683593-6.617187-18.066406.027344-.921875-.234375-1.796875-.703125-2.554687-5.144531 1.460937-9.019531 6.1875-9.019531 11.886719zm0 0" fill="#61b6ff"/><path d="m434.84375 226.398438c-7.355469 0-13.574219-5.980469-13.574219-13.574219 0-6.308594 4.355469-11.964844 10.914063-13.316407 8.25-1.652343 16.234375 4.648438 16.234375 13.316407 0 7.460937-6.074219 13.574219-13.574219 13.574219zm0 0" fill="#4374d3"/><path d="m377.71875 111.386719c-7.355469 0-13.574219-5.980469-13.574219-13.574219 0-6.304688 4.355469-11.964844 10.914063-13.316406 8.25-1.652344 16.234375 4.648437 16.234375 13.316406 0 7.460938-6.074219 13.574219-13.574219 13.574219zm0 0" fill="#fadda0"/><path d="m367.539062 190.128906c-5.695312 0-10.183593-4.644531-10.183593-10.179687 0-4.671875 3.21875-8.941407 8.199219-9.976563 6.167968-1.246094 12.164062 3.480469 12.164062 9.976563 0 5.695312-4.636719 10.179687-10.179688 10.179687zm0 0" fill="#fd7e31"/><path d="m55.863281 237.007812c0-2.460937.972657-4.6875 2.550781-6.335937-3.613281.710937-7.449218.5-11.164062-.8125-11.117188-3.921875-16.945312-16.089844-13.023438-27.207031 1.464844-4.152344-.710937-8.703125-4.863281-10.167969-4.148437-1.460937-8.699219.714844-10.164062 4.867187-6.851563 19.421876 3.320312 40.6875 22.746093 47.539063 7.046876 2.484375 14.34375 2.707031 21.113282 1.066406-4.113282-.902343-7.195313-4.566406-7.195313-8.949219zm0 0" fill="#b9e9fd"/></svg>