<?xml version="1.0" encoding="utf-8"?>
<!-- Generator: Adobe Illustrator 25.0.0, SVG Export Plug-In . SVG Version: 6.00 Build 0)  -->
<svg version="1.1" xmlns="http://www.w3.org/2000/svg" xmlns:xlink="http://www.w3.org/1999/xlink" x="0px" y="0px"
	 viewBox="0 0 345.07 345.07" style="enable-background:new 0 0 345.07 345.07;" xml:space="preserve">
<style type="text/css">
	.st0{fill:#F5F5F5;}
	.st1{fill:#E8EDC5;}
	.st2{fill:#FFFFFF;}
	.st3{fill:#85BAC6;}
	.st4{fill:#F6E1DC;}
	.st5{fill:#080717;}
	.st6{fill:none;stroke:#080717;stroke-width:2;stroke-linecap:round;stroke-linejoin:round;stroke-miterlimit:10;}
	.st7{fill:#F2ECDE;}
	.st8{fill:#C7E1E0;}
	.st9{fill:#FCDEDE;}
	.st10{fill:#EFCBBF;}
	.st11{fill:#CEE1E7;}
	.st12{fill:#FDEDE0;}
	.st13{fill:#B9D2D7;}
	.st14{fill:#EDE6E4;}
	.st15{fill:#FDE3EC;}
	.st16{fill:#DDD6CC;}
	.st17{fill:#F3F3F3;}
	.st18{fill:#E0D5C1;}
	.st19{fill:none;stroke:#000000;stroke-width:2;stroke-linecap:round;stroke-linejoin:round;stroke-miterlimit:10;}
	.st20{fill:#E0E0E0;}
	.st21{fill:#DBDDC0;}
</style>
<g id="Layer_3">
</g>
<g id="_x3C_Layer_x3E_">
	<g>

			<ellipse transform="matrix(0.7071 -0.7071 0.7071 0.7071 -71.4658 172.5338)" class="st15" cx="172.53" cy="172.53" rx="172.53" ry="172.53"/>
		<path class="st2" d="M172.53,345.07c53.68,0,101.63-24.52,133.27-62.96l0.19-8.73c0.58-26.18-20.18-47.86-46.35-48.44
			l-147.22-3.24c-26.18-0.58-47.87,20.18-48.44,46.35l-0.83,37.9C92.92,330.39,131.01,345.07,172.53,345.07z"/>
		<g>
			<path d="M63.15,308.09c-0.01,0-0.03,0-0.05,0c-1.18-0.03-2.11-1-2.09-2.18l0.83-37.9c0.29-13.23,5.72-25.56,15.28-34.71
				c9.56-9.15,22.02-14.04,35.34-13.74l147.22,3.24c13.23,0.29,25.56,5.72,34.71,15.28c9.15,9.56,14.03,22.11,13.74,35.35
				l-0.19,8.73c-0.03,1.16-0.98,2.09-2.14,2.09c-0.01,0-0.03,0-0.05,0c-1.18-0.03-2.11-1-2.09-2.18l0.19-8.73
				c0.27-12.09-4.19-23.56-12.55-32.3c-8.36-8.74-19.63-13.7-31.72-13.96l-147.22-3.24c-12.05-0.3-23.56,4.19-32.3,12.55
				c-8.74,8.36-13.69,19.62-13.96,31.71L65.29,306C65.26,307.16,64.31,308.09,63.15,308.09z"/>
		</g>
		<path d="M164.11,210.69h-19.21c-35.31,0-63.94-28.63-63.94-63.94v-42.57c0-35.31,28.63-63.94,63.94-63.94h19.21
			c35.31,0,63.94,28.63,63.94,63.94v42.57C228.05,182.06,199.42,210.69,164.11,210.69z"/>
		<path d="M172.5,168.98L172.5,168.98c-33.9,0-61.38-27.48-61.38-61.38V95.05c0-33.9,27.48-61.38,61.38-61.38l0,0
			c33.9,0,61.38,27.48,61.38,61.38v12.55C233.88,141.5,206.4,168.98,172.5,168.98z"/>
		<path d="M234.79,104.29c-22.27-3.77-47.68-4.9-74.48-2.75c-31.83,2.56-77.24,40.19-77.24,52.08c0,28.14-15.18,52.67-37.69,65.7
			c28.79,15.22,74.7,22.97,125.63,18.88c67.12-5.4,122.46-29.72,140.11-58.64C274.62,169.5,245.68,140.87,234.79,104.29z"/>
		<g>
			<path d="M40.05,214.7c-0.78,0-1.53-0.43-1.91-1.17c-0.53-1.05-0.11-2.34,0.94-2.87c23.27-11.81,38.63-35.47,40.08-61.74
				c0.06-1.18,1.05-2.07,2.25-2.02c1.18,0.06,2.08,1.07,2.02,2.25c-1.53,27.79-17.78,52.82-42.41,65.32
				C40.71,214.62,40.38,214.7,40.05,214.7z"/>
		</g>
		<g>
			<path d="M239.36,88.39c-0.99,0-1.88-0.69-2.09-1.69c-3.77-17.77-12.3-31.04-25.34-39.43c-13.78-8.86-32.66-11.79-50.52-7.83
				c-1.17,0.26-2.3-0.47-2.55-1.62c-0.25-1.15,0.47-2.29,1.62-2.55c18.94-4.21,39.04-1.06,53.76,8.41
				c14.04,9.04,23.2,23.21,27.21,42.14c0.24,1.15-0.49,2.29-1.65,2.53C239.66,88.37,239.51,88.39,239.36,88.39z"/>
		</g>
		<g>
			<path class="st2" d="M223.01,126.69l13.28-3.95c8.11-2.41,12.73-10.94,10.32-19.05l0,0c-2.41-8.11-10.94-12.73-19.05-10.32
				l-13.28,3.95c-8.11,2.41-12.73,10.94-10.32,19.05l0,0C206.38,124.48,214.91,129.1,223.01,126.69z"/>
			<path d="M218.63,129.47c-2.86,0-5.7-0.71-8.29-2.11c-4.1-2.22-7.09-5.9-8.42-10.37c-2.74-9.23,2.53-18.96,11.76-21.7l13.28-3.95
				c4.47-1.33,9.19-0.84,13.29,1.38c4.1,2.22,7.09,5.9,8.42,10.37c1.33,4.47,0.84,9.19-1.39,13.29c-2.22,4.1-5.91,7.09-10.37,8.42
				l-13.28,3.95l0,0C221.98,129.23,220.3,129.47,218.63,129.47z M223.01,126.69h0.02H223.01z M231.95,94.87
				c-1.26,0-2.53,0.18-3.77,0.55l-13.28,3.95c-3.37,1-6.16,3.26-7.83,6.36c-1.68,3.09-2.05,6.66-1.04,10.03
				c1,3.37,3.26,6.16,6.36,7.83c3.1,1.68,6.66,2.05,10.03,1.05l13.28-3.95c3.37-1,6.16-3.26,7.84-6.36
				c1.68-3.1,2.05-6.66,1.04-10.03c-1-3.38-3.26-6.16-6.36-7.83C236.25,95.41,234.11,94.87,231.95,94.87z"/>
		</g>
		<g>
			<path class="st2" d="M108.67,156.11l-13.86-0.26c-8.46-0.16-15.19-7.14-15.03-15.6l0,0c0.16-8.46,7.14-15.19,15.6-15.03
				l13.86,0.25c8.46,0.16,15.19,7.14,15.03,15.6l0,0C124.11,149.53,117.13,156.26,108.67,156.11z"/>
			<path d="M108.96,158.25c-0.11,0-0.21,0-0.33,0l0,0l-13.86-0.26c-4.66-0.09-9.01-1.98-12.24-5.34c-3.24-3.36-4.97-7.77-4.88-12.43
				c0.09-4.66,1.98-9.01,5.34-12.24c3.36-3.24,7.76-4.98,12.43-4.88l13.86,0.26c4.66,0.09,9.01,1.98,12.24,5.34
				c3.24,3.36,4.97,7.77,4.88,12.43C126.23,150.63,118.43,158.25,108.96,158.25z M108.71,153.97c0.08,0,0.16,0,0.25,0
				c7.15,0,13.04-5.75,13.17-12.94c0.06-3.52-1.24-6.85-3.69-9.39c-2.44-2.53-5.73-3.97-9.25-4.03l-13.86-0.26
				c-3.58-0.12-6.85,1.24-9.39,3.69c-2.53,2.44-3.96,5.73-4.03,9.25c-0.06,3.52,1.24,6.85,3.69,9.39c2.44,2.53,5.73,3.97,9.25,4.03
				L108.71,153.97z"/>
		</g>
		<g>
			<path class="st2" d="M191.86,282.53L191.86,282.53c-25.87,4.01-50.1-13.72-54.11-39.59l-9.26-59.74
				c-4.01-25.87,13.72-50.1,39.59-54.11h0c25.87-4.01,50.1,13.72,54.11,39.59l9.26,59.74C235.46,254.3,217.73,278.52,191.86,282.53z
				"/>
			<path d="M184.49,285.24c-10.44,0-20.57-3.29-29.15-9.57c-10.68-7.81-17.68-19.32-19.7-32.4l-9.26-59.74
				c-2.03-13.08,1.16-26.16,8.97-36.84c7.81-10.68,19.32-17.68,32.4-19.71c13.08-2.02,26.16,1.16,36.84,8.98
				c10.68,7.81,17.68,19.32,19.7,32.4l9.26,59.74c4.18,27-14.38,52.37-41.37,56.55C189.61,285.04,187.04,285.24,184.49,285.24z
				 M175.43,130.66c-2.33,0-4.68,0.18-7.03,0.54c-11.95,1.85-22.47,8.25-29.6,18c-7.14,9.76-10.05,21.72-8.2,33.67l9.26,59.74
				c1.85,11.95,8.24,22.46,18.01,29.6c9.76,7.14,21.72,10.06,33.66,8.2c24.67-3.82,41.63-27,37.81-51.67l-9.26-59.74
				c-1.85-11.95-8.24-22.46-18.01-29.6C194.23,133.67,184.97,130.66,175.43,130.66z"/>
		</g>
		<path class="st2" d="M166.05,210.69L166.05,210.69c-34.24,0-62-27.76-62-62V129c0-34.24,27.76-62,62-62h0c34.24,0,62,27.76,62,62
			v19.69C228.05,182.93,200.29,210.69,166.05,210.69z"/>
		<path d="M100.91,124.72v0.11c10.98-7.42,19.08-33.28,19.08-64.05v-0.11C109.02,68.08,100.91,93.94,100.91,124.72z"/>
		<g>
			<path d="M166.05,212.82c-32.63,0-60.02-24.41-63.71-56.79c-0.13-1.17,0.71-2.23,1.88-2.37c1.19-0.13,2.23,0.71,2.36,1.88
				c3.45,30.21,29.01,53,59.47,53c13.74,0,27.16-4.77,37.79-13.43c0.92-0.74,2.26-0.61,3.01,0.31c0.75,0.91,0.61,2.26-0.31,3.01
				C195.14,207.71,180.77,212.82,166.05,212.82z"/>
		</g>
		<g>
			<path d="M226.58,116.55c-1.03,0-1.93-0.74-2.11-1.79c-1.68-10.07,6.49-15.1,6.84-15.31c1.01-0.61,2.32-0.28,2.93,0.73
				c0.61,1.01,0.28,2.32-0.72,2.93c-0.27,0.17-6.02,3.81-4.83,10.95c0.19,1.16-0.59,2.27-1.76,2.46
				C226.82,116.54,226.7,116.55,226.58,116.55z"/>
		</g>
		<g>
			<path d="M101.95,147.37c-1.08,0-2.01-0.81-2.12-1.91c-0.76-7.21-7.31-9.18-7.59-9.26c-1.13-0.33-1.79-1.5-1.47-2.64
				c0.32-1.13,1.49-1.79,2.62-1.48c0.39,0.11,9.61,2.77,10.69,12.93c0.13,1.17-0.73,2.23-1.9,2.35
				C102.1,147.36,102.02,147.37,101.95,147.37z"/>
		</g>
		<path d="M148.63,111.62c0.92,2.38-3.69,6.37-10.28,8.9c-6.59,2.54-12.68,2.66-13.6,0.28c-0.92-2.38,3.69-6.37,10.28-8.9
			C141.62,109.37,147.71,109.24,148.63,111.62z"/>
		<path d="M195.99,108.21c-0.18,2.54-6.03,4.22-13.08,3.73c-7.05-0.48-12.62-2.94-12.44-5.49c0.17-2.54,6.03-4.21,13.08-3.73
			C190.6,103.21,196.17,105.66,195.99,108.21z"/>
		<g>
			<path d="M131.81,136.64c-0.42,0-0.84-0.12-1.21-0.38c-0.97-0.67-1.21-2-0.54-2.97c5.77-8.35,15.25-6,19.46-3.6
				c1.02,0.59,1.38,1.89,0.8,2.91c-0.59,1.02-1.89,1.38-2.91,0.8c-0.39-0.22-8.87-4.86-13.83,2.32
				C133.16,136.32,132.49,136.64,131.81,136.64z"/>
		</g>
		<g>
			<path d="M178.71,128.83c-0.42,0-0.84-0.12-1.21-0.38c-0.97-0.67-1.21-2-0.54-2.97c5.77-8.35,15.25-6,19.46-3.6
				c1.02,0.59,1.38,1.89,0.79,2.92c-0.59,1.02-1.89,1.38-2.91,0.8c-0.37-0.21-8.86-4.87-13.83,2.32
				C180.06,128.51,179.39,128.83,178.71,128.83z"/>
		</g>
		<g>
			<path d="M167.59,151.24c-0.07,0-0.15,0-0.22-0.01c-2.94-0.3-5.63-1.84-7.37-4.23c-1.74-2.38-2.4-5.41-1.81-8.3l3.38-16.36
				c0.24-1.16,1.37-1.9,2.52-1.66c1.16,0.24,1.9,1.37,1.66,2.52l-3.38,16.36c-0.36,1.74,0.02,3.48,1.07,4.92
				c1.05,1.43,2.6,2.32,4.36,2.5c1.17,0.12,2.03,1.17,1.91,2.34C169.6,150.43,168.67,151.24,167.59,151.24z"/>
		</g>
		<g>
			<path d="M169.76,165.69c-1.77,0-3.63-0.37-5.55-1.12c-1.1-0.43-1.64-1.67-1.21-2.77c0.43-1.1,1.67-1.64,2.77-1.21
				c2.91,1.13,5.4,1.11,7.65-0.08c4.56-2.42,7.02-9.29,7.58-11.73c0.26-1.15,1.41-1.87,2.56-1.6c1.15,0.26,1.87,1.41,1.6,2.56
				c-0.1,0.44-2.54,10.74-9.74,14.56C173.63,165.22,171.75,165.69,169.76,165.69z"/>
		</g>
		<path d="M135.09,83.75c-2.97,11.66-9.49,20.07-14.56,18.77c-5.07-1.29-6.77-11.79-3.8-23.46c2.97-11.66,9.49-20.07,14.56-18.77
			C136.36,61.59,138.06,72.09,135.09,83.75z"/>
		<path d="M154.49,71.01c8.51,8.51,12.41,18.41,8.71,22.11c-3.7,3.7-13.6-0.2-22.11-8.71s-12.41-18.41-8.71-22.11
			C136.08,58.61,145.98,62.5,154.49,71.01z"/>
		<path d="M181.82,59.4c15.51,8.95,24.93,21.68,21.03,28.42c-3.89,6.74-19.62,4.95-35.13-4c-15.51-8.95-24.93-21.68-21.03-28.42
			C150.58,48.65,166.31,50.45,181.82,59.4z"/>
		<g>
			<path class="st3" d="M241.87,138.84c-0.7,0-1.4-0.06-2.1-0.17c-3.47-0.55-6.51-2.43-8.57-5.27c-0.69-0.96-0.48-2.29,0.48-2.98
				c0.96-0.69,2.29-0.48,2.98,0.48c1.39,1.92,3.45,3.18,5.79,3.56c2.34,0.37,4.69-0.19,6.61-1.58c1.92-1.39,3.18-3.45,3.56-5.79
				c0.38-2.34-0.19-4.69-1.58-6.61c-1.39-1.92-3.45-3.18-5.79-3.56c-2.34-0.37-4.69,0.19-6.61,1.58c-0.96,0.69-2.29,0.48-2.98-0.48
				c-0.69-0.96-0.48-2.29,0.48-2.98c2.84-2.06,6.32-2.9,9.79-2.34c3.47,0.55,6.51,2.43,8.57,5.27c2.06,2.84,2.89,6.32,2.34,9.79
				c-0.56,3.47-2.43,6.51-5.27,8.57C247.29,137.97,244.62,138.84,241.87,138.84z"/>
		</g>
		<g>
			<path class="st3" d="M94.08,175.08c-0.2,0-0.4,0-0.6-0.01c-3.51-0.16-6.75-1.67-9.12-4.26c-2.37-2.59-3.59-5.95-3.43-9.46
				c0.32-7.24,6.5-12.84,13.72-12.55c1.18,0.05,2.09,1.05,2.04,2.23c-0.05,1.18-1.16,2.07-2.23,2.04c-4.94-0.22-9.05,3.58-9.26,8.47
				c-0.11,2.37,0.72,4.64,2.32,6.39c1.6,1.75,3.79,2.77,6.15,2.88c2.4,0.11,4.64-0.72,6.39-2.32c1.75-1.6,2.77-3.79,2.88-6.16
				c0.05-1.18,1.14-2.07,2.23-2.04c1.18,0.05,2.09,1.05,2.04,2.23c-0.16,3.51-1.67,6.75-4.26,9.12
				C100.49,173.86,97.37,175.08,94.08,175.08z"/>
		</g>
	</g>
</g>
</svg>
