<?xml version="1.0" encoding="utf-8"?>
<!-- Generator: Adobe Illustrator 25.0.0, SVG Export Plug-In . SVG Version: 6.00 Build 0)  -->
<svg version="1.1" xmlns="http://www.w3.org/2000/svg" xmlns:xlink="http://www.w3.org/1999/xlink" x="0px" y="0px"
	 viewBox="0 0 345.07 345.07" style="enable-background:new 0 0 345.07 345.07;" xml:space="preserve">
<style type="text/css">
	.st0{fill:#F5F5F5;}
	.st1{fill:#E8EDC5;}
	.st2{fill:#FFFFFF;}
	.st3{fill:#85BAC6;}
	.st4{fill:#F6E1DC;}
	.st5{fill:#080717;}
	.st6{fill:none;stroke:#080717;stroke-width:2;stroke-linecap:round;stroke-linejoin:round;stroke-miterlimit:10;}
	.st7{fill:#F2ECDE;}
	.st8{fill:#C7E1E0;}
	.st9{fill:#FCDEDE;}
	.st10{fill:#EFCBBF;}
	.st11{fill:#CEE1E7;}
	.st12{fill:#FDEDE0;}
	.st13{fill:#B9D2D7;}
	.st14{fill:#EDE6E4;}
	.st15{fill:#FDE3EC;}
	.st16{fill:#DDD6CC;}
	.st17{fill:#F3F3F3;}
	.st18{fill:#E0D5C1;}
	.st19{fill:none;stroke:#000000;stroke-width:2;stroke-linecap:round;stroke-linejoin:round;stroke-miterlimit:10;}
	.st20{fill:#E0E0E0;}
	.st21{fill:#DBDDC0;}
</style>
<g id="Layer_3">
</g>
<g id="_x3C_Layer_x3E_">
	<g>

			<ellipse transform="matrix(0.7071 -0.7071 0.7071 0.7071 -71.4658 172.5337)" class="st9" cx="172.53" cy="172.53" rx="172.53" ry="172.53"/>
		<path class="st2" d="M318.71,264.15l-12.73-13.07c-23.02-23.63-56.19-34.4-88.7-28.82l-94.25,16.18
			c-26.48,4.55-50.03,19.55-65.35,41.62l-8.26,11.91l-0.15,1.22c31.32,32,74.97,51.88,123.28,51.88
			C234.15,345.07,288.19,312.74,318.71,264.15z"/>
		<g>
			<path d="M49.26,295.33c-0.09,0-0.18-0.01-0.27-0.02c-1.17-0.15-2-1.22-1.85-2.39l0.15-1.22c0.04-0.34,0.17-0.67,0.37-0.95
				l8.26-11.91c15.55-22.4,39.87-37.9,66.74-42.51l94.25-16.18c33.2-5.71,67.08,5.3,90.59,29.44l12.73,13.07
				c0.82,0.85,0.81,2.2-0.04,3.02c-0.84,0.82-2.2,0.81-3.02-0.04l-12.73-13.07c-22.54-23.13-54.99-33.67-86.81-28.21l-94.25,16.18
				c-25.75,4.42-49.06,19.27-63.96,40.74l-7.96,11.48l-0.09,0.7C51.24,294.54,50.32,295.33,49.26,295.33z"/>
		</g>
		<g>
			<g>
				<g>
					<path class="st2" d="M199.84,233.18c-10.7-21.3-16.72-55.23-7.09-109.17c18.09-101.31-48.22,72.33-48.22,72.33
						c1.15,5.73,8.55,19.75-9.25,47.64L199.84,233.18z"/>
					<path d="M135.29,246.12c-0.39,0-0.79-0.11-1.15-0.34c-1-0.64-1.29-1.96-0.65-2.95c15.17-23.77,11.42-37.11,9.61-43.51
						c-0.28-0.98-0.51-1.83-0.66-2.56c-0.08-0.4-0.05-0.81,0.1-1.18c0.1-0.27,10.31-26.97,21.49-53.02
						c23.31-54.37,27.95-53.07,30.7-52.3c3,0.83,5.48,4.15,0.13,34.13c-8.23,46.08-5.91,82.36,6.89,107.84
						c0.53,1.05,0.1,2.34-0.95,2.87c-1.06,0.53-2.34,0.1-2.87-0.95c-13.22-26.32-15.67-63.5-7.28-110.51
						c3.78-21.17,3.25-27.24,2.76-28.94c-6.65,4.71-28.55,54.48-46.65,101.8c0.12,0.5,0.28,1.05,0.45,1.66
						c1.97,7.01,6.07,21.58-10.12,46.97C136.68,245.77,135.99,246.12,135.29,246.12z"/>
				</g>
				<path class="st2" d="M130.07,80.61c0,0-16.07,99.65-9.64,122.16c6.43,22.5,25.62,27.75,48.22-3.22
					c43.4-59.47,41.79-106.08,28.93-114.12C184.72,77.4,149.36,46.86,130.07,80.61z"/>
				<path d="M157.4,95.08c-15.61,2.51-40.18,11.25-56.25-28.93c-16.07-40.18,19.29-48.22,36.97-27.32
					c17.68,20.89,16.07,30.54,4.82,20.89c-11.25-9.64,6.43-38.58,22.5-19.29c16.07,19.29,22.5,48.22,14.47,46.61
					c-8.04-1.61,17.68-33.75,27.32-19.29c9.64,14.47,16.07,35.36,4.82,41.79c-11.25,6.43-24.11-16.07-12.86-8.04
					c11.25,8.04,14.47,51.43,0,57.86c-14.46,6.43-14.46-4.82-1.61-17.68c12.86-12.86-4.82-39.38-11.25-13.66
					c-0.55,2.21-4.82,16.88-4.82,16.88l-9.64,8.04c0,0,0-28.93,6.43-39.38C192.79,90.02,192.35,89.47,157.4,95.08z"/>
			</g>
			<g>
				<polygon class="st2" points="148.59,254.36 151.52,278.22 200.99,238.92 197.44,224.71 				"/>
				<path d="M151.52,280.35c-0.27,0-0.55-0.05-0.81-0.16c-0.72-0.29-1.22-0.95-1.31-1.72l-2.93-23.85c-0.1-0.83,0.29-1.65,1.01-2.09
					l48.85-29.65c0.58-0.35,1.29-0.41,1.92-0.15c0.63,0.26,1.1,0.8,1.26,1.46l3.55,14.21c0.2,0.81-0.09,1.67-0.74,2.19l-49.48,39.3
					C152.46,280.19,151.99,280.35,151.52,280.35z M150.88,255.47l2.3,18.7l45.41-36.07l-2.52-10.06L150.88,255.47z"/>
			</g>
			<g>
				<polygon class="st2" points="134.5,236.06 127.81,274.45 146.84,256.22 				"/>
				<path d="M127.81,276.59c-0.34,0-0.69-0.08-1.01-0.25c-0.81-0.43-1.26-1.34-1.1-2.25l6.69-38.39c0.15-0.88,0.83-1.56,1.7-1.73
					c0.88-0.16,1.76,0.23,2.22,0.98l12.34,20.17c0.53,0.86,0.38,1.96-0.34,2.66l-19.03,18.23
					C128.88,276.38,128.35,276.59,127.81,276.59z M135.63,242l-4.6,26.4l13.09-12.53L135.63,242z"/>
			</g>
			<g>
				<path d="M139,223.36c-1.11,0-2.15-0.1-3.11-0.27c-8.07-1.43-14.29-8.44-17.51-19.73c-4.84-16.93,2.43-74.48,7.2-107.28
					c0.17-1.17,1.25-1.98,2.42-1.81c1.17,0.17,1.98,1.25,1.81,2.42c-3.79,26.13-12.1,88.73-7.31,105.49
					c2.75,9.64,7.78,15.57,14.15,16.7c8.71,1.55,19.47-5.76,30.29-20.59c0.69-0.95,2.03-1.16,2.99-0.47
					c0.95,0.69,1.16,2.03,0.47,2.98C157.19,218.89,146.43,223.36,139,223.36z"/>
			</g>
			<g>
				<path class="st5" d="M131.84,176.29c-0.58,0-1.14-0.24-1.54-0.66c-0.44-0.46-0.65-1.09-0.58-1.71l5.03-45.23
					c0.13-1.17,1.22-2.03,2.36-1.89c1.17,0.13,2.02,1.19,1.89,2.36l-4.75,42.69l3.74-0.25c1.19-0.09,2.2,0.81,2.27,1.99
					c0.08,1.18-0.81,2.2-1.99,2.27l-6.28,0.42C131.93,176.29,131.89,176.29,131.84,176.29z"/>
			</g>
			<path d="M127.74,145.26c0,1.67-1.35,3.02-3.02,3.02c-1.67,0-3.02-1.35-3.02-3.02c0-1.67,1.35-3.02,3.02-3.02
				C126.39,142.24,127.74,143.59,127.74,145.26z"/>
			<g>
				<path d="M129.23,137.09c-0.93,0-1.78-0.61-2.05-1.54c-0.03-0.08-0.21-0.47-0.81-0.72c-0.66-0.28-2.68-0.68-7.18,1.42
					c-1.07,0.5-2.34,0.04-2.84-1.03c-0.5-1.07-0.04-2.34,1.03-2.84c4.62-2.16,8.29-2.61,10.93-1.36c2.36,1.13,2.94,3.19,3,3.42
					c0.29,1.15-0.41,2.31-1.55,2.59C129.57,137.07,129.4,137.09,129.23,137.09z"/>
			</g>
			<path d="M152.87,145.26c0,1.67-1.35,3.02-3.02,3.02c-1.67,0-3.02-1.35-3.02-3.02c0-1.67,1.35-3.02,3.02-3.02
				C151.52,142.24,152.87,143.59,152.87,145.26z"/>
			<g>
				<path d="M154.35,137.09c-0.93,0-1.78-0.61-2.05-1.54c-0.03-0.08-0.21-0.47-0.81-0.72c-0.67-0.28-2.68-0.68-7.18,1.42
					c-1.07,0.5-2.34,0.04-2.84-1.03c-0.5-1.07-0.04-2.34,1.03-2.84c4.62-2.16,8.29-2.61,10.93-1.36c2.36,1.13,2.94,3.19,3,3.42
					c0.29,1.15-0.41,2.31-1.55,2.59C154.7,137.07,154.53,137.09,154.35,137.09z"/>
			</g>
			<g>
				<path class="st5" d="M153.2,195.97c-0.86,0-1.67-0.52-1.99-1.37c-0.42-1.1,0.13-2.34,1.23-2.76c3.64-1.4,6.06-7.04,6.68-9.09
					c0.34-1.13,1.54-1.77,2.66-1.43c1.13,0.34,1.77,1.53,1.43,2.66c-0.11,0.38-2.89,9.41-9.24,11.85
					C153.71,195.92,153.45,195.97,153.2,195.97z"/>
			</g>
		</g>
		<g>
			<path d="M128.05,335.8c-0.02,0-0.04,0-0.06,0c-1.18-0.03-2.11-1.01-2.08-2.19c0.95-36,18.79-77.81,18.97-78.23
				c0.47-1.09,1.73-1.59,2.81-1.12c1.08,0.47,1.58,1.72,1.12,2.81c-0.18,0.41-17.7,41.49-18.62,76.65
				C130.15,334.88,129.2,335.8,128.05,335.8z"/>
		</g>
	</g>
</g>
</svg>
