<?xml version="1.0" encoding="utf-8"?>
<!-- Generator: Adobe Illustrator 25.0.0, SVG Export Plug-In . SVG Version: 6.00 Build 0)  -->
<svg version="1.1" xmlns="http://www.w3.org/2000/svg" xmlns:xlink="http://www.w3.org/1999/xlink" x="0px" y="0px"
	 viewBox="0 0 345.07 345.07" style="enable-background:new 0 0 345.07 345.07;" xml:space="preserve">
<style type="text/css">
	.st0{fill:#F5F5F5;}
	.st1{fill:#E8EDC5;}
	.st2{fill:#FFFFFF;}
	.st3{fill:#85BAC6;}
	.st4{fill:#F6E1DC;}
	.st5{fill:#080717;}
	.st6{fill:none;stroke:#080717;stroke-width:2;stroke-linecap:round;stroke-linejoin:round;stroke-miterlimit:10;}
	.st7{fill:#F2ECDE;}
	.st8{fill:#C7E1E0;}
	.st9{fill:#FCDEDE;}
	.st10{fill:#EFCBBF;}
	.st11{fill:#CEE1E7;}
	.st12{fill:#FDEDE0;}
	.st13{fill:#B9D2D7;}
	.st14{fill:#EDE6E4;}
	.st15{fill:#FDE3EC;}
	.st16{fill:#DDD6CC;}
	.st17{fill:#F3F3F3;}
	.st18{fill:#E0D5C1;}
	.st19{fill:none;stroke:#000000;stroke-width:2;stroke-linecap:round;stroke-linejoin:round;stroke-miterlimit:10;}
	.st20{fill:#E0E0E0;}
	.st21{fill:#DBDDC0;}
</style>
<g id="Layer_3">
</g>
<g id="_x3C_Layer_x3E_">
	<g>

			<ellipse transform="matrix(0.7071 -0.7071 0.7071 0.7071 -71.4658 172.5338)" class="st21" cx="172.53" cy="172.53" rx="172.53" ry="172.53"/>
		<ellipse cx="187.31" cy="123.3" rx="74.99" ry="70.43"/>
		<path d="M323.8,255.55L237,91.94l-32.21-14.21l-5.71,265.31C252.91,334.72,298.52,301.52,323.8,255.55z"/>
		<rect x="119.57" y="142.28" class="st2" width="83.32" height="159.04"/>
		<path d="M119.57,243.46c22.24-5.08,41.41-21.21,49.3-44.39l7.27-21.33l-56.57-19.35V243.46z"/>
		<path class="st2" d="M203.18,133.44c5.08-22.64-5.51-46.71-27.12-57.77h0c-25.62-13.11-57.01-2.97-70.13,22.64l-2.62,5.12
			c-5.38-2.05-11.54,0.21-14.19,5.47h0c-2.62,5.21-0.81,11.43,3.94,14.56l-9.15,17.87c-13.11,25.62-2.97,57.01,22.64,70.13
			c25.62,13.11,57.01,2.97,70.13-22.64l7.87-15.37l10.63,1.03c11.54,1.12,21.8-7.34,22.92-18.88v0
			C219.09,145.41,212.63,136.24,203.18,133.44z"/>
		<g>
			<path class="st2" d="M196.85,177.07c11.54,1.12,21.8-7.34,22.92-18.88l0,0L196.85,177.07z"/>
			<path d="M198.91,179.31c-0.75,0-1.51-0.04-2.27-0.11c-1.17-0.11-2.04-1.16-1.92-2.33c0.11-1.17,1.16-2.03,2.33-1.92
				c5.02,0.49,9.92-1.01,13.81-4.22c3.89-3.2,6.3-7.73,6.78-12.74c0.11-1.17,1.19-2.03,2.33-1.92c1.17,0.11,2.04,1.16,1.92,2.33
				c-0.59,6.15-3.55,11.7-8.32,15.63C209.4,177.47,204.26,179.31,198.91,179.31z"/>
		</g>
		<g>
			<path class="st2" d="M120.03,218.21c22.1,4.13,45.18-6.47,55.94-27.5L120.03,218.21z"/>
			<path d="M129.44,221.22c-3.26,0-6.54-0.3-9.81-0.91c-1.16-0.22-1.92-1.33-1.71-2.49c0.22-1.16,1.34-1.92,2.49-1.71
				c21.58,4.03,43.64-6.81,53.65-26.37c0.54-1.05,1.82-1.46,2.88-0.93c1.05,0.54,1.46,1.82,0.93,2.88
				C168.53,209.95,149.5,221.22,129.44,221.22z"/>
		</g>
		<g>
			<path d="M193.43,161.1c-0.15,0-0.31-0.02-0.47-0.05c-1.15-0.26-1.88-1.4-1.62-2.55c2.23-9.96,11.69-11.56,12.1-11.62
				c1.16-0.19,2.26,0.62,2.44,1.78c0.18,1.16-0.61,2.25-1.77,2.44c-0.33,0.06-7.02,1.27-8.6,8.33
				C195.29,160.42,194.41,161.1,193.43,161.1z"/>
		</g>
		<g>
			<path d="M109.63,139.39c-5.49,0-8.85-3.5-8.91-3.56c-0.81-0.86-0.76-2.21,0.1-3.02c0.86-0.8,2.2-0.76,3.01,0.09
				c0.58,0.6,5.82,5.53,14.29-1.49c0.91-0.76,2.26-0.63,3.01,0.28c0.75,0.91,0.63,2.26-0.28,3.01
				C116.57,138.25,112.75,139.39,109.63,139.39z"/>
		</g>
		<path d="M115.61,108.45c-0.91,2.78,0.22,5.63,2.52,6.38c2.3,0.75,4.89-0.89,5.8-3.67c0.91-2.78-0.22-5.63-2.52-6.38
			C119.11,104.03,116.52,105.67,115.61,108.45z"/>
		<path d="M126.29,93c-1.29,1.29,0.56,5.24,4.14,8.82c3.58,3.58,7.53,5.43,8.82,4.14c1.29-1.29-0.56-5.24-4.14-8.82
			C131.54,93.56,127.59,91.71,126.29,93z"/>
		<path d="M206.19,133.44c4.72-23.58-5.12-48.65-25.19-60.17h0c-12.51-7.18-26.51-7.66-38.74-2.63c6.55,0.64,24.86,3.51,28.46,15.61
			C175.12,101.06,175.65,129.31,206.19,133.44z"/>
		<g>
			<path d="M194.06,134.26c-8.61,0-15.26-1.94-20.17-5.85c-9.06-7.22-10.03-19.71-10.82-29.75c-0.38-4.9-0.74-9.53-1.96-12.56
				c-5.16-12.92-17.14-14.77-17.27-14.79c-1.17-0.17-1.98-1.25-1.81-2.42c0.17-1.17,1.25-1.98,2.42-1.81
				c0.59,0.08,14.55,2.24,20.63,17.43c1.46,3.64,1.84,8.59,2.25,13.82c0.76,9.69,1.62,20.68,9.22,26.74
				c5.85,4.66,14.98,5.99,27.92,4.07c1.17-0.17,2.25,0.63,2.43,1.8c0.17,1.17-0.63,2.25-1.8,2.43
				C201.11,133.96,197.44,134.26,194.06,134.26z"/>
		</g>
		<path class="st3" d="M91.22,324.72c24.23,12.98,51.91,20.35,81.32,20.35c42.1,0,80.66-15.09,110.61-40.14
			c-23.52-29.89-54.84-48.14-89.25-48.14C152.43,256.78,115.45,283.28,91.22,324.72z"/>
	</g>
</g>
</svg>
