<?xml version="1.0" encoding="utf-8"?>
<!-- Generator: Adobe Illustrator 25.0.0, SVG Export Plug-In . SVG Version: 6.00 Build 0)  -->
<svg version="1.1" xmlns="http://www.w3.org/2000/svg" xmlns:xlink="http://www.w3.org/1999/xlink" x="0px" y="0px"
	 viewBox="0 0 345.07 345.07" style="enable-background:new 0 0 345.07 345.07;" xml:space="preserve">
<style type="text/css">
	.st0{fill:#F6E1DC;}
	.st1{fill:#F0AF9B;}
	.st2{fill:#FFFFFF;}
	.st3{fill:#080717;}
	.st4{fill:none;stroke:#85BAC6;stroke-width:0.4121;stroke-miterlimit:10;}
	.st5{fill:#F2ECDE;}
	.st6{fill:#85BAC6;}
	.st7{fill:#FCDEDE;}
	.st8{fill:#AAD2DC;}
	.st9{fill:#F5F5F5;}
	.st10{fill:#E8EDC5;}
	.st11{fill:#B9D2D7;}
	.st12{fill:#FFFFFF;stroke:#000000;stroke-width:2;stroke-linecap:round;stroke-linejoin:round;stroke-miterlimit:10;}
	.st13{fill:#CEE1E7;}
	.st14{fill:#EDE6E4;}
	.st15{fill:#FDE3EC;}
	.st16{fill:#FDEDE0;}
	.st17{fill:#C7E1E0;}
	.st18{fill:#EFCBBF;}
	.st19{fill:#23285C;}
	.st20{fill:#010101;}
	.st21{fill:#C6E0F5;}
	.st22{fill:#DDD6CC;}
	.st23{fill:#E0E0E0;}
	.st24{fill:#F3F3F3;}
</style>
<g id="Layer_3">
</g>
<g id="_x3C_Layer_x3E_">
	<g>

			<ellipse transform="matrix(0.7071 -0.7071 0.7071 0.7071 -71.4658 172.5338)" class="st16" cx="172.53" cy="172.53" rx="172.53" ry="172.53"/>
		<g>
			<path d="M52.49,294.35c-0.64,0-1.28-0.29-1.7-0.84c-0.72-0.94-0.54-2.28,0.4-2.99c0.98-0.75,24.48-18.51,67.33-28.63
				c39.45-9.31,103.3-13.43,183.48,19.82c1.09,0.45,1.61,1.7,1.15,2.79c-0.45,1.09-1.7,1.6-2.79,1.15
				c-79.01-32.77-141.83-28.78-180.63-19.67c-42.04,9.88-65.72,27.74-65.95,27.92C53.4,294.21,52.94,294.35,52.49,294.35z"/>
		</g>
		<g>
			<g>
				<circle cx="154.04" cy="125.45" r="73.94"/>
				<g>
					<path class="st2" d="M124.6,176.17c0,0,3.6,84.33,4.71,85.18c67.42,51.23,61.68,14.68,61.68,14.68l-13.08-86.06L124.6,176.17z"
						/>
					<path d="M181.01,290.77c-10.96,0-28.72-9.28-52.99-27.72c-1.03-0.78-1.92-1.46-5.56-86.79c-0.03-0.68,0.26-1.33,0.79-1.75
						c0.53-0.43,1.22-0.58,1.88-0.41l53.31,13.8c0.83,0.21,1.45,0.9,1.58,1.75l13.08,86.06c0.06,0.37,1.4,9.41-5.27,13.39
						C185.97,290.21,183.69,290.77,181.01,290.77z M131.2,260.1c37.14,28.12,50.04,27.95,54.44,25.33c4.22-2.52,3.25-9.01,3.24-9.07
						l-12.87-84.68l-49.15-12.72C128.19,209.94,130.32,254.1,131.2,260.1z"/>
				</g>
				<g>
					<path class="st2" d="M224.87,92.54l8.37,53.31c3.46,21.26,1.34,43.05-6.16,63.23l-9.06,24.4c0,0-53.23,2.71-92.21-39.48
						C86.84,151.8,106.18,43.89,224.87,92.54z"/>
					<path d="M216.43,235.64c-9.54,0-56.9-2.01-92.18-40.19c-21.92-23.72-25.09-65.86-6.93-92.01
						c11.57-16.65,41.02-40.48,108.36-12.87c0.69,0.28,1.18,0.91,1.3,1.65l8.38,53.31c3.51,21.57,1.35,43.81-6.26,64.31l-9.06,24.4
						c-0.3,0.8-1.04,1.35-1.89,1.39C218.08,235.61,217.49,235.64,216.43,235.64z M170.68,82.23c-27.97,0-42.66,13.28-49.85,23.64
						c-17.1,24.63-14.1,64.32,6.56,86.67c34.11,36.92,79.93,38.82,88.96,38.82c0.07,0,0.13,0,0.19,0l8.55-23.03
						c7.36-19.8,9.45-41.3,6.05-62.15l-8.19-52.13C201.76,85.51,184.58,82.23,170.68,82.23z"/>
				</g>
				<g>
					<path d="M245.73,129.34c-0.79,0-1.55-0.44-1.92-1.2c-1.07-2.19-5.1-4.83-9.99-5.47c-2.87-0.37-8.28-0.3-12.36,4.4
						c-0.77,0.89-2.12,0.99-3.01,0.22c-0.89-0.77-0.99-2.12-0.22-3.01c3.99-4.61,9.73-6.69,16.14-5.84c5.94,0.78,11.4,4,13.28,7.83
						c0.52,1.06,0.08,2.34-0.98,2.86C246.36,129.27,246.04,129.34,245.73,129.34z"/>
				</g>
				<g>
					<path d="M192.95,126.11c-0.79,0-1.55-0.44-1.92-1.2c-1.07-2.19-5.1-4.83-9.99-5.47c-2.87-0.37-8.28-0.3-12.36,4.4
						c-0.77,0.89-2.12,0.99-3.01,0.22c-0.89-0.77-0.99-2.12-0.22-3.01c3.99-4.61,9.73-6.68,16.14-5.84c5.94,0.78,11.4,4,13.27,7.83
						c0.52,1.06,0.08,2.34-0.98,2.86C193.58,126.04,193.26,126.11,192.95,126.11z"/>
				</g>
				<path d="M189.95,146.6c-0.08,2.75-1.74,4.92-3.72,4.87c-1.98-0.06-3.51-2.33-3.44-5.07c0.08-2.75,1.74-4.93,3.72-4.87
					C188.49,141.58,190.03,143.85,189.95,146.6z"/>
				<path d="M233.61,148.54c-0.08,2.75-1.74,4.93-3.72,4.87c-1.98-0.06-3.51-2.33-3.44-5.07c0.08-2.75,1.74-4.93,3.72-4.87
					C232.15,143.53,233.69,145.8,233.61,148.54z"/>
				<g>
					<path class="st6" d="M233.53,173.29c-11.32,0-20.74-8.99-21.16-20.4c-0.44-11.67,8.71-21.53,20.38-21.96h0
						c5.65-0.2,11.05,1.79,15.2,5.64c4.15,3.85,6.55,9.08,6.76,14.74c0.21,5.65-1.79,11.05-5.64,15.2
						c-3.85,4.15-9.08,6.55-14.74,6.76C234.06,173.29,233.8,173.29,233.53,173.29z M232.91,135.21L232.91,135.21
						c-9.32,0.35-16.62,8.21-16.27,17.53c0.17,4.51,2.08,8.69,5.4,11.77c3.31,3.07,7.61,4.69,12.13,4.5
						c4.51-0.17,8.69-2.08,11.76-5.4c3.07-3.31,4.67-7.62,4.5-12.13c-0.17-4.52-2.08-8.69-5.4-11.77
						C241.73,136.64,237.41,135.04,232.91,135.21z"/>
				</g>
				<g>
					<path d="M211.05,185.27c-0.08,0-0.16,0-0.24-0.01l-16.72-1.9c-1.17-0.13-2.02-1.19-1.88-2.36c0.13-1.17,1.21-2.02,2.36-1.88
						l14.11,1.6l-5.01-54.12c-0.11-1.17,0.76-2.22,1.93-2.32c1.18-0.1,2.22,0.76,2.32,1.93l5.25,56.73
						c0.06,0.64-0.17,1.27-0.63,1.72C212.14,185.05,211.61,185.27,211.05,185.27z"/>
				</g>
				<g>
					<path class="st6" d="M214.78,153.18c-0.1,0-0.21-0.01-0.32-0.02l-12.69-1.87c-1.17-0.17-1.97-1.26-1.8-2.43
						c0.17-1.17,1.28-1.97,2.43-1.8l12.69,1.87c1.17,0.17,1.97,1.26,1.8,2.43C216.73,152.41,215.82,153.18,214.78,153.18z"/>
				</g>
				<path d="M146.67,104.06l3.75,53.97l-32.4-2.76l6.47,38.73c0,0-46.59-18.75-36.84-70.6c26.53-141.12,165.9-26.76,132.83-25.45
					C187.4,99.25,146.67,104.06,146.67,104.06z"/>
				<g>
					<path class="st2" d="M139.18,155.2c1.79-9.93-4.81-19.43-14.74-21.23c-9.93-1.79-19.43,4.81-21.23,14.74
						c-1.79,9.93,4.81,19.43,14.74,21.23L139.18,155.2z"/>
					<path d="M117.96,172.07c-0.13,0-0.25-0.01-0.38-0.03c-11.08-2-18.46-12.63-16.46-23.71c0.97-5.36,3.97-10.03,8.44-13.14
						c4.48-3.11,9.9-4.29,15.26-3.32c11.08,2,18.46,12.63,16.46,23.71c-0.21,1.16-1.31,1.94-2.48,1.72
						c-1.16-0.21-1.93-1.32-1.72-2.48c1.58-8.76-4.26-17.16-13.02-18.74c-4.25-0.77-8.53,0.17-12.07,2.63
						c-3.54,2.46-5.91,6.15-6.68,10.39c-0.77,4.24,0.17,8.53,2.63,12.07c2.46,3.54,6.15,5.91,10.39,6.68
						c1.16,0.21,1.93,1.32,1.72,2.48C119.87,171.35,118.97,172.07,117.96,172.07z"/>
				</g>
				<g>
					<path class="st6" d="M181.13,170.46c-0.4,0-0.8-0.01-1.21-0.03c-5.65-0.31-10.84-2.81-14.61-7.03
						c-3.77-4.22-5.68-9.65-5.36-15.3c0.31-5.65,2.81-10.84,7.03-14.61c4.22-3.77,9.66-5.66,15.3-5.36
						c5.65,0.31,10.84,2.81,14.61,7.03c3.77,4.22,5.68,9.65,5.36,15.3c-0.31,5.65-2.81,10.84-7.03,14.61
						C191.31,168.57,186.34,170.46,181.13,170.46z M181.07,132.36c-4.16,0-8.13,1.51-11.25,4.31c-3.37,3.01-5.36,7.15-5.61,11.67
						c-0.25,4.51,1.27,8.85,4.28,12.22c3.01,3.37,7.16,5.36,11.67,5.61c4.51,0.24,8.85-1.27,12.21-4.28
						c3.37-3.01,5.36-7.15,5.61-11.67c0.25-4.51-1.27-8.85-4.28-12.21c-3.01-3.37-7.15-5.36-11.67-5.61
						C181.71,132.37,181.39,132.36,181.07,132.36z"/>
				</g>
				<g>
					<path d="M199.3,209.05c-7.24,0-16.47-2.01-25.57-9.58c-0.91-0.75-1.03-2.1-0.28-3.01c0.76-0.91,2.1-1.03,3.01-0.28
						c16.9,14.06,34.19,6.71,34.92,6.39c1.08-0.48,2.34,0.01,2.82,1.09c0.48,1.08-0.01,2.34-1.08,2.82
						C212.69,206.67,207.17,209.05,199.3,209.05z"/>
				</g>
				<ellipse cx="217.11" cy="60.57" rx="32.92" ry="37.65"/>
				<ellipse cx="180.66" cy="60.42" rx="23.64" ry="27.04"/>
			</g>
		</g>
	</g>
</g>
</svg>
