<?xml version="1.0" encoding="utf-8"?>
<!-- Generator: Adobe Illustrator 25.0.0, SVG Export Plug-In . SVG Version: 6.00 Build 0)  -->
<svg version="1.1" xmlns="http://www.w3.org/2000/svg" xmlns:xlink="http://www.w3.org/1999/xlink" x="0px" y="0px"
	 viewBox="0 0 345.07 345.07" style="enable-background:new 0 0 345.07 345.07;" xml:space="preserve">
<style type="text/css">
	.st0{fill:#F6E1DC;}
	.st1{fill:#F0AF9B;}
	.st2{fill:#FFFFFF;}
	.st3{fill:#080717;}
	.st4{fill:none;stroke:#85BAC6;stroke-width:0.4121;stroke-miterlimit:10;}
	.st5{fill:#F2ECDE;}
	.st6{fill:#85BAC6;}
	.st7{fill:#FCDEDE;}
	.st8{fill:#AAD2DC;}
	.st9{fill:#F5F5F5;}
	.st10{fill:#E8EDC5;}
	.st11{fill:#B9D2D7;}
	.st12{fill:#FFFFFF;stroke:#000000;stroke-width:2;stroke-linecap:round;stroke-linejoin:round;stroke-miterlimit:10;}
	.st13{fill:#CEE1E7;}
	.st14{fill:#EDE6E4;}
	.st15{fill:#FDE3EC;}
	.st16{fill:#FDEDE0;}
	.st17{fill:#C7E1E0;}
	.st18{fill:#EFCBBF;}
	.st19{fill:#23285C;}
	.st20{fill:#010101;}
	.st21{fill:#C6E0F5;}
	.st22{fill:#DDD6CC;}
	.st23{fill:#E0E0E0;}
	.st24{fill:#F3F3F3;}
</style>
<g id="Layer_3">
</g>
<g id="_x3C_Layer_x3E_">
	<g>

			<ellipse transform="matrix(0.7071 -0.7071 0.7071 0.7071 -71.4658 172.5337)" class="st9" cx="172.53" cy="172.53" rx="172.53" ry="172.53"/>

			<ellipse transform="matrix(0.7071 -0.7071 0.7071 0.7071 -71.4658 172.5337)" class="st24" cx="172.53" cy="172.53" rx="172.53" ry="172.53"/>
		<g>
			<g>
				<path class="st2" d="M167.65,292.62c20.9,2.07,40.75-15.75,52.37-43.54c-15.23-7.79-29.01-23.89-29.64-45.57
					c-1.03-34.7-39.79-3.06-39.79-3.06s14.54,47.23-16.48,53.77c-4.01,0.84-2.95,7.62-1.01,11.23
					C141.48,281.03,153.54,291.22,167.65,292.62z"/>
				<path d="M170.93,294.92c-1.16,0-2.33-0.06-3.49-0.17h0c-14.31-1.43-27.18-11.47-36.22-28.28c-1.41-2.62-2.91-7.8-1.27-11.34
					c0.75-1.61,2.03-2.64,3.72-3c6.28-1.32,10.99-4.59,14-9.7c8.84-15,0.96-41.09,0.88-41.35c-0.26-0.83,0.02-1.73,0.69-2.28
					c0.91-0.75,22.54-18.21,35.04-12.51c5.2,2.38,7.98,8.15,8.24,17.16c0.64,21.83,15.13,36.9,28.48,43.73
					c0.99,0.51,1.43,1.7,1,2.73C210.24,278.03,190.92,294.92,170.93,294.92z M167.87,290.5c18.87,1.88,37.67-13.6,49.43-40.46
					c-13.92-7.78-28.38-23.73-29.04-46.46c-0.21-7.25-2.15-11.76-5.75-13.4c-7.88-3.6-23,6.07-29.46,11.07
					c1.61,5.93,6.94,28.7-1.69,43.36c-3.64,6.19-9.3,10.13-16.8,11.71c-0.3,0.06-0.53,0.19-0.73,0.62
					c-0.71,1.53-0.17,5.04,1.16,7.51C143.33,279.96,155.01,289.22,167.87,290.5L167.87,290.5z"/>
			</g>
		</g>
		<path class="st3" d="M118.26,163.04c0,0-53.07-12.93-38.78-45.58c14.3-32.66,15.66-11.56,16.34-25.17
			c0.67-13.6-6.81-44.22,11.56-40.14c18.37,4.08,31.97,2.72,51.03-8.17c19.04-10.88,28.57-18.37,34.69,2.04
			c6.13,20.41,5.46,17.69,27.22,19.73c21.76,2.03,27.89,6.12,20.42,17.69c-7.49,11.57-18.39,15.65-8.17,27.22
			c10.2,11.57,12.25,23.13,4.08,31.3c-8.17,8.16-44.56,23.47-44.56,23.47L118.26,163.04z"/>
		<g>
			<path class="st2" d="M200.57,137.64c0,0,17.25-11.42,21.35-2.96c4.08,8.47,2.12,23.2-4.36,30.4c-6.49,7.2-14.16,17.2-19.15,0.54
				C193.4,148.98,200.57,137.64,200.57,137.64z"/>
			<path d="M205.5,176.84c-0.46,0-0.92-0.05-1.39-0.15c-3.38-0.75-5.84-4.07-7.76-10.45c-5.22-17.37,2.09-29.24,2.4-29.74
				c0.16-0.26,0.37-0.47,0.63-0.64c1.26-0.83,12.47-8.06,19.66-6.09c2.16,0.59,3.82,1.97,4.79,3.99c4.53,9.4,2.29,25.01-4.69,32.76
				l-1.14,1.28C214.04,172.25,209.94,176.84,205.5,176.84z M202.17,139.15c-1.09,2.03-5.86,12.05-1.71,25.86
				c1.82,6.05,3.65,7.3,4.59,7.51c2.54,0.57,6.72-4.14,9.77-7.57l1.16-1.3c5.76-6.4,7.75-20.28,4.02-28.04
				c-0.44-0.91-1.1-1.45-2.08-1.72C213.62,132.71,205.32,137.15,202.17,139.15z"/>
		</g>
		<g>
			<path class="st2" d="M106.56,170.08c0,0-8.02-21.67,8.86-19.61c9.36,1.13,20.76,10.56,23.4,19.87
				c2.64,9.33,6.98,21.17-9.76,16.51C112.33,182.2,106.56,170.08,106.56,170.08z"/>
			<path d="M135.45,190.05c-1.94,0-4.24-0.38-6.96-1.14c-17.48-4.86-23.61-17.38-23.87-17.91c-0.03-0.06-0.05-0.12-0.08-0.18
				c-0.48-1.3-4.56-12.88,0.33-19.07c2.26-2.86,5.89-4,10.8-3.4c10.37,1.26,22.38,11.46,25.2,21.41l0.45,1.57
				c1.84,6.36,3.74,12.94,0.14,16.59C140.07,189.34,138.1,190.05,135.45,190.05z M108.53,169.23c0.52,0.99,6.27,11.43,21.12,15.56
				c6.07,1.69,8.12,0.8,8.79,0.12c1.84-1.86,0.08-7.95-1.21-12.39l-0.46-1.6c-2.37-8.36-12.87-17.27-21.6-18.33
				c-3.32-0.4-5.66,0.2-6.93,1.81C105.38,158.02,107.44,166.22,108.53,169.23z"/>
		</g>
		<path class="st3" d="M193.27,219.03c-1.71-4.77-2.73-9.95-2.89-15.51c-1.03-34.7-39.79-3.06-39.79-3.06s11.21,37.76-3.07,50
			c-0.68,0.58-1.29,1.11-1.84,1.61C166.95,249.63,184.81,236.76,193.27,219.03z"/>
		<g>
			<path class="st2" d="M113.83,147.39c0,0,13.03,47.66,35.72,65.32c15.31,11.91,38.45,2.38,52.04-22.8
				c13.32-24.65,8.17-109.87-18.36-96.6c-26.54,13.26-4.09-17.35-18.37-7.15C150.59,96.37,174.05,136.17,113.83,147.39z"/>
			<path d="M164.33,219.94c-5.88,0-11.36-1.88-16.08-5.55c-23-17.89-35.93-64.46-36.47-66.44c-0.16-0.58-0.07-1.19,0.25-1.7
				c0.32-0.51,0.83-0.86,1.42-0.96c39.34-7.34,41.48-26.74,43.21-42.33c0.87-7.89,1.62-14.71,6.98-18.54
				c2.91-2.08,5.23-3.22,7.1-2.07c2.01,1.25,1.6,3.83,1.17,6.57c-0.27,1.68-0.76,4.81,0.05,5.41c0.19,0.13,2.05,1.21,10.34-2.94
				c5.71-2.86,11.08-1.94,15.53,2.65c15.35,15.85,16.82,76.24,5.66,96.87c-8.29,15.36-20.32,25.69-33,28.36
				C168.39,219.72,166.34,219.94,164.33,219.94z M116.54,149.04c2.88,9.51,15.2,47.1,34.33,61.98c5.31,4.13,11.79,5.54,18.73,4.08
				c11.28-2.37,22.54-12.17,30.12-26.21c10.36-19.17,9.13-77.31-4.97-91.87c-3.15-3.25-6.5-3.83-10.55-1.8
				c-7.52,3.75-12.08,4.54-14.78,2.56c-2.92-2.14-2.24-6.41-1.74-9.53c0.07-0.45,0.16-1.01,0.23-1.53
				c-0.44,0.26-1.03,0.63-1.79,1.17c-3.8,2.72-4.43,8.37-5.22,15.53C159.15,119.23,156.78,140.76,116.54,149.04z"/>
		</g>
		<g>
			<path d="M164.71,185.33c-4.51,0-8.91-3.93-14.01-9.99c-0.38-0.46-0.56-1.05-0.49-1.64c0.07-0.59,0.39-1.12,0.88-1.47
				c5.88-4.2,16.22-11.23,19.53-11.23c0,0,0.01,0,0.01,0c0.92,0.01,2.59,0.42,3.48,3.16c1.43,4.39,0.78,15.74-3.82,19.13
				C168.38,184.68,166.53,185.33,164.71,185.33z M155.49,174.34c7.81,8.76,10.17,7.03,12.27,5.49c0.8-0.59,1.93-2.66,2.48-6.56
				c0.52-3.71,0.2-6.66-0.2-7.86C167.72,166.25,161.3,170.29,155.49,174.34z"/>
		</g>
		<g>
			<path d="M156.07,159.21c-2.85,0-6.81-0.52-8.98-3.08c-1.12-1.33-2.2-3.73-0.93-7.63c3.04-9.33,2.46-20.76,2.45-20.87
				c-0.06-1.18,0.84-2.19,2.01-2.25c1.21-0.09,2.19,0.84,2.25,2.01c0.03,0.5,0.64,12.33-2.65,22.43c-0.53,1.63-0.49,2.82,0.12,3.54
				c1.51,1.78,6.3,1.7,8.38,1.38c1.16-0.18,2.26,0.62,2.43,1.79c0.18,1.17-0.62,2.26-1.79,2.43
				C159.04,159.03,157.74,159.21,156.07,159.21z"/>
		</g>
		<g>
			<path d="M167.48,135.24c-0.37,0-0.75-0.1-1.09-0.3c-1-0.6-1.34-1.89-0.75-2.9c0.1-0.17,2.5-4.18,9.13-6.83
				c7.67-3.07,13.14,1.3,14.96,4.03c0.65,0.98,0.39,2.31-0.59,2.96c-0.98,0.65-2.3,0.39-2.96-0.58c-0.36-0.52-3.63-4.92-9.83-2.44
				c-5.17,2.07-7.03,5.01-7.05,5.04C168.91,134.87,168.2,135.24,167.48,135.24z"/>
		</g>
		<path d="M175.88,132.57c0,3.48,2.03,6.3,4.54,6.3s4.54-2.82,4.54-6.3s-2.03-6.3-4.54-6.3S175.88,129.09,175.88,132.57z"/>
		<g>
			<path d="M69.31,304.4c-0.06,0-0.11,0-0.17-0.01c-1.18-0.09-2.06-1.11-1.97-2.29c0.04-0.5,4.48-49.72,66.93-50.01
				c0,0,0.01,0,0.01,0c1.18,0,2.13,0.95,2.14,2.13c0.01,1.18-0.95,2.14-2.13,2.15c-58.41,0.27-62.54,44.19-62.68,46.06
				C71.35,303.54,70.41,304.4,69.31,304.4z"/>
		</g>
		<g>
			<path d="M309.95,273.13c-0.72,0-1.42-0.36-1.82-1.02c-0.27-0.44-21.94-33.83-87.69-20.94c-1.17,0.22-2.28-0.53-2.51-1.69
				c-0.23-1.16,0.53-2.28,1.69-2.51c68.97-13.52,91.24,21.4,92.15,22.9c0.62,1.01,0.3,2.32-0.71,2.94
				C310.72,273.03,310.33,273.13,309.95,273.13z"/>
		</g>
	</g>
</g>
</svg>
