<?xml version="1.0" encoding="utf-8"?>
<!-- Generator: Adobe Illustrator 25.0.0, SVG Export Plug-In . SVG Version: 6.00 Build 0)  -->
<svg version="1.1" xmlns="http://www.w3.org/2000/svg" xmlns:xlink="http://www.w3.org/1999/xlink" x="0px" y="0px"
	 viewBox="0 0 345.07 345.07" style="enable-background:new 0 0 345.07 345.07;" xml:space="preserve">
<style type="text/css">
	.st0{fill:#F5F5F5;}
	.st1{fill:#E8EDC5;}
	.st2{fill:#FFFFFF;}
	.st3{fill:#85BAC6;}
	.st4{fill:#F6E1DC;}
	.st5{fill:#080717;}
	.st6{fill:none;stroke:#080717;stroke-width:2;stroke-linecap:round;stroke-linejoin:round;stroke-miterlimit:10;}
	.st7{fill:#F2ECDE;}
	.st8{fill:#C7E1E0;}
	.st9{fill:#FCDEDE;}
	.st10{fill:#EFCBBF;}
	.st11{fill:#CEE1E7;}
	.st12{fill:#FDEDE0;}
	.st13{fill:#B9D2D7;}
	.st14{fill:#EDE6E4;}
	.st15{fill:#FDE3EC;}
	.st16{fill:#DDD6CC;}
	.st17{fill:#F3F3F3;}
	.st18{fill:#E0D5C1;}
	.st19{fill:none;stroke:#000000;stroke-width:2;stroke-linecap:round;stroke-linejoin:round;stroke-miterlimit:10;}
	.st20{fill:#E0E0E0;}
	.st21{fill:#DBDDC0;}
</style>
<g id="Layer_3">
</g>
<g id="_x3C_Layer_x3E_">
	<g>

			<ellipse transform="matrix(0.7071 -0.7071 0.7071 0.7071 -71.4658 172.5337)" class="st8" cx="172.53" cy="172.53" rx="172.53" ry="172.53"/>
		<path d="M172.53,345.07c59.59,0,112.12-30.21,143.12-76.15l-7.5-8.54c-13.46-15.31-34.31-21.88-54.11-17.04l-117.18,28.62
			c-22.13,5.4-38.59,23.94-41.35,46.55l-0.96,7.91C117.98,338.32,144.46,345.07,172.53,345.07z"/>
		<path class="st2" d="M208.7,253.04l-28.89,45.75c-7.66,12.13-26.03,9.66-30.22-4.06l-32.75-107.43l64.5-20.47L208.7,253.04z"/>
		<path d="M193.65,217.8l-16.17-50.97l-60.64,19.24l17.32,54.57C155.72,242.37,177.78,234.6,193.65,217.8z"/>
		<path d="M167.76,63.91l-16.29,1.99c-37.95,4.64-67.69,33.05-72.11,68.89l-5.34,43.29c-2,16.18,10.15,30.88,27.28,33.01l65.72,8.17
			L167.76,63.91z"/>
		<path d="M137.26,65.41l18.95-1.33c44.14-3.11,83.42,20.11,95.26,56.31l14.29,43.72c5.34,16.34-5.72,34.1-24.84,39.88l-73.37,22.16
			L137.26,65.41z"/>
		<g>
			<path d="M143.8,83.85c-0.86,0-1.67-0.52-2-1.38L126.64,42.6c-2.53-6.65-1.37-13.94,3.17-20c0.71-0.94,2.05-1.14,2.99-0.43
				c0.94,0.71,1.13,2.05,0.43,2.99c-3.7,4.93-4.62,10.58-2.6,15.91l15.16,39.87c0.42,1.1-0.13,2.34-1.24,2.76
				C144.31,83.81,144.06,83.85,143.8,83.85z"/>
		</g>
		<path d="M144.55,82.27l-10.37-40.88c-3.25-12.8,6.11-25.4,19.98-26.9l15.36-1.66c15.29-1.65,28.04,10.91,25.63,25.24l-7.92,47.02
			L144.55,82.27z"/>
		<path class="st2" d="M249.9,135.18c-3.15-10.61-14.31-16.66-24.92-13.5l-0.34,0.1c-8.79-30.52-31.73-52.28-58.65-52.28
			c-29.78,0-54.67,26.64-60.95,62.29c-9.26,0.4-17.3,7.22-18.88,16.73v0c-1.82,10.92,5.56,21.24,16.48,23.06l3.44,0.57
			c7.67,33.04,31.58,57.15,59.9,57.15c30.96,0,56.65-28.79,61.61-66.57l8.81-2.62C247.01,156.95,253.05,145.8,249.9,135.18z"/>
		<path d="M193.46,74.1c-8.54-5.65-18.14-8.84-28.3-8.84c-30.66,0-56.29,28.94-62.75,67.66c-2.02,0.09-3.99,0.52-5.85,1.2
			C132.61,135.95,169.38,112.75,193.46,74.1z"/>
		<g>
			<path d="M120.48,141.71c-1.09,0-2.02-0.82-2.12-1.93c-0.11-1.17,0.74-2.22,1.92-2.34c27.58-2.71,53.54-24.81,67.77-57.66
				c0.47-1.08,1.72-1.58,2.81-1.11c1.08,0.47,1.58,1.73,1.11,2.81c-14.84,34.27-42.15,57.34-71.27,60.21
				C120.62,141.71,120.55,141.71,120.48,141.71z"/>
		</g>
		<g>
			<path d="M181.07,112.31c-0.42,0-0.85-0.13-1.22-0.39c-0.97-0.68-1.2-2.01-0.53-2.98c6.7-9.58,10.65-21,11.75-33.97
				c0.1-1.18,1.14-2.04,2.31-1.95c1.18,0.1,2.05,1.13,1.95,2.31c-1.16,13.72-5.36,25.86-12.5,36.06
				C182.41,111.99,181.75,112.31,181.07,112.31z"/>
		</g>
		<g>
			<path d="M226.75,149.18c-1.03,0-1.93-0.74-2.11-1.79c-1.6-9.57,6.17-14.36,6.51-14.55c1.01-0.61,2.32-0.28,2.93,0.73
				c0.61,1.01,0.28,2.32-0.72,2.93c-0.24,0.15-5.61,3.54-4.5,10.19c0.19,1.16-0.59,2.27-1.76,2.46
				C226.98,149.17,226.86,149.18,226.75,149.18z"/>
		</g>
		<g>
			<path d="M102.77,158.12c-0.09,0-0.19-0.01-0.28-0.02c-1.17-0.15-1.99-1.22-1.84-2.39c0.04-0.31,0.7-6.6-5.19-9.86
				c-1.03-0.57-1.41-1.87-0.83-2.9c0.57-1.03,1.88-1.41,2.9-0.83c8.49,4.7,7.4,13.76,7.35,14.15
				C104.74,157.34,103.83,158.12,102.77,158.12z"/>
		</g>
		<g>
			<path class="st3" d="M145.03,171.85c-13.36,0-24.23-10.87-24.23-24.23s10.87-24.23,24.23-24.23c13.36,0,24.23,10.87,24.23,24.23
				S158.39,171.85,145.03,171.85z M145.03,127.66c-11.01,0-19.96,8.95-19.96,19.96c0,11.01,8.95,19.96,19.96,19.96
				c11.01,0,19.96-8.95,19.96-19.96C164.99,136.61,156.04,127.66,145.03,127.66z"/>
		</g>
		<g>
			<path class="st3" d="M196.86,171.85c-13.36,0-24.23-10.87-24.23-24.23s10.87-24.23,24.23-24.23c13.36,0,24.23,10.87,24.23,24.23
				S210.22,171.85,196.86,171.85z M196.86,127.66c-11,0-19.96,8.95-19.96,19.96c0,11.01,8.95,19.96,19.96,19.96
				c11.01,0,19.96-8.95,19.96-19.96C216.82,136.61,207.86,127.66,196.86,127.66z"/>
		</g>
		<g>
			<path class="st3" d="M173.06,151.93h-4.52c-1.18,0-2.14-0.96-2.14-2.14c0-1.18,0.96-2.14,2.14-2.14h4.52
				c1.18,0,2.14,0.96,2.14,2.14C175.2,150.97,174.25,151.93,173.06,151.93z"/>
		</g>
		<path d="M144.18,149.15c0.28,4.06,2.61,7.2,5.19,7.02c2.58-0.18,4.45-3.62,4.16-7.67c-0.28-4.06-2.61-7.2-5.19-7.02
			C145.76,141.66,143.9,145.1,144.18,149.15z"/>
		<path d="M185.64,148.65c0,4.07,2.1,7.36,4.69,7.36c2.59,0,4.69-3.3,4.69-7.36c0-4.07-2.1-7.37-4.69-7.37
			C187.73,141.28,185.64,144.58,185.64,148.65z"/>
		<g>
			<path d="M164.86,204.66c-0.15,0-0.29-0.01-0.44-0.05c-13.44-2.83-19.84-12.57-20.1-12.99c-0.64-0.99-0.35-2.32,0.64-2.95
				c0.99-0.64,2.31-0.35,2.95,0.64c0.11,0.16,5.82,8.68,17.39,11.12c1.15,0.24,1.89,1.38,1.65,2.53
				C166.74,203.97,165.85,204.66,164.86,204.66z"/>
		</g>
		<g>
			<path d="M172.26,181c-0.97,0-1.85-0.67-2.08-1.66c-0.26-1.15,0.45-2.3,1.6-2.56c1.59-0.37,2.91-1.35,3.71-2.78
				c0.8-1.43,0.95-3.07,0.42-4.62l-5.05-14.91c-0.38-1.12,0.22-2.33,1.34-2.71c1.12-0.37,2.33,0.22,2.71,1.34l5.05,14.91
				c0.9,2.67,0.63,5.61-0.74,8.07c-1.38,2.46-3.74,4.24-6.49,4.87C172.58,180.98,172.42,181,172.26,181z"/>
		</g>
		<g>
			<path class="st3" d="M137.76,69.2c-0.88,0-1.7-0.55-2.01-1.42c-0.39-1.11,0.19-2.33,1.3-2.73c32.41-11.53,54.67-1.78,55.6-1.35
				c1.07,0.48,1.55,1.75,1.07,2.82c-0.48,1.08-1.75,1.56-2.82,1.07c-0.21-0.1-21.71-9.43-52.41,1.49
				C138.24,69.16,137.99,69.2,137.76,69.2z"/>
		</g>
	</g>
</g>
</svg>
