<?xml version="1.0" encoding="utf-8"?>
<!-- Generator: Adobe Illustrator 25.0.0, SVG Export Plug-In . SVG Version: 6.00 Build 0)  -->
<svg version="1.1" xmlns="http://www.w3.org/2000/svg" xmlns:xlink="http://www.w3.org/1999/xlink" x="0px" y="0px"
	 viewBox="0 0 345.07 345.07" style="enable-background:new 0 0 345.07 345.07;" xml:space="preserve">
<style type="text/css">
	.st0{fill:#F6E1DC;}
	.st1{fill:#F0AF9B;}
	.st2{fill:#FFFFFF;}
	.st3{fill:#080717;}
	.st4{fill:none;stroke:#85BAC6;stroke-width:0.4121;stroke-miterlimit:10;}
	.st5{fill:#F2ECDE;}
	.st6{fill:#85BAC6;}
	.st7{fill:#FCDEDE;}
	.st8{fill:#AAD2DC;}
	.st9{fill:#F5F5F5;}
	.st10{fill:#E8EDC5;}
	.st11{fill:#B9D2D7;}
	.st12{fill:#FFFFFF;stroke:#000000;stroke-width:2;stroke-linecap:round;stroke-linejoin:round;stroke-miterlimit:10;}
	.st13{fill:#CEE1E7;}
	.st14{fill:#EDE6E4;}
	.st15{fill:#FDE3EC;}
	.st16{fill:#FDEDE0;}
	.st17{fill:#C7E1E0;}
	.st18{fill:#EFCBBF;}
	.st19{fill:#23285C;}
	.st20{fill:#010101;}
	.st21{fill:#C6E0F5;}
	.st22{fill:#DDD6CC;}
	.st23{fill:#E0E0E0;}
	.st24{fill:#F3F3F3;}
</style>
<g id="Layer_3">
</g>
<g id="_x3C_Layer_x3E_">
	<g>

			<ellipse transform="matrix(0.7071 -0.7071 0.7071 0.7071 -71.4659 172.5338)" class="st13" cx="172.53" cy="172.53" rx="172.53" ry="172.53"/>
		<g>
			<path d="M76.89,315.84c-0.2,0-0.4-0.03-0.6-0.09c-1.13-0.33-1.78-1.52-1.45-2.65l7.46-25.62c5.97-21.78,25.15-37.47,47.72-38.99
				l93.97-6.34c16.04-1.09,31.54,5.04,42.5,16.81l28.02,32.5c0.77,0.89,0.67,2.24-0.22,3.01c-0.9,0.77-2.24,0.67-3.01-0.22
				l-27.97-32.44c-10.03-10.76-24.29-16.39-39.04-15.4l-93.97,6.34c-20.76,1.4-38.4,15.82-43.9,35.89l-7.47,25.66
				C78.66,315.23,77.81,315.84,76.89,315.84z"/>
		</g>
		<g>
			<g>
				<path d="M46.63,224.91c186.95,37.6,242.3-16.71,242.3-16.71s-3.13-35.51-21.93-39.69c-18.8-4.18-19.84-5.22-11.49-25.07
					c8.36-19.84,20.16-31.51-9.4-34.47c-20.89-2.09-21.93-8.36-22.98-32.38c-1.04-24.02-38.64-27.15-52.22-20.89
					c-13.58,6.27,0-9.4-12.53-12.53c-12.53-3.13-15.67,4.18-17.75,9.4c-2.09,5.22-28.2,7.31-33.42,26.11
					c-5.22,18.8-26.11,16.71-18.8,48.04c7.31,31.33-3.13,18.8-11.49,21.93c-8.36,3.13-17.75,20.89-3.13,30.29
					c14.62,9.4,14.42,20,2.09,17.75C52.9,192.54,46.63,224.91,46.63,224.91z"/>
				<g>
					<path class="st2" d="M145.07,251.02v24.52c0,18.01,15.83,31.93,33.69,29.62l0,0c16.91-2.18,28.57-18.06,25.59-34.85
						l-14.37-80.91l-49.09-29.24L145.07,251.02z"/>
					<path d="M174.94,307.55c-7.73,0-15.26-2.8-21.13-7.97c-6.91-6.07-10.87-14.84-10.87-24.04v-24.47l-4.18-90.81
						c-0.04-0.79,0.36-1.53,1.04-1.93c0.67-0.41,1.52-0.41,2.19,0l49.09,29.24c0.53,0.32,0.9,0.85,1.01,1.46l14.37,80.91
						c1.55,8.7-0.48,17.42-5.71,24.54c-5.23,7.12-12.94,11.67-21.7,12.8C177.67,307.46,176.3,307.55,174.94,307.55z M143.21,164.03
						l3.99,86.9c0,0.03,0,0.07,0,0.1v24.52c0,7.97,3.43,15.56,9.42,20.83c5.99,5.27,13.96,7.69,21.86,6.68
						c7.59-0.98,14.27-4.92,18.8-11.09c4.53-6.17,6.29-13.72,4.95-21.26l-14.2-79.95L143.21,164.03z"/>
				</g>
				<g>
					<path class="st2" d="M204.34,141.03c-3.13-4.87-17.75-1.95-33.42-31.14c-15.67-29.19-16.71-33.09-27.15-29.19
						c0,0-22.98,24.33-22.98,53.52c0,29.19,10.44,73.96,36.55,82.72c16.16,5.42,31.5-23.06,40.12-46.72
						c0.71,0.49,1.48,0.9,2.31,1.19c6.16,2.16,12.98-2.2,15.85-9.5C227.57,131.44,204.62,141.47,204.34,141.03z"/>
					<path d="M161.14,219.68c-1.79,0-3.3-0.32-4.48-0.72c-12.32-4.13-22.48-16.23-29.39-34.98c-5.4-14.64-8.62-33.24-8.62-49.76
						c0-29.7,22.6-53.97,23.56-54.99c0.22-0.24,0.5-0.42,0.81-0.54c11.4-4.25,13.7,0.06,26.45,23.95l3.34,6.24
						c10.86,20.24,21.06,24.47,27.15,27c2.11,0.88,3.89,1.61,5.16,2.78c2.97-0.8,9.89-2.49,13.75,1.81
						c3.5,3.9,3.09,11.16-1.24,22.22c-3.39,8.63-11.36,13.25-18.54,10.73c-0.15-0.05-0.3-0.11-0.45-0.17
						C183.82,212.66,169.47,219.68,161.14,219.68z M144.99,82.52c-2.76,3.08-22.07,25.59-22.07,51.7c0,26.64,9.53,72.11,35.1,80.69
						c13.73,4.6,28.34-20.45,37.43-45.42c0.23-0.62,0.72-1.1,1.35-1.3c0.62-0.2,1.31-0.1,1.86,0.27c0.62,0.42,1.22,0.73,1.82,0.94
						c4.89,1.71,10.66-1.92,13.15-8.26c4.77-12.16,3.33-16.37,2.04-17.8c-2.25-2.5-7.71-1.01-9.77-0.45
						c-1.05,0.29-2.48,0.68-3.37-0.69l0,0c-0.53-0.82-2.16-1.5-4.23-2.36c-6.62-2.75-17.7-7.35-29.28-28.93l-3.34-6.25
						C153.18,81.2,152.14,79.91,144.99,82.52z"/>
				</g>
				<g>
					<path class="st6" d="M180.08,161.59c-0.65,0-1.31-0.04-1.96-0.11c-10.85-1.24-18.49-12.62-17.03-25.38
						c0.7-6.11,3.36-11.64,7.48-15.58c4.24-4.03,9.5-5.92,14.83-5.31c10.85,1.24,18.49,12.62,17.03,25.38
						c-0.7,6.11-3.36,11.64-7.48,15.58C189.23,159.71,184.73,161.59,180.08,161.59z M181.46,119.37c-3.55,0-7.03,1.48-9.94,4.25
						c-3.41,3.25-5.6,7.85-6.19,12.97c-1.19,10.42,4.77,19.68,13.27,20.65c4.05,0.46,8.1-1.02,11.4-4.16
						c3.41-3.25,5.6-7.85,6.19-12.97c1.19-10.42-4.77-19.68-13.27-20.65C182.43,119.4,181.94,119.37,181.46,119.37z"/>
				</g>
				<g>
					<path class="st6" d="M133.34,159.24c-0.65,0-1.3-0.04-1.96-0.11c-10.85-1.24-18.49-12.62-17.03-25.38
						c0.7-6.11,3.36-11.64,7.48-15.58c4.23-4.04,9.5-5.91,14.83-5.31c10.85,1.24,18.49,12.62,17.03,25.38
						c-0.7,6.11-3.36,11.64-7.48,15.58C142.5,157.36,137.99,159.24,133.34,159.24z M134.72,117.02c-3.55,0-7.04,1.48-9.94,4.25
						c-3.41,3.25-5.6,7.85-6.19,12.97c-1.19,10.42,4.77,19.68,13.27,20.65c4.06,0.47,8.1-1.02,11.4-4.16
						c3.41-3.25,5.6-7.85,6.19-12.97l0,0c1.19-10.42-4.77-19.68-13.27-20.65C135.69,117.05,135.2,117.02,134.72,117.02z"/>
				</g>
				<g>
					<path class="st3" d="M146.8,176.37c-1.34,0-2.64-0.55-3.67-1.57c-1.38-1.36-2.15-3.42-2.01-5.36c0.19-2.71,1.66-4.9,2.96-6.84
						l0.2-0.3c3.96-5.94,7.05-12.41,9.2-19.21c1.19-3.77,2.64-9.4,1.54-14.69c-1.15-5.55-6.12-17.01-14.13-17.01
						c-1.18,0-2.14-0.96-2.14-2.14c0-1.18,0.96-2.14,2.14-2.14c11.56,0,17.14,14.74,18.31,20.42c1.3,6.26-0.32,12.61-1.65,16.84
						c-2.26,7.19-5.53,14.02-9.72,20.3l-0.21,0.31c-1.1,1.64-2.14,3.19-2.25,4.77c-0.05,0.7,0.26,1.53,0.75,2.02
						c0.25,0.25,0.5,0.37,0.73,0.34c1.18-0.1,2.21,0.77,2.31,1.95c0.1,1.18-0.77,2.21-1.95,2.31
						C147.08,176.37,146.94,176.37,146.8,176.37z"/>
				</g>
				<g>
					<path class="st6" d="M160.26,138.8c-0.05,0-0.09,0-0.14,0l-7.88-0.52c-1.18-0.08-2.07-1.1-1.99-2.27
						c0.08-1.18,1.08-2.06,2.27-1.99l7.88,0.52c1.18,0.08,2.07,1.1,1.99,2.27C162.32,137.93,161.38,138.8,160.26,138.8z"/>
				</g>
				<g>
					<path d="M160.22,190.6c-1.08,0-2.22-0.15-3.42-0.48c-1.14-0.31-1.81-1.49-1.49-2.63c0.31-1.14,1.49-1.81,2.63-1.49
						c8.89,2.46,12.94-10.42,12.98-10.55c0.35-1.13,1.54-1.76,2.67-1.42c1.13,0.35,1.76,1.54,1.42,2.67
						C173.42,181.89,168.45,190.6,160.22,190.6z"/>
				</g>
				<g>
					<path class="st3" d="M203.29,159.03c-1.12,0-2.06-0.87-2.13-2.01c-0.3-4.99,3.42-9.91,8.31-10.96
						c1.16-0.25,2.29,0.48,2.54,1.64c0.25,1.15-0.48,2.29-1.64,2.54c-2.86,0.62-5.12,3.61-4.95,6.53c0.07,1.18-0.83,2.19-2,2.26
						C203.38,159.03,203.34,159.03,203.29,159.03z"/>
				</g>
			</g>
			<path d="M140.95,137.12c-0.18-3.53-2.1-6.31-4.3-6.2c-2.2,0.11-3.83,3.06-3.66,6.6c0.18,3.53,2.1,6.31,4.3,6.2
				C139.49,143.61,141.12,140.65,140.95,137.12z"/>
			<path d="M183.25,141.3c-0.18-3.53-2.1-6.31-4.3-6.2c-2.2,0.11-3.83,3.06-3.66,6.6c0.18,3.53,2.1,6.31,4.3,6.2
				C181.79,147.78,183.42,144.83,183.25,141.3z"/>
		</g>
	</g>
</g>
</svg>
