<?xml version="1.0" encoding="utf-8"?>
<!-- Generator: Adobe Illustrator 25.0.0, SVG Export Plug-In . SVG Version: 6.00 Build 0)  -->
<svg version="1.1" xmlns="http://www.w3.org/2000/svg" xmlns:xlink="http://www.w3.org/1999/xlink" x="0px" y="0px"
	 viewBox="0 0 345.07 345.07" style="enable-background:new 0 0 345.07 345.07;" xml:space="preserve">
<style type="text/css">
	.st0{fill:#F6E1DC;}
	.st1{fill:#F0AF9B;}
	.st2{fill:#FFFFFF;}
	.st3{fill:#080717;}
	.st4{fill:none;stroke:#85BAC6;stroke-width:0.4121;stroke-miterlimit:10;}
	.st5{fill:#F2ECDE;}
	.st6{fill:#85BAC6;}
	.st7{fill:#FCDEDE;}
	.st8{fill:#AAD2DC;}
	.st9{fill:#F5F5F5;}
	.st10{fill:#E8EDC5;}
	.st11{fill:#B9D2D7;}
	.st12{fill:#FFFFFF;stroke:#000000;stroke-width:2;stroke-linecap:round;stroke-linejoin:round;stroke-miterlimit:10;}
	.st13{fill:#CEE1E7;}
	.st14{fill:#EDE6E4;}
	.st15{fill:#FDE3EC;}
	.st16{fill:#FDEDE0;}
	.st17{fill:#C7E1E0;}
	.st18{fill:#EFCBBF;}
	.st19{fill:#23285C;}
	.st20{fill:#010101;}
	.st21{fill:#C6E0F5;}
	.st22{fill:#DDD6CC;}
	.st23{fill:#E0E0E0;}
	.st24{fill:#F3F3F3;}
</style>
<g id="Layer_3">
</g>
<g id="_x3C_Layer_x3E_">
	<g>

			<ellipse transform="matrix(0.7071 -0.7071 0.7071 0.7071 -71.4658 172.5338)" class="st0" cx="172.53" cy="172.53" rx="172.53" ry="172.53"/>
		<g>
			<path class="st1" d="M114.97,138.81c-8.59-6.56-16.78-1.86-16.86-1.81l-0.45-0.76c0.09-0.05,8.78-5.07,17.85,1.87L114.97,138.81z
				"/>
		</g>
		<path d="M107.69,144.35c0,1.82-1.47,3.29-3.29,3.29c-1.82,0-3.29-1.47-3.29-3.29c0-1.82,1.47-3.29,3.29-3.29
			C106.22,141.07,107.69,142.54,107.69,144.35z"/>
		<g>
			<path d="M202.91,192.2c0,0,16.44-7.4,18.08-16.44c1.64-9.04-0.82-18.08,3.29-25.48c4.11-7.4,27.53-10.68-10.68-47.66
				C175.38,65.64,110.87,3.6,107.59,37.7c-3.29,34.1,6.16,47.66,6.57,53.01c0.41,5.34-16.44,43.55-23.83,60.81
				c-7.4,17.26-6.41,25.52-2.05,36.98c7.44,19.59,29.17,32.87,50.13,42.32C159.36,240.27,197.98,214.8,202.91,192.2z"/>
			<g>
				<path class="st2" d="M91.56,147c0,0,13.15-4.93,24.65,3.29c11.5,8.22,20.96,20.96,36.57,20.96c15.61,0,17.67-22.94,17.67-43.55
					c0-12.33-18.08-21.76-18.08-37.39c0-0.82-3.29,4.93-18.08-3.29c-14.79-8.22-25.48-18.9-25.48-18.9s-6.57,37.8-10.68,45.2
					c-4.11,7.4-13.15,18.08-13.15,18.08S83.34,139.61,91.56,147z"/>
				<path d="M152.78,173.38c-12.37,0-20.98-7.37-29.31-14.49c-2.76-2.36-5.61-4.8-8.5-6.86c-10.4-7.43-22.54-3.07-22.67-3.02
					c-0.75,0.28-1.59,0.12-2.18-0.41c-9.02-8.12-7.32-17.24-7.24-17.62c0.07-0.35,0.23-0.68,0.46-0.96
					c0.09-0.11,8.95-10.61,12.91-17.74c3.23-5.81,8.63-34.11,10.45-44.53c0.14-0.79,0.7-1.43,1.46-1.67
					c0.76-0.24,1.59-0.04,2.16,0.52c0.1,0.11,10.66,10.58,25,18.55c4.13,2.29,11.64,5.78,15.57,3.4c0.33-0.2,1.36-0.82,2.49-0.19
					c0.67,0.38,1.12,1.17,1.12,1.94c0,7.55,4.78,13.71,9.4,19.67c4.47,5.76,8.68,11.2,8.68,17.73
					C172.59,148.96,170.34,173.38,152.78,173.38z M100.91,143.38c4.87,0,10.86,1.11,16.55,5.17c3.05,2.18,5.97,4.68,8.8,7.1
					c8.1,6.92,15.74,13.46,26.53,13.46c13.77,0,15.53-22.13,15.53-41.42c0-5.07-3.78-9.94-7.79-15.11
					c-4.28-5.52-9.07-11.69-10.09-19.31c-4.32,1.04-10.06-0.44-17.18-4.4c-10.47-5.82-18.84-12.76-23.03-16.52
					c-1.81,9.94-6.75,35.74-10.23,41.99c-3.71,6.68-11.15,15.74-12.98,17.94c-0.15,1.62-0.17,7.02,5.1,12.3
					C93.81,144.1,96.99,143.38,100.91,143.38z"/>
			</g>
			<g>
				<path class="st3" d="M110.29,73.09c-0.73,0-1.45-0.38-1.84-1.05c-7.35-12.52-10.08-27.88-7.47-42.16
					c0.21-1.16,1.33-1.92,2.49-1.72c1.16,0.21,1.93,1.33,1.72,2.49c-2.43,13.28,0.11,27.58,6.95,39.23c0.6,1.02,0.26,2.33-0.76,2.93
					C111.03,72.99,110.66,73.09,110.29,73.09z"/>
			</g>
			<g>
				<path class="st2" d="M114.67,178.11c-2.9,0-5.79-0.63-8.39-1.92c-1.06-0.52-1.49-1.81-0.97-2.86c0.52-1.06,1.81-1.49,2.86-0.97
					c5.24,2.6,11.99,1.74,16.41-2.1c0.89-0.78,2.24-0.68,3.01,0.21c0.77,0.89,0.68,2.24-0.21,3.01
					C123.9,176.52,119.28,178.11,114.67,178.11z"/>
			</g>
			<g>
				<path class="st3" d="M198.08,146.4c-1.14,0-2.09-0.9-2.13-2.05c-0.28-6.75,2.61-13.4,7.72-17.8c0.9-0.77,2.25-0.67,3.01,0.23
					c0.77,0.89,0.67,2.24-0.23,3.01c-4.07,3.5-6.46,9.01-6.24,14.38c0.05,1.18-0.87,2.17-2.05,2.22
					C198.14,146.4,198.11,146.4,198.08,146.4z"/>
			</g>
			<g>
				<path class="st3" d="M130.09,126.71c-0.91,0-1.75-0.58-2.04-1.49c-0.56-1.76-1.99-3.26-3.91-4.11c-1.93-0.85-4-0.9-5.67-0.13
					c-1.07,0.49-2.34,0.02-2.83-1.05c-0.49-1.07-0.02-2.34,1.05-2.83c2.79-1.28,6.14-1.25,9.19,0.1c3.05,1.35,5.33,3.8,6.26,6.72
					c0.36,1.12-0.26,2.33-1.39,2.68C130.52,126.67,130.31,126.71,130.09,126.71z"/>
			</g>
			<g>
				<path class="st3" d="M131.82,106.99c-0.2,0-0.4-0.03-0.59-0.09c-2.81-0.81-5.72-1.17-8.64-1.07c-1.2,0.04-2.17-0.88-2.21-2.06
					c-0.04-1.18,0.88-2.17,2.06-2.21c3.38-0.11,6.73,0.3,9.97,1.24c1.13,0.33,1.79,1.51,1.46,2.65
					C133.6,106.38,132.75,106.99,131.82,106.99z"/>
			</g>
			<g>
				<path class="st2" d="M221.25,210.5c-11.76-18.72-17.17-45.44-17.17-45.44s14.9-38.09,9.11-47.19
					c-5.8-9.11-28.15,13.25-28.15,13.25s12.42,54.64,1.66,72.86c-10.76,18.22-52.99,20.7-52.99,20.7s3.63,7.25,8.02,19.68
					L221.25,210.5z"/>
				<path d="M141.72,246.49c-0.88,0-1.7-0.55-2.01-1.43c-4.29-12.14-7.88-19.37-7.92-19.44c-0.32-0.64-0.3-1.4,0.06-2.02
					c0.36-0.62,1.01-1.02,1.72-1.06c0.41-0.02,41.22-2.63,51.28-19.65c10.21-17.28-1.78-70.76-1.9-71.3
					c-0.16-0.72,0.05-1.47,0.57-1.98c1.74-1.74,17.33-16.98,26.42-16.01c2.15,0.24,3.89,1.32,5.04,3.12
					c5.96,9.37-6.34,42.43-8.69,48.52c0.88,4.04,6.31,27.5,16.76,44.13c0.63,1,0.33,2.32-0.67,2.95c-1,0.63-2.32,0.33-2.95-0.67
					c-11.83-18.83-17.23-45.05-17.46-46.15c-0.08-0.4-0.05-0.82,0.1-1.2c5.61-14.34,13.09-39.3,9.29-45.27
					c-0.45-0.71-1.04-1.07-1.9-1.17c-5.09-0.57-15.9,7.95-22.11,13.96c1.8,8.29,11.46,55.81,1.15,73.25
					c-9.57,16.2-41.38,20.51-51.58,21.49c1.46,3.22,3.96,9.07,6.79,17.09c0.39,1.11-0.19,2.33-1.3,2.73
					C142.2,246.45,141.96,246.49,141.72,246.49z"/>
			</g>
		</g>
		<g>
			<path d="M105.22,333.58c-0.23,0-0.47-0.04-0.7-0.12c-1.12-0.39-1.71-1.6-1.32-2.72l28.68-83.02c0.2-0.57,0.62-1.02,1.17-1.26
				l92.59-40.13c0.91-0.39,1.98-0.11,2.57,0.69l11.35,15.3c5.21-1.26,23.1-4.78,36.79,2.61c7.87,4.24,26.99,17.89,34.54,52.92
				c0.25,1.15-0.49,2.29-1.64,2.54c-1.16,0.24-2.29-0.49-2.54-1.64c-7.17-33.29-25.04-46.1-32.39-50.06
				c-14.29-7.71-34.82-1.95-35.02-1.89c-0.86,0.25-1.78-0.06-2.31-0.78l-11.2-15.1l-90.17,39.08l-28.37,82.13
				C106.93,333.02,106.1,333.58,105.22,333.58z"/>
		</g>
		<g>
			<path d="M150.72,283.54c-0.23,0-0.46-0.04-0.69-0.11c-0.63-0.21-1.13-0.71-1.34-1.34l-8.42-24.99l-12.85,18.23
				c-0.68,0.96-2.01,1.19-2.98,0.52c-0.96-0.68-1.2-2.01-0.52-2.98l15.28-21.67c0.46-0.66,1.26-1,2.05-0.88
				c0.8,0.12,1.46,0.67,1.72,1.43l8.87,26.33l67.83-45.7c0.98-0.66,2.31-0.4,2.97,0.58c0.66,0.98,0.4,2.31-0.58,2.97l-70.16,47.26
				C151.56,283.42,151.14,283.54,150.72,283.54z"/>
		</g>
		<g>
			<path d="M216.63,340.89c-0.13,0-0.26-0.01-0.39-0.04c-1.16-0.22-1.93-1.33-1.71-2.49l3.89-20.9c0.22-1.16,1.32-1.93,2.49-1.71
				c1.16,0.22,1.92,1.33,1.71,2.49l-3.89,20.9C218.54,340.17,217.64,340.89,216.63,340.89z"/>
		</g>
		<g>
			<path d="M132.3,296.96c-3.01,0-5.46-2.45-5.46-5.46c0-3.01,2.45-5.46,5.46-5.46c3.01,0,5.46,2.45,5.46,5.46
				C137.76,294.51,135.31,296.96,132.3,296.96z M132.3,290.31c-0.65,0-1.19,0.53-1.19,1.19c0,0.65,0.53,1.19,1.19,1.19
				c0.65,0,1.19-0.53,1.19-1.19C133.49,290.85,132.95,290.31,132.3,290.31z"/>
		</g>
		<g>
			<path d="M122.35,330.36c-3.01,0-5.46-2.45-5.46-5.46c0-3.01,2.45-5.46,5.46-5.46c3.01,0,5.46,2.45,5.46,5.46
				C127.81,327.91,125.36,330.36,122.35,330.36z M122.35,323.71c-0.65,0-1.19,0.53-1.19,1.19c0,0.65,0.53,1.19,1.19,1.19
				c0.65,0,1.19-0.53,1.19-1.19C123.54,324.24,123.01,323.71,122.35,323.71z"/>
		</g>
		<g>
			<path d="M105.19,333.57c-0.17,0-0.34-0.02-0.51-0.06c-1.15-0.28-1.85-1.44-1.56-2.59l14.35-58.42c0.28-1.15,1.43-1.85,2.59-1.57
				c1.15,0.28,1.85,1.44,1.57,2.59l-14.35,58.42C107.03,332.92,106.15,333.57,105.19,333.57z"/>
		</g>
	</g>
</g>
</svg>
