<?xml version="1.0" encoding="utf-8"?>
<!-- Generator: Adobe Illustrator 25.0.0, SVG Export Plug-In . SVG Version: 6.00 Build 0)  -->
<svg version="1.1" xmlns="http://www.w3.org/2000/svg" xmlns:xlink="http://www.w3.org/1999/xlink" x="0px" y="0px"
	 viewBox="0 0 345.07 345.07" style="enable-background:new 0 0 345.07 345.07;" xml:space="preserve">
<style type="text/css">
	.st0{fill:#F6E1DC;}
	.st1{fill:#F0AF9B;}
	.st2{fill:#FFFFFF;}
	.st3{fill:#080717;}
	.st4{fill:none;stroke:#85BAC6;stroke-width:0.4121;stroke-miterlimit:10;}
	.st5{fill:#F2ECDE;}
	.st6{fill:#85BAC6;}
	.st7{fill:#FCDEDE;}
	.st8{fill:#AAD2DC;}
	.st9{fill:#F5F5F5;}
	.st10{fill:#E8EDC5;}
	.st11{fill:#B9D2D7;}
	.st12{fill:#FFFFFF;stroke:#000000;stroke-width:2;stroke-linecap:round;stroke-linejoin:round;stroke-miterlimit:10;}
	.st13{fill:#CEE1E7;}
	.st14{fill:#EDE6E4;}
	.st15{fill:#FDE3EC;}
	.st16{fill:#FDEDE0;}
	.st17{fill:#C7E1E0;}
	.st18{fill:#EFCBBF;}
	.st19{fill:#23285C;}
	.st20{fill:#010101;}
	.st21{fill:#C6E0F5;}
	.st22{fill:#DDD6CC;}
	.st23{fill:#E0E0E0;}
	.st24{fill:#F3F3F3;}
</style>
<g id="Layer_3">
</g>
<g id="_x3C_Layer_x3E_">
	<g>

			<ellipse transform="matrix(0.7071 -0.7071 0.7071 0.7071 -71.4658 172.5338)" class="st10" cx="172.53" cy="172.53" rx="172.53" ry="172.53"/>
		<g>
			<path class="st2" d="M229.26,127.48c-9.72-4.98-16.17-1.87-19.88,1.61c-0.51,0.49-1,1-1.47,1.54c4.08-21.07,1.09-37.09-8.93-47.7
				c-8.71-9.22-23-14.29-41.33-14.66c-13.75-0.28-25.09,2.2-25.21,2.22c-0.34,0.08-0.63,0.31-0.78,0.62
				c-1.13,2.38-27.57,58.55-25.8,87.98c1.76,29.47,2.27,38.79,2.27,38.79c0.02,0.33,0.18,0.63,0.43,0.83
				c0.17,0.13,10.9,8.24,30.21,8.81l-3.18,25.18c-0.04,0.34,0.07,0.68,0.31,0.93c0.31,0.33,5.02,4.88,21.04,4.88
				c11.29,0,28.21-2.26,53.17-9.87c0.46-0.14,0.78-0.55,0.8-1.03l2.74-56.91c7.8,0.63,16.51-5.05,21.14-14.54
				C240.47,144.57,238.04,131.97,229.26,127.48z"/>
			<path class="st3" d="M215.77,58.49c-9.85,0-18.89,3.49-25.95,9.31c26.79,7.47,46.51,32.77,46.51,62.85
				c0,1.33-0.05,2.64-0.13,3.94c12.17-7.07,20.37-20.2,20.37-35.29C256.58,76.77,238.31,58.49,215.77,58.49z"/>
			<path class="st3" d="M208.53,154.99l24.94-1.26l14.07-27.57c6.95-13.63,5.8-29.99-3.03-42.48
				c-9.83-13.91-21.76-29.71-25.14-29.71c-3.84,0-48.86-6.48-76.96-7.97c-15.81-0.83-29.29,11.31-30.12,27.11l4.29,33.26
				l16.12-36.28c0,0,25.19,27.21,67.52,24.19L208.53,154.99z"/>
			<g>
				<path class="st6" d="M159.53,139.86c-10.21,0-18.51-8.3-18.51-18.51c0-10.21,8.3-18.51,18.51-18.51s18.51,8.3,18.51,18.51
					C178.04,131.56,169.73,139.86,159.53,139.86z M159.53,107.11c-7.85,0-14.24,6.39-14.24,14.24s6.39,14.24,14.24,14.24
					s14.24-6.39,14.24-14.24S167.38,107.11,159.53,107.11z"/>
			</g>
			<g>
				<path class="st3" d="M131.56,164.93c-1.07,0-2-0.8-2.12-1.9c-0.13-1.17,0.71-2.23,1.88-2.36l16.63-1.89
					c1.21-0.14,2.23,0.71,2.36,1.88c0.13,1.17-0.71,2.23-1.88,2.36l-16.63,1.89C131.72,164.93,131.64,164.93,131.56,164.93z"/>
			</g>
			<g>
				<path class="st2" d="M209.26,168.34c8.17,3.99,19.15-1.69,24.53-12.7c5.38-11.01,3.12-23.16-5.04-27.16
					c-8.17-3.99-19.15,1.69-24.53,12.7L209.26,168.34z"/>
				<path d="M214.82,171.74c-2.25,0-4.45-0.48-6.51-1.48c-1.06-0.52-1.5-1.8-0.98-2.86c0.52-1.06,1.8-1.5,2.86-0.98
					c7.1,3.48,16.82-1.79,21.67-11.72c4.86-9.93,3.03-20.83-4.06-24.3c-7.1-3.47-16.82,1.79-21.67,11.72
					c-0.52,1.06-1.79,1.5-2.86,0.98c-1.06-0.52-1.5-1.8-0.98-2.86c5.89-12.04,18.18-18.18,27.39-13.68
					c9.21,4.51,11.91,17.97,6.02,30.02C231.13,165.95,222.69,171.74,214.82,171.74z"/>
			</g>
			<g>
				<path class="st6" d="M141.7,116.81h-11.27c-1.18,0-2.14-0.96-2.14-2.14c0-1.18,0.96-2.14,2.14-2.14h11.27
					c1.18,0,2.14,0.96,2.14,2.14C143.83,115.86,142.88,116.81,141.7,116.81z"/>
			</g>
			<path class="st3" d="M155.87,118.58c0,3.27,1.41,5.92,3.15,5.92c1.74,0,3.15-2.65,3.15-5.92c0-3.27-1.41-5.92-3.15-5.92
				C157.28,112.66,155.87,115.31,155.87,118.58z"/>
			<path class="st3" d="M119.59,114.05c0,3.27,1.41,5.92,3.15,5.92c1.74,0,3.15-2.65,3.15-5.92c0-3.27-1.41-5.92-3.15-5.92
				C121,108.13,119.59,110.78,119.59,114.05z"/>
			<g>
				<path class="st6" d="M209.03,135.71c-0.25,0-0.49-0.04-0.74-0.13l-33.13-12.22c-1.11-0.41-1.67-1.64-1.27-2.74
					c0.41-1.11,1.64-1.67,2.74-1.26l33.13,12.22c1.11,0.41,1.67,1.64,1.27,2.74C210.72,135.17,209.9,135.71,209.03,135.71z"/>
			</g>
			<g>
				<path class="st3" d="M140.6,208.73c-20.54,0-31.93-8.66-32.66-9.23c-0.48-0.38-0.78-0.95-0.81-1.57c0-0.01-0.5-9.33-2.27-38.79
					c-1.78-29.68,24.77-86.08,25.9-88.46c0.5-1.07,1.78-1.52,2.85-1.02c1.07,0.51,1.52,1.78,1.02,2.85
					c-0.27,0.57-27.21,57.79-25.5,86.38c1.44,23.99,2.04,34.63,2.21,37.77c4.61,3.02,30.07,17.32,71.03-3.27
					c1.06-0.53,2.34-0.1,2.87,0.95c0.53,1.05,0.1,2.34-0.95,2.87C166.96,205.92,152.3,208.73,140.6,208.73z"/>
			</g>
			<g>
				<path class="st3" d="M209.79,229.68c-0.04,0-0.07,0-0.1,0c-1.18-0.06-2.09-1.06-2.03-2.24l2.77-57.44
					c0.06-1.18,1.15-2.05,2.24-2.03c1.18,0.06,2.09,1.06,2.03,2.24l-2.77,57.44C211.86,228.79,210.92,229.68,209.79,229.68z"/>
			</g>
			<g>
				<path class="st3" d="M136.73,234.97c-0.09,0-0.18-0.01-0.27-0.02c-1.17-0.15-2-1.22-1.85-2.39l3.27-25.95
					c0.15-1.17,1.23-2,2.39-1.85c1.17,0.15,2,1.22,1.85,2.39l-3.27,25.95C138.71,234.18,137.79,234.97,136.73,234.97z"/>
			</g>
			<g>
				<path class="st6" d="M115.82,134.57c-10.21,0-18.51-8.3-18.51-18.51c0-10.21,8.3-18.51,18.51-18.51
					c8.75,0,16.38,6.22,18.13,14.78c0.24,1.16-0.51,2.29-1.66,2.52c-1.16,0.24-2.28-0.51-2.52-1.66
					c-1.35-6.59-7.21-11.37-13.95-11.37c-7.85,0-14.24,6.39-14.24,14.24s6.39,14.24,14.24,14.24c1.92,0,3.79-0.38,5.54-1.12
					c1.09-0.46,2.34,0.05,2.8,1.14c0.46,1.09-0.05,2.34-1.14,2.8C120.74,134.08,118.31,134.57,115.82,134.57z"/>
			</g>
			<g>
				<path class="st3" d="M131.18,153.6c-0.41,0-0.82-0.12-1.18-0.36c-2.74-1.83-11.75-8.13-12.48-12.39
					c-0.22-1.3,0.22-2.22,0.62-2.76c1.54-2.05,10.86-23.08,16.38-35.84c0.47-1.08,1.72-1.58,2.81-1.11
					c1.08,0.47,1.58,1.72,1.11,2.81c-1.44,3.33-13.8,31.9-16.66,36.39c0.59,1.64,5.38,5.88,10.59,9.36
					c0.98,0.66,1.25,1.98,0.59,2.96C132.55,153.26,131.87,153.6,131.18,153.6z"/>
			</g>
		</g>
		<path d="M213.43,277.36h-81.01c-2.67,0-4.84-2.17-4.84-4.84v-46.94c0-2.67,2.17-4.84,4.84-4.84h81.01c2.67,0,4.84,2.17,4.84,4.84
			v46.94C218.27,275.19,216.1,277.36,213.43,277.36z"/>
		<path d="M289.84,286.25c0,0-8.88-14.39-21.3-19.54c-5.87-3.84-13.19-6.5-21.43-7.42l-117.46-13.15
			c-17.64-1.97-35.53,4.36-45.28,16.07c-6.27,7.53-12.18,34.76-12.32,49.59c0,0.31,0,0.62,0,0.93
			c28.31,20.33,62.99,32.33,100.5,32.33c47.83,0,91.11-19.47,122.37-50.92C291.75,289.18,289.84,286.25,289.84,286.25z"/>
	</g>
</g>
</svg>
