<?xml version="1.0" encoding="utf-8"?>
<!-- Generator: Adobe Illustrator 25.0.0, SVG Export Plug-In . SVG Version: 6.00 Build 0)  -->
<svg version="1.1" xmlns="http://www.w3.org/2000/svg" xmlns:xlink="http://www.w3.org/1999/xlink" x="0px" y="0px"
	 viewBox="0 0 345.07 347.1" style="enable-background:new 0 0 345.07 347.1;" xml:space="preserve">
<style type="text/css">
	.st0{fill:#F6E1DC;}
	.st1{fill:#F0AF9B;}
	.st2{fill:#FFFFFF;}
	.st3{fill:#080717;}
	.st4{fill:none;stroke:#85BAC6;stroke-width:0.4121;stroke-miterlimit:10;}
	.st5{fill:#F2ECDE;}
	.st6{fill:#85BAC6;}
	.st7{fill:#FCDEDE;}
	.st8{fill:#AAD2DC;}
	.st9{fill:#F5F5F5;}
	.st10{fill:#E8EDC5;}
	.st11{fill:#B9D2D7;}
	.st12{fill:#FFFFFF;stroke:#000000;stroke-width:2;stroke-linecap:round;stroke-linejoin:round;stroke-miterlimit:10;}
	.st13{fill:#CEE1E7;}
	.st14{fill:#EDE6E4;}
	.st15{fill:#FDE3EC;}
	.st16{fill:#FDEDE0;}
	.st17{fill:#C7E1E0;}
	.st18{fill:#EFCBBF;}
	.st19{fill:#23285C;}
	.st20{fill:#010101;}
	.st21{fill:#C6E0F5;}
	.st22{fill:#DDD6CC;}
	.st23{fill:#E0E0E0;}
	.st24{fill:#F3F3F3;}
</style>
<g id="Layer_3">
</g>
<g id="_x3C_Layer_x3E_">
	<g>

			<ellipse transform="matrix(0.7071 -0.7071 0.7071 0.7071 -71.4659 172.5339)" class="st16" cx="172.53" cy="172.53" rx="172.53" ry="172.53"/>
		<g>
			<path class="st2" d="M169.21,271.06h0.12c-14.58,0-26.4-11.82-26.4-26.4v-95.95c0-14.58,11.82-26.4,26.4-26.4h-0.12
				c14.58,0,26.4,11.82,26.4,26.4v95.95C195.61,259.25,183.79,271.06,169.21,271.06z"/>
			<path d="M169.33,273.2c-0.04,0-0.08,0-0.12,0c-0.02,0-0.03,0-0.05,0c-15.66-0.09-28.37-12.86-28.37-28.54v-95.95
				c0-15.68,12.71-28.44,28.37-28.54c0.04,0,0.07,0,0.11,0c0.04,0,0.07,0,0.11,0c15.66,0.09,28.37,12.86,28.37,28.54v95.95
				c0,15.68-12.71,28.44-28.37,28.54C169.36,273.2,169.35,273.2,169.33,273.2z M169.27,124.45c-13.35,0.03-24.2,10.9-24.2,24.26
				v95.95c0,13.36,10.85,24.23,24.2,24.26c13.35-0.03,24.2-10.9,24.2-24.26v-95.95C193.47,135.36,182.62,124.49,169.27,124.45z"/>
		</g>
		<g>
			<polygon class="st2" points="164.99,281.96 137.52,258.75 114.31,279.12 130.41,237.91 152.2,244.06 			"/>
			<path d="M164.99,284.1c-0.49,0-0.98-0.17-1.38-0.51l-26.07-22.02l-21.83,19.16c-0.74,0.65-1.83,0.71-2.64,0.14
				c-0.81-0.57-1.12-1.61-0.76-2.53l16.11-41.21c0.4-1.03,1.51-1.58,2.57-1.28l21.79,6.16c0.68,0.19,1.22,0.71,1.44,1.37l12.79,37.9
				c0.31,0.91-0.03,1.91-0.82,2.45C165.83,283.97,165.41,284.1,164.99,284.1z M137.52,256.61c0.49,0,0.98,0.17,1.38,0.51
				l21.62,18.27l-9.98-29.57l-18.84-5.33l-12.21,31.24l16.62-14.58C136.51,256.79,137.02,256.61,137.52,256.61z"/>
		</g>
		<path d="M109.06,149.1c0,0-17.82-65.67-4.75-85.12c13.36-19.89,29.69-17.02,53.45-4.86c23.75,12.16,21.18-7.36,53.45,3.65
			c17.82,6.08,29.69,19.46,28.5,32.83c-1.19,13.38-1.19,48.64-13.06,62.02C214.76,170.99,128.06,183.15,109.06,149.1z"/>
		<g>
			<path class="st2" d="M127.96,156.2c3.28,12.09,0.8,23.29-5.54,25.01c-6.34,1.72-14.15-6.68-17.43-18.77
				c-3.28-12.09-0.8-23.29,5.54-25.01C116.88,135.7,124.68,144.11,127.96,156.2z"/>
			<path d="M120.74,183.57c-7.02,0-14.52-8.44-17.82-20.57c-3.65-13.43-0.55-25.57,7.04-27.63c7.6-2.07,16.4,6.84,20.05,20.27l0,0
				c1.68,6.18,1.98,12.36,0.86,17.42c-1.23,5.54-4.04,9.16-7.91,10.22C122.24,183.47,121.5,183.57,120.74,183.57z M112.16,139.35
				c-0.37,0-0.73,0.05-1.07,0.14c-4.46,1.21-7.21,10.7-4.04,22.39c3.17,11.68,10.34,18.48,14.81,17.27c2.23-0.61,4-3.16,4.85-7.02
				c0.97-4.39,0.68-9.85-0.81-15.37c0,0,0,0,0,0C122.97,145.97,116.63,139.35,112.16,139.35z"/>
		</g>
		<g>
			<path class="st2" d="M207.98,156.2c-3.28,12.09-0.8,23.29,5.54,25.01c6.34,1.72,14.15-6.68,17.43-18.77
				c3.28-12.09,0.8-23.29-5.54-25.01C219.07,135.7,211.26,144.11,207.98,156.2z"/>
			<path d="M215.2,183.57c-0.75,0-1.5-0.1-2.23-0.3c-3.87-1.05-6.68-4.68-7.91-10.22c-1.12-5.05-0.81-11.24,0.86-17.42
				c3.65-13.43,12.46-22.33,20.05-20.28c7.6,2.06,10.69,14.2,7.05,27.63C229.72,175.13,222.22,183.57,215.2,183.57z M223.78,139.35
				c-4.46,0-10.81,6.62-13.74,17.41c-1.5,5.52-1.79,10.98-0.81,15.37c0.85,3.85,2.62,6.41,4.85,7.02
				c4.45,1.21,11.64-5.58,14.81-17.27c3.17-11.69,0.42-21.18-4.04-22.39C224.51,139.4,224.15,139.35,223.78,139.35z"/>
		</g>
		<g>
			<path class="st2" d="M202.78,236.04h-69.32c-8.25,0-14.93-6.69-14.93-14.93V92.92c0-8.25,6.69-14.93,14.93-14.93h69.32
				c8.25,0,14.93,6.69,14.93,14.93V221.1C217.71,229.35,211.02,236.04,202.78,236.04z"/>
			<path d="M185.8,238.17h-35.37c-18.77,0-34.04-15.27-34.04-34.04v-94.23c0-18.77,15.27-34.04,34.04-34.04h35.37
				c18.77,0,34.04,15.27,34.04,34.04v94.23C219.85,222.9,204.57,238.17,185.8,238.17z M150.43,80.12
				c-16.42,0-29.77,13.35-29.77,29.77v94.23c0,16.42,13.35,29.77,29.77,29.77h35.37c16.42,0,29.77-13.35,29.77-29.77v-94.23
				c0-16.42-13.35-29.77-29.77-29.77H150.43z"/>
		</g>
		<path d="M136.04,158.19c1.3,3.32,4.29,5.26,6.68,4.32c2.39-0.94,3.27-4.39,1.97-7.71c-1.3-3.32-4.29-5.26-6.68-4.32
			C135.62,151.42,134.74,154.87,136.04,158.19z"/>
		<g>
			<path d="M152.41,147.6c-0.46,0-0.92-0.15-1.31-0.45c-2.25-1.74-5.36-2.83-8.77-3.07c-4.15-0.29-8.08,0.74-10.53,2.77
				c-0.91,0.75-2.26,0.62-3.01-0.28c-0.75-0.91-0.63-2.26,0.28-3.01c3.28-2.71,8.34-4.11,13.56-3.75c4.24,0.3,8.18,1.7,11.09,3.95
				c0.93,0.72,1.1,2.06,0.38,3C153.68,147.31,153.04,147.6,152.41,147.6z"/>
		</g>
		<path d="M185.85,158.19c1.3,3.32,4.29,5.26,6.68,4.32c2.39-0.94,3.27-4.39,1.97-7.71c-1.3-3.32-4.29-5.26-6.68-4.32
			C185.43,151.42,184.55,154.87,185.85,158.19z"/>
		<g>
			<path d="M202.21,147.6c-0.46,0-0.92-0.15-1.31-0.45c-2.25-1.74-5.36-2.83-8.77-3.07c-4.15-0.29-8.08,0.74-10.53,2.77
				c-0.91,0.75-2.26,0.62-3.01-0.28c-0.75-0.91-0.63-2.26,0.28-3.01c3.28-2.71,8.34-4.11,13.56-3.75c4.24,0.3,8.18,1.7,11.09,3.95
				c0.93,0.72,1.1,2.06,0.38,3C203.48,147.31,202.85,147.6,202.21,147.6z"/>
		</g>
		<g>
			<path d="M165.5,180.84c-1.38,0-2.76-0.58-3.62-1.59c-1.72-2.02-1.54-4.72-1.44-6.33c0.61-9.25,1.44-18.59,2.47-27.77
				c0.13-1.17,1.19-2.02,2.36-1.88c1.17,0.13,2.02,1.19,1.88,2.36c-1.03,9.12-1.86,18.39-2.46,27.57c-0.08,1.25-0.12,2.64,0.43,3.29
				c0.05,0.05,0.19,0.08,0.32,0.09c0.34-0.93,1.3-1.52,2.31-1.38c1.17,0.17,1.98,1.26,1.81,2.42c-0.21,1.47-1.25,2.61-2.76,3.04
				C166.39,180.79,165.95,180.84,165.5,180.84z"/>
		</g>
		<path d="M120.34,129.64c0,0,3.92-32.74,14.01-28.25c10.09,4.49,10.46,13.84,26.16,14.97c15.69,1.12,25.78-4.49,31.39,1.12
			c5.61,5.61,15.69,17.96,29.15,8.98c13.45-8.98,14.76-30.49-6.54-41.72c-21.3-11.22-53.25-12.91-71.19-14.03
			C125.39,69.59,106.89,102.7,120.34,129.64z"/>
		<path d="M220.09,181.21c0,0-2.57,9.55-12.76,11.75c-10.19,2.21-16.99-5.52-30.58-6.63c-0.5-0.04-0.99-0.08-1.48-0.11
			c-2.22-0.32-4.65-0.41-7.28-0.37c-2.62-0.04-5.06,0.05-7.28,0.37c-0.49,0.04-0.98,0.07-1.48,0.11
			c-13.59,1.1-20.39,8.83-30.58,6.63c-10.19-2.21-12.76-11.75-12.76-11.75c-21.82,72.18,56.32,69.18,56.32,69.18
			S241.92,253.39,220.09,181.21z"/>
		<g>
			<path class="st2" d="M164.29,206.44c-0.96,0-1.93-0.03-2.93-0.1c-1.18-0.08-2.07-1.09-1.99-2.27c0.08-1.18,1.1-2.06,2.27-1.99
				c5.89,0.39,11-0.48,16.57-2.81c1.09-0.46,2.34,0.06,2.79,1.15c0.45,1.09-0.06,2.34-1.15,2.79
				C174.59,205.41,169.68,206.44,164.29,206.44z"/>
		</g>
		<g>
			<path d="M45.62,292.15c-0.22,0-0.45-0.04-0.67-0.11c-1.12-0.37-1.73-1.58-1.36-2.7l7.99-24.27
				c3.53-10.72,12.17-18.76,23.11-21.51l51.41-12.94c1.14-0.28,2.3,0.41,2.59,1.55c0.29,1.14-0.41,2.31-1.55,2.59l-51.41,12.94
				c-9.52,2.4-17.03,9.39-20.1,18.71l-7.99,24.27C47.35,291.58,46.52,292.15,45.62,292.15z"/>
		</g>
		<g>
			<path class="st2" d="M172.1,344.96l-7.11-63L172.1,344.96z"/>
			<path d="M172.1,347.1c-1.07,0-2-0.81-2.12-1.9l-7.11-63c-0.13-1.17,0.71-2.23,1.88-2.36c1.17-0.13,2.23,0.71,2.36,1.88l7.11,63
				c0.13,1.17-0.71,2.23-1.88,2.36C172.26,347.1,172.18,347.1,172.1,347.1z"/>
		</g>
		<g>
			<polygon class="st2" points="176.36,281.96 203.84,258.75 227.05,279.12 210.94,237.91 189.15,244.06 			"/>
			<path d="M176.36,284.1c-0.42,0-0.84-0.12-1.2-0.37c-0.79-0.54-1.13-1.54-0.82-2.45l12.79-37.9c0.23-0.67,0.76-1.18,1.44-1.37
				l21.79-6.16c1.06-0.3,2.17,0.25,2.57,1.28l16.11,41.21c0.36,0.92,0.04,1.96-0.76,2.53c-0.81,0.56-1.89,0.51-2.64-0.14
				l-21.83-19.16l-26.07,22.02C177.35,283.93,176.86,284.1,176.36,284.1z M190.82,245.81l-9.98,29.57l21.62-18.27
				c0.81-0.68,1.99-0.67,2.79,0.03l16.62,14.58l-12.21-31.24L190.82,245.81z"/>
		</g>
		<g>
			<path d="M295.74,292.15c-0.9,0-1.73-0.57-2.03-1.47l-7.99-24.27c-3.07-9.32-10.58-16.31-20.1-18.71l-51.41-12.94
				c-1.14-0.29-1.84-1.45-1.55-2.59c0.29-1.15,1.45-1.84,2.59-1.55l51.41,12.94c10.94,2.76,19.58,10.8,23.11,21.51l7.99,24.27
				c0.37,1.12-0.24,2.33-1.36,2.7C296.18,292.11,295.96,292.15,295.74,292.15z"/>
		</g>
		<g>
			<path class="st2" d="M170.2,326.01l6.16-44.05L170.2,326.01z"/>
			<path d="M170.21,328.15c-0.1,0-0.2-0.01-0.3-0.02c-1.17-0.16-1.98-1.24-1.82-2.41l6.16-44.05c0.16-1.17,1.24-1.99,2.41-1.82
				c1.17,0.16,1.98,1.24,1.82,2.41l-6.16,44.05C172.17,327.38,171.26,328.15,170.21,328.15z"/>
		</g>
	</g>
</g>
</svg>
