<?xml version="1.0" encoding="utf-8"?>
<!-- Generator: Adobe Illustrator 25.0.0, SVG Export Plug-In . SVG Version: 6.00 Build 0)  -->
<svg version="1.1" xmlns="http://www.w3.org/2000/svg" xmlns:xlink="http://www.w3.org/1999/xlink" x="0px" y="0px"
	 viewBox="0 0 345.07 345.07" style="enable-background:new 0 0 345.07 345.07;" xml:space="preserve">
<style type="text/css">
	.st0{fill:#F5F5F5;}
	.st1{fill:#E8EDC5;}
	.st2{fill:#FFFFFF;}
	.st3{fill:#85BAC6;}
	.st4{fill:#F6E1DC;}
	.st5{fill:#080717;}
	.st6{fill:none;stroke:#080717;stroke-width:2;stroke-linecap:round;stroke-linejoin:round;stroke-miterlimit:10;}
	.st7{fill:#F2ECDE;}
	.st8{fill:#C7E1E0;}
	.st9{fill:#FCDEDE;}
	.st10{fill:#EFCBBF;}
	.st11{fill:#CEE1E7;}
	.st12{fill:#FDEDE0;}
	.st13{fill:#B9D2D7;}
	.st14{fill:#EDE6E4;}
	.st15{fill:#FDE3EC;}
	.st16{fill:#DDD6CC;}
	.st17{fill:#F3F3F3;}
	.st18{fill:#E0D5C1;}
	.st19{fill:none;stroke:#000000;stroke-width:2;stroke-linecap:round;stroke-linejoin:round;stroke-miterlimit:10;}
	.st20{fill:#E0E0E0;}
	.st21{fill:#DBDDC0;}
</style>
<g id="Layer_3">
</g>
<g id="_x3C_Layer_x3E_">
	<g>

			<ellipse transform="matrix(0.7071 -0.7071 0.7071 0.7071 -71.4659 172.5338)" class="st11" cx="172.53" cy="172.53" rx="172.53" ry="172.53"/>
		<path class="st2" d="M225.81,257.52H40.84v26.42c31.65,37.37,78.89,61.12,131.69,61.12c39.79,0,76.4-13.5,105.59-36.13
			C277.63,280.46,254.41,257.52,225.81,257.52z"/>
		<path class="st3" d="M220.18,257.52v80.83c21.28-6.12,40.89-16.19,57.95-29.42c-0.49-28.48-23.72-51.41-52.31-51.41H220.18z"/>
		<path class="st3" d="M141.31,257.52H40.84v26.42c25.26,29.82,60.45,50.96,100.47,58.28V257.52z"/>
		<rect x="146.4" y="186.3" class="st2" width="73.54" height="106.55"/>
		<polygon points="164.03,214.64 219.94,270.56 219.94,186.3 		"/>
		<path class="st2" d="M250.46,126.94l7.67,64.2c3.1,25.98-17.19,48.84-43.35,48.84h-70.6l32.9-113.88L250.46,126.94z"/>
		<path d="M192.23,82.09l-31.33,4.92c-33.07,5.19-58.98,31.2-64.04,64.29v0c-2.59,16.91-13.51,31.39-29.07,38.52
			c-9.7,4.45-16.47,13.53-17.95,24.1l0,0c-2.53,18.02-12.19,34.16-26.67,44.94c9.45,16.32,21.49,30.94,35.57,43.31
			c15.81-10.43,33.57-17.55,52.21-20.92c30.4-5.5,53.83-29.89,58.1-60.48l3.8-27.18l-4.22-27.84c0,0,8.44,26.15,16.03,24.46
			c7.59-1.69,5.06-50.61,5.06-50.61l70.02-8.44v0C254.61,98.99,224.41,77.04,192.23,82.09z"/>
		<ellipse transform="matrix(0.6249 -0.7807 0.7807 0.6249 -7.44 142.8057)" cx="144.9" cy="79.15" rx="35.85" ry="35.85"/>
		<path class="st2" d="M168.81,168.66c-1.67,0.04-3.37,0.3-5.05,0.83c-9.44,2.99-14.66,13.07-11.67,22.5
			c2.99,9.44,13.07,14.66,22.5,11.67c1.68-0.53,3.21-1.3,4.6-2.23L168.81,168.66z"/>
		<path d="M218.87,174.81c0.74,3.39,3.09,5.76,5.25,5.29c2.16-0.47,3.31-3.61,2.57-7c-0.74-3.39-3.09-5.76-5.25-5.29
			C219.28,168.28,218.13,171.41,218.87,174.81z"/>
		<g>
			<path d="M208.95,163.26c-0.51,0-1.02-0.18-1.43-0.55c-0.88-0.79-0.95-2.14-0.15-3.02c7.08-7.85,18.39-5.99,18.87-5.91
				c1.16,0.2,1.94,1.31,1.74,2.47c-0.2,1.16-1.29,1.95-2.47,1.74c-0.19-0.03-9.52-1.48-14.97,4.56
				C210.12,163.02,209.53,163.26,208.95,163.26z"/>
		</g>
		<path d="M246.64,170.34c0.54,3.43,2.75,5.93,4.94,5.59c2.18-0.35,3.51-3.41,2.97-6.84c-0.54-3.43-2.75-5.93-4.94-5.59
			C247.43,163.84,246.1,166.9,246.64,170.34z"/>
		<g>
			<path d="M246.83,155.84c-0.58,0-1.15-0.23-1.58-0.69c-0.8-0.87-0.74-2.22,0.13-3.02c4.35-3.99,9.2-2.57,11.16-1.27
				c0.98,0.65,1.25,1.98,0.59,2.96c-0.65,0.98-1.96,1.24-2.95,0.6c-0.32-0.2-3.04-1.78-5.92,0.85
				C247.86,155.65,247.34,155.84,246.83,155.84z"/>
		</g>
		<g>
			<path d="M242.92,198.12c-1.15,0-2.1-0.91-2.13-2.07c-0.04-1.18,0.89-2.16,2.07-2.2c1.97-0.07,5.02-0.78,5.61-1.95
				c0.29-0.56-0.05-1.61-0.91-2.88c-5.55-8.14-7.72-24.05-7.81-24.73c-0.16-1.17,0.67-2.24,1.84-2.4c1.16-0.15,2.24,0.67,2.4,1.84
				c0.02,0.16,2.13,15.58,7.11,22.88c1.85,2.72,2.25,5.15,1.19,7.23c-1.97,3.86-8.08,4.24-9.29,4.28
				C242.96,198.12,242.94,198.12,242.92,198.12z"/>
		</g>
		<g>
			<path d="M231.6,224.28c-1.04,0-2.07-0.17-3.08-0.55c-4.81-1.82-7.38-7.69-7.87-17.93c-0.04-0.75,0.33-1.47,0.95-1.88
				c0.63-0.42,1.43-0.47,2.1-0.15l20.84,9.95c0.62,0.3,1.06,0.88,1.18,1.55c0.12,0.68-0.09,1.37-0.57,1.87
				C244.35,217.96,237.97,224.28,231.6,224.28z M225.21,209.22c0.7,5.89,2.37,9.58,4.82,10.51c2.88,1.09,7.02-1.39,9.77-3.55
				L225.21,209.22z"/>
		</g>
	</g>
</g>
</svg>
