<?xml version="1.0" encoding="utf-8"?>
<!-- Generator: Adobe Illustrator 25.0.0, SVG Export Plug-In . SVG Version: 6.00 Build 0)  -->
<svg version="1.1" xmlns="http://www.w3.org/2000/svg" xmlns:xlink="http://www.w3.org/1999/xlink" x="0px" y="0px"
	 viewBox="0 0 345.07 345.07" style="enable-background:new 0 0 345.07 345.07;" xml:space="preserve">
<style type="text/css">
	.st0{fill:#F6E1DC;}
	.st1{fill:#F0AF9B;}
	.st2{fill:#FFFFFF;}
	.st3{fill:#080717;}
	.st4{fill:none;stroke:#85BAC6;stroke-width:0.4121;stroke-miterlimit:10;}
	.st5{fill:#F2ECDE;}
	.st6{fill:#85BAC6;}
	.st7{fill:#FCDEDE;}
	.st8{fill:#AAD2DC;}
	.st9{fill:#F5F5F5;}
	.st10{fill:#E8EDC5;}
	.st11{fill:#B9D2D7;}
	.st12{fill:#FFFFFF;stroke:#000000;stroke-width:2;stroke-linecap:round;stroke-linejoin:round;stroke-miterlimit:10;}
	.st13{fill:#CEE1E7;}
	.st14{fill:#EDE6E4;}
	.st15{fill:#FDE3EC;}
	.st16{fill:#FDEDE0;}
	.st17{fill:#C7E1E0;}
	.st18{fill:#EFCBBF;}
	.st19{fill:#23285C;}
	.st20{fill:#010101;}
	.st21{fill:#C6E0F5;}
	.st22{fill:#DDD6CC;}
	.st23{fill:#E0E0E0;}
	.st24{fill:#F3F3F3;}
</style>
<g id="Layer_3">
</g>
<g id="_x3C_Layer_x3E_">
	<g>

			<ellipse transform="matrix(0.7071 -0.7071 0.7071 0.7071 -71.4659 172.5339)" class="st18" cx="172.53" cy="172.53" rx="172.53" ry="172.53"/>
		<g>
			<path class="st3" d="M135.16,198.21c0,0-82.96-32.52-78.98-70.35c3.98-37.83,89.6-70.35,110.83-73.67
				c21.24-3.32,57.74-1.99,73.67,42.48c15.93,44.47,40.48,82.3,49.78,81.63c0,0,14.63,31.24-47.78,31.86
				c-67.03,0.66-68.36,32.52-68.36,32.52S173.65,208.83,135.16,198.21z"/>
			<g>
				<path class="st2" d="M145.44,214.47l5.64,13.61l19.91-7.96c0,0-2.72-31.56,11.95-44.47c16.59-14.6,14.73-30.68,7.3-40.48
					c-9.7-12.79-25.91-5.18-28.54,14.93c-1,7.63,1,17.26,1,17.26s-41.15,22.56-72.34-43.8c0,0-16.92-9.95-16.92,12.94
					c0,22.9,5.97,80.64,5.97,80.64s8.96,31.86,45.79,7.96c36.83-23.89,36.83-23.89,36.83-23.89L145.44,214.47z"/>
				<path d="M100.91,236.12c-2.99,0-5.8-0.5-8.43-1.49c-11.47-4.32-14.98-16.41-15.13-16.93c-0.03-0.12-0.06-0.24-0.07-0.36
					c-0.06-0.58-5.98-58.11-5.98-80.86c0-8.19,2.11-13.54,6.27-15.92c5.98-3.43,13.55,0.95,13.87,1.14
					c0.37,0.22,0.67,0.54,0.85,0.93c11.34,24.13,25.17,39.02,41.11,44.26c12.74,4.18,23.25,0.73,26.89-0.79
					c-0.54-3.17-1.5-10.25-0.71-16.29c1.51-11.58,7.71-20.45,15.79-22.59c6.09-1.62,12.13,0.8,16.57,6.64
					c7.7,10.15,10.33,27.61-7.59,43.38c-13.7,12.05-11.26,42.37-11.23,42.68c0.08,0.94-0.46,1.82-1.33,2.17l-19.91,7.96
					c-1.09,0.44-2.32-0.09-2.77-1.17l-5.48-13.21l-17.27,11.2C116.88,233.03,108.36,236.12,100.91,236.12z M81.51,216.7
					c0.42,1.31,3.7,10.65,12.51,13.95c7.86,2.94,17.96,0.47,30.01-7.35l36.83-23.89c0.99-0.64,2.31-0.36,2.96,0.63
					c0.64,0.99,0.36,2.31-0.63,2.96l-15.95,10.34c0.06,0.1,0.12,0.21,0.16,0.32l4.83,11.66l16.51-6.6
					c-0.35-6.76-0.77-32.75,12.77-44.66c15.71-13.82,13.92-28.48,7.01-37.59c-3.38-4.46-7.67-6.27-12.06-5.1
					c-6.4,1.7-11.37,9.16-12.65,19.02c-0.94,7.17,0.95,16.45,0.97,16.55c0.19,0.92-0.24,1.85-1.07,2.31
					c-0.56,0.31-13.98,7.49-31.55,1.77c-17-5.54-31.61-20.97-43.44-45.89c-1.52-0.75-5.92-2.62-9.05-0.82
					c-2.69,1.55-4.11,5.77-4.11,12.21C75.57,158.33,81.12,212.89,81.51,216.7z"/>
			</g>
			<g>
				<path d="M172.65,161.19c-1.1,0-2.03-0.84-2.13-1.95c-0.65-7.33,0.29-12.52,2.79-15.41c1.7-1.96,3.52-2.16,3.87-2.18
					c1.21-0.05,2.19,0.84,2.25,2.01c0.06,1.14-0.78,2.12-1.91,2.24c-1.08,0.24-3.63,3.01-2.75,12.95c0.1,1.17-0.76,2.21-1.94,2.32
					C172.78,161.19,172.71,161.19,172.65,161.19z"/>
			</g>
			<g>
				<path d="M129.19,180.44c-0.05,0-0.1,0-0.15-0.01c-0.8-0.06-19.77-1.61-31.5-19.54c-10.69-16.35-14.13-46.77-14.27-48.06
					c-0.13-1.17,0.72-2.23,1.89-2.36c1.17-0.12,2.23,0.72,2.36,1.89c0.03,0.31,3.47,30.7,13.6,46.18
					c10.54,16.11,28.06,17.61,28.23,17.62c1.17,0.09,2.06,1.11,1.97,2.29C131.23,179.58,130.3,180.44,129.19,180.44z"/>
			</g>
			<g>
				<path d="M87.16,187.66c-0.58,0-1.15-0.23-1.57-0.69c-0.8-0.87-0.75-2.22,0.12-3.02c1.68-1.55,2.32-4.43,1.62-7.34
					c-0.71-2.96-2.52-5.67-4.28-8.3c-0.66-0.98-0.39-2.31,0.59-2.96c0.98-0.65,2.31-0.39,2.96,0.59c1.87,2.8,3.99,5.98,4.88,9.68
					c1.07,4.45-0.04,8.85-2.88,11.48C88.19,187.47,87.67,187.66,87.16,187.66z"/>
			</g>
			<g>
				<path d="M97.25,207.54c-0.49,0-0.98-0.03-1.48-0.08c-1.17-0.13-2.01-1.19-1.88-2.37c0.14-1.17,1.19-2.02,2.37-1.88
					c4.44,0.52,9.12-2.58,10.37-6.9c0.33-1.13,1.52-1.78,2.65-1.46c1.13,0.33,1.79,1.51,1.46,2.65
					C109.04,203.36,103.29,207.54,97.25,207.54z"/>
			</g>
			<path d="M94.09,169.88c1.17,2.99,3.87,4.74,6.02,3.89c2.15-0.84,2.95-3.95,1.78-6.95c-1.17-2.99-3.87-4.74-6.02-3.89
				C93.71,163.77,92.92,166.88,94.09,169.88z"/>
		</g>
		<g>
			<path d="M175.17,251.24c-0.96,0-1.83-0.65-2.07-1.63c-0.62-2.54-0.93-4.88-0.92-6.94c0.04-7.65,5-15.16,13.95-21.13
				c25.29-16.89,80.96-21.63,148.32,5.86c1.09,0.45,1.62,1.69,1.17,2.79c-0.45,1.09-1.69,1.62-2.79,1.17
				c-65.9-26.9-119.98-22.53-144.33-6.27c-7.73,5.16-12.01,11.41-12.04,17.6c-0.01,1.72,0.26,3.7,0.8,5.9
				c0.28,1.15-0.42,2.3-1.57,2.58C175.51,251.22,175.34,251.24,175.17,251.24z"/>
		</g>
		<g>
			<path d="M284.46,300.52c-0.18,0-0.36-0.02-0.54-0.07c-0.16-0.04-15.75-4.09-34.46-10.35c-1.12-0.37-1.72-1.58-1.35-2.7
				c0.37-1.12,1.58-1.72,2.7-1.35c18.56,6.21,34.02,10.22,34.18,10.26c1.14,0.3,1.83,1.46,1.53,2.6
				C286.28,299.88,285.41,300.52,284.46,300.52z"/>
		</g>
		<g>
			<path d="M175.41,344.26c-0.99,0-1.87-0.69-2.09-1.69L149,228.52c-0.25-1.15,0.49-2.29,1.64-2.54c1.15-0.25,2.29,0.49,2.54,1.64
				l24.33,114.04c0.25,1.15-0.49,2.29-1.64,2.54C175.71,344.24,175.56,344.26,175.41,344.26z"/>
		</g>
	</g>
</g>
</svg>
