<?xml version="1.0" encoding="utf-8"?>
<!-- Generator: Adobe Illustrator 25.0.0, SVG Export Plug-In . SVG Version: 6.00 Build 0)  -->
<svg version="1.1" xmlns="http://www.w3.org/2000/svg" xmlns:xlink="http://www.w3.org/1999/xlink" x="0px" y="0px"
	 viewBox="0 0 345.07 345.07" style="enable-background:new 0 0 345.07 345.07;" xml:space="preserve">
<style type="text/css">
	.st0{fill:#F6E1DC;}
	.st1{fill:#F0AF9B;}
	.st2{fill:#FFFFFF;}
	.st3{fill:#080717;}
	.st4{fill:none;stroke:#85BAC6;stroke-width:0.4121;stroke-miterlimit:10;}
	.st5{fill:#F2ECDE;}
	.st6{fill:#85BAC6;}
	.st7{fill:#FCDEDE;}
	.st8{fill:#AAD2DC;}
	.st9{fill:#F5F5F5;}
	.st10{fill:#E8EDC5;}
	.st11{fill:#B9D2D7;}
	.st12{fill:#FFFFFF;stroke:#000000;stroke-width:2;stroke-linecap:round;stroke-linejoin:round;stroke-miterlimit:10;}
	.st13{fill:#CEE1E7;}
	.st14{fill:#EDE6E4;}
	.st15{fill:#FDE3EC;}
	.st16{fill:#FDEDE0;}
	.st17{fill:#C7E1E0;}
	.st18{fill:#EFCBBF;}
	.st19{fill:#23285C;}
	.st20{fill:#010101;}
	.st21{fill:#C6E0F5;}
	.st22{fill:#DDD6CC;}
	.st23{fill:#E0E0E0;}
	.st24{fill:#F3F3F3;}
</style>
<g id="Layer_3">
</g>
<g id="_x3C_Layer_x3E_">
	<g>

			<ellipse transform="matrix(0.7071 -0.7071 0.7071 0.7071 -71.4658 172.5338)" class="st13" cx="172.53" cy="172.53" rx="172.53" ry="172.53"/>
		<path d="M158.84,245.42c-48.86,0-95.13,4.33-136.45,12.07c29.64,52.28,85.76,87.58,150.15,87.58
			c62.28,0,116.85-33.01,147.18-82.48C272.55,251.68,217.57,245.42,158.84,245.42z"/>
		<g>
			<path class="st2" d="M259.52,152.48l-5.74-15.04l3.97-2.87c3.43-2.48,3.94-7.39,1.1-10.53l-14.11-13.27l-17.4-42.63l-74.49,42.7
				c0,0-23.02,10.79-30.21,28.92c-7.18,18.13-38.31,89.27-51.94,91.75c-6.62,1.2-18.44,3.64-26.23,9.37
				c19.22,32.69,77.76,43.92,138.13,24.63c13.13-4.2,25.34-9.53,36.4-15.68l-56.08-3.98l50.31-70.93l26.86,2.83
				C253.96,179.2,264.49,165.51,259.52,152.48z"/>
			<path d="M124.69,276.99c-37.37,0-68.77-12.41-82.06-35.03c-0.55-0.94-0.31-2.15,0.58-2.8c7.82-5.75,19.22-8.32,27.12-9.75
				c10.41-1.89,37.88-58.99,50.33-90.43c7.41-18.7,30.31-29.61,31.29-30.06l74.33-42.62c0.53-0.3,1.18-0.37,1.76-0.17
				c0.58,0.2,1.05,0.64,1.28,1.21l17.22,42.2l13.77,12.95c1.88,2.06,2.74,4.68,2.47,7.29c-0.27,2.61-1.65,4.99-3.78,6.53l-2.64,1.91
				l5.16,13.51c2.6,6.82,1.5,14.35-2.95,20.13c-4.45,5.79-11.44,8.77-18.7,8.02l-25.61-2.7l-47.39,66.82l52.29,3.71
				c0.94,0.07,1.73,0.75,1.93,1.67c0.21,0.92-0.22,1.87-1.05,2.33c-11.49,6.39-23.87,11.72-36.79,15.85
				C163.26,273.93,143.24,276.99,124.69,276.99z M47.36,241.49c19.93,30.82,77.21,40.31,134.59,21.98
				c10.23-3.27,20.11-7.31,29.47-12.04l-48.65-3.45c-0.77-0.05-1.45-0.52-1.78-1.22c-0.33-0.7-0.26-1.52,0.19-2.15l50.31-70.93
				c0.45-0.63,1.19-0.96,1.97-0.89l26.86,2.83c5.77,0.61,11.33-1.77,14.86-6.37c3.54-4.6,4.41-10.58,2.35-16l0,0l-5.74-15.04
				c-0.35-0.9-0.04-1.93,0.74-2.49l3.97-2.87c1.16-0.84,1.88-2.08,2.03-3.51c0.15-1.42-0.3-2.79-1.26-3.85l-14-13.15
				c-0.22-0.21-0.4-0.47-0.51-0.75l-16.47-40.37l-72.37,41.49c-0.38,0.18-22.5,10.74-29.28,27.85c-0.36,0.9-36.35,89.94-53.54,93.06
				C64.15,234.86,54.4,237.02,47.36,241.49z"/>
		</g>
		<path d="M106.42,104.59c-46.13,84.12-94.28,78.05-94.28,78.05s-4.64-0.83-11.88-0.82c1.26,23.72,7.32,46.16,17.2,66.39l75.5-5.21
			l61.57-85.51c0,0-25.52-14.34-17.97-27.13c7.55-12.79,18.5-9.71,24.76-7.84c6.26,1.87,25.05,7.47,37.62-10.26
			c12.58-17.73,30.03-46.28,30.03-46.28S164.53-1.38,106.42,104.59z"/>
		<g>
			<path d="M157.6,149.42c-0.33,0-0.66-0.08-0.97-0.24c-1.05-0.54-1.46-1.83-0.92-2.88c1.32-2.57,1.2-5.89-0.32-8.88
				c-1.52-2.99-4.14-5.04-6.99-5.48c-1.17-0.18-1.96-1.27-1.78-2.44c0.18-1.17,1.28-1.95,2.44-1.78c4.21,0.65,8,3.56,10.14,7.76
				c2.14,4.21,2.26,8.98,0.31,12.77C159.13,148.99,158.38,149.42,157.6,149.42z"/>
		</g>
		<g>
			<path d="M216.81,116.27c-0.19,0-0.38-0.03-0.57-0.08c-1.14-0.31-1.81-1.49-1.5-2.63c1.97-7.16,7.9-12.92,15.12-14.67
				c1.14-0.28,2.3,0.42,2.58,1.57c0.28,1.15-0.43,2.3-1.57,2.58c-5.64,1.37-10.47,6.05-12.01,11.65
				C218.61,115.65,217.75,116.27,216.81,116.27z"/>
		</g>
		<g>
			<path d="M244.05,163.76c-3.69,0-7.4-1.6-9.77-4.47c-0.75-0.91-0.62-2.26,0.29-3.01c0.91-0.75,2.26-0.62,3.01,0.29
				c2.24,2.73,6.51,3.71,9.71,2.23c1.07-0.49,2.34-0.03,2.84,1.05c0.49,1.07,0.03,2.34-1.05,2.84
				C247.5,163.41,245.78,163.76,244.05,163.76z"/>
		</g>
		<path d="M231.96,118.66c-0.68-2.62-2.55-4.39-4.17-3.97c-1.63,0.42-2.39,2.88-1.71,5.5c0.68,2.62,2.55,4.39,4.17,3.97
			C231.88,123.74,232.64,121.28,231.96,118.66z"/>
	</g>
</g>
</svg>
