<?xml version="1.0" encoding="utf-8"?>
<!-- Generator: Adobe Illustrator 25.0.0, SVG Export Plug-In . SVG Version: 6.00 Build 0)  -->
<svg version="1.1" xmlns="http://www.w3.org/2000/svg" xmlns:xlink="http://www.w3.org/1999/xlink" x="0px" y="0px"
	 viewBox="0 0 345.07 345.07" style="enable-background:new 0 0 345.07 345.07;" xml:space="preserve">
<style type="text/css">
	.st0{fill:#F5F5F5;}
	.st1{fill:#E8EDC5;}
	.st2{fill:#FFFFFF;}
	.st3{fill:#85BAC6;}
	.st4{fill:#F6E1DC;}
	.st5{fill:#080717;}
	.st6{fill:none;stroke:#080717;stroke-width:2;stroke-linecap:round;stroke-linejoin:round;stroke-miterlimit:10;}
	.st7{fill:#F2ECDE;}
	.st8{fill:#C7E1E0;}
	.st9{fill:#FCDEDE;}
	.st10{fill:#EFCBBF;}
	.st11{fill:#CEE1E7;}
	.st12{fill:#FDEDE0;}
	.st13{fill:#B9D2D7;}
	.st14{fill:#EDE6E4;}
	.st15{fill:#FDE3EC;}
	.st16{fill:#DDD6CC;}
	.st17{fill:#F3F3F3;}
	.st18{fill:#E0D5C1;}
	.st19{fill:none;stroke:#000000;stroke-width:2;stroke-linecap:round;stroke-linejoin:round;stroke-miterlimit:10;}
	.st20{fill:#E0E0E0;}
	.st21{fill:#DBDDC0;}
</style>
<g id="Layer_3">
</g>
<g id="_x3C_Layer_x3E_">
	<g>

			<ellipse transform="matrix(0.7071 -0.7071 0.7071 0.7071 -71.4659 172.5338)" class="st13" cx="172.53" cy="172.53" rx="172.53" ry="172.53"/>
		<path class="st3" d="M261.01,255.79l-137.99-35.08c-23.83-6.06-49.08,1.15-66.11,18.88l-27.77,28.9
			c30.96,46.18,83.62,76.58,143.4,76.58c51.76,0,98.15-22.82,129.78-58.91C293.07,271.18,278.33,260.19,261.01,255.79z"/>
		<path class="st2" d="M168.57,223.77c0,0-61.82,34.82-45.48,60.4c16.34,25.58,63.24,0,83.85-18.47
			c20.61-18.47,20.61-18.47,20.61-18.47L168.57,223.77z"/>

			<rect x="121.65" y="162.92" transform="matrix(0.9532 -0.3025 0.3025 0.9532 -56.4132 57.5317)" class="st2" width="71.82" height="95.99"/>
		<path d="M190.34,208.4l-17.17-54.1l-64.36,20.42l18.38,57.91C150.09,234.48,173.5,226.24,190.34,208.4z"/>
		<path class="st2" d="M101.05,200.31L101.05,200.31c-29.07-25.46-32.01-69.66-6.55-98.73l27.2-31.07
			c25.46-29.07,69.66-32.01,98.73-6.55l1.04,0.91c33.51,29.34,36.89,80.29,7.55,113.8l-12.22,13.96
			C186.96,226.72,135.13,230.15,101.05,200.31z"/>
		<path d="M239.76,80.89l-28.76-25.18c-23.87-20.9-60.16-18.49-81.05,5.38c0,0,28.41-19.3,78.17,50.65l0,0l-5.5,10.99
			c-3.79,7.57-4.68,16.26-2.53,24.45l1.4,5.3l-11.16,14.5c-4.32,5.62-3.33,13.66,2.23,18.06l12.72,10.07l10.31-1.1l29.45-33.63
			C265.53,136.97,263.17,101.38,239.76,80.89z"/>

			<ellipse transform="matrix(0.098 -0.9952 0.9952 0.098 8.6031 388.3498)" class="st2" cx="218.54" cy="189.43" rx="26.53" ry="26.53"/>
		<g>
			<path class="st3" d="M100.69,126.49c-1.72,0-3.46-0.16-5.19-0.48c-7.35-1.37-13.73-5.52-17.97-11.69
				c-4.23-6.17-5.81-13.62-4.44-20.97c1.37-7.35,5.52-13.74,11.69-17.97c6.17-4.23,13.61-5.81,20.97-4.44
				c7.35,1.37,13.73,5.52,17.97,11.69c4.23,6.17,5.81,13.62,4.44,20.97l0,0c-1.37,7.35-5.52,13.74-11.69,17.97
				C111.75,124.81,106.28,126.49,100.69,126.49z M100.57,74.74c-4.74,0-9.38,1.43-13.38,4.17c-5.23,3.59-8.75,8.99-9.91,15.23
				c-1.16,6.23,0.17,12.54,3.76,17.77c3.59,5.23,8.99,8.74,15.22,9.91c6.24,1.16,12.55-0.18,17.77-3.76
				c5.23-3.59,8.75-8.99,9.91-15.23l0,0c1.16-6.23-0.17-12.54-3.76-17.77c-3.59-5.23-8.99-8.75-15.22-9.91
				C103.5,74.87,102.03,74.74,100.57,74.74z"/>
		</g>
		<g>
			<path class="st3" d="M150.2,160.77c-1.72,0-3.46-0.16-5.19-0.48c-7.35-1.37-13.73-5.52-17.97-11.69
				c-4.23-6.17-5.81-13.62-4.44-20.97c2.83-15.18,17.49-25.24,32.66-22.41c7.36,1.37,13.74,5.52,17.97,11.69
				c4.23,6.17,5.81,13.62,4.44,20.97l0,0c-1.37,7.35-5.52,13.74-11.69,17.97C161.26,159.09,155.8,160.77,150.2,160.77z
				 M150.13,109.02c-11.2,0-21.2,7.99-23.32,19.39c-1.16,6.23,0.17,12.54,3.76,17.77c3.59,5.23,8.99,8.75,15.22,9.91
				c6.24,1.16,12.54-0.17,17.77-3.76c5.23-3.59,8.75-8.99,9.91-15.23l0,0c1.16-6.23-0.17-12.54-3.76-17.77
				c-3.59-5.23-8.99-8.75-15.23-9.91C153.02,109.15,151.56,109.02,150.13,109.02z"/>
		</g>
		<g>
			<path class="st3" d="M204.8,167.64c-0.45,0-0.9-0.14-1.29-0.44l-30.61-23.26c-0.94-0.71-1.12-2.05-0.41-2.99
				c0.71-0.94,2.05-1.12,2.99-0.41l30.61,23.26c0.94,0.71,1.12,2.05,0.41,2.99C206.09,167.35,205.45,167.64,204.8,167.64z"/>
		</g>
		<g>
			<path class="st3" d="M131.36,115.68c-0.5,0-1-0.17-1.4-0.52l-7.05-6.13c-0.89-0.77-0.99-2.12-0.21-3.01
				c0.78-0.89,2.12-0.98,3.02-0.21l7.05,6.13c0.89,0.77,0.98,2.12,0.21,3.01C132.55,115.43,131.96,115.68,131.36,115.68z"/>
		</g>
		<path d="M158.72,134.18c-2.59,3.45-6.47,4.92-8.67,3.27c-2.2-1.65-1.88-5.78,0.71-9.24c2.59-3.45,6.47-4.92,8.67-3.27
			C161.63,126.59,161.31,130.73,158.72,134.18z"/>
		<ellipse transform="matrix(0.6001 -0.7999 0.7999 0.6001 -37.311 132.9443)" cx="114.31" cy="103.79" rx="7.82" ry="4.97"/>
		<g>
			<path d="M111.63,160.61c-6.92,0-12.14-4.67-14.3-7.85c-0.66-0.98-0.41-2.31,0.57-2.97c0.97-0.66,2.3-0.41,2.97,0.56
				c0.26,0.38,6.34,9.01,15.85,4.85c1.09-0.47,2.34,0.02,2.81,1.1c0.47,1.08-0.02,2.34-1.1,2.81
				C116.03,160.17,113.75,160.61,111.63,160.61z"/>
		</g>
		<g>
			<path d="M179.93,117.5c-0.97,0-1.84-0.66-2.08-1.64c-2.92-12.26-17.36-17.12-17.51-17.17c-1.12-0.37-1.73-1.57-1.37-2.69
				c0.37-1.12,1.57-1.74,2.69-1.37c0.69,0.22,16.86,5.63,20.34,20.24c0.27,1.15-0.43,2.3-1.58,2.57
				C180.26,117.48,180.09,117.5,179.93,117.5z"/>
		</g>
		<g>
			<path d="M133.23,84.95c-0.82,0-1.6-0.47-1.95-1.27c-0.21-0.48-5.35-11.55-18.04-13.27c-1.17-0.16-1.99-1.23-1.83-2.4
				c0.16-1.17,1.23-1.99,2.4-1.83c15.11,2.04,21.12,15.2,21.37,15.76c0.48,1.08-0.01,2.34-1.09,2.82
				C133.82,84.89,133.52,84.95,133.23,84.95z"/>
		</g>
		<g>
			<path d="M200.54,190.38c-0.38,0-0.77-0.1-1.12-0.32c-1-0.62-1.31-1.94-0.69-2.94c0.29-0.47,7.29-11.6,17.69-13.74
				c4.84-1,9.58,0.1,14.09,3.25c0.97,0.68,1.2,2.01,0.53,2.98c-0.68,0.97-2.01,1.2-2.98,0.53c-3.56-2.49-7.07-3.32-10.77-2.57
				c-8.59,1.76-14.87,11.71-14.93,11.81C201.95,190.02,201.25,190.38,200.54,190.38z"/>
		</g>
		<g>
			<path d="M242.46,93.75c-0.48,0-0.95-0.16-1.35-0.48c-0.91-0.75-1.05-2.09-0.3-3.01c5.38-6.58-0.15-16.69-0.21-16.79
				c-0.57-1.03-0.21-2.33,0.82-2.91c1.03-0.58,2.33-0.21,2.9,0.81c0.29,0.52,7.03,12.74-0.21,21.59
				C243.7,93.48,243.08,93.75,242.46,93.75z"/>
		</g>
		<g>
			<path d="M246.02,90.19c-0.55,0-1.09-0.21-1.51-0.63c-0.83-0.83-0.83-2.19,0-3.02c4.35-4.35,9.24-3.01,11.22-1.69
				c0.98,0.65,1.25,1.98,0.59,2.96c-0.65,0.98-1.96,1.24-2.94,0.61c-0.49-0.31-3.04-1.67-5.85,1.14
				C247.11,89.98,246.56,90.19,246.02,90.19z"/>
		</g>
	</g>
</g>
</svg>
