<?xml version="1.0" encoding="utf-8"?>
<!-- Generator: Adobe Illustrator 25.0.0, SVG Export Plug-In . SVG Version: 6.00 Build 0)  -->
<svg version="1.1" xmlns="http://www.w3.org/2000/svg" xmlns:xlink="http://www.w3.org/1999/xlink" x="0px" y="0px"
	 viewBox="0 0 345.07 345.07" style="enable-background:new 0 0 345.07 345.07;" xml:space="preserve">
<style type="text/css">
	.st0{fill:#F5F5F5;}
	.st1{fill:#E8EDC5;}
	.st2{fill:#FFFFFF;}
	.st3{fill:#85BAC6;}
	.st4{fill:#F6E1DC;}
	.st5{fill:#080717;}
	.st6{fill:none;stroke:#080717;stroke-width:2;stroke-linecap:round;stroke-linejoin:round;stroke-miterlimit:10;}
	.st7{fill:#F2ECDE;}
	.st8{fill:#C7E1E0;}
	.st9{fill:#FCDEDE;}
	.st10{fill:#EFCBBF;}
	.st11{fill:#CEE1E7;}
	.st12{fill:#FDEDE0;}
	.st13{fill:#B9D2D7;}
	.st14{fill:#EDE6E4;}
	.st15{fill:#FDE3EC;}
	.st16{fill:#DDD6CC;}
	.st17{fill:#F3F3F3;}
	.st18{fill:#E0D5C1;}
	.st19{fill:none;stroke:#000000;stroke-width:2;stroke-linecap:round;stroke-linejoin:round;stroke-miterlimit:10;}
	.st20{fill:#E0E0E0;}
	.st21{fill:#DBDDC0;}
</style>
<g id="Layer_3">
</g>
<g id="_x3C_Layer_x3E_">
	<g>

			<ellipse transform="matrix(0.7071 -0.7071 0.7071 0.7071 -71.4658 172.5338)" class="st7" cx="172.53" cy="172.53" rx="172.53" ry="172.53"/>
		<g>
			<path class="st3" d="M172.53,345.07c65.19,0,121.92-36.17,151.27-89.52c-18.18-16.63-33.24-29.97-43.06-38.56
				c-7.98-6.98-19.61-9.18-30.77-6.36c-35.05,8.86-110.29,29.01-132.27,44.02c-12.23,8.35-20.06,38.63-25.01,70.83
				C116.57,337.96,143.72,345.07,172.53,345.07z"/>
			<g>
				<polygon class="st3" points="196.55,216.5 210.44,214.76 223.47,237.34 203.5,273.81 174.28,255.43 152.26,280.75
					154.87,237.34 				"/>
				<path d="M152.26,282.89c-0.27,0-0.55-0.05-0.81-0.16c-0.85-0.35-1.38-1.19-1.33-2.11l2.6-43.42c0.07-1.18,1.1-2.09,2.26-2
					c1.18,0.07,2.08,1.08,2.01,2.26l-2.23,37.15l17.9-20.58c0.69-0.79,1.86-0.97,2.75-0.41l27.29,17.17l18.3-33.43l-11.71-20.31
					l-12.49,1.56c-1.19,0.14-2.24-0.69-2.39-1.86c-0.15-1.17,0.68-2.24,1.85-2.39l13.89-1.74c0.86-0.11,1.69,0.31,2.12,1.05
					l13.03,22.58c0.37,0.65,0.38,1.44,0.02,2.09l-19.97,36.47c-0.28,0.52-0.77,0.89-1.34,1.04c-0.57,0.15-1.18,0.06-1.68-0.26
					l-27.67-17.4l-20.81,23.94C153.46,282.63,152.87,282.89,152.26,282.89z"/>
			</g>
			<g>

					<rect x="150.04" y="196.91" transform="matrix(0.7071 -0.7071 0.7071 0.7071 -107.0279 186.3158)" class="st2" width="42.69" height="50.87"/>
				<path d="M174.28,257.57c-0.55,0-1.09-0.21-1.51-0.63l-35.97-35.97c-0.83-0.83-0.83-2.19,0-3.02l30.19-30.19
					c0.83-0.83,2.19-0.83,3.02,0l35.97,35.97c0.83,0.83,0.83,2.19,0,3.02l-30.19,30.19C175.37,257.36,174.83,257.57,174.28,257.57z
					 M141.33,219.46l32.95,32.95l27.17-27.17l-32.95-32.95L141.33,219.46z"/>
			</g>
			<path d="M246.86,127.09c0.71-4.01-0.19-8.05-2.52-11.39c-1.84-2.63-4.41-4.53-7.38-5.58c0.51-0.54,1.02-1.08,1.45-1.69
				c2.33-3.34,3.23-7.38,2.52-11.39c-1.29-7.3-7.59-12.6-15-12.6c-0.03,0-0.07,0.01-0.1,0.01c1.83-4.27,1.75-9.3-0.75-13.63
				c-2.71-4.7-7.78-7.62-13.21-7.62c-1.81,0-3.59,0.35-5.28,0.98c0.04-0.74,0.09-1.47,0.02-2.22c-0.35-4.05-2.27-7.73-5.38-10.35
				c-2.74-2.3-6.22-3.57-9.79-3.57c-3.66,0-7.11,1.35-9.85,3.69c-1.33-4.47-4.64-8.3-9.35-10.01c-1.68-0.61-3.44-0.92-5.21-0.92
				c-5.52,0-10.55,3.02-13.23,7.71c-2.78-3.72-7.18-6.17-12.18-6.17c-7.53,0-13.76,5.5-14.98,12.68c-2.44-1.61-5.33-2.55-8.37-2.55
				c-1.78,0-3.53,0.31-5.21,0.92c-3.83,1.39-6.88,4.19-8.6,7.88c-1.35,2.89-1.72,6.06-1.16,9.14c-1.14-0.27-2.32-0.43-3.51-0.43
				c-3.57,0-7.05,1.27-9.79,3.57c-3.12,2.62-5.03,6.29-5.39,10.35c-0.28,3.18,0.46,6.28,2.04,8.98c-4.74,0.56-9.01,3.32-11.43,7.5
				c-2.03,3.53-2.58,7.63-1.52,11.57c0.83,3.09,2.59,5.76,5.01,7.76c-4.19,2.1-7.33,6.05-8.2,10.94c-0.71,4.01,0.19,8.05,2.52,11.39
				c1.84,2.63,4.41,4.53,7.38,5.58c-3.19,3.39-4.85,8.15-3.98,13.08c1.29,7.3,7.59,12.6,14.99,12.6c0.03,0,0.07-0.01,0.1-0.01
				c-1.83,4.27-1.75,9.3,0.75,13.62c2.72,4.7,7.78,7.62,13.21,7.62c1.81,0,3.59-0.35,5.28-0.98c-0.04,0.74-0.09,1.47-0.02,2.22
				c0.35,4.05,2.27,7.73,5.39,10.35c2.74,2.3,6.22,3.57,9.79,3.57c3.66,0,7.11-1.36,9.85-3.69c1.33,4.47,4.64,8.3,9.35,10.02
				c1.68,0.61,3.43,0.92,5.21,0.92c5.52,0,10.55-3.02,13.23-7.71c2.78,3.72,7.18,6.17,12.18,6.17c7.53,0,13.76-5.5,14.98-12.68
				c2.44,1.61,5.33,2.55,8.37,2.55c1.78,0,3.53-0.31,5.21-0.92c3.82-1.39,6.88-4.19,8.6-7.88c1.35-2.89,1.72-6.06,1.15-9.14
				c1.14,0.27,2.32,0.43,3.51,0.43c3.57,0,7.05-1.27,9.79-3.57c5.76-4.83,7-13.03,3.34-19.32c4.74-0.56,9.02-3.32,11.44-7.5
				c2.04-3.52,2.58-7.63,1.52-11.56c-0.83-3.09-2.59-5.76-5.01-7.76C242.86,135.93,246,131.98,246.86,127.09z"/>
			<g>
				<path class="st2" d="M194.07,156.39c-2.79,0-5.38,0.82-7.56,2.23c-4.45-14.86-10.3-31.68-10.3-31.68h-57.71
					c0,0-18.07,54.21-8.16,72.87c9.91,18.65,26.82,30.9,26.82,30.9l39.64-14.57c0,0,14.13-5.71,14.71-32.04
					c0.83,0.15,1.69,0.25,2.56,0.25c7.72,0,13.97-6.26,13.97-13.97C208.05,162.65,201.79,156.39,194.07,156.39z"/>
				<path d="M137.16,232.85c-0.44,0-0.88-0.14-1.25-0.41c-0.71-0.51-17.42-12.75-27.45-31.62c-10.22-19.24,7.27-72.3,8.02-74.55
					c0.29-0.87,1.11-1.46,2.03-1.46h57.71c0.91,0,1.72,0.58,2.02,1.43c0.06,0.16,5.28,15.2,9.58,29.28c1.97-0.84,4.1-1.27,6.26-1.27
					c8.88,0,16.11,7.23,16.11,16.11c0,8.88-7.23,16.11-16.11,16.11c-0.17,0-0.34,0-0.51-0.01c-1.36,25.45-15.35,31.4-15.96,31.65
					l-39.71,14.6C137.66,232.81,137.41,232.85,137.16,232.85z M120.06,129.09c-2.75,8.7-16.32,53.75-7.83,69.73
					c8.27,15.56,21.72,26.7,25.29,29.49l38.54-14.17c0.45-0.19,12.77-5.68,13.31-30.08c0.01-0.63,0.3-1.22,0.79-1.61
					c0.49-0.39,1.12-0.56,1.74-0.44c0.76,0.14,1.47,0.21,2.17,0.21c6.53,0,11.84-5.31,11.84-11.84c0-6.53-5.31-11.84-11.84-11.84
					c-2.27,0-4.48,0.65-6.4,1.89c-0.57,0.37-1.27,0.44-1.9,0.21c-0.63-0.23-1.11-0.75-1.31-1.39c-3.64-12.15-8.27-25.77-9.78-30.15
					H120.06z"/>
			</g>
			<g>
				<path d="M151.69,208.13h-15.92c-1.18,0-2.14-0.96-2.14-2.14c0-1.18,0.96-2.14,2.14-2.14h15.67c0.79-0.22,4.44-1.5,5.98-6.62
					c0.34-1.13,1.53-1.77,2.66-1.43c1.13,0.34,1.77,1.53,1.43,2.66c-2.46,8.21-9.14,9.57-9.42,9.62
					C151.96,208.12,151.82,208.13,151.69,208.13z"/>
			</g>
			<path d="M115.08,168.87c0.83,2.13,2.75,3.36,4.28,2.76c1.53-0.6,2.1-2.81,1.26-4.93c-0.83-2.13-2.75-3.36-4.28-2.76
				C114.81,164.54,114.25,166.75,115.08,168.87z"/>
			<path d="M143.88,168.87c0.83,2.13,2.75,3.36,4.28,2.76c1.53-0.6,2.1-2.81,1.26-4.93c-0.83-2.13-2.75-3.36-4.28-2.76
				C143.61,164.54,143.05,166.75,143.88,168.87z"/>
			<g>
				<path d="M157.34,159.72h-16.25c-1.18,0-2.14-0.96-2.14-2.14c0-1.18,0.96-2.14,2.14-2.14h16.25c1.18,0,2.14,0.96,2.14,2.14
					C159.48,158.76,158.52,159.72,157.34,159.72z"/>
			</g>
			<g>
				<path d="M126.96,159.72h-16.25c-1.18,0-2.14-0.96-2.14-2.14c0-1.18,0.96-2.14,2.14-2.14h16.25c1.18,0,2.14,0.96,2.14,2.14
					C129.1,158.76,128.14,159.72,126.96,159.72z"/>
			</g>
			<g>
				<path d="M132.61,185.86h-8.48c-0.64,0-1.26-0.29-1.66-0.79c-0.41-0.5-0.56-1.16-0.43-1.79l6.36-29.68
					c0.25-1.15,1.37-1.89,2.54-1.64c1.15,0.25,1.89,1.38,1.64,2.54l-5.81,27.09h5.84c1.18,0,2.14,0.96,2.14,2.14
					C134.75,184.9,133.79,185.86,132.61,185.86z"/>
			</g>
			<g>
				<path d="M191.47,177.95c-0.72,0-1.42-0.36-1.82-1.02c-3.7-6.01-0.17-12.09,2.21-14.47c0.83-0.83,2.19-0.83,3.02,0
					c0.83,0.83,0.83,2.18,0,3.02c-0.22,0.22-4.42,4.62-1.59,9.22c0.62,1,0.3,2.32-0.7,2.94
					C192.24,177.85,191.85,177.95,191.47,177.95z"/>
			</g>
		</g>
	</g>
</g>
</svg>
