<?xml version="1.0" encoding="utf-8"?>
<!-- Generator: Adobe Illustrator 25.0.0, SVG Export Plug-In . SVG Version: 6.00 Build 0)  -->
<svg version="1.1" xmlns="http://www.w3.org/2000/svg" xmlns:xlink="http://www.w3.org/1999/xlink" x="0px" y="0px"
	 viewBox="0 0 345.07 347.64" style="enable-background:new 0 0 345.07 347.64;" xml:space="preserve">
<style type="text/css">
	.st0{fill:#F6E1DC;}
	.st1{fill:#F0AF9B;}
	.st2{fill:#FFFFFF;}
	.st3{fill:#080717;}
	.st4{fill:none;stroke:#85BAC6;stroke-width:0.4121;stroke-miterlimit:10;}
	.st5{fill:#F2ECDE;}
	.st6{fill:#85BAC6;}
	.st7{fill:#FCDEDE;}
	.st8{fill:#AAD2DC;}
	.st9{fill:#F5F5F5;}
	.st10{fill:#E8EDC5;}
	.st11{fill:#B9D2D7;}
	.st12{fill:#FFFFFF;stroke:#000000;stroke-width:2;stroke-linecap:round;stroke-linejoin:round;stroke-miterlimit:10;}
	.st13{fill:#CEE1E7;}
	.st14{fill:#EDE6E4;}
	.st15{fill:#FDE3EC;}
	.st16{fill:#FDEDE0;}
	.st17{fill:#C7E1E0;}
	.st18{fill:#EFCBBF;}
	.st19{fill:#23285C;}
	.st20{fill:#010101;}
	.st21{fill:#C6E0F5;}
	.st22{fill:#DDD6CC;}
	.st23{fill:#E0E0E0;}
	.st24{fill:#F3F3F3;}
</style>
<g id="Layer_3">
</g>
<g id="_x3C_Layer_x3E_">
	<g>

			<ellipse transform="matrix(0.7071 -0.7071 0.7071 0.7071 -71.4658 172.5338)" class="st13" cx="172.53" cy="172.53" rx="172.53" ry="172.53"/>
		<g>
			<path d="M270.22,121.61c-4.93-2.3-10.02-3.81-15.14-4.61c-2.93-1.92-25.96-2.57-37.24-5.63c-7.57-2.06-12.89-9.31-16.58-15.33
				c-1.24-2.83-2.86-5.5-4.85-7.91c-4.72-6.29-11.64-9.01-11.64-9.01c-16.74-7.83-36.66-0.6-44.49,16.15
				c-7.83,16.75-0.6,36.66,16.15,44.49c2.6,1.22,5.28,2.07,7.98,2.58c14.57,4.61,16.84,7.18,20.73,15.04
				c3.05,6.17,4.91,16.2,5.61,20.53c1.91,19,13.47,36.54,32.02,45.21c28.03,13.1,61.37,1,74.47-27.03
				C310.36,168.05,298.25,134.71,270.22,121.61z"/>
			<g>
				<path class="st2" d="M273.18,221.64c-0.39,0-0.78-0.1-1.13-0.32c-1-0.62-1.31-1.94-0.68-2.94l0.58-0.92
					c15.2-25.52,7.48-58.42-17.22-73.33c-4.23-2.55-8.8-4.47-13.61-5.71c-0.3-0.08-0.59-0.22-0.83-0.42
					c-1.09-0.75-7.69-2.09-12.98-3.16c-7.62-1.55-16.25-3.3-21.93-5.47c-7.99-3.06-12.71-11.62-15.56-17.8
					c-0.04-0.09-0.08-0.18-0.11-0.28c-0.84-2.76-2.04-5.36-3.57-7.74c-3.58-6.14-9.43-9.22-9.49-9.25
					c-10.06-6.07-24.33-9.6-34.57-1.5c-0.93,0.73-2.27,0.58-3-0.35c-0.73-0.93-0.58-2.27,0.35-3c11.95-9.45,28.14-5.62,39.31,1.13
					c0.16,0.08,6.9,3.63,11.04,10.75c1.67,2.59,3.03,5.5,3.98,8.59c2.54,5.49,6.66,12.98,13.15,15.47
					c5.34,2.05,13.79,3.76,21.25,5.27c8.15,1.65,12.49,2.57,14.39,3.73c5.08,1.34,9.91,3.39,14.39,6.1
					c26.7,16.12,35.08,51.64,18.68,79.18c-0.13,0.22-0.27,0.43-0.4,0.64l-0.22,0.34C274.59,221.28,273.89,221.64,273.18,221.64z"/>
			</g>
			<g>
				<path class="st3" d="M318.95,189.99c-0.23,0-0.47-0.04-0.7-0.12c-1.12-0.38-1.71-1.6-1.32-2.72c5.8-16.79,5.34-34.61-1.29-50.17
					c-6.6-15.49-18.54-26.88-33.6-32.09c-5.32-1.84-10.91-2.83-16.62-2.96c-0.34-0.01-0.66-0.09-0.96-0.25
					c-1.39-0.6-9.16-0.34-15.41-0.14c-8.93,0.3-19.05,0.63-25.91-0.35c-9.62-1.38-16.71-10.13-21.2-16.6
					c-0.06-0.08-0.11-0.17-0.15-0.26c-1.54-3.05-3.45-5.81-5.7-8.2c-5.32-6.24-12.66-8.3-12.73-8.32
					c-18.32-6.32-38.79,5.01-45.77,25.22c-0.39,1.12-1.6,1.71-2.72,1.32c-1.12-0.39-1.71-1.6-1.32-2.72
					c7.75-22.44,30.66-34.96,51.07-27.91c0.21,0.05,8.52,2.35,14.66,9.56c2.43,2.58,4.56,5.63,6.26,8.99
					c4.04,5.8,10.3,13.55,18.21,14.69c6.48,0.93,16.4,0.6,25.16,0.31c9.58-0.32,14.66-0.44,17.01,0.39
					c6.01,0.17,11.91,1.24,17.52,3.18c16.22,5.6,29.06,17.84,36.14,34.45c7.05,16.54,7.55,35.45,1.4,53.24
					C320.66,189.43,319.83,189.99,318.95,189.99z"/>
			</g>
			<ellipse transform="matrix(0.2312 -0.9729 0.9729 0.2312 -62.1945 216.4094)" cx="105.84" cy="147.56" rx="64.44" ry="64.44"/>
			<path class="st2" d="M138.7,274.53c-1.18,3.23-42.47-51.51-43.41-52.15l45.44-48.22c0,0,32.75,51.12,41.8,53.38
				C182.52,227.55,151.31,239.99,138.7,274.53z"/>
			<g>
				<path d="M138.7,276.67c-0.67,0-1.33-0.31-1.75-0.9c-5.89-8.35-40.74-49.48-43.04-51.75c-0.42-0.35-0.69-0.85-0.75-1.4
					c-0.07-0.62,0.14-1.25,0.57-1.7l45.44-48.22c0.45-0.48,1.11-0.72,1.75-0.66c0.66,0.06,1.25,0.42,1.6,0.97
					c12.49,19.49,34.53,50.97,40.52,52.46c1.14,0.29,1.84,1.45,1.55,2.59c-0.29,1.14-1.45,1.84-2.59,1.55
					c-8.73-2.18-33.69-39.79-41.59-52l-42.2,44.78c7.77,8.6,38.08,45.01,42.23,50.9c0.68,0.96,0.45,2.3-0.51,2.98
					C139.56,276.54,139.13,276.67,138.7,276.67z"/>
			</g>
			<path class="st3" d="M140.57,203.37c0.89,0.92,0.4,2.53-0.77,4.05c-8.12,10.68-16.91,21.15-26.31,31.36
				c-1.07,1.14-2.15,2.35-3.34,3.41c-2.73-4.11-5.4-8.22-7.89-11.87c-0.74-1.17-1.49-2.3-2.22-3.31c0.27-0.17,0.59-0.35,0.86-0.53
				c1.32-0.82,2.39-1,3.22-0.82c0.7-0.44,1.41-0.85,2.12-1.34c3.27-2.23,6.51-4.51,9.77-6.76c6.71-4.63,13.42-9.25,20.12-13.9
				C137.78,202.52,139.78,202.57,140.57,203.37z"/>
			<g>
				<path class="st2" d="M143.38,171.03c3.14-9.52,3.5-20.06,0.26-30.35c-8.22-26.18-36.11-40.73-62.29-32.51
					c-20.44,6.42-33.73,24.83-34.69,45.05c-7.6,11.94-10.09,27.02-5.52,41.58c8.22,26.18,36.11,40.73,62.29,32.51
					c13.83-4.34,24.37-14.19,30.05-26.36c4.75,6.28,13.08,9.23,21.02,6.74c10.1-3.17,15.71-13.93,12.54-24.03
					C163.91,173.69,153.37,168.11,143.38,171.03z"/>
				<path d="M88.48,231.76c-8.24,0-16.4-1.99-23.91-5.91c-12.27-6.4-21.31-17.2-25.46-30.41c-4.53-14.43-2.54-30.03,5.45-42.89
					c1.25-21.39,15.72-40,36.15-46.43c13.2-4.15,27.24-2.91,39.51,3.5c12.27,6.41,21.31,17.2,25.46,30.41
					c2.89,9.19,3.13,18.88,0.74,28.21c9.88-1.08,19.59,4.99,22.66,14.77c1.71,5.43,1.19,11.2-1.44,16.24
					c-2.63,5.05-7.07,8.76-12.5,10.47c-7.5,2.35-15.62,0.34-21.17-5.01c-6.39,11.73-17.13,20.62-29.9,24.63
					C98.95,230.97,93.7,231.76,88.48,231.76z M96.3,108c-4.79,0-9.61,0.73-14.31,2.21c-18.91,5.94-32.25,23.27-33.2,43.12
					c-0.02,0.37-0.13,0.73-0.33,1.05c-7.57,11.89-9.49,26.39-5.28,39.8c3.81,12.12,12.1,22.02,23.36,27.9
					c11.26,5.88,24.13,7.01,36.25,3.21c12.65-3.97,23.13-13.17,28.75-25.22c0.32-0.68,0.97-1.14,1.71-1.22
					c0.75-0.07,1.48,0.24,1.93,0.84c4.33,5.73,11.84,8.14,18.67,5.99c4.34-1.36,7.89-4.34,9.99-8.37c2.1-4.03,2.51-8.64,1.15-12.98
					c-2.76-8.78-12.19-13.81-21.02-11.22c-0.76,0.22-1.58,0.01-2.14-0.57c-0.55-0.57-0.74-1.4-0.49-2.15
					c3.14-9.53,3.23-19.57,0.25-29.04c-3.81-12.12-12.1-22.03-23.36-27.9C111.35,109.82,103.86,108,96.3,108z"/>
			</g>
			<g>
				<path d="M138.15,190.59c-0.5,0-1.01-0.18-1.42-0.54c-0.88-0.79-0.96-2.14-0.18-3.02c4.69-5.26,12.16-7.69,19.05-6.18
					c1.15,0.25,1.88,1.39,1.63,2.54c-0.25,1.15-1.39,1.89-2.54,1.63c-5.32-1.17-11.32,0.78-14.94,4.85
					C139.32,190.35,138.74,190.59,138.15,190.59z"/>
			</g>
			<g>
				<path d="M64.19,189.57c-0.1,0-0.2,0-0.3,0c-5.34-0.09-10.28-2.44-13.2-6.29c-0.71-0.94-0.53-2.28,0.41-2.99
					c0.94-0.72,2.28-0.53,2.99,0.41c2.14,2.82,5.83,4.53,9.87,4.6c4.05,0.05,7.78-1.53,10.01-4.28c0.75-0.91,2.09-1.05,3.01-0.31
					c0.92,0.74,1.06,2.09,0.31,3.01C74.29,187.39,69.42,189.57,64.19,189.57z"/>
			</g>
			<g>
				<path d="M100.39,147.11c-0.86,0-1.67-0.52-1.99-1.37c-2.73-7.12-8.29-5.87-13.28-4.15l-0.52,0.18
					c-1.12,0.38-2.33-0.23-2.71-1.34c-0.38-1.12,0.23-2.33,1.34-2.71l0.49-0.17c3.52-1.22,14.22-4.91,18.67,6.65
					c0.42,1.1-0.13,2.34-1.23,2.76C100.9,147.06,100.64,147.11,100.39,147.11z"/>
			</g>
			<g>
				<path d="M56.31,164.96c-0.7,0-1.39-0.35-1.8-0.98c-0.64-0.99-0.35-2.31,0.64-2.95c6.54-4.2,10.06-10.19,11.12-13.07
					c1.13-3.07,0.59-6.78-1.47-10.18c-2.13-3.52-5.53-5.97-8.87-6.4c-1.17-0.15-2-1.22-1.84-2.39c0.15-1.17,1.24-2,2.39-1.84
					c4.67,0.6,9.15,3.75,11.98,8.42c2.74,4.51,3.4,9.56,1.83,13.86c-1.54,4.2-5.82,10.7-12.82,15.19
					C57.11,164.85,56.71,164.96,56.31,164.96z"/>
			</g>
			<path d="M54.47,150.14c-0.14,3.38,1.72,6.19,4.15,6.29c2.43,0.1,4.51-2.55,4.65-5.93c0.14-3.38-1.72-6.19-4.15-6.29
				C56.7,144.11,54.61,146.76,54.47,150.14z"/>
			<path d="M82.65,156.09c-0.14,3.38,1.72,6.19,4.15,6.29c2.43,0.1,4.51-2.55,4.65-5.93c0.14-3.38-1.72-6.19-4.15-6.29
				C84.88,150.05,82.79,152.71,82.65,156.09z"/>
			<path class="st3" d="M156.69,147.01c1.01,8.17,1.53,16.39,1.79,24.59c0.02,0.7-0.42,1.48-1.21,1.5
				c-7.15,0.17-14.27-0.95-21.04-3.27c-12.39-4.26-23.32-12.54-30.46-23.57c-7.79-12.07-11.12-26.84-9.14-41.08
				c0.21-1.62,2.53-1.33,2.66,0.1c4.92-3.98,12.2-3.99,18.16-2.52c6.62,1.63,12.6,5.04,18.29,8.71c6.17,3.95,11.73,8.13,15.24,14.75
				C154.38,132.63,155.79,139.88,156.69,147.01z"/>
		</g>
		<g>
			<path class="st3" d="M169.91,347.64c-0.62,0-1.23-0.27-1.66-0.78l-16.08-19.68c-20.3-24.84-19.14-59.96,2.75-83.49
				c18.55-19.95,47.3-26.71,73.23-17.23l90.82,33.2c1.11,0.4,1.68,1.63,1.27,2.74c-0.41,1.11-1.63,1.68-2.74,1.27l-90.82-33.2
				c-24.31-8.89-51.25-2.56-68.63,16.13c-20.42,21.96-21.5,54.71-2.57,77.88l16.08,19.68c0.75,0.91,0.61,2.26-0.3,3.01
				C170.86,347.48,170.39,347.64,169.91,347.64z"/>
		</g>
		<g>
			<path class="st3" d="M102.82,328.77c-1.05,0-1.97-0.78-2.11-1.85l-3.44-25.18c-2.66-19.49,3.58-38.7,17.12-52.69
				c0.82-0.85,2.17-0.87,3.02-0.05c0.85,0.82,0.87,2.17,0.05,3.02c-12.63,13.05-18.44,30.96-15.96,49.14l3.44,25.18
				c0.16,1.17-0.66,2.25-1.83,2.41C103.02,328.76,102.92,328.77,102.82,328.77z"/>
		</g>
	</g>
</g>
</svg>
