<svg viewBox="0 0 32 32" fit="" height="100%" width="100%" preserveAspectRatio="xMidYMid meet" focusable="false"><path d="M26.69 18.53a1 1 0 00-1.4-.22L16 25.17v.29a1 1 0 110 1.91v.05a1 1 0 00.6-.19l9.88-7.3a1 1 0 00.21-1.4z" fill="#80868b"></path><path d="M16 27.37a1 1 0 110-1.91v-.29l-9.29-6.86a1 1 0 00-1.4.22 1 1 0 00.21 1.4l9.89 7.3a1 1 0 00.59.19v-.05z" fill="#9ba0a5"></path><path d="M16 24.46a2 2 0 102 2 2 2 0 00-2-2zm0 2.91a1 1 0 111-.95 1 1 0 01-1 .95z" fill="#606368"></path><path d="M8 8.14a1 1 0 01-1-1V4.63a1 1 0 112 0v2.51a1 1 0 01-1 1z" fill="#9ba0a5"></path><circle cx="7.97" cy="16" r="1.01" fill="#9ba0a5"></circle><circle cx="7.97" cy="13.05" r="1.01" fill="#9ba0a5"></circle><circle cx="7.97" cy="10.09" r="1.01" fill="#9ba0a5"></circle><path d="M24 11.07a1 1 0 01-1-1V7.55a1 1 0 012 0v2.52a1 1 0 01-1 1z" fill="#606368"></path><circle cx="24.03" cy="16.01" r="1.01" fill="#606368"></circle><circle cx="24.03" cy="13.02" r="1.01" fill="#606368"></circle><circle cx="24.03" cy="4.63" r="1.01" fill="#606368"></circle><path d="M16 20a1 1 0 01-1-1v-2.54a1 1 0 012 0V19a1 1 0 01-1 1z" fill="#80868b"></path><circle cx="16" cy="21.93" r="1.01" fill="#80868b"></circle><circle cx="16" cy="13.51" r="1.01" fill="#80868b"></circle><circle cx="16" cy="10.56" r="1.01" fill="#80868b"></circle><path d="M20 14.05a1 1 0 01-1-1v-2.51a1 1 0 112 0v2.51a1 1 0 01-1 1z" fill="#606368"></path><circle cx="20.02" cy="7.58" r="1.01" fill="#606368"></circle><circle cx="20.02" cy="18.92" r="1.01" fill="#606368"></circle><circle cx="20.02" cy="15.97" r="1.01" fill="#606368"></circle><circle cx="11.98" cy="18.92" r="1.01" fill="#9ba0a5"></circle><circle cx="11.98" cy="10.56" r="1.01" fill="#9ba0a5"></circle><circle cx="11.98" cy="7.58" r="1.01" fill="#9ba0a5"></circle><path d="M12 17a1 1 0 01-1-1v-2.54a1 1 0 012 0V16a1 1 0 01-1 1z" fill="#9ba0a5"></path></svg>