<svg width="200" height="200" viewBox="0 0 200 200" fill="none" xmlns="http://www.w3.org/2000/svg">
<path d="M125.749 82.0663C113.847 84.8244 102.467 89.3714 92.0307 95.459C75.0848 84.7001 60.9963 69.5184 51.5792 51.1065C50.2871 48.5721 51.3307 45.4413 53.9397 44.2735L69.2705 37.2914C71.6559 36.1981 74.4884 37.1671 75.706 39.4779C86.3406 59.8528 104.454 74.9848 125.749 82.0663Z" fill="#2C2A25"/>
<path d="M69.2703 162.572L53.9146 155.59C51.3305 154.397 50.2621 151.291 51.5541 148.757C70.1896 112.355 107.163 88.5516 148.012 86.6632C150.869 86.5389 153.254 88.8 153.254 91.6326V108.504C153.254 111.138 151.217 113.3 148.583 113.449C117.797 115.089 89.9433 133.028 75.6809 160.385C74.4634 162.721 71.6308 163.665 69.2454 162.572H69.2703Z" fill="#2C2A25"/>
</svg>
