<svg width="207" height="46" viewBox="0 0 207 46" fill="none" xmlns="http://www.w3.org/2000/svg">
<g clip-path="url(#clip0_56_10743)">
<path d="M69.8144 31.4046C73.3432 31.4046 75.8672 29.8311 75.8672 26.7462C75.8672 23.2174 73.2848 22.5357 70.2 21.9125C67.5591 21.3789 66.0751 21.0517 66.0751 19.3925C66.0751 18.1772 66.9632 17.1957 69.16 17.1957C71.3568 17.1957 72.5409 18.0837 72.7784 20.1014H75.2401C74.8856 17.1061 73.016 15.2949 69.2184 15.2949C65.6584 15.2949 63.7031 16.9542 63.7031 19.5054C63.7031 22.859 66.4023 23.4783 69.4287 24.1015C72.2448 24.6936 73.4328 25.1415 73.4328 26.8592C73.4328 28.2847 72.3928 29.3792 69.8728 29.3792C67.5903 29.3792 65.8103 28.6392 65.4831 25.9672H63.0176C63.2552 29.4065 65.6 31.3969 69.8144 31.3969V31.4046Z" fill="#303030"/>
<path d="M90.3727 31.1048C90.9959 31.1048 91.3815 30.988 91.6775 30.8672V29.1184H91.5879C90.252 29.4144 89.9559 28.7328 89.9559 27.4864V20.191C89.9559 16.5414 87.5527 15.3262 84.2887 15.3262C80.2262 15.3262 78.267 17.5502 78.1775 20.5182H80.4911C80.5807 18.2046 81.8271 17.1373 84.316 17.1373C86.5128 17.1373 87.7553 18.115 87.7553 19.8366C87.7553 21.5582 86.244 21.7062 84.0784 22.0334C80.2535 22.6254 77.4062 23.3693 77.4062 26.9878C77.4062 29.8935 79.6887 31.2606 82.5983 31.2606C85.2079 31.2606 86.7815 30.0142 87.7007 28.8301H87.7319C87.9695 30.4037 88.7991 31.1126 90.3727 31.1126V31.1048ZM83.1358 29.4144C81.5622 29.4144 79.9614 28.9704 79.9614 26.9216C79.9614 24.6664 81.8894 24.2535 84.2926 23.8056C85.5974 23.568 86.9918 23.1824 87.7942 22.6799V25.2896C87.7942 27.0696 86.3414 29.4144 83.1358 29.4144Z" fill="#303030"/>
<path d="M93.457 30.9566H95.8602V21.4061C95.8602 19.0029 97.9363 17.2813 99.8059 17.2813C101.379 17.2813 102.447 18.4069 102.447 20.3077V30.9566H104.85V21.4061C104.85 19.0029 106.63 17.2813 108.616 17.2813C110.159 17.2813 111.432 18.4069 111.432 20.3077V30.9566H113.836V20.1909C113.836 17.0164 111.908 15.2676 109.177 15.2676C107.308 15.2676 105.469 16.2452 104.492 17.998H104.433C103.779 16.218 102.299 15.2676 100.429 15.2676C98.5595 15.2676 96.8691 16.3348 95.9187 17.8188H95.8602V15.622H93.457V30.9566Z" fill="#303030"/>
<path d="M124.311 31.4048C128.463 31.4048 130.925 28.2615 130.925 23.3382C130.925 18.4149 128.284 15.2717 124.401 15.2717C122.173 15.2717 120.63 16.2493 119.473 17.8229H119.415V9.75635H117.012V30.9646H119.415V28.947H119.473C120.72 30.6686 122.231 31.4087 124.311 31.4087V31.4048ZM124.132 29.3871C120.868 29.3871 119.263 26.8048 119.263 23.3655C119.263 19.9262 120.805 17.3126 124.159 17.3126C127.065 17.3126 128.459 19.9223 128.459 23.3655C128.459 26.8087 127.065 29.3871 124.128 29.3871H124.132Z" fill="#303030"/>
<path d="M145.371 31.1048C145.994 31.1048 146.38 30.988 146.676 30.8672V29.1184H146.586C145.25 29.4144 144.954 28.7328 144.954 27.4864V20.191C144.954 16.5414 142.551 15.3262 139.287 15.3262C135.224 15.3262 133.265 17.5502 133.176 20.5182H135.489C135.579 18.2046 136.825 17.1373 139.314 17.1373C141.511 17.1373 142.753 18.115 142.753 19.8366C142.753 21.5582 141.242 21.7062 139.076 22.0334C135.252 22.6254 132.404 23.3693 132.404 26.9878C132.404 29.8935 134.687 31.2606 137.596 31.2606C140.206 31.2606 141.78 30.0142 142.699 28.8301H142.73C142.968 30.4037 143.797 31.1126 145.371 31.1126V31.1048ZM138.13 29.4144C136.556 29.4144 134.956 28.9704 134.956 26.9216C134.956 24.6664 136.884 24.2535 139.287 23.8056C140.592 23.568 141.986 23.1824 142.788 22.6799V25.2896C142.788 27.0696 141.336 29.4144 138.13 29.4144Z" fill="#303030"/>
<path d="M150.854 15.622H148.451V30.9566H150.854V21.5229C150.854 19.0029 152.634 17.2813 155.065 17.2813C157.231 17.2813 158.535 18.4069 158.535 20.3973V30.9566H160.939V20.1909C160.939 17.0164 158.979 15.2676 155.778 15.2676C153.554 15.2676 152.011 16.1868 150.913 17.6396H150.854V15.622Z" fill="#303030"/>
<path d="M170.672 31.3738C175.268 31.3738 178.057 27.7554 178.057 23.3073C178.057 18.8592 175.268 15.2407 170.672 15.2407C166.076 15.2407 163.256 18.8592 163.256 23.3073C163.256 27.7554 166.103 31.3738 170.672 31.3738ZM170.672 29.3562C167.408 29.3562 165.718 26.6881 165.718 23.3034C165.718 19.9186 167.408 17.2233 170.672 17.2233C173.936 17.2233 175.595 19.9225 175.595 23.3034C175.595 26.6842 173.936 29.3562 170.672 29.3562Z" fill="#303030"/>
<path d="M183.961 30.9567H186.629L192.144 15.6221H189.652L186.419 25.3518C185.975 26.6878 185.41 28.5846 185.41 28.5846H185.352C185.352 28.5846 184.787 26.715 184.343 25.3518L181.164 15.6221H178.582L183.953 30.9567H183.961Z" fill="#303030"/>
<path d="M205.439 31.1048C206.062 31.1048 206.448 30.988 206.744 30.8672V29.1184H206.654C205.318 29.4144 205.022 28.7328 205.022 27.4864V20.191C205.022 16.5414 202.619 15.3262 199.355 15.3262C195.293 15.3262 193.333 17.5502 193.244 20.5182H195.557C195.647 18.2046 196.893 17.1373 199.382 17.1373C201.579 17.1373 202.822 18.115 202.822 19.8366C202.822 21.5582 201.31 21.7062 199.145 22.0334C195.32 22.6254 192.473 23.3693 192.473 26.9878C192.473 29.8935 194.755 31.2606 197.665 31.2606C200.274 31.2606 201.848 30.0142 202.767 28.8301H202.798C203.036 30.4037 203.866 31.1126 205.439 31.1126V31.1048ZM198.198 29.4144C196.625 29.4144 195.024 28.9704 195.024 26.9216C195.024 24.6664 196.952 24.2535 199.355 23.8056C200.66 23.568 202.054 23.1824 202.857 22.6799V25.2896C202.857 27.0696 201.404 29.4144 198.198 29.4144Z" fill="#303030"/>
<path fill-rule="evenodd" clip-rule="evenodd" d="M45.4821 36.6241C42.1051 40.0167 28.3091 47.534 20.6554 45.384C11.7748 42.8873 4.18732 30.3142 1.45693 23.9498C0.327376 21.3207 -0.0270689 18.2008 0.896046 16.744C1.97107 15.0458 3.52517 14.5589 5.82712 13.7722C7.31501 13.2619 9.47673 12.814 15.7788 11.9064C18.4158 9.72525 19.5687 9.08257 20.4762 8.44379C27.5223 3.49325 33.5946 0.673268 38.9853 0.825173C44.82 0.988763 49.1979 9.98621 49.1979 16.0079C49.8367 18.9759 50.8533 23.9069 49.5835 29.3716C49.5329 29.5936 49.4784 29.8118 49.42 30.0221C49.42 30.0338 49.4122 30.0494 49.4122 30.061C48.5669 33.7068 47.0012 35.5958 45.486 36.6202H45.4821V36.6241ZM16.8227 14.7965C16.5033 14.9368 16.293 15.0536 15.9736 15.3068C11.5606 19.2602 8.83016 22.2866 7.946 24.2108C8.5653 26.7659 25.6838 33.8859 36.9793 34.6377C39.589 32.0085 41.9883 29.0561 43.8774 26.2673C46.1404 22.5865 46.526 18.7928 46.4364 16.3506C42.7673 12.4634 29.4815 13.0243 17.629 14.5667C17.5043 14.5901 17.107 14.6719 16.8227 14.7965Z" fill="#250E36"/>
<path fill-rule="evenodd" clip-rule="evenodd" d="M7.775 24.9629C5.84308 22.9842 3.23343 20.3278 4.25782 17.6831C4.31235 19.7163 5.92488 22.5012 7.8529 24.3981C7.94249 24.4838 8.02818 24.5695 8.11776 24.6513C8.99803 25.4692 9.4927 25.8392 10.4548 26.4001C15.2456 29.2045 25.8244 33.2203 33.9611 34.3381C35.0244 34.4861 36.0449 34.5796 37.007 34.6186L36.9875 34.638C36.8356 34.7938 36.637 34.9925 36.3994 35.2262C25.8478 34.6303 8.66696 27.3856 7.7789 24.9668L7.775 24.9629Z" fill="#412AA0"/>
<path fill-rule="evenodd" clip-rule="evenodd" d="M49.1986 16.0082C49.3076 16.5224 47.7379 16.6977 48.217 15.8446C50.1139 12.4599 46.1955 5.11003 42.0551 2.27447C40.9606 1.52663 38.9781 1.03197 38.1212 1.0826C37.8096 1.09818 38.5808 0.80995 38.9859 0.821635C44.8206 0.985225 49.1986 9.98267 49.1986 16.0043V16.0082Z" fill="#412AA0"/>
<path fill-rule="evenodd" clip-rule="evenodd" d="M16.2603 12.0469C16.2213 12.0781 15.4735 12.1248 15.5007 12.1054C15.9564 11.7392 16.4589 11.338 16.9575 10.9485C23.8672 5.55008 35.595 -1.51935 41.6829 1.54602C42.275 1.84204 42.9059 2.2588 43.3889 2.71452C47.6384 6.72637 51.4749 20.5848 49.4651 28.9902C50.6103 23.0308 49.2158 15.6537 47.615 11.1589C46.4037 7.75465 44.9469 5.04373 43.7395 3.83628C42.9488 3.04559 42.1231 2.44576 41.2895 2.07184C35.5833 -0.502754 24.7708 5.41765 16.2564 12.0469H16.2603Z" fill="#412AA0"/>
<path fill-rule="evenodd" clip-rule="evenodd" d="M16.7126 11.9183C16.6541 11.9572 15.7349 12.039 15.7894 12.0001C16.8528 11.2639 17.9122 10.5628 18.9015 9.94741C26.1034 5.46816 29.8777 4.0309 32.1173 3.23243C36.9081 1.52252 40.585 1.40567 43.0856 2.8663C44.2463 3.54403 45.5356 4.76706 46.9962 8.4712C48.0595 11.1665 50.1278 17.6478 49.3215 26.026C49.1345 27.9462 48.7489 29.8236 48.0829 31.5491C48.1491 31.3232 48.2153 31.0895 48.2854 30.8441C49.119 27.8956 49.4306 24.5848 49.267 21.1962C48.8385 12.2766 45.89 5.18382 42.9025 3.54013C37.3054 0.174853 25.9632 5.66291 16.7126 11.9105V11.9183Z" fill="#4B2FA5"/>
<path fill-rule="evenodd" clip-rule="evenodd" d="M16.9687 11.8248C16.9375 11.8404 15.9326 11.9728 15.9677 11.9495C23.9719 7.10798 33.9821 2.64431 39.6571 2.90917C41.3514 2.98707 42.8042 3.33762 43.9221 4.01146C44.7362 4.50223 45.3983 5.17217 45.9202 5.99012C49.8347 12.0897 50.3216 26.6959 46.5512 33.6953C46.5512 33.6953 46.5512 33.703 46.5473 33.7069C47.3108 32.1139 47.7158 30.5676 48.1832 28.5772C48.7363 26.2013 48.9856 22.2751 48.8142 19.3889C48.4286 12.9739 46.9719 7.73118 44.9114 5.67073C44.5336 5.29291 44.1285 4.96963 43.7157 4.66971C42.3485 3.67649 40.0894 3.32983 37.3396 3.65312C31.5165 4.33474 23.7032 7.85972 16.9687 11.8326V11.8248Z" fill="#5431A8"/>
<path fill-rule="evenodd" clip-rule="evenodd" d="M17.0744 11.8909C17.0121 11.9221 16.0578 11.9922 16.1201 11.9571C19.0102 10.3913 21.8497 9.05534 26.0679 7.3688C34.1228 4.14764 41.1572 2.76491 45.0794 5.46025C47.876 7.38049 49.1731 13.4917 48.8498 20.6741C48.6979 24.0355 48.1175 27.58 46.9802 30.9102C46.4115 32.5811 45.6948 34.1391 44.8146 35.5102C48.2967 29.434 48.9627 21.1143 48.4252 15.8015C48.211 13.6787 47.8332 11.7312 47.3424 10.0914C46.9724 8.8528 46.4232 7.85178 45.7844 7.05331C45.4728 6.66381 45.0872 6.36779 44.7094 6.09514C41.8193 4.00352 37.3868 4.43197 32.0546 5.85365C30.481 6.27431 28.8529 6.79624 27.2053 7.39996C23.9218 8.60352 20.389 10.1888 17.0666 11.8948H17.0744V11.8909Z" fill="#5E34AD"/>
<path fill-rule="evenodd" clip-rule="evenodd" d="M17.4171 11.8016C17.2886 11.8562 16.0733 11.973 16.1629 11.9302C16.5719 11.7432 16.9848 11.5602 17.3937 11.3771C21.0511 9.76066 24.95 8.37015 28.44 7.27565C33.1101 5.80724 36.8181 5.16846 39.6926 5.16846C42.719 5.16846 44.7211 5.79166 46.1427 7.06922C47.1437 7.96896 47.6735 9.02061 48.098 10.4618C49.4106 14.9176 48.9043 22.0922 47.2411 28.2385C46.2128 32.0323 44.7756 34.9886 43.054 37.1698C44.7016 34.9068 46.1427 31.8998 47.0581 28.1996C48.0084 24.3591 48.6044 20.246 48.4758 16.5769C48.4135 14.7502 48.2305 13.0013 47.8215 11.4706C47.393 9.86583 46.8984 8.67396 45.6636 7.55999C43.3929 5.51122 38.4423 4.88023 29.4916 7.43924C25.5927 8.55321 21.3588 10.0723 17.4171 11.8016Z" fill="#6738B2"/>
<path fill-rule="evenodd" clip-rule="evenodd" d="M17.5573 11.8366C17.5028 11.8561 16.2603 11.9924 16.3226 11.9691C25.8731 8.24544 35.2211 5.87338 40.9117 6.28625C43.2838 6.45763 45.2196 7.06915 46.5867 8.22207C49.8352 10.9564 49.2159 19.2839 47.2722 26.474C46.6101 28.9201 45.8155 30.965 44.9391 32.8073C43.8953 35.0119 42.6684 36.8854 41.1259 38.5953C40.9701 38.7706 40.8104 38.938 40.6507 39.1016C42.6761 36.9477 44.6548 33.8434 46.0648 29.6446C48.8225 21.4261 49.7144 11.821 46.2907 8.88811C43.3928 6.41089 38.1463 6.12266 28.9151 8.3545C25.2343 9.24645 21.2731 10.4734 17.5612 11.8366H17.5573Z" fill="#6F3DB7"/>
<path fill-rule="evenodd" clip-rule="evenodd" d="M17.3531 12.0315C17.2713 12.0588 16.0405 11.9809 16.0872 11.9653C16.1418 11.9458 16.2002 11.9263 16.2547 11.9108C22.3076 9.89704 29.1627 8.26503 34.9312 7.63404C41.3775 6.92515 45.6191 7.821 47.3524 9.82692C47.8354 10.3839 48.2093 11.011 48.4975 11.7004C48.9961 12.8884 49.1129 14.7035 48.9532 16.8223C48.6261 21.1146 47.3407 25.8899 45.6775 29.8589C43.6366 34.7316 41.2022 38.0579 38.7834 40.1885C40.8867 38.2487 42.8887 35.5962 44.361 32.3673C47.3134 25.886 49.2415 17.8584 48.2521 12.9702C48.0418 11.9302 47.5199 11.0928 46.9084 10.4384C42.8809 6.13836 31.3634 7.98849 20.438 11.1162C19.4486 11.4005 18.471 11.6887 17.5128 11.9848C17.4622 12.0003 17.4115 12.0159 17.357 12.0315H17.3531Z" fill="#7A42BC"/>
<path fill-rule="evenodd" clip-rule="evenodd" d="M17.7013 11.9378C17.6506 11.9495 16.4237 11.9573 16.5016 11.9378C16.5444 11.9261 16.5834 11.9145 16.6262 11.9028C24.167 9.82674 32.9151 8.24926 39.2211 8.47517C43.307 8.62318 46.4814 9.47229 48.0238 11.5951C49.6831 13.8853 49.3248 17.3908 48.0316 22.3492C47.3422 24.99 46.3022 27.7515 45.0481 30.3845C42.7695 35.1715 40.0352 38.6614 37.2581 40.9088C40.4987 37.9876 43.5329 33.5512 45.4648 28.8577C48.5769 21.2975 49.7143 14.5358 47.3227 11.8989C45.0481 9.3905 41.4724 8.47517 31.9453 9.28143C27.5478 9.65535 22.644 10.6291 18.0284 11.8482C17.9194 11.8755 17.8103 11.9067 17.7013 11.9339V11.9378Z" fill="#894AC6"/>
<path fill-rule="evenodd" clip-rule="evenodd" d="M18.4642 11.8988C18.2539 11.9417 16.4778 11.9066 16.5869 11.8793C19.9327 11.1315 23.4187 10.52 26.8229 10.0954C31.384 9.52676 35.9099 9.23074 39.5323 9.56182C45.3865 10.0993 46.9873 11.4158 48.113 12.7596C50.7849 15.9457 48.0234 23.6578 45.0048 29.6366C43.3104 32.9902 41.3006 35.8141 39.2557 38.12C37.9548 39.5845 36.611 40.8075 35.2751 41.7813C35.3919 41.6878 35.5088 41.5904 35.6256 41.493C38.9091 38.7393 42.0602 34.7079 44.2842 30.4741C48.67 22.1076 49.5191 15.8133 47.743 13.5074C47.1198 12.7012 46.2823 11.9066 44.8139 11.2756C43.0261 10.5083 40.4048 9.99416 36.576 9.93573C31.2944 9.85783 24.5833 10.6953 18.4642 11.8949V11.8988Z" fill="#9852CE"/>
<path fill-rule="evenodd" clip-rule="evenodd" d="M18.9783 11.899C17.136 12.1599 11.9206 12.6273 16.544 11.9146C28.229 10.1073 40.4476 9.46461 45.9746 12.3274C46.9483 12.8338 47.6962 13.4531 48.261 14.2126C48.8764 15.0384 49.2191 16.0316 49.1919 17.2936C49.1529 18.984 48.5764 21.0522 47.7468 23.3191C46.6173 26.4001 44.7944 29.8394 42.4613 33.1618C39.8478 36.8815 36.6772 40.4026 33.0354 42.763C32.9731 42.8019 32.9147 42.8409 32.8523 42.8798C32.8679 42.872 32.8796 42.8603 32.8952 42.8525C38.1456 39.4016 42.9092 32.8307 45.7954 26.9142C48.2882 21.804 49.41 17.1144 47.8987 14.9137C47.4936 14.3256 46.9639 13.8075 46.329 13.3557C41.6395 10.0372 29.6117 10.3877 18.9861 11.9029H18.9783V11.899Z" fill="#A75BD8"/>
<path fill-rule="evenodd" clip-rule="evenodd" d="M2.57616 15.1552C3.44475 14.4931 4.68725 14.0568 6.30368 13.6206C13.525 11.6731 25.9734 10.5981 35.5123 11.2096C41.495 11.5913 46.3482 12.9701 48.1165 15.3617C49.4447 17.0326 49.2422 18.7191 48.6618 20.8964C48.245 22.4544 47.4972 24.1566 46.5858 25.9561C45.0394 29.0097 42.8271 32.266 40.3304 35.3196C37.4793 38.8096 34.1334 41.8554 30.6981 43.5926C34.9826 41.0803 39.4151 36.5621 43.0102 31.2805C47.3842 24.8577 49.4642 19.1788 47.9685 16.573C46.8467 14.2672 43.793 12.9039 39.2398 12.1911C35.376 11.5874 31.6874 11.49 26.8576 11.5562C16.9721 11.6887 6.69318 13.2428 2.57227 15.1474V15.1552H2.57616Z" fill="#CD90F4"/>
<path fill-rule="evenodd" clip-rule="evenodd" d="M7.07853 24.2501C5.28294 22.3727 3.34712 20.024 4.25466 17.6831C4.3014 19.5021 5.54779 22.6181 8.30156 24.9551C12.2472 28.3048 26.9158 34.9847 36.0184 35.5884C35.8236 35.7754 35.6094 35.9779 35.3796 36.1921C24.7229 35.2885 7.05127 26.5481 7.07853 24.2501Z" fill="#4B2FA5"/>
<path fill-rule="evenodd" clip-rule="evenodd" d="M6.47642 23.6035C4.88727 21.8469 3.44612 19.763 4.25238 17.6831C4.29523 19.3034 5.50268 22.6843 8.27591 25.0057C12.8331 28.815 26.4539 35.791 34.9917 36.5388C34.7814 36.7258 34.5594 36.9205 34.3296 37.1231C23.7585 35.9818 5.98566 25.847 6.47642 23.6035Z" fill="#5431A8"/>
<path fill-rule="evenodd" clip-rule="evenodd" d="M5.92615 22.9725C4.57848 21.36 3.54241 19.5177 4.2513 17.6831C4.30194 19.8799 5.96121 22.77 8.25147 25.0602C13.1631 29.333 25.8997 36.6284 33.939 37.4502C33.7131 37.6372 33.4833 37.8242 33.2418 38.015C22.8577 36.7219 5.20168 25.2199 5.92615 22.9725Z" fill="#5E34AD"/>
<path fill-rule="evenodd" clip-rule="evenodd" d="M5.42273 22.3376C4.33992 20.8848 3.63492 19.284 4.25033 17.6831C4.28539 19.8838 5.46947 22.3961 8.21544 25.142C13.1387 30.0653 25.2678 37.5048 32.8474 38.3188C32.6059 38.5019 32.3605 38.681 32.1074 38.8602C21.9609 37.5087 4.57751 24.6357 5.42273 22.3337V22.3376Z" fill="#6738B2"/>
<path fill-rule="evenodd" clip-rule="evenodd" d="M4.97143 21.6833C4.16127 20.4096 3.72503 19.0464 4.25085 17.6831C4.2937 19.8838 5.13891 22.2286 8.16143 25.2628C13.3457 30.4626 24.5516 38.4201 31.7145 39.1368C31.4535 39.3159 31.1848 39.4912 30.9121 39.6587C21.0266 38.3539 4.03663 24.0748 4.96753 21.6833H4.97143Z" fill="#6F3DB7"/>
<path fill-rule="evenodd" clip-rule="evenodd" d="M4.57974 21.0017C4.03833 19.9305 3.81632 18.8049 4.25256 17.687C4.31098 19.8916 4.4551 21.0835 6.99074 24.1605C11.6141 29.7693 23.2407 39.3276 30.5516 39.8807C30.2595 40.056 29.9596 40.2235 29.6557 40.3832C20 39.2264 3.50082 23.4555 4.57974 21.0017Z" fill="#7A42BC"/>
<path fill-rule="evenodd" clip-rule="evenodd" d="M4.26314 20.2655C3.97102 19.4203 3.91649 18.5517 4.25146 17.6831C4.30988 19.8877 4.16187 20.3317 6.22622 23.3231C10.3783 29.3331 22.0243 40.3014 29.3469 40.5351C28.9964 40.7103 28.6419 40.87 28.2836 41.0181C18.7876 40.0716 2.86484 22.6492 4.26314 20.2655Z" fill="#894AC6"/>
<path fill-rule="evenodd" clip-rule="evenodd" d="M5.71977 22.7194C9.47066 29.1227 20.6493 41.1271 27.9213 41.0921C27.9836 41.0921 28.0498 41.0921 28.116 41.0882C27.6369 41.2751 27.1579 41.4309 26.671 41.5517C17.1944 40.6714 2.05847 21.4691 4.06829 19.4631C3.97871 18.875 4.02934 18.2791 4.25915 17.687C4.27083 18.1388 3.53078 18.9763 5.72756 22.7232H5.71977V22.7194Z" fill="#9852CE"/>
<path fill-rule="evenodd" clip-rule="evenodd" d="M4.25022 17.6831C4.16453 18.2829 3.58807 19.4359 6.42363 24.2345C10.4666 31.0741 19.2966 41.2362 25.8168 41.5439C26.1362 41.5595 26.4556 41.5517 26.7828 41.5205C25.6844 41.8048 24.5743 41.8983 23.4915 41.7153C14.1435 39.129 1.64057 20.3512 3.90357 18.6919C3.94252 18.6608 3.98536 18.6335 4.0321 18.6023C4.05937 18.2985 4.12948 17.9908 4.24633 17.6831H4.25022Z" fill="#A75BD8"/>
<path fill-rule="evenodd" clip-rule="evenodd" d="M4.92246 21.6054C7.65675 28.4061 16.5529 41.1739 23.6808 41.8866C26.0139 42.1203 28.7014 41.096 31.4201 39.3354C28.4833 41.353 25.5543 42.5605 23.042 42.3112C13.6628 41.3764 1.23 19.5761 3.78123 17.9441C3.91366 17.8584 4.06946 17.7727 4.25252 17.687C4.24473 17.726 4.23694 17.7104 4.25252 17.687C3.84744 18.8166 4.38495 20.1292 4.92246 21.6093V21.6054Z" fill="#CD90F4"/>
</g>
<defs>
<clipPath id="clip0_56_10743">
<rect width="206.443" height="45.0729" fill="white" transform="translate(0.302734 0.688965)"/>
</clipPath>
</defs>
</svg>
