<svg width="201" height="37" viewBox="0 0 201 37" fill="none" xmlns="http://www.w3.org/2000/svg">
<path d="M36.0662 36.4941H34.0625V11.6579C34.0652 9.11692 33.0744 6.67807 31.3063 4.87376C29.5381 3.06944 27.1363 2.04623 24.6253 2.02749H11.441C8.96465 2.02749 6.58971 3.02289 4.83866 4.79472C3.0876 6.56654 2.10386 8.96965 2.10386 11.4754C2.10386 13.9811 3.0876 16.3843 4.83866 18.1561C6.58971 19.9279 8.96465 20.9233 11.441 20.9233H12.6933C13.2616 20.8414 13.8406 20.884 14.3912 21.0481C14.9419 21.2122 15.4512 21.4942 15.8848 21.8749C16.3183 22.2555 16.666 22.726 16.9044 23.2543C17.1427 23.7827 17.266 24.3568 17.266 24.9376C17.266 25.5184 17.1427 26.0925 16.9044 26.6209C16.666 27.1494 16.3183 27.6198 15.8848 28.0005C15.4512 28.3811 14.9419 28.663 14.3912 28.8272C13.8406 28.9914 13.2616 29.0339 12.6933 28.952H0V26.9245H12.7234C12.9896 26.9439 13.257 26.9076 13.5088 26.8178C13.7606 26.728 13.9914 26.5867 14.1869 26.4027C14.3824 26.2186 14.5383 25.9957 14.6449 25.7481C14.7513 25.5004 14.8064 25.2331 14.8064 24.963C14.8064 24.6929 14.7513 24.4256 14.6449 24.1779C14.5383 23.9303 14.3824 23.7074 14.1869 23.5233C13.9914 23.3393 13.7606 23.198 13.5088 23.1082C13.257 23.0184 12.9896 22.9821 12.7234 23.0015H11.4711C8.44283 23.0122 5.5341 21.8067 3.38343 19.6495C1.23276 17.4924 0.0159055 14.5598 0 11.4957C0.0159045 8.43599 1.23033 5.50756 3.37695 3.35257C5.52358 1.19759 8.42719 -0.00805354 11.451 4.04923e-05H24.6453C27.6819 0.032044 30.5836 1.27375 32.7215 3.45598C34.8594 5.63822 36.0611 8.58511 36.0662 11.6579V36.4941Z" fill="#EE7624"/>
<path d="M32.2893 36.4943H30.2856V11.658C30.2886 10.1366 29.7014 8.67471 28.6505 7.58663C27.5995 6.49854 26.1686 5.87114 24.6653 5.83928H11.441C9.95838 5.83928 8.53648 6.43524 7.4881 7.49605C6.43972 8.55686 5.85075 9.99561 5.85075 11.4959C5.85075 12.9961 6.43972 14.4348 7.4881 15.4956C8.53648 16.5564 9.95838 17.1525 11.441 17.1525H11.5512L12.7735 17.2842C14.7928 17.2923 16.7263 18.1117 18.1486 19.5623C19.5708 21.0128 20.3654 22.9756 20.3574 25.019C20.3494 27.0622 19.5396 29.0186 18.106 30.4578C16.6725 31.897 14.7327 32.7009 12.7134 32.6928H0V30.6654H12.7234C14.206 30.6654 15.628 30.0694 16.6763 29.0086C17.7246 27.9478 18.3136 26.509 18.3136 25.0088C18.3136 23.5086 17.7246 22.0698 16.6763 21.009C15.628 19.9482 14.206 19.3522 12.7234 19.3522H12.6132L11.401 19.2205C10.401 19.2205 9.41097 19.0211 8.4872 18.634C7.56343 18.2468 6.72407 17.6793 6.01704 16.9639C5.31002 16.2485 4.74918 15.3991 4.36653 14.4645C3.9839 13.5297 3.78696 12.5279 3.78696 11.5161C3.78696 10.5044 3.9839 9.50252 4.36653 8.56782C4.74918 7.6331 5.31002 6.78377 6.01704 6.06837C6.72407 5.35296 7.56343 4.78546 8.4872 4.39829C9.41097 4.01111 10.401 3.81183 11.401 3.81183H24.6453C26.6845 3.8464 28.6286 4.69043 30.0586 6.16195C31.4885 7.63347 32.2896 9.6146 32.2893 11.6784V36.4943Z" fill="#EE7624"/>
<path d="M12.7234 36.4941H0V34.4666H12.7234C15.1998 34.4666 17.5747 33.4712 19.3257 31.6994C21.0767 29.9276 22.0605 27.5245 22.0605 25.0187C22.0605 22.513 21.0767 20.1099 19.3257 18.3381C17.5747 16.5663 15.1998 15.5708 12.7234 15.5708H11.4711C10.9028 15.6528 10.3237 15.6102 9.77312 15.4461C9.22251 15.2819 8.71317 14.9999 8.27959 14.6193C7.84601 14.2387 7.49831 13.7682 7.26001 13.2398C7.02172 12.7114 6.8984 12.1373 6.8984 11.5565C6.8984 10.9757 7.02172 10.4016 7.26001 9.87315C7.49831 9.34481 7.84601 8.87431 8.27959 8.49367C8.71317 8.11303 9.22251 7.83109 9.77312 7.66692C10.3237 7.50276 10.9028 7.4602 11.4711 7.54214H24.6453C25.7198 7.57125 26.7406 8.02441 27.4894 8.80481C28.2381 9.58524 28.6556 10.6309 28.6527 11.7187V36.4941H26.649V11.6579C26.6551 11.1199 26.4569 10.6001 26.0952 10.2058C25.7336 9.81162 25.2359 9.57292 24.7054 9.53922H11.441C11.1747 9.51977 10.9073 9.55616 10.6555 9.6459C10.4037 9.73574 10.1729 9.87709 9.97744 10.0611C9.78207 10.2451 9.62616 10.4679 9.51958 10.7157C9.413 10.9633 9.358 11.2306 9.358 11.5007C9.358 11.7709 9.413 12.0381 9.51958 12.2859C9.62616 12.5335 9.78207 12.7563 9.97744 12.9403C10.1729 13.1244 10.4037 13.2658 10.6555 13.3555C10.9073 13.4454 11.1747 13.4817 11.441 13.4623H12.6933C15.7117 13.4583 18.6081 14.6677 20.7452 16.8244C22.8824 18.9813 24.0853 21.9088 24.0892 24.9629C24.0932 28.0172 22.898 30.9479 20.7665 33.1104C18.635 35.2729 15.7418 36.4901 12.7234 36.4941Z" fill="#EE7624"/>
<path d="M54.434 6.7811C54.3869 3.74143 52.3133 1.92706 49.4386 1.92706C46.7523 1.92706 44.561 4.02419 44.561 6.68685C44.561 9.16097 45.5035 10.5748 49.8156 12.0357C51.6771 12.6719 52.2426 13.4731 52.2426 14.7455C52.2426 16.4656 51.1351 17.6909 49.4386 17.6909C47.742 17.6909 46.6346 16.4184 46.611 14.5334H44.0662C44.1132 17.8088 46.3282 20.0237 49.4386 20.0237C52.5253 20.0237 54.7874 17.9029 54.7874 14.7455C54.7874 11.7294 53.3972 10.3156 49.6271 9.11388C47.9305 8.57191 47.1058 7.86501 47.1058 6.63972C47.1058 5.36731 48.2133 4.25983 49.4386 4.25983C50.8759 4.25983 51.8891 5.20236 51.8891 6.7811H54.434ZM64.149 17.7852C61.6985 17.7852 59.6956 15.6409 59.6956 13.1903C59.6956 10.622 61.6985 8.52478 64.149 8.52478C66.8589 8.52478 68.6967 10.6455 68.6967 13.1903C68.6967 15.6644 66.6939 17.7852 64.149 17.7852ZM71.1002 19.6938V6.63972H68.6496V8.47766H68.6026C67.5893 6.99317 65.987 6.28627 64.0783 6.28627C60.2376 6.28627 57.245 9.20815 57.245 13.3788C57.245 17.149 60.3553 20.0237 64.1726 20.0237C66.0342 20.0237 67.6836 19.2225 68.6026 17.6673H68.6496V19.6938H71.1002ZM94.2478 19.6938V11.7766C94.2478 8.40697 92.3156 6.28627 88.9226 6.28627C86.849 6.28627 85.553 6.99317 84.6105 8.47766C83.9507 7.11099 82.2541 6.28627 80.5576 6.28627C78.861 6.28627 77.8713 6.80467 76.811 8.05351H76.7639V6.63972H74.5018V19.6938H76.9523V12.3656C76.9523 9.79725 78.0128 8.52478 80.1805 8.52478C81.9478 8.52478 83.1495 9.53804 83.1495 12.1064V19.6938H85.6001V12.3421C85.6001 9.72647 86.5426 8.52478 88.7105 8.52478C90.7604 8.52478 91.7973 9.91501 91.7973 12.3891V19.6938H94.2478ZM100.038 19.6938V17.8088H100.085C101.168 19.2697 102.912 20.0237 104.797 20.0237C108.473 20.0237 111.348 16.8191 111.348 13.1668C111.348 9.39659 108.285 6.28627 104.585 6.28627C102.818 6.28627 101.168 7.01673 100.108 8.45409H100.061V2.25695H97.6103V19.6938H100.038ZM104.444 17.7852C101.946 17.7852 99.9906 15.7116 99.9906 13.1196C99.9906 10.6455 101.993 8.52478 104.42 8.52478C106.942 8.52478 108.897 10.6926 108.897 13.1668C108.897 15.7116 106.847 17.7852 104.444 17.7852ZM120.289 17.7852C117.839 17.7852 115.836 15.6409 115.836 13.1903C115.836 10.622 117.839 8.52478 120.289 8.52478C122.999 8.52478 124.837 10.6455 124.837 13.1903C124.837 15.6644 122.834 17.7852 120.289 17.7852ZM127.24 19.6938V6.63972H124.79V8.47766H124.743C123.73 6.99317 122.127 6.28627 120.219 6.28627C116.378 6.28627 113.385 9.20815 113.385 13.3788C113.385 17.149 116.495 20.0237 120.313 20.0237C122.175 20.0237 123.824 19.2225 124.743 17.6673H124.79V19.6938H127.24ZM139.855 6.7811C139.808 3.74143 137.735 1.92706 134.86 1.92706C132.174 1.92706 129.983 4.02419 129.983 6.68685C129.983 9.16097 130.925 10.5748 135.237 12.0357C137.098 12.6719 137.665 13.4731 137.665 14.7455C137.665 16.4656 136.556 17.6909 134.86 17.6909C133.163 17.6909 132.056 16.4184 132.033 14.5334H129.488C129.535 17.8088 131.75 20.0237 134.86 20.0237C137.947 20.0237 140.208 17.9029 140.208 14.7455C140.208 11.7294 138.819 10.3156 135.048 9.11388C133.352 8.57191 132.528 7.86501 132.528 6.63972C132.528 5.36731 133.635 4.25983 134.86 4.25983C136.297 4.25983 137.31 5.20236 137.31 6.7811H139.855ZM145.715 19.6938V8.87827H147.86V6.63972H145.715V2.25695H143.265V6.63972H141.497V8.87827H143.265V19.6938H145.715ZM161.299 19.6938V6.63972H158.848V13.6851C158.848 16.2064 157.694 17.7852 155.431 17.7852C153.193 17.7852 152.179 16.4656 152.179 13.7323V6.63972H149.729V13.9208C149.729 18.5156 152.368 20.0237 155.172 20.0237C156.892 20.0237 158.376 19.3874 159.013 18.28H159.06V19.6938H161.299ZM175.461 13.2845C175.461 15.7587 173.387 17.7852 170.913 17.7852C168.463 17.7852 166.46 15.6409 166.46 13.1903C166.46 10.622 168.415 8.52478 170.913 8.52478C173.67 8.52478 175.461 10.622 175.461 13.2845ZM177.723 19.6938V2.25695H175.272V8.24203H175.225C174.165 6.92248 172.491 6.28627 170.724 6.28627C166.836 6.28627 164.009 9.32591 164.009 13.3081C164.009 17.149 167.001 20.0237 170.795 20.0237C172.704 20.0237 174.401 19.2461 175.414 17.8323H175.461V19.6938H177.723ZM183.555 5.13167V2.25695H181.104V5.13167H183.555ZM183.555 19.6938V6.63972H181.104V19.6938H183.555ZM200.362 13.261C200.409 9.11388 197.016 6.28627 193.411 6.28627C189.405 6.28627 186.271 9.23164 186.271 13.2139C186.271 16.8898 189.547 20.0237 193.222 20.0237C197.393 20.0237 200.315 16.7483 200.362 13.261ZM197.911 13.1196C197.911 15.7587 195.814 17.7852 193.246 17.7852C190.772 17.7852 188.722 15.6173 188.722 13.1432C188.722 10.5984 190.843 8.52478 193.293 8.52478C195.861 8.52478 197.911 10.5748 197.911 13.1196Z" fill="#182640"/>
<path d="M47.1881 30.634H44.9266V29.7212H47.1881C47.6262 29.7212 47.9808 29.6515 48.2521 29.5119C48.5234 29.3724 48.7211 29.1786 48.8451 28.9306C48.973 28.6825 49.037 28.3996 49.037 28.0817C49.037 27.791 48.973 27.5179 48.8451 27.262C48.7211 27.0062 48.5234 26.8008 48.2521 26.6458C47.9808 26.4868 47.6262 26.4074 47.1881 26.4074H45.1882V33.9537H44.0662V25.4888H47.1881C47.8277 25.4888 48.3683 25.5992 48.8102 25.8202C49.2521 26.0411 49.5874 26.3473 49.8161 26.7388C50.0447 27.1263 50.159 27.5701 50.159 28.0701C50.159 28.6127 50.0447 29.0759 49.8161 29.4596C49.5874 29.8433 49.2521 30.1359 48.8102 30.3375C48.3683 30.5352 47.8277 30.634 47.1881 30.634ZM51.1677 30.8781V30.7445C51.1677 30.291 51.2335 29.8705 51.3652 29.4829C51.4971 29.0914 51.6869 28.7523 51.9351 28.4654C52.1831 28.1747 52.4834 27.95 52.8361 27.791C53.1889 27.6283 53.5842 27.5468 54.0222 27.5468C54.464 27.5468 54.8613 27.6283 55.214 27.791C55.5706 27.95 55.8729 28.1747 56.1209 28.4654C56.3729 28.7523 56.5647 29.0914 56.6966 29.4829C56.8283 29.8705 56.8942 30.291 56.8942 30.7445V30.8781C56.8942 31.3317 56.8283 31.7522 56.6966 32.1398C56.5647 32.5274 56.3729 32.8665 56.1209 33.1572C55.8729 33.444 55.5726 33.6688 55.2199 33.8316C54.871 33.9905 54.4757 34.0699 54.0338 34.0699C53.592 34.0699 53.1947 33.9905 52.842 33.8316C52.4893 33.6688 52.187 33.444 51.9351 33.1572C51.6869 32.8665 51.4971 32.5274 51.3652 32.1398C51.2335 31.7522 51.1677 31.3317 51.1677 30.8781ZM52.2432 30.7445V30.8781C52.2432 31.1921 52.28 31.4886 52.3536 31.7677C52.4273 32.0428 52.5377 32.287 52.685 32.5002C52.8361 32.7134 53.0242 32.882 53.2489 33.006C53.4738 33.1262 53.7354 33.1863 54.0338 33.1863C54.3283 33.1863 54.5861 33.1262 54.8071 33.006C55.0318 32.882 55.2179 32.7134 55.3652 32.5002C55.5125 32.287 55.6229 32.0428 55.6966 31.7677C55.7741 31.4886 55.8128 31.1921 55.8128 30.8781V30.7445C55.8128 30.4344 55.7741 30.1417 55.6966 29.8666C55.6229 29.5875 55.5106 29.3414 55.3594 29.1282C55.2121 28.9111 55.026 28.7406 54.8012 28.6166C54.5803 28.4926 54.3206 28.4306 54.0222 28.4306C53.7276 28.4306 53.4679 28.4926 53.2432 28.6166C53.0222 28.7406 52.8361 28.9111 52.685 29.1282C52.5377 29.3414 52.4273 29.5875 52.3536 29.8666C52.28 30.1417 52.2432 30.4344 52.2432 30.7445ZM59.9551 32.8374L61.5713 27.6632H62.2805L62.141 28.6922L60.4957 33.9537H59.8039L59.9551 32.8374ZM58.8679 27.6632L60.2458 32.8956L60.3446 33.9537H59.6179L57.7923 27.6632H58.8679ZM63.827 32.8548L65.141 27.6632H66.2108L64.3852 33.9537H63.6643L63.827 32.8548ZM62.4376 27.6632L64.0189 32.7502L64.1991 33.9537H63.5131L61.8213 28.6805L61.6817 27.6632H62.4376ZM70.0448 34.0699C69.6069 34.0699 69.2096 33.9964 68.853 33.849C68.5003 33.6979 68.196 33.4866 67.9402 33.2154C67.6883 32.944 67.4945 32.6223 67.3588 32.2503C67.2231 31.8782 67.1554 31.4712 67.1554 31.0293V30.7851C67.1554 30.2735 67.2309 29.8181 67.3821 29.4189C67.5333 29.0158 67.7387 28.6748 67.9984 28.3957C68.2581 28.1167 68.5526 27.9054 68.882 27.7619C69.2115 27.6186 69.5526 27.5468 69.9053 27.5468C70.3548 27.5468 70.7425 27.6243 71.068 27.7795C71.3975 27.9345 71.6669 28.1515 71.8762 28.4306C72.0854 28.7058 72.2405 29.0313 72.3413 29.4073C72.442 29.7794 72.4924 30.1863 72.4924 30.6282V31.1108H67.7949V30.2328H71.4169V30.1514C71.4014 29.8724 71.3432 29.6011 71.2424 29.3375C71.1456 29.074 70.9905 28.8569 70.7773 28.6864C70.5642 28.5159 70.2735 28.4306 69.9053 28.4306C69.6611 28.4306 69.4363 28.4829 69.2309 28.5875C69.0255 28.6883 68.8491 28.8395 68.7018 29.041C68.5545 29.2426 68.4402 29.4887 68.3588 29.7794C68.2774 30.0701 68.2367 30.4054 68.2367 30.7851V31.0293C68.2367 31.3278 68.2774 31.6088 68.3588 31.8723C68.4441 32.132 68.5662 32.3607 68.7251 32.5584C68.8879 32.7561 69.0836 32.9111 69.3122 33.0235C69.5449 33.1359 69.8084 33.1921 70.1029 33.1921C70.4828 33.1921 70.8045 33.1145 71.068 32.9595C71.3316 32.8045 71.5622 32.5971 71.7599 32.3375L72.411 32.8548C72.2754 33.0603 72.1029 33.256 71.8936 33.4421C71.6843 33.6281 71.4265 33.7793 71.1203 33.8955C70.8181 34.0119 70.4595 34.0699 70.0448 34.0699ZM74.9428 28.6515V33.9537H73.8673V27.6632H74.9137L74.9428 28.6515ZM76.9079 27.6283L76.9021 28.6283C76.8129 28.6089 76.7276 28.5972 76.6463 28.5934C76.5687 28.5856 76.4796 28.5817 76.3789 28.5817C76.1308 28.5817 75.9118 28.6205 75.7219 28.698C75.532 28.7755 75.3711 28.8841 75.2393 29.0236C75.1076 29.1631 75.0029 29.3298 74.9254 29.5235C74.8517 29.7135 74.8033 29.9228 74.7801 30.1514L74.4777 30.3258C74.4777 29.9461 74.5145 29.5894 74.5882 29.2562C74.6657 28.9228 74.7839 28.6283 74.9428 28.3724C75.1017 28.1127 75.3033 27.9112 75.5475 27.7678C75.7955 27.6205 76.0901 27.5468 76.4311 27.5468C76.5087 27.5468 76.5978 27.5566 76.6986 27.5759C76.7993 27.5914 76.8692 27.6088 76.9079 27.6283ZM80.5152 34.0699C80.0773 34.0699 79.68 33.9964 79.3234 33.849C78.9707 33.6979 78.6665 33.4866 78.4106 33.2154C78.1588 32.944 77.9649 32.6223 77.8293 32.2503C77.6936 31.8782 77.6258 31.4712 77.6258 31.0293V30.7851C77.6258 30.2735 77.7014 29.8181 77.8526 29.4189C78.0036 29.0158 78.2091 28.6748 78.4688 28.3957C78.7285 28.1167 79.023 27.9054 79.3524 27.7619C79.6819 27.6186 80.023 27.5468 80.3757 27.5468C80.8253 27.5468 81.2129 27.6243 81.5385 27.7795C81.8679 27.9345 82.1373 28.1515 82.3465 28.4306C82.5559 28.7058 82.7109 29.0313 82.8117 29.4073C82.9124 29.7794 82.9629 30.1863 82.9629 30.6282V31.1108H78.2652V30.2328H81.8872V30.1514C81.8717 29.8724 81.8137 29.6011 81.7129 29.3375C81.616 29.074 81.461 28.8569 81.2478 28.6864C81.0346 28.5159 80.7439 28.4306 80.3757 28.4306C80.1315 28.4306 79.9067 28.4829 79.7013 28.5875C79.4959 28.6883 79.3195 28.8395 79.1723 29.041C79.025 29.2426 78.9107 29.4887 78.8292 29.7794C78.7478 30.0701 78.7071 30.4054 78.7071 30.7851V31.0293C78.7071 31.3278 78.7478 31.6088 78.8292 31.8723C78.9145 32.132 79.0366 32.3607 79.1955 32.5584C79.3583 32.7561 79.554 32.9111 79.7827 33.0235C80.0152 33.1359 80.2788 33.1921 80.5734 33.1921C80.9532 33.1921 81.2749 33.1145 81.5385 32.9595C81.802 32.8045 82.0326 32.5971 82.2303 32.3375L82.8814 32.8548C82.7458 33.0603 82.5733 33.256 82.3641 33.4421C82.1547 33.6281 81.897 33.7793 81.5908 33.8955C81.2884 34.0119 80.9299 34.0699 80.5152 34.0699ZM88.3027 32.7328V25.0237H89.3841V33.9537H88.3957L88.3027 32.7328ZM84.0702 30.8781V30.7561C84.0702 30.2755 84.1284 29.8395 84.2447 29.448C84.3649 29.0527 84.5335 28.7135 84.7505 28.4306C84.9714 28.1477 85.233 27.9305 85.5353 27.7795C85.8415 27.6243 86.1826 27.5468 86.5586 27.5468C86.9539 27.5468 87.2989 27.6166 87.5934 27.7562C87.8919 27.8918 88.1438 28.0914 88.3492 28.355C88.5585 28.6147 88.7233 28.9286 88.8434 29.2968C88.9635 29.665 89.0469 30.0817 89.0934 30.5468V31.0817C89.0508 31.5429 88.9675 31.9576 88.8434 32.3258C88.7233 32.694 88.5585 33.0079 88.3492 33.2676C88.1438 33.5273 87.8919 33.7269 87.5934 33.8665C87.295 34.0021 86.9462 34.0699 86.547 34.0699C86.1787 34.0699 85.8415 33.9905 85.5353 33.8316C85.233 33.6727 84.9714 33.4498 84.7505 33.163C84.5335 32.8762 84.3649 32.539 84.2447 32.1514C84.1284 31.7599 84.0702 31.3355 84.0702 30.8781ZM85.1516 30.7561V30.8781C85.1516 31.1921 85.1826 31.4867 85.2446 31.7619C85.3105 32.0371 85.4113 32.2793 85.547 32.4886C85.6827 32.6979 85.8551 32.8626 86.0644 32.9828C86.2737 33.099 86.5237 33.1572 86.8143 33.1572C87.171 33.1572 87.4636 33.0816 87.6923 32.9304C87.9248 32.7793 88.1109 32.5797 88.2504 32.3316C88.3899 32.0836 88.4984 31.8142 88.5759 31.5236V30.1224C88.5294 29.9092 88.4617 29.7038 88.3725 29.5061C88.2872 29.3046 88.1748 29.1263 88.0353 28.9712C87.8996 28.8124 87.731 28.6864 87.5295 28.5934C87.3318 28.5004 87.0973 28.4538 86.826 28.4538C86.5314 28.4538 86.2775 28.5159 86.0644 28.6399C85.8551 28.76 85.6827 28.9267 85.547 29.1398C85.4113 29.3492 85.3105 29.5934 85.2446 29.8724C85.1826 30.1476 85.1516 30.4421 85.1516 30.7561ZM94.2442 25.0237H95.3256V32.7328L95.2325 33.9537H94.2442V25.0237ZM99.5757 30.7561V30.8781C99.5757 31.3355 99.5208 31.7599 99.413 32.1514C99.3042 32.539 99.1453 32.8762 98.9363 33.163C98.7264 33.4498 98.4713 33.6727 98.1689 33.8316C97.8666 33.9905 97.519 34.0699 97.128 34.0699C96.7284 34.0699 96.3779 34.0021 96.0755 33.8665C95.7771 33.7269 95.5252 33.5273 95.3197 33.2676C95.1143 33.0079 94.9496 32.694 94.8256 32.3258C94.7054 31.9576 94.6221 31.5429 94.5756 31.0817V30.5468C94.6221 30.0817 94.7054 29.665 94.8256 29.2968C94.9496 28.9286 95.1143 28.6147 95.3197 28.355C95.5252 28.0914 95.7771 27.8918 96.0755 27.7562C96.3741 27.6166 96.7207 27.5468 97.1165 27.5468C97.5113 27.5468 97.8627 27.6243 98.1689 27.7795C98.4751 27.9305 98.7303 28.1477 98.9363 28.4306C99.1453 28.7135 99.3042 29.0527 99.413 29.448C99.5208 29.8395 99.5757 30.2755 99.5757 30.7561ZM98.4944 30.8781V30.7561C98.4944 30.4421 98.4655 30.1476 98.4068 29.8724C98.349 29.5934 98.2556 29.3492 98.1275 29.1398C97.9994 28.9267 97.8309 28.76 97.622 28.6399C97.413 28.5159 97.155 28.4538 96.8488 28.4538C96.5773 28.4538 96.3414 28.5004 96.1391 28.5934C95.9418 28.6864 95.7733 28.8124 95.6337 28.9712C95.4942 29.1263 95.3798 29.3046 95.2907 29.5061C95.2054 29.7038 95.1415 29.9092 95.0988 30.1224V31.5236C95.1609 31.7948 95.2616 32.0564 95.4011 32.3084C95.5446 32.5564 95.7344 32.7599 95.9709 32.9188C96.2114 33.0778 96.5079 33.1572 96.8603 33.1572C97.1511 33.1572 97.3996 33.099 97.6047 32.9828C97.8136 32.8626 97.9821 32.6979 98.1102 32.4886C98.2421 32.2793 98.3393 32.0371 98.401 31.7619C98.4626 31.4867 98.4944 31.1921 98.4944 30.8781ZM102.752 33.3025L104.503 27.6632H105.653L103.131 34.9246C103.072 35.0796 102.995 35.2463 102.898 35.4246C102.805 35.6068 102.685 35.7792 102.538 35.942C102.39 36.1048 102.212 36.2366 102.002 36.3373C101.797 36.442 101.551 36.4943 101.265 36.4943C101.179 36.4943 101.07 36.4827 100.939 36.4594C100.807 36.4362 100.714 36.4168 100.66 36.4013L100.654 35.5293C100.685 35.5331 100.733 35.537 100.8 35.5408C100.869 35.5486 100.917 35.5525 100.945 35.5525C101.189 35.5525 101.396 35.5195 101.567 35.4537C101.737 35.3917 101.881 35.2851 101.996 35.1339C102.117 34.9866 102.22 34.7831 102.305 34.5234L102.752 33.3025ZM101.468 27.6632L103.102 32.5467L103.38 33.6804L102.607 34.0758L100.293 27.6632H101.468ZM114.491 31.8142C114.491 31.6166 114.459 31.4421 114.397 31.2909C114.34 31.1359 114.235 30.9964 114.084 30.8724C113.936 30.7483 113.731 30.6301 113.467 30.5177C113.207 30.4054 112.878 30.291 112.478 30.1747C112.061 30.0507 111.682 29.9131 111.345 29.762C111.008 29.6069 110.719 29.4305 110.478 29.2329C110.239 29.0352 110.055 28.8085 109.927 28.5527C109.799 28.2968 109.735 28.0042 109.735 27.6748C109.735 27.3453 109.803 27.041 109.938 26.762C110.074 26.4829 110.268 26.2407 110.52 26.0353C110.775 25.826 111.079 25.6632 111.433 25.5469C111.785 25.4307 112.179 25.3725 112.612 25.3725C113.248 25.3725 113.787 25.4946 114.229 25.7388C114.675 25.9791 115.014 26.295 115.246 26.6864C115.479 27.0741 115.595 27.4888 115.595 27.9305H114.478C114.478 27.6128 114.411 27.3317 114.275 27.0875C114.139 26.8395 113.934 26.6458 113.659 26.5062C113.384 26.3628 113.035 26.2911 112.612 26.2911C112.214 26.2911 111.884 26.3511 111.624 26.4713C111.364 26.5915 111.171 26.7543 111.043 26.9597C110.919 27.1651 110.857 27.3996 110.857 27.6632C110.857 27.8415 110.893 28.0042 110.968 28.1515C111.045 28.2949 111.163 28.4286 111.322 28.5527C111.485 28.6767 111.69 28.791 111.938 28.8956C112.19 29.0003 112.491 29.1011 112.839 29.198C113.32 29.3337 113.735 29.4848 114.084 29.6515C114.432 29.8181 114.719 30.0061 114.944 30.2154C115.173 30.4209 115.341 30.6553 115.45 30.9189C115.563 31.1786 115.618 31.4731 115.618 31.8026C115.618 32.1475 115.548 32.4596 115.409 32.7386C115.27 33.0177 115.07 33.256 114.811 33.4537C114.551 33.6513 114.239 33.8044 113.875 33.913C113.514 34.0176 113.111 34.0699 112.665 34.0699C112.273 34.0699 111.888 34.0157 111.508 33.9072C111.132 33.7987 110.789 33.6358 110.478 33.4188C110.172 33.2018 109.927 32.9343 109.741 32.6165C109.558 32.2948 109.467 31.9228 109.467 31.5003H110.583C110.583 31.791 110.639 32.0409 110.752 32.2503C110.865 32.4556 111.018 32.6262 111.211 32.7618C111.409 32.8975 111.632 32.9983 111.88 33.0642C112.132 33.1262 112.394 33.1572 112.665 33.1572C113.056 33.1572 113.387 33.1029 113.659 32.9944C113.93 32.8859 114.136 32.7308 114.275 32.5293C114.419 32.3278 114.491 32.0894 114.491 31.8142ZM120.714 32.8782V29.6399C120.714 29.3918 120.664 29.1767 120.563 28.9945C120.466 28.8085 120.318 28.665 120.121 28.5643C119.923 28.4635 119.679 28.4131 119.388 28.4131C119.118 28.4131 118.879 28.4597 118.674 28.5527C118.471 28.6457 118.313 28.7678 118.197 28.9189C118.084 29.0701 118.028 29.2328 118.028 29.4073H116.952C116.952 29.1825 117.011 28.9596 117.127 28.7387C117.243 28.5178 117.409 28.3182 117.627 28.1399C117.847 27.9577 118.111 27.8143 118.417 27.7097C118.728 27.6011 119.072 27.5468 119.453 27.5468C119.91 27.5468 120.312 27.6243 120.662 27.7795C121.014 27.9345 121.29 28.169 121.487 28.4829C121.688 28.793 121.79 29.1825 121.79 29.6515V32.5816C121.79 32.7909 121.807 33.0138 121.842 33.2502C121.881 33.4866 121.937 33.6902 122.01 33.8607V33.9537H120.888C120.834 33.8297 120.792 33.6649 120.76 33.4595C120.729 33.2502 120.714 33.0564 120.714 32.8782ZM120.9 30.1398L120.911 30.8957H119.824C119.518 30.8957 119.245 30.9208 119.005 30.9712C118.764 31.0178 118.563 31.0894 118.4 31.1864C118.237 31.2832 118.113 31.4053 118.028 31.5525C117.943 31.696 117.9 31.8646 117.9 32.0583C117.9 32.256 117.945 32.4363 118.034 32.5991C118.123 32.7618 118.257 32.8917 118.435 32.9886C118.617 33.0816 118.84 33.1281 119.104 33.1281C119.433 33.1281 119.724 33.0584 119.975 32.9188C120.228 32.7793 120.427 32.6087 120.574 32.4072C120.726 32.2057 120.807 32.0099 120.819 31.82L121.278 32.3375C121.251 32.5002 121.177 32.6805 121.057 32.8782C120.936 33.0758 120.776 33.2657 120.574 33.4479C120.377 33.6262 120.14 33.7754 119.865 33.8955C119.594 34.0119 119.288 34.0699 118.946 34.0699C118.521 34.0699 118.146 33.9866 117.824 33.82C117.507 33.6533 117.258 33.4305 117.08 33.1514C116.906 32.8684 116.819 32.5526 116.819 32.2037C116.819 31.8665 116.885 31.5701 117.016 31.3142C117.148 31.0545 117.338 30.8394 117.587 30.6689C117.834 30.4944 118.132 30.3627 118.481 30.2735C118.831 30.1844 119.22 30.1398 119.65 30.1398H120.9ZM124.67 28.9131V33.9537H123.589V27.6632H124.612L124.67 28.9131ZM124.449 30.57L123.949 30.5526C123.953 30.1224 124.009 29.7251 124.118 29.3608C124.227 28.9926 124.387 28.6728 124.6 28.4015C124.814 28.1302 125.079 27.9209 125.396 27.7736C125.714 27.6224 126.083 27.5468 126.502 27.5468C126.797 27.5468 127.067 27.5895 127.316 27.6748C127.564 27.7562 127.779 27.886 127.961 28.0643C128.143 28.2426 128.284 28.4713 128.385 28.7503C128.486 29.0294 128.536 29.3666 128.536 29.762V33.9537H127.461V29.8142C127.461 29.4848 127.404 29.2213 127.292 29.0236C127.184 28.8259 127.029 28.6825 126.827 28.5934C126.625 28.5004 126.389 28.4538 126.118 28.4538C125.8 28.4538 125.534 28.51 125.321 28.6224C125.109 28.7348 124.937 28.8899 124.81 29.0876C124.682 29.2852 124.589 29.5119 124.531 29.7677C124.476 30.0197 124.449 30.2871 124.449 30.57ZM128.525 29.9771L127.804 30.198C127.808 29.853 127.863 29.5216 127.972 29.2038C128.085 28.886 128.246 28.603 128.455 28.355C128.668 28.1069 128.929 27.9112 129.239 27.7678C129.549 27.6205 129.905 27.5468 130.303 27.5468C130.641 27.5468 130.94 27.5914 131.199 27.6806C131.463 27.7697 131.683 27.9073 131.862 28.0934C132.044 28.2755 132.182 28.51 132.274 28.7969C132.368 29.0837 132.414 29.4248 132.414 29.8201V33.9537H131.333V29.8085C131.333 29.4558 131.277 29.1825 131.164 28.9887C131.055 28.791 130.9 28.6535 130.699 28.5759C130.502 28.4945 130.265 28.4538 129.989 28.4538C129.754 28.4538 129.544 28.4945 129.362 28.5759C129.18 28.6573 129.027 28.7697 128.902 28.9131C128.778 29.0527 128.684 29.2135 128.617 29.3957C128.556 29.5779 128.525 29.7716 128.525 29.9771ZM134.155 25.0237H135.236V32.7328L135.144 33.9537H134.155V25.0237ZM139.486 30.7561V30.8781C139.486 31.3355 139.433 31.7599 139.324 32.1514C139.215 32.539 139.056 32.8762 138.847 33.163C138.638 33.4498 138.382 33.6727 138.08 33.8316C137.777 33.9905 137.431 34.0699 137.039 34.0699C136.64 34.0699 136.289 34.0021 135.986 33.8665C135.688 33.7269 135.437 33.5273 135.23 33.2676C135.025 33.0079 134.861 32.694 134.737 32.3258C134.616 31.9576 134.533 31.5429 134.487 31.0817V30.5468C134.533 30.0817 134.616 29.665 134.737 29.2968C134.861 28.9286 135.025 28.6147 135.23 28.355C135.437 28.0914 135.688 27.8918 135.986 27.7562C136.285 27.6166 136.631 27.5468 137.027 27.5468C137.423 27.5468 137.773 27.6243 138.08 27.7795C138.386 27.9305 138.642 28.1477 138.847 28.4306C139.056 28.7135 139.215 29.0527 139.324 29.448C139.433 29.8395 139.486 30.2755 139.486 30.7561ZM138.405 30.8781V30.7561C138.405 30.4421 138.376 30.1476 138.317 29.8724C138.26 29.5934 138.166 29.3492 138.039 29.1398C137.911 28.9267 137.743 28.76 137.533 28.6399C137.324 28.5159 137.066 28.4538 136.76 28.4538C136.489 28.4538 136.252 28.5004 136.051 28.5934C135.852 28.6864 135.684 28.8124 135.544 28.9712C135.405 29.1263 135.291 29.3046 135.202 29.5061C135.117 29.7038 135.052 29.9092 135.01 30.1224V31.5236C135.072 31.7948 135.173 32.0564 135.312 32.3084C135.456 32.5564 135.645 32.7599 135.882 32.9188C136.122 33.0778 136.419 33.1572 136.771 33.1572C137.062 33.1572 137.31 33.099 137.515 32.9828C137.725 32.8626 137.894 32.6979 138.022 32.4886C138.153 32.2793 138.25 32.0371 138.312 31.7619C138.374 31.4867 138.405 31.1921 138.405 30.8781ZM144.675 32.8782V29.6399C144.675 29.3918 144.624 29.1767 144.524 28.9945C144.427 28.8085 144.28 28.665 144.082 28.5643C143.885 28.4635 143.64 28.4131 143.35 28.4131C143.078 28.4131 142.84 28.4597 142.634 28.5527C142.433 28.6457 142.274 28.7678 142.157 28.9189C142.046 29.0701 141.989 29.2328 141.989 29.4073H140.913C140.913 29.1825 140.972 28.9596 141.088 28.7387C141.204 28.5178 141.371 28.3182 141.588 28.1399C141.809 27.9577 142.073 27.8143 142.379 27.7097C142.689 27.6011 143.034 27.5468 143.414 27.5468C143.871 27.5468 144.274 27.6243 144.622 27.7795C144.976 27.9345 145.251 28.169 145.449 28.4829C145.65 28.793 145.751 29.1825 145.751 29.6515V32.5816C145.751 32.7909 145.768 33.0138 145.803 33.2502C145.842 33.4866 145.898 33.6902 145.971 33.8607V33.9537H144.85C144.796 33.8297 144.752 33.6649 144.722 33.4595C144.691 33.2502 144.675 33.0564 144.675 32.8782ZM144.861 30.1398L144.873 30.8957H143.786C143.48 30.8957 143.206 30.9208 142.966 30.9712C142.726 31.0178 142.524 31.0894 142.362 31.1864C142.199 31.2832 142.075 31.4053 141.989 31.5525C141.904 31.696 141.861 31.8646 141.861 32.0583C141.861 32.256 141.906 32.4363 141.995 32.5991C142.084 32.7618 142.218 32.8917 142.396 32.9886C142.578 33.0816 142.802 33.1281 143.065 33.1281C143.394 33.1281 143.685 33.0584 143.937 32.9188C144.189 32.7793 144.388 32.6087 144.536 32.4072C144.687 32.2057 144.768 32.0099 144.779 31.82L145.239 32.3375C145.212 32.5002 145.139 32.6805 145.018 32.8782C144.898 33.0758 144.737 33.2657 144.536 33.4479C144.338 33.6262 144.102 33.7754 143.826 33.8955C143.555 34.0119 143.248 34.0699 142.908 34.0699C142.481 34.0699 142.107 33.9866 141.786 33.82C141.468 33.6533 141.22 33.4305 141.042 33.1514C140.867 32.8684 140.78 32.5526 140.78 32.2037C140.78 31.8665 140.846 31.5701 140.978 31.3142C141.11 31.0545 141.3 30.8394 141.547 30.6689C141.795 30.4944 142.094 30.3627 142.443 30.2735C142.792 30.1844 143.181 30.1398 143.611 30.1398H144.861ZM154.236 25.4888V33.9537H153.108L148.847 27.4247V33.9537H147.725V25.4888H148.847L153.126 32.0351V25.4888H154.236ZM155.896 30.8781V30.7445C155.896 30.291 155.961 29.8705 156.093 29.4829C156.225 29.0914 156.415 28.7523 156.663 28.4654C156.911 28.1747 157.211 27.95 157.565 27.791C157.917 27.6283 158.312 27.5468 158.75 27.5468C159.192 27.5468 159.59 27.6283 159.942 27.791C160.298 27.95 160.601 28.1747 160.849 28.4654C161.101 28.7523 161.293 29.0914 161.425 29.4829C161.557 29.8705 161.622 30.291 161.622 30.7445V30.8781C161.622 31.3317 161.557 31.7522 161.425 32.1398C161.293 32.5274 161.101 32.8665 160.849 33.1572C160.601 33.444 160.3 33.6688 159.948 33.8316C159.599 33.9905 159.203 34.0699 158.762 34.0699C158.32 34.0699 157.923 33.9905 157.57 33.8316C157.217 33.6688 156.915 33.444 156.663 33.1572C156.415 32.8665 156.225 32.5274 156.093 32.1398C155.961 31.7522 155.896 31.3317 155.896 30.8781ZM156.972 30.7445V30.8781C156.972 31.1921 157.008 31.4886 157.081 31.7677C157.155 32.0428 157.266 32.287 157.413 32.5002C157.565 32.7134 157.752 32.882 157.977 33.006C158.202 33.1262 158.463 33.1863 158.762 33.1863C159.056 33.1863 159.314 33.1262 159.535 33.006C159.76 32.882 159.946 32.7134 160.093 32.5002C160.241 32.287 160.351 32.0428 160.424 31.7677C160.502 31.4886 160.541 31.1921 160.541 30.8781V30.7445C160.541 30.4344 160.502 30.1417 160.424 29.8666C160.351 29.5875 160.239 29.3414 160.087 29.1282C159.94 28.9111 159.754 28.7406 159.529 28.6166C159.308 28.4926 159.048 28.4306 158.75 28.4306C158.455 28.4306 158.196 28.4926 157.971 28.6166C157.75 28.7406 157.565 28.9111 157.413 29.1282C157.266 29.3414 157.155 29.5875 157.081 29.8666C157.008 30.1417 156.972 30.4344 156.972 30.7445ZM164.91 32.9828L166.63 27.6632H167.73L165.468 33.9537H164.747L164.91 32.9828ZM163.474 27.6632L165.247 33.0119L165.369 33.9537H164.649L162.369 27.6632H163.474ZM172.5 32.8782V29.6399C172.5 29.3918 172.449 29.1767 172.349 28.9945C172.252 28.8085 172.104 28.665 171.907 28.5643C171.709 28.4635 171.465 28.4131 171.174 28.4131C170.903 28.4131 170.665 28.4597 170.459 28.5527C170.257 28.6457 170.099 28.7678 169.982 28.9189C169.869 29.0701 169.814 29.2328 169.814 29.4073H168.738C168.738 29.1825 168.796 28.9596 168.912 28.7387C169.029 28.5178 169.195 28.3182 169.412 28.1399C169.633 27.9577 169.897 27.8143 170.204 27.7097C170.514 27.6011 170.858 27.5468 171.238 27.5468C171.695 27.5468 172.098 27.6243 172.447 27.7795C172.8 27.9345 173.075 28.169 173.273 28.4829C173.474 28.793 173.576 29.1825 173.576 29.6515V32.5816C173.576 32.7909 173.593 33.0138 173.628 33.2502C173.666 33.4866 173.723 33.6902 173.796 33.8607V33.9537H172.674C172.619 33.8297 172.577 33.6649 172.546 33.4595C172.515 33.2502 172.5 33.0564 172.5 32.8782ZM172.686 30.1398L172.697 30.8957H171.61C171.304 30.8957 171.031 30.9208 170.79 30.9712C170.55 31.0178 170.349 31.0894 170.186 31.1864C170.023 31.2832 169.899 31.4053 169.814 31.5525C169.729 31.696 169.686 31.8646 169.686 32.0583C169.686 32.256 169.731 32.4363 169.819 32.5991C169.909 32.7618 170.043 32.8917 170.221 32.9886C170.403 33.0816 170.625 33.1281 170.889 33.1281C171.218 33.1281 171.509 33.0584 171.761 32.9188C172.013 32.7793 172.213 32.6087 172.36 32.4072C172.512 32.2057 172.592 32.0099 172.604 31.82L173.063 32.3375C173.036 32.5002 172.963 32.6805 172.843 32.8782C172.722 33.0758 172.562 33.2657 172.36 33.4479C172.162 33.6262 171.926 33.7754 171.651 33.8955C171.379 34.0119 171.073 34.0699 170.732 34.0699C170.306 34.0699 169.932 33.9866 169.61 33.82C169.293 33.6533 169.044 33.4305 168.866 33.1514C168.692 32.8684 168.604 32.5526 168.604 32.2037C168.604 31.8665 168.671 31.5701 168.803 31.3142C168.933 31.0545 169.124 30.8394 169.372 30.6689C169.62 30.4944 169.919 30.3627 170.267 30.2735C170.616 30.1844 171.006 30.1398 171.436 30.1398H172.686Z" fill="#182640"/>
</svg>
