<?xml version="1.0" encoding="utf-8"?>
<!-- Generator: Adobe Illustrator 23.0.1, SVG Export Plug-In . SVG Version: 6.00 Build 0)  -->
<svg version="1.1" id="Layer_1" xmlns="http://www.w3.org/2000/svg" xmlns:xlink="http://www.w3.org/1999/xlink" x="0px" y="0px"
	 viewBox="0 0 1000 1000" style="enable-background:new 0 0 1000 1000;" xml:space="preserve">
<style type="text/css">
	.st0{fill-rule:evenodd;clip-rule:evenodd;fill:#B8BABC;}
	.st1{fill:#B8BABC;}
	.st2{fill:#27AAE1;}
	.st3{fill:#111011;}
	.st4{fill-rule:evenodd;clip-rule:evenodd;fill:#27AAE1;}
	.st5{fill-rule:evenodd;clip-rule:evenodd;fill:#111011;}
	.st6{fill-rule:evenodd;clip-rule:evenodd;fill:#020202;}
	.st7{fill:#020202;}
	.st8{fill:#FFFFFF;}
	.st9{fill-rule:evenodd;clip-rule:evenodd;fill:#191717;}
	.st10{fill:#191717;}
	.st11{fill-rule:evenodd;clip-rule:evenodd;fill:#FFFFFF;}
</style>
<path class="st5" d="M0,0h1000v1000H0V0z"/>
<g>
	<path class="st11" d="M500,322.5c-100.5,0-182,81.5-182,182c0,80.4,52.1,148.6,124.5,172.7c9.1,1.7,12.4-3.9,12.4-8.8
		c0-4.3-0.2-18.7-0.2-33.9c-50.6,11-61.3-21.5-61.3-21.5c-8.3-21-20.2-26.6-20.2-26.6c-16.5-11.3,1.2-11.1,1.2-11.1
		c18.3,1.3,27.9,18.8,27.9,18.8c16.2,27.8,42.6,19.8,53,15.1c1.6-11.8,6.3-19.8,11.6-24.3c-40.4-4.6-82.9-20.2-82.9-89.9
		c0-19.9,7.1-36.1,18.8-48.8c-1.9-4.6-8.1-23.1,1.8-48.2c0,0,15.3-4.9,50.1,18.7c14.5-4,30.1-6.1,45.6-6.1c15.5,0.1,31,2.1,45.6,6.1
		c34.7-23.5,50-18.7,50-18.7c9.9,25.1,3.7,43.6,1.8,48.2c11.7,12.7,18.7,29,18.7,48.8c0,69.9-42.6,85.3-83.1,89.8
		c6.5,5.6,12.3,16.7,12.3,33.7c0,24.3-0.2,43.9-0.2,49.9c0,4.8,3.3,10.5,12.5,8.7C629.9,653.1,682,584.9,682,504.5
		C682,404,600.5,322.5,500,322.5z"/>
	<path class="st8" d="M386.9,583.8c-0.4,0.9-1.8,1.2-3.1,0.6c-1.3-0.6-2.1-1.8-1.6-2.7c0.4-0.9,1.8-1.2,3.1-0.6
		C386.6,581.6,387.4,582.9,386.9,583.8L386.9,583.8z M384.7,582.1"/>
	<path class="st8" d="M394.3,592c-0.9,0.8-2.6,0.4-3.7-0.8c-1.2-1.3-1.4-3-0.5-3.8c0.9-0.8,2.5-0.4,3.7,0.8
		C395,589.5,395.2,591.2,394.3,592L394.3,592z M392.6,590.2"/>
	<path class="st8" d="M401.5,602.5c-1.1,0.8-2.9,0.1-4.1-1.6c-1.1-1.6-1.1-3.6,0-4.3c1.1-0.8,2.9-0.1,4.1,1.5
		C402.6,599.8,402.6,601.7,401.5,602.5L401.5,602.5z M401.5,602.5"/>
	<path class="st8" d="M411.3,612.6c-1,1.1-3.1,0.8-4.7-0.7c-1.6-1.5-2-3.5-1-4.6c1-1.1,3.1-0.8,4.7,0.7
		C411.9,609.4,412.4,611.5,411.3,612.6L411.3,612.6z M411.3,612.6"/>
	<path class="st8" d="M424.9,618.5c-0.4,1.4-2.5,2.1-4.5,1.5c-2.1-0.6-3.4-2.3-3-3.7c0.4-1.4,2.5-2.1,4.6-1.5
		C424,615.4,425.3,617.1,424.9,618.5L424.9,618.5z M424.9,618.5"/>
	<path class="st8" d="M439.8,619.6c0.1,1.5-1.7,2.7-3.9,2.8c-2.2,0.1-3.9-1.2-4-2.6c0-1.5,1.7-2.7,3.9-2.8
		C438,616.9,439.8,618.1,439.8,619.6L439.8,619.6z M439.8,619.6"/>
	<path class="st8" d="M453.6,617.2c0.3,1.5-1.2,3-3.4,3.4c-2.1,0.4-4.1-0.5-4.3-2c-0.3-1.5,1.3-3,3.4-3.4
		C451.4,614.9,453.4,615.7,453.6,617.2L453.6,617.2z M453.6,617.2"/>
</g>
</svg>
