<?xml version="1.0" encoding="utf-8"?>
<!-- Generator: Adobe Illustrator 25.0.0, SVG Export Plug-In . SVG Version: 6.00 Build 0)  -->
<svg version="1.1" xmlns="http://www.w3.org/2000/svg" xmlns:xlink="http://www.w3.org/1999/xlink" x="0px" y="0px"
	 viewBox="0 0 345.07 345.07" style="enable-background:new 0 0 345.07 345.07;" xml:space="preserve">
<style type="text/css">
	.st0{fill:#F6E1DC;}
	.st1{fill:#F0AF9B;}
	.st2{fill:#FFFFFF;}
	.st3{fill:#080717;}
	.st4{fill:none;stroke:#85BAC6;stroke-width:0.4121;stroke-miterlimit:10;}
	.st5{fill:#F2ECDE;}
	.st6{fill:#85BAC6;}
	.st7{fill:#FCDEDE;}
	.st8{fill:#AAD2DC;}
	.st9{fill:#F5F5F5;}
	.st10{fill:#E8EDC5;}
	.st11{fill:#B9D2D7;}
	.st12{fill:#FFFFFF;stroke:#000000;stroke-width:2;stroke-linecap:round;stroke-linejoin:round;stroke-miterlimit:10;}
	.st13{fill:#CEE1E7;}
	.st14{fill:#EDE6E4;}
	.st15{fill:#FDE3EC;}
	.st16{fill:#FDEDE0;}
	.st17{fill:#C7E1E0;}
	.st18{fill:#EFCBBF;}
	.st19{fill:#23285C;}
	.st20{fill:#010101;}
	.st21{fill:#C6E0F5;}
	.st22{fill:#DDD6CC;}
	.st23{fill:#E0E0E0;}
	.st24{fill:#F3F3F3;}
</style>
<g id="Layer_3">
</g>
<g id="_x3C_Layer_x3E_">
	<g>

			<ellipse transform="matrix(0.7071 -0.7071 0.7071 0.7071 -71.4659 172.5338)" class="st14" cx="172.53" cy="172.53" rx="172.53" ry="172.53"/>
		<g>
			<path d="M99.62,328.15c-1.11,0-2.05-0.86-2.13-1.98l-2-27.59c-1.66-22.93,13.32-43.62,35.63-49.2l109.43-27.36
				c20-4.99,40.73,3.42,51.58,20.95l19.63,31.71c0.62,1,0.31,2.32-0.69,2.94c-1,0.62-2.32,0.31-2.94-0.69l-19.63-31.71
				c-9.87-15.94-28.72-23.6-46.91-19.05l-109.43,27.36c-20.29,5.07-33.92,23.89-32.4,44.75l2,27.59c0.08,1.18-0.8,2.2-1.98,2.29
				C99.72,328.15,99.67,328.15,99.62,328.15z"/>
		</g>
		<path d="M232.93,226.57c-19.77,6.59-53.92,17.03-77.57,9.46c-23.65-7.57-64.33-7.57-46.35-29.33c17.97-21.76,29.33-23.65,22.7-35
			c-6.62-11.35-53.92-67.16-1.89-90.81c52.03-23.65,123.92,14.19,142.84,51.08c18.92,36.89-20.81,33.11-13.24,45.41
			c7.57,12.3,19.87,18.92,9.46,28.38C258.47,215.22,247.12,221.84,232.93,226.57z"/>
		<g>
			<path class="st2" d="M174.2,172.89l-0.87,84.26c0,0,39.06,11.67,43.24-22.15c0.09-0.76,6.21-31.2,6.21-31.2
				S227.19,160.3,174.2,172.89z"/>
			<path d="M187.82,261.25c-8.07,0-14.62-1.91-15.09-2.05c-0.91-0.27-1.53-1.12-1.53-2.07l0.87-84.26c0.01-0.98,0.69-1.83,1.64-2.06
				c18.36-4.36,32.17-2.64,41.04,5.13c11.81,10.34,10.23,27.35,10.16,28.07c-2.44,12.18-6.08,30.34-6.22,31.29
				c-1.18,9.56-5.16,16.64-11.83,21C200.98,260.14,193.96,261.25,187.82,261.25z M175.49,255.5c4.71,1.1,19.14,3.7,29.04-2.78
				c5.56-3.64,8.9-9.69,9.92-17.98c0.1-0.78,4.8-24.2,6.24-31.36l0,0c-0.01,0,1.36-15.39-8.78-24.24
				c-7.52-6.57-19.49-8.09-35.59-4.54L175.49,255.5z"/>
		</g>
		<path d="M147.44,93.57c0,0-61.72,10.29-74.32,2.98c-17.48-10.13-17.49-44.57,3.68-51.86C97.96,37.4,133.16,48.97,147.44,93.57z"/>
		<g>
			<path class="st2" d="M184.3,193.63c9.87,8.28,32.74,23.18,48.77,16.58c24.92-10.25,21.57-65.55,14.94-84.8
				c-6.63-19.25-12.65-43.01-56.98-34.21c-44.33,8.8-16.14,28.16-16.14,28.16s1.12,15.76-4.95,20
				C163.86,143.62,131.78,149.58,184.3,193.63z"/>
			<path d="M224.23,214c-18.35,0-38.67-16.53-41.3-18.73c-21.65-18.16-31.55-31.95-30.28-42.17c1.01-8.07,8.64-11.76,13.21-13.97
				c1.21-0.58,2.26-1.09,2.85-1.5c3.49-2.44,4.35-11.4,4.1-17.13c-2.64-2.04-10.22-8.63-8.69-16.08
				c1.45-7.04,10.12-12.05,26.49-15.3c44.35-8.8,52.25,14.49,58.6,33.21l0.82,2.4c7.07,20.55,10.17,76.64-16.15,87.47
				C230.81,213.46,227.55,214,224.23,214z M208.4,91.44c-4.88,0-10.49,0.59-16.96,1.87c-17.82,3.54-22.42,8.46-23.14,11.97
				c-1.22,5.95,7.7,12.27,7.79,12.33c0.54,0.37,0.88,0.96,0.92,1.61c0.12,1.74,1.01,17.11-5.86,21.91
				c-0.87,0.61-2.06,1.18-3.44,1.85c-4.26,2.06-10.1,4.88-10.82,10.65c-0.73,5.88,3.67,17.31,28.78,38.37l0,0
				c10.52,8.82,32.17,22.18,46.58,16.24c22.52-9.26,20.58-62.24,13.74-82.13l-0.83-2.42C239.77,107.79,234.21,91.44,208.4,91.44z"/>
		</g>
		<g>
			<path d="M232.27,163.11c-0.89,0-1.72-0.56-2.02-1.44c-0.38-1.12,0.21-2.33,1.33-2.72c1.82-0.63,3.88-3.36,5.14-5.52
				c-2.04-2.64-6.53-9.45-7.16-19.03c-0.7-10.65,9.58-15.47,15.11-16.53c1.16-0.22,2.28,0.54,2.5,1.7c0.22,1.16-0.53,2.28-1.69,2.5
				l0,0c-0.5,0.1-12.28,2.52-11.65,12.05c0.69,10.63,6.96,17.54,7.02,17.6c0.6,0.65,0.74,1.6,0.35,2.39
				c-0.36,0.74-3.67,7.31-8.23,8.88C232.73,163.08,232.5,163.11,232.27,163.11z"/>
		</g>
		<g>
			<path d="M217.61,174.09c-8.93,0-17.11-9.34-17.52-9.81c-0.77-0.89-0.67-2.24,0.22-3.01c0.89-0.77,2.24-0.67,3.01,0.22
				c0.1,0.11,9.82,11.18,17.53,7.63c1.07-0.49,2.34-0.02,2.83,1.05c0.49,1.07,0.02,2.34-1.05,2.83
				C220.96,173.77,219.27,174.09,217.61,174.09z"/>
		</g>
		<path d="M208.63,136.81c-0.2-3.01-2.12-5.32-4.28-5.18c-2.16,0.15-3.75,2.7-3.55,5.71c0.2,3.01,2.12,5.32,4.28,5.18
			C207.24,142.37,208.83,139.81,208.63,136.81z"/>
		<path d="M245.87,135.56c-0.2-3.01-2.12-5.32-4.28-5.18c-2.16,0.15-3.75,2.7-3.55,5.71c0.2,3.01,2.12,5.32,4.28,5.18
			C244.49,141.12,246.08,138.56,245.87,135.56z"/>
		<path d="M142.4,139.71c0,0.98,0.05,1.95,0.13,2.91c5.69,1.45,11.76,2.27,18.08,2.27c31.73,0,57.46-19.82,57.46-44.26
			c0-6.11-1.61-11.93-4.51-17.23C171.97,92.02,142.4,113.98,142.4,139.71z"/>
		<path class="st2" d="M170.78,153.88c0,8.62-6.99,15.61-15.61,15.61c-8.62,0-15.61-6.99-15.61-15.61c0-8.62,6.99-15.61,15.61-15.61
			C163.79,138.27,170.78,145.26,170.78,153.88z"/>
		<g>
			<path d="M99.31,212.56c-0.86,0-1.68-0.53-2-1.39c-2.15-5.72,1.46-11.73,5.55-15.45c1.19-1.08,2.46-2.08,3.69-3.05
				c2.64-2.09,5.14-4.06,6.74-6.66c2.42-3.94,2.72-9.48,0.81-15.22c-1.46-4.38-3.85-8.33-6.39-12.51c-0.53-0.87-1.06-1.75-1.58-2.62
				c-4.56-7.69-10.66-19.39-10.85-32.2c-0.19-12.87,6.34-24.78,16.26-29.63c1.06-0.52,2.34-0.08,2.86,0.98
				c0.52,1.06,0.08,2.34-0.98,2.86c-9.78,4.78-14.01,16.36-13.87,25.73c0.14,8.98,3.39,18.54,10.25,30.09
				c0.51,0.87,1.04,1.73,1.56,2.59c2.55,4.2,5.18,8.54,6.79,13.38c2.31,6.94,1.86,13.79-1.23,18.8c-2,3.25-4.91,5.55-7.73,7.78
				c-1.22,0.97-2.38,1.88-3.46,2.86c-3.05,2.77-5.82,7.06-4.42,10.78c0.42,1.1-0.14,2.34-1.25,2.75
				C99.81,212.51,99.55,212.56,99.31,212.56z"/>
		</g>
	</g>
</g>
</svg>
