<?xml version="1.0" encoding="utf-8"?>
<!-- Generator: Adobe Illustrator 25.0.0, SVG Export Plug-In . SVG Version: 6.00 Build 0)  -->
<svg version="1.1" xmlns="http://www.w3.org/2000/svg" xmlns:xlink="http://www.w3.org/1999/xlink" x="0px" y="0px"
	 viewBox="0 0 345.07 345.07" style="enable-background:new 0 0 345.07 345.07;" xml:space="preserve">
<style type="text/css">
	.st0{fill:#F5F5F5;}
	.st1{fill:#E8EDC5;}
	.st2{fill:#FFFFFF;}
	.st3{fill:#85BAC6;}
	.st4{fill:#F6E1DC;}
	.st5{fill:#080717;}
	.st6{fill:none;stroke:#080717;stroke-width:2;stroke-linecap:round;stroke-linejoin:round;stroke-miterlimit:10;}
	.st7{fill:#F2ECDE;}
	.st8{fill:#C7E1E0;}
	.st9{fill:#FCDEDE;}
	.st10{fill:#EFCBBF;}
	.st11{fill:#CEE1E7;}
	.st12{fill:#FDEDE0;}
	.st13{fill:#B9D2D7;}
	.st14{fill:#EDE6E4;}
	.st15{fill:#FDE3EC;}
	.st16{fill:#DDD6CC;}
	.st17{fill:#F3F3F3;}
	.st18{fill:#E0D5C1;}
	.st19{fill:none;stroke:#000000;stroke-width:2;stroke-linecap:round;stroke-linejoin:round;stroke-miterlimit:10;}
	.st20{fill:#E0E0E0;}
	.st21{fill:#DBDDC0;}
</style>
<g id="Layer_3">
</g>
<g id="_x3C_Layer_x3E_">
	<g>

			<ellipse transform="matrix(0.7071 -0.7071 0.7071 0.7071 -71.4659 172.5338)" class="st10" cx="172.53" cy="172.53" rx="172.53" ry="172.53"/>
		<g>
			<path d="M66.7,307.55c-0.27,0-0.55-0.05-0.82-0.16c-1.09-0.45-1.61-1.7-1.15-2.79l5.49-13.24
				c13.63-32.86,46.64-53.86,82.21-52.24l82.77,3.76c0.32,0.01,0.63,0.1,0.91,0.25l69.63,36.95c1.04,0.55,1.44,1.85,0.89,2.89
				c-0.55,1.04-1.85,1.44-2.89,0.89l-69.21-36.72l-82.29-3.74c-33.75-1.53-65.12,18.4-78.07,49.61l-5.49,13.24
				C68.33,307.05,67.54,307.55,66.7,307.55z"/>
		</g>
		<path class="st2" d="M225.86,208.06l9.24,36.95l17.05,9.95l-23.6,39.41c-14.85,24.8-52.11,20.03-60.24-7.71l-7.83-26.73
			L225.86,208.06z"/>
		<path d="M168.32,286.67c0.51,1.73,1.13,3.37,1.85,4.92c6.35-4.12,11.99-9.82,16.38-17.16l37.18-62.11l-1.87-1.09l-61.37,48.7
			L168.32,286.67z"/>
		<path d="M217.65,72.93c-26.22-14.43-61.35-8.85-67.22,1.39c-4.95-5.22-11.8-9.17-19.85-10.84c-18.79-3.9-36.88,6.02-40.41,22.16
			c-3.05,13.98,5.84,28.03,20.48,34.08c-4.53,9.44-8.15,19.82-10.57,30.92c-9.67,44.29,61.63,62.8,75.18,65.62
			c36.65,7.61,73.44-18.64,82.18-58.65C266.18,117.61,249.32,90.36,217.65,72.93z"/>

			<ellipse transform="matrix(0.2083 -0.9781 0.9781 0.2083 -29.9131 291.2882)" class="st2" cx="164.97" cy="164.12" rx="99.54" ry="66.55"/>
		<path d="M217.17,84.19c-10.52,1.7-19.17,5.96-24.51,12.87c-15.08,19.49-3.03,66.94,36.76,76.42c2.48,0.59,5.28-0.07,7.51,1.08
			C244.75,138.29,236.37,104.24,217.17,84.19z"/>
		<path d="M109.1,119.18c14.89,8.38,35.33,13.56,57.89,13.56c37.95,0,69.89-14.64,79.48-34.56c-9.86-20.08-25.85-34.28-46.09-38.24
			C165.78,53.17,129.29,78.36,109.1,119.18z"/>

			<ellipse transform="matrix(0.2439 -0.9698 0.9698 0.2439 -10.1893 370.8424)" class="st2" cx="232.73" cy="191.96" rx="27.95" ry="27.95"/>
		<g>
			<path d="M150.88,75.3c-0.78,0-1.54-0.43-1.91-1.18c-5.2-10.36-14.39-15.92-27.32-16.52c-9.92-0.46-18.43,2.3-18.51,2.33
				c-1.12,0.37-2.33-0.24-2.7-1.36c-0.37-1.12,0.24-2.33,1.35-2.7c0.37-0.12,36.87-11.86,51,16.33c0.53,1.05,0.1,2.34-0.95,2.87
				C151.53,75.22,151.2,75.3,150.88,75.3z"/>
		</g>
		<path d="M102.06,172.16c0.7,4.26,3.47,7.35,6.18,6.9c2.71-0.45,4.34-4.26,3.63-8.52c-0.7-4.26-3.47-7.35-6.18-6.9
			C102.98,164.09,101.35,167.9,102.06,172.16z"/>
		<g>
			<path d="M95.12,157.84c-0.82,0-1.61-0.48-1.96-1.28c-0.47-1.08,0.02-2.34,1.1-2.81c8.92-3.91,18.39-2.38,18.79-2.31
				c1.16,0.2,1.95,1.29,1.75,2.46c-0.19,1.16-1.32,1.95-2.46,1.76c-0.09-0.01-8.65-1.37-16.37,2.01
				C95.7,157.79,95.41,157.84,95.12,157.84z"/>
		</g>
		<path d="M143.51,173.34c0.7,4.26,3.47,7.35,6.18,6.9c2.71-0.45,4.34-4.26,3.63-8.52c-0.7-4.26-3.47-7.35-6.18-6.9
			C144.43,165.27,142.8,169.08,143.51,173.34z"/>
		<g>
			<path d="M165.56,163.62c-0.52,0-1.05-0.19-1.46-0.57c-0.11-0.1-11.32-10.41-23.48-7.05c-1.12,0.32-2.31-0.35-2.63-1.49
				c-0.32-1.14,0.35-2.31,1.49-2.63c14.49-4,27.01,7.56,27.54,8.05c0.86,0.81,0.9,2.16,0.1,3.02
				C166.7,163.39,166.13,163.62,165.56,163.62z"/>
		</g>
		<g>
			<path d="M126.39,198.59c-0.92,0-9.09-0.12-12.09-4.4c-0.86-1.23-1.66-3.31-0.58-6.28c2.21-6.08,6.27-25.79,6.31-25.99
				c0.24-1.15,1.36-1.9,2.52-1.66c1.16,0.24,1.9,1.37,1.66,2.52c-0.17,0.82-4.16,20.22-6.48,26.59c-0.49,1.34-0.2,1.99,0.06,2.37
				c1.36,1.94,6.37,2.58,8.59,2.58c1.18,0,2.13,0.96,2.13,2.14C128.52,197.64,127.57,198.59,126.39,198.59z"/>
		</g>
		<g>
			<path d="M129.05,220.44c-3.16,0-5.26-0.58-5.33-0.6c-1.13-0.33-1.78-1.51-1.45-2.65c0.33-1.13,1.51-1.78,2.64-1.46
				c0.78,0.22,18.49,4.91,26.69-19.25c0.38-1.12,1.59-1.72,2.71-1.34c1.12,0.38,1.72,1.59,1.34,2.71
				C149.01,217.42,136.27,220.44,129.05,220.44z"/>
		</g>
		<g>
			<path d="M220.74,187.89c-0.43,0-0.87-0.13-1.25-0.41c-0.95-0.69-1.17-2.02-0.48-2.98c0.33-0.46,8.18-11.17,20.68-9.21
				c1.16,0.18,1.96,1.28,1.78,2.44c-0.18,1.17-1.29,1.96-2.44,1.78c-9.85-1.54-16.49,7.4-16.56,7.49
				C222.06,187.58,221.4,187.89,220.74,187.89z"/>
		</g>
	</g>
</g>
</svg>
