<?xml version="1.0" encoding="utf-8"?>
<!-- Generator: Adobe Illustrator 25.0.0, SVG Export Plug-In . SVG Version: 6.00 Build 0)  -->
<svg version="1.1" xmlns="http://www.w3.org/2000/svg" xmlns:xlink="http://www.w3.org/1999/xlink" x="0px" y="0px"
	 viewBox="0 0 345.07 345.07" style="enable-background:new 0 0 345.07 345.07;" xml:space="preserve">
<style type="text/css">
	.st0{fill:#F5F5F5;}
	.st1{fill:#E8EDC5;}
	.st2{fill:#FFFFFF;}
	.st3{fill:#85BAC6;}
	.st4{fill:#F6E1DC;}
	.st5{fill:#080717;}
	.st6{fill:none;stroke:#080717;stroke-width:2;stroke-linecap:round;stroke-linejoin:round;stroke-miterlimit:10;}
	.st7{fill:#F2ECDE;}
	.st8{fill:#C7E1E0;}
	.st9{fill:#FCDEDE;}
	.st10{fill:#EFCBBF;}
	.st11{fill:#CEE1E7;}
	.st12{fill:#FDEDE0;}
	.st13{fill:#B9D2D7;}
	.st14{fill:#EDE6E4;}
	.st15{fill:#FDE3EC;}
	.st16{fill:#DDD6CC;}
	.st17{fill:#F3F3F3;}
	.st18{fill:#E0D5C1;}
	.st19{fill:none;stroke:#000000;stroke-width:2;stroke-linecap:round;stroke-linejoin:round;stroke-miterlimit:10;}
	.st20{fill:#E0E0E0;}
	.st21{fill:#DBDDC0;}
</style>
<g id="Layer_3">
</g>
<g id="_x3C_Layer_x3E_">
	<g>

			<ellipse transform="matrix(0.7071 -0.7071 0.7071 0.7071 -71.4659 172.5338)" class="st12" cx="172.53" cy="172.53" rx="172.53" ry="172.53"/>
		<path d="M246.56,173.72c15.94-27.96,14.3-58.31,14.3-58.31c0-31.38-52.77-71.47-85.19-73.51c-4.98-1.4-10.22-2.16-15.64-2.16
			c-31.92,0-57.79,25.87-57.79,57.79v17.69c-1.59,9.61-2.5,18.19-3.33,24.16c-3.79,27.47-29.37,26.53-41.69,40.74
			c-12.32,14.21,0,26.53-1.9,47.37c-1.67,18.33-17.25,18.35-28.07,38.06c7.54,11.75,16.45,22.51,26.53,32.08
			c30.6,6.59,72.6,6.6,72.6,6.6s183.59,54.5,147.56-56.84C267.9,228.69,231.3,200.48,246.56,173.72z"/>
		<g>
			<path d="M35.2,250.46c-0.62,0-1.23-0.27-1.65-0.78c-0.75-0.91-0.61-2.26,0.3-3.01c10.09-8.26,14.84-13.85,17.96-32.73
				c1.19-7.21,0.32-13.56-0.45-19.17c-1.25-9.11-2.43-17.72,6.02-26.04c4.79-4.72,11.1-7.38,17.19-9.95
				c10.87-4.58,21.13-8.91,24.39-24.13c0.35-1.66,0.73-3.55,1.15-5.62c0.93-4.65,2.1-10.42,3.58-16.57l1.17-16.32
				c2.22-30.89,29.54-54.19,60.83-51.94c5.18,0.37,10.3,1.45,15.22,3.19c1.11,0.4,1.69,1.62,1.3,2.73c-0.39,1.11-1.61,1.69-2.73,1.3
				c-4.56-1.62-9.3-2.62-14.1-2.96c-28.98-2.08-54.22,19.44-56.27,47.98l-1.19,16.5c-0.01,0.12-0.03,0.23-0.05,0.35
				c-1.48,6.13-2.65,11.92-3.59,16.58c-0.42,2.08-0.8,3.99-1.16,5.67c-3.72,17.4-16.04,22.59-26.91,27.18
				c-5.99,2.52-11.65,4.91-15.85,9.05c-6.93,6.82-6.03,13.36-4.79,22.42c0.81,5.91,1.73,12.61,0.43,20.45
				c-3.19,19.32-8.35,26.24-19.47,35.34C36.15,250.31,35.68,250.46,35.2,250.46z"/>
		</g>
		<g>
			<path d="M209.82,323.87c-2.95,0-5.97-0.05-9.07-0.14c-31.23-0.96-59-6.64-59.28-6.69c-1.16-0.24-1.9-1.37-1.66-2.53
				c0.24-1.16,1.36-1.89,2.52-1.66c1.09,0.23,109.13,22.07,139.09-14.34c9.89-12.02,10.14-29.46,0.74-51.84
				c-2.28-5.44-7.83-11.86-13.69-18.65c-13.01-15.07-29.2-33.83-19.79-54.16c13.1-28.31,9.19-57.83,9.15-58.12
				c-1.16-13.64-13.66-29.88-33.46-43.55c-18.65-12.88-40.4-21.06-55.47-20.66c-1.12,0.05-2.16-0.91-2.18-2.09
				c-0.02-1.18,0.91-2.16,2.09-2.18c16.11-0.32,38.35,7.86,57.99,21.42c21.15,14.6,34.01,31.59,35.28,46.6
				c0.16,1.14,4.11,30.95-9.52,60.39c-8.25,17.83,6.31,34.69,19.15,49.57c6.09,7.06,11.85,13.72,14.39,19.79
				c10.06,23.96,9.59,42.88-1.38,56.21C272.35,316.27,247.17,323.87,209.82,323.87z"/>
		</g>
		<path class="st3" d="M133.96,229.38c-43.16,0-82.76,8.99-113.86,23.98c28.98,54.55,86.36,91.71,152.44,91.71
			c49.32,0,93.76-20.72,125.21-53.9C268.81,254.66,206.37,229.38,133.96,229.38z"/>

			<rect x="113.35" y="164.82" transform="matrix(0.9639 0.2664 -0.2664 0.9639 62.0803 -32.0703)" class="st2" width="71.82" height="95.99"/>
		<path d="M183.32,224.38l13.34-48.26l-43.97-12.15l-18.6,12.62C139.92,198.09,157.12,215.49,183.32,224.38z"/>
		<path class="st2" d="M182.76,203.8L182.76,203.8c-31.92,0-57.79-25.87-57.79-57.79v-36.17c0-31.92,25.87-57.79,57.79-57.79l0,0
			c31.92,0,57.79,25.87,57.79,57.79v36.17C240.55,177.92,214.68,203.8,182.76,203.8z"/>
		<path d="M178.65,48.42L178.65,48.42c-34.62,0-62.69,27.06-62.69,60.44v12.46c24.33,15.44,57.36,12.85,78.76-7.78l27.74-26.75
			c3.43-3.31,6.37-6.91,8.84-10.72C220.13,59.44,200.73,48.42,178.65,48.42z"/>
		<path class="st2" d="M134.6,157.62L134.6,157.62c-8.83,3.96-19.2,0-23.16-8.84l-1.16-2.59c-3.96-8.84,0-19.2,8.84-23.16v0
			c8.83-3.96,19.2,0,23.16,8.84l1.16,2.59C147.39,143.29,143.43,153.66,134.6,157.62z"/>
		<path d="M233.61,134.5c-0.7,4.26-3.47,7.35-6.18,6.9c-2.71-0.45-4.34-4.26-3.63-8.52c0.7-4.26,3.47-7.35,6.18-6.9
			C232.68,126.43,234.31,130.24,233.61,134.5z"/>
		<g>
			<path d="M248.39,125.87c-0.6,0-1.19-0.25-1.62-0.74c-8.25-9.52-23.31-7.17-23.46-7.14c-1.17,0.2-2.26-0.59-2.46-1.76
				c-0.19-1.16,0.59-2.26,1.75-2.46c0.71-0.12,17.55-2.79,27.39,8.56c0.77,0.89,0.68,2.24-0.21,3.01
				C249.38,125.7,248.89,125.87,248.39,125.87z"/>
		</g>
		<path d="M195.01,130.71c-0.7,4.26-3.47,7.35-6.18,6.9c-2.71-0.45-4.34-4.26-3.63-8.52c0.7-4.26,3.47-7.35,6.18-6.9
			C194.08,122.64,195.71,126.45,195.01,130.71z"/>
		<g>
			<path d="M205.99,119.93c-0.48,0-0.96-0.16-1.36-0.49c-9.71-8.03-24.17-3.22-24.32-3.17c-1.1,0.38-2.33-0.21-2.71-1.33
				c-0.38-1.11,0.21-2.33,1.32-2.71c0.68-0.23,16.85-5.65,28.43,3.92c0.91,0.75,1.04,2.1,0.29,3.01
				C207.21,119.66,206.6,119.93,205.99,119.93z"/>
		</g>
		<g>
			<path d="M209.28,160.93c-1.18,0-2.13-0.95-2.13-2.13c0-1.18,0.95-2.14,2.13-2.14c2.22-0.01,7.23-0.64,8.59-2.58
				c0.26-0.37,0.55-1.02,0.06-2.37c-2.32-6.37-6.31-25.77-6.48-26.59c-0.24-1.16,0.51-2.29,1.66-2.52c1.15-0.24,2.29,0.51,2.52,1.66
				c0.04,0.2,4.1,19.91,6.31,25.99c1.08,2.97,0.28,5.05-0.58,6.28C218.37,160.81,210.2,160.93,209.28,160.93z"/>
		</g>
		<g>
			<path d="M206.44,175.14c-0.05,0-0.09,0-0.14,0c-12.26-0.77-19.1-10.45-19.39-10.86c-0.67-0.97-0.43-2.3,0.54-2.97
				c0.97-0.67,2.3-0.43,2.97,0.54c0.1,0.14,6.03,8.4,16.14,9.03c1.18,0.07,2.07,1.09,2,2.27
				C208.5,174.27,207.56,175.14,206.44,175.14z"/>
		</g>
		<path class="st2" d="M141.54,228.43c-19.24,0-37.2,2.53-52.42,6.9c4.28,35.19,30.25,62.26,61.67,62.26
			c29.49,0,54.18-23.87,60.64-55.91C193.45,233.49,168.78,228.43,141.54,228.43z"/>
		<g>
			<path d="M131.84,149.09c-0.05,0-0.1,0-0.15-0.01c-1.18-0.08-2.06-1.1-1.98-2.28c0.82-11.67-6-14.81-6.29-14.94
				c-1.07-0.47-1.57-1.73-1.11-2.8c0.46-1.07,1.69-1.59,2.78-1.13c0.41,0.17,9.93,4.31,8.89,19.18
				C133.89,148.23,132.95,149.09,131.84,149.09z"/>
		</g>
	</g>
</g>
</svg>
