<?xml version="1.0" encoding="utf-8"?>
<!-- Generator: Adobe Illustrator 25.0.0, SVG Export Plug-In . SVG Version: 6.00 Build 0)  -->
<svg version="1.1" xmlns="http://www.w3.org/2000/svg" xmlns:xlink="http://www.w3.org/1999/xlink" x="0px" y="0px"
	 viewBox="0 0 345.07 345.07" style="enable-background:new 0 0 345.07 345.07;" xml:space="preserve">
<style type="text/css">
	.st0{fill:#F5F5F5;}
	.st1{fill:#E8EDC5;}
	.st2{fill:#FFFFFF;}
	.st3{fill:#85BAC6;}
	.st4{fill:#F6E1DC;}
	.st5{fill:#080717;}
	.st6{fill:none;stroke:#080717;stroke-width:2;stroke-linecap:round;stroke-linejoin:round;stroke-miterlimit:10;}
	.st7{fill:#F2ECDE;}
	.st8{fill:#C7E1E0;}
	.st9{fill:#FCDEDE;}
	.st10{fill:#EFCBBF;}
	.st11{fill:#CEE1E7;}
	.st12{fill:#FDEDE0;}
	.st13{fill:#B9D2D7;}
	.st14{fill:#EDE6E4;}
	.st15{fill:#FDE3EC;}
	.st16{fill:#DDD6CC;}
	.st17{fill:#F3F3F3;}
	.st18{fill:#E0D5C1;}
	.st19{fill:none;stroke:#000000;stroke-width:2;stroke-linecap:round;stroke-linejoin:round;stroke-miterlimit:10;}
	.st20{fill:#E0E0E0;}
	.st21{fill:#DBDDC0;}
</style>
<g id="Layer_3">
</g>
<g id="_x3C_Layer_x3E_">
	<g>

			<ellipse transform="matrix(0.7071 -0.7071 0.7071 0.7071 -71.4659 172.5338)" class="st15" cx="172.53" cy="172.53" rx="172.53" ry="172.53"/>
		<path d="M184.74,51.27c-56.59,0-102.47,45.88-102.47,102.47c0,1.85-1.33,35.93-54.56,34.6c-9.22-0.23-18.16,0.85-26.66,3.04
			c9.19,84.55,79.45,150.72,165.75,153.54c30.61-17.72,51.21-50.8,51.21-88.71c0-1.85-0.05-3.68-0.15-5.5
			c40.33-13.77,69.35-51.97,69.35-96.97C287.21,97.14,241.33,51.27,184.74,51.27z"/>
		<path class="st3" d="M172.53,345.07c46.71,0,89.06-18.6,120.13-48.75l-27.3-36.04c-20.33-26.84-53.93-40.11-87.12-34.4
			L19.97,253.1C48.91,307.79,106.35,345.07,172.53,345.07z"/>
		<path class="st2" d="M124.48,260.2L124.48,260.2c-5.45-2.63-7.74-9.18-5.11-14.63l41.53-86.1l50.08,24.16l-26.9,55.76
			C173.37,261.59,146.68,270.91,124.48,260.2z"/>
		<path class="st2" d="M199.61,202.98h-12.63c-35.19,0-63.98-28.79-63.98-63.98v-13.21c0-24.38,19.95-44.33,44.33-44.33h26.77
			c31.44,0,57.17,25.73,57.17,57.17v12.68C251.28,179.73,228.03,202.98,199.61,202.98z"/>
		<g>
			<path d="M225.64,207.25h-35c-7.32,0-14.54-1.14-21.46-3.4c-1.12-0.37-1.74-1.57-1.37-2.69c0.37-1.12,1.58-1.74,2.69-1.37
				c6.5,2.11,13.27,3.19,20.14,3.19h35c1.18,0,2.14,0.96,2.14,2.14C227.77,206.29,226.82,207.25,225.64,207.25z"/>
		</g>
		<path d="M171.71,52.12c-49.23,6.25-87.54,47.41-89.35,97.89c11.1,7.37,24.6,11.71,39.16,11.71c37.85,0,68.54-29.2,68.54-65.21
			C190.06,79.36,183.09,63.76,171.71,52.12z"/>

			<ellipse transform="matrix(0.918 -0.3965 0.3965 0.918 -58.847 64.0589)" class="st2" cx="125.52" cy="174.36" rx="25.95" ry="25.95"/>
		<g>
			<path d="M135.62,175.81c-0.99,0-1.87-0.68-2.09-1.68c-0.03-0.15-2.1-9.08-9.51-11.79c-1.11-0.4-1.68-1.63-1.27-2.74
				c0.4-1.11,1.63-1.68,2.74-1.27c9.67,3.54,12.12,14.43,12.22,14.9c0.25,1.15-0.49,2.29-1.64,2.54
				C135.92,175.79,135.77,175.81,135.62,175.81z"/>
		</g>
		<path d="M194.22,141.65c0.74,3.39,3.09,5.76,5.25,5.29c2.16-0.47,3.31-3.61,2.57-7c-0.74-3.39-3.09-5.76-5.25-5.29
			C194.63,135.12,193.48,138.26,194.22,141.65z"/>
		<path d="M232.14,139.28c0.74,3.39,3.09,5.76,5.25,5.29c2.16-0.47,3.31-3.61,2.57-7c-0.74-3.39-3.09-5.76-5.25-5.29
			C232.55,132.75,231.4,135.89,232.14,139.28z"/>
		<g>
			<path d="M184.3,130.1c-0.51,0-1.02-0.18-1.43-0.55c-0.88-0.79-0.95-2.14-0.15-3.02c7.08-7.85,18.4-5.99,18.87-5.91
				c1.16,0.2,1.94,1.31,1.74,2.47c-0.2,1.16-1.28,1.95-2.47,1.74c-0.19-0.03-9.52-1.48-14.97,4.56
				C185.46,129.86,184.88,130.1,184.3,130.1z"/>
		</g>
		<g>
			<path d="M215.42,183.56c-0.89,0-1.78-0.1-2.66-0.32c-5.48-1.38-9.35-6.94-11.5-16.52c-0.16-0.71,0.05-1.45,0.57-1.97
				c0.51-0.52,1.26-0.74,1.96-0.59l27.87,5.9c0.74,0.16,1.34,0.69,1.58,1.41c0.24,0.72,0.09,1.51-0.41,2.08
				C232.43,173.99,224.06,183.56,215.42,183.56z M206.28,169.05c1.4,4.55,3.71,9.08,7.51,10.04c4.34,1.09,9.7-2.58,13.13-5.67
				L206.28,169.05z"/>
		</g>
		<g>
			<path d="M230.43,153.95c-0.29,0-0.58-0.06-0.86-0.18c-8.49-3.73-12.03-14.45-7.89-23.9c4.15-9.45,14.44-14.1,22.93-10.38
				c1.08,0.47,1.57,1.74,1.1,2.82c-0.48,1.08-1.73,1.57-2.81,1.1c-6.34-2.78-14.1,0.89-17.3,8.18c-3.2,7.29-0.65,15.49,5.69,18.27
				c1.08,0.47,1.57,1.73,1.1,2.82C232.04,153.47,231.25,153.95,230.43,153.95z"/>
		</g>
		<path class="st2" d="M199.57,234.33c0-3.34-0.66-6.58-1.89-9.68c-5.24-0.22-10.54,0.1-15.84,1.01L78.78,243.38
			c6.4,17.23,30.63,30.06,59.56,30.06C172.16,273.44,199.57,255.93,199.57,234.33z"/>
	</g>
</g>
</svg>
