<?xml version="1.0" encoding="UTF-8"?>
<svg version="1.1" xmlns="http://www.w3.org/2000/svg" width="180" height="180">
<path d="M0 0 C1.09263153 -0.00861557 2.18526306 -0.01723114 3.31100464 -0.02610779 C6.89003821 -0.04864016 10.46828056 -0.04205136 14.04736328 -0.03295898 C16.55640899 -0.03820052 19.06545273 -0.04447894 21.57449341 -0.05174255 C26.82122097 -0.0621236 32.06774647 -0.05795245 37.31445312 -0.04296875 C42.67990217 -0.02793123 48.0447627 -0.03495261 53.41015625 -0.06347656 C59.91984764 -0.09767853 66.42907602 -0.10710156 72.93884659 -0.09669304 C75.40659654 -0.09587736 77.87436199 -0.10266667 80.34206772 -0.11746407 C96.15509689 -0.19775451 109.82611029 -0.23454783 122.49658203 10.52954102 C131.13211344 19.19887098 135.88278396 29.74310619 136.04589844 41.99224854 C136.03937256 42.99826111 136.03284668 44.00427368 136.02612305 45.04077148 C136.03473862 46.13340302 136.04335419 47.22603455 136.05223083 48.35177612 C136.07476321 51.9308097 136.0681744 55.50905204 136.05908203 59.08813477 C136.06432357 61.59718048 136.07060198 64.10622422 136.0778656 66.61526489 C136.08824665 71.86199246 136.0840755 77.10851796 136.0690918 82.35522461 C136.05405427 87.72067365 136.06107566 93.08553419 136.08959961 98.45092773 C136.12380158 104.96061912 136.1332246 111.46984751 136.12281609 117.97961807 C136.12200041 120.44736803 136.12878972 122.91513348 136.14358711 125.3828392 C136.22387756 141.19586837 136.26067087 154.86688177 125.49658203 167.53735352 C116.82725206 176.17288493 106.28301686 180.92355544 94.03387451 181.08666992 C92.52485565 181.0768811 92.52485565 181.0768811 90.98535156 181.06689453 C89.89272003 181.0755101 88.8000885 181.08412567 87.67434692 181.09300232 C84.09531335 181.11553469 80.51707101 181.10894589 76.93798828 181.09985352 C74.42894257 181.10509505 71.91989883 181.11137347 69.41085815 181.11863708 C64.16413059 181.12901813 58.91760509 181.12484699 53.67089844 181.10986328 C48.30544939 181.09482576 42.94058886 181.10184715 37.57519531 181.13037109 C31.06550392 181.16457306 24.55627554 181.17399609 18.04650497 181.16358757 C15.57875502 181.16277189 13.11098957 181.1695612 10.64328384 181.1843586 C-5.16974533 181.26464904 -18.84075872 181.30144236 -31.51123047 170.53735352 C-40.14676188 161.86802355 -44.89743239 151.32378834 -45.06054688 139.074646 C-45.054021 138.06863342 -45.04749512 137.06262085 -45.04077148 136.02612305 C-45.04938705 134.93349152 -45.05800262 133.84085999 -45.06687927 132.71511841 C-45.08941165 129.13608483 -45.08282284 125.55784249 -45.07373047 121.97875977 C-45.07897201 119.46971405 -45.08525042 116.96067031 -45.09251404 114.45162964 C-45.10289509 109.20490208 -45.09872394 103.95837657 -45.08374023 98.71166992 C-45.06870271 93.34622088 -45.0757241 87.98136034 -45.10424805 82.6159668 C-45.13845002 76.10627541 -45.14787304 69.59704702 -45.13746452 63.08727646 C-45.13664885 60.6195265 -45.14343816 58.15176105 -45.15823555 55.68405533 C-45.238526 39.87102616 -45.27531931 26.20001276 -34.51123047 13.52954102 C-24.80140021 3.85756585 -13.52372787 -0.08772675 0 0 Z " fill="#130F1C" transform="translate(44.50732421875,-0.533447265625)"/>
<path d="M0 0 C2.14685144 0.05455015 4.28978508 0.06152957 6.43725586 0.06079102 C17.5364098 0.14691325 27.86462683 1.21820627 36.12670898 9.37133789 C42.87640794 16.66329596 46.45378706 23.54818379 46.34936523 33.61743164 C45.75061512 42.52224714 42.59742843 49.58595939 36.84545898 56.39868164 C35.34936523 57.61743164 35.34936523 57.61743164 32.34936523 57.61743164 C32.01936523 58.60743164 31.68936523 59.59743164 31.34936523 60.61743164 C28.28686523 61.80493164 28.28686523 61.80493164 25.34936523 62.61743164 C25.32358398 63.22329102 25.29780273 63.82915039 25.27124023 64.45336914 C24.59705291 74.41295464 21.70405092 82.67237401 14.34936523 89.61743164 C4.22049637 98.26402701 -9.22143364 98.17958121 -21.77563477 97.92993164 C-23.26129918 97.91839849 -24.74697833 97.90862584 -26.23266602 97.90063477 C-34.07507003 97.83437288 -41.85301994 97.51101772 -49.65063477 96.61743164 C-48.09739855 93.40774853 -46.33254099 90.69651344 -44.15063477 87.86743164 C-43.54219727 87.06821289 -42.93375977 86.26899414 -42.30688477 85.44555664 C-41.76032227 84.84227539 -41.21375977 84.23899414 -40.65063477 83.61743164 C-39.99063477 83.61743164 -39.33063477 83.61743164 -38.65063477 83.61743164 C-38.24071289 82.73317505 -38.24071289 82.73317505 -37.82250977 81.83105469 C-36.68578603 79.68383091 -35.47770767 78.03858639 -33.90063477 76.19946289 C-33.37469727 75.58522461 -32.84875977 74.97098633 -32.30688477 74.33813477 C-31.76032227 73.70842773 -31.21375977 73.0787207 -30.65063477 72.42993164 C-29.83079102 71.46796875 -29.83079102 71.46796875 -28.99438477 70.48657227 C-24.0346392 64.73059304 -24.0346392 64.73059304 -20.79786682 64.46594238 C-20.04746628 64.45341431 -19.29706573 64.44088623 -18.52392578 64.42797852 C-17.67286758 64.41126099 -16.82180939 64.39454346 -15.94496155 64.37731934 C-15.02412277 64.3637439 -14.103284 64.35016846 -13.15454102 64.33618164 C-12.210056 64.31777222 -11.26557098 64.29936279 -10.29246521 64.28039551 C-7.26608615 64.22153714 -4.23965014 64.16877324 -1.21313477 64.11743164 C2.76485089 64.04983147 6.7426544 63.97613654 10.72045898 63.89868164 C11.63927353 63.8851062 12.55808807 63.87153076 13.50474548 63.85754395 C14.35895584 63.84082642 15.2131662 63.82410889 16.09326172 63.80688477 C16.84445786 63.79435669 17.59565399 63.78182861 18.36961365 63.7689209 C20.56093398 63.68186706 20.56093398 63.68186706 23.34936523 62.61743164 C24.07606155 55.93182555 22.05778919 51.16704032 18.34936523 45.61743164 C12.4482443 38.72293564 5.35043956 34.41397183 -3.78735352 33.37432861 C-9.63113876 32.95376717 -15.48175963 32.9143219 -21.33813477 32.86743164 C-23.11876211 32.83922176 -24.89936301 32.80928747 -26.67993164 32.77758789 C-31.00345119 32.70432227 -35.32665865 32.65438598 -39.65063477 32.61743164 C-38.91531528 28.18069768 -37.79373912 26.25558512 -34.65063477 22.99243164 C-30.50882948 18.58765459 -26.70856275 14.02106362 -22.98657227 9.25805664 C-22.21571289 8.38665039 -21.44485352 7.51524414 -20.65063477 6.61743164 C-20.22983643 6.07546143 -19.80903809 5.53349121 -19.37548828 4.97509766 C-14.07166379 -0.82266425 -7.33157887 -0.19243208 0 0 Z " fill="#D6D5D7" transform="translate(91.650634765625,41.382568359375)"/>
<path d="M0 0 C0.8850119 0.00141495 1.7700238 0.0028299 2.68185425 0.00428772 C5.51449941 0.00989485 8.34706614 0.02244854 11.1796875 0.03515625 C13.09765511 0.04017033 15.01562396 0.0447334 16.93359375 0.04882812 C21.64065532 0.05986659 26.3476581 0.077136 31.0546875 0.09765625 C31.0546875 0.42765625 31.0546875 0.75765625 31.0546875 1.09765625 C20.8246875 1.09765625 10.5946875 1.09765625 0.0546875 1.09765625 C0.0546875 1.75765625 0.0546875 2.41765625 0.0546875 3.09765625 C0.7146875 3.42765625 1.3746875 3.75765625 2.0546875 4.09765625 C2.0546875 5.08765625 2.0546875 6.07765625 2.0546875 7.09765625 C2.7146875 7.42765625 3.3746875 7.75765625 4.0546875 8.09765625 C4.94921875 10.03125 4.94921875 10.03125 5.8671875 12.53515625 C7.63248119 17.17821172 9.74033656 21.50424819 12.1015625 25.87109375 C13.0546875 28.09765625 13.0546875 28.09765625 13.0546875 32.09765625 C9.27763088 33.30761204 5.5357342 33.24200006 1.61328125 33.23046875 C0.89036392 33.23142548 0.16744659 33.2323822 -0.57737732 33.23336792 C-2.10798225 33.23404747 -3.63859009 33.23220887 -5.16918945 33.22802734 C-7.47549189 33.22273048 -9.78159467 33.22795147 -12.08789062 33.234375 C-20.09374175 33.23762083 -27.98336842 33.04940396 -35.9453125 32.09765625 C-34.39207628 28.88797313 -32.62721872 26.17673805 -30.4453125 23.34765625 C-29.836875 22.5484375 -29.2284375 21.74921875 -28.6015625 20.92578125 C-28.055 20.3225 -27.5084375 19.71921875 -26.9453125 19.09765625 C-26.2853125 19.09765625 -25.6253125 19.09765625 -24.9453125 19.09765625 C-24.67203125 18.50815186 -24.39875 17.91864746 -24.1171875 17.3112793 C-22.98046376 15.16405552 -21.77238541 13.518811 -20.1953125 11.6796875 C-19.669375 11.06544922 -19.1434375 10.45121094 -18.6015625 9.81835938 C-17.78171875 8.87379883 -17.78171875 8.87379883 -16.9453125 7.91015625 C-16.12546875 6.94819336 -16.12546875 6.94819336 -15.2890625 5.96679688 C-10.36141156 0.24806472 -7.59073045 -0.04531186 0 0 Z " fill="#B2B1B5" transform="translate(77.9453125,105.90234375)"/>
<path d="M0 0 C2.13814661 0.06753065 4.2715283 0.08199184 6.41064453 0.08740234 C21.90052152 0.25351483 21.90052152 0.25351483 28.27392578 3.69287109 C28.76892578 5.17787109 28.76892578 5.17787109 29.27392578 6.69287109 C26.55517578 7.59912109 26.55517578 7.59912109 23.83642578 8.50537109 C22.73556641 8.87275391 21.63470703 9.24013672 20.50048828 9.61865234 C18.6213506 10.24427324 16.74149585 10.86776313 14.85986328 11.48583984 C9.86323729 13.13018403 4.92302261 14.90426694 -0.01513672 16.71630859 C-3.25811394 17.88452805 -6.52584831 18.9645553 -9.80029297 20.04052734 C-12.14693074 20.83543304 -14.43037848 21.76218363 -16.72607422 22.69287109 C-25.37313304 25.69287109 -25.37313304 25.69287109 -28.72607422 25.69287109 C-29.05607422 26.35287109 -29.38607422 27.01287109 -29.72607422 27.69287109 C-30.38607422 27.69287109 -31.04607422 27.69287109 -31.72607422 27.69287109 C-33.39572873 28.01090052 -35.0628594 28.34272061 -36.72607422 28.69287109 C-33.79444376 24.69046781 -30.84408382 20.77103599 -27.53857422 17.06787109 C-25.62784901 14.89681571 -24.58081074 13.37593259 -23.35107422 10.69287109 C-17.95222852 0.72577134 -10.6523238 -0.34330918 0 0 Z " fill="#E1E1E2" transform="translate(91.72607421875,41.30712890625)"/>
<path d="M0 0 C0.56810986 8.80570278 -1.23284779 15.92624412 -6.875 22.875 C-10.85242694 27.13295075 -15.42141883 30.23834279 -21 32 C-22.32 32 -23.64 32 -25 32 C-26.13169701 29.64885408 -27.25541381 27.29440665 -28.375 24.9375 C-28.69210938 24.28072266 -29.00921875 23.62394531 -29.3359375 22.94726562 C-30.87752953 19.68744082 -32.18898959 16.56043542 -33.1015625 13.06640625 C-33.39804688 12.05449219 -33.69453125 11.04257813 -34 10 C-34.66 9.67 -35.32 9.34 -36 9 C-36.73075648 6.6859378 -37.40138258 4.35171131 -38 2 C-37.07662842 1.97494385 -36.15325684 1.9498877 -35.2019043 1.92407227 C-31.77453584 1.82890955 -28.34733539 1.72967786 -24.92016602 1.62768555 C-23.43713985 1.5843867 -21.95406546 1.54270801 -20.47094727 1.50268555 C-18.33855661 1.44486042 -16.20640758 1.38120168 -14.07421875 1.31640625 C-12.79119873 1.27974854 -11.50817871 1.24309082 -10.1862793 1.20532227 C-6.54289619 0.97054446 -3.70438492 0 0 0 Z " fill="#C5C4C7" transform="translate(116,105)"/>
<path d="M0 0 C1.65 0 3.3 0 5 0 C6.91306068 6.00449702 5.30977572 12.28315093 2.6328125 17.8359375 C-1.84187613 25.42732468 -1.84187613 25.42732468 -5 28 C-5.99 28 -6.98 28 -8 28 C-8.33 28.99 -8.66 29.98 -9 31 C-12.0625 32.1875 -12.0625 32.1875 -15 33 C-15 34.98 -15 36.96 -15 39 C-15.33 39 -15.66 39 -16 39 C-16.62881609 35.77731755 -17.00296769 33.03857993 -16.75 29.75 C-17.2272145 22.59178246 -21.25967992 16.26702231 -26 11 C-23 9 -23 9 -19 9 C-18.67 8.34 -18.34 7.68 -18 7 C-17.01 7 -16.02 7 -15 7 C-12.43192679 5.7609797 -9.9638192 4.38257811 -7.47265625 2.99609375 C-4.74443712 1.89704813 -3.69318376 1.9564694 -1 3 C-0.67 2.01 -0.34 1.02 0 0 Z " fill="#9D9BA1" transform="translate(132,71)"/>
<path d="M0 0 C3.79062273 4.82442893 5.28418033 7.74803275 5 14 C4.195625 14.12375 3.39125 14.2475 2.5625 14.375 C1.716875 14.58125 0.87125 14.7875 0 15 C-0.33 15.66 -0.66 16.32 -1 17 C-2.66475686 17.34274406 -4.33195323 17.67364302 -6 18 C-7.155 18.495 -8.31 18.99 -9.5 19.5 C-12.4977938 20.78476877 -14.84198607 21.39847354 -18 22 C-18.66902344 22.29648438 -19.33804688 22.59296875 -20.02734375 22.8984375 C-22.40244721 23.91343898 -24.43605711 24.65468783 -27 25 C-29.25952091 24.08564134 -30.9273826 22.88262382 -32.87109375 21.41796875 C-36.54662923 18.9698598 -40.75552369 18.06981678 -45 17 C-42.29721134 14.29721134 -39.66200412 13.99308586 -36 13 C-33.47147569 12.03675264 -30.98999466 10.99574773 -28.5 9.9375 C-26 9 -26 9 -23.63671875 8.55859375 C-21.00575786 8.00121981 -18.7822122 7.17819958 -16.3125 6.125 C-11.92011206 4.3113263 -7.50832128 2.89077927 -2.93359375 1.61328125 C-1.01439129 1.16780385 -1.01439129 1.16780385 0 0 Z " fill="#BDBCC0" transform="translate(132,57)"/>
<path d="M0 0 C2.94142368 3.44041519 4.42925801 7.25294517 6 11.4375 C8.32274209 18.09661812 8.32274209 18.09661812 12 24 C15.17861973 24.82130678 15.17861973 24.82130678 18.6875 24.8125 C19.86699219 24.86019531 21.04648438 24.90789062 22.26171875 24.95703125 C23.61716797 24.97830078 23.61716797 24.97830078 25 25 C25 25.33 25 25.66 25 26 C20.35929747 26.02499343 15.71863539 26.04299677 11.07788086 26.05493164 C9.50398067 26.05991488 7.930085 26.0667039 6.35620117 26.07543945 C-2.48603482 26.12323532 -11.2050103 26.0673356 -20 25 C-18.44676378 21.79031688 -16.68190622 19.0790818 -14.5 16.25 C-13.8915625 15.45078125 -13.283125 14.6515625 -12.65625 13.828125 C-12.1096875 13.22484375 -11.563125 12.6215625 -11 12 C-10.34 12 -9.68 12 -9 12 C-8.74476562 11.42765625 -8.48953125 10.8553125 -8.2265625 10.265625 C-6.86912841 7.75826267 -5.28025896 5.8669544 -3.375 3.75 C-2.74335937 3.04359375 -2.11171875 2.3371875 -1.4609375 1.609375 C-0.97882812 1.07828125 -0.49671875 0.5471875 0 0 Z " fill="#9D9BA1" transform="translate(62,113)"/>
<path d="M0 0 C2.8992226 0.46761655 3.86675182 0.86675182 6 3 C5.921875 5.0234375 5.921875 5.0234375 5 7 C2.890625 7.9765625 2.890625 7.9765625 0.25 8.625 C-0.65621094 8.86347656 -1.56242187 9.10195313 -2.49609375 9.34765625 C-3.32238281 9.56292969 -4.14867187 9.77820312 -5 10 C-6.6792238 10.63437344 -8.35008418 11.29289322 -10 12 C-12.78450183 13.17242183 -15.45780224 14.12716729 -18.375 14.9375 C-22.01538179 15.9174388 -22.01538179 15.9174388 -25.375 17.5 C-28.98681369 18.9945436 -32.36048746 19.83236537 -36.1796875 20.5703125 C-38.00897624 20.83372811 -38.00897624 20.83372811 -39 22 C-40.56172745 22.08685603 -42.12729344 22.10702219 -43.69140625 22.09765625 C-44.63564453 22.09443359 -45.57988281 22.09121094 -46.55273438 22.08789062 C-48.04256836 22.07532227 -48.04256836 22.07532227 -49.5625 22.0625 C-50.55958984 22.05798828 -51.55667969 22.05347656 -52.58398438 22.04882812 C-55.05604849 22.03700007 -57.52799518 22.02051849 -60 22 C-53.47875307 18.73469967 -47.43364999 15.96620875 -40.24609375 14.55859375 C-37.06580143 13.76766888 -34.25815159 12.38930006 -31.30078125 11 C-28.19301927 9.64925795 -25.00964516 8.77767336 -21.75390625 7.85546875 C-17.40421149 6.50428697 -13.20465565 4.78384454 -8.98046875 3.0859375 C-6.30721206 2.1119331 -3.78497968 1.52999613 -1 1 C-0.67 0.67 -0.34 0.34 0 0 Z " fill="#CCCBCE" transform="translate(126,52)"/>
<path d="M0 0 C1.50513561 0.03516521 3.01035048 0.06709506 4.515625 0.09570312 C8.17874806 0.17230572 11.83886095 0.29279723 15.5 0.4375 C15.995 1.4275 15.995 1.4275 16.5 2.4375 C15.59121094 2.69273438 15.59121094 2.69273438 14.6640625 2.953125 C10.17786918 4.25067015 5.8187315 5.65516636 1.5 7.4375 C-2.62631377 9.13581067 -6.76756966 10.48515321 -11.0546875 11.71484375 C-13.46227164 12.42635025 -15.8188901 13.23147924 -18.1875 14.0625 C-21.96548757 15.34647798 -25.53605609 16.01580384 -29.5 16.4375 C-28.85612037 15.07235135 -28.18308997 13.72095687 -27.5 12.375 C-27.12875 11.62089844 -26.7575 10.86679687 -26.375 10.08984375 C-19.05876309 -0.25958305 -11.87096969 -0.48333294 0 0 Z " fill="#F1F0F1" transform="translate(94.5,41.5625)"/>
<path d="M0 0 C0.55253506 8.56429337 -1.1990045 15.10972847 -6.25 22.125 C-6.8275 22.74375 -7.405 23.3625 -8 24 C-11 23 -11 23 -12.5 20.59375 C-15.46440551 14.47966364 -18.046649 8.51117 -20 2 C-18.64455078 1.90912109 -18.64455078 1.90912109 -17.26171875 1.81640625 C-15.49248047 1.69072266 -15.49248047 1.69072266 -13.6875 1.5625 C-11.92986328 1.44068359 -11.92986328 1.44068359 -10.13671875 1.31640625 C-6.50208299 0.94977425 -3.709738 0 0 0 Z " fill="#E0E0E1" transform="translate(116,105)"/>
<path d="M0 0 C3.34237126 2.97968842 4.97484551 5.66582145 6.625 9.8125 C7.0478125 10.86953125 7.470625 11.9265625 7.90625 13.015625 C8.76624936 15.36219467 9.50543162 17.64618333 10.125 20.0625 C11.03166753 23.10631241 11.79571522 23.89155369 14 26 C14.6875 28.6875 14.6875 28.6875 15 31 C8.9453125 31.1953125 8.9453125 31.1953125 7 31 C3.900249 27.900249 2.70444798 23.99623952 1 20 C0.5359375 18.98164062 0.071875 17.96328125 -0.40625 16.9140625 C-0.8703125 15.86992188 -1.334375 14.82578125 -1.8125 13.75 C-2.25207031 12.77546875 -2.69164063 11.8009375 -3.14453125 10.796875 C-4.09780267 7.68024332 -4.00079896 6.07160106 -3 3 C-1.4375 1.1875 -1.4375 1.1875 0 0 Z " fill="#ABAAAE" transform="translate(67,107)"/>
<path d="M0 0 C0 1.98 0 3.96 0 6 C-0.804375 6.12375 -1.60875 6.2475 -2.4375 6.375 C-3.283125 6.58125 -4.12875 6.7875 -5 7 C-5.33 7.66 -5.66 8.32 -6 9 C-7.66475686 9.34274406 -9.33195323 9.67364302 -11 10 C-12.155 10.495 -13.31 10.99 -14.5 11.5 C-17.4977938 12.78476877 -19.84198607 13.39847354 -23 14 C-23.69222656 14.28488281 -24.38445312 14.56976563 -25.09765625 14.86328125 C-27.42811091 15.80869107 -29.51598511 16.59035544 -32 17 C-35.5625 15.1875 -35.5625 15.1875 -38 13 C-35.50180526 10.71903958 -33.10010833 9.60493152 -29.9296875 8.58984375 C-29.13022705 8.33082275 -28.3307666 8.07180176 -27.50708008 7.80493164 C-26.67974365 7.5393042 -25.85240723 7.27367676 -25 7 C-23.41743 6.47819362 -21.83539061 5.95477502 -20.25390625 5.4296875 C-17.88122621 4.64340386 -15.50853766 3.85720068 -13.13476562 3.07421875 C-12.36970703 2.82027344 -11.60464844 2.56632812 -10.81640625 2.3046875 C-10.13006104 2.07765137 -9.44371582 1.85061523 -8.73657227 1.61669922 C-5.49793737 0.46658088 -3.52938178 -0.09287847 0 0 Z " fill="#AAA9AE" transform="translate(137,65)"/>
<path d="M0 0 C2.97 0 5.94 0 9 0 C9.54269531 1.15757813 10.08539063 2.31515625 10.64453125 3.5078125 C11.36714847 5.04689333 12.0898069 6.5859548 12.8125 8.125 C13.34713867 9.26582031 13.34713867 9.26582031 13.89257812 10.4296875 C15.87458925 14.64827998 17.89407242 18.84129128 20 23 C17.75 25.0625 17.75 25.0625 15 27 C12.96875 26.89453125 12.96875 26.89453125 11 26 C9.734375 24.0390625 9.734375 24.0390625 8.75 21.625 C8.41484375 20.83351563 8.0796875 20.04203125 7.734375 19.2265625 C7 17 7 17 7 14 C6.34 13.67 5.68 13.34 5 13 C4.21875 11.328125 4.21875 11.328125 3.5 9.25 C3.24605469 8.53328125 2.99210937 7.8165625 2.73046875 7.078125 C2.48941406 6.39234375 2.24835938 5.7065625 2 5 C1.33933281 3.33094605 0.67561748 1.6630584 0 0 Z " fill="#D2D1D5" transform="translate(87,107)"/>
<path d="M0 0 C-1.40883499 2.0252003 -2.50388059 2.91033987 -4.9453125 3.3515625 C-5.66460937 3.42117187 -6.38390625 3.49078125 -7.125 3.5625 C-9.043125 3.7790625 -9.043125 3.7790625 -11 4 C-11.33 4.66 -11.66 5.32 -12 6 C-14.3296874 6.90037664 -16.62051689 7.69389369 -19 8.4375 C-20.37891184 8.88149305 -21.75781812 9.32550339 -23.13671875 9.76953125 C-23.80493652 9.98174316 -24.4731543 10.19395508 -25.16162109 10.41259766 C-27.38766969 11.12386896 -29.60036786 11.87167933 -31.8125 12.625 C-34.87797941 13.65066792 -37.96122732 14.58841379 -41.0625 15.5 C-44.26482299 16.44421068 -47.38454426 17.48751433 -50.5 18.6875 C-54 20 -54 20 -56 20 C-56.33 20.66 -56.66 21.32 -57 22 C-57 19 -57 19 -55.75 16.5 C-52.09970876 13.18155342 -48.71158444 12.70158952 -43.9609375 11.68359375 C-41.53119931 11.12263836 -39.54931364 10.49289799 -37.3125 9.4375 C-34.57331809 8.24879842 -32.38412891 7.58652033 -29.5 7 C-25.38678697 6.15787009 -21.83222347 4.74191976 -18 3 C-16.60893633 2.44619918 -15.2129254 1.90468119 -13.8125 1.375 C-13.17957031 1.13523438 -12.54664063 0.89546875 -11.89453125 0.6484375 C-7.47781117 -0.86326463 -4.64426225 -0.94996273 0 0 Z " fill="#E9E8E9" transform="translate(117,44)"/>
<path d="M0 0 C-0.93188881 1.6074328 -1.87074435 3.21082799 -2.8125 4.8125 C-3.33457031 5.70582031 -3.85664063 6.59914063 -4.39453125 7.51953125 C-5.80426253 9.69758322 -6.97035877 11.39653016 -9 13 C-9.99 13 -10.98 13 -12 13 C-12.33 13.99 -12.66 14.98 -13 16 C-16.0625 17.1875 -16.0625 17.1875 -19 18 C-19 19.98 -19 21.96 -19 24 C-19.33 24 -19.66 24 -20 24 C-20.6391331 20.72444288 -20.99622446 17.78479444 -20.9375 14.4375 C-20.99888134 11.06152625 -21.54239389 9.0063126 -23 6 C-17.375 3 -17.375 3 -14 3 C-11.4499929 2.00809407 -8.9694721 0.89582687 -6.47265625 -0.22265625 C-3.79612094 -1.06409468 -2.59197257 -0.95620334 0 0 Z " fill="#838188" transform="translate(136,86)"/>
<path d="M0 0 C0.66 0.33 1.32 0.66 2 1 C1.796875 2.8984375 1.796875 2.8984375 1 5 C-1.109375 5.9765625 -1.109375 5.9765625 -3.75 6.625 C-5.10931641 6.98271484 -5.10931641 6.98271484 -6.49609375 7.34765625 C-7.32238281 7.56292969 -8.14867187 7.77820312 -9 8 C-10.6792238 8.63437344 -12.35008418 9.29289322 -14 10 C-16.78450183 11.17242183 -19.45780224 12.12716729 -22.375 12.9375 C-26.01538179 13.9174388 -26.01538179 13.9174388 -29.375 15.5 C-32.98681369 16.9945436 -36.36048746 17.83236537 -40.1796875 18.5703125 C-42.00897624 18.83372811 -42.00897624 18.83372811 -43 20 C-44.85287502 20.07226502 -46.70833878 20.0838122 -48.5625 20.0625 C-49.57441406 20.05347656 -50.58632812 20.04445313 -51.62890625 20.03515625 C-52.41136719 20.02355469 -53.19382812 20.01195313 -54 20 C-51.8883231 17.8883231 -50.78430458 17.43404876 -48.0078125 16.52734375 C-46.82638672 16.13772461 -46.82638672 16.13772461 -45.62109375 15.74023438 C-44.79738281 15.47533203 -43.97367188 15.21042969 -43.125 14.9375 C-42.30902344 14.66873047 -41.49304688 14.39996094 -40.65234375 14.12304688 C-37.11874826 12.96727869 -33.60899574 11.89374799 -30 11 C-27.21899717 10.1124459 -24.48245765 9.19790956 -21.78125 8.08984375 C-17.72659823 6.50101251 -13.58237481 5.1918951 -9.43945312 3.85546875 C-6.74520214 2.97272923 -4.1785986 2.09302632 -1.66015625 0.78125 C-1.11230469 0.5234375 -0.56445312 0.265625 0 0 Z " fill="#C5C4C7" transform="translate(130,54)"/>
<path d="M0 0 C1.06089844 0.03158203 2.12179688 0.06316406 3.21484375 0.09570312 C5.81283304 0.17762171 8.40491272 0.29222875 11 0.4375 C7.8074877 3.03671356 5.18140443 4.00750272 1.14453125 4.90625 C-1.69128601 5.60874754 -4.34003492 6.65614863 -7.05859375 7.71484375 C-9.9871796 8.80496122 -12.99065029 9.60156952 -16 10.4375 C-18.00361307 11.09322791 -20.00491933 11.75625294 -22 12.4375 C-20.85528044 7.71553181 -18.06418316 4.98441301 -14.48242188 1.92358398 C-9.89882103 -0.82035566 -5.18512163 -0.29527288 0 0 Z " fill="#F7F7F7" transform="translate(90,41.5625)"/>
<path d="M0 0 C0.495 1.98 0.495 1.98 1 4 C-9 7.33333333 -19 10.66666667 -29 14 C-29.66 14.66 -30.32 15.32 -31 16 C-34.41099168 16 -37.63088314 15.50854594 -41 15 C-40.67 14.34 -40.34 13.68 -40 13 C-38.38546444 12.51907451 -36.76729686 12.04835497 -35.13671875 11.625 C-32.80134736 10.9418932 -30.62007491 10.0625843 -28.375 9.125 C-23.36098012 7.06894612 -18.25583656 5.49930832 -13.06640625 3.94921875 C-10.43602618 3.13497371 -7.87950993 2.2423287 -5.3125 1.25 C-2 0 -2 0 0 0 Z " fill="#B5B4B8" transform="translate(135,61)"/>
<path d="M0 0 C1.65 0 3.3 0 5 0 C5 0.66 5 1.32 5 2 C5.66 2.33 6.32 2.66 7 3 C7 3.99 7 4.98 7 6 C7.66 6.33 8.32 6.66 9 7 C9.89453125 8.93359375 9.89453125 8.93359375 10.8125 11.4375 C12.57779369 16.08055547 14.68564906 20.40659194 17.046875 24.7734375 C18 27 18 27 18 31 C16.68 31 15.36 31 14 31 C12.86988348 28.7941576 11.74584212 26.58554973 10.625 24.375 C10.14933594 23.44880859 10.14933594 23.44880859 9.6640625 22.50390625 C8.18149511 19.5696583 6.93330358 16.79801865 5.8984375 13.6640625 C5.18069388 10.88464922 5.18069388 10.88464922 3 9 C2.40165446 7.47943382 1.86493344 5.93387912 1.375 4.375 C1.11460938 3.55773437 0.85421875 2.74046875 0.5859375 1.8984375 C0.39257812 1.27195312 0.19921875 0.64546875 0 0 Z " fill="#BDBCC0" transform="translate(73,107)"/>
<path d="M0 0 C4 4.75 4 4.75 4 7 C4.495 7.495 4.99 7.99 5.5 8.5 C5.995 8.995 6.49 9.49 7 10 C7 10.66 7 11.32 7 12 C16.57 12.33 26.14 12.66 36 13 C36 13.33 36 13.66 36 14 C31.35929747 14.02499343 26.71863539 14.04299677 22.07788086 14.05493164 C20.50398067 14.05991488 18.930085 14.0667039 17.35620117 14.07543945 C8.51396518 14.12323532 -0.2050103 14.0673356 -9 13 C-7.43351939 9.74700194 -5.62461834 7.08285272 -3.375 4.25 C-2.74335937 3.45078125 -2.11171875 2.6515625 -1.4609375 1.828125 C-0.97882812 1.22484375 -0.49671875 0.6215625 0 0 Z " fill="#737179" transform="translate(51,125)"/>
<path d="M0 0 C1.32 0.33 2.64 0.66 4 1 C3.67 2.98 3.34 4.96 3 7 C2.34773438 7.18175781 1.69546875 7.36351563 1.0234375 7.55078125 C-2.96872624 8.69896994 -6.64851739 9.8242587 -10.375 11.6875 C-13 13 -13 13 -17 13 C-17.99 13.33 -18.98 13.66 -20 14 C-20.66 12.35 -21.32 10.7 -22 9 C-21.26394531 8.73445313 -20.52789062 8.46890625 -19.76953125 8.1953125 C-18.79371094 7.84210938 -17.81789063 7.48890625 -16.8125 7.125 C-15.84957031 6.77695313 -14.88664062 6.42890625 -13.89453125 6.0703125 C-12.02075981 5.37744695 -10.15749476 4.65517202 -8.30859375 3.8984375 C-6 3 -6 3 -3.25 2.5 C-2.5075 2.335 -1.765 2.17 -1 2 C-0.67 1.34 -0.34 0.68 0 0 Z " fill="#908E94" transform="translate(133,78)"/>
<path d="M0 0 C2.475 0.495 2.475 0.495 5 1 C5 1.99 5 2.98 5 4 C5.66 4.33 6.32 4.66 7 5 C8.29066159 7.61052368 9.48116492 10.20140173 10.625 12.875 C10.94984375 13.60847656 11.2746875 14.34195313 11.609375 15.09765625 C14 20.61216518 14 20.61216518 14 24 C14.66 24.33 15.32 24.66 16 25 C16.33 25.99 16.66 26.98 17 28 C14.6875 27.8125 14.6875 27.8125 12 27 C9.08566732 22.8262881 7.04114503 18.09413177 4.875 13.5 C4.51535156 12.75363281 4.15570313 12.00726563 3.78515625 11.23828125 C2.02413768 7.51178128 0.54104434 4.13161134 0 0 Z " fill="#CCCBCE" transform="translate(83,107)"/>
<path d="M0 0 C1.65 0 3.3 0 5 0 C5.54269531 1.15757813 6.08539063 2.31515625 6.64453125 3.5078125 C7.36714847 5.04689333 8.0898069 6.5859548 8.8125 8.125 C9.34713867 9.26582031 9.34713867 9.26582031 9.89257812 10.4296875 C11.87458925 14.64827998 13.89407242 18.84129128 16 23 C14.35 23.66 12.7 24.32 11 25 C10.57976562 24.00484375 10.15953125 23.0096875 9.7265625 21.984375 C7.74209077 17.35316366 5.58592419 12.80695148 3.4296875 8.25390625 C2.14535017 5.52468943 0.95491935 2.86475805 0 0 Z " fill="#D9D8DA" transform="translate(91,107)"/>
<path d="M0 0 C0.37952295 6.19887485 -0.1647887 10.4477112 -3 16 C-7.63768531 12.3561044 -9.07369925 7.36905103 -11 2 C-7.12315913 0.80712589 -4.08378077 0 0 0 Z " fill="#F2F2F3" transform="translate(116,105)"/>
<path d="M0 0 C0.66 0 1.32 0 2 0 C2.33 0.99 2.66 1.98 3 3 C3.66 3.66 4.32 4.32 5 5 C5.69658363 6.65438613 6.36096883 8.32254318 7 10 C7.37125 10.70125 7.7425 11.4025 8.125 12.125 C9 14 9 14 9 17 C6.125 17.125 6.125 17.125 3 17 C1.00449854 15.00449854 0.18623607 13.52075165 -1 11 C-1.391875 10.360625 -1.78375 9.72125 -2.1875 9.0625 C-3.26388947 6.33012673 -2.87375535 4.76689195 -2 2 C-1.34 1.34 -0.68 0.68 0 0 Z " fill="#908E94" transform="translate(55,121)"/>
<path d="M0 0 C0.66 0.66 1.32 1.32 2 2 C-1.61328125 6.6875 -1.61328125 6.6875 -3 8 C-3.99 8 -4.98 8 -6 8 C-6.33 8.99 -6.66 9.98 -7 11 C-10.0625 12.1875 -10.0625 12.1875 -13 13 C-13 14.98 -13 16.96 -13 19 C-13.33 19 -13.66 19 -14 19 C-15.01234658 14.38819892 -15.15124282 10.60497127 -14 6 C-11.66029925 4.09357717 -9.80685102 3.96970212 -6.8125 3.5 C-5.4203125 3.2525 -5.4203125 3.2525 -4 3 C-3.67 2.34 -3.34 1.68 -3 1 C-2.01 0.67 -1.02 0.34 0 0 Z " fill="#75737A" transform="translate(130,91)"/>
<path d="M0 0 C2.3125 0.125 2.3125 0.125 5 1 C6.5625 3.5625 6.5625 3.5625 8 7 C8.71969549 8.4630306 9.44905301 9.92134386 10.1875 11.375 C10.79166667 12.58333333 11.39583333 13.79166667 12 15 C10.68 16.32 9.36 17.64 8 19 C6.46621464 16.21526125 4.9502442 13.42121662 3.4375 10.625 C2.99986328 9.8309375 2.56222656 9.036875 2.11132812 8.21875 C1.70205078 7.45820312 1.29277344 6.69765625 0.87109375 5.9140625 C0.48880615 5.2123291 0.10651855 4.5105957 -0.28735352 3.78759766 C-0.52252686 3.19769043 -0.7577002 2.6077832 -1 2 C-0.67 1.34 -0.34 0.68 0 0 Z " fill="#E8E7E9" transform="translate(101,107)"/>
<path d="M0 0 C0.12375 0.5775 0.2475 1.155 0.375 1.75 C1.00648824 4.02335767 1.88858191 5.9253529 3 8 C0.36 8 -2.28 8 -5 8 C-3.62845496 5.04590299 -2.01136276 2.55991624 0 0 Z " fill="#716F77" transform="translate(47,130)"/>
</svg>
