<svg width="18" height="18" viewBox="0 0 18 18" fill="none"
  xmlns="http://www.w3.org/2000/svg" fill="#A6AAAE">
  <g id="database_vector">
    <g id="Vector">
      <path d="M12.75 8.25L13.6875 6.1875L15.75 5.25L13.6875 4.3125L12.75 2.25L11.8125 4.3125L9.75 5.25L11.8125 6.1875L12.75 8.25Z" />
      <path d="M16.5 2.25C16.5 2.66421 16.1642 3 15.75 3C15.3358 3 15 2.66421 15 2.25C15 1.83579 15.3358 1.5 15.75 1.5C16.1642 1.5 16.5 1.83579 16.5 2.25Z" />
      <path fill-rule="evenodd" clip-rule="evenodd" d="M13.5 9.75C13.5 9.76915 13.4923 9.87718 13.2809 10.0646C13.0704 10.2513 12.723 10.4536 12.2293 10.6387C11.2475 11.0069 9.84073 11.25 8.25 11.25C6.65927 11.25 5.25255 11.0069 4.2707 10.6387C3.77701 10.4536 3.42959 10.2513 3.21906 10.0646C3.00767 9.87718 3 9.76915 3 9.75V7.96215C3.23183 8.08486 3.48196 8.19497 3.74402 8.29324C4.93374 8.73939 6.52702 9 8.25 9C8.50309 9 8.75338 8.99438 9 8.98337V7.48174C8.75539 7.49375 8.50506 7.5 8.25 7.5C6.65927 7.5 5.25255 7.25694 4.2707 6.88874C3.77701 6.70361 3.42959 6.50126 3.21906 6.31461C3.04462 6.15994 3.0089 6.05934 3.00175 6.01814C3.01323 5.99395 3.04357 5.94355 3.11704 5.86634C3.28137 5.69367 3.59005 5.46993 4.08624 5.2494C5.07483 4.81003 6.54568 4.5 8.25 4.5C8.50553 4.5 8.75581 4.50697 9 4.5203V3.01831C8.75375 3.00621 8.50351 3 8.25 3C4.52208 3 1.5 4.34315 1.5 6V13.5C1.5 15.1569 4.52208 16.5 8.25 16.5C11.9779 16.5 15 15.1569 15 13.5V9.75H13.5ZM13.5 13.4781C13.49 13.5005 13.4605 13.5521 13.383 13.6337C13.2186 13.8063 12.91 14.0301 12.4138 14.2506C11.4252 14.69 9.95432 15 8.25 15C6.54568 15 5.07483 14.69 4.08624 14.2506C3.59005 14.0301 3.28137 13.8063 3.11704 13.6337C3.03947 13.5521 3.00998 13.5005 3 13.4781V11.7121C3.23183 11.8349 3.48196 11.945 3.74402 12.0432C4.93374 12.4894 6.52702 12.75 8.25 12.75C9.97298 12.75 11.5663 12.4894 12.756 12.0432C13.018 11.945 13.2682 11.8349 13.5 11.7121V13.4781ZM13.5045 13.465C13.5045 13.465 13.5042 13.4676 13.5023 13.4727C13.5032 13.4676 13.5045 13.465 13.5045 13.465ZM2.99552 13.465C2.99552 13.465 2.99676 13.4676 2.99774 13.4727C2.99576 13.4676 2.99552 13.465 2.99552 13.465Z" />
    </g>
  </g>
</svg>
