<svg width="18" height="18" viewBox="0 0 18 18" fill="#A6AAAE"
  xmlns="http://www.w3.org/2000/svg">
  <g id="chains">
    <path id="Union" fill-rule="evenodd" clip-rule="evenodd" d="M0.75 13.5V15.75H2.25V13.5C2.25 12.5251 2.87833 11.6899 3.75 11.3793V12.75H5.25V11.3793C6.12167 11.6899 6.75 12.5251 6.75 13.5V15.75H8.25V13.5C8.25 11.6868 6.96101 10.1729 5.25 9.82512V8.17488C6.96101 7.82712 8.25 6.31318 8.25 4.5V2.25H6.75V4.5C6.75 5.47486 6.12167 6.31008 5.25 6.6207V5.25H3.75V6.6207C2.87833 6.31008 2.25 5.47486 2.25 4.5V2.25H0.75V4.5C0.75 6.31318 2.03899 7.82712 3.75 8.17488V9.82512C2.03899 10.1729 0.75 11.6868 0.75 13.5ZM9 8.25V7.5C9 5.68682 10.289 4.17288 12 3.82512V2.25H13.5V3.82512C15.211 4.17288 16.5 5.68682 16.5 7.5V8.25V10.5C16.5 12.3132 15.211 13.8271 13.5 14.1749V15.75H12V14.1749C10.289 13.8271 9 12.3132 9 10.5V8.25ZM13.5 12.6207V11.25H12V12.6207C11.1283 12.3101 10.5 11.4749 10.5 10.5V8.25V7.5C10.5 6.52514 11.1283 5.68992 12 5.3793V6.75H13.5V5.3793C14.3717 5.68992 15 6.52514 15 7.5V8.25V10.5C15 11.4749 14.3717 12.3101 13.5 12.6207Z"/>
  </g>
</svg>
