<svg version="1.2" xmlns="http://www.w3.org/2000/svg" viewBox="0 0 1564 1567" width="1564" height="1567">
	<title>output-onlinepngtools-svg</title>
	<style>
		.s0 { fill: #000000 } 
	</style>
	<g id="#000000ff">
		<path id="Layer" class="s0" d="m42 1.3q6.1-1.1 12.4-1.1c109.6 0.1 219.3-0.1 329 0.1 18.2 0 35.9 10.3 44.8 26.2 5.7 9.4 7.2 20.6 7.1 31.5-0.2 109.5 0.1 219-0.1 328.6 0.7 28-24 52.9-52 52.5-109.6 0.4-219.3 0.1-328.9 0.2-19.6 0.4-39.3-10.2-48.4-27.9-7.3-12.7-5.5-27.7-5.7-41.7 0.1-106.2 0-212.4 0.1-318.6-0.7-23.9 18.5-45.6 41.7-49.8zm559 1.2c11.8-3.4 24.1-2.1 36.1-2.3 102.9 0.1 205.7 0 308.5 0 20-0.4 39.7 11.3 48.3 29.5 5.1 9.8 5.2 21 5.1 31.8-0.2 108.5 0.1 216.9-0.1 325.4 1.1 28.6-25.2 53.3-53.5 52.3-109.7 0.1-219.3 0.2-329 0-27 0.5-52.2-22.5-52.3-49.9-0.3-111.6-0.1-223.3-0.2-334.9-1.4-23.1 14.8-45.7 37.1-51.9zm568.9-1.2c5.2-1 10.6-1.1 16-1.1 108.4 0.2 216.9-0.1 325.3 0.1 27.3-0.4 51.8 23.6 51.8 50.9 0.4 111.8 0.2 223.6 0.1 335.4 0.7 28-24 52.7-51.9 52.5-109.7 0.4-219.3 0.1-329 0.2-28.7 1.3-55.4-23.4-54.5-52.4-0.2-110.8 0-221.6-0.1-332.3-1.2-25 17.5-49.1 42.3-53.3zm-565.2 563.9c10.7-1.7 21.5-0.9 32.3-1 97 0 194.1 0 291.2-0.1 13.8 0.3 28.6-1.6 41.3 5.1 17.9 8.3 30 27.6 29.4 47.4 0 111.9 0.2 223.8-0.1 335.8 0.1 26.3-23.4 50-49.8 49.9-110.8 0.2-221.7 0-332.5 0.1-27.3 1.4-52.7-22.8-52.5-50.2-0.2-111.9 0-223.8 0-335.6-1-24.1 17.3-46.7 40.7-51.4zm568.7-0.7c108-0.8 216 0 323.9-0.4 11.9 0 24.4-0.8 35.3 4.6 19.8 8.7 31.8 30.3 30.6 51.7-0.2 110.5 0.3 221.1-0.2 331.7-0.3 27-24.5 51.1-51.7 50.3-110.8 0-221.7 0-332.5-0.1-20 0.4-39-12.7-46.7-31-5.7-12.4-4.4-26.3-4.5-39.5 0.1-105.1 0-210.1 0.1-315.2-0.8-25.6 20-49.8 45.7-52.1zm-10.1 565.7c10.5-3.3 21.6-2.8 32.5-2.8 105.2 0.2 210.3-0.2 315.5 0.2 27.5-0.5 51.8 23.9 51.7 51.3 0.4 110.6 0.1 221.1 0.2 331.7 0.8 19.8-9.5 40.2-27.5 49.3-12.6 7.4-27.7 6.6-41.8 6.5-105-0.2-210 0.1-315-0.1-27.6 0.1-51.8-24.5-51.2-52-0.2-105 0-210.1-0.1-315.1 0.1-11.1-0.9-22.5 2-33.3 4.3-16.6 17.5-30.4 33.7-35.7z"/>
	</g>
</svg>