<svg width="18" height="18" viewBox="0 0 24 20" fill="none" xmlns="http://www.w3.org/2000/svg">
<path fill-rule="evenodd" clip-rule="evenodd" d="M24 2.36764C23.1181 2.76923 22.1687 3.04081 21.1728 3.16215C22.1898 2.5381 22.9703 1.54857 23.338 0.369812C22.3856 0.947636 21.3334 1.368 20.2092 1.59334C19.3133 0.612492 18.0328 0 16.6156 0C13.8983 0 11.6936 2.26074 11.6936 5.04874C11.6936 5.44456 11.7359 5.82881 11.8204 6.19862C7.72812 5.98771 4.10072 3.97977 1.67071 0.921629C1.24669 1.66992 1.00439 2.5381 1.00439 3.46262C1.00439 5.21343 1.87357 6.75911 3.19493 7.66485C2.38915 7.64029 1.62845 7.41061 0.963547 7.03502V7.09713C0.963547 9.54422 2.66102 11.5854 4.91495 12.0476C4.5022 12.1661 4.06691 12.2253 3.61754 12.2253C3.30058 12.2253 2.99066 12.195 2.69062 12.1358C3.31748 14.1408 5.1347 15.6013 7.29001 15.6403C5.6052 16.9953 3.48089 17.8028 1.17485 17.8028C0.777598 17.8028 0.384575 17.7796 0 17.7334C2.17926 19.1636 4.76844 20 7.54781 20C16.6057 20 21.5573 12.3077 21.5573 5.63524C21.5573 5.41566 21.5531 5.19609 21.5447 4.98084C22.5067 4.26868 23.3422 3.38027 24 2.36764Z" fill="#00AAEC"/>
</svg>
