<?xml version="1.0" standalone="no"?>
<!DOCTYPE svg PUBLIC "-//W3C//DTD SVG 20010904//EN"
 "http://www.w3.org/TR/2001/REC-SVG-20010904/DTD/svg10.dtd">
<svg version="1.0" xmlns="http://www.w3.org/2000/svg"
 width="900.000000pt" height="900.000000pt" viewBox="0 0 900.000000 900.000000"
 preserveAspectRatio="xMidYMid meet">

<g transform="translate(0.000000,900.000000) scale(0.100000,-0.100000)"
fill="#000000" stroke="none">
<path d="M0 4500 l0 -4500 4500 0 4500 0 0 4500 0 4500 -4500 0 -4500 0 0
-4500z m3851 1032 c41 -32 135 -105 209 -162 74 -57 154 -119 178 -138 l42
-33 0 -694 c0 -593 -2 -696 -15 -708 -8 -8 -69 -57 -136 -108 -66 -52 -172
-133 -235 -181 l-113 -88 -956 0 -955 0 0 1085 0 1085 954 0 953 0 74 -58z
m3134 -177 l0 -230 -902 -3 -903 -2 0 -190 0 -190 725 0 724 0 245 -187 244
-188 4 -278 c1 -154 1 -282 -2 -286 -3 -4 -114 -91 -247 -194 l-243 -187 -910
0 -910 0 0 230 0 230 925 0 925 0 0 200 0 200 -726 0 -726 0 -93 73 c-51 39
-163 126 -249 192 l-156 120 0 267 0 267 253 195 252 196 885 -3 885 -2 0
-230z"/>
<path d="M2330 4500 l0 -620 740 0 740 0 0 620 0 620 -740 0 -740 0 0 -620z"/>
</g>
</svg>
