<svg height="512pt" viewBox="-11 0 512 512.0001" width="512pt" xmlns="http://www.w3.org/2000/svg"><path d="m490.011719 266.996094c0 135.3125-109.691407 245.003906-245.007813 245.003906-135.3125 0-245.003906-109.691406-245.003906-245.003906 0-135.316406 109.691406-245.007813 245.003906-245.007813 135.316406 0 245.007813 109.691407 245.007813 245.007813zm0 0" fill="#162680"/><path d="m269.777344 210.261719 47.929687-144.265625-250.910156-47.273438 40.164063 182.710938 161.828124 9.253906zm0 0" fill="#1d319b"/><path d="m66.796875 18.722656 40.164063 182.710938 82.597656 4.722656c.109375-1.652344.714844-3.128906 1.472656-4.371094 1.203125-1.96875.332031-4.511718-1.855469-5.25-17.921875-6.050781-16.523437-26.722656-16.523437-26.722656s0-48.667969 0-80.667969c0-23.050781 10.167968-32.433593 15.855468-35.882812 1.730469-1.046875 2.164063-3.34375 1.015626-5.007813-1.78125-2.582031-2.375-4.875-2.308594-6.84375zm0 0" fill="#162680"/><path d="m421.96875 436.441406-5.664062-97.480468c-.214844-3.703126-2.6875-6.890626-6.214844-8.019532l-89.949219-28.773437-40.917969-91.90625 46.992188-141.441407c.816406-2.453124.53125-5.140624-.78125-7.371093s-3.523438-3.785157-6.0625-4.261719l-250.914063-47.273438c-2.957031-.554687-5.996093.40625-8.09375 2.566407-2.097656 2.160156-2.96875 5.226562-2.320312 8.167969l40.164062 182.707031c.863281 3.925781 4.230469 6.796875 8.242188 7.023437l157.203125 8.992188 41.746094 93.757812c1.039062 2.335938 3.023437 4.113282 5.457031 4.890625l87.910156 28.125 6.183594 106.453125c5.925781-5.113281 11.605469-10.503906 17.019531-16.15625zm-158.691406-235.046875-149.019532-8.523437-35.796874-162.832032 227.507812 42.867188zm0 0" fill="#c78fe8"/><path d="m411.949219 378.59375c3.253906.660156 5.789062 2.882812 6.988281 5.726562l-2.632812-45.359374c-.214844-3.703126-2.6875-6.890626-6.21875-8.019532l-89.945313-28.773437-40.917969-91.90625 46.992188-141.441407c.816406-2.453124.53125-5.140624-.78125-7.371093s-3.523438-3.785157-6.066406-4.261719l-250.910157-47.273438c-2.957031-.554687-5.996093.40625-8.09375 2.566407-2.097656 2.160156-2.96875 5.226562-2.320312 8.167969l40.164062 182.707031c.863281 3.925781 4.230469 6.796875 8.242188 7.023437l157.203125 8.992188 41.746094 93.757812c1.039062 2.335938 3.023437 4.113282 5.457031 4.890625l87.910156 28.125 2.234375 38.464844c1.660156-4.339844 6.25-6.972656 10.949219-6.015625zm-148.671875-177.199219-149.019532-8.523437-35.796874-162.832032 227.507812 42.867188zm0 0" fill="#b26cde"/><path d="m191.03125 201.789062c.953125-1.5625.589844-3.46875-.6875-4.566406l-76.089844-4.351562-35.792968-162.832032 111.609374 21.03125c.207032-.9375.042969-1.957031-.546874-2.816406-4.601563-6.664062-1.335938-11.410156.976562-13.617187.453125-.4375.761719-.976563.925781-1.554688l-122.96875-23.167969c-2.957031-.554687-5.996093.40625-8.09375 2.566407-2.097656 2.160156-2.96875 5.226562-2.320312 8.167969l40.164062 182.707031c.863281 3.925781 4.230469 6.796875 8.242188 7.023437l88.203125 5.046875c-6.570313-5.367187-5.632813-10.351562-3.621094-13.636719zm0 0" fill="#9d4ad3"/><path d="m280.183594 421.371094-70.476563 21.914062-33.828125-107.167968c-1.488281-4.722657-6.519531-7.339844-11.246094-5.851563-4.71875 1.488281-7.339843 6.523437-5.847656 11.246094l35.445313 112.292969-22.660157 47c5.773438 1.8125 11.636719 3.414062 17.585938 4.800781l21.070312-43.707031 75.28125-23.40625c4.726563-1.472657 7.367188-6.496094 5.898438-11.222657-1.472656-4.726562-6.492188-7.367187-11.222656-5.898437zm0 0" fill="#c78fe8"/><path d="m319.25 281.492188c-14.824219-3.015626-29.289062 6.558593-32.300781 21.382812-3.015625 14.824219 6.554687 29.285156 21.382812 32.300781 14.824219 3.015625 29.285157-6.558593 32.300781-21.382812 3.015626-14.824219-6.558593-29.285157-21.382812-32.300781zm0 0" fill="#fadda0"/><path d="m321.34375 318.523438c-9.714844-1.972657-15.988281-11.453126-14.011719-21.167969 1.6875-8.296875 8.847657-14.0625 16.949219-14.347657-1.597656-.660156-3.277344-1.191406-5.035156-1.546874-14.824219-3.015626-29.285156 6.558593-32.300782 21.382812-3.015624 14.828125 6.558594 29.289062 21.386719 32.300781 14.824219 3.015625 29.285157-6.558593 32.296875-21.382812.359375-1.757813.527344-3.511719.542969-5.242188-3.425781 7.351563-11.53125 11.691407-19.828125 10.003907zm0 0" fill="#face7a"/><path d="m71.886719.417969c-11.019531-2.242188-21.769531 4.875-24.011719 15.894531-2.238281 11.019531 4.875 21.769531 15.894531 24.011719 11.023438 2.242187 21.773438-4.875 24.011719-15.894531 2.242188-11.019532-4.875-21.769532-15.894531-24.011719zm0 0" fill="#fadda0"/><path d="m73.929688 27.339844c-7.027344-1.429688-11.570313-8.289063-10.140626-15.320313 1.207032-5.933593 6.285157-10.078125 12.066407-10.371093-1.257813-.535157-2.582031-.953126-3.972657-1.238282-11.019531-2.238281-21.769531 4.878906-24.011718 15.898438-2.238282 11.019531 4.878906 21.769531 15.898437 24.011718 11.019531 2.242188 21.769531-4.875 24.011719-15.894531.28125-1.390625.414062-2.777343.410156-4.140625-2.527344 5.207032-8.324218 8.261719-14.261718 7.054688zm0 0" fill="#face7a"/><path d="m269.8125 193.261719c-9.546875-1.941407-18.863281 4.226562-20.804688 13.773437-1.941406 9.546875 4.222657 18.859375 13.773438 20.800782 9.546875 1.941406 18.859375-4.222657 20.800781-13.769532 1.941407-9.546875-4.222656-18.859375-13.769531-20.804687zm0 0" fill="#fc9949"/><path d="m271.160156 217.109375c-6.257812-1.273437-10.296875-7.375-9.027344-13.632813 1.085938-5.339843 5.699219-9.058593 10.917969-9.238281-1.03125-.425781-2.109375-.765625-3.242187-.996093-9.546875-1.941407-18.863282 4.222656-20.800782 13.769531-1.941406 9.546875 4.222657 18.863281 13.769532 20.804687 9.550781 1.941406 18.863281-4.226562 20.804687-13.773437.230469-1.132813.335938-2.261719.347657-3.375-2.207032 4.734375-7.429688 7.527343-12.769532 6.441406zm0 0" fill="#fd7e31"/><path d="m409.535156 322.351562c-9.613281-1.957031-18.992187 4.25-20.945312 13.863282-1.957032 9.613281 4.25 18.992187 13.863281 20.949218 9.613281 1.953126 18.992187-4.253906 20.949219-13.867187 1.953125-9.613281-4.253906-18.992187-13.867188-20.945313zm0 0" fill="#fd7e31"/><path d="m410.890625 346.347656c-6.300781-1.28125-10.367187-7.429687-9.085937-13.726562 1.09375-5.382813 5.734374-9.121094 10.992187-9.304688-1.039063-.429687-2.125-.773437-3.265625-1.003906-9.617188-1.957031-18.992188 4.253906-20.949219 13.867188-1.953125 9.613281 4.253907 18.992187 13.871094 20.949218 9.613281 1.953125 18.992187-4.257812 20.945313-13.871094.234374-1.140624.339843-2.273437.351562-3.398437-2.222656 4.765625-7.480469 7.582031-12.859375 6.488281zm0 0" fill="#fc6442"/><path d="m196.914062 402.757812-21.035156-66.640624c-1.492187-4.71875-6.523437-7.339844-11.246094-5.851563-4.71875 1.492187-7.339843 6.527344-5.851562 11.246094l20.660156 65.445312c2.128906-7.792969 12.019532-10.179687 17.472656-4.199219zm0 0" fill="#b26cde"/><path d="m112.664062 180.671875c-11.019531-2.242187-21.769531 4.875-24.007812 15.894531-2.242188 11.019532 4.875 21.769532 15.894531 24.011719s21.769531-4.875 24.011719-15.894531c2.238281-11.019532-4.875-21.769532-15.898438-24.011719zm0 0" fill="#83d3fc"/><path d="m114.71875 207.585938c-7.03125-1.429688-11.570312-8.289063-10.144531-15.320313 1.207031-5.933594 6.285156-10.078125 12.066406-10.371094-1.253906-.539062-2.582031-.957031-3.972656-1.238281-11.019531-2.242188-21.769531 4.875-24.011719 15.898438-2.238281 11.019531 4.878906 21.769531 15.898438 24.007812 11.019531 2.242188 21.769531-4.875 24.011718-15.894531.28125-1.390625.414063-2.777344.410156-4.140625-2.527343 5.207031-8.324218 8.265625-14.257812 7.058594zm0 0" fill="#61b6ff"/><path d="m322.882812 40.917969c-13.878906-2.824219-27.421874 6.140625-30.246093 20.023437-2.820313 13.878906 6.144531 27.421875 20.023437 30.246094 13.882813 2.820312 27.421875-6.144531 30.246094-20.023438 2.824219-13.882812-6.140625-27.421874-20.023438-30.246093zm0 0" fill="#fc7acd"/><path d="m325.449219 74.816406c-8.855469-1.800781-14.574219-10.4375-12.773438-19.292968 1.519531-7.476563 7.914063-12.695313 15.199219-13.066407-1.582031-.675781-3.253906-1.203125-5.003906-1.558593-13.882813-2.824219-27.421875 6.140624-30.246094 20.023437s6.144531 27.425781 20.023438 30.246094c13.882812 2.824219 27.425781-6.140625 30.246093-20.023438.355469-1.75.523438-3.496093.519531-5.214843-3.183593 6.558593-10.488281 10.40625-17.964843 8.886718zm0 0" fill="#f948b4"/><path d="m169.726562 318.378906c-9.933593-2.023437-19.625 4.394532-21.644531 14.328125-2.019531 9.933594 4.394531 19.621094 14.328125 21.644531 9.933594 2.019532 19.621094-4.394531 21.644532-14.328124 2.019531-9.9375-4.394532-19.625-14.328126-21.644532zm0 0" fill="#face7a"/><path d="m171.578125 342.625c-6.335937-1.289062-10.429687-7.472656-9.140625-13.808594 1.085938-5.347656 5.664062-9.082031 10.875-9.347656-1.132812-.484375-2.328125-.863281-3.582031-1.117188-9.929688-2.019531-19.621094 4.398438-21.640625 14.328126-2.023438 9.9375 4.394531 19.625 14.328125 21.644531 9.933593 2.019531 19.625-4.394531 21.644531-14.328125.253906-1.253906.375-2.5.371094-3.730469-2.28125 4.691406-7.507813 7.445313-12.855469 6.359375zm0 0" fill="#fbb362"/><path d="m207.277344 437.589844c-9.351563-1.902344-18.476563 4.140625-20.378906 13.492187-1.902344 9.355469 4.136718 18.480469 13.488281 20.382813 9.355469 1.902344 18.480469-4.140625 20.382812-13.492188 1.902344-9.355468-4.136719-18.480468-13.492187-20.382812zm0 0" fill="#83d3fc"/><path d="m208.613281 460.945312c-6.128906-1.246093-10.089843-7.226562-8.84375-13.355468 1.066407-5.234375 5.582031-8.875 10.695313-9.054688-1.007813-.414062-2.066406-.75-3.175782-.976562-9.355468-1.902344-18.476562 4.140625-20.378906 13.496094-1.902344 9.351562 4.136719 18.476562 13.492188 20.378906 9.355468 1.902344 18.480468-4.140625 20.378906-13.492188.226562-1.109375.332031-2.214844.34375-3.308594-2.164062 4.636719-7.277344 7.375-12.511719 6.3125zm0 0" fill="#61b6ff"/><path d="m309.300781 399.078125c-14.46875-2.945313-28.582031 6.398437-31.527343 20.867187-2.941407 14.46875 6.402343 28.585938 20.871093 31.527344 14.46875 2.945313 28.585938-6.398437 31.527344-20.867187s-6.402344-28.585938-20.871094-31.527344zm0 0" fill="#fadda0"/><path d="m311.996094 434.398438c-9.230469-1.878907-15.191406-10.882813-13.316406-20.113282 1.585937-7.792968 8.25-13.234375 15.839843-13.617187-1.648437-.707031-3.390625-1.257813-5.214843-1.628907-14.46875-2.941406-28.582032 6.40625-31.523438 20.875-2.945312 14.46875 6.398438 28.582032 20.871094 31.523438 14.46875 2.945312 28.582031-6.402344 31.523437-20.871094.371094-1.824218.546875-3.644531.539063-5.433594-3.316406 6.835938-10.929688 10.847657-18.71875 9.265626zm0 0" fill="#face7a"/></svg>