<svg height="512pt" viewBox="-11 0 512 512.00003" width="512pt" xmlns="http://www.w3.org/2000/svg"><path d="m423.070312 435.261719c41.484376-43.890625 66.929688-103.101563 66.929688-168.261719 0-135.308594-109.6875-245-245-245-135.308594 0-245 109.6875-245 245 0 11.585938.824219 22.976562 2.378906 34.136719zm0 0" fill="#162680"/><path d="m210.359375 154.28125c-95.722656 0-177.246094 60.761719-208.128906 145.816406 16.164062 119.652344 118.683593 211.902344 242.769531 211.902344 70.535156 0 134.097656-29.820312 178.800781-77.523438 5.152344-18.738281 7.921875-38.464843 7.921875-58.835937 0-122.253906-99.109375-221.359375-221.363281-221.359375zm0 0" fill="#83d3fc"/><path d="m2.234375 300.09375c8.484375 62.835938 40.796875 118.101562 87.527344 156.429688-8.207031-72.839844 36.492187-80.164063 48.316406-111.148438 9.53125-24.976562 22.96875-30.960938 31.125-32.113281 4.082031-.574219 7.148437-4.003907 7.148437-8.125v-148.25c-80.671874 12.4375-146.96875 68.429687-174.117187 143.207031zm0 0" fill="#5294e5"/><path d="m197.089844 420.105469c7.28125-10.742188 13.484375-23.855469 9.925781-36.335938-2.902344-10.164062-11.6875-17.53125-20.773437-22.933593-14.613282-8.695313-31.21875-14.027344-48.164063-15.457032-8.273437-.699218-16.800781-.519531-24.21875-5.101562-2.921875-1.804688-5.34375-4.390625-6.628906-7.574219-3.699219-9.191406 3.273437-17.128906 8.289062-24.671875 4.460938-6.71875 7.109375-16.957031.757813-21.925781-2.191406-1.710938-5.003906-2.339844-7.597656-3.335938-17.730469-6.800781-22.679688-34.632812-7.25-46.515625 1.277343-.984375 2.332031-2.261718 2.941406-3.753906 2.867187-7.039062-5.488282-10.417969-11.523438-12.835938-8.417968-3.375-15.136718-10.011718-19.355468-18.007812-32.109376 25.296875-57.046876 59.292969-71.261719 98.433594 12.199219 90.332031 73.617187 165.03125 156.378906 196.226562 7.90625 1.078125 15.648437 4.195313 23.582031 3.402344.429688-.042969.863282-.105469 1.292969-.1875 9.203125-1.710938 11.550781-13.558594 4.070313-19.183594-7.34375-5.515625-10.882813-16.8125-9.015626-26.363281 2.492188-12.738281 11.273438-23.136719 18.550782-33.878906zm0 0" fill="#5294e5"/><path d="m138.078125 345.375c-8.273437-.699219-16.800781-.519531-24.21875-5.097656-2.921875-1.804688-5.34375-4.390625-6.628906-7.574219-3.699219-9.191406 3.277343-17.128906 8.289062-24.671875 4.464844-6.71875 7.109375-16.957031.757813-21.925781-2.191406-1.710938-5.003906-2.339844-7.597656-3.335938-17.730469-6.800781-22.679688-34.632812-7.25-46.515625 1.277343-.984375 2.332031-2.261718 2.941406-3.753906 2.867187-7.039062-5.488282-10.417969-11.523438-12.835938-8.417968-3.375-15.136718-10.011718-19.355468-18.007812-32.109376 25.296875-57.046876 59.292969-71.261719 98.433594 8.488281 62.835937 40.792969 118.101562 87.53125 156.429687-8.203125-72.835937 36.492187-80.160156 48.316406-111.144531zm0 0" fill="#4374d3"/><path d="m118.761719 185.554688c8.066406 2.457031 12.171875 6.503906 15.851562 12.90625 1.855469 3.222656 5.019531 5.488281 8.691407 6.105468 11.242187 1.109375 20.542968-8.355468 27.109374-17.546875 3.914063-5.480469 7.6875-12.414062 5.070313-18.621093-.980469-2.328126-2.777344-4.242188-3.726563-6.582032-.527343-1.296875-.761718-2.648437-.855468-4.023437-23.972656 4.3125-46.601563 12.492187-67.230469 23.863281 5.027344 1.285156 10.128906 2.390625 15.089844 3.898438zm0 0" fill="#4374d3"/><path d="m213.691406 154.320312c-9.839844 11.097657-14.292968 27.140626-10.375 41.535157 1.128906 4.132812 2.867188 8.433593 1.707032 12.5625-.910157 3.234375-3.445313 5.707031-5.714844 8.191406-.03125.03125-.0625.066406-.089844.097656-4.769531 5.238281.933594 13.386719 7.515625 10.773438 13.339844-5.296875 23.785156-20.933594 29.21875-7.699219 8.71875 21.222656 26.5625 14.527344 26.5625 14.527344 9.070313-4.769532 20.097656-1.574219 29.808594 1.699218 10.058593 3.390626 22.785156 11.457032 14.675781 22.476563-1.292969 1.757813-2.988281 3.117187-4.90625 4.074219-5.28125 2.632812-8.1875 8.644531-6.765625 14.375 1.167969 4.6875 5.210937 9.300781 15.738281 11.179687 17.316406 2.996094 33.414063 12.527344 44.371094 26.261719 1.539062 1.929688 3.035156 4.082031 3.191406 6.546875.234375 3.632813-2.46875 6.753906-5.207031 9.152344-17.703125 15.523437-44.945313 21.210937-55.398437 42.308593-6.691407 13.496094-4.28125 29.773438.832031 43.941407 4.660156 12.914062 11.433593 25.0625 19.972656 35.8125 5.417969 6.816406 11.792969 13.613281 13.097656 22.226562 1.132813 7.507813-1.847656 14.960938-4.769531 21.972657-.246094.597656-.496094 1.195312-.746094 1.792968 37.488282-13.203125 70.789063-35.261718 97.40625-63.671875 5.148438-18.730469 7.90625-38.453125 7.90625-58.820312 0-121.136719-97.316406-219.53125-218.03125-221.316407zm0 0" fill="#00c82f"/><path d="m425.953125 325.257812c-17.367187 12.253907-40.105469 18.808594-49.449219 37.660157-6.6875 13.496093-4.28125 29.773437.832032 43.941406 4.660156 12.914063 11.4375 25.058594 19.976562 35.808594 2.5625 3.230469 5.335938 6.453125 7.691406 9.867187 6.578125-5.679687 12.84375-11.707031 18.78125-18.046875 5.160156-18.742187 7.933594-38.46875 7.933594-58.847656.003906-17.332031-2-34.199219-5.765625-50.382813zm0 0" fill="#a2ec00"/><path d="m420.855469 226.425781c0 75.722657-61.386719 137.109375-137.109375 137.109375s-137.109375-61.386718-137.109375-137.109375c0-75.722656 61.386719-137.109375 137.109375-137.109375s137.109375 61.386719 137.109375 137.109375zm0 0" fill="#fc7acd"/><path d="m283.746094 89.316406c-75.722656 0-137.109375 61.382813-137.109375 137.109375 0 32.300781 11.175781 61.984375 29.863281 85.417969 2.78125-28.273438 22.75-31.179688 33.566406-30.617188 3.800782.195313 7.414063-1.878906 9.082032-5.300781 4.796874-9.832031 13.414062-10.519531 18.523437-9.921875 2.859375.332032 5.714844-.617187 7.804687-2.59375l138.363282-130.675781c-25.019532-26.71875-60.605469-43.417969-100.09375-43.417969zm0 0" fill="#f6159c"/><path d="m370.71875 226.425781c0 48.03125-38.9375 86.972657-86.972656 86.972657s-86.972656-38.941407-86.972656-86.972657c0-48.035156 38.9375-86.972656 86.972656-86.972656s86.972656 38.9375 86.972656 86.972656zm0 0" fill="#f6159c"/><path d="m283.746094 139.453125c-48.03125 0-86.972656 38.9375-86.972656 86.972656 0 20.214844 6.898437 38.816407 18.46875 53.585938 1.65625-.921875 3.042968-2.320313 3.90625-4.085938 4.796874-9.832031 13.414062-10.523437 18.523437-9.921875 2.859375.332032 5.710937-.617187 7.804687-2.59375l101.914063-96.253906c-15.878906-17.042969-38.515625-27.703125-63.644531-27.703125zm0 0" fill="#c6237c"/><path d="m460.375.1875c-35.714844 15.386719-76.574219 19.742188-89.757812 59.304688-12.90625 38.71875-37.671876 50.160156-50.140626 53.519531-9.75 2.625-18.027343 9.429687-21.722656 19.65625-5.726562 15.851562-15.488281 26.191406-15.488281 26.191406l2.332031-1.238281c1.832032-.972656 3.714844-1.601563 5.601563-1.867188 2.585937-.363281 5.191406-.09375 7.945312.191406 1.398438.144532 2.84375.292969 4.285157.351563 3.308593.132813 6.867187-.195313 11.199218-1.027344 6.398438-1.230469 12.742188 2.394531 15.070313 8.625.734375 1.964844 2.148437 3.671875 3.515625 5.320313 1.863281 2.25 3.621094 4.371094 3.453125 6.824218-.148438 2.167969-1.757813 3.945313-3.457031 5.832032-.398438.433594-.789063.867187-1.160157 1.308594-4.878906 5.730468-6.933593 13.566406-5.496093 20.957031.046874.238281.097656.480469.148437.722656.269531 1.289063.523437 2.507813.230469 3.585937-.316406 1.167969-1.253906 2.125-2.25 3.140626-.476563.484374-.96875.984374-1.414063 1.53125-3.03125 3.726562-3.1875 8.515624-3.335937 13.144531-.109375 3.304687-.21875 6.722656-1.402344 9.628906-1.328125 3.257813-3.886719 5.753906-6.597656 8.394531-2.335938 2.277344-4.75 4.628906-6.378906 7.558594-.742188 1.339844-1.308594 2.773438-1.859376 4.164062-1.003906 2.539063-1.957031 4.9375-3.835937 6.550782-1.273437 1.085937-2.882813 1.726562-4.585937 2.40625-1.53125.609375-3.117188 1.238281-4.53125 2.242187-1.429688 1.015625-2.550782 2.316407-3.632813 3.578125-.394531.457032-.789063.917969-1.199219 1.359375-.285156.3125-.589844.601563-.894531.894531 20.148437-.335937 47.390625-9.414062 79.132813-41.984374 1.105468-1.132813.15625-3.027344-1.410157-2.8125-12.707031 1.746093-42.164062 2.347656 10.398438-42.167969 69.476562-58.835938-15.898438-75.863281 77.765625-170.054688 4.175781-4.199219 8.136718-8.335937 11.902344-12.40625 1.570312-1.703125-.300782-4.339843-2.429688-3.425781zm0 0" fill="#face7a"/><path d="m291.199219 155.757812c2.585937-.367187 5.1875-.097656 7.941406.1875 1.402344.144532 2.847656.292969 4.289063.351563 3.304687.132813 6.863281-.195313 11.199218-1.027344 6.398438-1.230469 12.738282 2.394531 15.070313 8.625.734375 1.964844 2.148437 3.671875 3.515625 5.320313 1.859375 2.246094 3.621094 4.371094 3.449218 6.824218-.144531 2.167969-1.753906 3.945313-3.453124 5.832032-.398438.433594-.789063.867187-1.160157 1.308594-4.878906 5.730468-6.933593 13.566406-5.496093 20.957031.046874.238281.097656.480469.148437.722656.269531 1.289063.523437 2.507813.230469 3.585937-.316406 1.167969-1.253906 2.125-2.25 3.140626-.476563.484374-.96875.984374-1.414063 1.53125-3.03125 3.726562-3.1875 8.515624-3.335937 13.144531-.109375 3.304687-.21875 6.722656-1.402344 9.628906-1.328125 3.257813-3.886719 5.753906-6.597656 8.394531-2.335938 2.277344-4.75 4.628906-6.378906 7.558594-.742188 1.339844-1.308594 2.773438-1.859376 4.164062-1.003906 2.539063-1.957031 4.9375-3.835937 6.550782-1.273437 1.085937-2.882813 1.726562-4.585937 2.40625-1.53125.609375-3.117188 1.238281-4.53125 2.242187-1.429688 1.015625-2.550782 2.316407-3.632813 3.578125-.394531.457032-.789063.917969-1.199219 1.359375-.289062.3125-.589844.601563-.894531.894531 20.144531-.335937 47.390625-9.414062 79.132813-41.984374 1.105468-1.132813.15625-3.027344-1.410157-2.8125-12.707031 1.746093-42.164062 2.347656 10.398438-42.167969-18.0625 2.347656-19.15625-13.109375-18.34375-21.976563.28125-3.070312-1.78125-5.796875-4.765625-6.578125-8.628906-2.253906-9.351563-9.835937-8.773438-14.949219.308594-2.71875-1.195312-5.34375-3.71875-6.390624-17.320312-7.183594-7.644531-26.605469-7.640625-26.609376-3.542969 1.636719-6.761719 2.726563-9.421875 3.441407-9.75 2.625-18.023437 9.429687-21.71875 19.65625-5.730468 15.851562-15.488281 26.191406-15.488281 26.191406l2.328125-1.238281c1.832031-.972656 3.71875-1.601563 5.605469-1.863282zm0 0" fill="#fbb362"/><path d="m372.835938 114.085938c-4.425782 3.34375-8.933594 6.878906-13.523438 10.621093-19.1875 15.636719-35.09375 25.347657-48.699219 31.214844 1.269531-.167969 2.597657-.378906 4.015625-.652344 6.398438-1.230469 12.738282 2.394531 15.070313 8.625.734375 1.964844 2.148437 3.671875 3.515625 5.324219 1.859375 2.246094 3.621094 4.367188 3.449218 6.824219-.144531 2.164062-1.753906 3.945312-3.453124 5.828125-.398438.4375-.789063.871094-1.160157 1.308594-2.339843 2.75-4.023437 5.988281-4.992187 9.425781 25.050781-15.695313 33.472656-47.816407 48.941406-75.761719 1.121094-2.027344-1.320312-4.15625-3.164062-2.757812zm0 0" fill="#fbb362"/><path d="m329.699219 163.894531c.734375 1.964844 2.148437 3.671875 3.515625 5.320313 1.859375 2.246094 3.621094 4.371094 3.449218 6.824218-.144531 2.164063-1.753906 3.945313-3.453124 5.828126-.398438.4375-.789063.871093-1.160157 1.308593-2.339843 2.753907-4.023437 5.992188-4.992187 9.429688 12.011718-7.527344 20.199218-18.835938 27.175781-31.644531-.789063-1.660157-2.304687-2.945313-4.207031-3.441407-8.628906-2.257812-9.351563-9.839843-8.769532-14.953125.144532-1.300781-.132812-2.578125-.730468-3.675781-11.132813 7.703125-21.019532 13.195313-29.914063 17.03125 1.269531-.167969 2.597657-.378906 4.015625-.652344 6.398438-1.230469 12.738282 2.394531 15.070313 8.625zm0 0" fill="#fc9949"/><path d="m301.113281 99.214844c1.660157-2.984375 5.125-4.746094 6.414063-7.910156 1.441406-3.535157-.164063-8.101563 2.246094-11.0625.671874-.820313 1.632812-1.480469 1.910156-2.503907.210937-.773437-.023438-1.589843-.175782-2.375-.667968-3.445312.308594-7.167969 2.582032-9.839843.996094-1.171876 2.296875-2.300782 2.402344-3.839844.164062-2.402344-2.648438-4.035156-3.464844-6.210938-1.171875-3.140625-4.488282-5.28125-8.046875-4.597656-1.777344.34375-3.574219.570312-5.378907.496094-2.042968-.082032-4.09375-.546875-6.121093-.261719-3.113281.441406-5.765625 2.632813-7.476563 5.277344-1.226562 1.894531-2.066406 4.0625-3.578125 5.742187-1.964843 2.183594-4.824219 3.285156-7.300781 4.863282-4.765625 3.042968-8.117188 7.910156-10.429688 13.070312-1.066406 2.378906-1.949218 4.882812-2.105468 7.484375-.144532 2.386719.324218 4.765625.84375 7.101563.554687 2.492187 1.183594 5.007812 2.429687 7.238281.910157 1.632812 2.128907 3.074219 3.394531 4.453125 2.441407 2.664062 5.199219 5.21875 8.617188 6.386718 4.644531 1.585938 10.164062.1875 13.496094-3.417968.746094-.804688 1.398437-1.71875 2.292968-2.355469 1.386719-.984375 3.230469-1.210937 4.523438-2.316406 1.574219-1.34375 1.921875-3.609375 2.925781-5.421875zm0 0" fill="#fc9949"/><path d="m293.398438 98.613281c-3.417969-1.167969-6.175782-3.71875-8.617188-6.382812-1.265625-1.378907-2.484375-2.820313-3.394531-4.453125-1.246094-2.230469-1.875-4.746094-2.429688-7.242188-.519531-2.332031-.988281-4.710937-.84375-7.101562.15625-2.597656 1.039063-5.105469 2.105469-7.484375.496094-1.109375 1.054688-2.203125 1.652344-3.269531-1.925782 1.824218-4.492188 2.875-6.746094 4.3125-4.765625 3.042968-8.121094 7.910156-10.433594 13.070312-1.066406 2.378906-1.945312 4.882812-2.105468 7.484375-.144532 2.390625.324218 4.769531.84375 7.101563.554687 2.496093 1.1875 5.011718 2.429687 7.242187.914063 1.632813 2.132813 3.074219 3.394531 4.453125 2.441406 2.664062 5.199219 5.214844 8.621094 6.382812 4.644531 1.589844 10.164062.191407 13.496094-3.414062.742187-.808594 1.394531-1.71875 2.289062-2.355469 1.386719-.984375 3.234375-1.210937 4.527344-2.316406 1.574219-1.347656 1.921875-3.613281 2.925781-5.425781.121094-.214844.265625-.410156.402344-.613282-2.617187.855469-5.503906.90625-8.117187.011719zm0 0" fill="#fd7e31"/><path d="m297.015625 34.347656c-3.445313-3.210937-3.636719-8.605468-.425781-12.054687l16.125-17.304688c3.210937-3.445312 8.605468-3.632812 12.050781-.425781 3.449219 3.210938 3.636719 8.605469.425781 12.054688l-16.125 17.304687c-3.210937 3.445313-8.605468 3.636719-12.050781.425781zm0 0" fill="#fbb362"/><path d="m306.554688 252.398438c3.367187-6.070313 10.417968-9.648438 13.035156-16.078126 2.925781-7.1875-.335938-16.464843 4.566406-22.480468 1.363281-1.671875 3.316406-3.011719 3.878906-5.097656.425782-1.570313-.050781-3.226563-.359375-4.824219-1.359375-6.996094.625-14.570313 5.246094-20 2.027344-2.382813 4.671875-4.675781 4.882813-7.800781.335937-4.878907-5.382813-8.203126-7.039063-12.625-2.386719-6.382813-9.121094-10.734376-16.355469-9.34375-3.613281.695312-7.261718 1.15625-10.933594 1.007812-4.15625-.167969-8.320312-1.109375-12.4375-.53125-6.332031.890625-11.726562 5.351562-15.199218 10.71875-2.496094 3.859375-4.203125 8.265625-7.277344 11.679688-3.996094 4.433593-9.804688 6.671874-14.835938 9.882812-9.6875 6.1875-16.5 16.078125-21.203124 26.566406-2.167969 4.832032-3.957032 9.925782-4.277344 15.210938-.292969 4.851562.65625 9.6875 1.714844 14.433594 1.128906 5.070312 2.40625 10.183593 4.9375 14.71875 1.855468 3.316406 4.332031 6.242187 6.898437 9.046874 4.964844 5.417969 10.566406 10.605469 17.519531 12.980469 9.441406 3.226563 20.660156.382813 27.429688-6.945312 1.515625-1.640625 2.839844-3.492188 4.65625-4.785157 2.820312-2 6.570312-2.460937 9.195312-4.710937 3.203125-2.738281 3.910156-7.339844 5.957032-11.023437zm0 0" fill="#fd7e31"/><path d="m282.59375 259.269531c-2.6875-4.050781-5.3125-8.222656-6.78125-12.859375-1.597656-5.050781-1.753906-10.445312-1.464844-15.734375.625-11.476562 3.433594-23.15625 10.253906-32.402343 3.542969-4.804688 8.160157-8.980469 10.296876-14.550782 1.648437-4.292968 1.65625-9.015625 2.601562-13.511718 1.265625-6.035157 4.507812-11.910157 9.75-15.109376-1.253906.078126-2.511719.101563-3.773438.054688-4.15625-.167969-8.320312-1.109375-12.4375-.53125-6.328124.890625-11.722656 5.347656-15.199218 10.71875-2.496094 3.859375-4.199219 8.265625-7.277344 11.679688-3.992188 4.433593-9.800781 6.671874-14.832031 9.882812-9.683594 6.1875-16.503907 16.078125-21.203125 26.566406-2.167969 4.832032-3.957032 9.925782-4.277344 15.210938-.296875 4.851562.65625 9.6875 1.714844 14.433594 1.128906 5.070312 2.40625 10.183593 4.9375 14.714843 1.851562 3.320313 4.332031 6.246094 6.898437 9.050781 4.964844 5.414063 10.566407 10.605469 17.519531 12.980469 9.441407 3.222657 20.660157.382813 27.429688-6.945312 1.164062-1.257813 2.21875-2.640625 3.46875-3.800781-2.914062-2.941407-5.324219-6.386719-7.625-9.847657zm0 0" fill="#fc5d1f"/><path d="m447.722656 149.820312c0 6.28125-5.089844 11.367188-11.367187 11.367188-6.277344 0-11.367188-5.085938-11.367188-11.367188 0-6.277343 5.089844-11.367187 11.367188-11.367187 6.277343 0 11.367187 5.089844 11.367187 11.367187zm0 0" fill="#fc9949"/><path d="m407.710938 200.339844c0 4.707031-3.816407 8.523437-8.523438 8.523437s-8.523438-3.816406-8.523438-8.523437c0-4.707032 3.816407-8.523438 8.523438-8.523438s8.523438 3.816406 8.523438 8.523438zm0 0" fill="#face7a"/></svg>