<svg height="511pt" viewBox="-10 0 511 511.99969" width="511pt" xmlns="http://www.w3.org/2000/svg"><path d="m459.917969 385.59375c19.476562-35.144531 30.582031-75.570312 30.582031-118.59375 0-135.308594-109.6875-245-245-245-135.308594 0-245 109.691406-245 245 0 43.023438 11.101562 83.445312 30.578125 118.585938zm0 0" fill="#eec707"/><path d="m436.324219 420.648438c-15.191407-6.140626-25.914063-21.019532-25.914063-38.410157 0-18.808593 12.542969-34.671875 29.71875-39.722656-21.90625-38.402344-41.328125-53.652344-41.328125-53.652344h-2.519531c-49.515625 74.625-19.089844 145.050781-19.089844 145.050781 1.042969 3.371094 1.621094 7.128907 1.867188 11.164063 0 0-2.003906 8.957031.433594 27.046875 21.539062-14.097656 40.71875-31.496094 56.832031-51.476562zm0 0" fill="#fd7e31"/><path d="m427.347656 431.152344c-2.527344-8.632813-5.382812-16.558594-8.453125-23.8125-3.453125-4.519532-6-9.769532-7.359375-15.484375-13.980468-26.3125-30.058594-41.371094-39.210937-48.476563-12.164063 51.109375 4.863281 90.535156 4.863281 90.535156 1.042969 3.371094 1.625 7.128907 1.867188 11.164063 0 0-2 8.957031.4375 27.046875 17.671874-11.566406 33.75-25.355469 47.855468-40.972656zm0 0" fill="#fc5d1f"/><path d="m92.199219 288.863281s-33.148438 26.019531-61.679688 95.722657c19.414063 35.417968 47.324219 65.503906 80.988281 87.539062 2.4375-18.089844.4375-27.046875.4375-27.046875.242188-4.035156.824219-7.792969 1.867188-11.164063 0 0 30.421875-70.425781-19.09375-145.050781zm0 0" fill="#fd7e31"/><path d="m111.945312 445.078125c.242188-4.035156.824219-7.792969 1.867188-11.164063 0 0 16.425781-38.03125 5.488281-87.8125-14.171875 11.957032-38.886719 38.777344-52.605469 88.347657 13.363282 14.257812 28.398438 26.929687 44.8125 37.675781 2.4375-18.089844.4375-27.046875.4375-27.046875zm0 0" fill="#fc5d1f"/><path d="m341.011719 252.398438c-14.695313 21.625-55.113281 46.121093-95.511719 46.121093-40.371094 0-74.964844-15.175781-89.679688-36.777343l-63.621093 27.121093c49.519531 74.625 19.09375 145.050781 19.09375 145.050781-3.125 10.097657-2.113281 23.59375-.273438 37.890626 38.605469 25.402343 84.8125 40.195312 134.480469 40.195312s95.875-14.792969 134.480469-40.195312c1.839843-14.296876 2.851562-27.792969-.273438-37.890626 0 0-30.425781-70.425781 19.09375-145.050781zm0 0" fill="#fc9949"/><path d="m325.148438 475.125h-158.082032c-26.367187 0-48.589844-17.660156-55.535156-41.792969-.152344.378907-.238281.582031-.238281.582031-3.125 10.097657-2.117188 23.59375-.273438 37.890626 38.605469 25.402343 84.8125 40.195312 134.480469 40.195312s95.875-14.792969 134.480469-40.195312c1.757812-13.664063 2.75-26.589844.105469-36.523438-7.550782 23.128906-29.285157 39.84375-54.9375 39.84375zm0 0" fill="#fd7e31"/><path d="m234.902344 299.5v212.257812c3.515625.148438 7.046875.242188 10.597656.242188 4.898438 0 9.753906-.160156 14.582031-.445312v-212.371094c-4.757812.441406-9.625.683594-14.582031.683594-3.582031 0-7.113281-.132813-10.597656-.367188zm0 0" fill="#face7a"/><path d="m260.082031 475.125h-25.179687v36.632812c8.417968.359376 15.941406.339844 25.179687-.203124zm0 0" fill="#eec707"/><path d="m333.1875 234.917969c-12.542969-6.726563-38.871094-17.226563-82.089844-18.070313-1.867187-.03125-3.730468-.058594-5.597656-.058594s-3.734375.027344-5.605469.058594c-43.75.855469-70.328125 11.605469-82.769531 18.316406-.394531.230469-4.101562 2.480469-6.144531 7.007813 26.6875 18.953125 59.292969 30.128906 94.519531 30.128906 35.101562 0 67.597656-11.097656 94.230469-29.929687-2.234375-4.714844-6.109375-7.191406-6.542969-7.453125zm0 0" fill="#fc5d1f"/><path d="m245.5 274.820312c33.058594 0 66.316406-10.003906 89.542969-29.21875-58.699219-15.402343-120.386719-15.402343-179.085938 0 24.621094 19.214844 56.484375 29.21875 89.542969 29.21875zm0 0" fill="#162680"/><path d="m312.816406 260.140625c-10.46875-5.550781-21.855468-15.105469-21.855468-30.460937h-43.46875v44.925781c23.273437-.28125 45.367187-5.417969 65.324218-14.464844zm0 0" fill="#fe9d9a"/><path d="m245.5 274.644531c.667969 0 1.328125-.03125 1.992188-.039062v-44.925781h-43.46875c0 16.253906-12.757813 26.011718-23.679688 31.394531 19.964844 8.707031 41.984375 13.570312 65.15625 13.570312zm0 0" fill="#f98f8f"/><path d="m339.730469 242.367188c-26.632813 18.835937-59.125 29.933593-94.230469 29.933593-35.230469 0-67.828125-11.179687-94.515625-30.136719-1.3125 2.910157-1.933594 6.753907-.542969 11.609376 9.472656 27.015624 48.421875 47.261718 95.058594 47.261718 47.421875 0 86.898438-20.933594 95.511719-48.636718.710937-4.054688-.027344-7.386719-1.28125-10.03125zm0 0" fill="#fd7e31"/><path d="m302.820312 261.933594c-17.835937 6.695312-37.144531 10.367187-57.320312 10.367187-35.230469 0-67.828125-11.175781-94.515625-30.132812-1.3125 2.90625-1.933594 6.753906-.542969 11.609375 9.472656 27.015625 48.421875 47.261718 95.058594 47.261718 24.820312 0 47.457031-5.746093 64.640625-15.1875-10.890625-2.394531-15.027344-15.800781-7.320313-23.917968zm0 0" fill="#fc5d1f"/><path d="m229.316406 1.070312c-51.621094 7.035157-56.527344 36.300782-56.550781 47.039063-.003906 2.253906-1.25 4.339844-3.277344 5.324219-26.851562 13.0625-12.375 77.882812-12.375 77.882812 2.699219.179688 5.519531 1.269532 7.625 2.289063.515625-3.207031 3.222657-8.230469 4.410157-11.285157.90625-2.324218 2.039062-4.675781 3.453124-6.894531 2.457032-3.851562 3.574219-8.398437 3.242188-12.941406-.96875-13.132813-2.367188-37.144531 14.96875-44.945313 14.683594-6.609374 32.703125-2.78125 44.191406 1.039063 7.460938 2.480469 15.542969 2.480469 23.003906 0 11.488282-3.820313 29.503907-7.648437 44.1875-1.039063 17.289063 7.777344 15.933594 31.664063 14.980469 44.832032-.332031 4.578125.757813 9.171875 3.230469 13.054687 1.460938 2.289063 2.621094 4.722657 3.539062 7.121094 1.144532 2.980469 3.824219 7.929687 4.328126 11.058594 2.652343-1.285157 6.445312-2.6875 9.6875-2.226563.398437-13.765625 1.667968-30.472656 1.667968-30.472656 15.296875-74.917969-54.734375-107.40625-110.3125-99.835938zm0 0" fill="#b33c37"/><path d="m243.414062.0195312c-4.761718.0742188-9.480468.4218748-14.097656 1.0507808-51.621094 7.035157-56.527344 36.300782-56.550781 47.039063-.003906 2.25-1.25 4.339844-3.277344 5.324219-26.851562 13.0625-12.375 77.878906-12.375 77.878906 2.699219.179688 5.519531 1.273438 7.625 2.292969.515625-3.207031 3.222657-8.234375 4.410157-11.285157.90625-2.324218 2.039062-4.675781 3.453124-6.894531 2.457032-3.851562 3.574219-8.398437 3.242188-12.941406-.964844-13.132813-2.367188-37.148437 14.96875-44.945313 12.351562-5.558593 27.058594-3.734374 38.257812-.742187-.160156-.375-.3125-.753906-.484374-1.125-20.289063-44.179687 13.160156-55.136719 14.828124-55.6523438zm0 0" fill="#a33131"/><path d="m343.652344 131.300781c-4.117188-3.683593-12.320313-1.816406-15.867188.4375.777344 4.726563.824219 9.558594.152344 14.332031l-4.1875 29.757813c0 2.402344-.078125 4.753906-.21875 7.066406 10.203125 3.003907 15.273438-5.9375 16.128906-12.078125.367188-2.644531.96875-5.246094 1.800782-7.789062 2.71875-8.277344 12.511718-22.496094 2.191406-31.726563zm0 0" fill="#fe9d9a"/><path d="m335.902344 159.710938c-3.640625 0-6.9375-1.457032-9.347656-3.816407l-2.804688 19.933594c0 2.402344-.078125 4.753906-.21875 7.066406 10.203125 3.003907 15.273438-5.9375 16.128906-12.078125.367188-2.644531.96875-5.246094 1.800782-7.789062.578124-1.761719 1.476562-3.792969 2.433593-5.984375-2.230469 1.667969-4.992187 2.667969-7.992187 2.667969zm0 0" fill="#f98f8f"/><path d="m149.355469 131.300781c4.121093-3.683593 12.324219-1.816406 15.871093.4375-.777343 4.726563-.820312 9.558594-.148437 14.332031l4.1875 29.757813c0 2.402344.078125 4.753906.21875 7.066406-10.207031 3.003907-15.277344-5.9375-16.132813-12.078125-.367187-2.644531-.96875-5.246094-1.800781-7.789062-2.71875-8.277344-12.511719-22.496094-2.195312-31.726563zm0 0" fill="#fe9d9a"/><path d="m166.476562 156c-2.402343 2.292969-5.648437 3.710938-9.230468 3.710938-3.09375 0-5.929688-1.058594-8.195313-2.816407.980469 2.25 1.90625 4.332031 2.5 6.132813.832031 2.542968 1.433594 5.148437 1.800781 7.789062.855469 6.140625 5.925782 15.085938 16.132813 12.078125-.140625-2.3125-.21875-4.664062-.21875-7.0625zm0 0" fill="#f98f8f"/><path d="m325.8125 122.546875c-.917969-2.398437-2.078125-4.832031-3.539062-7.121094-2.472657-3.882812-3.5625-8.476562-3.230469-13.054687.953125-13.167969.441406-38.921875-16.84375-46.699219-14.6875-6.605469-32.703125-2.78125-44.191407 1.039063-7.460937 2.480468-15.546874 2.480468-23.007812 0-11.488281-3.820313-29.503906-7.644532-44.1875-1.039063-17.335938 7.800781-17.800781 33.679687-16.835938 46.8125.332032 4.542969-.785156 9.089844-3.242187 12.941406-1.414063 2.21875-2.546875 4.570313-3.449219 6.894531-2.9375 7.546876-3.796875 15.730469-2.695312 23.742188l4.089844 29.765625c0 42.796875 22.84375 71.882813 42.273437 86.972656 10.144531 7.875 22.660156 12.15625 35.550781 12.15625s25.410156-4.28125 35.550782-12.15625c19.433593-15.089843 42.277343-44.175781 42.277343-86.972656l4.085938-29.761719c1.089843-7.933594.265625-16.035156-2.605469-23.519531zm0 0" fill="#ffbaae"/><path d="m243.21875 262.800781c-14.113281-15.089843-30.710938-44.175781-30.710938-86.972656l-2.96875-29.765625c-.796874-8.011719-.175781-16.195312 1.957032-23.742188.65625-2.324218 1.480468-4.675781 2.507812-6.894531 1.785156-3.851562 2.597656-8.398437 2.355469-12.941406-.703125-13.132813-.363281-39.011719 12.226563-46.8125.339843-.207031.675781-.40625 1.019531-.59375-11.261719-3.078125-26.242188-5.050781-38.792969.59375-17.335938 7.800781-17.800781 33.679687-16.835938 46.8125.332032 4.542969-.785156 9.089844-3.242187 12.941406-1.414063 2.21875-2.546875 4.570313-3.453125 6.894531-2.933594 7.546876-3.792969 15.730469-2.691406 23.742188l4.085937 29.765625c0 42.796875 22.84375 71.882813 42.277344 86.972656 10.144531 7.875 22.660156 12.15625 35.550781 12.15625 4.425782 0 8.800782-.515625 13.054688-1.496093-5.914063-1.875-11.5-5.484376-16.339844-10.660157zm0 0" fill="#fe9d9a"/><path d="m440.070312 342.414062c-17.539062 5.007813-30.386718 21.140626-30.386718 40.289063 0 17.503906 10.738281 32.492187 25.980468 38.757813 9.332032-11.476563 17.652344-23.808594 24.8125-36.871094-6.710937-16.394532-13.675781-30.382813-20.40625-42.175782zm0 0" fill="#e0f9fe"/><path d="m435.042969 384.296875c-7.9375-11.21875-9.578125-24.992187-5.644531-37.132813-11.839844 7.402344-19.714844 20.546876-19.714844 35.539063 0 17.503906 10.738281 32.492187 25.980468 38.761719 5.972657-7.347656 11.523438-15.046875 16.628907-23.058594-6.699219-2.953125-12.710938-7.695312-17.25-14.109375zm0 0" fill="#b9e9fd"/><path d="m314.855469 467.304688h-137.847657c-8.308593 0-15.105468-6.796876-15.105468-15.105469v-98.828125c0-8.308594 6.796875-15.109375 15.105468-15.109375h137.847657c8.308593 0 15.105469 6.800781 15.105469 15.109375v98.828125c0 8.308593-6.796876 15.105469-15.105469 15.105469zm0 0" fill="#1d319b"/><path d="m215.542969 452.199219v-98.828125c0-8.308594 6.796875-15.105469 15.105469-15.105469h-53.636719c-8.3125 0-15.109375 6.796875-15.109375 15.105469v98.828125c0 8.308593 6.796875 15.105469 15.109375 15.105469h53.636719c-8.308594 0-15.105469-6.796876-15.105469-15.105469zm0 0" fill="#162680"/><path d="m314.855469 476.085938h-137.84375c-13.175781 0-23.890625-10.714844-23.890625-23.886719v-98.828125c0-13.171875 10.714844-23.890625 23.890625-23.890625h137.84375c13.175781 0 23.890625 10.71875 23.890625 23.890625v98.828125c0 13.171875-10.71875 23.886719-23.890625 23.886719zm-137.84375-129.042969c-3.488281 0-6.328125 2.839843-6.328125 6.328125v98.828125c0 3.488281 2.839844 6.324219 6.328125 6.324219h137.84375c3.488281 0 6.328125-2.835938 6.328125-6.324219v-98.828125c0-3.488282-2.839844-6.328125-6.328125-6.328125zm0 0" fill="#83d3fc"/><path d="m328.253906 497.652344v-21.980469c0-4.851563-3.929687-8.78125-8.78125-8.78125-4.851562 0-8.78125 3.929687-8.78125 8.78125v27.542969c5.949219-1.640625 11.804688-3.496094 17.5625-5.5625zm0 0" fill="#b9e9fd"/><path d="m295.207031 506.949219v-31.277344c0-4.851563-3.929687-8.78125-8.78125-8.78125-4.851562 0-8.78125 3.929687-8.78125 8.78125v34.234375c5.925781-.777344 11.78125-1.765625 17.5625-2.957031zm0 0" fill="#b9e9fd"/><path d="m319.472656 491.132812c-4.851562 0-8.78125-3.929687-8.78125-8.78125v20.859376c5.949219-1.636719 11.804688-3.492188 17.5625-5.558594v-15.300782c0 4.851563-3.929687 8.78125-8.78125 8.78125zm0 0" fill="#83d3fc"/><path d="m286.425781 491.132812c-4.851562 0-8.78125-3.929687-8.78125-8.78125v27.554688c5.925781-.777344 11.78125-1.765625 17.5625-2.957031v-24.59375c0 4.847656-3.929687 8.777343-8.78125 8.777343zm0 0" fill="#83d3fc"/><path d="m300.667969 402.785156c0 15.789063-12.800781 28.589844-28.589844 28.589844s-28.589844-12.800781-28.589844-28.589844c0-15.792968 12.800781-28.589844 28.589844-28.589844s28.589844 12.796876 28.589844 28.589844zm0 0" fill="#4374d3"/><path d="m281.808594 411.917969c-10.417969 0-18.863282-8.445313-18.863282-18.863281 0-8.925782 6.210938-16.386719 14.539063-18.34375-17.742187-3.398438-33.996094 10.214843-33.996094 28.074218 0 15.789063 12.800781 28.589844 28.589844 28.589844 17.851563 0 31.472656-16.246094 28.074219-33.996094-1.957032 8.328125-9.417969 14.539063-18.34375 14.539063zm0 0" fill="#3957c9"/><path d="m203.832031 395.261719c-6.339843 0-11.707031-5.160157-11.707031-11.722657 0-7.515624 6.925781-12.894531 13.992188-11.472656 5.554687 1.132813 9.425781 5.9375 9.425781 11.472656 0 6.542969-5.34375 11.722657-11.710938 11.722657zm0 0" fill="#face7a"/><path d="m203.832031 433.738281c-6.3125 0-11.707031-5.125-11.707031-11.722656 0-7.46875 6.890625-12.90625 13.992188-11.472656 5.535156 1.121093 9.425781 5.925781 9.425781 11.472656 0 6.484375-5.292969 11.722656-11.710938 11.722656zm0 0" fill="#f948b4"/><path d="m210.8125 467.304688c0-4.074219 2.644531-7.535157 6.300781-8.78125h-40.101562c-3.488281 0-6.328125-2.835938-6.328125-6.324219v-98.828125c0-3.488282 2.839844-6.328125 6.328125-6.328125h40.105469c-3.660157-1.242188-6.300782-4.707031-6.300782-8.78125s2.640625-7.535157 6.300782-8.78125h-40.105469c-13.175781 0-23.890625 10.71875-23.890625 23.890625v98.828125c0 13.171875 10.714844 23.886719 23.890625 23.886719h40.101562c-3.65625-1.246094-6.300781-4.707032-6.300781-8.78125zm0 0" fill="#61b6ff"/></svg>