<svg height="512pt" viewBox="0 0 512 512" width="512pt" xmlns="http://www.w3.org/2000/svg"><path d="m476.816406 342.550781c.480469-.132812.945313-.253906 1.421875-.386719 7.625-23.6875 11.765625-48.941406 11.765625-75.164062-.003906-135.308594-109.695312-245-245.003906-245s-245 109.691406-245 245c0 22.21875 2.976562 43.742188 8.519531 64.207031 8.949219 3.316407 221.4375 80.328125 468.296875 11.34375zm0 0" fill="#a2ec00"/><path d="m39.8125 381.230469 42.691406 69.101562c43.242188 38.363281 100.140625 61.667969 162.496094 61.667969 94.054688 0 175.714844-53.007812 216.777344-130.769531zm0 0" fill="#1d319b"/><path d="m321.558594 381.230469h-281.746094l42.691406 69.101562c43.242188 38.363281 100.140625 61.667969 162.496094 61.667969 20.519531 0 40.445312-2.523438 59.492188-7.277344-53.386719-24.242187-46.378907-113.152344 17.066406-123.492187zm0 0" fill="#162680"/><path d="m63.316406 352.792969h67.617188v55.59375h-67.617188zm0 0" fill="#5294e5"/><path d="m216.84375 151.769531h26.675781v101.640625h-26.675781zm0 0" fill="#e0f9fe"/><path d="m230.183594 225.15625c-6.171875 0-11.40625-3.957031-13.339844-9.464844v37.714844h26.675781v-37.714844c-1.933593 5.511719-7.167969 9.464844-13.335937 9.464844zm0 0" fill="#b9e9fd"/><path d="m209.828125 129.933594 7.015625 23.46875h26.675781l7.015625-23.46875zm0 0" fill="#83d3fc"/><path d="m248.78125 131.453125h-37.671875c-6.546875 0-11.851563-5.304687-11.851563-11.851563 0-6.546874 5.304688-11.851562 11.851563-11.851562h37.671875c6.546875 0 11.851562 5.304688 11.851562 11.851562 0 6.546876-5.304687 11.851563-11.851562 11.851563zm0 0" fill="#e0f9fe"/><path d="m229.945312 119.601562c0-6.546874 5.308594-11.851562 11.851563-11.851562h-30.6875c-6.546875 0-11.851563 5.304688-11.851563 11.851562 0 6.546876 5.304688 11.851563 11.851563 11.851563h30.6875c-6.542969 0-11.851563-5.304687-11.851563-11.851563zm0 0" fill="#b9e9fd"/><path d="m185.554688 280.21875v-15.808594c0-7.054687 5.375-12.824218 11.949218-12.824218h65.359375c6.570313 0 11.949219 5.769531 11.949219 12.824218v15.808594zm0 0" fill="#61b6ff"/><path d="m242.132812 251.585938h-44.628906c-6.574218 0-11.949218 5.769531-11.949218 12.824218v15.808594h44.628906v-15.808594c0-7.054687 5.375-12.824218 11.949218-12.824218zm0 0" fill="#5294e5"/><path d="m330.941406 264.921875v15.296875h-26.675781v-15.296875c0-7.367187 5.972656-13.335937 13.335937-13.335937 7.367188 0 13.339844 5.96875 13.339844 13.335937zm0 0" fill="#fc7acd"/><path d="m317.601562 271.34375c-6.167968 0-11.339843-4.195312-12.867187-9.878906-.296875 1.101562-.46875 2.257812-.46875 3.457031v15.296875h26.675781v-15.296875c0-1.199219-.171875-2.355469-.46875-3.457031-1.527344 5.683594-6.703125 9.878906-12.871094 9.878906zm0 0" fill="#f948b4"/><path d="m113.679688 278.183594h233.007812c9.140625 0 16.554688 7.414062 16.554688 16.554687v71.636719c-3.089844 4.957031-5.644532 10.273438-7.597657 15.878906-2.582031 1.664063-5.652343 2.644532-8.957031 2.644532-3.832031 0-52.992188 0-105.84375 0-10.046875-32.484376-40.363281-56.152344-76.105469-56.152344h-67.613281c0-13.121094 0-26.074219 0-34.003906 0-9.144532 7.410156-16.558594 16.554688-16.558594zm0 0" fill="#5294e5"/><path d="m163.480469 278.183594h-49.800781c-9.144532 0-16.554688 7.414062-16.554688 16.554687v34.003907h49.800781c0-13.121094 0-26.070313 0-34.003907 0-9.140625 7.410157-16.554687 16.554688-16.554687zm0 0" fill="#4374d3"/><path d="m126.265625 352.792969h38.472656c30.652344 0 55.59375 24.9375 55.59375 55.59375 0 6.265625 4.820313 11.421875 10.945313 11.96875-5.65625 31.628906-33.28125 55.644531-66.539063 55.644531-37.34375 0-67.613281-30.273438-67.613281-67.617188 0-23.042968 11.535156-43.382812 29.140625-55.589843zm0 0" fill="#4374d3"/><path d="m177.742188 442.507812c.671874-2.039062.027343-4.273437-1.636719-5.628906-6.003907-4.90625-5.886719-11.226562-5.078125-15.023437.414062-1.953125-.351563-4.003907-1.984375-5.15625-7.425781-5.226563-8.136719-12.527344-7.769531-16.863281.175781-2.109376-.914063-4.089844-2.78125-5.089844-7.285157-3.910156-6.710938-10.558594-5.390626-14.777344.683594-2.179688-.132812-4.585938-2.0625-5.808594-8.34375-5.28125-6.949218-13.019531-5.414062-17.101562.53125-1.417969.394531-2.960938-.304688-4.265625h-19.054687c-17.605469 12.207031-29.140625 32.546875-29.140625 55.59375 0 37.339843 30.269531 67.613281 67.613281 67.613281 10.175781 0 19.820313-2.257812 28.476563-6.285156-19.894532-5.773438-17.714844-20.417969-15.472656-27.207032zm0 0" fill="#3957c9"/><path d="m375.265625 408.382812c0-30.652343 24.9375-55.589843 55.589844-55.589843 30.65625 0 55.59375 24.9375 55.59375 55.589843 0 6.269532 4.820312 11.421876 10.945312 11.972657-5.652343 31.628906-33.28125 55.644531-66.539062 55.644531-33.253907 0-60.882813-24.015625-66.535157-55.644531 6.125-.546875 10.945313-5.703125 10.945313-11.972657zm0 0" fill="#4374d3"/><path d="m461.765625 468.519531c-17.269531-6.351562-16.769531-19.640625-15.132813-26.589843.585938-2.484376-.640624-4.996094-2.878906-6.21875-6.820312-3.738282-7.167968-9.71875-6.523437-13.566407.363281-2.167969-.597657-4.335937-2.425781-5.5625-6.984376-4.683593-8.039063-11.921875-7.9375-16.34375.050781-2.136719-1.164063-4.140625-3.097657-5.0625-6.828125-3.265625-6.597656-10.011719-5.550781-14.441406.574219-2.414063-.53125-4.863281-2.652344-6.152344-5.753906-3.503906-6.433594-8.484375-5.992187-12.039062.222656-1.808594-.402344-3.566407-1.640625-4.78125-19.246094 8.746093-32.667969 28.140625-32.667969 50.625 0 6.265625-4.820313 11.421875-10.949219 11.96875 5.65625 31.628906 33.285156 55.644531 66.539063 55.644531 11.144531 0 21.648437-2.707031 30.910156-7.480469zm0 0" fill="#3957c9"/><path d="m67.984375 352.792969h-38.476563c-4.625 0-9.121093.578125-13.421874 1.648437 2.667968 6.980469 5.644531 13.808594 8.917968 20.464844l33.363282 50.761719c7.464843 8.773437 15.523437 17.03125 24.144531 24.675781 9.140625-11.53125 14.613281-26.101562 14.613281-41.957031 0-23.046875-11.539062-43.386719-29.140625-55.59375zm0 0" fill="#3957c9"/><path d="m198.546875 408.382812c0 18.671876-15.136719 33.808594-33.808594 33.808594s-33.808593-15.136718-33.808593-33.808594c0-18.671874 15.136718-33.808593 33.808593-33.808593s33.808594 15.136719 33.808594 33.808593zm0 0" fill="#e0f9fe"/><path d="m164.738281 442.191406c4.640625 0 9.0625-.9375 13.089844-2.628906-.273437-1.03125-.855469-1.976562-1.722656-2.683594-6.003907-4.90625-5.886719-11.226562-5.078125-15.023437.414062-1.953125-.351563-4.003907-1.984375-5.15625-7.425781-5.226563-8.136719-12.527344-7.769531-16.863281.175781-2.109376-.914063-4.089844-2.78125-5.089844-7.285157-3.910156-6.710938-10.558594-5.390626-14.777344.347657-1.105469.304688-2.269531-.070312-3.308594-12.902344 4.765625-22.101562 17.167969-22.101562 31.722656.003906 18.671876 15.136718 33.808594 33.808593 33.808594zm0 0" fill="#83d3fc"/><path d="m464.664062 408.382812c0 18.671876-15.136718 33.808594-33.808593 33.808594s-33.804688-15.136718-33.804688-33.808594c0-18.671874 15.132813-33.808593 33.804688-33.808593s33.808593 15.136719 33.808593 33.808593zm0 0" fill="#e0f9fe"/><path d="m397.050781 408.382812c0 18.671876 15.132813 33.808594 33.804688 33.808594 5.566406 0 10.808593-1.351562 15.4375-3.730468-.503907-1.140626-1.382813-2.117188-2.539063-2.75-6.820312-3.738282-7.167968-9.71875-6.523437-13.566407.363281-2.167969-.597657-4.335937-2.425781-5.5625-6.984376-4.683593-8.039063-11.921875-7.9375-16.34375.050781-2.136719-1.164063-4.140625-3.097657-5.0625-6.828125-3.265625-6.597656-10.011719-5.550781-14.441406.292969-1.234375.140625-2.472656-.351562-3.566406-12.222657 5.089843-20.816407 17.148437-20.816407 31.214843zm0 0" fill="#83d3fc"/><path d="m330.941406 331.539062c0 18.671876-15.136718 33.808594-33.808594 33.808594-18.671874 0-33.808593-15.136718-33.808593-33.808594 0-18.667968 15.136719-33.804687 33.808593-33.804687 18.671876 0 33.808594 15.136719 33.808594 33.804687zm0 0" fill="#4374d3"/><path d="m263.324219 331.539062c0 18.675782 15.136719 33.808594 33.808593 33.808594 7.585938 0 14.582032-2.496094 20.222657-6.710937l.058593-.042969-20.28125-28.746094c-14.949218-14.949218 0-32.113281 0-32.113281-18.667968 0-33.808593 15.136719-33.808593 33.804687zm0 0" fill="#3957c9"/><path d="m430.859375 420.90625c-6.832031 0-12.523437-5.519531-12.523437-12.523438 0-7.410156 6.386718-13.1875 13.757812-12.46875 6.410156.644532 11.292969 6.074219 11.292969 12.46875 0 6.890626-5.609375 12.523438-12.527344 12.523438zm0 0" fill="#61b6ff"/><path d="m164.738281 420.90625c-6.898437 0-12.523437-5.621094-12.523437-12.523438 0-7.519531 6.539062-13.1875 13.757812-12.46875 6.402344.644532 11.292969 6.039063 11.292969 12.46875 0 6.863282-5.585937 12.523438-12.527344 12.523438zm0 0" fill="#61b6ff"/><path d="m29.507812 374.578125c-1.53125 0-3.039062.109375-4.519531.308594 9.039063 18.398437 20.320313 35.496093 33.484375 50.941406 3.074219-5.09375 4.84375-11.0625 4.84375-17.441406 0-18.671875-15.136718-33.808594-33.808594-33.808594zm0 0" fill="#83d3fc"/><path d="m285.367188 324.867188c3.683593-6.496094 11.941406-8.777344 18.441406-5.09375l66.066406 37.464843c-5.792969 6.898438-10.441406 14.78125-13.648438 23.367188l-65.765624-37.296875c-6.5-3.6875-8.78125-11.941406-5.09375-18.441406zm0 0" fill="#83d3fc"/><path d="m331.917969 335.714844c3.855469 4.128906 5.109375 10.597656 1.453125 16.933594-3.042969 5.269531-8.996094 7.816406-14.640625 6.691406l37.496093 21.261718c3.207032-8.582031 7.851563-16.464843 13.644532-23.363281zm0 0" fill="#61b6ff"/><path d="m235.582031 325.527344h-39.410156c-4.152344 0-7.515625-3.363282-7.515625-7.515625 0-4.152344 3.363281-7.515625 7.515625-7.515625h39.410156c4.152344 0 7.515625 3.363281 7.515625 7.515625 0 4.152343-3.363281 7.515625-7.515625 7.515625zm0 0" fill="#4374d3"/><path d="m214.152344 318.011719c0-4.152344 3.367187-7.515625 7.515625-7.515625h-25.5c-4.148438 0-7.515625 3.363281-7.515625 7.515625 0 4.152343 3.367187 7.515625 7.515625 7.515625h25.5c-4.148438 0-7.515625-3.363282-7.515625-7.515625zm0 0" fill="#3957c9"/><path d="m363.242188 421.910156c7.472656 0 13.527343-6.054687 13.527343-13.523437 0-29.824219 24.261719-54.089844 54.085938-54.089844 29.828125 0 54.089843 24.261719 54.089843 54.089844 0 7.46875 6.054688 13.523437 13.527344 13.523437s13.527344-6.054687 13.527344-13.523437c0-44.742188-36.398438-81.144531-81.144531-81.144531-44.742188 0-81.140625 36.398437-81.140625 81.144531 0 7.46875 6.054687 13.523437 13.527344 13.523437zm0 0" fill="#e0f9fe"/><path d="m408.878906 358.980469c-.570312-1.011719-1.449218-1.84375-2.574218-2.339844-15.085938-6.652344-7.863282-22.378906-7.71875-22.6875-28.726563 12.503906-48.871094 41.152344-48.871094 74.429687 0 7.472657 6.054687 13.527344 13.527344 13.527344 7.472656 0 13.527343-6.054687 13.527343-13.527344 0-22 13.210938-40.960937 32.109375-49.402343zm0 0" fill="#83d3fc"/><path d="m164.738281 327.242188h-135.230469c-7.367187 0-14.5 1.003906-21.289062 2.851562 2.335938 8.792969 5.144531 17.390625 8.40625 25.765625 4.132812-1.011719 8.445312-1.5625 12.882812-1.5625h135.230469c29.824219 0 54.089844 24.261719 54.089844 54.089844 0 7.46875 6.054687 13.523437 13.527344 13.523437 7.472656 0 13.527343-6.054687 13.527343-13.523437 0-44.746094-36.402343-81.144531-81.144531-81.144531zm0 0" fill="#e0f9fe"/><path d="m144.726562 351.898438c-6.769531-8.152344-5.328124-14.863282-2.71875-19.214844 1.066407-1.777344.917969-3.871094-.097656-5.441406h-112.402344c-7.367187 0-14.5 1.003906-21.289062 2.855468 2.335938 8.789063 5.144531 17.390625 8.40625 25.761719 4.132812-1.011719 8.445312-1.5625 12.882812-1.5625h116.351563c-.164063-.867187-.546875-1.695313-1.132813-2.398437zm0 0" fill="#83d3fc"/><path d="m274.8125 22.59375v-10.644531c0-6.570313-5.378906-11.949219-11.949219-11.949219h-65.359375c-6.574218 0-11.949218 5.378906-11.949218 11.949219v10.644531zm0 0" fill="#61b6ff"/><path d="m230.644531 0h-33.140625c-6.574218 0-11.949218 5.378906-11.949218 11.949219v10.644531h33.140624v-10.644531c0-6.570313 5.378907-11.949219 11.949219-11.949219zm0 0" fill="#5294e5"/><path d="m158.644531 109.753906h143.074219c4.585938 0 8.335938-3.75 8.335938-8.335937v-72.492188c0-4.585937-3.75-8.335937-8.335938-8.335937h-143.074219c-4.582031 0-8.332031 3.753906-8.332031 8.335937v72.492188c0 4.585937 3.75 8.335937 8.332031 8.335937zm0 0" fill="#5294e5"/><path d="m210.976562 101.417969v-72.492188c0-4.585937 3.75-8.335937 8.335938-8.335937h-60.667969c-4.582031 0-8.332031 3.75-8.332031 8.335937v72.492188c0 4.585937 3.75 8.335937 8.332031 8.335937h60.667969c-4.585938 0-8.335938-3.75-8.335938-8.335937zm0 0" fill="#4374d3"/><path d="m282.054688 54.355469c-5.976563-10.347657-19.203126-13.890625-29.550782-7.917969s-13.890625 19.203125-7.917968 29.546875c5.972656 10.347656 19.203124 13.890625 29.550781 7.917969 10.34375-5.972656 13.890625-19.203125 7.917969-29.546875zm0 0" fill="#83d3fc"/><path d="m269.855469 79.972656c.152343-1.609375-.457031-3.207031-1.714844-4.21875-8.3125-6.683594-10.816406-15.816406-11.5625-20.222656-.261719-1.546875-1.332031-2.800781-2.753906-3.457031-2.054688-.949219-3.382813-2.222657-4.226563-3.589844-8.035156 6.597656-10.371094 18.207031-5.003906 27.503906 5.351562 9.273438 16.527344 13.058594 26.242188 9.449219-1.011719-1.90625-1.125-3.925781-.980469-5.464844zm0 0" fill="#61b6ff"/><path d="m277.898438 90.414062c-13.917969 8.035157-31.78125 3.25-39.816407-10.667968-8.035156-13.917969-3.25-31.78125 10.671875-39.816406 13.917969-8.035157 31.777344-3.25 39.8125 10.667968 8.039063 13.917969 3.253906 31.78125-10.667968 39.816406zm-21.628907-37.46875c-6.742187 3.894532-9.0625 12.542969-5.167969 19.285157 3.890626 6.742187 12.542969 9.058593 19.285157 5.167969 6.742187-3.890626 9.058593-12.542969 5.167969-19.285157-3.894532-6.742187-12.546876-9.058593-19.285157-5.167969zm0 0" fill="#e0f9fe"/><path d="m238.085938 79.746094c8.035156 13.917968 25.894531 18.703125 39.816406 10.667968-7.574219-2.027343-8.34375-7.265624-8.046875-10.445312.070312-.742188-.03125-1.480469-.273438-2.160156-6.609375 3.277344-14.742187.902344-18.480469-5.578125-3.753906-6.5-1.71875-14.757813 4.46875-18.832031-.46875-.554688-1.0625-1.007813-1.746093-1.324219-7.9375-3.667969-5.070313-12.144531-5.070313-12.144531-13.921875 8.035156-18.707031 25.898437-10.667968 39.816406zm0 0" fill="#b9e9fd"/><path d="m215.769531 54.355469c-5.976562-10.347657-19.203125-13.890625-29.550781-7.917969s-13.890625 19.203125-7.917969 29.546875c5.972657 10.347656 19.203125 13.894531 29.550781 7.917969 10.34375-5.972656 13.890626-19.203125 7.917969-29.546875zm0 0" fill="#83d3fc"/><path d="m203.570312 79.972656c.148438-1.609375-.460937-3.207031-1.71875-4.21875-8.308593-6.683594-10.816406-15.816406-11.5625-20.222656-.261718-1.546875-1.328124-2.800781-2.75-3.457031-2.058593-.949219-3.386718-2.222657-4.230468-3.589844-8.03125 6.597656-10.371094 18.207031-5.003906 27.503906 5.355468 9.273438 16.53125 13.058594 26.242187 9.449219-1.007813-1.90625-1.121094-3.925781-.976563-5.464844zm0 0" fill="#61b6ff"/><path d="m211.613281 90.414062c-13.917969 8.035157-31.78125 3.25-39.816406-10.667968-8.035156-13.917969-3.25-31.78125 10.667969-39.816406 13.917968-8.035157 31.78125-3.25 39.816406 10.667968 8.035156 13.917969 3.25 31.78125-10.667969 39.816406zm-21.632812-37.46875c-6.742188 3.894532-9.058594 12.542969-5.167969 19.285157 3.894531 6.742187 12.542969 9.058593 19.285156 5.167969 6.742188-3.890626 9.058594-12.542969 5.167969-19.285157-3.890625-6.742187-12.542969-9.058593-19.285156-5.167969zm0 0" fill="#e0f9fe"/><path d="m171.796875 79.746094c8.035156 13.917968 25.898437 18.703125 39.816406 10.667968-7.574219-2.027343-8.339843-7.265624-8.042969-10.445312.070313-.742188-.03125-1.480469-.273437-2.160156-6.613281 3.277344-14.742187.902344-18.484375-5.578125-3.75-6.5-1.71875-14.757813 4.472656-18.832031-.46875-.554688-1.066406-1.007813-1.746094-1.324219-7.941406-3.667969-5.074218-12.144531-5.074218-12.144531-13.917969 8.035156-18.703125 25.898437-10.667969 39.816406zm0 0" fill="#b9e9fd"/></svg>