<svg viewBox="0 0 81 41" fill="none" height="200" width="400"  xmlns="http://www.w3.org/2000/svg">
  <path d="M61.514 11.157a3.94 3.94 0 0 0-2.806 1.158l-3.018 3.01a3.95 3.95 0 0 0-1.147 3.095l.019.191a3.9 3.9 0 0 0 1.128 2.314 3.6 3.6 0 0 0 1.496.9q.046.263.047.53c0 .797-.31 1.546-.874 2.107l-.186.186c-1.008-.344-1.848-.847-2.607-1.604a6.9 6.9 0 0 1-1.927-3.67l-.034-.193-.153.124a4 4 0 0 0-.294.265l-3.018 3.01a3.957 3.957 0 0 0 2.807 6.757 3.96 3.96 0 0 0 2.806-1.158l3.019-3.01a3.96 3.96 0 0 0 0-5.599 3.9 3.9 0 0 0-1.462-.92 3.25 3.25 0 0 1 .924-2.855 6.9 6.9 0 0 1 2.664 1.656 6.9 6.9 0 0 1 1.926 3.67l.035.193.153-.124q.155-.125.296-.267l3.018-3.01a3.956 3.956 0 0 0-2.808-6.756z" fill="CurrentColor"/>
  <path d="M59.897.149h-39.49C9.153.149 0 9.279 0 20.5c0 11.222 9.154 20.351 20.406 20.351h39.49c11.253 0 20.407-9.13 20.407-20.35C80.303 9.277 71.149.148 59.897.148M40.419 32.056c-.651.134-1.384.158-1.882-.36-.183.42-.612.199-.943.144-.03.085-.057.16-.085.246-1.1.073-1.925-1.046-2.449-1.89-1.04-.562-2.222-.904-3.285-1.492-.062.968.15 2.17-.774 2.794-.047 1.862 2.824.22 3.088 1.608-.204.022-.43-.033-.594.124-.749.726-1.608-.55-2.471-.023-1.16.582-1.276 1.059-2.71 1.179-.08-.12-.047-.2.02-.273.404-.468.433-1.02 1.122-1.22-.71-.111-1.303.28-1.901.59-.778.317-.772-.717-1.968.054-.132-.108-.069-.206.007-.289.304-.37.704-.425 1.155-.405-2.219-1.233-3.263 1.508-4.288.145-.308.081-.424.358-.618.553-.167-.183-.04-.405-.033-.62-.2-.094-.453-.139-.394-.459-.391-.132-.665.1-.957.32-.263-.203.178-.5.26-.712.234-.407.769-.084 1.04-.377.772-.437 1.847.273 2.729.153.68.085 1.52-.61 1.179-1.305-.726-.926-.598-2.137-.614-3.244-.09-.645-1.643-1.467-2.092-2.163-.555-.627-.987-1.353-1.42-2.068-1.561-3.014-1.07-6.886-3.037-9.685-.89.49-2.048.259-2.816-.399-.414.377-.432.87-.465 1.392-.994-.99-.87-2.863-.075-3.966a5.3 5.3 0 0 1 1.144-1.11c.098-.07.131-.14.129-.25.786-3.524 6.144-2.845 7.838-.348 1.229 1.537 1.6 3.57 2.994 4.997 1.875 2.047 4.012 3.85 5.742 6.03 1.637 1.992 2.806 4.328 3.826 6.683.416.782.42 1.74 1.037 2.408.304.403 1.79 1.5 1.467 1.888.186.403 1.573.959 1.092 1.35zm26.026-12.024-3.018 3.01a6.96 6.96 0 0 1-2.875 1.728l-.056.016-.02.053a6.9 6.9 0 0 1-1.585 2.446l-3.019 3.01a6.94 6.94 0 0 1-4.932 2.035 6.94 6.94 0 0 1-4.932-2.035 6.95 6.95 0 0 1 0-9.838l3.018-3.01a6.9 6.9 0 0 1 2.871-1.721l.055-.017.02-.053a6.9 6.9 0 0 1 1.59-2.454l3.019-3.01a6.94 6.94 0 0 1 4.932-2.035c1.865 0 3.616.723 4.932 2.035a6.9 6.9 0 0 1 2.04 4.92c0 1.86-.724 3.607-2.04 4.918z" fill="CurrentColor"/>
  <path d="M28.142 28.413c-.265 1.03-.35 2.782-1.694 2.832-.11.595.413.819.89.627.472-.215.696.171.855.556.729.106 1.806-.242 1.847-1.103-1.088-.625-1.424-1.813-1.896-2.914z" fill="CurrentColor"/>
</svg>
