<svg height="512pt" viewBox="0 0 512.00102 512" width="512pt" xmlns="http://www.w3.org/2000/svg"><path d="m256 22c-135.308594 0-245 109.6875-245 245 0 85.648438 43.960938 161.019531 110.539062 204.816406l269.070313-.097656c66.496094-43.8125 110.390625-119.132812 110.390625-204.71875 0-135.3125-109.691406-245-245-245zm0 0" fill="#162680"/><path d="m256.074219 34.175781c-75.140625 0-136.054688 60.910157-136.054688 136.050781v300.589844c38.90625 26.007813 85.667969 41.183594 135.980469 41.183594 50.375 0 97.195312-15.210938 136.128906-41.28125v-300.492188c0-75.140624-60.914062-136.050781-136.054687-136.050781zm0 0" fill="#a2ec00"/><path d="m216.386719 465.453125v-295.226563c0-65.089843 29.523437-119.492187 68.964843-132.882812-9.429687-2.070312-19.222656-3.167969-29.277343-3.167969-75.140625 0-136.054688 60.910157-136.054688 136.050781v300.589844c31.738281 21.21875 68.707031 35.21875 108.5625 39.660156-7.757812-13.246093-12.195312-28.667968-12.195312-45.023437zm0 0" fill="#51da18"/><path d="m433.878906 18.796875c-37.035156-29.5-96.953125-25.722656-126.011718 21.648437-2.886719 4.703126-3.082032 10.425782-.527344 15.304688 5.914062 11.292969 22.289062 11.023438 27.757812-.8125 16.011719-34.632812 58.234375-47.886719 91-29 1.554688-3.21875 4.292969-5.816406 7.78125-7.140625zm0 0" fill="#d7f9b7"/><path d="m292.796875 129.75c-.109375.011719-.214844.023438-.324219.023438h-72.792968c-.113282 0-.21875-.011719-.324219-.023438-5.1875 7.332031-8.246094 16.273438-8.246094 25.9375 0 24.835938 20.132813 44.96875 44.964844 44.96875 24.835937 0 44.96875-20.132812 44.96875-44.96875 0-9.664062-3.058594-18.605469-8.246094-25.9375zm0 0" fill="#e0f9fe"/><path d="m175.730469 386.882812c-.859375 2.144532-1.59375 4.425782-2.167969 6.820313-3.769531 15.667969.558594 30.144531 9.660156 32.332031 9.105469 2.191406 19.539063-8.734375 23.308594-24.402344.574219-2.398437.960938-4.765624 1.167969-7.0625-10.890625-1.941406-21.558594-4.515624-31.96875-7.6875zm0 0" fill="#e0f9fe"/><path d="m189.3125 393.703125c.234375-.976563.5-1.933594.789062-2.875-4.84375-1.191406-9.636718-2.503906-14.371093-3.945313-.859375 2.140626-1.59375 4.425782-2.167969 6.820313-3.769531 15.667969.558594 30.144531 9.660156 32.332031 3.527344.847656 7.25-.277344 10.710938-2.878906-5.511719-5.40625-7.605469-17.050781-4.621094-29.453125zm0 0" fill="#b9e9fd"/><path d="m336.421875 386.882812c-10.410156 3.171876-21.082031 5.746094-31.972656 7.6875.210937 2.296876.59375 4.664063 1.171875 7.0625 3.765625 15.667969 14.199218 26.59375 23.304687 24.402344 9.105469-2.1875 13.429688-16.664062 9.664063-32.332031-.574219-2.394531-1.308594-4.675781-2.167969-6.820313zm0 0" fill="#e0f9fe"/><path d="m319.554688 395.296875c-.296876-1.238281-.542969-2.472656-.738282-3.691406-4.746094 1.109375-9.53125 2.101562-14.367187 2.964843.210937 2.296876.59375 4.664063 1.171875 7.0625 3.765625 15.667969 14.199218 26.59375 23.304687 24.402344 3.296875-.792968 5.964844-3.203125 7.851563-6.691406-7.265625-2.460938-14.277344-11.808594-17.222656-24.046875zm0 0" fill="#b9e9fd"/><path d="m167.554688 388.148438c-4.667969-1.613282-7.144532-6.703126-5.53125-11.371094 1.613281-4.664063 6.703124-7.140625 11.367187-5.527344 52.519531 18.140625 110.71875 18.878906 165.367187 0 4.664063-1.613281 9.757813.863281 11.371094 5.527344 1.609375 4.667968-.867187 9.757812-5.53125 11.371094-56.339844 19.460937-118.652344 20.171874-177.042968 0zm0 0" fill="#00c82f"/><path d="m145.378906 313.410156c-5.140625-7.292968-15.242187-8.882812-22.359375-3.589844-22.367187 16.628907-72.550781 14.859376-86.664062-8.5-6.261719-10.359374-5.277344-23.890624-2.054688-36.558593 2.074219-8.15625-2.515625-16.519531-10.546875-19.042969-8.5625-2.691406-17.695312 2.277344-19.980468 10.957031-4.679688 17.773438-7.082032 40.144531 5.523437 61 24.421875 40.40625 95.425781 44.394531 131.871094 18.039063 7.054687-5.097656 9.226562-15.1875 4.210937-22.304688zm0 0" fill="#51da18"/><path d="m451.945312 28.222656c-1.609374-7.726562-9.175781-12.683594-16.902343-11.074218-7.722657 1.613281-12.679688 9.179687-11.070313 16.902343 1.609375 7.722657 9.175782 12.679688 16.902344 11.070313 7.722656-1.609375 12.679688-9.175782 11.070312-16.898438zm0 0" fill="#fc7acd"/><path d="m451.929688 28.210938c-.195313-.941407-.484376-1.84375-.847657-2.699219-.152343 4.152343-3.097656 7.824219-7.347656 8.710937-5 1.039063-9.898437-2.167968-10.941406-7.167968-.882813-4.25 1.304687-8.417969 5.050781-10.214844-.929688.007812-1.871094.101562-2.8125.300781-7.726562 1.609375-12.683594 9.175781-11.070312 16.898437 1.609374 7.726563 9.175781 12.683594 16.898437 11.070313 7.726563-1.605469 12.679687-9.175781 11.070313-16.898437zm0 0" fill="#f948b4"/><path d="m353.546875 12.664062c0-4.097656 1.953125-7.726562 4.96875-10.042968-19.753906 5.019531-38.085937 17.34375-50.648437 37.824218-2.886719 4.703126-3.082032 10.421876-.527344 15.304688 5.914062 11.289062 22.289062 11.023438 27.757812-.8125 6.191406-13.390625 16.304688-23.566406 28.269532-29.941406-5.625-1.292969-9.820313-6.316406-9.820313-12.332032zm0 0" fill="#8fe98a"/><path d="m78.273438 18.796875c37.035156-29.5 96.949218-25.722656 126.011718 21.648437 2.882813 4.703126 3.082032 10.425782.523438 15.304688-5.910156 11.292969-22.289063 11.023438-27.757813-.8125-16.011719-34.632812-58.234375-47.886719-91-29-1.554687-3.21875-4.289062-5.816406-7.777343-7.140625zm0 0" fill="#d7f9b7"/><path d="m88.191406 28.214844c-1.609375-7.726563-9.175781-12.683594-16.898437-11.070313-7.726563 1.609375-12.679688 9.175781-11.070313 16.898438 1.609375 7.722656 9.175782 12.679687 16.898438 11.070312s12.679687-9.175781 11.070312-16.898437zm0 0" fill="#fc7acd"/><path d="m88.191406 28.210938c-.199218-.941407-.484375-1.84375-.847656-2.699219-.152344 4.152343-3.097656 7.824219-7.347656 8.710937-5 1.039063-9.898438-2.167968-10.941406-7.167968-.886719-4.25 1.304687-8.417969 5.046874-10.214844-.925781.007812-1.867187.101562-2.8125.300781-7.722656 1.609375-12.679687 9.175781-11.070312 16.898437 1.609375 7.726563 9.175781 12.683594 16.898438 11.070313 7.726562-1.605469 12.683593-9.175781 11.074218-16.898437zm0 0" fill="#f948b4"/><path d="m158.601562 12.664062c0-4.097656-1.953124-7.726562-4.96875-10.042968 19.757813 5.019531 38.089844 17.34375 50.652344 37.824218 2.886719 4.703126 3.082032 10.421876.523438 15.304688-5.910156 11.289062-22.285156 11.023438-27.753906-.8125-6.191407-13.390625-16.308594-23.566406-28.269532-29.941406 5.621094-1.292969 9.816406-6.316406 9.816406-12.332032zm0 0" fill="#8fe98a"/><path d="m280.65625 193.335938c-24.050781-4.996094-17.636719-26.878907-17.636719-26.878907l-6.945312-21.734375c-5.972657-8.859375 1.941406-13.605468 1.941406-13.605468l.046875-1.34375h-38.382812c-.113282 0-.21875-.011719-.324219-.023438-5.191407 7.332031-8.246094 16.273438-8.246094 25.9375 0 24.835938 20.128906 44.96875 44.964844 44.96875 9.074219 0 17.515625-2.699219 24.582031-7.320312zm0 0" fill="#b9e9fd"/><path d="m268.058594 156.703125c0 6.617187-5.367188 11.984375-11.984375 11.984375-6.617188 0-11.980469-5.367188-11.980469-11.984375s5.363281-11.980469 11.980469-11.980469c6.617187 0 11.984375 5.363282 11.984375 11.980469zm0 0" fill="#61b6ff"/><path d="m294.988281 125.699219c-9.285156-11.15625-23.265625-18.257813-38.914062-18.257813-15.644531 0-29.628907 7.101563-38.914063 18.257813-1.789062 2.152343-.28125 5.417969 2.519532 5.417969h72.792968c2.800782 0 4.308594-3.265626 2.515625-5.417969zm0 0" fill="#51da18"/><path d="m252.214844 119.910156c0-5.402344 3.125-10.066406 7.660156-12.3125-1.257812-.09375-2.519531-.15625-3.800781-.15625-15.648438 0-29.628907 7.101563-38.914063 18.257813-1.792968 2.152343-.28125 5.417969 2.519532 5.417969h38.332031c-3.503907-2.492188-5.796875-6.578126-5.796875-11.207032zm0 0" fill="#00c82f"/><path d="m306.960938 256.417969c-.148438.011719-.296876.03125-.453126.03125h-100.867187c-.152344 0-.300781-.019531-.449219-.03125-7.1875 10.15625-11.425781 22.550781-11.425781 35.941406 0 34.410156 27.894531 62.308594 62.308594 62.308594 34.414062 0 62.3125-27.898438 62.3125-62.308594 0-13.390625-4.238281-25.785156-11.425781-35.941406zm0 0" fill="#e0f9fe"/><path d="m290.136719 344.523438c-33.328125-6.921876-24.441407-37.242188-24.441407-37.242188l-9.621093-30.121094c-8.273438-12.269531 2.6875-18.851562 2.6875-18.851562l.066406-1.859375h-53.1875c-.152344 0-.300781-.019531-.449219-.035157-7.1875 10.160157-11.425781 22.550782-11.425781 35.941407 0 34.414062 27.894531 62.3125 62.308594 62.3125 12.574219 0 24.273437-3.738281 34.0625-10.144531zm0 0" fill="#b9e9fd"/><path d="m272.679688 293.765625c0 9.167969-7.433594 16.601563-16.605469 16.601563-9.167969 0-16.601563-7.433594-16.601563-16.601563 0-9.171875 7.433594-16.605469 16.601563-16.605469 9.171875 0 16.605469 7.433594 16.605469 16.605469zm0 0" fill="#61b6ff"/><path d="m309.996094 250.800781c-12.863282-15.457031-32.238282-25.300781-53.921875-25.300781-21.679688 0-41.054688 9.84375-53.921875 25.300781-2.480469 2.980469-.390625 7.507813 3.488281 7.507813h100.867187c3.882813 0 5.972657-4.527344 3.488282-7.507813zm0 0" fill="#51da18"/><path d="m250.726562 242.78125c0-7.488281 4.328126-13.949219 10.613282-17.0625-1.742188-.128906-3.492188-.21875-5.265625-.21875-21.683594 0-41.058594 9.84375-53.921875 25.300781-2.484375 2.980469-.390625 7.507813 3.488281 7.507813h53.121094c-4.859375-3.453125-8.035157-9.113282-8.035157-15.527344zm0 0" fill="#00c82f"/><path d="m145.378906 313.410156c-5.140625-7.292968-15.242187-8.882812-22.359375-3.589844-15.445312 11.484376-44.140625 14.1875-65.078125 7.078126 13.796875 9.410156 6.050782 31.261718-10.765625 29.597656 30.835938 10.789062 69.9375 6.617187 93.992188-10.777344 7.054687-5.101562 9.226562-15.191406 4.210937-22.308594zm0 0" fill="#00c82f"/><path d="m366.621094 313.410156c5.140625-7.292968 15.242187-8.882812 22.359375-3.589844 22.367187 16.628907 72.550781 14.859376 86.664062-8.5 6.261719-10.359374 5.277344-23.890624 2.054688-36.558593-2.074219-8.15625 2.515625-16.519531 10.546875-19.042969 8.566406-2.691406 17.695312 2.277344 19.980468 10.957031 4.679688 17.773438 7.082032 40.144531-5.523437 61-24.421875 40.40625-95.425781 44.394531-131.867187 18.039063-7.058594-5.097656-9.230469-15.1875-4.214844-22.304688zm0 0" fill="#51da18"/><path d="m366.621094 313.410156c5.140625-7.292968 15.242187-8.882812 22.359375-3.589844 15.445312 11.484376 44.140625 14.1875 65.078125 7.078126-13.796875 9.410156-6.050782 31.261718 10.765625 29.597656-30.835938 10.789062-69.9375 6.617187-93.992188-10.777344-7.054687-5.101562-9.226562-15.191406-4.210937-22.308594zm0 0" fill="#00c82f"/></svg>