<svg height="512pt" viewBox="-11 0 512 512" width="512pt" xmlns="http://www.w3.org/2000/svg"><path d="m451.527344 398.851562c24.355468-38.066406 38.472656-83.308593 38.472656-131.851562 0-135.3125-109.691406-245-245-245s-245 109.691406-245 245c0 48.542969 14.121094 93.785156 38.472656 131.851562zm0 0" fill="#162680"/><path d="m442.015625 77.257812h-329.492187c-21.246094 0-38.628907-17.382812-38.628907-38.628906s17.382813-38.628906 38.628907-38.628906h329.488281c5.578125 0 10.140625 4.5625 10.140625 10.136719v56.984375c0 5.574218-4.5625 10.136718-10.136719 10.136718zm0 0" fill="#9d4ad3"/><path d="m252.304688 22.828125c-5.710938-.925781-10.074219-5.867187-10.074219-11.839844 0-4.910156 2.949219-9.125 7.167969-10.988281h-136.875c-21.246094 0-38.632813 17.382812-38.632813 38.628906s17.382813 38.628906 38.632813 38.628906h139.78125zm0 0" fill="#8634c6"/><path d="m424.136719 21.484375c1.222656-.558594.8125-2.394531-.53125-2.394531h-311.082031c-19.246094 0-35.320313 11.078125-38.179688 25.429687 2.859375 18.476563 18.933594 32.738281 38.179688 32.738281h317.742187c-15.117187-4.417968-25.949219-15.777343-25.949219-29.019531 0-11.371093 7.988282-21.359375 19.820313-26.753906zm0 0" fill="#f9ecc6"/><path d="m252.070312 19.097656c.273438-.007812.550782-.007812.828126-.007812h-140.375c-19.246094 0-35.320313 11.078125-38.179688 25.429687 2.859375 18.476563 18.933594 32.738281 38.179688 32.738281h140.375c-1.109376 0-2.203126-.046874-3.285157-.136718-36.378906-3.101563-34.050781-57.421875 2.457031-58.023438zm0 0" fill="#fadda0"/><path d="m424.136719 74.984375v-53.5c-11.832031 5.394531-19.820313 15.382813-19.820313 26.753906 0 11.371094 7.992188 21.355469 19.820313 26.746094zm0 0" fill="#fadda0"/><path d="m415.007812 177.117188v266.28125c14.117188-13.609376 26.605469-28.898438 37.144532-45.546876v-332.933593c0 5.578125-4.5625 10.140625-10.140625 10.140625h-329.488281c-20.507813 0-37.410157-16.199219-38.5625-36.429688h-.066407v71.402344c.492188-.015625.984375-.035156 1.484375-.035156h329.488282c5.578124 0 10.140624 4.5625 10.140624 10.136718zm0 0" fill="#c78fe8"/><path d="m112.523438 75.058594c-20.507813 0-37.410157-16.199219-38.5625-36.429688h-.066407v71.402344c.492188-.015625.984375-.035156 1.484375-.035156h151.597656c0-6.5 0-12.664063 0-17.472656 0-14.464844 8.109376-17.039063 11.722657-17.46875h-126.175781zm0 0" fill="#9d4ad3"/><path d="m115.644531 75.058594h29.726563v34.9375h-29.726563zm0 0" fill="#b26cde"/><path d="m202.390625 48.234375h-24.863281c-1.339844 0-2.429688 1.089844-2.429688 2.433594v24.386719h29.726563v-24.386719c0-1.34375-1.089844-2.433594-2.433594-2.433594zm0 0" fill="#fbb362"/><path d="m175.097656 75.058594h29.726563v34.9375h-29.726563zm0 0" fill="#face7a"/><path d="m405.96875 186.152344h-329.492188c-21.246093 0-38.628906-17.382813-38.628906-38.628906 0-21.246094 17.382813-38.628907 38.628906-38.628907h329.492188c5.578125 0 10.136719 4.5625 10.136719 10.136719v56.984375c0 5.578125-4.558594 10.136719-10.136719 10.136719zm0 0" fill="#5294e5"/><path d="m216.261719 131.722656c-5.710938-.925781-10.074219-5.867187-10.074219-11.839844 0-4.910156 2.949219-9.125 7.167969-10.988281h-136.878907c-21.246093 0-38.628906 17.382813-38.628906 38.628907 0 21.246093 17.382813 38.628906 38.628906 38.628906h139.785157zm0 0" fill="#4374d3"/><path d="m388.09375 130.378906c1.222656-.558594.8125-2.394531-.535156-2.394531h-311.082032c-19.242187 0-35.316406 11.078125-38.175781 25.429687 2.859375 18.476563 18.933594 32.738282 38.175781 32.738282h317.742188c-15.113281-4.417969-25.945312-15.777344-25.945312-29.015625-.003907-11.371094 7.988281-21.363281 19.820312-26.757813zm0 0" fill="#f9ecc6"/><path d="m216.023438 127.992188c.277343-.003907.550781-.007813.828124-.007813h-140.375c-19.242187 0-35.316406 11.078125-38.175781 25.429687 2.859375 18.476563 18.933594 32.738282 38.175781 32.738282h140.375c-1.105468 0-2.199218-.046875-3.285156-.136719-36.378906-3.101563-34.046875-57.417969 2.457032-58.023437zm0 0" fill="#fadda0"/><path d="m388.09375 183.882812v-53.503906c-11.832031 5.394532-19.824219 15.386719-19.824219 26.757813 0 11.367187 7.992188 21.351562 19.824219 26.746093zm0 0" fill="#fadda0"/><path d="m405.96875 183.953125h-329.492188c-20.503906 0-37.410156-16.195313-38.5625-36.429687h-.066406v250.328124c43.421875 68.597657 119.964844 114.148438 207.152344 114.148438 66.582031 0 126.949219-26.570312 171.105469-69.675781v-268.511719c0 5.578125-4.558594 10.140625-10.136719 10.140625zm0 0" fill="#61b6ff"/><path d="m190.933594 506.007812c0-107.699218 0-301.089843 0-304.585937 0-14.46875 8.105468-17.039063 11.722656-17.46875h-126.179688c-7.539062 0-14.589843-2.195313-20.550781-5.972656-9.746093-6.171875-16.578125-16.570313-17.855469-28.570313-.066406-.625-.117187-1.253906-.15625-1.886718h-.066406v250.328124c34.167969 53.980469 88.847656 93.683594 153.085938 108.15625zm0 0" fill="#5294e5"/><path d="m79.597656 447.730469c9.28125 8.496093 19.21875 16.285156 29.726563 23.289062v-287.066406h-29.726563zm0 0" fill="#61b6ff"/><path d="m166.347656 157.128906h-24.863281c-1.34375 0-2.433594 1.089844-2.433594 2.433594v24.390625h29.726563v-24.390625c0-1.34375-1.089844-2.433594-2.429688-2.433594zm0 0" fill="#f6159c"/><path d="m139.050781 183.953125v79.648437c0 1.734376 2.097657 2.601563 3.328125 1.375l10.160156-10.160156c.761719-.761718 1.992188-.761718 2.753907 0l10.160156 10.160156c1.226563 1.226563 3.324219.359376 3.324219-1.375v-79.648437zm0 0" fill="#f948b4"/><path d="m304.734375 325.078125c-4.550781 0-8.257813-3.6875-8.257813-8.253906 0-3.855469 2.664063-7.277344 6.636719-8.105469 5.035157-1.011719 9.875 2.855469 9.875 8.105469 0 4.519531-3.671875 8.253906-8.253906 8.253906zm0 0" fill="#f9ecc6"/><path d="m188.28125 497.5625c-4.605469 0-8.257812-3.738281-8.257812-8.257812 0-3.992188 2.902343-7.394532 6.640624-8.09375 4.960938-.996094 9.875 2.761718 9.875 8.09375 0 4.457031-3.632812 8.257812-8.257812 8.257812zm0 0" fill="#b9e9fd"/><path d="m256.15625 305.8125c-6.140625 0-11.007812-5.023438-11.007812-11.007812 0-6.890626 6.332031-12.175782 13.167968-10.800782 5.210938 1.058594 8.851563 5.609375 8.851563 10.800782 0 6.132812-5.019531 11.007812-11.011719 11.007812zm0 0" fill="#b9e9fd"/><path d="m269.597656 229.472656h-25.546875c-4.5625 0-8.257812-3.699218-8.257812-8.257812 0-4.5625 3.695312-8.257813 8.257812-8.257813h25.546875c4.558594 0 8.257813 3.695313 8.257813 8.257813 0 4.558594-3.699219 8.257812-8.257813 8.257812zm0 0" fill="#f9ecc6"/><path d="m155.390625 457.273438c-7.011719-12.144532 3.015625-34.015626 22.355469-48.753907 3.625-2.761719 8.808594-2.0625 11.574218 1.5625 2.761719 3.628907 2.0625 8.808594-1.5625 11.574219-15.242187 11.613281-18.90625 24.691406-18.027343 27.414062.601562.808594 4.902343 3.078126 17.277343 1.3125 4.515626-.644531 8.695313 2.496094 9.339844 7.011719.644532 4.511719-2.492187 8.695313-7.007812 9.339844-12.558594 1.789063-27.636719 1.472656-33.949219-9.460937zm14.363281-8.140626" fill="#fadda0"/><path d="m290.0625 352.28125c-1.765625-4.203125.207031-9.042969 4.414062-10.8125 12.714844-5.34375 25.417969-7.667969 35.761719-6.546875 4.535157.492187 7.808594 4.566406 7.316407 9.101563-.492188 4.53125-4.558594 7.820312-9.101563 7.316406-7.492187-.8125-17.546875 1.140625-27.578125 5.355468-4.230469 1.777344-9.054688-.230468-10.8125-4.414062zm0 0" fill="#fadda0"/><path d="m317.796875 363.496094c-20.851563-36.113282-67.023437-48.484375-103.132813-27.632813-36.113281 20.847657-48.484374 67.019531-27.636718 103.132813 20.851562 36.109375 67.023437 48.480468 103.136718 27.632812 36.109376-20.851562 48.480469-67.023437 27.632813-103.132812zm0 0" fill="#fc9949"/><path d="m290.167969 466.640625c8.019531-4.628906 14.859375-10.511719 20.429687-17.25-56.8125 5.527344-66.78125-27.882813-67.859375-47.304687-.429687-7.742188-4.464843-14.808594-10.71875-19.382813-23.355469-17.085937-17.351562-46.828125-17.351562-46.832031-36.109375 20.847656-48.484375 67.023437-27.636719 103.132812 20.851562 36.113282 67.027344 48.484375 103.136719 27.636719zm0 0" fill="#fd7e31"/><path d="m178.710938 384.9375c11.425781-.777344 26.714843-.765625 43.394531 2.152344 40.777343 7.128906 76.28125-7.53125 85.746093-37.082032-23.410156-25.371093-62.035156-32.121093-93.183593-14.136718-19.089844 11.019531-31.535157 29.117187-35.957031 49.066406zm0 0" fill="#fbb362"/><path d="m214.667969 335.871094c-19.085938 11.019531-31.535157 29.117187-35.957031 49.066406 11.425781-.777344 26.714843-.765625 43.394531 2.152344 5.417969.945312 10.742187 1.5 15.925781 1.691406-1.644531-2.308594-3.671875-4.371094-6.011719-6.082031-23.355469-17.085938-17.351562-46.824219-17.351562-46.828125zm0 0" fill="#fc9949"/><path d="m178.847656 418.253906c1.644532 7.109375 4.347656 14.101563 8.1875 20.75 10.027344 17.371094 25.917969 29.226563 43.726563 34.558594 45.3125-55.164062-16.402344-57.75-51.914063-55.308594zm0 0" fill="#fc6442"/><path d="m188.164062 466.816406c-4.046874 0-7.578124-2.972656-8.164062-7.089844-.644531-4.515624 2.492188-8.699218 7.007812-9.34375 19.792969-2.824218 48.308594-14.152343 76.28125-30.300781 23.351563-13.484375 43.714844-28.710937 57.335938-42.871093 14.488281-15.070313 15.136719-22.648438 14.519531-23.71875-.289062-.367188-2.207031-1.664063-6.691406-2.152344-4.53125-.492188-7.808594-4.566406-7.316406-9.097656.492187-4.535157 4.566406-7.820313 9.097656-7.320313 9.121094.988281 15.945313 4.652344 19.210937 10.316406 6.183594 10.707031.492188 25.3125-16.917968 43.417969-14.664063 15.25-36.320313 31.488281-60.980469 45.726562-30.148437 17.40625-60.113281 29.199219-82.207031 32.351563-.394532.054687-.789063.082031-1.175782.082031zm0 0" fill="#f9ecc6"/></svg>