<svg height="512pt" viewBox="-10 0 511 512" width="512pt" xmlns="http://www.w3.org/2000/svg"><path d="m476.65625 348.335938c8.957031-25.453126 13.84375-52.820313 13.84375-81.335938 0-135.308594-109.6875-245-245-245-135.308594 0-245 109.691406-245 245 0 28.515625 4.890625 55.886719 13.847656 81.339844zm0 0" fill="#162680"/><path d="m245.5 512c107.171875 0 198.253906-68.816406 231.511719-164.664062-32.105469-97.136719-123.613281-167.238282-231.511719-167.238282-107.894531 0-199.40625 70.097656-231.507812 167.234375 33.253906 95.851563 124.339843 164.667969 231.507812 164.667969zm0 0" fill="#d7f9b7"/><path d="m13.992188 347.332031c23.3125 67.195313 75.050781 121.101563 140.820312 147.328125.519531-61.125 77.433594-104.636718 51.117188-157.882812-37.742188-76.363282 47.804687-145.945313 47.804687-145.945313l-25.027344-10.152343c-100.515625 6.839843-184.292969 74.601562-214.714843 166.652343zm0 0" fill="#a2ec00"/><path d="m460.726562 309.316406c-41.011718-76.886718-122.003906-129.21875-215.226562-129.21875-107.898438 0-199.40625 70.101563-231.507812 167.242188 3.960937 11.410156 8.738281 22.433594 14.265624 33.003906 12.75-4.234375 26.304688-10.5 40.640626-19.328125 113.375-69.832031 204.285156 22.265625 296.972656-27.515625 45.988281-24.699219 76.140625-27.5625 94.855468-24.183594zm0 0" fill="#a2ec00"/><path d="m13.992188 347.339844c3.960937 11.410156 8.738281 22.433594 14.265624 33.007812 12.75-4.238281 26.304688-10.5 40.640626-19.332031 49.253906-30.335937 94.269531-30.113281 137.03125-24.234375-37.742188-76.363281 47.804687-145.945312 47.804687-145.945312l-25.027344-10.15625c-100.515625 6.839843-184.292969 74.605468-214.714843 166.660156zm0 0" fill="#00c82f"/><path d="m361.519531 482.832031c-110.632812-32.589843-162.949219-115.5-228.871093-78.515625-23.558594 13.21875-47.515626 21.140625-70.085938 25.628906 44.871094 50.339844 110.195312 82.054688 182.9375 82.054688 41.976562 0 81.484375-10.5625 116.019531-29.167969zm0 0" fill="#a2ec00"/><path d="m154.8125 494.652344c.304688-35.226563 25.972656-64.605469 42.636719-93.367188-21.890625-8.265625-42.570313-9.4375-64.800781 3.03125-23.558594 13.21875-47.511719 21.140625-70.085938 25.628906 25.105469 28.167969 56.621094 50.496094 92.25 64.707032zm0 0" fill="#00c82f"/><path d="m200.675781 460.578125c-31.402343-16.519531-79.34375-12.398437-113.121093-6.328125 32.910156 27.792969 73.230468 47.082031 117.59375 54.4375 16.558593-17.378906 18.050781-36.261719-4.472657-48.109375zm0 0" fill="#00c82f"/><path d="m154.8125 494.644531c.136719-15.703125 5.3125-30.242187 12.484375-44.082031-26.625-3.734375-56.527344-.484375-79.742187 3.691406 19.945312 16.84375 42.617187 30.554688 67.257812 40.390625zm0 0" fill="#04ad24"/><path d="m298.347656 68.210938c-.996094-9.148438-8.320312-16.546876-17.457031-17.632813-1.808594-.214844-3.578125-.1875-5.273437.054687-2.03125.285157-3.785157-1.367187-3.78125-3.417968 0-.015625 0-.03125 0-.046875 0-23.921875-19.394532-43.3125-43.3125-43.3125-18.070313 0-33.554688 11.066406-40.050782 26.792969-.773437 1.875-2.910156 2.832031-4.785156 2.050781-3.554688-1.484375-7.453125-2.308594-11.550781-2.308594-12.3125 0-22.890625 7.414063-27.53125 18.015625-.617188 1.414062-2.105469 2.222656-3.644531 2.09375-1.148438-.09375-2.320313-.09375-3.515626.019531-10 .9375-17.917968 9.394531-18.164062 19.4375-.273438 11.289063 8.792969 20.523438 20.019531 20.523438h139.144531c11.800782.003906 21.214844-10.203125 19.902344-22.269531zm0 0" fill="#4374d3"/><path d="m187.746094 77.390625c.996094-.671875 2.027344-1.234375 3.078125-1.703125 1.414062-.625 2.332031-2.046875 2.195312-3.585938-1.011719-11.527343 4.714844-23.105468 15.519531-29.011718 3.59375-1.960938 7.414063-3.109375 11.246094-3.511719 2.015625-.210937 3.433594-2.078125 3.210938-4.097656-1.222656-11.246094 2.03125-22.585938 9.011718-31.472657-1.152343-.09375-2.3125-.152343-3.488281-.152343-18.070312 0-33.554687 11.066406-40.046875 26.792969-.773437 1.875-2.914062 2.835937-4.785156 2.050781-3.554688-1.484375-7.457031-2.308594-11.550781-2.308594-12.316407 0-22.894531 7.414063-27.53125 18.015625-.621094 1.417969-2.109375 2.226562-3.644531 2.097656-1.148438-.097656-2.324219-.097656-3.519532.015625-10 .9375-17.914062 9.394531-18.160156 19.4375-.273438 11.289063 8.792969 20.527344 20.019531 20.527344h39.984375c.941406-5.1875 3.867188-9.992187 8.460938-13.09375zm0 0" fill="#3957c9"/><path d="m206.085938 88.664062c1.273437-11.671874 10.613281-21.109374 22.273437-22.492187 2.304687-.273437 4.558594-.238281 6.726563.066406 2.589843.367188 4.824218-1.742187 4.820312-4.355469 0-.019531 0-.039062 0-.058593 0-30.519531 24.738281-55.257813 55.257812-55.257813 23.050782 0 42.804688 14.121094 51.089844 34.179688.984375 2.394531 3.714844 3.617187 6.101563 2.617187 4.535156-1.894531 9.511719-2.941406 14.734375-2.941406 15.710937 0 29.207031 9.453125 35.121094 22.980469.792968 1.804687 2.691406 2.835937 4.652343 2.671875 1.464844-.121094 2.960938-.121094 4.488281.023437 12.753907 1.195313 22.855469 11.984375 23.167969 24.792969.351563 14.402344-11.21875 26.1875-25.539062 26.1875h-177.503907c-15.054687 0-27.066406-13.019531-25.390624-28.414063zm0 0" fill="#61b6ff"/><path d="m266.882812 83.394531c2.5625-.363281 4.425782-2.699219 4.054688-5.261719-.710938-4.863281-.492188-9.945312.804688-15.003906 3.90625-15.21875 16.414062-25.941406 30.988281-28.3125 1.945312-.316406 3.414062-1.898437 3.742187-3.84375.246094-1.445312.621094-2.898437 1.136719-4.339844 2.257813-6.289062 6.863281-11.222656 12.523437-14.101562-7.5-3.808594-15.980468-5.964844-24.96875-5.964844-30.515624 0-55.257812 24.738282-55.257812 55.257813v.058593c.003906 2.613282-2.230469 4.722657-4.820312 4.355469-2.167969-.304687-4.421876-.339843-6.726563-.066406-11.660156 1.382813-21 10.820313-22.273437 22.492187-1.386719 12.730469 6.589843 23.828126 17.902343 27.289063 7.761719-17.777344 24.226563-29.917969 42.894531-32.558594zm0 0" fill="#5294e5"/><path d="m184.761719 157.140625c-2.203125-2.144531-4.726563-4.105469-6.078125-6.867187-.914063-1.871094-1.21875-3.972657-1.507813-6.035157-2.597656-18.324219-5.195312-36.648437-7.789062-54.972656-2.625-18.5-15.675781-13.78125-18.136719-12.71875-4.320312 2.300781-8.617188 4.640625-12.863281 7.074219-10.234375 5.867187-12.367188 9.769531-11.652344 20.34375 1.480469 21.816406 7.960937 45.769531-3.925781 64.121094-2.695313 4.15625-6.308594 7.929687-7.46875 12.746093-1.78125 7.410157 2.726562 14.960938 2.328125 22.570313-.449219 8.527344-6.445313 14.640625-12.9375 20.683594-3.710938 3.453124-1.25 9.671874 3.820312 9.671874h41.234375c-.699218-1.28125-.867187-2.859374-.253906-4.378906 7.179688-17.222656 13.511719-38.050781 30.011719-46.777344 4.996093-2.644531 10.816406-4.125 16.464843-5.722656-2.023437-7.453125-5.652343-14.308594-11.246093-19.738281zm0 0" fill="#fc9949"/><path d="m149.53125 229.382812c7.179688-17.226562 13.515625-38.054687 30.015625-46.78125 4.996094-2.640624 10.8125-4.125 16.464844-5.722656-2.027344-7.453125-5.660157-14.308594-11.25-19.738281-2.207031-2.144531-4.726563-4.105469-6.078125-6.867187-.914063-1.871094-1.21875-3.972657-1.511719-6.035157-2.59375-18.324219-5.191406-36.648437-7.789063-54.972656-.6875-4.863281-2.101562-8.109375-3.851562-10.253906-1.71875 1.511719-3.429688 3.039062-5.128906 4.609375-6.324219 5.867187-7.636719 9.769531-7.195313 20.34375.910157 21.816406 4.917969 45.769531-2.429687 64.121094-1.664063 4.15625-3.894532 7.929687-4.613282 12.746093-1.101562 7.410157 1.6875 14.960938 1.441407 22.570313-.277344 8.527344-3.984375 14.640625-7.996094 20.683594-2.292969 3.453124-.769531 9.671874 2.363281 9.671874h7.816406c-.699218-1.28125-.871093-2.859374-.257812-4.375zm0 0" fill="#fd7e31"/><path d="m146.472656 126.792969c5.363282 0 9.714844-4.347657 9.714844-9.714844 0-5.363281-4.351562-9.714844-9.714844-9.714844h-18.453125c-.339843 0-.679687.019531-1.007812.050781.558593 6.378907 1.433593 12.898438 2.0625 19.378907zm0 0" fill="#fbb362"/><path d="m144.667969 150.273438c0 5.367187 4.347656 9.714843 9.714843 9.714843h33c-.828124-.980469-1.6875-1.941406-2.621093-2.847656-2.203125-2.140625-4.726563-4.105469-6.078125-6.867187-.914063-1.871094-1.21875-3.972657-1.507813-6.035157-.175781-1.226562-.351562-2.453125-.523437-3.679687h-22.269532c-5.367187 0-9.714843 4.347656-9.714843 9.714844zm0 0" fill="#fbb362"/><path d="m187.378906 159.984375c-3.789062-4.503906-6.636718-5.90625-8.492187-9.351563-1.433594-2.652343-1.65625-6.007812-2.234375-10.074218h-21.539063c-.015625 6.730468-.492187 13.257812-1.851562 19.359375.371093.042969.742187.070312 1.121093.070312h33s-.003906-.003906-.003906-.003906zm0 0" fill="#fc9949"/><path d="m391.015625 214.628906c-1.992187-4.363281-5.589844-7.734375-8.820313-11.28125-12.785156-14.039062-20.742187-34.289062-14.652343-52.273437.984375-2.914063 2.335937-5.808594 2.277343-8.882813-.039062-2.082031-.726562-4.09375-1.40625-6.0625-7.03125-20.339844-14.0625-40.679687-21.089843-61.019531-2.953125-8.539063-5.480469-10.148437-13.375-10.542969-15.476563-.773437-30.984375-.796875-46.460938-.070312-11.785156.554687-15.460937 3.054687-19.644531 12.792968-8.632812 20.089844-13.785156 44.363282-32.734375 55.273438-4.296875 2.472656-9.230469 4.179688-12.460937 7.941406-4.964844 5.777344-4.394532 14.554688-8.21875 21.144532-7.152344 12.320312-24.976563 11.613281-37.566407 18.273437-16.5 8.726563-22.835937 29.554687-30.015625 46.777344-1.363281 3.375 1.125 7.058593 4.765625 7.058593h236.179688c2.730469 0 4.984375-2.136718 5.136719-4.859374.277343-4.992188.085937-9.886719-1.914063-14.269532zm0 0" fill="#face7a"/><path d="m214.53125 226.699219c5.207031-17.222657 9.800781-38.054688 21.761719-46.78125 9.128906-6.65625 22.054687-5.953125 27.238281-18.269531 2.773438-6.589844 2.359375-15.367188 5.960938-21.144532 2.34375-3.761718 5.917968-5.46875 9.035156-7.941406 13.738281-10.910156 17.472656-35.183594 23.734375-55.273438 3.035156-9.738281 5.699219-12.238281 14.242187-12.792968 2.261719-.144532 4.523438-.253906 6.785156-.339844-11.933593-.332031-23.878906-.21875-35.800781.339844-11.785156.554687-15.460937 3.054687-19.644531 12.792968-8.632812 20.089844-13.785156 44.363282-32.734375 55.273438-4.296875 2.472656-9.230469 4.179688-12.460937 7.941406-4.964844 5.777344-4.394532 14.554688-8.21875 21.144532-7.152344 12.316406-24.976563 11.613281-37.566407 18.269531-16.5 8.726562-22.835937 29.558593-30.015625 46.78125-1.363281 3.375 1.125 7.058593 4.765625 7.058593h66.371094c-2.640625 0-4.441406-3.683593-3.453125-7.058593zm0 0" fill="#fbb362"/><path d="m264.769531 84.902344c-2.488281 6.457031-4.851562 13.105468-7.59375 19.429687h35.605469c3.726562 0 7.34375 1.539063 9.925781 4.230469 11.367188 11.828125 26.367188 10.019531 27.34375 10.191406 5.363281 0 9.714844-4.347656 9.714844-9.714844 0-5.367187-4.351563-9.714843-9.714844-9.714843h-3.410156c-3.726563 0-7.34375-1.542969-9.925781-4.226563-6.226563-6.480468-14.949219-10.195312-23.933594-10.195312zm0 0" fill="#fadda0"/><path d="m292.78125 84.902344h-28.011719c-2.417969 6.269531-4.867187 13.140625-7.59375 19.421875v.007812h35.605469c.574219 0 1.144531.050781 1.707031.121094 1.925781-6.109375 3.589844-12.523437 5.328125-18.78125-2.300781-.5-4.65625-.769531-7.035156-.769531zm0 0" fill="#face7a"/><path d="m289.148438 146.574219c5.367187 0 9.714843-4.351563 9.714843-9.714844 0-5.367187-4.347656-9.714844-9.714843-9.714844h-46.753907c-10.589843 9.878907-18.902343 7.519531-23.054687 19.429688zm0 0" fill="#fadda0"/><path d="m242.394531 127.144531c-.003906 0-.003906 0-.007812.003907-6.140625 5.730468-11.476563 7.300781-15.820313 10.050781-3.375 2.183593-5.597656 4.703125-7.226562 9.375h47.75c.558594-2.210938 1.289062-4.285157 2.402344-6.074219 2.34375-3.757812 5.917968-5.46875 9.035156-7.941406 1.949218-1.546875 3.695312-3.375 5.28125-5.417969h-41.414063zm0 0" fill="#face7a"/><path d="m263.449219 200.546875h4.417969c9.972656 0 19.679687-4.097656 26.636718-11.242187 3.324219-3.410157 7.957032-5.367188 12.71875-5.367188h62.488282c-2.621094-6.25-4.171876-12.851562-4.246094-19.429688h-58.242188c-9.96875 0-19.679687 4.097657-26.636718 11.242188-3.324219 3.410156-7.957032 5.367188-12.71875 5.367188h-4.417969c-5.367188 0-9.714844 4.351562-9.714844 9.714843 0 5.367188 4.347656 9.714844 9.714844 9.714844zm0 0" fill="#fadda0"/><path d="m94.511719 39.535156c.609375-5.621094 5.109375-10.164062 10.722656-10.832031 1.113281-.132813 2.195313-.113281 3.242187.035156 1.246094.175781 2.324219-.839843 2.320313-2.101562 0-.007813 0-.015625 0-.027344 0-14.695313 11.914063-26.609375 26.609375-26.609375 11.105469 0 20.617188 6.800781 24.605469 16.460938.476562 1.152343 1.789062 1.742187 2.9375 1.261718 2.1875-.914062 4.582031-1.417968 7.097656-1.417968 7.566406 0 14.0625 4.550781 16.914063 11.066406.378906.867187 1.296874 1.363281 2.238281 1.285156.707031-.058594 1.429687-.058594 2.160156.011719 6.144531.574219 11.007813 5.773437 11.160156 11.941406.167969 6.933594-5.402343 12.609375-12.300781 12.609375h-85.480469c-7.25 0-13.035156-6.269531-12.226562-13.683594zm0 0" fill="#5294e5"/><path d="m123.789062 36.996094c1.234376-.171875 2.128907-1.300782 1.949219-2.53125-.339843-2.34375-.234375-4.789063.390625-7.226563 1.878906-7.328125 7.90625-12.492187 14.921875-13.632812.9375-.152344 1.644531-.917969 1.804688-1.851563.117187-.699218.296875-1.398437.546875-2.089844 1.085937-3.03125 3.304687-5.40625 6.03125-6.792968-3.613282-1.835938-7.699219-2.871094-12.027344-2.871094-14.695312 0-26.609375 11.914062-26.609375 26.609375v.027344c0 1.261719-1.074219 2.277343-2.324219 2.101562-1.042968-.148437-2.128906-.167969-3.238281-.035156-5.617187.667969-10.113281 5.210937-10.726563 10.832031-.667968 6.128906 3.175782 11.476563 8.625 13.144532 3.734376-8.5625 11.667969-14.410157 20.65625-15.683594zm0 0" fill="#4374d3"/></svg>