<svg height="512pt" viewBox="-11 0 512 512" width="512pt" xmlns="http://www.w3.org/2000/svg"><path d="m469.640625 364.894531c13.085937-29.984375 20.359375-63.089843 20.359375-97.894531 0-135.3125-109.691406-245-245-245s-245 109.6875-245 245c0 34.820312 7.28125 67.933594 20.375 97.929688zm0 0" fill="#9d4ad3"/><path d="m245 512c100.890625 0 187.523438-60.988281 225.078125-148.105469-20.105469-62.988281-65.921875-114.492187-125.105469-142.179687h-199.800781c-.042969 0-.078125-.011719-.117187-.011719-59.199219 27.6875-105.023438 79.195313-125.132813 142.191406 37.554687 87.117188 124.1875 148.105469 225.078125 148.105469zm0 0" fill="#83d3fc"/><path d="m177.816406 443.839844c1.132813-5.832032-1.230468-11.792969-6.027344-15.296875-14.992187-10.964844-13.652343-24.503907-11.429687-31.761719 1.101563-3.601562.761719-7.492188-.769531-10.933594-21.152344-47.484375 47.0625-53.136718 25.214844-98.273437-22.699219-46.902344 14.058593-63.449219 14.058593-63.449219l-.085937-2.410156h-53.605469c-.039063 0-.078125-.011719-.117187-.011719-59.199219 27.6875-105.023438 79.195313-125.132813 142.191406 30.042969 69.695313 91.5 122.660157 166.535156 141.058594-13.476562-21.914063-11.328125-47.308594-8.640625-61.113281zm0 0" fill="#5294e5"/><path d="m362.414062 284.53125c-3.753906-11.929688 3.902344-24.597656 13.34375-32.808594 2.730469-2.375 5.640626-4.550781 8.59375-6.679687-12.28125-8.984375-25.457031-16.816407-39.378906-23.328125h-199.800781c-.042969 0-.078125-.011719-.117187-.011719-59.207032 27.691406-105.015626 79.21875-125.117188 142.226563 5.328125 12.351562 11.632812 24.1875 18.835938 35.390624 5.234374 1.339844 10.558593 2.199219 16.011718 2.296876 4.765625.082031 9.824219-.539063 13.558594-3.492188 5.125-4.050781 6.316406-11.160156 8.6875-17.246094 6.992188-17.96875 30.332031-29.015625 47.117188-19.53125 9.113281 5.148438 14.695312 14.714844 22.265624 21.941406 7.574219 7.226563 19.996094 11.964844 28.21875 5.488282 5.359376-4.222656 7.125-11.949219 12.699219-15.886719 9.898438-6.996094 23.089844 2.160156 35.207031 2.433594 16.320313.367187 27.851563-15.082031 41.589844-23.894531 12.296875-7.886719 27.785156-10.632813 42.042969-7.449219 13.28125 2.964843 24.972656 10.671875 37.742187 15.382812 12.765626 4.714844 28.484376 5.867188 38.746094-3.074219 14.363282-12.507812 9.097656-37.035156-3.855468-50.996093-6.058594-6.527344-13.714844-12.265625-16.390626-20.761719zm0 0" fill="#d7f9b7"/><path d="m124.152344 361.34375c9.113281 5.148438 14.691406 14.71875 22.265625 21.941406 3.953125 3.777344 9.234375 6.867188 14.546875 8.042969-.132813-1.878906-.601563-3.738281-1.378906-5.480469-21.148438-47.484375 47.066406-53.136718 25.21875-98.273437-22.699219-46.902344 14.058593-63.449219 14.058593-63.449219l-.085937-2.410156h-53.605469c-.042969 0-.078125-.011719-.117187-.011719-59.207032 27.691406-105.015626 79.21875-125.117188 142.226563 5.328125 12.351562 11.632812 24.1875 18.835938 35.390624 5.234374 1.339844 10.554687 2.199219 16.011718 2.296876 4.765625.082031 9.824219-.539063 13.558594-3.492188 5.125-4.050781 6.316406-11.160156 8.6875-17.246094 6.992188-17.96875 30.332031-29.019531 47.121094-19.535156zm0 0" fill="#a2ec00"/><path d="m145.171875 221.714844c-.042969 0-.078125-.011719-.117187-.011719-31.289063 14.632813-58.832032 35.925781-80.828126 62.046875 8.539063 5.265625 13.996094 14.386719 21.292969 21.351562 7.574219 7.222657 19.992188 11.964844 28.214844 5.488282 5.359375-4.226563 7.125-11.949219 12.699219-15.890625 9.902344-6.996094 23.089844 2.160156 35.210937 2.4375 16.316407.367187 27.847657-15.082031 41.589844-23.894531 12.292969-7.890626 27.78125-10.632813 42.039063-7.449219 13.285156 2.96875 24.976562 10.671875 37.742187 15.386719 12.769531 4.710937 28.488281 5.863281 38.75-3.074219 14.359375-12.511719 9.09375-37.039063-3.859375-51-1.703125-1.832031-3.527344-3.601563-5.332031-5.386719h-167.402344zm0 0" fill="#a2ec00"/><path d="m113.734375 310.589844c5.359375-4.226563 7.125-11.949219 12.699219-15.890625 9.902344-6.996094 23.089844 2.160156 35.210937 2.4375 8.734375.195312 16.097657-4.140625 23.160157-9.5625-22.699219-46.902344 14.058593-63.445313 14.058593-63.445313l-.085937-2.410156h-53.605469c-.039063 0-.078125-.011719-.117187-.015625-31.289063 14.636719-58.832032 35.929687-80.824219 62.050781 8.539062 5.261719 13.992187 14.382813 21.289062 21.347656 7.574219 7.222657 19.992188 11.964844 28.214844 5.488282zm0 0" fill="#00c82f"/><path d="m288.757812 485.585938c-2.613281-1.785157-6.097656-1.339844-9.203124-.738282-14.890626 2.878906-33.289063 6.496094-42.738282-5.367187-3.835937-4.808594-5.050781-11.125-7.3125-16.839844-5.566406-14.042969-18.355468-24.996094-33.089844-28.328125-14.734374-3.332031-30.992187 1.050781-42.054687 11.332031-5.648437 5.25-9.914063 11.8125-15.246094 17.378907-5.792969 6.046874-13.132812 10.78125-21.046875 13.570312 37.023438 22.46875 80.464844 35.40625 126.933594 35.40625 15.417969 0 30.5-1.441406 45.128906-4.164062 1.816406-4.675782 2.773438-9.558594 2.273438-14.589844-.289063-2.90625-1.230469-6.011719-3.644532-7.660156zm0 0" fill="#5294e5"/><path d="m177.816406 443.839844c.644532-3.308594.15625-6.65625-1.253906-9.574219-8.242188 1.75-16.03125 5.640625-22.203125 11.378906-5.648437 5.25-9.914063 11.8125-15.246094 17.382813-5.792969 6.042968-13.132812 10.777344-21.046875 13.570312 20.949219 12.710938 43.953125 22.367188 68.394532 28.363282-13.480469-21.917969-11.332032-47.316407-8.644532-61.121094zm0 0" fill="#4374d3"/><path d="m366.589844 438.714844c-1.574219-1.484375-3.066406-3.042969-4.351563-4.785156-3.738281-5.054688-5.226562-12.753907-.921875-17.335938 1.144532-1.21875 2.617188-2.125 3.617188-3.464844 1.582031-2.109375 1.746094-4.992187 1.210937-7.574218-1.785156-8.613282-10.296875-14.367188-18.863281-16.378907-8.5625-2.011719-17.507812-1.210937-26.277344-1.867187-7.058594-.527344-11.167968-3.089844-15.355468-7.652344-2.113282-2.300781-5.121094-3.574219-8.238282-3.402344-9.410156 1.15625-20.492187 4.597656-24.003906 16.648438-1.582031 5.425781 1.015625 14.277344 4.296875 18.878906 1.230469 1.726562 3.054687 2.964844 4.265625 4.707031 2.433594 3.515625 1.910156 8.28125 3.507812 12.242188 3.109376 7.699219 12.949219 10.011719 21.238282 9.585937 8.292968-.425781 16.972656-2.4375 24.640625.742188 6.546875 2.710937 11.046875 8.710937 15.117187 14.511718.375.53125.75 1.070313 1.128906 1.605469 4.183594 5.925781 12.53125 7.035157 18.167969 2.46875 5.902344-4.78125 6.34375-13.714843.820313-18.929687zm0 0" fill="#d7f9b7"/><path d="m150.824219 98.40625c-5.230469 0-9.46875 4.238281-9.46875 9.46875v112.4375c0 2.105469 1.707031 3.8125 3.816406 3.8125h129.703125v-125.71875zm0 0" fill="#face7a"/><path d="m198.863281 98.40625c4.6875 2.136719 7.953125 6.851562 7.953125 12.335938v101.046874c0 5.488282-3.265625 10.203126-7.953125 12.335938h76.011719v-125.71875zm0 0" fill="#fbb362"/><path d="m238.914062 140.078125h-62.707031c-4.992187 0-9.035156-4.046875-9.035156-9.039063 0-4.988281 4.042969-9.035156 9.035156-9.035156h62.707031c4.992188 0 9.039063 4.046875 9.039063 9.035156 0 4.992188-4.046875 9.039063-9.039063 9.039063zm0 0" fill="#fc9949"/><path d="m238.914062 170.988281h-62.707031c-4.992187 0-9.035156-4.046875-9.035156-9.039062 0-4.992188 4.042969-9.035157 9.035156-9.035157h62.707031c4.992188 0 9.039063 4.046876 9.039063 9.035157 0 4.992187-4.046875 9.039062-9.039063 9.039062zm0 0" fill="#fc9949"/><path d="m238.914062 201.894531h-62.707031c-4.992187 0-9.035156-4.046875-9.035156-9.039062 0-4.992188 4.042969-9.035157 9.035156-9.035157h62.707031c4.992188 0 9.039063 4.042969 9.039063 9.035157 0 4.992187-4.046875 9.039062-9.039063 9.039062zm0 0" fill="#fc9949"/><path d="m36.566406 117.726562c1-9.179687 8.347656-16.605468 17.519532-17.695312 1.8125-.214844 3.585937-.1875 5.289062.054688 2.039062.289062 3.796875-1.371094 3.796875-3.429688 0-.015625 0-.027344 0-.042969 0-24.007812 19.457031-43.464843 43.464844-43.464843 18.132812 0 33.667969 11.105468 40.1875 26.882812.777343 1.882812 2.921875 2.847656 4.800781 2.0625 3.566406-1.492188 7.480469-2.316406 11.589844-2.316406 12.359375 0 22.972656 7.4375 27.628906 18.078125.621094 1.417969 2.113281 2.230469 3.65625 2.101562 1.152344-.097656 2.328125-.097656 3.53125.015625 10.035156.941406 17.976562 9.429688 18.222656 19.507813.277344 11.328125-8.824218 20.597656-20.089844 20.597656h-139.628906c-11.839844 0-21.289062-10.242187-19.96875-22.351563zm0 0" fill="#e0f9fe"/><path d="m68.535156 131.183594c3.882813-14.636719 16.171875-24.796875 30.300782-26.679688 1.683593-.222656 2.921874-1.75 2.691406-3.433594-.441406-3.199218-.269532-6.535156.609375-9.847656 2.644531-9.976562 10.921875-16.949218 20.503906-18.425781 1.277344-.199219 2.253906-1.230469 2.480469-2.503906.167968-.949219.421875-1.902344.769531-2.84375 1.023437-2.78125 2.753906-5.140625 4.914063-6.960938-6.910157-4.632812-15.222657-7.339843-24.167969-7.339843-24.003907 0-43.464844 19.460937-43.464844 43.464843v.046875c0 2.054688-1.757813 3.714844-3.792969 3.429688-1.707031-.242188-3.480468-.269532-5.292968-.054688-9.171876 1.089844-16.519532 8.511719-17.519532 17.695313-1.320312 12.109375 8.128906 22.347656 19.972656 22.347656h10.785157c.03125-2.941406.425781-5.925781 1.210937-8.894531zm0 0" fill="#b9e9fd"/><path d="m311.1875 44.769531c-4.992188 0-9.039062-4.046875-9.039062-9.039062v-26.695313c0-4.988281 4.046874-9.035156 9.039062-9.035156 4.988281 0 9.035156 4.046875 9.035156 9.035156v26.695313c0 4.992187-4.046875 9.039062-9.035156 9.039062zm0 0" fill="#e0f9fe"/><path d="m332.992188 65.316406v-24.070312c0-3.046875-2.46875-5.515625-5.515626-5.515625h-32.582031c-3.042969 0-5.511719 2.46875-5.511719 5.515625v24.070312zm0 0" fill="#b9e9fd"/><path d="m316.703125 35.730469h-21.808594c-3.042969 0-5.511719 2.46875-5.511719 5.515625v24.070312h21.804688v-24.070312c0-3.046875 2.46875-5.515625 5.515625-5.515625zm0 0" fill="#83d3fc"/><path d="m340.113281 62.90625h-57.851562c-5.410157 0-9.796875 4.386719-9.796875 9.792969v151.425781h73.628906c2.105469 0 3.8125-1.707031 3.8125-3.8125v-147.613281c0-5.410157-4.382812-9.792969-9.792969-9.792969zm0 0" fill="#61b6ff"/><path d="m320.980469 62.90625h-38.71875c-5.410157 0-9.796875 4.386719-9.796875 9.792969v151.425781h38.722656v-151.425781c0-5.410157 4.382812-9.792969 9.792969-9.792969zm0 0" fill="#5294e5"/><g fill="#b9e9fd"><path d="m319.796875 140.078125h-17.21875c-4.992187 0-9.039063-4.046875-9.039063-9.039063 0-4.988281 4.046876-9.035156 9.039063-9.035156h17.21875c4.992187 0 9.039063 4.046875 9.039063 9.035156 0 4.992188-4.046876 9.039063-9.039063 9.039063zm0 0"/><path d="m319.796875 170.988281h-17.21875c-4.992187 0-9.039063-4.046875-9.039063-9.039062 0-4.992188 4.046876-9.035157 9.039063-9.035157h17.21875c4.992187 0 9.039063 4.046876 9.039063 9.035157 0 4.992187-4.046876 9.039062-9.039063 9.039062zm0 0"/><path d="m319.796875 109.171875h-17.21875c-4.992187 0-9.039063-4.046875-9.039063-9.035156 0-4.992188 4.046876-9.039063 9.039063-9.039063h17.21875c4.992187 0 9.039063 4.046875 9.039063 9.039063 0 4.988281-4.046876 9.035156-9.039063 9.035156zm0 0"/><path d="m319.796875 201.894531h-17.21875c-4.992187 0-9.039063-4.046875-9.039063-9.039062 0-4.992188 4.046876-9.035157 9.039063-9.035157h17.21875c4.992187 0 9.039063 4.042969 9.039063 9.035157 0 4.992187-4.046876 9.039062-9.039063 9.039062zm0 0"/></g><path d="m306.324219 231.164062c.59375-5.445312 4.953125-9.847656 10.390625-10.496093 1.078125-.128907 2.128906-.109375 3.140625.03125 1.207031.171875 2.25-.8125 2.25-2.03125 0-.011719 0-.019531 0-.027344 0-14.242187 11.542969-25.785156 25.785156-25.785156 10.757813 0 19.972656 6.589843 23.839844 15.949219.460937 1.117187 1.734375 1.6875 2.847656 1.222656 2.117187-.882813 4.4375-1.375 6.875-1.375 7.332031 0 13.628906 4.414062 16.390625 10.726562.367188.839844 1.253906 1.320313 2.171875 1.246094.679687-.058594 1.378906-.058594 2.089844.011719 5.953125.554687 10.667969 5.589843 10.8125 11.566406.164062 6.722656-5.234375 12.222656-11.917969 12.222656h-82.828125c-7.023437 0-12.628906-6.078125-11.847656-13.261719zm0 0" fill="#e0f9fe"/><path d="m344.96875 230.09375c1.171875-.285156 1.929688-1.457031 1.640625-2.628906-.550781-2.226563-.683594-4.597656-.3125-7.003906 1.117187-7.246094 6.4375-12.796876 13.097656-14.5625.886719-.238282 1.5-1.039063 1.5625-1.957032.050781-.683594.15625-1.375.328125-2.066406.371094-1.472656 1.015625-2.816406 1.867188-3.996094-4.273438-3.148437-9.546875-5.023437-15.261719-5.023437-14.242187 0-25.785156 11.542969-25.785156 25.785156v.027344c0 1.21875-1.042969 2.203125-2.25 2.03125-1.011719-.140625-2.0625-.160157-3.140625-.03125-5.4375.648437-9.796875 5.050781-10.390625 10.496093-.78125 7.183594 4.824219 13.261719 11.847656 13.261719h9.449219c3.292968-7.207031 9.738281-12.480469 17.347656-14.332031zm0 0" fill="#b9e9fd"/><path d="m36.515625 305.984375c.59375-5.445313 4.953125-9.847656 10.390625-10.496094 1.078125-.125 2.128906-.109375 3.140625.035157 1.207031.167968 2.253906-.816407 2.25-2.035157 0-.007812 0-.019531 0-.027343 0-14.238282 11.546875-25.785157 25.785156-25.785157 10.757813 0 19.972657 6.589844 23.839844 15.949219.460937 1.117188 1.734375 1.6875 2.847656 1.222656 2.117188-.882812 4.441407-1.375 6.875-1.375 7.332031 0 13.628907 4.414063 16.390625 10.726563.367188.839843 1.253906 1.324219 2.171875 1.246093.683594-.058593 1.382813-.054687 2.09375.011719 5.953125.558594 10.664063 5.59375 10.808594 11.570313.164063 6.71875-5.234375 12.21875-11.917969 12.21875h-82.828125c-7.023437 0-12.632812-6.078125-11.847656-13.261719zm0 0" fill="#e0f9fe"/><path d="m75.15625 304.914062c1.175781-.285156 1.933594-1.457031 1.644531-2.628906-.554687-2.226562-.683593-4.59375-.3125-7.003906 1.117188-7.246094 6.4375-12.796875 13.097657-14.5625.886718-.238281 1.5-1.039062 1.5625-1.957031.046874-.683594.15625-1.375.328124-2.066407.371094-1.46875 1.015626-2.816406 1.863282-3.996093-4.273438-3.148438-9.542969-5.023438-15.261719-5.023438-14.238281 0-25.78125 11.546875-25.78125 25.785157v.027343c0 1.21875-1.042969 2.203125-2.25 2.035157-1.011719-.144532-2.066406-.160157-3.140625-.035157-5.441406.648438-9.800781 5.050781-10.394531 10.496094-.78125 7.183594 4.824219 13.261719 11.847656 13.261719h9.449219c3.296875-7.207032 9.742187-12.480469 17.347656-14.332032zm0 0" fill="#b9e9fd"/></svg>