<svg height="511pt" viewBox="-10 0 511 511.99991" width="511pt" xmlns="http://www.w3.org/2000/svg"><path d="m245.5 22c-135.308594 0-245 109.6875-245 245 0 105.789062 67.050781 195.917969 160.976562 230.207031l173.289063-1.984375c91.167969-35.6875 155.734375-124.410156 155.734375-228.222656 0-135.3125-109.691406-245-245-245zm0 0" fill="#162680"/><path d="m338.328125 362.589844-16.886719-29.246094c-2.246094-3.890625-.914062-8.863281 2.976563-11.109375s8.863281-.914063 11.109375 2.976563l16.886718 29.246093c2.246094 3.890625.914063 8.863281-2.976562 11.109375-3.875 2.234375-8.855469.929688-11.109375-2.976562zm0 0" fill="#e0f9fe"/><path d="m155.496094 45.917969-16.882813-29.242188c-2.246093-3.890625-.914062-8.867187 2.976563-11.113281 3.890625-2.242188 8.863281-.914062 11.109375 2.976562l16.886719 29.246094c2.246093 3.890625.910156 8.867188-2.976563 11.113282-3.875 2.234374-8.855469.929687-11.113281-2.980469zm0 0" fill="#e0f9fe"/><path d="m245.832031 385.617188c-17.371093 0-34.855469-2.28125-52.085937-6.898438-51.597656-13.824219-94.71875-46.914062-121.429688-93.175781-55.132812-95.496094-22.296875-218.046875 73.199219-273.179688 7.640625-4.414062 15.667969-8.363281 23.855469-11.746093 4.152344-1.710938 8.90625.261718 10.621094 4.414062 1.714843 4.148438-.257813 8.90625-4.410157 10.621094-7.527343 3.109375-14.910156 6.742187-21.933593 10.796875-87.726563 50.652343-117.894532 163.230469-67.246094 250.960937 24.539062 42.496094 64.15625 72.894532 111.554687 85.597656 47.402344 12.699219 96.910157 6.179688 139.40625-18.355468 7.023438-4.054688 13.859375-8.628906 20.320313-13.59375 3.558594-2.742188 8.667968-2.074219 11.402344 1.488281 2.738281 3.558594 2.070312 8.667969-1.488282 11.402344-7.027344 5.40625-14.464844 10.378906-22.101562 14.789062-30.8125 17.792969-65.015625 26.878907-99.664063 26.878907zm0 0" fill="#c78fe8"/><path d="m87.441406 279.15625c-51.964844-87.78125-22.308594-201.601562 66.207032-252.707031 7.023437-4.054688 14.40625-7.6875 21.933593-10.796875 4.152344-1.714844 6.128907-6.472656 4.414063-10.625-1.714844-4.148438-6.472656-6.121094-10.625-4.410156-8.1875 3.378906-16.210938 7.332031-23.855469 11.746093-95.777344 55.296875-129.207031 179.226563-71.738281 275.636719.589844-6.609375 7.242187-11.054688 13.664062-8.84375zm0 0" fill="#b26cde"/><path d="m257.144531 365.792969c-5.855469.175781-11.707031.101562-17.53125-.214844-3.71875-.207031-6.855469 2.726563-6.855469 6.449219v44.460937h31.078126v-44.238281c0-3.660156-3.03125-6.566406-6.691407-6.457031zm0 0" fill="#61b6ff"/><path d="m389.207031 102.417969c-45.742187-79.222657-147.046875-106.367188-226.269531-60.625-79.222656 45.742187-106.367188 147.046875-60.625 226.269531 45.738281 79.222656 147.042969 106.367188 226.265625 60.625 79.226563-45.742188 106.367187-147.046875 60.628906-226.269531zm0 0" fill="#83d3fc"/><path d="m279.535156 23.089844c-38.457031-8.023438-79.890625-2.484375-116.59375 18.703125-79.222656 45.742187-106.371094 147.046875-60.628906 226.273437 13.871094 24.023438 32.851562 43.246094 54.773438 57.113282-15.722657-44.242188 2.929687-67.375 22.925781-87.371094 12.957031-12.957032 9.6875-28.898438 5.648437-38.703125-4.472656-10.863281-6.316406-22.660157-5.214844-34.359375 5.667969-60.164063 64.894532-31.167969 59.363282-64.164063-3.4375-20.515625 1.691406-29.820312 6.921875-34.035156 4.226562-3.40625 6.617187-8.65625 6-14.050781-2.890625-25.203125 20.328125-28.871094 26.804687-29.40625zm0 0" fill="#5294e5"/><path d="m270.160156 261.636719c-6.820312-.832031-13.339844-6.824219-15.703125-13.714844-3.152343-9.183594-1.351562-19.210937-.652343-28.894531.699218-9.6875-.191407-20.503906-7.164063-27.261719-5.683594-5.5-14.132813-6.988281-22.042969-7.089844-12.726562-.167969-25.480468 2.589844-36.996094 8.003907-5.6875 2.671874-11.207031 6.023437-17.824218 5.746093-2.367188-.097656-4.710938-.796875-6.621094-2.199219-6.175781-4.542968-4.582031-12.4375-4.148438-19.308593.378907-6.023438-1.734374-13.648438-7.710937-14.492188-2.058594-.289062-4.117187.351563-6.171875.679688-14.058594 2.230469-27.699219-14.011719-22.074219-27.5.320313-.761719.554688-1.570313.546875-2.398438-.050781-6.8125-7.242187-5.804687-12.34375-5.074219-6.71875.964844-13.554687-.824218-19.28125-4.429687-18.175781 45.519531-16.066406 98.621094 10.34375 144.363281 29.175782 50.539063 80.964844 79.875 135.207032 82.628906 3.878906-6.195312 6.554687-13.222656 8.011718-20.394531.535156-2.636719.917969-5.402343.175782-7.988281-.671876-2.355469-2.21875-4.34375-3.339844-6.519531-6.1875-11.96875 2.253906-27.617188 14.667968-32.84375 5.613282-2.363281 11.953126-3.203125 16.894532-6.757813.269531-.195312.535156-.402344.789062-.621094 5.316406-4.566406 2.394532-13.089843-4.5625-13.933593zm0 0" fill="#5294e5"/><path d="m157.085938 325.171875c-15.71875-44.238281 2.929687-67.367187 22.925781-87.363281 12.957031-12.957032 9.6875-28.898438 5.648437-38.703125-.628906-1.53125-1.203125-3.082031-1.726562-4.648438-4.453125 2.167969-8.964844 4.183594-14.15625 3.96875-2.371094-.097656-4.710938-.800781-6.621094-2.203125-6.175781-4.539062-4.582031-12.433594-4.148438-19.308594.378907-6.019531-1.734374-13.644531-7.710937-14.488281-2.0625-.289062-4.117187.351563-6.171875.675781-14.058594 2.230469-27.699219-14.011718-22.074219-27.496093.316407-.761719.550781-1.570313.546875-2.398438-.050781-6.816406-7.242187-5.808593-12.34375-5.074219-6.71875.960938-13.558594-.824218-19.28125-4.429687-18.179687 45.519531-16.070312 98.621094 10.339844 144.363281 13.871094 24.023438 32.851562 43.242188 54.773438 57.105469zm0 0" fill="#4374d3"/><path d="m165.117188 40.574219c-2.222657 10.871093.894531 22.9375 8.816406 30.796875 2.277344 2.257812 5.015625 4.394531 5.808594 7.5.621093 2.441406-.097657 4.992187-.640626 7.449218-.007812.035157-.011718.066407-.019531.097657-1.132812 5.179687 5.609375 8.328125 8.902344 4.167969 6.664063-8.421876 7.578125-22.464844 16.050781-15.921876 13.589844 10.492188 22.648438-.523437 22.648438-.523437 4.09375-6.484375 12.4375-8.539063 19.957031-10.050781 7.785156-1.5625 19.050781-1.101563 17.917969 9.078125-.183594 1.621093-.773438 3.136719-1.65625 4.472656-2.4375 3.683594-2.070313 8.667969.996094 11.847656 2.507812 2.605469 6.855468 4.078125 14.378906 1.355469 12.339844-4.535156 26.339844-4.382812 38.582031.421875 1.714844.671875 3.492187 1.507813 4.515625 3.046875 1.511719 2.265625.925781 5.296875.050781 7.878906-5.664062 16.683594-21.191406 30.5625-20.070312 48.148438.714843 11.246094 8.363281 20.894531 16.976562 28.160156 7.855469 6.625 16.789063 11.964844 26.34375 15.734375 6.0625 2.394531 12.738281 4.410156 16.800781 9.503906 3.546876 4.445313 4.402344 10.390625 5.132813 16.023438 1.066406 8.210937 2.132813 16.421875 3.195313 24.628906.289062 2.21875.46875 4.777344-1.101563 6.371094-1.257813 1.277343-3.273437 1.5-4.640625 2.660156-1.792969 1.523437-1.996094 4.21875-1.644531 6.546875 1.46875 9.730469 10.464843 16.996094 20.230469 18.617188 34.667968-50.921876 39.429687-119.242188 6.566406-176.164063-45.324219-78.503906-145.199219-105.855469-224.097656-61.847656zm0 0" fill="#a2ec00"/><path d="m165.117188 40.574219c-2.222657 10.871093.894531 22.9375 8.816406 30.796875 2.277344 2.257812 5.015625 4.394531 5.808594 7.5.621093 2.441406-.097657 4.992187-.640626 7.449218-.007812.03125-.011718.066407-.019531.097657-1.132812 5.179687 5.609375 8.324219 8.902344 4.167969 6.664063-8.421876 7.578125-22.464844 16.050781-15.921876 13.589844 10.492188 22.648438-.523437 22.648438-.523437 4.09375-6.484375 12.4375-8.539063 19.957031-10.050781.933594-.1875 1.921875-.347656 2.929687-.460938 2.402344-3.160156 3.621094-7.105468 3.160157-11.132812-2.886719-25.175782 20.277343-28.863282 26.78125-29.40625-37.691407-7.851563-78.246094-2.679688-114.394531 17.484375zm0 0" fill="#00c82f"/><path d="m258.515625 123.371094c-1.484375-.351563-2.945313-.777344-4.347656-1.390625-4.070313-1.773438-7.699219-5.953125-6.683594-10.277344.269531-1.148437.847656-2.21875.988281-3.390625.222656-1.847656-.695312-3.671875-1.933594-5.0625-4.132812-4.636719-11.367187-5.148438-17.316406-3.355469-5.945312 1.792969-11.132812 5.441407-16.730468 8.136719-4.5 2.167969-7.917969 2.050781-12.089844.742188-2.101563-.664063-4.390625-.378907-6.238282.828124-5.34375 4.03125-5.601562 11.886719-4.769531 18.53125.492188 3.960938 1.632813 8.496094 5.265625 10.152344 1.359375.621094 2.914063.734375 4.269532 1.371094 2.726562 1.289062 4.089843 4.386719 6.46875 6.246094 4.617187 3.609375 11.449218 1.550781 16.367187-1.636719s9.519531-7.480469 15.328125-8.246094c4.960938-.652343 9.832031 1.425781 14.367188 3.539063.417968.191406.835937.390625 1.257812.582031 4.652344 2.144531 10.148438-.121094 11.980469-4.902344 1.921875-5.011719-.960938-10.628906-6.183594-11.867187zm0 0" fill="#a2ec00"/><path d="m239.808594 100.582031c-.070313-.410156-.128906-.8125-.191406-1.21875-3.359376-.75-7.078126-.46875-10.394532.53125-5.945312 1.792969-11.132812 5.441407-16.730468 8.136719-4.5 2.167969-7.917969 2.050781-12.089844.742188-2.101563-.664063-4.390625-.378907-6.238282.828124-5.34375 4.03125-5.601562 11.886719-4.769531 18.53125.308594 2.484376.875 5.195313 2.148438 7.277344 18.542969-20.710937 52.515625-9.476562 48.265625-34.828125zm0 0" fill="#00c82f"/><path d="m115.285156 96.332031c6.144532-1.425781 10.320313-.339843 15.101563 2.433594 2.40625 1.394531 5.304687 1.679687 7.914062.703125 7.699219-3.488281 10.1875-13.101562 11.003907-21.515625.484374-5.015625.335937-10.917969-3.679688-13.960937-1.507812-1.140626-3.390625-1.710938-4.882812-2.871094-.824219-.644532-1.484376-1.429688-2.058594-2.289063-13.921875 11.765625-25.527344 25.535157-34.640625 40.617188 3.742187-1.046875 7.464843-2.238281 11.242187-3.117188zm0 0" fill="#4374d3"/><path d="m389.214844 102.425781c-6.484375-11.234375-14.089844-21.414062-22.585938-30.492187-6.671875 14.4375-18.953125 27.191406-17.953125 42.90625.714844 11.25 8.363281 20.894531 16.976563 28.164062 7.855468 6.625 16.789062 11.960938 26.34375 15.734375 6.0625 2.390625 12.738281 4.410157 16.804687 9.503907.828125 1.042968 1.507813 2.167968 2.078125 3.351562-1.941406-23.652344-9.011718-47.253906-21.664062-69.167969zm0 0" fill="#d7f9b7"/><path d="m258.324219 363.601562c-6.636719.199219-13.265625.117188-19.871094-.246093-4.214844-.230469-7.769531 3.089843-7.769531 7.3125v15.445312c0 4.222657 3.554687 7.542969 7.769531 7.3125 6.605469-.363281 13.234375-.445312 19.871094-.246093 4.148437.125 7.585937-3.167969 7.585937-7.316407v-14.945312c0-4.144531-3.4375-7.441407-7.585937-7.316407zm0 0" fill="#b9e9fd"/><path d="m248.296875 386.113281v-15.445312c0-3.296875 2.171875-6.035157 5.128906-6.972657-5 .046876-9.992187-.066406-14.972656-.339843-4.214844-.230469-7.769531 3.089843-7.769531 7.3125v15.445312c0 4.222657 3.554687 7.542969 7.769531 7.3125 4.980469-.273437 9.972656-.386719 14.972656-.339843-2.957031-.9375-5.128906-3.675782-5.128906-6.972657zm0 0" fill="#83d3fc"/><path d="m283.429688 429.859375c0-8.582031-6.957032-15.539063-15.539063-15.539063h-39.1875c-8.582031 0-15.539063 6.957032-15.539063 15.539063s6.957032 15.539063 15.539063 15.539063h39.1875c8.582031 0 15.539063-6.957032 15.539063-15.539063zm0 0" fill="#e0f9fe"/><path d="m248.296875 429.859375c0-8.582031 6.957031-15.539063 15.539063-15.539063h-35.132813c-8.582031 0-15.539063 6.957032-15.539063 15.539063s6.957032 15.539063 15.539063 15.539063h35.132813c-8.582032 0-15.539063-6.957032-15.539063-15.539063zm0 0" fill="#b9e9fd"/><path d="m314.878906 459.855469c0-8.582031-6.957031-15.539063-15.542968-15.539063h-102.078126c-8.585937 0-15.542968 6.957032-15.542968 15.539063s6.957031 15.539062 15.542968 15.539062h102.082032c8.582031 0 15.539062-6.957031 15.539062-15.539062zm0 0" fill="#b9e9fd"/><path d="m216.847656 459.855469c0-8.582031 6.957032-15.539063 15.539063-15.539063h-35.128907c-8.585937 0-15.542968 6.957032-15.542968 15.539063s6.957031 15.539062 15.542968 15.539062h35.128907c-8.582031 0-15.539063-6.957031-15.539063-15.539062zm0 0" fill="#83d3fc"/><path d="m312.613281 474.308594h-128.632812c-12.773438 0-23.410157 9.59375-25.074219 21.929687 26.925781 10.175781 56.105469 15.761719 86.59375 15.761719 32.472656 0 63.464844-6.332031 91.824219-17.808594-2.5-11.332031-12.652344-19.882812-24.710938-19.882812zm0 0" fill="#5294e5"/><path d="m226.03125 474.308594h-42.050781c-12.773438 0-23.410157 9.59375-25.074219 21.929687 15.457031 5.839844 31.660156 10.160157 48.421875 12.789063 1.929687-16.96875 9.292969-30.550782 18.703125-34.71875zm0 0" fill="#4374d3"/></svg>