<svg height="511pt" viewBox="-10 0 511 511.99579" width="511pt" xmlns="http://www.w3.org/2000/svg"><path d="m245.496094 21.996094c-135.308594 0-245 109.6875-245 245 0 77.167968 35.6875 145.988281 91.445312 190.898437h307.113282c55.757812-44.910156 91.441406-113.730469 91.441406-190.898437 0-135.3125-109.6875-245-245-245zm0 0" fill="#162680"/><path d="m324.496094 45.644531c-25.203125-43.652343-81.023438-58.609375-124.679688-33.40625-43.652344 25.203125-58.609375 81.023438-33.40625 124.679688 25.207032 43.652343 81.027344 58.609375 124.679688 33.402343 43.652344-25.203124 58.609375-81.023437 33.40625-124.675781zm0 0" fill="#83d3fc"/><path d="m264.066406 1.933594c-21.191406-4.421875-44.019531-1.371094-64.242187 10.304687-43.652344 25.203125-58.609375 81.027344-33.40625 124.679688 7.640625 13.234375 18.101562 23.828125 30.179687 31.46875-8.664062-24.378907 1.613282-37.121094 12.632813-48.140625 7.136719-7.140625 5.335937-15.921875 3.113281-21.324219-2.46875-5.988281-3.484375-12.488281-2.875-18.933594 3.121094-33.152343 35.757812-17.171875 32.710938-35.355469-1.894532-11.304687.929687-16.429687 3.8125-18.753906 2.328124-1.878906 3.644531-4.769531 3.304687-7.742187-1.589844-13.886719 11.203125-15.910157 14.769531-16.203125zm0 0" fill="#5294e5"/><path d="m258.902344 133.375c-3.757813-.457031-7.351563-3.761719-8.652344-7.558594-1.738281-5.058594-.746094-10.585937-.359375-15.921875.382813-5.335937-.105469-11.296875-3.949219-15.019531-3.132812-3.03125-7.789062-3.851562-12.148437-3.910156-7.011719-.089844-14.035157 1.429687-20.382813 4.410156-3.132812 1.472656-6.175781 3.320312-9.820312 3.167969-1.308594-.050781-2.597656-.4375-3.648438-1.210938-3.40625-2.503906-2.527344-6.851562-2.289062-10.640625.210937-3.316406-.953125-7.519531-4.246094-7.984375-1.136719-.160156-2.269531.195313-3.402344.375-7.746094 1.230469-15.261718-7.722656-12.160156-15.152343.175781-.421876.304688-.867188.300781-1.320313-.03125-3.753906-3.992187-3.199219-6.800781-2.796875-3.703125.53125-7.472656-.453125-10.625-2.441406-10.019531 25.082031-8.855469 54.339844 5.695312 79.546875 16.078126 27.847656 44.613282 44.011719 74.503907 45.527343 2.136719-3.410156 3.609375-7.285156 4.414062-11.238281.292969-1.453125.507813-2.976562.097657-4.398437-.371094-1.296875-1.222657-2.394532-1.839844-3.59375-3.410156-6.59375 1.242187-15.21875 8.082031-18.097656 3.09375-1.300782 6.585937-1.765626 9.308594-3.722657.148437-.105469.292969-.222656.433593-.34375 2.929688-2.515625 1.320313-7.210937-2.511718-7.675781zm0 0" fill="#5294e5"/><path d="m196.597656 168.382812c-8.660156-24.375 1.613282-37.117187 12.632813-48.136718 7.140625-7.140625 5.335937-15.921875 3.113281-21.324219-.347656-.84375-.664062-1.699219-.953125-2.5625-2.453125 1.195313-4.941406 2.304687-7.800781 2.1875-1.304688-.054687-2.59375-.441406-3.648438-1.214844-3.402344-2.5-2.523437-6.851562-2.285156-10.636719.207031-3.320312-.957031-7.523437-4.25-7.984374-1.132812-.160157-2.269531.191406-3.398438.371093-7.746093 1.230469-15.265624-7.71875-12.164062-15.148437.175781-.421875.304688-.867188.300781-1.324219-.027343-3.753906-3.988281-3.199219-6.800781-2.796875-3.703125.53125-7.46875-.453125-10.625-2.4375-10.015625 25.078125-8.851562 54.339844 5.699219 79.542969 7.640625 13.234375 18.101562 23.828125 30.179687 31.464843zm0 0" fill="#4374d3"/><path d="m201.023438 11.566406c-1.226563 5.992188.492187 12.640625 4.859374 16.96875 1.253907 1.246094 2.761719 2.421875 3.195313 4.136719.34375 1.34375-.050781 2.746094-.351563 4.101563-.003906.019531-.007812.039062-.011718.054687-.621094 2.855469 3.09375 4.585937 4.90625 2.296875 3.671875-4.640625 4.175781-12.378906 8.847656-8.773438 7.484375 5.78125 12.476562-.285156 12.476562-.285156 2.257813-3.574218 6.855469-4.707031 10.996094-5.539062 4.292969-.863282 10.5-.609375 9.875 5-.101562.894531-.425781 1.730468-.914062 2.464844-1.34375 2.03125-1.140625 4.777343.546875 6.527343 1.382812 1.4375 3.78125 2.25 7.925781.75 6.800781-2.5 14.515625-2.417969 21.257812.230469.949219.371094 1.925782.832031 2.488282 1.679688.835937 1.25.511718 2.917968.03125 4.339843-3.121094 9.195313-11.675782 16.839844-11.0625 26.53125.394531 6.195313 4.609375 11.511719 9.355468 15.515625 4.328126 3.652344 9.25 6.59375 14.519532 8.671875 3.339844 1.320313 7.015625 2.429688 9.257812 5.238281 1.953125 2.445313 2.425782 5.722657 2.828125 8.828126.585938 4.523437 1.171875 9.046874 1.757813 13.570312.160156 1.222656.257812 2.632812-.605469 3.507812-.695313.703126-1.804687.828126-2.558594 1.46875-.988281.839844-1.097656 2.324219-.90625 3.605469.808594 5.363281 5.765625 9.367188 11.148438 10.257813 19.101562-28.058594 21.726562-65.703125 3.617187-97.066406-24.976562-43.257813-80.007812-58.332032-123.480468-34.082032zm0 0" fill="#a2ec00"/><path d="m201.023438 11.566406c-1.226563 5.992188.492187 12.640625 4.859374 16.96875 1.253907 1.246094 2.761719 2.421875 3.195313 4.136719.34375 1.34375-.050781 2.75-.351563 4.101563-.003906.019531-.007812.039062-.011718.054687-.621094 2.855469 3.09375 4.585937 4.90625 2.296875 3.671875-4.640625 4.175781-12.378906 8.847656-8.773438 7.484375 5.78125 12.476562-.285156 12.476562-.285156 2.257813-3.574218 6.855469-4.707031 10.996094-5.539062.515625-.105469 1.058594-.191406 1.617188-.253906 1.324218-1.742188 1.992187-3.914063 1.738281-6.132813-1.589844-13.875 11.175781-15.90625 14.761719-16.203125-20.773438-4.332031-43.117188-1.480469-63.035156 9.628906zm0 0" fill="#00c82f"/><path d="m252.488281 57.1875c-.820312-.191406-1.625-.425781-2.398437-.765625-2.242188-.976563-4.242188-3.277344-3.683594-5.660156.152344-.632813.46875-1.226563.546875-1.871094.121094-1.019531-.382813-2.023437-1.066406-2.789063-2.277344-2.554687-6.265625-2.835937-9.539063-1.847656-3.277344.988282-6.136718 2.996094-9.21875 4.484375-2.480468 1.195313-4.363281 1.128907-6.664062.40625-1.15625-.363281-2.421875-.207031-3.4375.457031-2.945313 2.21875-3.085938 6.550782-2.628906 10.210938.273437 2.183594.902343 4.679688 2.902343 5.59375.75.339844 1.605469.402344 2.351563.753906 1.503906.710938 2.253906 2.417969 3.5625 3.445313 2.546875 1.988281 6.308594.851562 9.019531-.902344 2.710937-1.757813 5.246094-4.125 8.449219-4.542969 2.730468-.359375 5.417968.785156 7.914062 1.949219.230469.105469.464844.214844.695313.320313 2.5625 1.183593 5.589843-.066407 6.601562-2.703126 1.058594-2.761718-.53125-5.855468-3.40625-6.539062zm0 0" fill="#a2ec00"/><path d="m242.179688 44.632812c-.039063-.226562-.070313-.449218-.105469-.671874-1.851563-.414063-3.898438-.257813-5.726563.292968-3.277344.988282-6.136718 2.996094-9.21875 4.480469-2.480468 1.195313-4.363281 1.132813-6.664062.410156-1.15625-.363281-2.421875-.207031-3.4375.457031-2.945313 2.21875-3.085938 6.550782-2.628906 10.210938.171874 1.367188.484374 2.863281 1.183593 4.011719 10.21875-11.414063 28.9375-5.222657 26.597657-19.191407zm0 0" fill="#00c82f"/><path d="m173.5625 42.292969c3.386719-.789063 5.6875-.1875 8.324219 1.335937 1.324219.773438 2.921875.929688 4.359375.390625 4.242187-1.921875 5.613281-7.21875 6.0625-11.855469.269531-2.761718.1875-6.015624-2.027344-7.691406-.828125-.632812-1.867188-.945312-2.6875-1.585937-.457031-.351563-.820312-.785157-1.136719-1.261719-7.671875 6.484375-14.0625 14.070312-19.085937 22.382812 2.0625-.578124 4.109375-1.234374 6.191406-1.714843zm0 0" fill="#4374d3"/><path d="m324.503906 45.648438c-3.574218-6.191407-7.765625-11.800782-12.445312-16.800782-3.675782 7.953125-10.445313 14.980469-9.894532 23.640625.394532 6.199219 4.609376 11.511719 9.355469 15.515625 4.328125 3.652344 9.25 6.59375 14.515625 8.671875 3.339844 1.320313 7.019532 2.429688 9.257813 5.238281.460937.574219.832031 1.195313 1.148437 1.847657-1.070312-13.03125-4.964844-26.039063-11.9375-38.113281zm0 0" fill="#d7f9b7"/><path d="m181.527344 387.527344 1.300781-2.410156c4.714844-8.753907 15.828125-11.726563 24.28125-6.492188l2.320313 1.433594c6.96875 4.3125 16.011718 3.132812 21.636718-2.828125l1.898438-2.015625c6.8125-7.21875 18.296875-7.21875 25.109375 0l1.898437 2.015625c5.625 5.960937 14.667969 7.140625 21.636719 2.828125l2.320313-1.4375c8.453124-5.230469 19.570312-2.257813 24.285156 6.492187l1.296875 2.414063c.46875.871094 1.007812 1.683594 1.601562 2.445312l-49.730469-210.941406c-18.035156 0-13.773437 0-31.726562 0l-49.730469 210.941406c.59375-.757812 1.132813-1.570312 1.601563-2.445312zm0 0" fill="#f9ecc6"/><path d="m249.519531 179.03125c-5.703125 0-7.613281 0-19.863281 0l-49.730469 210.941406c.59375-.757812 1.132813-1.574218 1.601563-2.445312l1.300781-2.410156c4.714844-8.753907 15.828125-11.726563 24.28125-6.492188l2.320313 1.433594c6.234374 3.859375 14.121093 3.308594 19.746093-1.117188zm0 0" fill="#fadda0"/><path d="m291.1875 170.4375c.375-.214844.734375-.453125 1.105469-.675781-9.648438-10.550781-26.984375-17.589844-46.773438-17.589844-19.796875 0-37.140625 7.042969-46.789062 17.605469 27.492187 16.363281 62.78125 17.796875 92.457031.660156zm0 0" fill="#4374d3"/><path d="m245.492188 166.917969c-.375-1.296875-1.222657-2.394531-1.84375-3.59375-1.824219-3.527344-1.328126-7.628907.558593-11.128907-19.253906.304688-36.054687 7.261719-45.484375 17.59375 12.835938 7.640626 27.375 12.027344 42.253906 12.78125 2.136719-3.414062 3.613282-7.292968 4.414063-11.246093.296875-1.453125.507813-2.980469.101563-4.40625zm0 0" fill="#3957c9"/><path d="m206.398438 280.261719c-.355469 6.277343.796874 12.730469 3.65625 18.824219 9.191406 19.582031 32.519531 28.007812 52.101562 18.816406 14.894531-6.992188 23.324219-22.164063 22.464844-37.640625zm0 0" fill="#fbb362"/><path d="m210.054688 299.085938c2.34375 4.992187 5.605468 9.253906 9.488281 12.6875l23.441406-18.398438c-2.714844-4.574219-4.558594-8.964844-5.746094-13.113281h-30.839843c-.355469 6.277343.796874 12.730469 3.65625 18.824219zm0 0" fill="#fc9949"/><path d="m280.972656 265.800781c-9.191406-19.582031-32.519531-28.007812-52.101562-18.816406-14.195313 6.664063-22.519532 20.753906-22.53125 35.460937h78.34375c.003906-5.585937-1.183594-11.253906-3.710938-16.644531zm0 0" fill="#4374d3"/><path d="m244.960938 296.492188c-4.574219-9.75-16.183594-13.941407-25.933594-9.367188-4.589844 2.15625-7.945313 5.875-9.734375 10.226562.242187.582032.492187 1.160157.761719 1.734376 5.546874 11.816406 16.238281 19.558593 28.148437 21.832031 7.839844-5.277344 10.898437-15.605469 6.757813-24.425781zm0 0" fill="#fd7e31"/><path d="m259.316406 298.738281c-5.984375-1.316406-5.730468-9.453125 0-10.710937 3.398438-.695313 6.519532 1.945312 6.519532 5.347656 0 3.429688-3.074219 6.003906-6.519532 5.363281zm0 0" fill="#fadda0"/><path d="m259.09375 277.632812c-5.949219 0-10.917969-4.828124-10.917969-10.917968 0-6.808594 6.257813-12.074219 13.046875-10.699219 4.074219.765625 7.644532 4.019531 8.570313 8.570313 1.351562 6.640624-3.753907 13.046874-10.699219 13.046874zm0 0" fill="#5294e5"/><path d="m90.722656 456.894531c42.199219 34.4375 96.082032 55.101563 154.796875 55.101563 58.714844 0 112.597657-20.664063 154.796875-55.101563-4.964844-3.203125-8.085937-8.835937-7.902344-15.015625l.078126-2.75c.292968-9.925781-7.832032-18.050781-17.757813-17.757812l-2.75.078125c-8.195313.242187-15.429687-5.316407-17.308594-13.296875l-.628906-2.664063c-2.277344-9.671875-12.230469-15.429687-21.75-12.582031l-2.636719.789062c-7.847656 2.347657-16.261718-1.140624-20.148437-8.351562l-1.296875-2.410156c-4.714844-8.753906-15.832032-11.726563-24.285156-6.492188l-2.320313 1.433594c-6.96875 4.316406-16.011719 3.132812-21.636719-2.828125l-1.898437-2.011719c-6.8125-7.21875-18.296875-7.21875-25.109375 0l-1.898438 2.011719c-5.625 5.960937-14.667968 7.144531-21.636718 2.828125l-2.320313-1.433594c-8.453125-5.234375-19.570313-2.261718-24.28125 6.492188l-1.300781 2.414062c-3.882813 7.210938-12.300782 10.695313-20.144532 8.351563l-2.640624-.789063c-9.519532-2.851562-19.472657 2.90625-21.75 12.578125l-.625 2.664063c-1.882813 7.980468-9.113282 13.535156-17.308594 13.296875l-2.75-.082031c-9.925782-.289063-18.050782 7.835937-17.761719 17.761718l.082031 2.75c.179688 6.179688-2.9375 11.8125-7.90625 15.015625zm0 0" fill="#fadda0"/><path d="m209.09375 456.453125c-22.003906-22.003906-6.25-45.972656-6.25-45.972656-15.96875-15.96875-.304688-35.5625-.011719-35.921875-7.609375-2.214844-16.054687 1.039062-20.003906 8.375l-1.300781 2.414062c-3.882813 7.210938-12.300782 10.695313-20.144532 8.351563l-2.640624-.789063c-9.519532-2.851562-19.472657 2.90625-21.75 12.578125l-.625 2.664063c-1.882813 7.980468-9.113282 13.539062-17.308594 13.296875l-2.75-.082031c-9.925782-.289063-18.050782 7.835937-17.761719 17.761718l.082031 2.75c.179688 6.179688-2.9375 11.8125-7.90625 15.015625 30.007813 24.488281 65.925782 42 105.285156 50.082031-.515624-20.597656 28.386719-35.222656 13.085938-50.523437zm0 0" fill="#eec707"/><path d="m245.519531 511.996094c48.933594 0 94.507813-14.351563 132.761719-39.066406-29.675781-41.230469-78.078125-68.082032-132.761719-68.082032-54.679687 0-103.082031 26.851563-132.761719 68.082032 38.253907 24.714843 83.832032 39.066406 132.761719 39.066406zm0 0" fill="#fbb362"/><path d="m196.007812 506.984375c-.523437-20.605469 28.390626-35.226563 13.085938-50.53125-21.84375-21.84375-6.488281-45.605469-6.261719-45.957031-36.769531 9.921875-68.414062 32.339844-90.074219 62.433594 24.992188 16.148437 53.113282 27.867187 83.25 34.054687zm0 0" fill="#fc9949"/><path d="m270.285156 406.710938c-6.261718 8.316406-6.136718 19.777343.40625 27.953124.050782.058594.097656.117188.148438.179688 10.417968 13.121094 26.257812 20.769531 43.015625 20.769531h50.082031c-24.398438-25.621093-57.03125-43.335937-93.652344-48.902343zm0 0" fill="#fc9949"/><path d="m245.519531 511.996094c14.644531 0 28.988281-1.289063 42.925781-3.753906-5.871093-4.621094-11.246093-9.941407-15.988281-15.910157-18.417969-23.195312-46.421875-36.71875-76.042969-36.71875h-69.3125c-5.167968 5.429688-9.953124 11.222657-14.339843 17.320313 38.253906 24.710937 83.828125 39.0625 132.757812 39.0625zm0 0" fill="#fd7e31"/><path d="m127.101562 455.613281c-5.167968 5.429688-9.953124 11.222657-14.339843 17.320313 24.992187 16.144531 53.109375 27.863281 83.246093 34.050781-.523437-20.601563 28.386719-35.226563 13.085938-50.53125-4.175781-.546875-8.410156-.839844-12.679688-.839844zm0 0" fill="#fc5d1f"/><path d="m272.457031 473.796875c-13.460937-7.667969-32.042969-12.996094-52.632812-15.308594 20.589843 5.113281 39.171875 16.890625 52.632812 33.84375 4.742188 5.96875 10.117188 11.289063 15.988281 15.910157 20.25-3.578126 39.644532-9.640626 57.851563-17.867188-28.800781-.296875-55.875-6.347656-73.839844-16.578125zm0 0" fill="#face7a"/><path d="m242.910156 243.363281c-4.734375.3125-9.488281 1.484375-14.039062 3.621094-14.195313 6.664063-22.519532 20.753906-22.53125 35.460937h31.582031c-7.417969-22.042968 3.996094-37.777343 4.988281-39.082031zm0 0" fill="#3957c9"/></svg>