<svg height="511pt" viewBox="-10 0 511 511.99827" width="511pt" xmlns="http://www.w3.org/2000/svg"><path d="m245.5 21.996094c-135.3125 0-245 109.691406-245 245.003906 0 75.714844 34.351562 143.398438 88.3125 188.339844l312.96875.34375c54.195312-44.941406 88.71875-112.78125 88.71875-188.683594 0-135.3125-109.691406-245.003906-245-245.003906zm0 0" fill="#eec707"/><path d="m283.125 39.175781h-.042969c-.570312 13.554688-8.46875 26.339844-21.601562 32.503907-18.804688 8.828124-41.207031.734374-50.035157-18.070313-2.195312-4.675781-3.339843-9.574219-3.539062-14.433594h-.539062l-119.738282 415.164063c1.453125 1.222656 2.914063 2.425781 4.394532 3.617187 5.167968-3.558593 8.414062-9.578125 8.222656-16.125l-.082032-2.75c-.125-4.347656 1.496094-8.433593 4.570313-11.503906 3.074219-3.074219 7.144531-4.710937 11.507813-4.570313l2.75.078126c8.9375.234374 16.902343-5.859376 18.949218-14.558594l.625-2.660156c1-4.234376 3.621094-7.765626 7.386719-9.945313s8.136719-2.691406 12.304687-1.445313l2.636719.789063c8.550781 2.558594 17.824219-1.285156 22.054688-9.144531l1.300781-2.410156c2.066406-3.832032 5.515625-6.5625 9.722656-7.6875 4.203125-1.121094 8.558594-.480469 12.257813 1.808593l2.320312 1.4375c7.59375 4.703125 17.558594 3.398438 23.691407-3.097656l1.898437-2.011719c2.980469-3.160156 7.015625-4.902344 11.363281-4.902344 4.34375 0 8.378906 1.742188 11.359375 4.902344l1.898438 2.011719c6.132812 6.496094 16.097656 7.796875 23.695312 3.097656l2.316407-1.4375c3.703124-2.289062 8.054687-2.929687 12.257812-1.808593 4.207031 1.125 7.65625 3.855468 9.722656 7.6875l1.300782 2.410156c4.230468 7.859375 13.507812 11.703125 22.054687 9.148437l2.640625-.789062c4.164062-1.25 8.535156-.734375 12.300781 1.441406 3.765625 2.179687 6.386719 5.710937 7.386719 9.945313l.625 2.660156c2.050781 8.699218 10.050781 14.804687 18.949219 14.558594l2.75-.078126c4.335937-.125 8.433593 1.496094 11.507812 4.570313s4.695313 7.160156 4.570313 11.503906l-.082032 2.75c-.191406 6.546875 3.050782 12.566407 8.222657 16.125 1.339843-1.078125 2.667969-2.167969 3.984375-3.273437zm0 0" fill="#f9ecc6"/><path d="m202.605469 376.203125 39.257812-301.136719c-12.769531-1.25-24.570312-9-30.417969-21.457031-2.195312-4.675781-3.339843-9.574219-3.539062-14.429687h-.539062l-119.738282 415.160156c1.453125 1.222656 2.914063 2.425781 4.394532 3.617187 5.167968-3.558593 8.414062-9.578125 8.222656-16.125l-.082032-2.75c-.125-4.34375 1.496094-8.429687 4.570313-11.503906s7.144531-4.710937 11.507813-4.570313l2.75.082032c8.9375.230468 16.902343-5.863282 18.949218-14.5625l.625-2.660156c1-4.234376 3.621094-7.765626 7.386719-9.945313 3.765625-2.175781 8.136719-2.691406 12.304687-1.441406l2.636719.789062c8.546875 2.558594 17.824219-1.289062 22.054688-9.144531l1.300781-2.414062c2.066406-3.832032 5.515625-6.558594 9.722656-7.683594 2.894532-.773438 5.859375-.691406 8.632813.175781zm0 0" fill="#fadda0"/><path d="m90.703125 456.894531c42.195313 34.441407 96.082031 55.105469 154.796875 55.105469s112.597656-20.664062 154.796875-55.105469c-4.96875-3.203125-8.085937-8.832031-7.90625-15.011719l.082031-2.75c.289063-9.925781-7.832031-18.050781-17.761718-17.761718l-2.75.082031c-8.195313.238281-15.429688-5.320313-17.308594-13.300781l-.625-2.660156c-2.277344-9.675782-12.230469-15.433594-21.75-12.582032l-2.636719.789063c-7.847656 2.347656-16.265625-1.140625-20.148437-8.351563l-1.300782-2.414062c-4.714844-8.753906-15.828125-11.722656-24.28125-6.492188l-2.320312 1.4375c-6.96875 4.3125-16.011719 3.128906-21.640625-2.832031l-1.898438-2.011719c-6.8125-7.21875-18.292969-7.21875-25.105469 0l-1.898437 2.011719c-5.625 5.960937-14.667969 7.144531-21.640625 2.832031l-2.316406-1.4375c-8.453125-5.230468-19.570313-2.261718-24.285156 6.492188l-1.296876 2.414062c-3.886718 7.210938-12.300781 10.699219-20.148437 8.351563l-2.636719-.789063c-9.519531-2.847656-19.472656 2.90625-21.75 12.582032l-.628906 2.660156c-1.878906 7.980468-9.113281 13.539062-17.304688 13.300781l-2.75-.082031c-9.929687-.292969-18.054687 7.832031-17.761718 17.757812l.078125 2.75c.183593 6.183594-2.9375 11.8125-7.902344 15.015625zm0 0" fill="#fadda0"/><path d="m209.074219 456.457031c-22.007813-22.007812-6.25-45.976562-6.25-45.976562-15.96875-15.96875-.304688-35.558594-.015625-35.921875-7.605469-2.210938-16.050782 1.039062-20.003906 8.375l-1.296876 2.414062c-3.886718 7.210938-12.300781 10.699219-20.148437 8.351563l-2.636719-.789063c-9.519531-2.847656-19.472656 2.910156-21.75 12.582032l-.628906 2.660156c-1.878906 7.980468-9.113281 13.539062-17.304688 13.300781l-2.75-.082031c-9.929687-.289063-18.054687 7.835937-17.761718 17.761718l.078125 2.75c.183593 6.179688-2.9375 11.808594-7.902344 15.011719 30.003906 24.488281 65.921875 42.003907 105.28125 50.085938-.515625-20.601563 28.390625-35.222657 13.089844-50.523438zm0 0" fill="#eec707"/><path d="m245.5 512c48.929688 0 94.507812-14.355469 132.761719-39.066406-29.679688-41.230469-78.082031-68.082032-132.761719-68.082032-54.683594 0-103.085938 26.851563-132.765625 68.082032 38.257813 24.710937 83.832031 39.066406 132.765625 39.066406zm0 0" fill="#fbb362"/><path d="m195.984375 506.988281c-.519531-20.605469 28.390625-35.230469 13.089844-50.53125-21.84375-21.84375-6.488281-45.609375-6.261719-45.957031-36.769531 9.921875-68.414062 32.339844-90.074219 62.433594 24.992188 16.144531 53.109375 27.867187 83.246094 34.054687zm0 0" fill="#fc9949"/><path d="m270.261719 406.714844c-6.261719 8.316406-6.136719 19.777344.410156 27.949218.046875.0625.09375.121094.144531.183594 10.421875 13.121094 26.261719 20.769532 43.019532 20.769532h50.082031c-24.402344-25.625-57.03125-43.339844-93.65625-48.902344zm0 0" fill="#fc9949"/><path d="m245.5 512c14.644531 0 28.988281-1.292969 42.925781-3.753906-5.871093-4.621094-11.25-9.945313-15.988281-15.910156-18.421875-23.199219-46.421875-36.71875-76.042969-36.71875h-69.3125c-5.167969 5.429687-9.953125 11.222656-14.339843 17.320312 38.253906 24.710938 83.828124 39.0625 132.757812 39.0625zm0 0" fill="#fd7e31"/><path d="m127.082031 455.617188c-5.167969 5.429687-9.953125 11.222656-14.339843 17.320312 24.992187 16.144531 53.109374 27.863281 83.242187 34.050781-.519531-20.605469 28.390625-35.230469 13.089844-50.53125-4.179688-.550781-8.410157-.839843-12.679688-.839843zm0 0" fill="#fc5d1f"/><path d="m272.4375 473.796875c-13.460938-7.667969-32.042969-12.992187-52.632812-15.308594 20.585937 5.117188 39.171874 16.894531 52.632812 33.847657 4.738281 5.964843 10.117188 11.289062 15.988281 15.910156 20.25-3.578125 39.644531-9.640625 57.851563-17.867188-28.800782-.296875-55.878906-6.351562-73.839844-16.582031zm0 0" fill="#face7a"/><path d="m154.175781 229.1875c-.203125 15.875 3.710938 32.007812 12.226563 46.757812 25.222656 43.683594 81.078125 58.648438 124.761718 33.429688 29.613282-17.097656 46.007813-48.273438 45.652344-80.1875zm0 0" fill="#83d3fc"/><path d="m205.292969 150.089844c8-4.617188 16.40625-7.875 24.960937-9.867188-10 1.691406-19.878906 5.074219-29.222656 10.289063-.164062.796875-.269531 1.609375-.328125 2.421875 1.492187-.984375 3.019531-1.9375 4.589844-2.84375zm0 0" fill="#a2ec00"/><path d="m288.902344 229.1875c3.449218 2.453125 7.195312 4.492188 11.136718 6.046875 3.34375 1.320313 7.023438 2.433594 9.261719 5.242187 1.957031 2.449219 2.429688 5.726563 2.832031 8.832032.585938 4.527344 1.175782 9.054687 1.761719 13.582031.160157 1.222656.257813 2.632813-.605469 3.511719-.695312.703125-1.804687.828125-2.558593 1.46875-.988281.839844-1.101563 2.324218-.910157 3.605468.8125 5.367188 5.769532 9.375 11.15625 10.265626 10.542969-15.488282 16.058594-33.894532 15.851563-52.558594h-47.925781zm0 0" fill="#a2ec00"/><path d="m250.292969 264.835938c-1.738281-5.066407-.746094-10.59375-.363281-15.933594.386718-5.339844-.101563-11.304688-3.949219-15.027344-3.132813-3.035156-7.792969-3.855469-12.152344-3.910156-7.015625-.09375-14.050781 1.425781-20.398437 4.410156-2.386719 1.121094-4.71875 2.460938-7.300782 2.96875-2.585937.507812-5.570312.007812-7.253906-2.019531-1.394531-1.683594-1.566406-3.886719-1.464844-6.136719h-43.230468c0-.585938.015624-1.171875.027343-1.757812-.527343 16.441406 3.367188 33.222656 12.195313 48.515624 16.089844 27.863282 44.644531 44.039063 74.550781 45.558594 2.140625-3.414062 3.613281-7.292968 4.417969-11.246094.296875-1.453124.507812-2.976562.097656-4.402343-.371094-1.300781-1.222656-2.394531-1.84375-3.59375-3.410156-6.601563 1.242188-15.230469 8.089844-18.113281 3.09375-1.300782 6.589844-1.761719 9.3125-3.722657 2.726562-1.960937 4.164062-6.375 1.660156-8.609375-4.847656 2.273438-10.660156-1.914062-12.394531-6.980468zm0 0" fill="#5294e5"/><path d="m280.972656 22.527344c-9.191406-19.582032-32.519531-28.007813-52.105468-18.816406-19.582032 9.191406-28.007813 32.519531-18.816407 52.105468 9.191407 19.582032 32.519531 28.007813 52.105469 18.816406 19.582031-9.191406 28.007812-32.519531 18.816406-52.105468zm0 0" fill="#4374d3"/><path d="m324.59375 184.613281c-25.21875-43.683593-81.078125-58.652343-124.761719-33.429687-29.273437 16.898437-45.625 47.5625-45.652343 79.09375h182.640624c.015626-15.523438-3.90625-31.253906-12.226562-45.664063zm0 0" fill="#4374d3"/><path d="m220.488281 188.113281c-2.085937-6.808593-.046875-11.335937 2.089844-13.972656 1.867187-2.304687 2.589844-5.324219 2.085937-8.246094-2.992187-17.414062 5.390626-24.386719 7.882813-26.046875-11.207031 1.605469-22.308594 5.324219-32.714844 11.335938-29.273437 16.898437-45.625 47.5625-45.652343 79.09375h42.769531c.601562-1.375 1.160156-2.773438 1.6875-4.183594 6.3125-16.933594 25.238281-26.914062 21.851562-37.980469zm0 0" fill="#3957c9"/><path d="m252.53125 196.164062c-.820312-.195312-1.628906-.429687-2.398438-.769531-2.246093-.976562-4.246093-3.28125-3.6875-5.664062.148438-.636719.46875-1.226563.546876-1.871094.121093-1.019531-.386719-2.023437-1.066407-2.792969-2.28125-2.554687-6.269531-2.835937-9.546875-1.847656-3.28125.988281-6.140625 3-9.226562 4.484375-2.480469 1.195313-4.363282 1.132813-6.664063.410156-1.160156-.367187-2.421875-.210937-3.441406.453125-2.945313 2.226563-3.085937 6.558594-2.628906 10.222656.269531 2.183594.898437 4.683594 2.902343 5.59375.75.34375 1.605469.40625 2.351563.757813 1.507813.710937 2.257813 2.417969 3.566406 3.445313 2.550781 1.988281 6.316407.851562 9.027344-.902344 2.710937-1.757813 5.25-4.125 8.453125-4.546875 2.734375-.359375 5.421875.785156 7.921875 1.949219.226563.109374.460937.214843.691406.324218 2.566407 1.183594 5.59375-.066406 6.605469-2.703125 1.0625-2.765625-.53125-5.863281-3.40625-6.542969zm0 0" fill="#5294e5"/><path d="m173.554688 181.253906c3.390624-.785156 5.691406-.1875 8.328124 1.339844 1.328126.769531 2.925782.925781 4.363282.390625 4.246094-1.925781 5.617187-7.222656 6.066406-11.863281.269531-2.765625.1875-6.019532-2.027344-7.699219-.832031-.628906-1.867187-.945313-2.691406-1.585937-.457031-.355469-.820312-.785157-1.136719-1.261719-7.675781 6.488281-14.074219 14.078125-19.097656 22.398437 2.0625-.578125 4.113281-1.234375 6.195313-1.71875zm0 0" fill="#2d4fba"/><path d="m324.59375 184.613281c-24.988281-43.285156-80.058594-58.367187-123.5625-34.101562-1.226562 5.992187.492188 12.644531 4.863281 16.980469 1.253907 1.242187 2.761719 2.421874 3.199219 4.136718.34375 1.34375-.050781 2.75-.351562 4.105469-.003907.015625-.007813.035156-.011719.054687-.625 2.855469 3.09375 4.589844 4.90625 2.296876 3.675781-4.644532 4.179687-12.386719 8.851562-8.78125 7.496094 5.785156 12.488281-.289063 12.488281-.289063 2.257813-3.574219 6.859376-4.707031 11.003907-5.539063 4.292969-.863281 10.503906-.609374 9.878906 5.003907-.097656.894531-.421875 1.730469-.910156 2.464843-1.34375 2.03125-1.144531 4.777344.546875 6.53125 1.386718 1.4375 3.78125 2.25 7.929687.75 6.804688-2.5 14.523438-2.417968 21.273438.230469.945312.371094 1.925781.832031 2.492187 1.679688.832032 1.25.507813 2.921875.027344 4.34375-3.125 9.199219-11.683594 16.855469-11.066406 26.546875.394531 6.203125 4.609375 11.523437 9.359375 15.53125 1.585937 1.335937 3.253906 2.578125 4.988281 3.71875h46.335938c.011718-15.523438-3.921876-31.257813-12.242188-45.664063zm0 0" fill="#5294e5"/><path d="m232.539062 139.855469c-10.777343 1.542969-21.453124 5.042969-31.507812 10.652343-1.226562 5.996094.492188 12.648438 4.863281 16.980469 1.253907 1.246094 2.761719 2.425781 3.199219 4.136719.34375 1.34375-.050781 2.753906-.351562 4.105469-.003907.019531-.007813.039062-.011719.054687-.625 2.855469 3.09375 4.589844 4.90625 2.300782 3.675781-4.644532 4.179687-12.386719 8.851562-8.78125.664063.511718 1.304688.925781 1.925781 1.261718.425782-1.503906.519532-3.101562.25-4.675781-2.988281-17.382813 5.363282-24.363281 7.875-26.035156zm0 0" fill="#4374d3"/><path d="m177.914062 200.265625c-.878906-2.285156-4.15625-1.828125-6.582031-1.476563-3.703125.527344-7.476562-.457031-10.632812-2.441406-4.296875 10.757813-6.527344 22.285156-6.539063 33.929688h43.226563c-.007813-1.519532.179687-3.097656.277343-4.589844.207032-3.320312-.957031-7.527344-4.253906-7.992188-1.136718-.160156-2.269531.195313-3.402344.375-7.390624 1.171876-14.574218-6.917968-12.535156-14.117187.34375-1.21875.894532-2.511719.441406-3.6875zm0 0" fill="#2d4fba"/><path d="m259.304688 55.46875c-5.988282-1.3125-5.734376-9.453125 0-10.710938 3.394531-.691406 6.515624 1.949219 6.515624 5.351563 0 3.429687-3.074218 6.003906-6.515624 5.359375zm0 0" fill="#3957c9"/><path d="m259.078125 34.367188c-5.949219 0-10.917969-4.828126-10.917969-10.917969 0-6.808594 6.257813-12.074219 13.046875-10.699219 4.074219.761719 7.644531 4.019531 8.570313 8.566406 1.355468 6.644532-3.753906 13.050782-10.699219 13.050782zm0 0" fill="#5294e5"/><path d="m154.175781 229.1875h.003907c.007812-.585938.007812-1.171875.027343-1.757812-.011719.585937-.027343 1.171874-.03125 1.757812zm0 0" fill="#4374d3"/><path d="m198.875 235.324219c-1.394531-1.683594-1.570312-3.886719-1.464844-6.136719h-43.230468c-.203126 15.875 3.707031 32.007812 12.222656 46.757812 10.476562 18.144532 26.242187 31.328126 44.222656 38.738282-30.351562-35.871094-11.75-79.359375-11.75-79.359375zm0 0" fill="#4374d3"/><path d="m245.5.00390625c-5.582031-.00390625-11.253906 1.18359375-16.644531 3.71484375-19.582031 9.191406-28.007813 32.515625-18.8125 52.101562 1.332031 2.84375 2.972656 5.445313 4.851562 7.796876l30.054688-10.394532c-20.699219-33.832031.546875-53.2148435.550781-53.21874975zm0 0" fill="#3957c9"/><path d="m244.945312 53.222656c-4.574218-9.746094-16.183593-13.9375-25.929687-9.363281-4.59375 2.15625-7.949219 5.875-9.738281 10.222656.242187.582031.492187 1.164063.765625 1.738281 5.542969 11.816407 16.238281 19.558594 28.144531 21.832032 7.839844-5.277344 10.898438-15.605469 6.757812-24.429688zm0 0" fill="#2d4fba"/></svg>