<svg height="511pt" viewBox="-10 0 511 511.9997" width="511pt" xmlns="http://www.w3.org/2000/svg"><path d="m245.5 22c-135.308594 0-245 109.691406-245 245 0 .335938.011719.671875.011719 1.007812l369.3125 210.128907c72.21875-42.617188 120.675781-121.210938 120.675781-211.136719 0-135.308594-109.691406-245-245-245zm0 0" fill="#f6159c"/><path d="m320.113281 407.480469c-2.433593-4.574219-2.339843-10.078125.25-14.566407l14.644531-25.367187c-12.390624-34.914063-15.042968-72.757813-7.351562-109.394531l7.949219-37.882813-149.320313 258.628907 57.292969 33.078124c.640625.003907 1.277344.023438 1.921875.023438 33.542969 0 65.507812-6.75 94.621094-18.949219.910156-29.574219-5.875-59.097656-20.007813-85.570312zm0 0" fill="#83d3fc"/><path d="m327.65625 258.152344 7.949219-37.882813-149.320313 258.628907 35.507813 20.5c22.167969-44.578126 53.359375-107.328126 63.902343-128.730469 17-34.5 43.558594-22.289063 43.558594-22.289063h.007813c-7.257813-29.371094-7.90625-60.203125-1.605469-90.226562zm0 0" fill="#61b6ff"/><path d="m370.683594 477.628906c-1.917969-28.738281-10-57.007812-23.738282-82.917968-5.171874-9.753907-9.5-19.863282-12.988281-30.210938l-15.703125 27.199219c-2.589844 4.484375-2.683594 9.992187-.25 14.5625 14.46875 27.101562 21.238282 57.402343 19.9375 87.679687 11.367188-4.632812 22.304688-10.097656 32.742188-16.3125zm0 0" fill="#1d319b"/><path d="m115.449219 240.785156-14.6875 25.441406c-2.5625 4.441407-7.234375 7.246094-12.359375 7.421876l-.085938.003906c-30.582031 1.019531-60.097656 10.230468-85.59375 26.375 4.433594 32.882812 15.386719 63.6875 31.515625 91.085937l59.140625 34.144531 149.320313-258.628906-28.832031 25.828125c-27.882813 24.976563-61.984376 41.601563-98.417969 48.328125zm0 0" fill="#83d3fc"/><path d="m64.203125 408.414062 29.175781 16.84375 149.320313-258.628906-28.832031 25.828125c-24.367188 21.828125-53.484376 37.277344-84.757813 45.316407 0 0 20 20.707031 3.792969 49.800781-11.074219 19.882812-47.035156 82.914062-68.699219 120.839843zm0 0" fill="#61b6ff"/><path d="m.515625 265.800781c-.003906.398438-.015625.796875-.015625 1.199219 0 12.023438.882812 23.835938 2.554688 35.394531 25.898437-16.855469 56.074218-26.484375 87.371093-27.527343l.082031-.003907c5.125-.175781 9.800782-2.980469 12.363282-7.421875l15.746094-27.269531c-10.707032 2.152344-21.625 3.460937-32.660157 3.859375-29.976562 1.082031-59.132812 8.511719-85.441406 21.769531zm0 0" fill="#1d319b"/><path d="m405.945312 85.539062c-2.425781-11.402343-7.59375-23.351562-17.179687-34.796874-6.03125-7.199219-16.578125-13.289063-25.828125-14.914063-14.707031-2.578125-27.636719-1.078125-38.726562 2.523437-23.929688 24.613282-40.210938 51.90625-40.210938 51.90625l-196.363281 340.113282 97.09375 56.058594 196.367187-340.117188s15.496094-27.742188 24.847656-60.773438zm0 0" fill="#d0f6fa"/><path d="m361.71875 37.9375c9.25 1.625 19.796875 7.714844 25.828125 14.914062 9.925781 11.84375 15.121094 24.234376 17.433594 36 7.597656-25.457031 11.902343-54.585937 2.652343-76.757812-3.417968-8.195312-11.855468-13.066406-20.664062-11.929688-23.824219 3.074219-46.898438 21.367188-65.144531 40.671876 11.34375-3.875 24.671875-5.570313 39.894531-2.898438zm0 0" fill="#fbb362"/><path d="m374.039062 111.910156c.027344-1.050781.042969-2.101562.042969-3.144531 0-7.101563-2.328125-13.796875-7.367187-19.824219-5.257813-6.273437-16.628906-13.40625-26.789063-15.078125-6.847656-1.125-13.890625.222657-19.898437 3.691407-.90625.523437-1.804688 1.058593-2.703125 1.613281-10.96875 6.75-7.707031 23.71875 4.992187 25.855469.199219.035156.398438.070312.597656.105468 8.578126 1.503906 20.253907 8.242188 25.84375 14.917969.132813.15625.261719.3125.390626.472656 8.203124 9.925781 24.527343 4.265625 24.890624-8.609375zm0 0" fill="#3957c9"/><path d="m347.222656 90.410156c1.0625-.652344 2.128906-1.289062 3.203125-1.90625 3.5625-2.058594 7.433594-3.484375 11.429688-4.230468-5.898438-4.769532-14.257813-9.148438-21.929688-10.410157-6.847656-1.121093-13.890625.222657-19.902343 3.691407-.902344.523437-1.804688 1.058593-2.703126 1.613281-10.964843 6.75-7.707031 23.71875 4.992188 25.855469.203125.035156.402344.070312.601562.105468 6 1.050782 13.511719 4.667969 19.402344 9.035156-4.957031-7.300781-3.917968-18.320312 4.90625-23.753906zm0 0" fill="#1d319b"/><path d="m87.625 430.375 82.445312-142.792969 97.09375 56.058594-82.445312 142.792969zm0 0" fill="#b9e9fd"/><path d="m78.480469 446.226562c27.339843 25.488282 60.515625 44.792969 97.304687 55.691407l11.539063-19.980469-97.09375-56.058594zm0 0" fill="#83d3fc"/><path d="m245.207031 419.613281c-20.707031 11.078125-41.152343 25.828125-60.484375 43.796875l68.449219 39.519532c5.894531-25.726563 8.445313-50.808594 7.6875-74.28125-.269531-8.300782-8.328125-12.953126-15.652344-9.035157zm0 0" fill="#fbb362"/><path d="m164.578125 498.300781c25.332031 8.863281 52.5625 13.699219 80.921875 13.699219.820312 0 1.632812-.023438 2.453125-.03125l5.21875-9.042969-68.449219-39.519531zm0 0" fill="#fadda0"/><path d="m216.539062 481.777344-31.816406-18.371094-20.144531 34.894531c11.878906 4.15625 24.179687 7.414063 36.8125 9.714844zm0 0" fill="#fbb362"/><path d="m253.09375 255.90625c-4.367188-2.519531-5.863281-8.101562-3.34375-12.46875l62.472656-108.199219c2.519532-4.367187 8.101563-5.863281 12.46875-3.339843 4.363282 2.519531 5.859375 8.101562 3.339844 12.464843l-62.46875 108.203125c-2.523438 4.367188-8.105469 5.859375-12.46875 3.339844zm0 0" fill="#b9e9fd"/><path d="m124.410156 478.792969c-7.859375-4.535157-10.550781-14.582031-6.015625-22.441407l121.453125-210.363281c4.539063-7.855469 14.585938-10.546875 22.441406-6.011719 7.859376 4.539063 10.550782 14.585938 6.015626 22.441407l-121.453126 210.363281c-4.539062 7.859375-14.585937 10.550781-22.441406 6.011719zm0 0" fill="#83d3fc"/><path d="m223.347656 307.425781c-7.859375-4.535156-17.90625-1.84375-22.441406 6.015625l-83.726562 145.019532c-4.539063 7.859374-1.84375 17.902343 6.011718 22.441406 7.859375 4.535156 17.90625 1.84375 22.441406-6.011719l83.726563-145.023437c4.539063-7.859376 1.847656-17.90625-6.011719-22.441407zm0 0" fill="#3957c9"/><path d="m182.375 379.273438c-6.1875-3.574219-9.695312-9.988282-9.867188-16.644532l-55.328124 95.832032c-4.539063 7.855468-1.84375 17.902343 6.011718 22.441406 7.859375 4.535156 17.90625 1.84375 22.441406-6.011719l54.671876-94.691406c-5.585938 2.476562-12.230469 2.363281-17.929688-.925781zm0 0" fill="#1d319b"/><path d="m99.613281 335.550781c-20.710937 11.082031-41.15625 25.832031-60.488281 43.796875l68.453125 39.519532c5.890625-25.722657 8.445313-50.804688 7.683594-74.28125-.265625-8.296876-8.328125-12.953126-15.648438-9.035157zm0 0" fill="#fbb362"/><path d="m33.273438 389.484375c14.1875 24.523437 32.507812 46.351563 54 64.550781l20.304687-35.167968-68.453125-39.519532zm0 0" fill="#fadda0"/><path d="m71.066406 397.789062-31.941406-18.441406-5.851562 10.136719c6.832031 11.8125 14.632812 22.992187 23.277343 33.449219zm0 0" fill="#fbb362"/><path d="m407.636719 12.09375c-3.421875-8.195312-11.859375-13.066406-20.667969-11.929688-23.820312 3.074219-46.894531 21.367188-65.144531 40.671876 11.34375-3.875 24.671875-5.570313 39.894531-2.898438 7.128906 1.25 15.015625 5.160156 21.023438 10.175781-4.953126-35.554687 24.894531-36.019531 24.894531-36.019531zm0 0" fill="#fd7e31"/><path d="m334.257812 450.601562c11.289063-27.015624 30.300782-10.46875 30.375-10.402343-4.058593-15.683594-9.980468-30.957031-17.6875-45.488281-5.171874-9.753907-9.496093-19.863282-12.984374-30.210938l-15.703126 27.199219c-2.59375 4.484375-2.6875 9.992187-.25 14.5625 7.511719 14.074219 12.929688 29.015625 16.238282 44.363281.003906-.007812.007812-.015625.011718-.023438zm0 0" fill="#3957c9"/><path d="m39.15625 251.078125c.871094.335937 23.199219 9.242187 6.535156 31.324219-.003906.003906-.007812.007812-.007812.011718 14.398437-4.460937 29.433594-7.039062 44.742187-7.546874l.082031-.003907c5.125-.171875 9.800782-2.980469 12.363282-7.421875l15.746094-27.269531c-10.707032 2.152344-21.625 3.460937-32.660157 3.859375-15.933593.574219-31.632812 2.960938-46.800781 7.046875zm0 0" fill="#3957c9"/><g fill="#fd7e31"><path d="m245.207031 419.609375c-20.707031 11.082031-41.152343 25.832031-60.484375 43.796875l31.945313 18.445312c14.96875-20.484374 29.609375-38.585937 43.351562-53.691406.246094-.269531.488281-.511718.722657-.75-.988282-7.507812-8.585938-11.515625-15.535157-7.800781zm0 0"/><path d="m99.613281 335.550781c-20.710937 11.082031-41.15625 25.828125-60.488281 43.796875l31.945312 18.441406c14.972657-20.480468 29.609376-38.585937 43.351563-53.6875.25-.273437.488281-.515624.726563-.75-.988282-7.511718-8.585938-11.519531-15.535157-7.800781zm0 0"/></g></svg>