<svg height="511pt" viewBox="-11 0 511 511.99927" width="511pt" xmlns="http://www.w3.org/2000/svg"><path d="m245.457031 22.082031c-135.285156 0-244.957031 109.671875-244.957031 244.960938 0 34.753906 7.253906 67.808593 20.304688 97.757812l252.648437 145.597657c122.101563-13.894532 216.960937-117.539063 216.960937-243.355469.003907-135.289063-109.667968-244.960938-244.957031-244.960938zm0 0" fill="#9d4ad3"/><path d="m373.996094 44.734375c-3.886719-2.242187-5.21875-7.207031-2.976563-11.09375l17.078125-29.578125c2.242188-3.886719 7.210938-5.214844 11.09375-2.972656 3.886719 2.242187 5.21875 7.210937 2.972656 11.09375l-17.074218 29.578125c-2.242188 3.886719-7.210938 5.214843-11.09375 2.972656zm0 0" fill="#b9e9fd"/><path d="m365.960938 30.300781c-30.871094 14.589844-61.078126 34.503907-89.363282 59.152344l107.363282 61.988281c7.207031-36.820312 9.347656-72.941406 6.546874-106.96875-.988281-12.03125-13.632812-19.328125-24.546874-14.171875zm0 0" fill="#f948b4"/><path d="m381.546875 39.296875c2.085937-2.074219 3.976563-3.320313 5.554687-3.8125-4.683593-6.199219-13.351562-8.863281-21.140624-5.183594-30.871094 14.585938-61.078126 34.503907-89.363282 59.152344l40.824219 23.570313c21.859375-28.359376 43.515625-53.210938 64.125-73.726563zm0 0" fill="#f6159c"/><path d="m278.664062 404.578125c-21.019531 26.8125-43.769531 51.03125-67.710937 72.421875l58.582031 33.820312c1.796875-.171874 3.582032-.375 5.367188-.585937 6.476562-33.890625 8.484375-67.097656 6.085937-98.414063-.207031-2.707031-1.050781-5.144531-2.324219-7.242187zm0 0" fill="#61b6ff"/><path d="m281.722656 450.582031c.46875-13.175781.230469-26.125-.734375-38.761719-.207031-2.707031-1.050781-5.144531-2.324219-7.242187-21.019531 26.8125-43.769531 51.027344-67.710937 72.417969l31.058594 17.933594c13.761719-13.824219 27.035156-28.621094 39.710937-44.347657zm0 0" fill="#5294e5"/><path d="m210.953125 477c-3.832031 3.417969-7.6875 6.777344-11.578125 10.050781-.078125.066407-.160156.125-.238281.1875l-10.46875 18.128907c18.226562 4.328124 37.238281 6.632812 56.789062 6.632812 8.125 0 16.15625-.40625 24.078125-1.179688zm0 0" fill="#5294e5"/><path d="m242.011719 494.929688-31.058594-17.929688c-3.832031 3.417969-7.6875 6.777344-11.578125 10.050781-.078125.066407-.160156.125-.238281.1875l-10.46875 18.132813c11.851562 2.8125 24.042969 4.753906 36.492187 5.78125 5.691406-5.25 11.3125-10.65625 16.851563-16.222656zm0 0" fill="#4374d3"/><path d="m20.21875 363.464844c.65625 1.53125 1.320312 3.058594 2.007812 4.570312l58.9375 34.03125c6.554688-31.433594 16.148438-63.242187 28.863282-94.851562-2.457032-.054688-4.988282.4375-7.433594 1.609375-28.390625 13.613281-56.207031 32.011719-82.375 54.640625zm0 0" fill="#61b6ff"/><path d="m48.453125 383.179688c15.195313-13.15625 30.90625-24.976563 46.976563-35.355469 4.300781-13.542969 9.160156-27.09375 14.597656-40.609375-2.457032-.054688-4.988282.4375-7.433594 1.609375-28.390625 13.613281-56.210938 32.011719-82.375 54.640625.65625 1.53125 1.320312 3.058594 2.007812 4.570312zm0 0" fill="#5294e5"/><path d="m67.714844 435.589844 10.488281-18.171875c.015625-.101563.023437-.199219.042969-.300781.890625-5.003907 1.867187-10.023438 2.917968-15.050782l-58.9375-34.03125c11.351563 25.054688 26.800782 47.855469 45.488282 67.554688zm0 0" fill="#5294e5"/><path d="m48.453125 383.179688-26.226563-15.144532c4.101563 9.058594 8.75 17.8125 13.882813 26.242188 4.074219-3.796875 8.1875-7.5 12.34375-11.097656zm0 0" fill="#4374d3"/><path d="m314.238281 352.113281-177.5-102.480469c-.621093-.359374-1.179687-.785156-1.683593-1.257812-29.351563 55.207031-48.792969 112.175781-58.683594 167.660156-.019532.101563-.027344.199219-.042969.300782l-10.15625 17.59375c32.867187 35.296874 76.019531 60.878906 124.699219 71.957031l10.140625-17.566407c.082031-.0625.164062-.121093.242187-.183593 43.175782-36.375 82.859375-81.789063 116.027344-134.929688-1.046875-.183593-2.078125-.535156-3.042969-1.09375zm0 0" fill="#b9e9fd"/><path d="m127.773438 461.933594c.019531-.113282.027343-.222656.046874-.335938 10.679688-59.882812 31.398438-121.332031 62.523438-181.011718l-53.605469-30.953126c-.621093-.355468-1.179687-.785156-1.6875-1.257812-29.347656 55.207031-48.789062 112.175781-58.683593 167.660156-.015626.097656-.023438.199219-.039063.300782l-10.160156 17.59375c15.523437 16.667968 33.339843 31.164062 52.949219 42.996093zm0 0" fill="#83d3fc"/><path d="m213.269531 135.804688 161.28125 93.117187c.5625.324219 1.070313.703125 1.539063 1.117187 6.910156-20.160156 12.582031-40.328124 17-60.363281 1.628906-7.363281-1.683594-14.9375-8.21875-18.707031l-108.316406-62.539062c-6.53125-3.769532-14.742188-2.851563-20.308594 2.238281-15.101563 13.808593-29.695313 28.765625-43.667969 44.777343.234375.109376.464844.226563.691406.359376zm0 0" fill="#b9e9fd"/><path d="m304.171875 117.527344c3.722656-4.097656 8.238281-6.269532 12.199219-6.109375l-39.816406-22.988281c-6.53125-3.769532-14.742188-2.855469-20.308594 2.234374-15.101563 13.808594-29.695313 28.765626-43.667969 44.78125.234375.109376.464844.226563.691406.355469l50.980469 29.433594c13.011719-16.820313 26.355469-32.757813 39.921875-47.707031zm0 0" fill="#83d3fc"/><path d="m275.289062 329.625-99.601562-57.503906-9.707031 16.8125c-3.574219 6.191406-1.433594 14.179687 4.757812 17.753906l77.089844 44.507812c6.191406 3.574219 14.179687 1.433594 17.75-4.757812zm0 0" fill="#fbb362"/><path d="m211.027344 315.214844 9.824218-17.019532-45.164062-26.074218-9.707031 16.8125c-3.574219 6.191406-1.433594 14.179687 4.757812 17.753906l37.855469 21.855469c-1.234375-3.21875-.40625-8.410157 2.433594-13.328125zm0 0" fill="#fc9949"/><path d="m380.230469 240.742188c1.785156-5.007813-.265625-10.574219-4.867188-13.230469l-161.28125-93.113281c-4.601562-2.65625-10.449219-1.652344-13.890625 2.398437-25.828125 30.394531-48.875 63.882813-68.425781 99.453125-2.875 5.230469-1.011719 11.804688 4.160156 14.792969l177.5 102.476562c5.171875 2.988281 11.796875 1.3125 14.890625-3.792969 21.773438-35.945312 39-72.796874 51.914063-108.984374zm0 0" fill="#d0f6fa"/><path d="m189.28125 270.523438c20.078125-35.996094 42.648438-70.492188 67.023438-102.433594 2.214843-2.902344 5.132812-4.613282 7.808593-4.808594l-50.03125-28.886719c-4.601562-2.65625-10.449219-1.648437-13.890625 2.398438-25.828125 30.394531-48.875 63.882812-68.425781 99.453125-2.875 5.234375-1.011719 11.808594 4.160156 14.792968l52.34375 30.222657c-1.375-2.824219-1.105469-6.941407 1.011719-10.738281zm0 0" fill="#b9e9fd"/><path d="m181.292969 354.261719c-27.785157 14.867187-55.214844 34.65625-81.152344 58.757812l91.835937 53.023438c7.90625-34.515625 11.328126-68.164063 10.308594-99.660157-.355468-11.132812-11.171875-17.378906-20.992187-12.121093zm0 0" fill="#61b6ff"/><path d="m197.75 363.761719c1.195312-1.496094 2.25-2.617188 3.15625-3.40625-3.261719-7.136719-11.753906-10.300781-19.613281-6.09375-27.785157 14.867187-55.214844 34.65625-81.152344 58.757812l43.230469 24.960938c19.121094-28.039063 37.476562-53.066407 54.378906-74.21875zm0 0" fill="#5294e5"/><path d="m80.089844 447.746094c26.0625 23.863281 57.300781 42.164062 91.839844 53.019531l20.046874-34.722656-91.835937-53.023438zm0 0" fill="#5294e5"/><path d="m143.386719 437.988281-43.246094-24.96875-20.050781 34.726563c12.355468 11.3125 25.882812 21.355468 40.363281 29.964844zm0 0" fill="#4374d3"/></svg>