<?xml version="1.0" encoding="utf-8"?>
<svg viewBox="165.883 110.821 117.8 117.78" xmlns="http://www.w3.org/2000/svg">
  <g transform="matrix(1, 0, 0, 1, 97.842941, -127.708488)">
    <defs>
      <rect id="SVGCOH_1_" x="68.05" y="238.52" width="117.78" height="117.78"/>
    </defs>
    <clipPath id="SVGCOH_00000075852095293250014550000008258792261602485387_">
      <rect x="68.05" y="238.52" width="117.78" height="117.78" transform="matrix(1, 0, 0, 1, 0, 0)" style="overflow: visible;"/>
    </clipPath>
    <g style="clip-path:url(#SVGCOH_00000075852095293250014550000008258792261602485387_);">
      <path class="st2" d="M106.21,308.65c3.17,0,9.48-0.17,18.19-3.76c10.16-4.18,30.37-11.77,44.94-19.57 c10.2-5.45,14.66-12.67,14.66-22.38c0-13.48-10.93-24.41-24.41-24.41h-56.49c-19.37,0-35.06,15.7-35.06,35.06 S82.75,308.65,106.21,308.65z" style="clip-rule: evenodd; fill: rgb(58, 89, 77); fill-rule: evenodd;"/>
      <path class="st3" d="M115.77,332.79c0-9.49,5.71-18.05,14.48-21.69l17.79-7.38c17.99-7.47,37.8,5.76,37.8,25.24 c0,15.09-12.24,27.33-27.33,27.32l-19.26,0C126.28,356.27,115.77,345.76,115.77,332.79z" style="clip-rule: evenodd; fill: rgb(189, 143, 192); fill-rule: evenodd;"/>
      <path class="st4" d="M88.27,313.27L88.27,313.27c-11.16,0-20.21,9.05-20.21,20.21v2.62c0,11.16,9.05,20.21,20.21,20.21h0 c11.16,0,20.21-9.05,20.21-20.21v-2.62C108.48,322.32,99.43,313.27,88.27,313.27z" style="fill: rgb(238, 118, 92);"/>
    </g>
  </g>
</svg>