<svg height="512pt" viewBox="-11 0 512 512.00075" width="512pt" xmlns="http://www.w3.org/2000/svg"><path d="m487.109375 207.28125c-4.757813-30.792969-15.257813-59.6875-30.359375-85.566406l-39.792969-51.210938c-25.425781-25.058594-56.300781-44.59375-90.6875-56.683594l-55.652343-12.492187c-8.421876-.875-16.964844-1.328125-25.617188-1.328125-135.308594 0-245 109.691406-245 245 0 135.3125 109.691406 245.003906 245 245.003906s245-109.695312 245-245.003906c0-6.21875-.234375-12.382812-.691406-18.488281zm0 0" fill="#162680"/><g fill="#c78fe8"><path d="m46.707031 190.5625c-1.839843 0-3.675781-.699219-5.078125-2.101562-2.804687-2.804688-2.804687-7.351563 0-10.15625l70.308594-70.308594c2.804688-2.804688 7.351562-2.804688 10.15625 0 2.804688 2.804687 2.804688 7.347656 0 10.152344l-70.308594 70.3125c-1.402344 1.398437-3.242187 2.101562-5.078125 2.101562zm0 0"/><path d="m131.503906 98.148438c-2.804687-2.804688-2.804687-7.351563 0-10.15625l25.367188-25.363282c2.804687-2.804687 7.351562-2.804687 10.152344 0 2.804687 2.804688 2.804687 7.347656 0 10.152344l-25.367188 25.367188c-2.804688 2.804687-7.351562 2.804687-10.152344 0zm0 0"/><path d="m81.925781 166.488281c1.066407.050781 2.851563.144531 5.386719.488281 11.214844.546876 39.375-.253906 58.609375-19.488281l143.464844-143.464843c-6.179688-1.132813-12.4375-2.035157-18.769531-2.695313l-133.675782 133.675781c-15.996094 15.996094-36.242187 26.949219-58.144531 31.410156.835937-.003906 1.675781.007813 2.515625.039063.175781.011719.378906.023437.613281.035156zm0 0"/><path d="m309.917969 8.710938-151.386719 151.386718c-19.234375 19.230469-20.035156 47.394532-19.484375 58.65625.433594 3.171875.617187 6.339844.5625 9.472656 4.457031-22.273437 15.164063-42.910156 31.40625-59.148437l155.253906-155.257813c-5.367187-1.886718-10.820312-3.59375-16.351562-5.109374zm0 0"/></g><path d="m174.179688 53.265625c-2.804688-2.804687-2.804688-7.351563 0-10.152344l1.144531-1.144531c2.804687-2.800781 7.351562-2.804688 10.152343.003906 2.804688 2.804688 2.804688 7.347656 0 10.152344l-1.144531 1.144531c-2.804687 2.800781-7.351562 2.804688-10.152343-.003906zm0 0" fill="#dcb1f3"/><path d="m310.496094 8.867188c-7.117188-1.96875-14.363282-3.636719-21.726563-4.964844l-143.214843 143.21875c-18.894532 18.894531-46.25 19.917968-58.21875 19.335937-3.039063-.417969-5-.460937-5.988282-.523437-16.425781-.628906-33.054687 5.320312-45.59375 17.859375-23.878906 23.878906-23.878906 62.59375 0 86.472656s62.59375 23.878906 86.472656 0c14.066407-14.066406 19.84375-33.285156 17.335938-51.582031-.585938-11.972656.441406-39.324219 19.335938-58.21875zm0 0" fill="#b26cde"/><path d="m111.914062 249.203125-40.917968-61.21875c-17.128906-4.878906-10.085938-19.003906-9.871094-19.425781-9.285156 2.828125-18.03125 7.890625-25.371094 15.234375-23.878906 23.878906-23.878906 62.59375 0 86.472656s62.59375 23.878906 86.472656 0c2.101563-2.101563 3.996094-4.332031 5.730469-6.644531-18.855469 1.78125-16.042969-14.417969-16.042969-14.417969zm0 0" fill="#9d4ad3"/><path d="m81.683594 364.171875c-1.835938 0-3.675782-.703125-5.078125-2.105469-2.800781-2.804687-2.800781-7.347656 0-10.15625l186.746093-186.742187c2.804688-2.800781 7.347657-2.800781 10.152344 0 2.804688 2.804687 2.804688 7.351562 0 10.15625l-186.742187 186.742187c-1.402344 1.402344-3.242188 2.105469-5.078125 2.105469zm0 0" fill="#f948b4"/><path d="m191.929688 254.925781c-2.140626 0-4.28125-.816406-5.914063-2.449219-2.097656-2.097656-2.839844-5.035156-2.242187-7.734374l-107.167969 107.167968c-2.800781 2.808594-2.800781 7.351563 0 10.15625 1.402343 1.402344 3.242187 2.105469 5.078125 2.105469 1.839844 0 3.675781-.703125 5.078125-2.105469l107.464843-107.464844c-.75.214844-1.523437.324219-2.296874.324219zm0 0" fill="#f6159c"/><path d="m445.546875 104.253906-236.707031 236.707032c-25.683594 25.683593-26.757813 63.292968-26.019532 78.328124.582032 4.238282.824219 8.464844.753907 12.652344 5.953125-29.742187 20.25-57.300781 41.9375-78.988281l231.238281-231.238281c-3.492188-5.988282-7.230469-11.8125-11.203125-17.460938zm0 0" fill="#fc7acd"/><path d="m106.539062 349.492188c1.421876.074218 3.808594.195312 7.191407.65625 14.980469.730468 52.589843-.339844 78.273437-26.027344l238.804688-238.804688c-4.414063-5.128906-9.035156-10.066406-13.851563-14.8125l-236.949219 236.945313c-21.359374 21.359375-48.394531 35.988281-77.644531 41.949219 1.117188-.003907 2.238281.007812 3.359375.050781.234375.015625.503906.027343.816406.042969zm0 0" fill="#fc7acd"/><path d="m445.953125 104.835938c-4.859375-6.953126-10.058594-13.652344-15.597656-20.050782l-238.84375 238.84375c-25.234375 25.234375-61.761719 26.605469-77.746094 25.824219-4.058594-.558594-6.675781-.617187-8-.699219-21.933594-.84375-44.140625 7.105469-60.886719 23.851563-31.886718 31.886719-31.886718 83.589843 0 115.480469 31.890625 31.886718 83.589844 31.886718 115.480469 0 18.785156-18.789063 26.5-44.453126 23.152344-68.890626-.78125-15.984374.589843-52.511718 25.820312-77.742187zm0 0" fill="#f948b4"/><path d="m146.585938 460.53125-54.640626-81.753906c-20.855468-5.660156-17.265624-21.261719-15.78125-25.679688-11.429687 3.90625-22.167968 10.390625-31.285156 19.507813-31.886718 31.886719-31.886718 83.589843 0 115.480469 31.890625 31.886718 83.59375 31.886718 115.480469 0 3.1875-3.1875 6.042969-6.574219 8.59375-10.113282-23.785156 2.152344-22.367187-17.441406-22.367187-17.441406zm0 0" fill="#f6159c"/><path d="m489.308594 226.511719c-.484375-6.484375-1.21875-12.898438-2.199219-19.230469l-81.285156 81.289062c-15.171875 15.167969-37.132813 15.992188-46.742188 15.523438-2.441406-.332031-4.015625-.371094-4.8125-.417969-13.183593-.507812-26.539062 4.269531-36.605469 14.339844-19.171874 19.171875-19.171874 50.253906 0 69.425781 19.171876 19.171875 50.257813 19.171875 69.429688 0 11.292969-11.292968 15.933594-26.722656 13.917969-41.414062-.46875-9.613282.355469-31.574219 15.527343-46.742188zm0 0" fill="#face7a"/><path d="m391.347656 382.574219c-14.804687-.003907-12.535156-12.042969-12.535156-12.042969l-32.851562-49.152344c-10.359376-7.058594-3.300782-16.476562-3.042969-16.8125-9.253907 1.808594-18.085938 6.28125-25.253907 13.445313-19.171874 19.171875-19.171874 50.257812 0 69.429687 19.171876 19.171875 50.257813 19.171875 69.429688 0 1.546875-1.546875 2.957031-3.175781 4.253906-4.867187zm0 0" fill="#fbb362"/><path d="m330.667969 112.542969c-1.835938 0-3.675781-.699219-5.078125-2.101563-2.804688-2.804687-2.800782-7.351562.003906-10.15625l1.140625-1.140625c2.804687-2.804687 7.351563-2.804687 10.15625 0 2.804687 2.804688 2.800781 7.351563-.003906 10.15625l-1.140625 1.140625c-1.402344 1.402344-3.242188 2.101563-5.078125 2.101563zm0 0" fill="#f9ecc6"/><path d="m287.992188 157.425781c-1.839844 0-3.675782-.703125-5.078126-2.101562-2.804687-2.804688-2.804687-7.351563 0-10.15625l25.367188-25.367188c2.804688-2.804687 7.351562-2.804687 10.152344 0 2.804687 2.804688 2.804687 7.347657 0 10.152344l-25.367188 25.371094c-1.402344 1.398437-3.238281 2.101562-5.074218 2.101562zm0 0" fill="#fbb362"/><path d="m107.238281 198.738281c-15.492187-15.488281-40.605469-15.488281-56.097656 0-15.488281 15.492188-15.488281 40.605469 0 56.097657 15.492187 15.488281 40.605469 15.488281 56.097656 0 15.488281-15.492188 15.488281-40.605469 0-56.097657zm0 0" fill="#9d4ad3"/><path d="m75.667969 238.445312c-13.730469-13.726562-15.28125-35.011718-4.671875-50.460937-7.277344 1.53125-14.203125 5.109375-19.851563 10.753906-15.492187 15.492188-15.492187 40.609375 0 56.097657 15.488281 15.492187 40.605469 15.492187 56.097657 0 1.757812-1.761719 3.308593-3.652344 4.671874-5.632813-12.675781 2.664063-26.40625-.914063-36.246093-10.757813zm0 0" fill="#8634c6"/><path d="m140.34375 393.140625c-20.6875-20.6875-54.226562-20.6875-74.914062 0-20.683594 20.683594-20.683594 54.222656 0 74.910156 20.6875 20.6875 54.226562 20.6875 74.914062 0 20.683594-20.6875 20.683594-54.226562 0-74.910156zm0 0" fill="#f6159c"/><path d="m98.183594 446.164062c-18.335938-18.332031-20.40625-46.757812-6.242188-67.386718-9.710937 2.042968-18.964844 6.820312-26.507812 14.363281-20.6875 20.6875-20.6875 54.226563 0 74.914063 20.6875 20.683593 54.226562 20.683593 74.914062 0 2.351563-2.355469 4.421875-4.878907 6.238282-7.523438-16.929688 3.558594-35.257813-1.21875-48.402344-14.367188zm0 0" fill="#c6237c"/><path d="m375.054688 330.015625c-12.433594-12.4375-32.601563-12.4375-45.039063 0s-12.4375 32.601563 0 45.039063 32.605469 12.4375 45.039063 0c12.4375-12.4375 12.4375-32.601563 0-45.039063zm0 0" fill="#fbb362"/><path d="m349.710938 361.894531c-11.023438-11.023437-12.265626-28.113281-3.75-40.515625-5.839844 1.226563-11.402344 4.101563-15.9375 8.636719-12.4375 12.4375-12.4375 32.601563 0 45.039063s32.601562 12.4375 45.039062 0c1.414062-1.414063 2.65625-2.933594 3.75-4.523438-10.175781 2.140625-21.199219-.734375-29.101562-8.636719zm0 0" fill="#fd7e31"/></svg>