<?xml version="1.0" encoding="utf-8"?><svg version="1.1" id="Layer_1" xmlns="http://www.w3.org/2000/svg" xmlns:xlink="http://www.w3.org/1999/xlink" x="0px" y="0px" viewBox="0 0 122.88 122.78" style="enable-background:new 0 0 122.88 122.78" xml:space="preserve"><style type="text/css"><![CDATA[
	.st0{fill:#E01E5A;}
	.st1{fill:#ECB22E;}
	.st2{fill:#2EB67D;}
	.st3{fill:#36C5F0;}
]]></style><g><path class="st0" d="M25.91,77.62c0,7.14-5.77,12.9-12.9,12.9S0.1,84.75,0.1,77.62c0-7.14,5.77-12.9,12.9-12.9h12.9V77.62 L25.91,77.62z M32.36,77.62c0-7.14,5.77-12.9,12.9-12.9s12.9,5.77,12.9,12.9v32.26c0,7.14-5.77,12.9-12.9,12.9 s-12.9-5.77-12.9-12.9V77.62L32.36,77.62z"/><path class="st3" d="M45.26,25.81c-7.14,0-12.9-5.77-12.9-12.9c0-7.14,5.77-12.9,12.9-12.9s12.9,5.77,12.9,12.9v12.9H45.26 L45.26,25.81z M45.26,32.36c7.14,0,12.9,5.77,12.9,12.9c0,7.14-5.77,12.9-12.9,12.9H12.9C5.77,58.17,0,52.4,0,45.26 c0-7.14,5.77-12.9,12.9-12.9H45.26L45.26,32.36z"/><path class="st2" d="M96.97,45.26c0-7.14,5.77-12.9,12.9-12.9c7.14,0,12.9,5.77,12.9,12.9c0,7.14-5.77,12.9-12.9,12.9h-12.9V45.26 L96.97,45.26z M90.52,45.26c0,7.14-5.77,12.9-12.9,12.9c-7.14,0-12.9-5.77-12.9-12.9V12.9c0-7.14,5.77-12.9,12.9-12.9 c7.14,0,12.9,5.77,12.9,12.9V45.26L90.52,45.26z"/><path class="st1" d="M77.62,96.97c7.14,0,12.9,5.77,12.9,12.9c0,7.14-5.77,12.9-12.9,12.9c-7.14,0-12.9-5.77-12.9-12.9v-12.9H77.62 L77.62,96.97z M77.62,90.52c-7.14,0-12.9-5.77-12.9-12.9c0-7.14,5.77-12.9,12.9-12.9h32.36c7.14,0,12.9,5.77,12.9,12.9 c0,7.14-5.77,12.9-12.9,12.9H77.62L77.62,90.52z"/></g></svg>