<?xml version="1.0" encoding="UTF-8" standalone="no"?>
<!-- Created with Inkscape (http://www.inkscape.org/) -->

<svg
   version="1.1"
   id="svg1"
   width="281.25"
   height="240"
   viewBox="0 0 281.25 240"
   sodipodi:docname="68dbe872-78e6-4669-b59b-773d82772031.ai"
   xmlns:inkscape="http://www.inkscape.org/namespaces/inkscape"
   xmlns:sodipodi="http://sodipodi.sourceforge.net/DTD/sodipodi-0.dtd"
   xmlns="http://www.w3.org/2000/svg"
   xmlns:svg="http://www.w3.org/2000/svg">
  <defs
     id="defs1">
    <clipPath
       clipPathUnits="userSpaceOnUse"
       id="clipPath2">
      <path
         d="M 0,180 H 607 V 0 H 0 Z"
         transform="translate(-19.522401,-158.5672)"
         id="path2" />
    </clipPath>
    <clipPath
       clipPathUnits="userSpaceOnUse"
       id="clipPath3">
      <path
         d="M 0,131.583 H 91.2856 V 55.9452 H 0 Z"
         transform="translate(0,-120.5671)"
         id="path3" />
    </clipPath>
    <clipPath
       clipPathUnits="userSpaceOnUse"
       id="clipPath5">
      <path
         d="M 0,180 H 607 V 0 H 0 Z"
         transform="matrix(1.3333333,0,0,-1.3333333,0,240)"
         id="path5" />
    </clipPath>
    <clipPath
       clipPathUnits="userSpaceOnUse"
       id="clipPath7">
      <path
         d="M 0,180 H 607 V 0 H 0 Z"
         transform="translate(-134.8714,-152)"
         id="path7" />
    </clipPath>
    <clipPath
       clipPathUnits="userSpaceOnUse"
       id="clipPath9">
      <path
         d="M 0,180 H 607 V 0 H 0 Z"
         transform="translate(-58.805401,-180)"
         id="path9" />
    </clipPath>

  </defs>
  <sodipodi:namedview
     id="namedview1"
     pagecolor="#ffffff"
     bordercolor="#000000"
     borderopacity="0.25"
     inkscape:showpageshadow="2"
     inkscape:pageopacity="0.0"
     inkscape:pagecheckerboard="0"
     inkscape:deskcolor="#d1d1d1">
    <inkscape:page
       x="0"
       y="0"
       inkscape:label="1"
       id="page1"
       width="281.25"
       height="240"
       margin="0 0.78933334 0 0"
       bleed="0" />
  </sodipodi:namedview>
  <g
     id="layer-MC0"
     inkscape:groupmode="layer"
     inkscape:label="图层 1">
    <path
       id="path1"
       d="m 0,0 c 18.684,9.105 41.212,1.348 50.33,-17.33 l 19.467,-39.879 c 4.555,-9.331 0.684,-20.588 -8.647,-25.142 -0.004,-0.002 -0.008,-0.004 -0.012,-0.006 -9.342,-4.553 -20.606,-0.674 -25.165,8.665 z"
       style="fill:#a5ccff;fill-opacity:1;fill-rule:evenodd;stroke:none"
       transform="matrix(1.3333333,0,0,-1.3333333,26.029867,28.577067)"
       clip-path="url(#clipPath2)" />
    <g
       opacity="0.647736"
       id="g4"
       clip-path="url(#clipPath5)">
      <path
         d="m 0,0 c 14.7,14.687 38.52,14.687 53.221,0 l 32.555,-32.527 c 7.342,-7.335 7.347,-19.234 0.011,-26.576 -0.003,-0.003 -0.007,-0.007 -0.011,-0.011 -7.35,-7.344 -19.26,-7.344 -26.61,0 z"
         style="fill:#a5ccff;fill-opacity:1;fill-rule:evenodd;stroke:none"
         transform="matrix(1.3333333,0,0,-1.3333333,0,79.243867)"
         clip-path="url(#clipPath3)"
         id="path4" />
    </g>
    <path
       id="path6"
       d="m 0,0 c 42.01,0 76.066,-34.026 76.066,-76 0,-20.493 -10.54,-41.315 -23.738,-54.984 l -5.465,6.548 c -9.374,11.229 -12.703,26.315 -8.927,40.448 0.685,2.561 1.027,4.914 1.027,7.059 0,21.65 -17.566,39.2 -39.234,39.2 -21.669,0 -39.234,-17.55 -39.234,-39.2 0,-21.649 17.565,-39.2 39.234,-39.2 4.056,0 7.969,0.615 11.649,1.757 11.03,3.422 23.049,0.58 31.378,-7.419 l 9.572,-9.193 C 38.737,-143.661 20.06,-152 0,-152 c -42.01,0 -76.066,34.026 -76.066,76 0,41.974 34.056,76 76.066,76"
       style="fill:#006eff;fill-opacity:1;fill-rule:evenodd;stroke:none"
       transform="matrix(1.3333333,0,0,-1.3333333,179.82853,37.333333)"
       clip-path="url(#clipPath7)" />
    <path
       id="path8"
       d="M 0,0 C 20.784,0 37.633,-16.849 37.633,-37.633 V -64.767 C 37.633,-85.551 20.784,-102.4 0,-102.4 Z"
       style="fill:#006eff;fill-opacity:1;fill-rule:evenodd;stroke:none"
       transform="matrix(1.3333333,0,0,-1.3333333,78.4072,0)"
       clip-path="url(#clipPath9)" />

  </g>
</svg>
