<svg width="425" height="353" viewBox="0 0 425 353" fill="none" xmlns="http://www.w3.org/2000/svg">
<path d="M70.1772 139.755L3.81078 121.336C0.554964 120.43 -0.896425 122.127 0.574577 125.194L108.997 345.443C110.79 348.631 114.125 350.686 117.823 350.883C114.248 350.799 111.183 348.347 110.37 344.922L70.1772 139.755Z" fill="#F46060"/>
<path d="M116.509 350.728C113.688 350.145 111.712 347.638 111.841 344.806L124.159 88.168L57.9434 62.9465C54.7857 61.7312 52.7459 63.4094 53.4324 66.6887L110.311 344.922C111.129 348.298 114.139 350.722 117.666 350.844C117.278 350.842 116.89 350.803 116.509 350.728Z" fill="#FFA52E"/>
<path d="M131.297 21.9753C130.126 21.1732 128.587 21.1128 127.354 21.8206C126.12 22.5284 125.417 23.8758 125.551 25.2739L111.821 344.806C111.693 347.638 113.669 350.145 116.489 350.728C115.21 350.492 114.102 349.71 113.466 348.593C112.83 347.475 112.73 346.138 113.194 344.941L196.239 54.2001L131.297 21.9753Z" fill="#87CC25"/>
<path opacity="0.4" d="M111.841 344.806L120.02 153.704L68.2798 139.314L110.37 344.922C111.188 348.298 114.198 350.722 117.725 350.844C117.317 350.845 116.909 350.807 116.509 350.728C113.688 350.145 111.712 347.638 111.841 344.806V344.806Z" fill="#F98526"/>
<path opacity="0.4" d="M179.213 109.242L122.864 87.7336L111.841 344.806C111.713 347.638 113.689 350.145 116.509 350.728C115.23 350.492 114.122 349.71 113.486 348.593C112.85 347.475 112.75 346.138 113.214 344.941L179.213 109.242Z" fill="#74B502"/>
<path d="M420.811 116.919L215.773 0.756756C214.52 -0.0706375 212.931 -0.230323 211.534 0.33085C210.137 0.892023 209.115 2.10039 208.81 3.55375L113.214 345.096C112.75 346.292 112.85 347.63 113.486 348.747C114.122 349.864 115.23 350.647 116.509 350.883C116.91 350.961 117.317 351 117.725 350.998L332.766 350.748V350.748C336.404 350.564 339.62 348.365 341.063 345.076L424.008 125.753C425.198 122.436 423.865 118.751 420.811 116.919V116.919Z" fill="#1D7FF9"/>
<path fill-rule="evenodd" clip-rule="evenodd" d="M392.352 143.423L231.522 66.573C230.738 66.2065 229.875 66.7273 229.561 67.7497L225.952 80.6737C225.629 81.5928 225.995 82.6096 226.835 83.1235L387.527 155.614C387.978 155.807 388.586 155.382 388.88 154.63L392.528 145.178C392.94 144.484 392.803 143.635 392.352 143.423ZM378.956 178.144L218.381 113.62C217.958 113.478 217.492 113.529 217.112 113.761C216.732 113.993 216.478 114.38 216.42 114.816L213.046 127.123C212.769 127.991 213.144 128.931 213.949 129.38L374.504 189.872C374.974 190.046 375.563 189.602 375.857 188.888L379.348 179.803C379.564 179.07 379.407 178.337 378.956 178.163V178.144ZM366.089 211.534L205.829 158.276C205.417 158.185 204.985 158.264 204.634 158.493C204.282 158.722 204.041 159.083 203.965 159.491L200.69 171.065C200.402 171.895 200.813 172.802 201.631 173.148L361.774 222.722C362.226 222.877 362.814 222.433 363.089 221.739L366.462 213C366.658 212.383 366.54 211.689 366.089 211.554V211.534ZM353.694 243.652L193.825 200.752C192.982 200.598 192.169 201.139 192.001 201.967L188.883 213.058C188.739 213.437 188.759 213.856 188.936 214.22C189.114 214.584 189.434 214.861 189.824 214.987L349.516 254.435C349.987 254.57 350.556 254.107 350.811 253.451L354.066 245.041C354.321 244.443 354.164 243.787 353.694 243.671V243.652Z" fill="white"/>
</svg>
