<?xml version="1.0" encoding="UTF-8"?>
<svg version="1.1" xmlns="http://www.w3.org/2000/svg" width="20" height="20" viewBox="0 0 820 297">
<path d="M0 0 C0.71816895 -0.01482422 1.43633789 -0.02964844 2.17626953 -0.04492188 C8.81413589 0.08562853 14.16948258 2.36590714 18.8125 7.125 C21.29083075 12.80450796 21.38784991 18.19169162 19.5 24.109375 C15.54970118 32.72322103 9.08443404 41.10114094 1.3125 46.5625 C-2.5 47.3125 -2.5 47.3125 -5.6875 47.5625 C-7.94679642 43.17680696 -7.95493504 40.31538138 -6.6875 35.5625 C-4.48258658 31.66099152 -1.92472682 28.04539627 0.9453125 24.60546875 C2.51495289 22.25997754 2.92725023 20.33629831 3.3125 17.5625 C-34.11700462 13.77749391 -77.05620348 45.88435079 -104.6875 67.5625 C-105.49767578 68.19696045 -105.49767578 68.19696045 -106.32421875 68.84423828 C-112.14362463 73.4305018 -117.56724626 78.21135948 -122.6875 83.5625 C-123.8940625 84.738125 -123.8940625 84.738125 -125.125 85.9375 C-134.06186373 95.09233602 -143.34116874 104.99312199 -144.11328125 118.33203125 C-143.22394837 122.99083012 -140.58948472 125.91699801 -136.81640625 128.6171875 C-135.64079118 129.24912931 -134.45050754 129.85423085 -133.25 130.4375 C-132.57606201 130.76991699 -131.90212402 131.10233398 -131.20776367 131.44482422 C-120.73284078 136.27451796 -109.32907473 138.76967534 -98.20458984 141.6484375 C-56.63522049 152.45197206 -56.63522049 152.45197206 -48.625 163.375 C-46.93595137 169.11776533 -47.87302376 173.70549417 -50.25 179.125 C-68.29482199 206.86174052 -113.71940945 217.41712992 -143.515625 223.8515625 C-169.198636 229.13322278 -169.198636 229.13322278 -175.47265625 226.30859375 C-178.48259842 223.93567638 -178.8283144 222.19588287 -179.54296875 218.5625 C-179.74553961 215.75935722 -179.1013052 213.96596885 -177.6875 211.5625 C-175.00747294 208.88247294 -173.14589118 209.0007228 -169.40625 208.484375 C-168.10220215 208.29641357 -166.7981543 208.10845215 -165.45458984 207.91479492 C-164.75920105 207.81717865 -164.06381226 207.71956238 -163.34735107 207.61898804 C-135.72365326 203.6991192 -109.20052519 197.81724128 -84.25 184.9375 C-83.39172607 184.49446533 -82.53345215 184.05143066 -81.64916992 183.5949707 C-73.96112878 179.48967057 -73.96112878 179.48967057 -67.6875 173.5625 C-67.6875 172.2425 -67.6875 170.9225 -67.6875 169.5625 C-76.11513623 165.66483621 -84.93750941 163.58870316 -93.91247559 161.38708496 C-149.94364158 147.59142259 -149.94364158 147.59142259 -161.25 130.0625 C-164.48219743 122.19280191 -164.11490225 114.66507879 -161.6875 106.5625 C-154.45150348 89.52368387 -139.86576941 73.97602735 -125.40234375 62.6875 C-122.58257748 60.4803736 -119.89488653 58.15564729 -117.1875 55.8125 C-86.76852599 30.48948813 -40.91361349 0.57852479 0 0 Z " fill="#376AE2" transform="translate(582.6875,-0.5625)"/>
<path d="M0 0 C1.36125 1.11375 1.36125 1.11375 2.75 2.25 C2.90210938 1.6725 3.05421875 1.095 3.2109375 0.5 C4.39675899 -2.4189452 5.26372325 -3.75098352 7.75 -5.75 C10.83744805 -6.2502178 13.85930118 -6.12615826 16.9765625 -6 C18.23980347 -5.97292969 18.23980347 -5.97292969 19.52856445 -5.9453125 C21.6028646 -5.89826955 23.67657827 -5.82652768 25.75 -5.75 C25.81973294 6.42917605 25.87292917 18.60830404 25.90543652 30.78763962 C25.92104409 36.44394774 25.94219221 42.10011854 25.97631836 47.75634766 C26.00908744 53.22230618 26.02688987 58.6881332 26.03463173 64.15418243 C26.04014387 66.2320182 26.05090715 68.30984737 26.06719017 70.38762665 C26.18764784 86.40609823 26.01086292 99.92273468 14.81640625 112.40625 C4.97906543 122.08113932 -7.63567469 124.52971999 -20.99853516 124.49438477 C-33.45541483 124.27716313 -42.34449603 120.68219175 -51.47265625 112.1796875 C-56.33033466 107.11317431 -62.25 99.62194482 -62.25 92.25 C-58.41746871 92.04494335 -54.58636234 91.92179172 -50.75 91.8125 C-49.13351562 91.72452148 -49.13351562 91.72452148 -47.484375 91.63476562 C-41.67682383 91.51082398 -38.13433032 91.70469097 -33.7109375 95.68359375 C-33.12618652 96.31193115 -32.54143555 96.94026855 -31.93896484 97.58764648 C-28.4879832 100.98425447 -24.39022239 101.25996998 -19.734375 101.23828125 C-14.03507047 100.85434606 -8.98637202 100.03098679 -4.8125 95.7890625 C-1.10298695 91.46832287 -0.12238171 89.22517282 -0.1875 83.625 C-0.19652344 82.62210937 -0.20554687 81.61921875 -0.21484375 80.5859375 C-0.22644531 79.81507813 -0.23804688 79.04421875 -0.25 78.25 C-0.81847656 78.65992188 -1.38695312 79.06984375 -1.97265625 79.4921875 C-11.1670892 85.90833603 -19.09082941 87.19894992 -30.25 86.25 C-40.67922249 84.13887254 -50.2148047 78.72905317 -56.875 70.328125 C-65.52884076 57.24902477 -67.9117148 44.23110332 -65.78515625 28.8984375 C-64.24266236 21.83399803 -61.41132663 16.13325489 -57.25 10.25 C-56.80914063 9.61320312 -56.36828125 8.97640625 -55.9140625 8.3203125 C-42.98083665 -8.50035695 -17.23224255 -12.14561674 0 0 Z M-34.125 22 C-39.61370672 27.33571141 -41.75675455 32.06488321 -42.31640625 39.66015625 C-42.146971 46.26813086 -39.38515174 52.16967072 -35.25 57.25 C-29.94146406 61.49682875 -24.63438093 63.58602913 -17.8125 63.1875 C-11.46271781 62.25720823 -6.58398033 59.01279353 -2.375 54.25 C1.86311908 48.26677307 3.43167935 42.11419902 2.1875 34.8125 C0.45328804 28.07089457 -3.4669292 23.18915866 -9.1875 19.3125 C-17.94325193 14.4039724 -26.63959015 15.64469261 -34.125 22 Z " fill="#000001" transform="translate(674.25,111.75)"/>
<path d="M0 0 C28.71 0 57.42 0 87 0 C87 8.25 87 16.5 87 25 C66.87 25 46.74 25 26 25 C26 35.23 26 45.46 26 56 C42.5 56 59 56 76 56 C76 63.92 76 71.84 76 80 C59.5 80 43 80 26 80 C26 96.5 26 113 26 130 C17.42 130 8.84 130 0 130 C0 87.1 0 44.2 0 0 Z " fill="#000000" transform="translate(13,71)"/>
<path d="M0 0 C10.55781689 7.98110722 16.78500774 19.4921198 18.9140625 32.63671875 C18.99269531 33.49523437 19.07132812 34.35375 19.15234375 35.23828125 C19.23871094 36.09164062 19.32507813 36.945 19.4140625 37.82421875 C19.48131683 41.84913191 18.9093831 45.8624271 18.46484375 49.86328125 C-2.98515625 50.19328125 -24.43515625 50.52328125 -46.53515625 50.86328125 C-42.24095242 59.84662283 -42.24095242 59.84662283 -34.22265625 64.11328125 C-26.75235839 65.63266387 -20.44259233 65.17394588 -13.53515625 61.86328125 C-13.12265625 61.35474609 -12.71015625 60.84621094 -12.28515625 60.32226562 C-9.73877412 58.1993332 -7.82921821 58.52239254 -4.5546875 58.5703125 C-3.39130859 58.57998047 -2.22792969 58.58964844 -1.02929688 58.59960938 C0.18564453 58.62474609 1.40058594 58.64988281 2.65234375 58.67578125 C4.4921582 58.69608398 4.4921582 58.69608398 6.36914062 58.71679688 C9.40148039 58.75219384 12.43294371 58.80157365 15.46484375 58.86328125 C13.72844794 68.62746495 6.26685292 76.14859591 -1.53515625 81.86328125 C-12.75410726 88.61526861 -24.5729392 90.5544799 -37.48046875 88.36328125 C-49.46245994 85.05790437 -60.24429927 77.54955088 -66.91015625 66.98828125 C-74.0571081 53.86866426 -76.50081407 40.47181559 -72.53515625 25.86328125 C-67.23842769 12.31419107 -59.51233243 2.65645455 -46.53515625 -4.13671875 C-30.91411364 -10.70383404 -14.04222892 -9.73084156 0 0 Z M-41.53515625 19.86328125 C-44.78370825 24.05136544 -47.24113396 27.68719208 -48.53515625 32.86328125 C-34.01515625 32.86328125 -19.49515625 32.86328125 -4.53515625 32.86328125 C-6.9429256 25.63997319 -10.11685207 21.07093603 -16.53515625 16.92578125 C-24.53290972 14.09324356 -34.76437995 14.03289055 -41.53515625 19.86328125 Z " fill="#000001" transform="translate(230.53515625,113.13671875)"/>
<path d="M0 0 C8.57447749 5.84309152 14.11358466 12.89123251 16.34498596 23.21315002 C17.76548866 31.07007785 18.07600317 38.6376524 18.0078125 46.609375 C18.0049826 47.87976624 18.00215271 49.15015747 17.99923706 50.45904541 C17.99001984 53.79300991 17.97213673 57.12668589 17.9498291 60.46057129 C17.92915776 63.87993876 17.92007983 67.29933724 17.91015625 70.71875 C17.88994668 77.39599242 17.85077729 84.07273959 17.8125 90.75 C9.5625 90.75 1.3125 90.75 -7.1875 90.75 C-7.21328125 86.6559375 -7.2390625 82.561875 -7.265625 78.34375 C-7.29734133 75.06178294 -7.3329937 71.77991067 -7.37129211 68.49801636 C-7.41053529 65.04325431 -7.44297951 61.58874607 -7.45849609 58.13378906 C-7.47665662 54.16178185 -7.52665575 50.19047054 -7.578125 46.21875 C-7.57935364 44.99136108 -7.58058228 43.76397217 -7.58184814 42.49938965 C-7.72108652 34.30409454 -8.6477392 28.59316887 -14.375 22.375 C-19.66961674 19.31588811 -24.82118348 18.24057633 -30.875 19.3125 C-35.26298414 20.53010816 -38.07990999 22.34644903 -41.1875 25.75 C-44.6080539 32.77428779 -44.65828041 39.27662168 -44.69921875 47 C-44.71716995 48.25385498 -44.73512115 49.50770996 -44.75361633 50.79956055 C-44.79841081 54.10715861 -44.83081531 57.41456386 -44.85705566 60.72235107 C-44.88701809 64.10800346 -44.9334938 67.49342657 -44.97851562 70.87890625 C-45.06328184 77.50251827 -45.13016801 84.126096 -45.1875 90.75 C-53.1075 90.75 -61.0275 90.75 -69.1875 90.75 C-69.1875 59.4 -69.1875 28.05 -69.1875 -4.25 C-63.2475 -4.25 -57.3075 -4.25 -51.1875 -4.25 C-48.1875 1.75 -48.1875 1.75 -48.1875 3.75 C-47.25808594 3.26789063 -46.32867188 2.78578125 -45.37109375 2.2890625 C-44.12256245 1.65071567 -42.87385505 1.01271322 -41.625 0.375 C-41.01591797 0.05789062 -40.40683594 -0.25921875 -39.77929688 -0.5859375 C-26.85023219 -7.15308147 -12.6612813 -7.34936443 0 0 Z " fill="#000000" transform="translate(791.1875,110.25)"/>
<path d="M0 0 C4.18601536 -0.29191181 8.36941211 -0.46845805 12.5625 -0.625 C13.74392578 -0.70878906 14.92535156 -0.79257813 16.14257812 -0.87890625 C24.72935806 -1.1194323 24.72935806 -1.1194323 28.19311523 1.93212891 C30.03828611 4.53561351 31.52925063 7.16961252 33 10 C34.01960317 11.64447996 35.04922298 13.28280122 36.08984375 14.9140625 C37.04246051 16.48231595 37.9917154 18.05261675 38.9375 19.625 C39.43056641 20.43839844 39.92363281 21.25179687 40.43164062 22.08984375 C41.62415593 24.05807289 42.81357134 26.02809819 44 28 C44.42273193 27.41637695 44.84546387 26.83275391 45.28100586 26.23144531 C46.45107242 24.62211416 47.63146002 23.020282 48.81640625 21.421875 C50.59742981 18.83736423 51.78370148 16.23286006 52.96484375 13.328125 C57.40281006 3.28670592 57.40281006 3.28670592 62 0 C70.75687964 -2.25492034 80.12532866 -1.10028245 89 0 C85.87981003 5.75824421 82.59653385 11.34015589 79 16.8125 C78.53940186 17.51882568 78.07880371 18.22515137 77.60424805 18.95288086 C76.60889913 20.47910461 75.61235927 22.0045522 74.61474609 23.52929688 C72.26514092 27.12439883 69.92701096 30.72692821 67.58789062 34.32885742 C65.06045763 38.22045083 62.5301995 42.11020502 60 46 C63.40306137 52.36316974 67.13721115 58.39807057 71.17578125 64.375 C71.74580368 65.22553955 72.31582611 66.0760791 72.90312195 66.95239258 C74.70290551 69.6371903 76.50729294 72.31884655 78.3125 75 C80.13510112 77.710018 81.95665277 80.42071911 83.7754364 83.13330078 C84.90266787 84.81423163 86.03217603 86.49363834 87.16413879 88.17138672 C87.66853989 88.92307129 88.17294098 89.67475586 88.69262695 90.44921875 C89.13943314 91.11268311 89.58623932 91.77614746 90.04658508 92.4597168 C91 94 91 94 91 95 C82.11168702 96.66035691 72.68953858 98.06457553 64 95 C56.85481866 88.86936942 52.57034887 80.18470916 48.47265625 71.84082031 C47.16653361 69.32125085 45.77817636 67.20148849 44 65 C41.77028267 68.49964947 39.54132733 71.99978366 37.3125 75.5 C36.37374023 76.97339844 36.37374023 76.97339844 35.41601562 78.4765625 C34.80048828 79.44335938 34.18496094 80.41015625 33.55078125 81.40625 C32.93050049 82.35435547 32.31021973 83.30246094 31.67114258 84.27929688 C29.9764874 86.89779282 29.9764874 86.89779282 28.9128418 89.48632812 C27.8178343 91.88084368 27.04225998 93.32519045 25 95 C20.36191889 95.97880951 15.90028244 95.75355891 11.1875 95.5 C9.92228516 95.46390625 8.65707031 95.4278125 7.35351562 95.390625 C4.23260256 95.29640876 1.11784192 95.16498197 -2 95 C-0.55695943 90.96889753 1.39235488 87.67935941 3.78125 84.1328125 C4.15146774 83.58056503 4.52168549 83.02831757 4.90312195 82.45933533 C5.69179746 81.28411701 6.48255623 80.11029446 7.27523804 78.93777466 C8.5068351 77.11488335 9.73143502 75.28746813 10.9543457 73.45874023 C14.41540393 68.28896492 17.89290438 63.13232341 21.44921875 58.02734375 C21.92359375 57.33946777 22.39796875 56.6515918 22.88671875 55.94287109 C23.728592 54.72588389 24.58085279 53.51599005 25.4453125 52.31494141 C27.52032691 49.4558125 27.52032691 49.4558125 27.73266602 46.07006836 C26.95346168 43.86851101 25.99325089 42.12232656 24.734375 40.15625 C24.26241699 39.41391113 23.79045898 38.67157227 23.30419922 37.90673828 C22.79131348 37.11251465 22.27842773 36.31829102 21.75 35.5 C21.22293457 34.6735498 20.69586914 33.84709961 20.15283203 32.99560547 C17.25901441 28.46981426 14.32909942 23.96833829 11.3828125 19.4765625 C10.79661133 18.58130859 10.21041016 17.68605469 9.60644531 16.76367188 C8.47237557 15.03538285 7.33386227 13.30999953 6.19042969 11.58789062 C5.67125977 10.79833984 5.15208984 10.00878906 4.6171875 9.1953125 C4.15940918 8.50453613 3.70163086 7.81375977 3.22998047 7.10205078 C1.88751257 4.80775768 0.92956368 2.48697626 0 0 Z " fill="#000101" transform="translate(256,106)"/>
<path d="M0 0 C7.92 0 15.84 0 24 0 C24 42.9 24 85.8 24 130 C16.08 130 8.16 130 0 130 C0 87.1 0 44.2 0 0 Z " fill="#000000" transform="translate(116,71)"/>
<path d="M0 0 C8.25 0 16.5 0 25 0 C25 31.35 25 62.7 25 95 C16.75 95 8.5 95 0 95 C0 63.65 0 32.3 0 0 Z " fill="#000000" transform="translate(357,106)"/>
<path d="M0 0 C7.92 0 15.84 0 24 0 C24 31.35 24 62.7 24 95 C16.08 95 8.16 95 0 95 C0 63.65 0 32.3 0 0 Z " fill="#000000" transform="translate(567,106)"/>
<path d="M0 0 C1.07689087 -0.02211548 1.07689087 -0.02211548 2.17553711 -0.04467773 C8.81362852 0.08505442 14.16942245 2.36584551 18.8125 7.125 C21.29083075 12.80450796 21.38784991 18.19169162 19.5 24.109375 C15.54970118 32.72322103 9.08443404 41.10114094 1.3125 46.5625 C-2.5 47.3125 -2.5 47.3125 -5.6875 47.5625 C-7.94679642 43.17680696 -7.95493504 40.31538138 -6.6875 35.5625 C-4.48258658 31.66099152 -1.92472682 28.04539627 0.9453125 24.60546875 C2.51495289 22.25997754 2.92725023 20.33629831 3.3125 17.5625 C-11.04040567 16.11108257 -25.46535692 21.57142561 -38.29296875 27.5234375 C-42.60394538 28.84302298 -45.28842845 28.37981384 -49.6875 27.5625 C-49.40009058 26.18660383 -49.10732258 24.81182678 -48.8125 23.4375 C-48.65007813 22.67179687 -48.48765625 21.90609375 -48.3203125 21.1171875 C-48.11148438 20.27414063 -47.90265625 19.43109375 -47.6875 18.5625 C-47.48769531 17.54542969 -47.28789063 16.52835938 -47.08203125 15.48046875 C-45.13320164 11.40266562 -42.28506736 10.4764422 -38.25 9 C-37.4964624 8.71116943 -36.7429248 8.42233887 -35.96655273 8.12475586 C-24.24425586 3.76462589 -12.59167092 0.16673363 0 0 Z " fill="#5086EF" transform="translate(582.6875,-0.5625)"/>
<path d="M0 0 C0.99 0.495 0.99 0.495 2 1 C0.92598892 3.91517292 0.22189824 5.77810176 -2 8 C-1.67232833 9.33473599 -1.33815548 10.66788148 -1 12 C-1.60171779 15.49019271 -2.84177737 18.19372323 -5 21 C-8.54300967 23.02892247 -12.22446813 23.85889696 -16.1875 24.75 C-17.28940674 25.02602051 -18.39131348 25.30204102 -19.52661133 25.58642578 C-23.0084009 26.43940125 -26.49941998 27.22804228 -30 28 C-31.68029297 28.37946777 -31.68029297 28.37946777 -33.39453125 28.76660156 C-65.00424771 35.81471402 -65.00424771 35.81471402 -71.76953125 32.7421875 C-74.79898287 30.37592581 -75.13904608 28.64237321 -75.85546875 25 C-76.05803961 22.19685722 -75.4138052 20.40346885 -74 18 C-71.31997294 15.31997294 -69.45839118 15.4382228 -65.71875 14.921875 C-64.41405762 14.73367187 -63.10936523 14.54546875 -61.76513672 14.3515625 C-61.06966736 14.25391602 -60.374198 14.15626953 -59.65765381 14.05566406 C-40.25755017 11.30734806 -20.59072147 8.1697598 -2.34375 0.78515625 C-1.5703125 0.52605469 -0.796875 0.26695312 0 0 Z " fill="#3366E1" transform="translate(479,193)"/>
<path d="M0 0 C1.09362142 3.25170103 0.93111886 4.97353889 -0.375 8.125 C-0.65085937 8.80820312 -0.92671875 9.49140625 -1.2109375 10.1953125 C-1.77237078 11.47938266 -2.37325547 12.74651095 -3 14 C-1.35 14 0.3 14 2 14 C2.495 14.99 2.495 14.99 3 16 C2.34741211 16.32572998 1.69482422 16.65145996 1.02246094 16.98706055 C-16.92026664 25.99456118 -34.22761321 35.69127349 -50.125 48.0234375 C-52.52226698 49.27201405 -53.48148739 48.72407237 -56 48 C-56.66 48.66 -57.32 49.32 -58 50 C-58.66 49.01 -59.32 48.02 -60 47 C-60.66 46.34 -61.32 45.68 -62 45 C-61.54625 44.113125 -61.0925 43.22625 -60.625 42.3125 C-58.99364321 39.20614149 -58.99364321 39.20614149 -58.25 36.5625 C-54.33033286 28.52718237 -45.92083965 24.14691241 -38.5 19.8125 C-37.41517334 19.17046631 -36.33034668 18.52843262 -35.21264648 17.86694336 C-4.72075982 0 -4.72075982 0 0 0 Z " fill="#3E73E6" transform="translate(536,13)"/>
<path d="M0 0 C1.98 0 3.96 0 6 0 C7.98852418 4.05798447 9.96416266 8.12211149 11.9375 12.1875 C12.50146484 13.33798828 13.06542969 14.48847656 13.64648438 15.67382812 C14.18466797 16.78564453 14.72285156 17.89746094 15.27734375 19.04296875 C15.77484131 20.06414795 16.27233887 21.08532715 16.78491211 22.13745117 C17.91111567 24.79060301 18.55997652 27.16150655 19 30 C19.66 30 20.32 30 21 30 C21.38800781 28.74316406 21.77601562 27.48632812 22.17578125 26.19140625 C24.0571839 20.54719829 26.58246641 15.27763305 29.1875 9.9375 C29.65091797 8.97650391 30.11433594 8.01550781 30.59179688 7.02539062 C31.7230646 4.6812173 32.85919011 2.33954029 34 0 C35.98 0 37.96 0 40 0 C40 13.86 40 27.72 40 42 C37.69 42 35.38 42 33 42 C32.67 35.4 32.34 28.8 32 22 C31.40832031 23.35996094 30.81664063 24.71992188 30.20703125 26.12109375 C29.40983966 27.89367271 28.61160836 29.66578433 27.8125 31.4375 C27.42513672 32.33533203 27.03777344 33.23316406 26.63867188 34.15820312 C26.24873047 35.01220703 25.85878906 35.86621094 25.45703125 36.74609375 C25.10616455 37.53685303 24.75529785 38.3276123 24.39379883 39.14233398 C23 41 23 41 20.34643555 41.76586914 C19.18494995 41.88176392 19.18494995 41.88176392 18 42 C13 32 13 32 8 22 C7.67 28.6 7.34 35.2 7 42 C4.69 42 2.38 42 0 42 C0 28.14 0 14.28 0 0 Z " fill="#4E4F50" transform="translate(93,231)"/>
<path d="M0 0 C21 0 21 0 27 4 C29.5821952 7.40380276 29.37096305 10.84521379 29 15 C27.5 17.4375 27.5 17.4375 26 19 C26.639375 19.680625 27.27875 20.36125 27.9375 21.0625 C30.38620784 24.55005359 30.84877013 26.76556351 31 31 C29.92871028 35.99935204 26.9661987 38.0860581 23 41 C15.71989011 43.4267033 7.67390962 42 0 42 C0 28.14 0 14.28 0 0 Z M7 6 C7 9.63 7 13.26 7 17 C8.7325 17.061875 10.465 17.12375 12.25 17.1875 C13.22453125 17.22230469 14.1990625 17.25710937 15.203125 17.29296875 C18.4129536 16.95674369 19.71586138 16.24154396 22 14 C22.75 11.5 22.75 11.5 22 9 C18.82700519 5.93277168 15.90846649 5.82447437 11.6875 5.8125 C9.3671875 5.9053125 9.3671875 5.9053125 7 6 Z M7 23 C7 26.96 7 30.92 7 35 C9.10353495 35.0810206 11.20795952 35.13919907 13.3125 35.1875 C14.48425781 35.22230469 15.65601563 35.25710938 16.86328125 35.29296875 C19.95321666 35.26497976 19.95321666 35.26497976 21.89453125 33.67578125 C23.62064064 31.05917019 23.38086549 29.04692394 23 26 C21.95663946 24.19433115 21.95663946 24.19433115 20 23 C16.79861932 22.6363838 16.79861932 22.6363838 13.3125 22.8125 C12.13300781 22.83957031 10.95351563 22.86664063 9.73828125 22.89453125 C8.38283203 22.94673828 8.38283203 22.94673828 7 23 Z " fill="#4E4F50" transform="translate(11,231)"/>
<path d="M0 0 C1.671549 0.30791692 3.33805547 0.64386903 5 1 C8.08411363 1.09980224 8.08411363 1.09980224 11.375 0.3125 C15.56469938 -0.04868098 16.56069824 0.86205567 20 3 C21.91665365 2.2516467 21.91665365 2.2516467 24 1 C27.96145244 -0.01125685 30.97170981 -0.41131608 34.8125 1.125 C37.99408334 3.85207144 39.80558393 6.47073295 40.34057617 10.67895508 C40.3170105 12.08504028 40.3170105 12.08504028 40.29296875 13.51953125 C40.2784668 15.0519043 40.2784668 15.0519043 40.26367188 16.61523438 C40.23853516 17.67033203 40.21339844 18.72542969 40.1875 19.8125 C40.16719727 21.42415039 40.16719727 21.42415039 40.14648438 23.06835938 C40.11122577 25.71275455 40.06194366 28.35611748 40 31 C37.69 31 35.38 31 33 31 C32.97494385 30.3387915 32.9498877 29.67758301 32.92407227 28.99633789 C32.80846898 26.01817695 32.68558246 23.0403608 32.5625 20.0625 C32.52318359 19.02158203 32.48386719 17.98066406 32.44335938 16.90820312 C32.40146484 15.91884766 32.35957031 14.92949219 32.31640625 13.91015625 C32.26141968 12.53549194 32.26141968 12.53549194 32.20532227 11.13305664 C32.22996136 9.0179272 32.22996136 9.0179272 31 8 C28.54207971 7.66656449 28.54207971 7.66656449 26 8 C23.91254955 11.13117567 23.72346004 12.06946224 23.5859375 15.66796875 C23.54726563 16.56064453 23.50859375 17.45332031 23.46875 18.37304688 C23.42234375 19.76620117 23.42234375 19.76620117 23.375 21.1875 C23.33632813 22.12787109 23.29765625 23.06824219 23.2578125 24.03710938 C23.16356813 26.3578771 23.07795975 28.67863748 23 31 C20.69 31 18.38 31 16 31 C15.97494385 30.3387915 15.9498877 29.67758301 15.92407227 28.99633789 C15.80846898 26.01817695 15.68558246 23.0403608 15.5625 20.0625 C15.52318359 19.02158203 15.48386719 17.98066406 15.44335938 16.90820312 C15.40146484 15.91884766 15.35957031 14.92949219 15.31640625 13.91015625 C15.27974854 12.99371338 15.24309082 12.07727051 15.20532227 11.13305664 C15.22996136 9.0179272 15.22996136 9.0179272 14 8 C11.54190002 7.7499227 11.54190002 7.7499227 9 8 C6.51942372 10.48057628 6.70980995 11.36192464 6.5859375 14.7890625 C6.54726563 15.73007812 6.50859375 16.67109375 6.46875 17.640625 C6.4378125 18.62546875 6.406875 19.6103125 6.375 20.625 C6.31699219 22.11386719 6.31699219 22.11386719 6.2578125 23.6328125 C6.1633686 26.08835385 6.07780125 28.5438841 6 31 C3.69 31 1.38 31 -1 31 C-1.02465622 26.74585377 -1.04283899 22.49174502 -1.05493164 18.23754883 C-1.05997101 16.78929927 -1.06680253 15.34105483 -1.07543945 13.89282227 C-1.08752247 11.81525412 -1.09323211 9.73775303 -1.09765625 7.66015625 C-1.10289307 6.40855713 -1.10812988 5.15695801 -1.11352539 3.86743164 C-1 1 -1 1 0 0 Z " fill="#4D4E4F" transform="translate(317,242)"/>
<path d="M0 0 C3.58899446 4.0112291 5.15739047 7.52874297 5.0625 12.9375 C3.57976299 18.37420235 1.76120382 21.3995708 -3.125 24.3125 C-7.47477315 25.54493573 -10.57731377 25.80465627 -14.875 24.375 C-18.07803177 22.53661532 -20.31344255 20.25395949 -22.3125 17.125 C-23.26875653 12.44996806 -23.2025218 7.79426752 -20.86328125 3.53125 C-15.36822837 -3.54124708 -7.59322622 -4.29182352 0 0 Z " fill="#020203" transform="translate(378.875,69.625)"/>
<path d="M0 0 C4.35151368 3.2163362 6.50706325 6.81863128 8 12 C7.80242028 16.50997195 6.50882742 19.36740375 3.6875 22.875 C-0.43351234 26.13347487 -2.62615835 27.02180701 -7.9375 26.9375 C-13.16351281 26.10766054 -16.19239093 23.38275741 -19.375 19.1875 C-20.84642784 14.03750258 -20.70719826 10.33862529 -18.25 5.6875 C-12.95469557 -0.63744696 -7.91849843 -2.00750664 0 0 Z " fill="#010102" transform="translate(586,68)"/>
<path d="M0 0 C3.96759136 2.27925461 5.93677408 4.87354817 8 9 C8 11.97 8 14.94 8 18 C1.4 18.33 -5.2 18.66 -12 19 C-8.68698041 22.31301959 -7.55956692 22.81389523 -3 23 C-1.64664105 22.02727325 -0.31337396 21.0260734 1 20 C4.25 19.8125 4.25 19.8125 7 20 C7.33 20.66 7.66 21.32 8 22 C7.07038578 23.15224028 6.1309875 24.29659176 5.1875 25.4375 C4.66542969 26.07558594 4.14335937 26.71367187 3.60546875 27.37109375 C1.00529874 30.00922244 -1.77191294 30.19631493 -5.3125 30.3125 C-9.92402889 30.26001105 -12.44850983 29.04413444 -16 26 C-19.47687854 22.043552 -20.37077563 18.47686697 -20.2734375 13.19140625 C-19.70000871 8.59578409 -17.86680784 4.76524575 -14.4921875 1.57421875 C-9.83869175 -1.57500745 -5.28721486 -1.67268252 0 0 Z M-11.4375 8.4375 C-13.0867679 10.6420824 -13.0867679 10.6420824 -13 12 C-8.05 12 -3.1 12 2 12 C0.23148964 8.81925835 0.23148964 8.81925835 -2 6 C-7.31203422 5.36068049 -7.31203422 5.36068049 -11.4375 8.4375 Z " fill="#4E4E51" transform="translate(218,243)"/>
<path d="M0 0 C3.24712869 3.34263247 4.97960252 6.45459303 6 11 C5.71256797 13.00711084 5.38485559 15.00927217 5 17 C1.98017116 17.50682442 -1.04062817 18.00563335 -4.0625 18.5 C-4.91005859 18.64308594 -5.75761719 18.78617188 -6.63085938 18.93359375 C-18.55904691 20.86789443 -18.55904691 20.86789443 -23.8125 19 C-26.94720256 16.13398623 -27.69765754 13.18376596 -28 9 C-27.14997422 5.74156784 -26.37459679 4.37459679 -24 2 C-22.00048828 1.48168945 -22.00048828 1.48168945 -19.5703125 1.11328125 C-18.25353516 0.9131543 -18.25353516 0.9131543 -16.91015625 0.70898438 C-15.53150391 0.51272461 -15.53150391 0.51272461 -14.125 0.3125 C-13.21363281 0.17005859 -12.30226563 0.02761719 -11.36328125 -0.11914062 C-3.51282302 -1.2742959 -3.51282302 -1.2742959 0 0 Z " fill="#2C5FDD" transform="translate(431,207)"/>
<path d="M0 0 C2.31 0 4.62 0 7 0 C7.33 6.93 7.66 13.86 8 21 C10.041875 18.525 10.041875 18.525 12.125 16 C14.4453125 13.1875 14.4453125 13.1875 17 11 C20.3046875 10.6875 20.3046875 10.6875 23 11 C23 15.17561407 21.16647522 16.53957787 18.5 19.6875 C17.6646875 20.68136719 16.829375 21.67523438 15.96875 22.69921875 C15.3190625 23.45847656 14.669375 24.21773437 14 25 C16.09710919 29.86252791 19.705049 33.542534 23.1015625 37.5390625 C25 40 25 40 25 42 C20.07532197 42.87940679 20.07532197 42.87940679 17 42 C13.86488105 38.98318743 11.45380111 35.57973479 9 32 C8.67 31.67 8.34 31.34 8 31 C7.67 34.63 7.34 38.26 7 42 C4.69 42 2.38 42 0 42 C0 28.14 0 14.28 0 0 Z " fill="#4E4E50" transform="translate(172,231)"/>
<path d="M0 0 C2.81992717 1.82120296 4.50345478 3.00690956 6 6 C6.08471364 7.81341842 6.10721083 9.62994161 6.09765625 11.4453125 C6.09443359 12.52167969 6.09121094 13.59804688 6.08789062 14.70703125 C6.07951172 15.83496094 6.07113281 16.96289062 6.0625 18.125 C6.05798828 19.26066406 6.05347656 20.39632813 6.04882812 21.56640625 C6.03701615 24.37765638 6.02054507 27.1888023 6 30 C4.35 30 2.7 30 1 30 C1 29.34 1 28.68 1 28 C0.360625 28.33 -0.27875 28.66 -0.9375 29 C-5.0293871 30.3361264 -8.73481019 30.64905062 -13 30 C-15.87029869 28.20606332 -17.49131638 27.01736724 -19 24 C-19.41465022 20.268148 -19.297997 18.48562474 -17.3125 15.25 C-13.4630496 11.5045888 -10.4311505 10.89965666 -5.1875 10.875 C-3.79140897 10.90688462 -2.39538254 10.94527912 -1 11 C-1.33 9.68 -1.66 8.36 -2 7 C-4.64 6.67 -7.28 6.34 -10 6 C-10.33 6.99 -10.66 7.98 -11 9 C-13.31 9 -15.62 9 -18 9 C-17.70540991 5.46491897 -17.25118587 4.23796556 -14.625 1.75 C-9.69564355 -1.53623763 -5.59726517 -1.29620878 0 0 Z M-12 19 C-12 20.32 -12 21.64 -12 23 C-7.17026575 24.1203061 -7.17026575 24.1203061 -2.5625 22.8125 C-0.56470692 20.89389731 -0.56470692 20.89389731 -1 17 C-6.7974423 16.75571657 -6.7974423 16.75571657 -12 19 Z " fill="#4E4E4F" transform="translate(159,243)"/>
<path d="M0 0 C8.91 0 17.82 0 27 0 C27 1.98 27 3.96 27 6 C20.4 6 13.8 6 7 6 C7 9.63 7 13.26 7 17 C12.28 17 17.56 17 23 17 C23 19.31 23 21.62 23 24 C17.72 24 12.44 24 7 24 C7 29.94 7 35.88 7 42 C4.69 42 2.38 42 0 42 C0 28.14 0 14.28 0 0 Z " fill="#4E4E4E" transform="translate(233,231)"/>
<path d="M0 0 C-0.66 0 -1.32 0 -2 0 C-1.34 1.32 -0.68 2.64 0 4 C-0.99 4 -1.98 4 -3 4 C-3.66 4.99 -4.32 5.98 -5 7 C-5 5.68 -5 4.36 -5 3 C-5.99 3 -6.98 3 -8 3 C-8 3.99 -8 4.98 -8 6 C-8.66 6 -9.32 6 -10 6 C-9.67 6.66 -9.34 7.32 -9 8 C-8.34 7.67 -7.68 7.34 -7 7 C-6.731875 8.11375 -6.46375 9.2275 -6.1875 10.375 C-5.34190981 14.21840951 -5.34190981 14.21840951 -2 16 C-3.63195312 16.45439453 -3.63195312 16.45439453 -5.296875 16.91796875 C-6.78176964 17.33931883 -8.26610695 17.76263601 -9.75 18.1875 C-10.52335693 18.40873535 -11.29671387 18.6299707 -12.09350586 18.85791016 C-16.75883445 20.23009407 -21.13228574 21.84472209 -25.5625 23.875 C-30.60360915 26.10699453 -33.67139947 26.33215013 -39 25 C-38.71259058 23.62410383 -38.41982258 22.24932678 -38.125 20.875 C-37.96257813 20.10929687 -37.80015625 19.34359375 -37.6328125 18.5546875 C-37.42398438 17.71164063 -37.21515625 16.86859375 -37 16 C-36.80664062 14.98421875 -36.61328125 13.9684375 -36.4140625 12.921875 C-34.40603108 8.77268301 -31.366162 7.86509463 -27.25 6.375 C-26.49372314 6.08431641 -25.73744629 5.79363281 -24.95825195 5.49414062 C-5.24117229 -1.92895445 -5.24117229 -1.92895445 0 0 Z " fill="#497EEC" transform="translate(572,2)"/>
<path d="M0 0 C3.89968373 2.24727537 6.38791743 4.85234517 8.5 8.8125 C9.39949986 14.54681163 8.9185508 19.16289841 6.3125 24.375 C2.61022706 28.57758009 -0.39545437 29.82171715 -5.9375 30.4375 C-10.57034679 30.23337074 -13.28838366 28.76551806 -17 26 C-20.82016805 20.94751968 -20.82477983 15.09068185 -20 9 C-15.67935621 0.35871242 -9.18554346 -2.46775794 0 0 Z M-11.3125 7.625 C-13.41220402 10.58013899 -13.92746152 12.37307621 -14 16 C-12.8135525 19.24711946 -11.88563888 21.32101019 -9.125 23.4375 C-6.35625147 24.17040402 -4.70968737 23.90322912 -2 23 C-0.10649669 22.02478463 -0.10649669 22.02478463 1 20 C2.28566203 14.3916343 2.28566203 14.3916343 0.6875 9.0625 C-1.50685607 6.38050925 -2.42259318 6.06276161 -5.875 5.6875 C-9.04045443 5.74592782 -9.04045443 5.74592782 -11.3125 7.625 Z " fill="#4D4E50" transform="translate(282,243)"/>
<path d="M0 0 C2.8125 -0.3125 2.8125 -0.3125 6 0 C8.63900018 3.60596208 10.08703713 7.57957308 11.625 11.75 C12.82328536 15.66026569 12.82328536 15.66026569 15 19 C15.20681396 18.45996338 15.41362793 17.91992676 15.62670898 17.36352539 C16.56088784 14.92878405 17.49913747 12.49563181 18.4375 10.0625 C18.76298828 9.21236328 19.08847656 8.36222656 19.42382812 7.48632812 C19.73642578 6.67744141 20.04902344 5.86855469 20.37109375 5.03515625 C20.65911865 4.2862915 20.94714355 3.53742676 21.24389648 2.76586914 C22 1 22 1 23 0 C24.99958364 -0.04080783 27.00045254 -0.04254356 29 0 C28.10958777 6.74260968 25.5374146 12.73508408 23.01733398 18.99536133 C22.19014076 21.05592179 21.37878213 23.12224868 20.56835938 25.18945312 C20.04001221 26.51340023 19.51074568 27.83698089 18.98046875 29.16015625 C18.50504639 30.35261963 18.02962402 31.54508301 17.53979492 32.77368164 C15.99805603 36.00407319 14.48315732 38.42567419 12 41 C8.25 41.8125 8.25 41.8125 5 42 C5 40.02 5 38.04 5 36 C5.639375 35.79375 6.27875 35.5875 6.9375 35.375 C9.27950372 34.13729209 9.27950372 34.13729209 9.75952148 31.28588867 C10.03512649 27.52003302 9.38072457 25.50668664 7.91015625 22.05078125 C7.45576172 20.95572266 7.00136719 19.86066406 6.53320312 18.73242188 C5.80520508 17.03956055 5.80520508 17.03956055 5.0625 15.3125 C4.11151469 13.06043439 3.16469247 10.80660489 2.22265625 8.55078125 C1.79734619 7.55731689 1.37203613 6.56385254 0.93383789 5.5402832 C0 3 0 3 0 0 Z " fill="#4C4E52" transform="translate(44,242)"/>
<path d="M0 0 C0.66 0.33 1.32 0.66 2 1 C1.690625 1.763125 1.38125 2.52625 1.0625 3.3125 C0.32106407 5.18789677 -0.36228217 7.08684652 -1 9 C-1.66 9.66 -2.32 10.32 -3 11 C-2.01 11.99 -1.02 12.98 0 14 C-0.99 15.32 -1.98 16.64 -3 18 C-2.01 17.34 -1.02 16.68 0 16 C0 16.66 0 17.32 0 18 C0.66 18.33 1.32 18.66 2 19 C-22.83870968 32 -22.83870968 32 -30 32 C-29.67 30.906875 -29.34 29.81375 -29 28.6875 C-27.86913351 25.15421116 -27.86913351 25.15421116 -28 22 C-27.6937566 20.66018514 -27.36548445 19.32488113 -27 18 C-26.34 18 -25.68 18 -25 18 C-24.82855469 17.09507812 -24.65710938 16.19015625 -24.48046875 15.2578125 C-22.4216225 10.72726429 -19.72589232 9.80909258 -15.3125 7.875 C-13.91184438 7.22854356 -12.51209634 6.58011693 -11.11328125 5.9296875 C-10.08581787 5.46320801 -10.08581787 5.46320801 -9.03759766 4.98730469 C-6.98391629 3.99220674 -5.05827805 2.87438627 -3.10546875 1.6953125 C-1.56826172 0.85613281 -1.56826172 0.85613281 0 0 Z " fill="#3B6FE3" transform="translate(504,181)"/>
<path d="M0 0 C2.97964239 2.08574968 3.79654283 3.25399039 4.75 6.75 C4.87375 7.86375 4.87375 7.86375 5 9 C2.69 9 0.38 9 -2 9 C-2.33 8.34 -2.66 7.68 -3 7 C-4.98 7 -6.96 7 -9 7 C-9.33 7.99 -9.66 8.98 -10 10 C-9.25234375 10.17015625 -8.5046875 10.3403125 -7.734375 10.515625 C-6.74953125 10.75796875 -5.7646875 11.0003125 -4.75 11.25 C-3.28820312 11.59804687 -3.28820312 11.59804687 -1.796875 11.953125 C1.38910721 13.14564348 2.91361635 14.32864898 5 17 C5.72771233 19.73962288 5.57971577 22.23214139 5 25 C3.12984906 27.43119623 1.71861655 28.64069173 -1 30 C-5.77080489 30.51507805 -9.74036502 30.64267091 -14.0625 28.4375 C-16.53572471 25.32602376 -16.77407627 22.91601134 -17 19 C-14.1875 18.75 -14.1875 18.75 -11 19 C-9.125 21 -9.125 21 -8 23 C-6.02 22.67 -4.04 22.34 -2 22 C-1.67 21.01 -1.34 20.02 -1 19 C-2.10408203 18.76216797 -2.10408203 18.76216797 -3.23046875 18.51953125 C-13.82719547 15.98583569 -13.82719547 15.98583569 -17 11 C-17.07155548 6.9213378 -16.6613188 4.83767048 -14.125 1.625 C-9.65320123 -1.79461082 -5.2278586 -1.21951855 0 0 Z " fill="#4D4E51" transform="translate(380,243)"/>
<path d="M0 0 C1.67293936 0.30027117 3.33985384 0.63557767 5 1 C7.08896425 1 9.05372935 0.76726073 11.125 0.5 C13.043125 0.2525 13.043125 0.2525 15 0 C15 2.31 15 4.62 15 7 C13.865625 7.28875 12.73125 7.5775 11.5625 7.875 C10.386875 8.24625 9.21125 8.6175 8 9 C6.82530556 11.34938888 6.79965111 12.95073205 6.68359375 15.5703125 C6.64169922 16.46621094 6.59980469 17.36210937 6.55664062 18.28515625 C6.51732422 19.22230469 6.47800781 20.15945313 6.4375 21.125 C6.37272461 22.54232422 6.37272461 22.54232422 6.30664062 23.98828125 C6.20040928 26.32537092 6.09836824 28.6625683 6 31 C3.69 31 1.38 31 -1 31 C-1.02465622 26.74585377 -1.04283899 22.49174502 -1.05493164 18.23754883 C-1.05997101 16.78929927 -1.06680253 15.34105483 -1.07543945 13.89282227 C-1.08752247 11.81525412 -1.09323211 9.73775303 -1.09765625 7.66015625 C-1.10289307 6.40855713 -1.10812988 5.15695801 -1.11352539 3.86743164 C-1 1 -1 1 0 0 Z " fill="#4E4F50" transform="translate(297,242)"/>
<path d="M0 0 C0.66 0.33 1.32 0.66 2 1 C1.50072998 1.4940332 1.00145996 1.98806641 0.48706055 2.49707031 C-1.78210327 4.74539676 -4.04733095 6.99764921 -6.3125 9.25 C-7.09818359 10.02730469 -7.88386719 10.80460937 -8.69335938 11.60546875 C-9.45068359 12.35957031 -10.20800781 13.11367187 -10.98828125 13.890625 C-11.68477783 14.58188477 -12.38127441 15.27314453 -13.09887695 15.98535156 C-14.90379187 17.89804681 -16.46941668 19.86430235 -18 22 C-18.66 21.67 -19.32 21.34 -20 21 C-17.67614385 18.32495016 -15.34033831 15.66064009 -13 13 C-12.23171875 12.12472656 -11.4634375 11.24945313 -10.671875 10.34765625 C-9.50398438 9.03087891 -9.50398438 9.03087891 -8.3125 7.6875 C-7.58675781 6.86636719 -6.86101562 6.04523438 -6.11328125 5.19921875 C-4.18925315 3.19694921 -2.27230025 1.5849679 0 0 Z " fill="#3563D2" transform="translate(453,66)"/>
<path d="M0 0 C-0.66 0 -1.32 0 -2 0 C-1.34 1.32 -0.68 2.64 0 4 C-0.99 4 -1.98 4 -3 4 C-3.33 3.34 -3.66 2.68 -4 2 C-6.01669827 0.86649466 -6.01669827 0.86649466 -8 0 C-4.94736336 -0.98120464 -3.05263664 -0.98120464 0 0 Z " fill="#4577E1" transform="translate(572,2)"/>
</svg>
