<svg version="1.0" xmlns="http://www.w3.org/2000/svg"
 width="1024.000000pt" height="1024.000000pt" viewBox="0 0 1024.000000 1024.000000"
 preserveAspectRatio="xMidYMid meet">

<g transform="translate(0.000000,1024.000000) scale(0.100000,-0.100000)"
fill="#000000" stroke="none">
<path d="M2610 8012 c-45 -46 -40 -75 33 -211 322 -590 537 -1208 602 -1731
18 -144 20 -479 5 -658 -59 -689 -297 -1317 -642 -1699 -55 -60 -65 -91 -48
-134 32 -77 91 -78 210 -5 329 204 794 374 1220 447 122 21 166 23 460 24 339
0 391 -5 680 -56 248 -44 543 -126 761 -210 74 -28 146 -53 160 -56 37 -7 84
20 99 57 17 41 -4 178 -62 404 -184 725 -604 1516 -1152 2170 -541 645 -1266
1213 -2034 1593 -207 102 -246 111 -292 65z m434 -358 c315 -173 669 -414 966
-658 840 -690 1492 -1625 1817 -2604 49 -149 113 -406 101 -411 -5 -1 -48 11
-96 27 -281 98 -619 175 -942 214 -253 31 -641 31 -861 0 -313 -44 -605 -125
-894 -247 -60 -26 -116 -49 -124 -53 -10 -4 -8 5 7 29 33 55 136 266 175 360
200 485 304 1171 256 1689 -44 477 -234 1100 -495 1622 -24 48 -44 90 -44 93
0 10 15 3 134 -61z"/>
<path d="M4488 7314 c-34 -18 -48 -43 -48 -86 0 -45 11 -58 102 -120 258 -177
615 -508 801 -743 419 -527 861 -1426 1118 -2275 28 -90 58 -173 67 -183 30
-34 59 -38 144 -22 44 8 124 18 177 21 118 7 213 -16 425 -100 179 -72 222
-72 251 -2 17 41 13 59 -66 261 -239 616 -555 1206 -873 1630 -51 69 -180 230
-196 245 -3 3 -30 32 -59 65 -574 632 -1141 1093 -1551 1260 -68 27 -211 65
-245 65 -11 -1 -32 -7 -47 -16z m1052 -798 c149 -129 577 -558 704 -706 315
-367 625 -874 873 -1430 70 -157 143 -335 143 -349 0 -5 -48 7 -107 27 -104
35 -114 36 -253 36 -80 1 -165 -1 -189 -4 l-44 -4 -52 164 c-214 677 -543
1383 -902 1935 -47 72 -104 155 -126 185 -61 80 -221 272 -246 294 -11 11 -21
23 -21 28 0 11 55 -33 220 -176z"/>
<path d="M8080 3632 c-47 -2 -699 -44 -1355 -87 -209 -14 -456 -29 -550 -35
-93 -6 -264 -17 -380 -25 -115 -8 -291 -19 -390 -25 -99 -6 -349 -22 -555 -35
-206 -14 -586 -38 -845 -55 -258 -17 -607 -39 -775 -50 -168 -11 -451 -29
-630 -40 -483 -29 -478 -28 -500 -96 -13 -39 -5 -60 123 -300 l65 -121 -166
-114 c-269 -185 -366 -239 -429 -239 -14 0 -37 -13 -54 -29 -41 -41 -40 -91 2
-133 29 -29 33 -30 95 -25 87 7 197 60 378 184 305 210 381 253 446 253 48 0
100 -32 259 -159 215 -171 296 -220 426 -260 108 -34 213 -38 315 -12 119 29
202 75 377 205 201 151 243 171 353 171 108 0 155 -22 295 -135 159 -129 202
-160 279 -199 91 -46 168 -64 271 -64 154 1 284 63 475 224 178 150 257 185
393 176 101 -7 160 -35 290 -141 265 -215 368 -266 545 -266 161 0 281 54 490
222 81 64 176 132 212 150 60 30 72 33 165 33 93 0 105 -2 166 -32 38 -19 114
-74 176 -127 61 -52 133 -111 159 -132 112 -86 294 -143 363 -114 36 15 61 55
61 98 0 44 -58 92 -110 92 -84 0 -145 34 -310 175 -210 180 -301 227 -466 241
-162 15 -304 -45 -524 -221 -211 -169 -307 -209 -442 -185 -55 10 -175 57
-166 65 2 2 59 31 128 66 250 125 637 344 800 453 213 142 640 463 665 500 20
28 18 86 -3 113 -20 27 -61 39 -122 35z m-280 -219 c0 -9 -274 -205 -396 -285
-230 -150 -745 -429 -916 -497 l-56 -23 -69 53 c-184 142 -385 181 -574 113
-92 -33 -171 -84 -324 -209 -66 -54 -149 -112 -185 -129 -58 -27 -75 -31 -155
-31 -133 0 -185 27 -424 222 -210 171 -383 216 -576 151 -81 -28 -154 -73
-320 -198 -77 -58 -169 -119 -205 -135 -60 -28 -74 -30 -175 -30 -106 0 -113
1 -187 37 -98 46 -143 77 -293 199 -217 174 -307 218 -424 204 l-57 -7 -56
104 c-30 57 -52 106 -49 109 6 7 241 24 791 59 173 11 560 36 860 55 300 19
718 46 930 60 212 13 493 32 625 40 132 9 449 29 705 45 609 40 1205 79 1355
89 172 12 175 12 175 4z"/>
</g>
</svg>
