<?xml version="1.0" encoding="UTF-8"?>
<svg id="Layer_1" xmlns="http://www.w3.org/2000/svg" viewBox="0 0 64.05646 56.09162"><title>Ericsson logo</title><path d="M22.89539,14.92337a3.78649,3.78649,0,1,1-2.6048-7.1109L41.04425.2313a3.744,3.744,0,0,1,4.86621,2.256,3.64463,3.64463,0,0,1-2.2533,4.73932Z" fill="#00285e"/><path d="M22.89539,26.17478a3.78643,3.78643,0,1,1-2.6048-7.11078l20.75366-7.57251a3.73082,3.73082,0,0,1,4.86621,2.248,3.63723,3.63723,0,0,1-2.2533,4.73611Z" fill="#00285e"/><path d="M22.89539,37.42429a3.78631,3.78631,0,1,1-2.6048-7.1105L41.04425,22.7421a3.72937,3.72937,0,0,1,4.86621,2.2457,3.63853,3.63853,0,0,1-2.2533,4.7373Z" fill="#00285e"/><polygon points="0 46.781 6.882 46.781 6.882 48.674 2.379 48.674 2.379 50.214 6.763 50.214 6.763 52.224 2.379 52.224 2.379 53.882 6.999 53.882 6.999 55.902 0 55.902 0 46.781" fill="#00285e"/><rect x="17.79358" y="46.78119" width="2.49701" height="9.12119" fill="#00285e"/><path d="M29.3053,47.01639,29.187,48.90928c-2.0152-1.05908-5.10175-.7063-5.10175,2.256-.11835,3.0795,3.08655,3.55029,5.22009,2.4812l.1178,2.01071c-3.6767,1.069-7.95325,0-7.95325-4.49191C21.46985,46.89878,25.8642,45.7118,29.3053,47.01639Z" fill="#00285e"/><path d="M36.65839,46.89878l-.1178,1.89291c-1.30774-.7063-3.67682-.7063-3.67682.35321,0,1.65729,4.26648.48029,4.26648,3.91318,0,3.315-4.0304,3.43271-6.64569,2.59912l.12793-2.01071c1.65161.716,4.03076.95139,4.03076-.353,0-1.53992-4.27649-.70621-4.27649-3.91351C30.36676,46.66318,33.68958,45.9473,36.65839,46.89878Z" fill="#00285e"/><path d="M44.1286,46.89878l-.11584,1.89291c-1.30646-.7063-3.67957-.7063-3.67957.35321,0,1.65729,4.26691.48029,4.26691,3.91318,0,3.315-4.02722,3.43271-6.63409,2.59912l.11786-2.01071c1.66162.716,4.03113.95139,4.03113-.353,0-1.53992-4.26678-.70621-4.26678-3.91351C37.84821,46.66318,41.16016,45.9473,44.1286,46.89878Z" fill="#00285e"/><polygon points="55.643 46.781 58.719 46.781 61.687 52.587 61.687 46.781 64.056 46.781 64.056 55.902 61.096 55.902 57.892 49.861 57.892 55.902 55.643 55.902 55.643 46.781" fill="#00285e"/><path d="M47.924,51.2829c0,1.42209.5993,2.96188,1.89771,2.96188,1.42633,0,2.01361-1.53979,2.01361-2.96188,0-1.18661-.58728-2.96191-2.01361-2.96191C48.52325,48.321,47.924,49.86069,47.924,51.2829Zm1.89771-4.7373c2.61694,0,4.63049,1.42218,4.63049,4.7373,0,3.1973-2.01355,4.73709-4.63049,4.73709-2.489,0-4.5025-1.53979-4.5025-4.73709C45.31915,47.96778,47.3327,46.5456,49.82166,46.5456Z" fill="#00285e"/><path d="M8.77875,46.78119h4.39441c1.29761,0,2.9588.4707,2.9588,2.36371a2.1819,2.1819,0,0,1-1.66119,2.25558,1.28353,1.28353,0,0,1,.83539.82391c0,.11768,1.30762,3.56027,1.30762,3.678H13.9989l-.944-2.8443a.90869.90869,0,0,0-.83539-.5983c-.47192,0-1.06189-.11771-1.06189,0v3.4426H8.77875Zm2.37885,3.7858H12.4552A1.08689,1.08689,0,0,0,13.645,49.50757c0-.5983-.4718-.95148-1.18976-.95148H11.15759Z" fill="#00285e"/></svg>