<svg height="511pt" viewBox="-5 1 511 511.99966" width="511pt" xmlns="http://www.w3.org/2000/svg"><path d="m245.5 22c-135.308594 0-245 109.6875-245 245 0 78.3125 36.742188 148.039062 93.929688 192.890625l19.75 13.96875c30.035156 19.105469 64.511718 31.847656 101.535156 36.335937l24.980468 1.742188c1.597657.03125 3.199219.0625 4.804688.0625 11.335938 0 22.492188-.789062 33.417969-2.277344l24.851562-4.714844c107.175781-26.148437 186.730469-122.777343 186.730469-238.007812 0-135.3125-109.691406-245-245-245zm0 0" fill="#162680"/><path d="m202.390625 246.457031-35.980469 42.878907c-.421875.5-.816406 1.015624-1.199218 1.535156 11.601562-8.167969 27.667968-7.882813 39.050781 1.667968 11.609375 9.746094 14.570312 25.964844 8.042969 38.945313.652343-.652344 1.285156-1.332031 1.890624-2.050781l35.980469-42.882813zm0 0" fill="#4374d3"/><path d="m203.273438 291.78125 7.722656-9.207031c6.601562-7.867188 17.265625-10.28125 26.34375-6.792969l-34.949219-29.328125-35.980469 42.882813c-.421875.5-.816406 1.015624-1.203125 1.53125 11.277344-7.933594 26.753907-7.859376 38.066407.914062zm0 0" fill="#3957c9"/><path d="m342.777344 127.6875c-93.183594-78.195312-181.558594-126.289062-197.394532-107.417969-15.835937 18.867188 46.867188 97.554688 140.050782 175.75 93.183594 78.195313 181.558594 126.289063 197.394531 107.421875 15.832031-18.871094-46.871094-97.558594-140.050781-175.753906zm0 0" fill="#3957c9"/><path d="m145.375 20.253906c.257812-.308594.554688-.578125.835938-.867187-.296876.269531-.578126.558593-.835938.867187zm0 0" fill="#1d319b"/><path d="m342.777344 127.667969c-17.367188-14.570313-34.566406-28.097657-51.160156-40.339844 33.804687 35.707031 50.09375 71.507813 37.210937 86.863281-12.882813 15.351563-50.972656 5.523438-92.007813-21.566406 14.941407 14.214844 31.25 28.808594 48.617188 43.382812 93.1875 78.191407 181.570312 126.285157 197.402344 107.414063 15.835937-18.871094-46.871094-97.558594-140.0625-175.753906zm0 0" fill="#1d319b"/><path d="m303.765625 505.007812-94.648437-169.902343c-3.222657-5.792969-10.53125-7.867188-16.324219-4.644531-5.789063 3.226562-7.867188 10.53125-4.640625 16.320312l90.765625 162.941406c8.429687-1.152344 16.71875-2.730468 24.847656-4.714844zm0 0" fill="#b9e9fd"/><path d="m237.03125 409.46875c4.265625-2.371094 9.210938-2.347656 13.300781-.382812l-41.214843-73.984376c-3.222657-5.789062-10.53125-7.863281-16.324219-4.644531-5.789063 3.226563-7.867188 10.535157-4.640625 16.324219l41.496094 74.492188c.277343-4.773438 2.898437-9.304688 7.382812-11.804688zm0 0" fill="#83d3fc"/><path d="m177.09375 330.355469c-5.847656-3.121094-13.117188-.90625-16.234375 4.941406l-66.429687 124.589844c6.339843 4.972656 12.929687 9.632812 19.75 13.972656l67.859374-127.269531c3.117188-5.851563.902344-13.117188-4.945312-16.234375zm0 0" fill="#e0f9fe"/><path d="m177.09375 330.355469c-5.847656-3.121094-13.117188-.90625-16.234375 4.941406l-32.164063 60.324219c4.007813-2.886719 9.457032-3.445313 14.113282-.964844 4.652344 2.484375 7.226562 7.324219 7.0625 12.261719l32.164062-60.328125c3.121094-5.851563.90625-13.117188-4.941406-16.234375zm0 0" fill="#b9e9fd"/><path d="m246.609375 450.074219h-34c-4.96875 0-9-4.027344-9-9 0-4.96875 4.03125-9 9-9h34c4.96875 0 9 4.03125 9 9 0 4.972656-4.03125 9-9 9zm0 0" fill="#83d3fc"/><path d="m201.90625 450.074219h-72.902344c-4.96875 0-9-4.027344-9-9 0-4.96875 4.03125-9 9-9h72.902344c4.972656 0 9 4.03125 9 9 0 4.972656-4.027344 9-9 9zm0 0" fill="#b9e9fd"/><path d="m482.832031 319.621094c-3.675781 0-7.371093-1.242188-10.40625-3.789063-6.234375-5.234375-7.535156-14.160156-3.394531-20.890625-.414062-3.492187-4.050781-18.679687-34.808594-55.367187-25.566406-30.496094-61.742187-65.832031-101.859375-99.496094-40.117187-33.660156-81.195312-63.152344-115.667969-83.03125-41.472656-23.917969-57.058593-24.851563-60.574218-24.667969-5.910156 5.25-14.925782 5.515625-21.160156.285156-6.851563-5.75-7.746094-15.96875-1.996094-22.824218 13.914062-16.578125 42.460937-12.292969 89.847656 13.492187 38.203125 20.789063 84.507812 53.4375 130.378906 91.925781 45.871094 38.492188 86.0625 78.421876 113.171875 112.4375 33.621094 42.1875 42.800781 69.558594 28.886719 86.140626-3.203125 3.816406-7.796875 5.785156-12.417969 5.785156zm0 0" fill="#4374d3"/><path d="m285.4375 196.003906c-78.292969-65.691406-135.058594-131.726562-141.820312-162.351562-24.265626 66.691406-2.375 151.035156 58.136718 214.476562l46.886719 39.339844c72.980469 48.574219 159.84375 55.488281 221.3125 20.011719-31.335937-1.34375-106.226563-45.78125-184.515625-111.476563zm0 0" fill="#83d3fc"/><path d="m276.558594 188.472656c-73.675782-63.15625-126.4375-125.367187-132.941406-154.820312-24.265626 66.691406-2.375 151.035156 58.136718 214.476562l33.308594 27.949219c-3.011719-12.992187 13.164062-46.300781 41.496094-87.605469zm0 0" fill="#61b6ff"/><path d="m180.246094 105.691406c-1.511719-4.734375 1.101562-9.796875 5.835937-11.308594l238.621094-76.183593c4.738281-1.515625 9.800781 1.097656 11.3125 5.835937 1.511719 4.734375-1.101563 9.796875-5.835937 11.308594l-238.621094 76.183594c-4.761719 1.519531-9.808594-1.125-11.3125-5.835938zm0 0" fill="#face7a"/><path d="m282.773438 69.703125c0-2.671875.964843-5.117187 2.566406-7.011719l-99.257813 31.691406c-4.734375 1.511719-7.347656 6.574219-5.835937 11.308594 1.503906 4.710938 6.550781 7.355469 11.3125 5.835938l98.675781-31.503906c-4.332031-1.433594-7.460937-5.507813-7.460937-10.320313zm0 0" fill="#fbb362"/><path d="m416.21875 223.898438c-4.960938-.285157-8.757812-4.535157-8.472656-9.5l10.710937-188.140626c.28125-4.960937 4.539063-8.726562 9.496094-8.472656 4.960937.285156 8.757813 4.535156 8.472656 9.5l-10.710937 188.136719c-.277344 4.910156-4.464844 8.746094-9.496094 8.476563zm0 0" fill="#face7a"/><path d="m422.085938 135.972656c-4.125 0-7.710938-2.296875-9.554688-5.675781l-4.785156 84.101563c-.285156 4.964843 3.507812 9.214843 8.472656 9.5 5.03125.269531 9.21875-3.566407 9.496094-8.476563l4.75-83.394531c-1.996094 2.410156-5.007813 3.945312-8.378906 3.945312zm0 0" fill="#fbb362"/><path d="m320.832031 235.585938c-4.457031-2.203126-6.285156-7.601563-4.082031-12.058594l94.3125-190.839844c2.199219-4.453125 7.597656-6.285156 12.054688-4.082031 4.457031 2.203125 6.285156 7.601562 4.082031 12.058593l-94.3125 190.839844c-2.191407 4.433594-7.578125 6.292969-12.054688 4.082032zm0 0" fill="#face7a"/><path d="m371.976562 142.972656c-5.507812 0-10.046874-4.097656-10.765624-9.410156l-44.460938 89.964844c-2.203125 4.457031-.375 9.855468 4.082031 12.058594 4.476563 2.214843 9.863281.351562 12.054688-4.082032l44.457031-89.957031c-1.585938.902344-3.414062 1.425781-5.367188 1.425781zm0 0" fill="#fbb362"/><path d="m275.023438 208.417969c-42.164063-35.382813-177.605469-156.214844-142.058594-198.578125 5.753906-6.851563 15.96875-7.746094 22.824218-1.996094 6.234376 5.230469 7.539063 14.160156 3.394532 20.886719.414062 3.496093 4.054687 18.679687 34.808594 55.371093 25.566406 30.496094 61.742187 65.832032 101.859374 99.496094 40.117188 33.660156 81.195313 63.148438 115.671876 83.03125 41.464843 23.917969 57.054687 24.878906 60.570312 24.667969 5.910156-5.25 14.925781-5.515625 21.160156-.285156 6.855469 5.75 7.75 15.96875 1.996094 22.824219-35.546875 42.363281-177.515625-69.582032-220.226562-105.417969zm0 0" fill="#61b6ff"/><path d="m442.691406 7.914062c-9.75-8.183593-24.285156-6.910156-32.46875 2.839844s-6.910156 24.285156 2.839844 32.46875 24.285156 6.910156 32.46875-2.839844 6.910156-24.285156-2.839844-32.46875zm0 0" fill="#fc7acd"/><path d="m448.289062 14.863281c1.398438 4.597657.53125 9.785157-2.789062 13.738281-5.21875 6.21875-14.492188 7.03125-20.710938 1.8125s-7.027343-14.492187-1.8125-20.710937c3.875-4.613281 9.980469-6.242187 15.414063-4.644531-9.359375-4.816406-21.125-2.726563-28.175781 5.675781-8.179688 9.75-6.910156 24.289063 2.84375 32.472656 9.75 8.179688 24.289062 6.910157 32.46875-2.839843 6.1875-7.375 6.960937-17.476563 2.761718-25.503907zm0 0" fill="#f948b4"/><path d="m202.671875 341.292969c-1.441406-6.46875-7.855469-10.546875-14.324219-9.105469s-10.542968 7.855469-9.101562 14.324219l36.46875 163.683593c8.207031.992188 16.539062 1.582032 24.976562 1.742188zm0 0" fill="#e0f9fe"/><path d="m207.460938 415.222656c4.816406-1.074218 9.605468.695313 12.617187 4.1875l-17.40625-78.117187c-1.441406-6.46875-7.855469-10.546875-14.324219-9.105469s-10.542968 7.855469-9.101562 14.324219l18.101562 81.25c.035156-5.898438 4.113282-11.203125 10.113282-12.539063zm0 0" fill="#b9e9fd"/><path d="m206.042969 290.621094c-14.023438-11.769532-34.9375-9.941406-46.707031 4.085937-11.769532 14.027344-9.941407 34.9375 4.085937 46.710938 14.023437 11.769531 34.9375 9.941406 46.707031-4.085938 11.769532-14.027343 9.941406-34.9375-4.085937-46.710937zm0 0" fill="#5294e5"/><path d="m203.003906 335.269531c-.175781-2.226562-1.652344-4.121093-3.796875-4.738281-22.949219-6.617188-25.4375-24.054688-25.332031-31.921875.03125-2.171875-1.265625-4.144531-3.28125-4.953125-2.742188-1.101562-4.382812-2.714844-5.328125-4.480469-2.144531 1.558594-4.136719 3.398438-5.917969 5.519531-11.769531 14.027344-9.941406 34.9375 4.085938 46.710938 12.429687 10.429688 30.261718 10.171875 42.351562.21875-1.953125-1.976562-2.621094-4.386719-2.78125-6.355469zm0 0" fill="#4374d3"/><path d="m184.710938 358.144531c-9.566407 0-19.179688-3.230469-27.0625-9.84375-17.804688-14.941406-20.136719-41.585937-5.199219-59.390625 14.945312-17.804687 41.585937-20.136718 59.390625-5.195312 17.808594 14.941406 20.136718 41.585937 5.195312 59.390625-8.324218 9.921875-20.285156 15.039062-32.324218 15.039062zm.050781-66.28125c-6.898438 0-13.75 2.933594-18.523438 8.617188-8.558593 10.203125-7.222656 25.46875 2.980469 34.03125s25.46875 7.226562 34.027344-2.976563c8.5625-10.203125 7.226562-25.46875-2.976563-34.03125-4.515625-3.789062-10.027343-5.640625-15.507812-5.640625zm0 0" fill="#61b6ff"/><g fill="#5294e5"><path d="m215.050781 345.292969c-9.585937-.839844-11.742187-6.242188-12.046875-10.023438-.070312-.921875-.378906-1.78125-.855468-2.523437-8.71875 9.078125-23.148438 9.972656-32.929688 1.765625-10.203125-8.5625-11.539062-23.828125-2.980469-34.03125 1.851563-2.203125 4.019531-3.992188 6.378907-5.359375-.539063-.628906-1.21875-1.144532-2.023438-1.464844-9.96875-4-5.472656-14.796875-5.390625-14.996094-4.75 2.476563-9.101563 5.898438-12.753906 10.25-14.9375 17.808594-12.609375 44.449219 5.195312 59.390625 7.886719 6.613281 17.5 9.84375 27.0625 9.84375 11.117188 0 22.160157-4.371093 30.34375-12.851562zm0 0"/><path d="m289.660156 178.359375c-37.636718-32.070313-71.425781-65.335937-95.667968-94.257813-30.757813-36.691406-34.394532-51.875-34.808594-55.371093 4.144531-6.726563 2.839844-15.65625-3.394532-20.886719-6.855468-5.75-17.070312-4.859375-22.824218 1.996094-33.738282 40.210937 86.5625 151.109375 134.9375 192.535156-3.582032-13.523438 7.878906-26.25 21.757812-24.015625zm0 0"/></g></svg>