<svg height="512pt" viewBox="-11 0 512 512" width="512pt" xmlns="http://www.w3.org/2000/svg"><path d="m437.574219 418.472656c32.832031-41.6875 52.425781-94.292968 52.425781-151.472656 0-135.308594-109.691406-245-245-245s-245 109.6875-245 245c0 57.183594 19.59375 109.785156 52.425781 151.472656zm0 0" fill="#162680"/><path d="m434.550781 413.488281c-27.125-23.183593-60.039062-17.160156-105.445312-30.738281-11.972657-3.578125-20.332031-8.375-26.160157-13.128906l-2.101562 3.800781c-25.179688 45.46875-90.550781 45.46875-115.730469 0l-.902343-1.632813c-5.613282 4.015626-13.167969 7.925782-23.316407 10.960938-45.40625 13.578125-78.320312 7.554688-105.445312 30.738281-1.34375 1.152344-2.605469 2.492188-3.796875 3.984375 44.832031 57.523438 114.765625 94.527344 193.347656 94.527344s148.515625-37.003906 193.347656-94.527344c-1.191406-1.492187-2.453125-2.832031-3.796875-3.984375zm0 0" fill="#51da18"/><path d="m200.421875 457.140625c-5.121094-10.9375 8.6875-13.429687 8.6875-13.429687 21.851563-8.859376 29.648437-24.921876 32.40625-36.210938-22.144531-.480469-44.082031-11.835938-56.402344-34.082031l-.902343-1.628907c-5.617188 4.015626-13.167969 7.925782-23.316407 10.960938-45.40625 13.578125-78.320312 7.550781-105.445312 30.738281-1.34375 1.148438-2.605469 2.488281-3.796875 3.984375 22.15625 28.429688 50.453125 51.835938 82.890625 68.25 19.625-23.25 65.878906-28.582031 65.878906-28.582031zm0 0" fill="#00c82f"/><path d="m389.9375 143.800781c-.011719-.003906-.023438-.011719-.03125-.015625-1.84375-.859375-3.023438-2.699218-3.222656-4.722656-7.789063-78.183594-69.019532-139.0625-143.417969-139.0625-74.304687 0-135.480469 60.734375-143.386719 138.78125-.207031 2.039062-1.425781 3.839844-3.269531 4.742188-.160156.078124-.320313.15625-.484375.230468-12.175781 5.617188-20.683594 17.949219-20.683594 32.179688v30.101562c0 14.042969 8.285156 26.242188 20.203125 31.960938 5.175781 2.480468 9.328125 6.699218 11.601563 11.964844 4.40625 10.21875 9.929687 19.839843 16.421875 28.710937 19.894531 27.1875 38.445312 55.332031 54.765625 84.804687l6.679687 12.070313c25.179688 45.46875 90.550781 45.46875 115.730469 0l7.484375-13.523437c16.050781-28.980469 34.371094-56.59375 53.941406-83.320313 6.5-8.882813 12.035157-18.515625 16.445313-28.75 2.269531-5.265625 6.429687-9.476563 11.597656-11.957031 11.921875-5.71875 20.203125-17.917969 20.203125-31.960938v-30.101562c0-14.1875-8.457031-26.496094-20.578125-32.132813zm0 0" fill="#a2ec00"/><path d="m256.320312.636719c-4.300781-.417969-8.652343-.636719-13.054687-.636719-74.304687 0-135.480469 60.734375-143.386719 138.78125-.207031 2.039062-1.425781 3.839844-3.269531 4.742188-.160156.078124-.320313.15625-.484375.230468-12.175781 5.617188-20.683594 17.949219-20.683594 32.179688v30.105468c0 14.039063 8.285156 26.242188 20.203125 31.957032 5.175781 2.484375 9.328125 6.699218 11.601563 11.96875 4.402344 10.214844 9.929687 19.839844 16.421875 28.707031 19.894531 27.1875 38.445312 55.332031 54.765625 84.804687l6.679687 12.070313c13.898438 25.09375 40.035157 36.332031 64.902344 33.726563-37.4375-9.125-24.109375-38.355469-45.933594-79.3125-17.367187-32.582032-9.246093-56.601563-4.945312-65.433594.929687-1.902344.464843-4.121094-.984375-5.664063-1.589844-1.695312-1.714844-3.761719-1.472656-5.359375.25-1.613281-.296876-3.269531-1.503907-4.363281-6.953125-6.316406-6.21875-14.191406-5.023437-18.613281.550781-2.042969-.257813-4.195313-2.003906-5.390625-16.597657-11.371094-12.546876-30.269531-10.617188-36.535157.414062-1.351562.1875-2.808593-.539062-4.023437-9.304688-15.496094 5.476562-22.917969 5.476562-22.917969 12.253906-8.171875 2.410156-21.832031 2.410156-21.832031-33.589844-114.359375 71.441406-139.191406 71.441406-139.191406zm0 0" fill="#00c82f"/><path d="m259.53125 492.238281c-4.367188 0-7.910156-3.542969-7.910156-7.914062 0-21.074219 14.320312-39.195313 34.824218-44.066407l37.898438-8.996093c4.25-1.011719 8.515625 1.617187 9.523438 5.871093 1.011718 4.25-1.617188 8.515626-5.867188 9.523438l-37.894531 9c-13.339844 3.167969-22.660157 14.957031-22.660157 28.667969 0 4.371093-3.542968 7.914062-7.914062 7.914062zm0 0" fill="#00c82f"/><path d="m226.425781 492.238281c-4.371093 0-7.914062-3.542969-7.914062-7.914062 0-13.710938-9.316407-25.5-22.65625-28.667969l-37.894531-9c-4.253907-1.007812-6.882813-5.273438-5.871094-9.523438 1.007812-4.253906 5.273437-6.882812 9.527344-5.871093l37.894531 9c20.503906 4.867187 34.828125 22.988281 34.828125 44.066406 0 4.367187-3.542969 7.910156-7.914063 7.910156zm0 0" fill="#00c82f"/><path d="m209.109375 443.710938c-3.007813-1.480469-6.214844-2.648438-9.597656-3.453126l-37.894531-8.996093c-4.253907-1.011719-8.519532 1.617187-9.527344 5.871093-1.011719 4.25 1.621094 8.515626 5.871094 9.523438l37.894531 9c1.578125.375 3.097656.878906 4.554687 1.488281.003906 0 .015625-.003906.015625-.003906-5.125-10.9375 8.683594-13.429687 8.683594-13.429687zm0 0" fill="#04ad24"/><path d="m266.691406 323.847656c-.050781 0-5.097656-.109375-9.410156-2.535156-2.125-1.195312-4.6875-1.339844-6.933594-.394531l-5.347656 2.257812-5.347656-2.257812c-2.246094-.949219-4.808594-.804688-6.933594.394531-4.269531 2.402344-9.257812 2.53125-9.457031 2.535156-4.332031.023438-7.839844 3.546875-7.839844 7.886719 0 4.355469 3.53125 7.886719 7.886719 7.886719.78125 0 6.851562-.089844 13.472656-2.792969l5.152344 2.171875c1.976562.835938 4.160156.835938 6.128906 0l5.152344-2.171875c6.621094 2.703125 12.691406 2.792969 13.472656 2.792969 4.355469 0 7.886719-3.53125 7.886719-7.886719.003906-4.355469-3.527344-7.886719-7.882813-7.886719zm0 0" fill="#00c82f"/><path d="m351.074219 161.863281c-16.417969-14.144531-47.53125-4.941406-69.5 20.558594-21.964844 25.496094-26.464844 57.628906-10.050781 71.773437 16.417968 14.140626 47.53125 4.9375 69.5-20.558593 21.964843-25.496094 26.464843-57.632813 10.050781-71.773438zm0 0" fill="#d7f9b7"/><path d="m337.441406 224.671875c0-22.738281-18.429687-41.167969-41.167968-41.167969-7.019532 0-13.628907 1.757813-19.410157 4.859375-17.804687 24.351563-20.5 52.761719-5.335937 65.824219 14.769531 12.722656 41.4375 6.539062 62.636718-13.402344 2.109376-4.949218 3.277344-10.394531 3.277344-16.113281zm0 0" fill="#4374d3"/><path d="m208.421875 182.402344c-21.96875-25.496094-53.082031-34.703125-69.5-20.558594-16.414063 14.144531-11.914063 46.277344 10.050781 71.773438 21.96875 25.5 53.082032 34.703124 69.5 20.558593 16.414063-14.140625 11.914063-46.277343-10.050781-71.773437zm0 0" fill="#d7f9b7"/><path d="m199.339844 260.816406c-.246094-.707031-.648438-1.378906-1.1875-1.953125-1.589844-1.691406-1.714844-3.761719-1.46875-5.359375.246094-1.613281-.300782-3.265625-1.507813-4.363281-6.953125-6.316406-6.21875-14.191406-5.023437-18.609375.550781-2.046875-.257813-4.195312-2.003906-5.394531-16.597657-11.371094-12.542969-30.269531-10.617188-36.53125.414062-1.355469.191406-2.8125-.539062-4.027344-9.304688-15.496094 5.476562-22.917969 5.476562-22.917969-16.367188-8.328125-32.992188-8.898437-43.542969.191406-16.417969 14.144532-11.917969 46.277344 10.046875 71.777344 15.050782 17.46875 34.398438 27.285156 50.367188 27.1875zm0 0" fill="#8fe98a"/><path d="m152.558594 224.671875c0-22.738281 18.429687-41.167969 41.167968-41.167969 7.019532 0 13.628907 1.757813 19.410157 4.859375 17.804687 24.351563 20.5 52.761719 5.335937 65.824219-14.773437 12.722656-41.441406 6.539062-62.636718-13.402344-2.109376-4.949218-3.277344-10.394531-3.277344-16.113281zm0 0" fill="#4374d3"/><path d="m199.335938 260.8125c-.242188-.707031-.644532-1.375-1.183594-1.949219-1.589844-1.691406-1.714844-3.761719-1.46875-5.359375.246094-1.613281-.300782-3.265625-1.507813-4.363281-6.953125-6.316406-6.21875-14.191406-5.023437-18.609375.550781-2.046875-.257813-4.195312-2.003906-5.394531-16.597657-11.371094-12.542969-30.269531-10.617188-36.53125.1875-.613281.238281-1.246094.175781-1.871094-14.777343 6.25-25.148437 20.882813-25.148437 37.9375 0 5.71875 1.167968 11.167969 3.277344 16.117187 13.78125 12.960938 29.867187 20.101563 43.5 20.023438zm0 0" fill="#3957c9"/><path d="m204.082031 239.804688c0 7.007812-5.683593 12.6875-12.691406 12.6875s-12.691406-5.679688-12.691406-12.6875c0-7.011719 5.683593-12.691407 12.691406-12.691407s12.691406 5.679688 12.691406 12.691407zm0 0" fill="#61b6ff"/><g fill="#00c82f"><path d="m195.082031 83.304688c0 7.007812-5.683593 12.6875-12.691406 12.6875s-12.691406-5.679688-12.691406-12.6875c0-7.011719 5.683593-12.691407 12.691406-12.691407s12.691406 5.679688 12.691406 12.691407zm0 0"/><path d="m239.105469 72.804688c0 7.007812-5.679688 12.6875-12.691407 12.6875-7.007812 0-12.691406-5.679688-12.691406-12.6875 0-7.011719 5.683594-12.691407 12.691406-12.691407 7.011719 0 12.691407 5.679688 12.691407 12.691407zm0 0"/><path d="m180.492188 467.835938c0 7.007812-5.683594 12.6875-12.691407 12.6875-7.007812 0-12.691406-5.679688-12.691406-12.6875 0-7.011719 5.683594-12.691407 12.691406-12.691407 7.007813 0 12.691407 5.679688 12.691407 12.691407zm0 0"/><path d="m159.246094 496.550781c1.84375-3.1875 2.90625-6.878906 2.90625-10.824219 0-11.953124-9.691406-21.644531-21.644532-21.644531-9.199218 0-17.050781 5.742188-20.183593 13.832031 12.320312 7.300782 25.335937 13.554688 38.921875 18.636719zm0 0"/><path d="m191.390625 123.804688c0 7.007812-5.683594 12.6875-12.691406 12.6875-7.007813 0-12.691407-5.679688-12.691407-12.6875 0-7.011719 5.683594-12.691407 12.691407-12.691407 7.007812 0 12.691406 5.679688 12.691406 12.691407zm0 0"/><path d="m208.660156 50.566406c0 12.28125-9.953125 22.234375-22.234375 22.234375s-22.234375-9.953125-22.234375-22.234375 9.953125-22.234375 22.234375-22.234375 22.234375 9.953125 22.234375 22.234375zm0 0"/></g><path d="m271.527344 254.1875c10.234375 8.816406 26.1875 8.546875 42.070312.917969-6.941406-.003907-5.082031-7.375-5.082031-7.375l-9.90625-20.617188c-25.9375-9.050781-21.746094-38.75-21.746094-38.75-17.804687 24.351563-20.5 52.761719-5.335937 65.824219zm0 0" fill="#3957c9"/><path d="m311.300781 239.804688c0 7.007812-5.683593 12.6875-12.691406 12.6875s-12.691406-5.679688-12.691406-12.6875c0-7.011719 5.683593-12.691407 12.691406-12.691407s12.691406 5.679688 12.691406 12.691407zm0 0" fill="#61b6ff"/></svg>