<svg height="512pt" viewBox="-11 0 512 512" width="512pt" xmlns="http://www.w3.org/2000/svg"><path d="m245 22c-135.308594 0-245 109.6875-245 245 0 55.285156 18.316406 106.285156 49.210938 147.28125l32.929687 35.734375c14.414063 12.832031 30.347656 23.992187 47.503906 33.167969h230.710938c3.167969-1.695313 6.289062-3.460938 9.371093-5.289063l48.464844-37.628906c44.359375-44.335937 71.808594-105.589844 71.808594-173.265625 0-135.3125-109.691406-245-245-245zm0 0" fill="#162680"/><path d="m346.117188 289.761719h23.417968v33.757812h-23.417968zm0 0" fill="#b26cde"/><path d="m260.273438 323.519531h-23.414063v-33.757812h23.414063zm0 0" fill="#b26cde"/><path d="m346.117188 306.640625h23.417968v16.878906h-23.417968zm0 0" fill="#9d4ad3"/><path d="m260.273438 323.519531h-23.414063v-16.878906h23.414063zm0 0" fill="#9d4ad3"/><path d="m346.117188 227.261719h23.417968v33.761719h-23.417968zm0 0" fill="#b26cde"/><path d="m260.273438 261.023438h-23.414063v-33.757813h23.414063zm0 0" fill="#b26cde"/><path d="m346.117188 244.144531h23.417968v16.878907h-23.417968zm0 0" fill="#9d4ad3"/><path d="m260.273438 261.023438h-23.414063v-16.878907h23.414063zm0 0" fill="#9d4ad3"/><path d="m138.722656 197.160156-81.863281-52.617187c-3.703125-2.378907-4.773437-7.308594-2.394531-11.011719 2.378906-3.699219 7.304687-4.769531 11.007812-2.390625l81.863282 52.617187c3.699218 2.378907 4.773437 7.308594 2.394531 11.007813-2.382813 3.707031-7.316407 4.769531-11.007813 2.394531zm0 0" fill="#61b6ff"/><path d="m138.722656 250.117188-81.863281-52.613282c-3.703125-2.382812-4.773437-7.308594-2.394531-11.011718 2.378906-3.699219 7.308594-4.773438 11.007812-2.394532l81.863282 52.617188c3.699218 2.378906 4.773437 7.308594 2.394531 11.011718-2.382813 3.703126-7.3125 4.765626-11.007813 2.390626zm0 0" fill="#61b6ff"/><path d="m138.722656 302.207031-81.863281-52.617187c-3.703125-2.378906-4.773437-7.308594-2.394531-11.007813 2.378906-3.703125 7.308594-4.777343 11.007812-2.394531l81.863282 52.617188c3.699218 2.378906 4.773437 7.304687 2.394531 11.007812-2.382813 3.707031-7.3125 4.769531-11.007813 2.394531zm0 0" fill="#61b6ff"/><path d="m138.722656 355.164062-81.863281-52.617187c-3.703125-2.378906-4.773437-7.308594-2.394531-11.011719 2.378906-3.699218 7.308594-4.769531 11.007812-2.390625l81.863282 52.617188c3.699218 2.378906 4.773437 7.304687 2.394531 11.007812-2.382813 3.707031-7.316407 4.769531-11.007813 2.394531zm0 0" fill="#61b6ff"/><path d="m143.023438 409.046875c-1.476563 0-2.96875-.410156-4.300782-1.265625l-81.863281-52.617188c-3.703125-2.378906-4.773437-7.308593-2.394531-11.007812 2.378906-3.703125 7.308594-4.773438 11.007812-2.394531l81.863282 52.617187c6.703124 4.3125 3.5625 14.667969-4.3125 14.667969zm0 0" fill="#61b6ff"/><path d="m138.722656 460.738281-81.863281-52.617187c-3.703125-2.378906-4.773437-7.304688-2.394531-11.007813s7.308594-4.769531 11.007812-2.394531l81.863282 52.617188c3.699218 2.378906 4.773437 7.308593 2.394531 11.007812-2.382813 3.707031-7.3125 4.769531-11.007813 2.394531zm0 0" fill="#61b6ff"/><path d="m300.40625 98.007812c2.324219-1.539062 5.367188-1.539062 7.695312 0 1.402344.929688 2.769532 1.960938 4.117188 3.058594v-39.949218c0-4.402344-3.566406-7.96875-7.964844-7.96875-4.398437 0-7.964844 3.566406-7.964844 7.96875v39.953124c1.34375-1.101562 2.714844-2.132812 4.117188-3.0625zm0 0" fill="#fc7acd"/><path d="m370.867188 180.761719h36.234374v26.921875h-36.234374zm0 0" fill="#b26cde"/><path d="m393.648438 145.898438c-1.917969-3.847657-7.410157-3.847657-9.328126 0l-13.453124 34.867187h36.234374zm0 0" fill="#b26cde"/><path d="m370.867188 180.761719h18.117187v26.921875h-18.117187zm0 0" fill="#9d4ad3"/><path d="m393.320312 145.347656c-2.144531-3.28125-7.179687-3.101562-9 .550782l-13.453124 34.867187h18.117187l4.234375-34.867187c.03125-.195313.066406-.375.101562-.550782zm0 0" fill="#9d4ad3"/><path d="m404.457031 188.730469h-30.945312c-4.398438 0-7.964844-3.566407-7.964844-7.964844 0-4.402344 3.566406-7.96875 7.964844-7.96875h30.945312c4.398438 0 7.964844 3.566406 7.964844 7.96875 0 4.398437-3.566406 7.964844-7.964844 7.964844zm0 0" fill="#c78fe8"/><path d="m382.09375 180.765625c0-4.402344 3.566406-7.96875 7.96875-7.96875h-16.550781c-4.398438 0-7.964844 3.566406-7.964844 7.96875 0 4.398437 3.566406 7.964844 7.964844 7.964844h16.550781c-4.402344 0-7.96875-3.566407-7.96875-7.964844zm0 0" fill="#b26cde"/><path d="m376.535156 380.039062c16.613282 10.34375 27.105469 23.539063 33.652344 35.085938v-203.972656c0-3.089844-2.503906-5.59375-5.59375-5.59375h-31.21875c-3.089844 0-5.59375 2.503906-5.59375 5.59375v162.742187c2.804688 2.1875 5.714844 4.25 8.753906 6.144531zm0 0" fill="#dcb1f3"/><path d="m388.984375 211.152344c0-3.089844 2.503906-5.59375 5.59375-5.59375h-21.203125c-3.089844 0-5.59375 2.503906-5.59375 5.59375v162.742187c2.804688 2.1875 5.714844 4.25 8.753906 6.140625 4.613282 2.871094 8.734375 5.96875 12.449219 9.179688zm0 0" fill="#c78fe8"/><path d="m199.292969 180.761719h36.230469v26.921875h-36.230469zm0 0" fill="#b26cde"/><path d="m222.070312 145.898438c-1.914062-3.847657-7.40625-3.847657-9.324218 0l-13.453125 34.867187h36.230469zm0 0" fill="#b26cde"/><path d="m199.292969 180.761719h18.117187v26.921875h-18.117187zm0 0" fill="#9d4ad3"/><path d="m221.746094 145.347656c-2.148438-3.28125-7.179688-3.101562-9 .550782l-13.453125 34.867187h18.113281l4.238281-34.867187c.03125-.195313.066407-.375.101563-.550782zm0 0" fill="#9d4ad3"/><path d="m232.882812 188.730469h-30.945312c-4.402344 0-7.964844-3.566407-7.964844-7.964844 0-4.402344 3.566406-7.96875 7.964844-7.96875h30.945312c4.398438 0 7.964844 3.566406 7.964844 7.96875 0 4.398437-3.566406 7.964844-7.964844 7.964844zm0 0" fill="#c78fe8"/><path d="m210.519531 180.765625c0-4.402344 3.566407-7.96875 7.964844-7.96875h-16.546875c-4.402344 0-7.964844 3.566406-7.964844 7.96875 0 4.398437 3.5625 7.964844 7.964844 7.964844h16.546875c-4.398437 0-7.964844-3.566407-7.964844-7.964844zm0 0" fill="#b26cde"/><path d="m229.855469 380.039062c-16.613281 10.34375-27.101563 23.539063-33.648438 35.085938v-203.972656c0-3.089844 2.503907-5.59375 5.59375-5.59375h31.21875c3.089844 0 5.59375 2.503906 5.59375 5.59375v162.742187c-2.804687 2.1875-5.71875 4.25-8.757812 6.144531zm0 0" fill="#dcb1f3"/><path d="m217.410156 211.152344c0-3.089844 2.503906-5.59375 5.59375-5.59375h-21.203125c-3.089843 0-5.59375 2.503906-5.59375 5.59375v203.972656c4.726563-8.34375 11.53125-17.539062 21.203125-25.90625zm0 0" fill="#c78fe8"/><path d="m273.28125 325.324219 4.84375-14.78125v-46.800781c.003906-.191407.335938-19.421876 5.875-37.289063 3.722656-12.007813 8.878906-20.589844 15.320312-25.503906 2.902344-2.21875 6.960938-2.21875 9.863282 0 7.558594 5.769531 13.511718 16.984375 17.21875 32.445312v.191407l.085937.167968c3.640625 15.40625 3.890625 29.847656 3.890625 29.96875v46.820313l4.84375 14.78125c3.347656 10.214843 8.296875 19.765625 14.5625 28.335937v-165.363281c0-30.90625-16.785156-75.90625-41.683594-92.410156-2.328124-1.542969-5.371093-1.542969-7.699218 0-24.898438 16.503906-41.683594 61.503906-41.683594 92.410156v165.367187c6.265625-8.574218 11.214844-18.121093 14.5625-28.339843zm0 0" fill="#f6159c"/><path d="m304.253906 188.296875c0-28.929687 3.386719-70.203125 8.523438-88.902344-1.523438-1.277343-3.082032-2.453125-4.675782-3.507812-2.328124-1.542969-5.371093-1.542969-7.699218 0-24.898438 16.503906-41.683594 61.503906-41.683594 92.410156v165.367187c6.265625-8.570312 11.214844-18.121093 14.5625-28.339843l4.84375-14.78125v-46.796875c.003906-.191406.335938-19.421875 5.875-37.289063 3.722656-12.007812 8.878906-20.589843 15.320312-25.507812 1.449219-1.105469 3.191407-1.664063 4.933594-1.660157zm0 0" fill="#c6237c"/><path d="m345.628906 166.367188h-82.75c-4.398437 0-7.964844-3.566407-7.964844-7.96875 0-4.398438 3.566407-7.964844 7.964844-7.964844h82.75c4.402344 0 7.96875 3.566406 7.96875 7.964844 0 4.402343-3.566406 7.96875-7.96875 7.96875zm0 0" fill="#fc7acd"/><path d="m297.746094 158.398438c0-4.398438 3.566406-7.964844 7.96875-7.964844h-42.835938c-4.398437 0-7.964844 3.566406-7.964844 7.964844 0 4.402343 3.566407 7.96875 7.964844 7.96875h42.835938c-4.402344 0-7.96875-3.566407-7.96875-7.96875zm0 0" fill="#f948b4"/><path d="m372.195312 453.625c-8.082031 0-14.632812 6.550781-14.632812 14.632812 0 5.335938 2.863281 9.988282 7.128906 12.546876 13.902344-7.800782 26.96875-16.914063 39.027344-27.179688zm0 0" fill="#83d3fc"/><path d="m400.714844 453.625h-28.519532c-8.082031 0-14.632812 6.550781-14.632812 14.632812 0 5.335938 2.863281 9.988282 7.128906 12.546876 7.394532-4.148438 14.546875-8.683594 21.441406-13.550782.519532-7.613281 6.839844-13.628906 14.582032-13.628906zm0 0" fill="#61b6ff"/><path d="m237.109375 453.625h-36.816406c-8.082031 0-14.632813 6.550781-14.632813 14.632812 0 8.082032 6.550782 14.632813 14.632813 14.632813h36.816406c8.082031 0 14.632813-6.550781 14.632813-14.632813 0-8.082031-6.550782-14.632812-14.632813-14.632812zm0 0" fill="#83d3fc"/><path d="m214.179688 468.257812c0-8.082031 6.550781-14.632812 14.632812-14.632812h-28.519531c-8.082031 0-14.632813 6.550781-14.632813 14.632812 0 8.082032 6.550782 14.632813 14.632813 14.632813h28.519531c-8.082031 0-14.632812-6.550781-14.632812-14.632813zm0 0" fill="#61b6ff"/><path d="m422.328125 436.058594c-6.851563-23.824219-22.28125-44.265625-43.332031-57.371094-19.96875-12.4375-34.929688-31.5-42.257813-53.859375l-5.960937-18.1875v147.675781h72.121094c6.800781-5.738281 13.292968-11.824218 19.429687-18.257812zm0 0" fill="#b9e9fd"/><path d="m349.785156 441.019531v-73.152343c0-4.296876 1.640625-8.222657 4.304688-11.214844-7.609375-9.398438-13.527344-20.15625-17.351563-31.824219l-5.960937-18.1875v147.675781h25.53125c-3.957032-3.101562-6.523438-7.910156-6.523438-13.296875zm0 0" fill="#83d3fc"/><path d="m277.726562 306.640625-5.960937 18.1875c-7.324219 22.355469-22.285156 41.421875-42.257813 53.859375-21.152343 13.167969-36.636718 33.75-43.4375 57.71875l-.320312 1.128906c-2.386719 8.417969 3.933594 16.78125 12.679688 16.78125h79.296874zm0 0" fill="#b9e9fd"/><path d="m271.765625 324.828125c-3.824219 11.671875-9.746094 22.433594-17.359375 31.835937 2.660156 2.988282 4.296875 6.910157 4.296875 11.203126v73.152343c0 5.386719-2.566406 10.195313-6.523437 13.296875h25.53125v-147.621094zm0 0" fill="#83d3fc"/><path d="m422.335938 436.050781-.03125-.109375c-6.785157-23.921875-22.464844-44.199218-43.539063-57.402344-4.625-2.898437-8.980469-6.15625-13.03125-9.726562v15.53125c0 2.5625 1.320313 4.941406 3.492187 6.296875 17.808594 11.089844 30.847657 28.414063 36.574219 48.597656l2.855469 10.070313c4.726562-4.246094 9.292969-8.660156 13.679688-13.257813zm0 0" fill="#61b6ff"/><path d="m186.203125 435.945312c6.785156-23.925781 22.464844-44.203124 43.539063-57.40625 4.625-2.894531 8.976562-6.15625 13.03125-9.726562v15.574219c0 2.535156-1.308594 4.890625-3.460938 6.234375l-.035156.023437c-17.808594 11.085938-30.847656 28.414063-36.570313 48.59375l-4.277343 15.078125c-8.746094 0-15.066407-8.363281-12.679688-16.777344zm0 0" fill="#61b6ff"/><path d="m310.152344 199.683594c-3.507813-2.679688-8.289063-2.679688-11.796875 0-21.148438 16.136718-21.824219 64.039062-21.824219 64.039062v187.941406c0 3.457032 2.804688 6.261719 6.265625 6.261719h42.917969c3.457031 0 6.257812-2.800781 6.257812-6.261719v-187.941406s-.675781-47.902344-21.820312-64.039062zm0 0" fill="#d0f6fa"/><path d="m325.710938 405.660156h-42.917969c-3.457031 0-6.261719-2.800781-6.261719-6.261718v52.265624c0 3.457032 2.804688 6.261719 6.261719 6.261719h42.917969c3.460937 0 6.261718-2.804687 6.261718-6.261719v-52.265624c0 3.460937-2.800781 6.261718-6.261718 6.261718zm0 0" fill="#b9e9fd"/><path d="m296.878906 222.101562c4.363282-1.59375 10.386719-1.59375 14.75 0 7.179688 2.621094 12.46875 6.640626 16.367188 11.105469-3.042969-12.78125-8.402344-26.320312-17.84375-33.527343-3.492188-2.664063-8.308594-2.664063-11.796875 0-9.445313 7.207031-14.800781 20.746093-17.84375 33.527343 3.898437-4.464843 9.1875-8.484375 16.367187-11.105469zm0 0" fill="#fbb362"/><path d="m300.296875 214.039062c.546875-5.847656 1.824219-11.40625 4.070313-16.351562-2.117188-.023438-4.234376.636719-6.011719 1.996094-9.445313 7.207031-14.800781 20.746094-17.84375 33.523437 3.898437-4.464843 9.1875-8.484375 16.367187-11.105469 1.757813-.640624 3.789063-1.011718 5.867188-1.136718-1.6875-1.699219-2.714844-4.113282-2.449219-6.925782zm0 0" fill="#fd7e31"/><path d="m320.445312 250.734375c-.246093-.457031-.5-.910156-.757812-1.359375-1.757812-3.039062-4.410156-5.332031-8.058594-6.664062-3.804687-1.390626-10.4375-1.632813-15.199218.164062-3.210938 1.210938-5.894532 3.527344-7.609376 6.5-.257812.449219-.511718.898438-.761718 1.359375-3.027344 5.601563 2.566406 12.0625 8.53125 9.839844.09375-.035157.1875-.070313.28125-.105469 4.046875-1.476562 10.714844-1.476562 14.757812 0 .097656.035156.191406.070312.285156.105469 5.96875 2.222656 11.558594-4.238281 8.53125-9.839844zm0 0" fill="#3957c9"/><path d="m302.644531 248.222656c.308594-.570312.621094-1.132812.945313-1.6875 1.035156-1.796875 2.363281-3.398437 3.90625-4.75-3.539063-.421875-7.753906-.15625-11.066406 1.089844-3.210938 1.210938-5.894532 3.53125-7.609376 6.503906-.257812.445313-.511718.898438-.757812 1.355469-3.027344 5.605469 2.5625 12.0625 8.53125 9.839844.09375-.035157.1875-.070313.28125-.105469 2.277344-.832031 5.386719-1.195312 8.390625-1.089844-3.269531-2.378906-4.890625-6.957031-2.621094-11.15625zm0 0" fill="#1d319b"/><path d="m304.253906 470.773438c-4.488281 0-8.125-3.636719-8.125-8.125v-121.316407c0-4.488281 3.636719-8.125 8.125-8.125 4.484375 0 8.125 3.636719 8.125 8.125v121.316407c0 4.488281-3.640625 8.125-8.125 8.125zm0 0" fill="#b9e9fd"/><path d="m304.253906 358.542969c-4.488281 0-8.125-3.636719-8.125-8.121094v112.226563c0 4.488281 3.636719 8.125 8.125 8.125 4.484375 0 8.125-3.636719 8.125-8.125v-112.226563c0 4.484375-3.640625 8.121094-8.125 8.121094zm0 0" fill="#83d3fc"/><path d="m304.253906 370.671875c-4.488281 0-8.125 3.636719-8.125 8.125v83.851563c0 4.488281 3.636719 8.125 8.125 8.125 4.484375 0 8.125-3.636719 8.125-8.125v-83.851563c0-4.488281-3.640625-8.125-8.125-8.125zm0 0" fill="#61b6ff"/><path d="m304.253906 412.335938c-4.488281 0-8.125-3.640626-8.125-8.125v58.4375c0 4.488281 3.636719 8.125 8.125 8.125 4.484375 0 8.125-3.636719 8.125-8.125v-58.4375c0 4.484374-3.640625 8.125-8.125 8.125zm0 0" fill="#5294e5"/><path d="m337.78125 391.566406c-2.464844-3.652344-7.414062-4.609375-11.0625-2.148437-3.644531 2.460937-4.605469 7.414062-2.144531 11.058593l50.183593 74.359376c4.507813-2.820313 8.921876-5.78125 13.226563-8.882813zm0 0" fill="#5294e5"/><path d="m353.011719 428.394531c2.824219-1.90625 6.308593-2.039062 9.171875-.667969l-24.402344-36.160156c-2.464844-3.652344-7.414062-4.609375-11.0625-2.148437-3.644531 2.460937-4.605469 7.414062-2.144531 11.058593l24.386719 36.136719c-.183594-3.152343 1.242187-6.324219 4.050781-8.21875zm0 0" fill="#4374d3"/><path d="m214.246094 489.496094c-3.648438-2.460938-4.609375-7.414063-2.148438-11.058594l58.628906-86.871094c2.460938-3.648437 7.414063-4.609375 11.058594-2.148437 3.648438 2.460937 4.609375 7.414062 2.148438 11.058593l-58.628906 86.871094c-2.453126 3.636719-7.402344 4.617188-11.058594 2.148438zm0 0" fill="#5294e5"/><path d="m255.492188 428.394531c-2.820313-1.90625-6.308594-2.039062-9.171876-.667969l24.40625-36.160156c2.460938-3.652344 7.410157-4.609375 11.058594-2.148437 3.648438 2.460937 4.609375 7.414062 2.148438 11.058593l-24.390625 36.136719c.1875-3.152343-1.238281-6.324219-4.050781-8.21875zm0 0" fill="#4374d3"/><path d="m49.175781 414.242188c9.046875 12.015624 19.175781 23.167968 30.238281 33.320312v-325.25c-10.375 0-20.492187 0-30.238281 0zm0 0" fill="#83d3fc"/><path d="m124.777344 480.507812c4.109375 2.316407 8.289062 4.519532 12.539062 6.605469h17.703125v-364.800781c-10.179687 0-20.277343 0-30.242187 0zm0 0" fill="#83d3fc"/><path d="m49.175781 122.3125v106.070312c0-8.351562 6.769531-15.121093 15.121094-15.121093 8.347656 0 15.117187 6.769531 15.117187 15.121093v-106.070312c-10.375 0-20.492187 0-30.238281 0zm0 0" fill="#61b6ff"/><path d="m124.777344 122.3125v106.070312c0-8.351562 6.773437-15.121093 15.121094-15.121093 8.351562 0 15.121093 6.769531 15.121093 15.121093v-106.070312c-10.179687 0-20.277343 0-30.242187 0zm0 0" fill="#61b6ff"/><g fill="#b9e9fd"><path d="m61.171875 198.425781c-2.617187 0-5.183594-1.289062-6.707031-3.660156-2.378906-3.703125-1.308594-8.628906 2.394531-11.007813l81.863281-52.621093c3.699219-2.375 8.628906-1.304688 11.007813 2.394531 2.378906 3.703125 1.304687 8.628906-2.394531 11.011719l-81.863282 52.617187c-1.332031.855469-2.824218 1.265625-4.300781 1.265625zm0 0"/><path d="m61.171875 251.382812c-2.617187 0-5.183594-1.289062-6.707031-3.660156-2.378906-3.699218-1.308594-8.628906 2.394531-11.007812l81.863281-52.617188c3.699219-2.375 8.628906-1.308594 11.007813 2.394532 2.378906 3.703124 1.304687 8.628906-2.394531 11.007812l-81.863282 52.617188c-1.332031.859374-2.824218 1.265624-4.300781 1.265624zm0 0"/><path d="m61.171875 303.472656c-2.617187 0-5.183594-1.292968-6.707031-3.660156-2.378906-3.703125-1.308594-8.628906 2.394531-11.011719l81.863281-52.617187c3.699219-2.375 8.628906-1.304688 11.007813 2.394531 2.378906 3.703125 1.304687 8.632813-2.394531 11.011719l-81.863282 52.617187c-1.332031.855469-2.824218 1.265625-4.300781 1.265625zm0 0"/><path d="m61.171875 356.429688c-2.617187 0-5.183594-1.289063-6.707031-3.660157-2.378906-3.699219-1.308594-8.628906 2.394531-11.007812l81.863281-52.617188c3.699219-2.378906 8.628906-1.308593 11.007813 2.394531 2.378906 3.699219 1.304687 8.628907-2.394531 11.007813l-81.863282 52.617187c-1.332031.855469-2.824218 1.265626-4.300781 1.265626zm0 0"/><path d="m61.171875 409.046875c-2.617187 0-5.183594-1.289063-6.707031-3.660156-2.378906-3.699219-1.308594-8.628907 2.394531-11.007813l81.863281-52.617187c3.699219-2.378907 8.628906-1.308594 11.007813 2.394531 2.378906 3.703125 1.304687 8.628906-2.394531 11.007812l-81.863282 52.617188c-1.332031.855469-2.824218 1.265625-4.300781 1.265625zm0 0"/><path d="m138.722656 394.71875-68.453125 43.996094c3.832031 3.898437 7.792969 7.671875 11.878907 11.308594l65.1875-41.902344c3.699218-2.378906 4.773437-7.304688 2.394531-11.007813-2.378907-3.703125-7.308594-4.769531-11.007813-2.394531zm0 0"/><path d="m379.269531 78.261719c-25.5 0-219.207031 0-250.847656 0l-42.980469-49.738281c-1.46875-1.683594-3.671875-2.757813-6.027344-2.757813h-7.15625v-17.800781c0-4.398438-3.566406-7.964844-7.964843-7.964844-4.398438 0-7.964844 3.566406-7.964844 7.964844v17.800781h-7.15625c-4.398437 0-7.964844 3.566406-7.964844 7.964844v82.738281c0 4.402344 3.566407 7.96875 7.964844 7.96875h306.324219c4.398437 0 7.964844-3.566406 7.964844-7.96875v-22.273438h15.808593c4.398438 0 7.964844-3.566406 7.964844-7.964843.003906-4.402344-3.5625-7.96875-7.964844-7.96875zm-291.886719 0v-23.125l19.984376 23.125c-6.855469 0-12.992188 0-19.984376 0zm-30.242187 0v-36.5625h14.308594v36.5625zm0 15.933593h35.121094v14.308594h-35.121094zm51.054687 0h35.121094v14.308594h-35.121094zm51.050782 0h35.121094v14.308594h-35.121094zm51.054687 0h35.121094v14.308594h-35.121094zm51.054688 0h35.121093v14.308594h-35.121093zm86.175781 14.308594h-35.121094v-14.308594h35.121094zm0 0"/></g><path d="m331.175781 438.8125c-4.398437 0-7.964843-3.566406-7.964843-7.964844v-50.367187c0-4.402344 3.566406-7.96875 7.964843-7.96875 4.402344 0 7.96875 3.566406 7.96875 7.96875v50.367187c0 4.398438-3.570312 7.964844-7.96875 7.964844zm0 0" fill="#fbb362"/><path d="m277.328125 438.8125c-4.398437 0-7.964844-3.566406-7.964844-7.964844v-50.367187c0-4.402344 3.566407-7.96875 7.964844-7.96875s7.96875 3.566406 7.96875 7.96875v50.367187c0 4.398438-3.566406 7.964844-7.96875 7.964844zm0 0" fill="#fbb362"/><path d="m331.175781 411.058594c-4.398437 0-7.964843-3.566406-7.964843-7.964844v27.753906c0 4.398438 3.566406 7.964844 7.964843 7.964844 4.402344 0 7.96875-3.566406 7.96875-7.964844v-27.753906c0 4.398438-3.570312 7.964844-7.96875 7.964844zm0 0" fill="#fd7e31"/><path d="m277.328125 411.058594c-4.398437 0-7.964844-3.566406-7.964844-7.964844v27.753906c0 4.398438 3.566407 7.964844 7.964844 7.964844 4.402344 0 7.96875-3.566406 7.96875-7.964844v-27.753906c0 4.398438-3.566406 7.964844-7.96875 7.964844zm0 0" fill="#fd7e31"/><path d="m127.777344 482.183594c34.820312 19.007812 74.757812 29.816406 117.222656 29.816406s82.402344-10.808594 117.222656-29.816406zm0 0" fill="#b9e9fd"/><path d="m228.996094 482.183594h-101.21875c30.191406 16.480468 64.234375 26.792968 100.433594 29.246094-12.429688-5.230469-11.898438-24.59375.785156-29.246094zm0 0" fill="#61b6ff"/><path d="m387.238281 86.226562c0-4.398437-3.578125-7.964843-7.988281-7.964843-5.714844 0-19.867188 0-38.742188 0-4.410156 0-7.988281 3.566406-7.988281 7.964843 0 4.402344 3.578125 7.96875 7.988281 7.96875h38.746094c4.40625 0 7.984375-3.566406 7.984375-7.96875zm0 0" fill="#e0f9fe"/><path d="m187.6875 108.503906h-28.441406v-14.308594h28.441406c-4.398438 0-7.964844-3.566406-7.964844-7.96875 0-4.398437 3.566406-7.964843 7.964844-7.964843h-59.265625l-42.980469-49.738281c-1.464844-1.683594-3.671875-2.757813-6.027344-2.757813h-7.152343v-17.800781c0-4.398438-3.566407-7.964844-7.964844-7.964844-4.402344 0-7.96875 3.566406-7.96875 7.964844v17.800781h-7.152344c-4.402343 0-7.96875 3.566406-7.96875 7.964844v82.738281c0 4.402344 3.566407 7.96875 7.96875 7.96875h138.507813c-4.398438-.003906-7.960938-3.570312-7.960938-7.96875s3.566406-7.964844 7.964844-7.964844zm-130.546875-66.804687h14.308594v36.5625h-14.308594zm35.121094 66.804687h-35.121094v-14.308594h35.121094zm-4.878907-30.242187v-23.125l19.984376 23.125c-6.855469 0-12.992188 0-19.984376 0zm55.933594 30.242187h-35.125v-14.308594h35.125zm0 0" fill="#83d3fc"/><path d="m410.015625 409.097656c-7.996094-12.222656-18.648437-22.660156-31.25-30.558594-4.628906-2.898437-8.980469-6.15625-13.03125-9.726562v15.53125c0 2.558594 1.320313 4.941406 3.492187 6.296875 10.9375 6.8125 20.066407 15.980469 26.816407 26.714844-1.167969-7.882813 7.816406-12.960938 13.972656-8.257813zm0 0" fill="#5294e5"/><path d="m198.472656 409.097656c7.996094-12.222656 18.648438-22.660156 31.25-30.558594 4.628906-2.898437 8.980469-6.15625 13.03125-9.726562v15.53125c0 2.558594-1.320312 4.941406-3.492187 6.296875-10.9375 6.8125-20.066407 15.980469-26.816407 26.714844 1.167969-7.882813-7.816406-12.960938-13.972656-8.257813zm0 0" fill="#5294e5"/></svg>