<svg height="512pt" viewBox="-11 0 512 512" width="512pt" xmlns="http://www.w3.org/2000/svg"><path d="m475.507812 350.171875c9.375-25.96875 14.492188-53.972656 14.492188-83.171875 0-135.308594-109.691406-245-245-245s-245 109.691406-245 245c0 29.199219 5.117188 57.203125 14.492188 83.171875zm0 0" fill="#9d4ad3"/><path d="m126.890625 481.6875c35.03125 19.3125 75.28125 30.3125 118.109375 30.3125s83.078125-11 118.109375-30.3125zm0 0" fill="#4374d3"/><path d="m233.023438 511.710938c-19.453126-.9375-18.632813-30.023438.84375-30.023438h-106.976563c33.207031 18.304688 71.105469 29.136719 111.441406 30.214844-1.773437-.046875-3.542969-.105469-5.308593-.191406zm0 0" fill="#3957c9"/><path d="m475.863281 308.621094v-269.527344c0-21.589844-17.503906-39.09375-39.09375-39.09375h-383.539062c-21.589844 0-39.09375 17.503906-39.09375 39.09375v310.078125c20.6875 58.113281 62.6875 106.105469 116.597656 134.585937h228.53125c53.910156-28.480468 95.910156-76.472656 116.59375-134.585937v-40.550781zm0 0" fill="#5294e5"/><path d="m103.5625 22.023438c.867188-1.152344.808594-2.734376-.105469-3.84375-9.222656-11.203126 1.820313-18.179688 1.820313-18.179688h-52.046875c-21.589844 0-39.09375 17.503906-39.09375 39.09375v310.078125c17.304687 48.605469 49.519531 90.121094 91.140625 119.070313v-432.542969c-5.933594-5.933594-3.683594-11.0625-1.714844-13.675781zm0 0" fill="#4374d3"/><path d="m447.921875 348.925781c0-6.828125-5.535156-12.363281-12.363281-12.363281h-381.117188c-6.828125 0-12.363281 5.535156-12.363281 12.363281v55.394531c13.09375 19.3125 28.871094 36.65625 46.800781 51.496094h312.242188c17.929687-14.839844 33.707031-32.183594 46.804687-51.496094v-55.394531zm0 0" fill="#61b6ff"/><path d="m105.277344 336.5625h-50.835938c-6.828125 0-12.363281 5.535156-12.363281 12.363281v55.394531c13.09375 19.3125 28.871094 36.65625 46.800781 51.496094h16.402344v-119.253906zm0 0" fill="#5294e5"/><path d="m54.441406 280.683594h381.117188c6.828125 0 12.363281-5.535156 12.363281-12.363282v-228.015624c0-6.828126-5.535156-12.367188-12.363281-12.367188h-381.117188c-6.828125 0-12.363281 5.539062-12.363281 12.367188v228.015624c0 6.828126 5.535156 12.363282 12.363281 12.363282zm0 0" fill="#1d319b"/><path d="m105.277344 27.9375h-50.835938c-6.828125 0-12.363281 5.539062-12.363281 12.367188v228.015624c0 6.828126 5.535156 12.363282 12.363281 12.363282h50.835938zm0 0" fill="#162680"/><path d="m435.558594 27.9375h-381.117188c-6.828125 0-12.363281 5.539062-12.363281 12.367188v39.285156h405.84375v-39.285156c0-6.828126-5.535156-12.367188-12.363281-12.367188zm0 0" fill="#4374d3"/><path d="m105.277344 27.9375h-50.835938c-6.828125 0-12.363281 5.539062-12.363281 12.367188v39.28125h63.199219zm0 0" fill="#3957c9"/><path d="m439.539062 320.523438h-38.09375c-4.289062 0-7.761718-3.476563-7.761718-7.761719 0-4.289063 3.472656-7.761719 7.761718-7.761719h38.09375c4.285157 0 7.761719 3.472656 7.761719 7.761719 0 4.285156-3.476562 7.761719-7.761719 7.761719zm0 0" fill="#61b6ff"/><path d="m420.492188 65.589844h-54.765626c-4.289062 0-7.761718-3.476563-7.761718-7.761719 0-4.289063 3.472656-7.761719 7.761718-7.761719h54.765626c4.285156 0 7.761718 3.472656 7.761718 7.761719 0 4.285156-3.476562 7.761719-7.761718 7.761719zm0 0" fill="#5294e5"/><path d="m307.085938 65.589844h-125.117188c-4.285156 0-7.761719-3.476563-7.761719-7.761719 0-4.289063 3.476563-7.761719 7.761719-7.761719h125.117188c4.289062 0 7.761718 3.472656 7.761718 7.761719 0 4.285156-3.476562 7.761719-7.761718 7.761719zm0 0" fill="#5294e5"/><path d="m88.554688 320.523438h-35.503907c-4.289062 0-7.761719-3.476563-7.761719-7.761719 0-4.289063 3.472657-7.761719 7.761719-7.761719h35.503907c4.285156 0 7.761718 3.472656 7.761718 7.761719 0 4.285156-3.476562 7.761719-7.761718 7.761719zm0 0" fill="#61b6ff"/><path d="m179.496094 376.789062h42.847656v38.34375h-42.847656zm0 0" fill="#b9e9fd"/><path d="m66.34375 371.1875c-5.65625 0-10.335938-4.613281-10.335938-10.347656 0-6.59375 6.0625-11.425782 12.367188-10.152344 4.910156.996094 8.316406 5.253906 8.316406 10.152344 0 5.742187-4.679687 10.347656-10.347656 10.347656zm0 0" fill="#61b6ff"/><path d="m423.644531 371.1875c-5.734375 0-10.347656-4.703125-10.347656-10.347656 0-6.707032 6.1875-11.40625 12.375-10.152344 5.046875 1.023438 8.332031 5.421875 8.332031 10.152344 0 5.6875-4.671875 10.347656-10.359375 10.347656zm0 0" fill="#83d3fc"/><path d="m425.671875 421.394531c-6.34375-1.28125-12.367187 3.59375-12.367187 10.152344 0 3.742187 1.972656 6.949219 4.867187 8.761719 4.792969-4.789063 9.371094-9.78125 13.753906-14.949219-1.480469-1.980469-3.660156-3.4375-6.253906-3.964844zm0 0" fill="#83d3fc"/><path d="m75.347656 66.105469c-4.566406 0-8.277344-3.710938-8.277344-8.277344 0-5.335937 4.921876-9.117187 9.894532-8.121094 4.105468.878907 6.664062 4.386719 6.664062 8.121094-.003906 4.523437-3.707031 8.277344-8.28125 8.277344zm0 0" fill="#f6159c"/><path d="m104.09375 66.105469c-4.527344 0-8.277344-3.675781-8.277344-8.277344 0-4.53125 3.675782-8.277344 8.277344-8.277344 4.617188 0 8.277344 3.765625 8.277344 8.277344 0 4.539063-3.710938 8.277344-8.277344 8.277344zm0 0" fill="#fbb362"/><path d="m132.839844 66.105469c-4.492188 0-8.277344-3.648438-8.277344-8.277344 0-4.617187 3.75-8.277344 8.277344-8.277344 4.578125 0 8.277344 3.707031 8.277344 8.277344 0 2.171875-.878907 4.3125-2.421876 5.847656-1.582031 1.582031-3.726562 2.429688-5.855468 2.429688zm0 0" fill="#48d85c"/><path d="m68.375 421.394531c-4.070312-.820312-8.003906.894531-10.300781 3.960938 4.382812 5.167969 8.960937 10.164062 13.753906 14.953125 2.910156-1.828125 4.867187-5.058594 4.867187-8.761719-.003906-4.902344-3.421874-9.15625-8.320312-10.152344zm0 0" fill="#61b6ff"/><path d="m302.773438 422.894531c-4.285157 0-7.757813-3.472656-7.757813-7.761719v-38.34375c0-4.289062 3.472656-7.761718 7.757813-7.761718 4.289062 0 7.761718 3.472656 7.761718 7.761718v38.34375c0 4.289063-3.472656 7.761719-7.761718 7.761719zm0 0" fill="#48d85c"/><path d="m341.753906 422.894531c-4.289062 0-7.761718-3.472656-7.761718-7.761719v-38.34375c0-4.289062 3.472656-7.761718 7.761718-7.761718 4.285156 0 7.757813 3.472656 7.757813 7.761718v38.34375c0 4.289063-3.472657 7.761719-7.757813 7.761719zm0 0" fill="#f948b4"/><path d="m380.730469 422.894531c-4.289063 0-7.761719-3.472656-7.761719-7.761719v-38.34375c0-4.289062 3.472656-7.761718 7.761719-7.761718 4.285156 0 7.757812 3.472656 7.757812 7.761718v38.34375c0 4.289063-3.472656 7.761719-7.757812 7.761719zm0 0" fill="#fbb362"/><path d="m387.28125 392.441406h-13.191406c-4.289063 0-7.761719-3.476562-7.761719-7.761718 0-4.289063 3.472656-7.761719 7.761719-7.761719h13.191406c4.289062 0 7.761719 3.472656 7.761719 7.761719 0 4.285156-3.472657 7.761718-7.761719 7.761718zm0 0" fill="#face7a"/><path d="m348.347656 403.949219h-13.191406c-4.289062 0-7.761719-3.472657-7.761719-7.757813 0-4.289062 3.472657-7.761718 7.761719-7.761718h13.191406c4.289063 0 7.761719 3.472656 7.761719 7.761718 0 4.285156-3.472656 7.757813-7.761719 7.757813zm0 0" fill="#f6159c"/><path d="m309.371094 415.003906h-13.191406c-4.289063 0-7.761719-3.476562-7.761719-7.761718 0-4.289063 3.472656-7.761719 7.761719-7.761719h13.191406c4.285156 0 7.761718 3.472656 7.761718 7.761719 0 4.285156-3.476562 7.761718-7.761718 7.761718zm0 0" fill="#a2ec00"/><path d="m375.851562 125.964844h-31.023437c-4.285156 0-7.761719-3.472656-7.761719-7.761719 0-4.285156 3.476563-7.757813 7.761719-7.757813h31.023437c4.289063 0 7.761719 3.472657 7.761719 7.757813 0 4.289063-3.472656 7.761719-7.761719 7.761719zm0 0" fill="#4374d3"/><path d="m360.339844 118.203125c0-4.285156 3.476562-7.757813 7.761718-7.757813h-23.273437c-4.285156 0-7.761719 3.472657-7.761719 7.757813 0 4.289063 3.476563 7.761719 7.761719 7.761719h23.273437c-4.285156 0-7.761718-3.472656-7.761718-7.761719zm0 0" fill="#3957c9"/><g fill="#4374d3"><path d="m406.878906 156.628906h-62.050781c-4.285156 0-7.761719-3.472656-7.761719-7.761718 0-4.285157 3.476563-7.757813 7.761719-7.757813h62.050781c4.285156 0 7.757813 3.472656 7.757813 7.757813 0 4.289062-3.472657 7.761718-7.757813 7.761718zm0 0"/><path d="m406.878906 187.296875h-62.050781c-4.285156 0-7.761719-3.476563-7.761719-7.761719 0-4.289062 3.476563-7.761718 7.761719-7.761718h62.050781c4.285156 0 7.757813 3.472656 7.757813 7.761718 0 4.285156-3.472657 7.761719-7.757813 7.761719zm0 0"/><path d="m406.878906 217.960938h-62.050781c-4.285156 0-7.761719-3.476563-7.761719-7.761719 0-4.289063 3.476563-7.761719 7.761719-7.761719h62.050781c4.285156 0 7.757813 3.472656 7.757813 7.761719 0 4.285156-3.472657 7.761719-7.757813 7.761719zm0 0"/><path d="m406.878906 248.625h-62.050781c-4.285156 0-7.761719-3.476562-7.761719-7.761719 0-4.289062 3.476563-7.761719 7.761719-7.761719h62.050781c4.285156 0 7.757813 3.472657 7.757813 7.761719 0 4.285157-3.472657 7.761719-7.757813 7.761719zm0 0"/></g><path d="m375.851562 148.871094c0-4.289063 3.476563-7.761719 7.761719-7.761719h-38.785156c-4.285156 0-7.761719 3.472656-7.761719 7.761719 0 4.285156 3.476563 7.761718 7.761719 7.761718h38.785156c-4.285156-.003906-7.761719-3.476562-7.761719-7.761718zm0 0" fill="#3957c9"/><path d="m375.851562 179.535156c0-4.289062 3.476563-7.761718 7.761719-7.761718h-38.785156c-4.285156 0-7.761719 3.472656-7.761719 7.761718 0 4.285156 3.476563 7.761719 7.761719 7.761719h38.785156c-4.285156 0-7.761719-3.476563-7.761719-7.761719zm0 0" fill="#3957c9"/><path d="m375.851562 210.199219c0-4.289063 3.476563-7.761719 7.761719-7.761719h-38.785156c-4.285156 0-7.761719 3.472656-7.761719 7.761719 0 4.285156 3.476563 7.761719 7.761719 7.761719h38.785156c-4.285156 0-7.761719-3.476563-7.761719-7.761719zm0 0" fill="#3957c9"/><path d="m375.851562 240.863281c0-4.289062 3.476563-7.761719 7.761719-7.761719h-38.785156c-4.285156 0-7.761719 3.472657-7.761719 7.761719 0 4.285157 3.476563 7.761719 7.761719 7.761719h38.785156c-4.285156 0-7.761719-3.476562-7.761719-7.761719zm0 0" fill="#3957c9"/><path d="m123.714844 236.445312c-8.824219 0-14.996094-2.96875-18.398438-8.859374-7.058594-12.222657 4.601563-25.335938 8.433594-29.644532 6.878906-7.734375 17.277344-16.640625 30.074219-25.753906 5.273437-3.753906 12.585937-2.527344 16.339843 2.746094 3.757813 5.273437 2.527344 12.589844-2.746093 16.34375-13.25 9.4375-21.253907 16.832031-25.800781 21.855468 4.351562 1.25 7.761718 4.972657 8.386718 9.746094.835938 6.417969-3.6875 12.300782-10.101562 13.136719-2.1875.285156-4.253906.429687-6.1875.429687zm0 0" fill="#c78fe8"/><path d="m206 161.332031c-4.429688 0-8.664062-2.523437-10.644531-6.804687-2.714844-5.871094-.15625-12.835938 5.71875-15.554688 14.589843-6.746094 27.792969-11.476562 38.1875-13.683594 6.324219-1.347656 12.550781 2.699219 13.894531 9.027344 1.34375 6.332032-2.699219 12.554688-9.027344 13.898438-8.582031 1.820312-20.382812 6.09375-33.21875 12.03125-1.59375.734375-3.265625 1.085937-4.910156 1.085937zm0 0" fill="#c78fe8"/><path d="m225.957031 155.378906c-12.695312-21.988281-40.808593-29.523437-62.796875-16.828125-21.988281 12.695313-29.523437 40.8125-16.828125 62.800781 12.695313 21.988282 40.8125 29.519532 62.800781 16.824219 21.988282-12.695312 29.519532-40.808593 16.824219-62.796875zm0 0" fill="#f948b4"/><path d="m223.539062 198.285156c-17.191406 9.925782-39.171874 4.035156-49.097656-13.15625-9.925781-17.191406-4.035156-39.171875 13.15625-49.097656 2.101563-1.214844 4.28125-2.1875 6.496094-2.9375-10.265625-1.808594-21.199219-.15625-30.929688 5.460938-21.988281 12.695312-29.523437 40.8125-16.828124 62.800781 12.695312 21.988281 40.8125 29.523437 62.800781 16.828125 9.730469-5.621094 16.625-14.261719 20.195312-24.054688-1.757812 1.542969-3.6875 2.941406-5.792969 4.15625zm0 0" fill="#f6159c"/><path d="m128.367188 236.117188c-5.792969 0-10.832032-4.300782-11.601563-10.203126-.839844-6.414062 3.679687-12.296874 10.097656-13.136718 13.964844-1.824219 39.101563-12.308594 64.046875-26.710938 26.011719-15.019531 42.902344-28.792968 51.332032-37.609375-5.652344.246094-10.800782-3.574219-12.011719-9.273437-1.339844-6.332032 2.703125-12.550782 9.035156-13.894532 5.753906-1.222656 23.265625-4.9375 30.398437 7.414063 7.652344 13.257813-5.898437 28.054687-16.753906 38.027344-12.46875 11.453125-30.324218 24.109375-50.28125 35.632812-28.246094 16.304688-55.433594 27.390625-72.726562 29.652344-.515625.066406-1.027344.101563-1.535156.101563zm0 0" fill="#dcb1f3"/><path d="m435.558594 288.445312h-381.117188c-11.097656 0-20.125-9.03125-20.125-20.128906v-228.011718c0-11.097657 9.027344-20.125 20.125-20.125h381.117188c11.097656 0 20.125 9.027343 20.125 20.125v228.015624c0 11.097657-9.027344 20.125-20.125 20.125zm-381.117188-252.746093c-2.539062 0-4.601562 2.066406-4.601562 4.605469v228.015624c0 2.535157 2.0625 4.601563 4.601562 4.601563h381.117188c2.539062 0 4.601562-2.066406 4.601562-4.601563v-228.015624c0-2.539063-2.0625-4.605469-4.601562-4.605469zm0 0" fill="#61b6ff"/><path d="m251.128906 415.132812h-30.816406v-38.34375h30.816406c4.15625 0 7.527344 3.371094 7.527344 7.527344v23.289063c0 4.15625-3.371094 7.527343-7.527344 7.527343zm0 0" fill="#83d3fc"/><path d="m140.664062 376.789062h41.304688v38.34375h-41.304688zm0 0" fill="#83d3fc"/><path d="m143.621094 415.132812h-30.8125c-4.160156 0-7.53125-3.371093-7.53125-7.527343v-23.289063c0-4.15625 3.371094-7.527344 7.53125-7.527344h30.8125zm0 0" fill="#b9e9fd"/><path d="m105.277344 272.921875h-50.835938c-2.539062 0-4.601562-2.066406-4.601562-4.601563v-228.015624c0-2.539063 2.0625-4.605469 4.601562-4.605469h50.835938c-5.929688-5.933594-3.683594-11.0625-1.714844-13.675781.414062-.550782.609375-1.199219.609375-1.84375h-49.730469c-11.097656 0-20.125 9.027343-20.125 20.125v228.015624c0 11.097657 9.027344 20.125 20.125 20.125h50.835938c-10.101563-7.65625 0-15.523437 0-15.523437zm0 0" fill="#5294e5"/></svg>