<svg height="512pt" viewBox="-11 0 512 512.00032" width="512pt" xmlns="http://www.w3.org/2000/svg"><path d="m429.6875 427.976562c37.558594-43.054687 60.3125-99.355468 60.3125-160.976562 0-135.3125-109.691406-245-245-245s-245 109.691406-245 245c0 61.621094 22.753906 117.921875 60.3125 160.976562zm0 0" fill="#f6159c"/><path d="m292.492188 387.652344c-14.53125-3.386719-26.25-14.359375-30.582032-28.632813l-29.609375-97.542969c-29.386719-7.144531-51.28125-33.667968-51.28125-65.222656 0-37.019531 30.117188-67.132812 67.132813-67.132812 13.605468 0 26.269531 4.078125 36.859375 11.0625l132.613281-62.269532c-42.175781-47.683593-103.757812-77.796874-172.394531-77.914062-126.792969-.210938-230.558594 102.960938-231.039063 229.753906-.191406 50.871094 16.09375 97.925782 43.816406 136.148438 11.132813 15.347656 17.421876 33.652344 17.671876 52.589844.007812 0 .015624-.003907.023437-.003907h338.269531v-3.273437c-1.949218.027344-4.042968-.195313-6.273437-.714844zm0 0" fill="#e0f9fe"/><path d="m241.039062 295.097656 1.429688-.125-10.167969-33.496094c-29.386719-7.144531-51.28125-33.667968-51.28125-65.222656 0-27.890625 17.101563-51.855468 41.363281-61.980468l-1.1875-1.046876c-89.753906-40.246093-47.980468-121.164062-47.589843-121.914062-92.035157 30.054688-159.027344 116.621094-159.414063 218.441406-.191406 50.871094 16.09375 97.925782 43.816406 136.148438 143.636719 46.625 183.03125-70.804688 183.03125-70.804688zm0 0" fill="#b9e9fd"/><path d="m446.542969 110.996094c-.507813.289062-1.027344.5625-1.570313.8125l-133.609375 61.851562c2.53125 7.0625 3.921875 14.667969 3.921875 22.59375 0 27.746094-16.921875 51.617188-40.984375 61.832032l26.894531 88.601562.234376.769531 116.183593 28c4.390625 1.058594 7.765625 3.132813 10.238281 5.773438 16.546876-22.777344 34.570313-60.628907 42.996094-104.601563 8.175782-42.675781 9.957032-104.683594-24.304687-165.632812zm0 0" fill="#1d319b"/><path d="m390.507812 220.847656c-54-18-29.855468-68.457031-29.855468-68.457031l4.921875-3.828125-54.210938 25.097656c2.53125 7.0625 3.921875 14.667969 3.921875 22.59375 0 27.75-16.921875 51.617188-40.984375 61.832032l26.894531 88.601562.234376.769531 112.429687 27.097657c-64.554687-50.640626 21.386719-138.792969-23.351563-153.707032zm0 0" fill="#162680"/><path d="m328.066406 321.777344-.257812-.851563-25.726563-84.746093c-7.101562 9.566406-16.679687 17.191406-27.78125 21.90625l26.894531 88.601562.234376.765625 116.179687 28.003906c4.394531 1.058594 7.765625 3.132813 10.238281 5.773438.0625-.082031.121094-.167969.183594-.253907 10.316406-14.257812 2.742188-34.441406-14.363281-38.566406zm0 0" fill="#4374d3"/><path d="m306.417969 285.890625c4.585937 0 8.792969 1.632813 12.074219 4.34375l-16.410157-54.054687c-7.101562 9.566406-16.679687 17.191406-27.78125 21.90625l13.375 44.054687c1.316407-9.179687 9.191407-16.25 18.742188-16.25zm0 0" fill="#3957c9"/><path d="m417.941406 374.09375-115.402344-27.816406-26.949218-88.777344c-8.382813 3.769531-17.664063 5.886719-27.4375 5.886719-6.03125 0-11.875-.8125-17.441406-2.3125l29.855468 98.351562c4.480469 14.753907 16.589844 26.09375 31.605469 29.59375l115.210937 26.84375c29.355469 6.855469 37.6875-35.230469 10.558594-41.769531zm0 0" fill="#61b6ff"/><path d="m271.132812 292.332031c6.695313 0 12.757813 2.695313 17.171876 7.058594l-12.714844-41.890625c-8.382813 3.769531-17.664063 5.886719-27.4375 5.886719-6.03125 0-11.875-.8125-17.441406-2.3125l16.121093 53.109375c1.292969-12.28125 11.675781-21.851563 24.300781-21.851563zm0 0" fill="#5294e5"/><path d="m418.148438 76.117188-134.535157 63.171874c13.121094 8.195313 23.207031 20.792969 28.203125 35.707032l133.742188-61.910156c24.761718-11.464844 11.328125-55.15625-27.410156-36.96875zm0 0" fill="#61b6ff"/><path d="m338.308594 142.5c-7.207032-10.574219-4.859375-22.867188 2.816406-30.214844l-57.507812 27.003906c13.117187 8.195313 23.207031 20.789063 28.199218 35.707032l48.835938-22.605469c-8.535156 1.183594-17.277344-2.457031-22.34375-9.890625zm0 0" fill="#5294e5"/><path d="m73.652344 416.988281c-6.550782 0-12.105469 4.210938-14.144532 10.066407 6.042969 6.996093 12.480469 13.636718 19.265626 19.90625h332.453124c6.984376-6.453126 13.589844-13.300782 19.785157-20.519532-2.203125-5.535156-7.597657-9.453125-13.917969-9.453125zm0 0" fill="#b9e9fd"/><path d="m218.800781 416.988281h-145.148437c-6.550782 0-12.105469 4.210938-14.144532 10.066407 6.042969 6.996093 12.480469 13.636718 19.265626 19.90625h137.546874c.328126-1.757813-.058593-3.621094-1.183593-5.128907-11.578125-15.515625 3.664062-24.84375 3.664062-24.84375zm0 0" fill="#83d3fc"/><g fill="#face7a"><path d="m368.441406 79.488281c-5.175781 0-9.359375-4.214843-9.359375-9.355469 0-5.925781 5.441407-10.324218 11.191407-9.171874 4.554687.9375 7.523437 4.878906 7.523437 9.171874 0 5.179688-4.203125 9.355469-9.355469 9.355469zm0 0"/><path d="m328.574219 97.632812c-5.128907-1.039062-8.359375-6.007812-7.34375-11.003906 1.0625-5.238281 6.105469-8.332031 11.003906-7.34375 4.496094.917969 7.53125 4.824219 7.53125 9.171875 0 5.9375-5.488281 10.332031-11.191406 9.175781zm0 0"/><path d="m292.359375 116.136719c-5.183594 0-9.355469-4.246094-9.355469-9.359375 0-5.964844 5.484375-10.320313 11.191406-9.171875 4.171876.78125 7.523438 4.574219 7.523438 9.171875 0 5.144531-4.171875 9.359375-9.359375 9.359375zm0 0"/></g><path d="m316.6875 196.253906c0 37.851563-30.683594 68.535156-68.535156 68.535156-37.851563 0-68.535156-30.683593-68.535156-68.535156 0-37.851562 30.683593-68.535156 68.535156-68.535156 37.851562 0 68.535156 30.683594 68.535156 68.535156zm0 0" fill="#e0f9fe"/><path d="m179.617188 196.253906c0 37.851563 30.683593 68.535156 68.535156 68.535156 5.820312 0 11.472656-.730468 16.867187-2.097656-.332031-.351562-.714843-.660156-1.152343-.886718-13.925782-7.144532-11.035157-18.367188-8.460938-23.898438.816406-1.757812.339844-3.832031-1.144531-5.074219-3.117188-2.609375-2.96875-6.089843-2.261719-8.605469.511719-1.832031-.363281-3.738281-1.980469-4.746093-5.0625-3.148438-3.285156-7.9375-2.320312-9.808594.308593-.59375.453125-1.253906.453125-1.917969v-50.804687l-26.953125-23.71875c-24.449219 10.46875-41.582031 34.742187-41.582031 63.023437zm0 0" fill="#b9e9fd"/><path d="m280.441406 196.253906c0 17.832032-14.457031 32.289063-32.289062 32.289063-17.832032 0-32.285156-14.457031-32.285156-32.289063 0-17.832031 14.453124-32.285156 32.285156-32.285156 17.832031 0 32.289062 14.453125 32.289062 32.285156zm0 0" fill="#5294e5"/><path d="m248.152344 235.558594c-21.671875 0-39.304688-17.632813-39.304688-39.304688s17.632813-39.304687 39.304688-39.304687 39.308594 17.632812 39.308594 39.304687-17.636719 39.304688-39.308594 39.304688zm0-64.574219c-13.933594 0-25.265625 11.335937-25.265625 25.269531s11.335937 25.269532 25.265625 25.269532c13.933594 0 25.269531-11.335938 25.269531-25.269532s-11.335937-25.269531-25.269531-25.269531zm0 0" fill="#83d3fc"/><path d="m248.152344 235.558594c2.542968 0 5.027344-.25 7.4375-.714844-.238282-.761719-.683594-1.46875-1.328125-2.011719-3.117188-2.609375-2.96875-6.089843-2.265625-8.605469.285156-1.019531.132812-2.058593-.332032-2.953124-1.148437.160156-2.320312.246093-3.511718.246093-13.933594 0-25.265625-11.332031-25.265625-25.265625s11.332031-25.269531 25.265625-25.269531v-14.035156c-21.671875 0-39.304688 17.632812-39.304688 39.304687s17.632813 39.304688 39.304688 39.304688zm0 0" fill="#61b6ff"/><path d="m248.152344 208.886719c-6.976563 0-12.632813-5.65625-12.632813-12.632813v-67.132812c0-6.976563 5.65625-12.632813 12.632813-12.632813 6.976562 0 12.632812 5.65625 12.632812 12.632813v67.132812c0 6.976563-5.65625 12.632813-12.632812 12.632813zm0 0" fill="#83d3fc"/><path d="m248.152344 169.570312c-6.976563 0-12.632813-5.65625-12.632813-12.632812v39.316406c0 6.976563 5.65625 12.632813 12.632813 12.632813 6.976562 0 12.632812-5.65625 12.632812-12.632813v-39.316406c0 6.976562-5.65625 12.632812-12.632812 12.632812zm0 0" fill="#61b6ff"/><path d="m412.234375 446.027344h-334.46875c12.042969 11.253906 25.21875 21.3125 39.34375 29.972656h255.78125c14.125-8.660156 27.300781-18.71875 39.34375-29.972656zm0 0" fill="#83d3fc"/><path d="m216.417969 446.027344h-138.652344c12.042969 11.253906 25.21875 21.3125 39.34375 29.972656h102.535156c-.277343-.3125-.542969-.632812-.84375-.933594-11.246093-11.246094-7.5-20.402344-3.75-25.257812.863281-1.121094 1.3125-2.445313 1.367188-3.78125zm0 0" fill="#61b6ff"/><path d="m245 512c47.503906 0 91.839844-13.535156 129.386719-36.933594h-258.773438c37.550781 23.398438 81.882813 36.933594 129.386719 36.933594zm0 0" fill="#1d319b"/><path d="m218.800781 475.066406h-103.1875c29.925781 18.652344 64.167969 31.023438 100.886719 35.28125-21.894531-2.730468-19.890625-35.28125 2.300781-35.28125zm0 0" fill="#162680"/></svg>