<svg height="512pt" viewBox="-11 0 512 512" width="512pt" xmlns="http://www.w3.org/2000/svg"><path d="m245 22c-135.308594 0-245 109.6875-245 245 0 47.320312 13.417969 91.5 36.652344 128.953125 0 0 31.1875 40.222656 40.132812 49.148437 16.398438 15.488282 34.925782 28.746094 55.105469 39.265626h226.21875c78.375-40.867188 131.890625-122.859376 131.890625-217.367188 0-135.3125-109.691406-245-245-245zm0 0" fill="#162680"/><path d="m293.0625 52.257812c-4.359375 0-7.894531-3.535156-7.894531-7.898437v-36.464844c0-4.359375 3.535156-7.894531 7.894531-7.894531 4.363281 0 7.898438 3.535156 7.898438 7.894531v36.464844c0 4.363281-3.535157 7.898437-7.898438 7.898437zm0 0" fill="#fc7acd"/><path d="m309.113281 142.066406v-83.101562c0-8.742188-4.148437-16.507813-10.578125-21.457032-3.199218-2.464843-7.742187-2.464843-10.945312 0-6.429688 4.949219-10.574219 12.714844-10.574219 21.457032v83.101562zm0 0" fill="#f948b4"/><path d="m293.0625 66.402344c-7.585938 0-13.925781-5.269532-15.601562-12.34375-.289063 1.589844-.445313 3.230468-.445313 4.90625v83.101562h32.097656v-83.101562c0-1.679688-.152343-3.316406-.445312-4.90625-1.675781 7.074218-8.015625 12.34375-15.605469 12.34375zm0 0" fill="#f6159c"/><path d="m270.964844 142.066406 6.050781-27.042968h32.097656l6.050781 27.042968zm0 0" fill="#fc7acd"/><path d="m277.015625 115.023438-6.050781 27.042968h20.246094l3.28125-27.042968zm0 0" fill="#f948b4"/><path d="m270.964844 142.066406h44.199218v136.222656h-44.199218zm0 0" fill="#fadda0"/><path d="m293.0625 218.074219c-12.203125 0-22.097656-9.894531-22.097656-22.101563v82.316406h44.199218v-82.316406c0 12.207032-9.894531 22.101563-22.101562 22.101563zm0 0" fill="#face7a"/><path d="m312.933594 149.964844h-39.742188c-4.359375 0-7.894531-3.535156-7.894531-7.898438 0-4.359375 3.535156-7.894531 7.894531-7.894531h39.742188c4.363281 0 7.898437 3.535156 7.898437 7.894531 0 4.363282-3.535156 7.898438-7.898437 7.898438zm0 0" fill="#ffade5"/><path d="m287.398438 142.066406c0-4.359375 3.535156-7.894531 7.894531-7.894531h-22.101563c-4.359375 0-7.894531 3.535156-7.894531 7.894531 0 4.363282 3.535156 7.898438 7.894531 7.898438h22.101563c-4.359375 0-7.894531-3.535156-7.894531-7.898438zm0 0" fill="#fc7acd"/><path d="m262.242188 304.28125v39.132812c1.023437.304688 2 .789063 2.867187 1.5 6.710937 5.511719 11.203125 14.707032 11.203125 21.003907v26.609375c2.566406 1.675781 4.265625 4.570312 4.265625 7.863281v56.234375c5.878906 1.492188 10.265625 6.828125 10.265625 13.15625 0 7.472656-6.113281 13.585938-13.585938 13.585938h31.382813c-7.472656 0-13.585937-6.113282-13.585937-13.585938 0-6.324219 4.386718-11.664062 10.265624-13.15625v-56.234375c0-3.292969 1.699219-6.1875 4.265626-7.863281v-26.609375c0-6.296875 4.492187-15.492188 11.203124-21.007813.929688-.761718 1.992188-1.261718 3.097657-1.554687v-39.074219zm0 0" fill="#fadda0"/><path d="m295.054688 469.78125c0-6.324219 4.386718-11.664062 10.265624-13.15625v-34.390625c-2.53125 4.082031-7.039062 6.808594-12.195312 6.808594-5.398438 0-10.09375-2.984375-12.546875-7.390625v34.972656c5.878906 1.492188 10.265625 6.832031 10.265625 13.15625 0 7.472656-6.113281 13.585938-13.585938 13.585938h31.382813c-7.472656 0-13.585937-6.113282-13.585937-13.585938zm0 0" fill="#fc9949"/><path d="m262.242188 304.28125 8.722656-27.046875h44.199218l8.722657 27.046875zm0 0" fill="#fc7acd"/><path d="m270.964844 277.234375-8.722656 27.046875h28.21875l4.730468-27.046875zm0 0" fill="#f948b4"/><path d="m262.242188 304.28125h61.644531v30.859375h-61.644531zm0 0" fill="#f9ecc6"/><path d="m366.351562 231.195312c-43.242187 0-172.09375 0-227.25 0v15.972657h41.894532v14.34375h-41.894532v15.972656h203.417969c4.410157 0 7.988281-3.574219 7.988281-7.988281v-22.328125h15.84375c4.410157 0 7.988282-3.574219 7.988282-7.984375 0-4.414063-3.578125-7.988282-7.988282-7.988282zm-134.175781 30.316407h-35.207031v-14.34375h35.207031zm51.179688 0h-35.207031v-14.34375h35.207031zm51.179687 0h-35.210937v-14.34375h35.210937zm0 0" fill="#b9e9fd"/><path d="m126.421875 197.644531-82.066406-52.746093c-3.710938-2.386719-4.785157-7.328126-2.398438-11.039063 2.382813-3.707031 7.324219-4.78125 11.035157-2.398437l82.066406 52.746093c3.707031 2.386719 4.785156 7.328125 2.398437 11.039063-2.390625 3.714844-7.332031 4.78125-11.035156 2.398437zm0 0" fill="#61b6ff"/><path d="m126.421875 250.734375-82.066406-52.746094c-3.710938-2.386719-4.785157-7.328125-2.398438-11.035156 2.382813-3.710937 7.324219-4.789063 11.035157-2.402344l82.066406 52.746094c3.707031 2.386719 4.785156 7.324219 2.398437 11.035156-2.390625 3.714844-7.332031 4.78125-11.035156 2.402344zm0 0" fill="#61b6ff"/><path d="m126.421875 302.949219-82.066406-52.746094c-3.710938-2.386719-4.785157-7.324219-2.398438-11.035156 2.382813-3.710938 7.324219-4.785157 11.035157-2.402344l82.066406 52.746094c3.707031 2.386719 4.785156 7.328125 2.398437 11.035156-2.390625 3.71875-7.332031 4.78125-11.035156 2.402344zm0 0" fill="#61b6ff"/><path d="m126.421875 356.039062-82.066406-52.75c-3.710938-2.382812-4.785157-7.324218-2.398438-11.035156 2.382813-3.707031 7.324219-4.78125 11.035157-2.398437l82.066406 52.746093c3.707031 2.382813 4.785156 7.324219 2.398437 11.035157-2.390625 3.71875-7.332031 4.78125-11.035156 2.402343zm0 0" fill="#61b6ff"/><path d="m130.730469 410.050781c-1.476563 0-2.972657-.410156-4.308594-1.269531l-82.066406-52.746094c-3.710938-2.382812-4.785157-7.324218-2.398438-11.035156 2.382813-3.710938 7.324219-4.78125 11.035157-2.398438l82.066406 52.746094c6.71875 4.320313 3.570312 14.703125-4.328125 14.703125zm0 0" fill="#61b6ff"/><path d="m126.421875 461.203125-82.066406-52.742187c-3.710938-2.386719-4.785157-7.328126-2.398438-11.039063 2.382813-3.710937 7.324219-4.78125 11.035157-2.398437l82.066406 52.746093c3.707031 2.382813 4.785156 7.324219 2.398437 11.035157-2.390625 3.714843-7.332031 4.78125-11.035156 2.398437zm0 0" fill="#61b6ff"/><path d="m36.652344 395.953125c8.773437 14.144531 18.9375 27.328125 30.316406 39.359375v-312.699219c-10.402344 0-20.546875 0-30.316406 0zm0 0" fill="#83d3fc"/><path d="m112.445312 473.078125c8.742188 5.636719 17.871094 10.726563 27.332032 15.230469h2.984375v-365.695313c-10.207031 0-20.332031 0-30.316407 0zm0 0" fill="#83d3fc"/><path d="m36.652344 122.613281v104.523438c0-8.371094 6.785156-15.15625 15.160156-15.15625 8.371094 0 15.15625 6.785156 15.15625 15.15625v-104.523438c-10.402344 0-20.542969 0-30.316406 0zm0 0" fill="#61b6ff"/><path d="m112.445312 122.613281v104.523438c0-8.371094 6.785157-15.15625 15.15625-15.15625 8.371094 0 15.160157 6.785156 15.160157 15.15625v-104.523438c-10.207031 0-20.328125 0-30.316407 0zm0 0" fill="#61b6ff"/><g fill="#b9e9fd"><path d="m48.683594 198.914062c-2.628906 0-5.199219-1.296874-6.726563-3.667968-2.386719-3.710938-1.308593-8.652344 2.398438-11.039063l82.066406-52.746093c3.710937-2.382813 8.648437-1.308594 11.035156 2.398437 2.386719 3.710937 1.308594 8.652344-2.398437 11.039063l-82.066406 52.746093c-1.335938.859375-2.832032 1.269531-4.308594 1.269531zm0 0"/><path d="m48.683594 252.003906c-2.628906 0-5.199219-1.296875-6.726563-3.671875-2.386719-3.710937-1.308593-8.648437 2.398438-11.035156l82.066406-52.746094c3.710937-2.382812 8.648437-1.3125 11.035156 2.398438 2.386719 3.710937 1.308594 8.652343-2.398437 11.035156l-82.066406 52.746094c-1.335938.859375-2.832032 1.273437-4.308594 1.273437zm0 0"/><path d="m48.683594 304.21875c-2.628906 0-5.199219-1.296875-6.726563-3.671875-2.386719-3.707031-1.308593-8.648437 2.398438-11.035156l82.066406-52.746094c3.710937-2.382813 8.648437-1.3125 11.035156 2.402344 2.386719 3.710937 1.308594 8.648437-2.398437 11.035156l-82.066406 52.746094c-1.335938.859375-2.832032 1.269531-4.308594 1.269531zm0 0"/><path d="m48.683594 357.308594c-2.628906 0-5.199219-1.296875-6.726563-3.671875-2.386719-3.710938-1.308593-8.648438 2.398438-11.035157l82.066406-52.746093c3.710937-2.382813 8.648437-1.3125 11.035156 2.398437 2.386719 3.710938 1.308594 8.652344-2.398437 11.035156l-82.066406 52.75c-1.335938.855469-2.832032 1.269532-4.308594 1.269532zm0 0"/><path d="m48.683594 410.050781c-2.628906 0-5.199219-1.292969-6.726563-3.667969-2.386719-3.710937-1.308593-8.652343 2.398438-11.035156l82.066406-52.746094c3.710937-2.382812 8.648437-1.3125 11.035156 2.402344 2.386719 3.707032 1.308594 8.648438-2.398437 11.035156l-82.066406 52.746094c-1.335938.855469-2.832032 1.265625-4.308594 1.265625zm0 0"/><path d="m137.457031 398.089844c-2.386719-3.710938-7.324219-4.785156-11.035156-2.402344l-60.273437 38.742188c3.726562 3.976562 7.582031 7.832031 11.566406 11.554687l57.34375-36.859375c3.707031-2.382812 4.785156-7.324219 2.398437-11.035156zm0 0"/><path d="m367.5625 78.453125c-25.566406 0-219.746094 0-251.464844 0l-43.085937-49.859375c-1.472657-1.691406-3.683594-2.765625-6.042969-2.765625h-7.171875v-17.84375c0-4.410156-3.574219-7.984375-7.984375-7.984375s-7.988281 3.574219-7.988281 7.984375v17.84375h-7.171875c-4.410156 0-7.984375 3.574219-7.984375 7.988281v82.941406c0 4.410157 3.574219 7.984376 7.984375 7.984376h307.078125c4.410156 0 7.984375-3.574219 7.984375-7.984376v-22.332031h15.847656c4.410156 0 7.984375-3.574219 7.984375-7.984375 0-4.414062-3.574219-7.988281-7.984375-7.988281zm-292.609375 0v-23.183594l20.035156 23.183594c-6.871093 0-13.023437 0-20.035156 0zm-30.3125 0v-36.652344h14.34375v36.652344zm0 15.972656h35.207031v14.34375h-35.207031zm51.175781 0h35.210938v14.34375h-35.210938zm51.179688 0h35.210937v14.34375h-35.210937zm51.179687 0h35.210938v14.34375h-35.210938zm51.179688 0h35.210937v14.34375h-35.210937zm86.386719 14.34375h-35.207032v-14.34375h35.207032zm0 0"/></g><path d="m321.777344 312.175781h-57.429688c-4.359375 0-7.894531-3.535156-7.894531-7.894531s3.535156-7.894531 7.894531-7.894531h57.429688c4.363281 0 7.898437 3.535156 7.898437 7.894531s-3.535156 7.894531-7.898437 7.894531zm0 0" fill="#ffade5"/><path d="m287.273438 304.28125c0-4.359375 3.535156-7.894531 7.898437-7.894531h-30.824219c-4.359375 0-7.894531 3.535156-7.894531 7.894531s3.535156 7.894531 7.894531 7.894531h30.824219c-4.363281 0-7.898437-3.535156-7.898437-7.894531zm0 0" fill="#fc7acd"/><path d="m312.609375 392.050781h22.550781c1.894532 0 3.65625.5625 5.128906 1.527344v-27.660156c0-6.296875-4.492187-15.492188-11.203124-21.007813-3.023438-2.480468-7.378907-2.480468-10.402344 0-6.710938 5.511719-11.207032 14.707032-11.207032 21.007813v27.660156c1.476563-.964844 3.238282-1.527344 5.132813-1.527344zm0 0" fill="#83d3fc"/><path d="m323.886719 387.1875v-21.269531c0-6.214844 2.1875-15.238281 5.46875-20.773438-.089844-.074219-.175781-.15625-.269531-.230469-3.023438-2.484374-7.375-2.484374-10.402344 0-6.710938 5.511719-11.203125 14.707032-11.203125 21.003907v27.660156c1.472656-.964844 3.234375-1.527344 5.128906-1.527344h13.8125c-1.386719.015625-2.535156-2.09375-2.535156-4.863281zm0 0" fill="#5294e5"/><path d="m335.160156 390.996094h-22.550781c-5.1875 0-9.394531 4.207031-9.394531 9.394531v59.898437h41.339844v-59.898437c0-5.1875-4.207032-9.394531-9.394532-9.394531zm0 0" fill="#61b6ff"/><path d="m328.582031 390.996094h-15.972656c-5.191406 0-9.394531 4.207031-9.394531 9.394531v59.902344h20.667968v-59.902344c.003907-5.1875 2.105469-9.394531 4.699219-9.394531zm0 0" fill="#5294e5"/><path d="m341.234375 456.195312h-34.699219c-7.472656 0-13.585937 6.113282-13.585937 13.585938s6.113281 13.585938 13.585937 13.585938h34.699219c7.472656 0 13.585937-6.113282 13.585937-13.585938s-6.113281-13.585938-13.585937-13.585938zm0 0" fill="#face7a"/><path d="m310.78125 469.78125c0-7.472656 6.117188-13.585938 13.585938-13.585938h-17.832032c-7.472656 0-13.585937 6.113282-13.585937 13.585938s6.113281 13.585938 13.585937 13.585938h17.832032c-7.46875 0-13.585938-6.113282-13.585938-13.585938zm0 0" fill="#fbb362"/><path d="m172.363281 108.769531h-25.367187v-14.34375h25.367187c-4.410156 0-7.984375-3.578125-7.984375-7.984375 0-4.414062 3.574219-7.988281 7.988282-7.988281h-56.269532l-43.085937-49.859375c-1.46875-1.691406-3.683594-2.765625-6.039063-2.765625h-7.171875v-17.84375c-.003906-4.410156-3.578125-7.984375-7.988281-7.984375s-7.988281 3.574219-7.988281 7.984375v17.84375h-7.171875c-4.410156 0-7.984375 3.574219-7.984375 7.988281v82.941406c0 4.410157 3.574219 7.984376 7.984375 7.984376h135.707031c-4.40625-.003907-7.980469-3.578126-7.980469-7.984376 0-4.410156 3.574219-7.988281 7.984375-7.988281zm-127.722656-66.96875h14.34375v36.652344h-14.34375zm35.207031 66.96875h-35.207031v-14.34375h35.207031zm-4.894531-30.316406v-23.183594l20.035156 23.183594c-6.871093 0-13.023437 0-20.035156 0zm56.074219 30.316406h-35.210938v-14.34375h35.210938zm0 0" fill="#83d3fc"/><path d="m165.378906 239.183594c0-4.414063 3.574219-7.988282 7.984375-7.988282-13.0625 0-24.757812 0-34.261719 0v15.972657h34.261719c-4.410156 0-7.984375-3.574219-7.984375-7.984375zm0 0" fill="#83d3fc"/><path d="m165.378906 269.496094c0-4.410156 3.574219-7.984375 7.984375-7.984375h-34.261719v15.972656h34.261719c-4.410156 0-7.984375-3.574219-7.984375-7.988281zm0 0" fill="#83d3fc"/><path d="m375.546875 86.441406c0-4.414062-3.574219-7.988281-7.984375-7.988281-5.71875 0-19.871094 0-38.746094 0-4.410156 0-7.984375 3.574219-7.984375 7.988281 0 4.410156 3.574219 7.984375 7.984375 7.984375h38.746094c4.410156 0 7.984375-3.574219 7.984375-7.984375zm0 0" fill="#e0f9fe"/><path d="m374.339844 239.183594c0-4.414063-3.578125-7.988282-7.988282-7.988282-5.714843 0-19.867187 0-38.742187 0-4.410156 0-7.988281 3.574219-7.988281 7.988282 0 4.410156 3.574218 7.984375 7.988281 7.984375h38.742187c4.410157 0 7.988282-3.574219 7.988282-7.984375zm0 0" fill="#e0f9fe"/><path d="m251.089844 392.050781h22.550781c1.894531 0 3.65625.5625 5.128906 1.527344v-27.660156c0-6.296875-4.492187-15.492188-11.203125-21.007813-3.023437-2.480468-7.378906-2.480468-10.402344 0-6.710937 5.511719-11.207031 14.707032-11.207031 21.007813v27.660156c1.476563-.964844 3.238281-1.527344 5.132813-1.527344zm0 0" fill="#83d3fc"/><path d="m262.367188 387.1875v-21.269531c0-6.214844 2.1875-15.238281 5.46875-20.773438-.089844-.074219-.175782-.15625-.269532-.230469-3.023437-2.484374-7.375-2.484374-10.402344 0-6.710937 5.511719-11.203124 14.707032-11.203124 21.003907v27.660156c1.472656-.964844 3.234374-1.527344 5.128906-1.527344h13.8125c-1.386719.015625-2.535156-2.09375-2.535156-4.863281zm0 0" fill="#5294e5"/><path d="m273.640625 390.996094h-22.550781c-5.1875 0-9.394532 4.207031-9.394532 9.394531v59.898437h41.339844v-59.898437c0-5.1875-4.207031-9.394531-9.394531-9.394531zm0 0" fill="#61b6ff"/><path d="m267.0625 390.996094h-15.972656c-5.191406 0-9.394532 4.207031-9.394532 9.394531v59.902344h20.667969v-59.902344c.003907-5.1875 2.105469-9.394531 4.699219-9.394531zm0 0" fill="#5294e5"/><path d="m279.714844 456.195312h-34.699219c-7.472656 0-13.585937 6.113282-13.585937 13.585938s6.113281 13.585938 13.585937 13.585938h34.699219c7.472656 0 13.585937-6.113282 13.585937-13.585938s-6.113281-13.585938-13.585937-13.585938zm0 0" fill="#face7a"/><path d="m249.261719 469.78125c0-7.472656 6.117187-13.585938 13.585937-13.585938h-17.832031c-7.472656 0-13.585937 6.113282-13.585937 13.585938s6.113281 13.585938 13.585937 13.585938h17.832031c-7.46875 0-13.585937-6.113282-13.585937-13.585938zm0 0" fill="#fbb362"/><path d="m245 512c41.566406 0 80.710938-10.367188 115.003906-28.632812h-230.007812c34.292968 18.265624 73.4375 28.632812 115.003906 28.632812zm0 0" fill="#b9e9fd"/><path d="m260.066406 483.367188h-130.070312c34.292968 18.265624 73.4375 28.632812 115.003906 28.632812 4.46875 0 8.90625-.128906 13.316406-.363281-17.367187-1.785157-16.324218-28.269531 1.75-28.269531zm0 0" fill="#61b6ff"/></svg>