<?xml version="1.0" encoding="UTF-8"?>
<svg xmlns="http://www.w3.org/2000/svg" viewBox="0 0 70 70">
  <circle cx="35" cy="35" r="32" stroke="#90CDF4" stroke-width="6" fill="transparent"/>
  <path d="M35.6992 17.5264C37.571 17.5264 39.3369 17.8438 40.9971 18.4785C42.6735 19.1133 44.1383 19.9922 45.3916 21.1152C46.6449 22.2383 47.597 23.5404 48.248 25.0215C48.3945 25.347 48.4678 25.6807 48.4678 26.0225C48.4678 26.6898 48.2236 27.2676 47.7354 27.7559C47.2633 28.2279 46.6937 28.4639 46.0264 28.4639C45.5869 28.4639 45.1475 28.3255 44.708 28.0488C44.2686 27.7559 43.9593 27.4059 43.7803 26.999C43.1618 25.5993 42.1283 24.4844 40.6797 23.6543C39.2474 22.8242 37.5872 22.4092 35.6992 22.4092C34.7715 22.4092 33.7868 22.5231 32.7451 22.751C31.7197 22.9788 30.7513 23.3288 29.8398 23.8008C28.9284 24.2565 28.1878 24.8343 27.6182 25.5342C27.0485 26.234 26.7637 27.0479 26.7637 27.9756C26.7637 28.7243 27.0078 29.3753 27.4961 29.9287C27.9844 30.4658 28.5296 30.889 29.1318 31.1982C30.5479 31.8981 32.1104 32.3864 33.8193 32.6631C35.5446 32.9398 37.2861 33.2083 39.0439 33.4688C40.8018 33.7292 42.4375 34.1849 43.9512 34.8359C44.9115 35.2428 45.8311 35.8044 46.71 36.5205C47.5889 37.2367 48.305 38.1074 48.8584 39.1328C49.4118 40.1582 49.6885 41.3626 49.6885 42.7461C49.6885 44.5365 49.2572 46.1071 48.3945 47.458C47.5319 48.8089 46.4007 49.932 45.001 50.8271C43.6012 51.7223 42.0794 52.3978 40.4355 52.8535C38.8079 53.293 37.2129 53.5127 35.6504 53.5127C33.5345 53.5127 31.5488 53.179 29.6934 52.5117C27.8379 51.8281 26.2184 50.8678 24.835 49.6309C23.4515 48.3776 22.3936 46.9128 21.6611 45.2363C21.5146 44.9108 21.4414 44.5853 21.4414 44.2598C21.4414 43.5924 21.6774 43.0228 22.1494 42.5508C22.6377 42.0625 23.2155 41.8184 23.8828 41.8184C24.3385 41.8184 24.7861 41.9648 25.2256 42.2578C25.665 42.5345 25.9661 42.8844 26.1289 43.3076C26.8451 44.9515 28.0576 46.2536 29.7666 47.2139C31.4756 48.1579 33.4368 48.6299 35.6504 48.6299C37.0339 48.6299 38.4255 48.4264 39.8252 48.0195C41.2249 47.5964 42.3968 46.9535 43.3408 46.0908C44.3011 45.2119 44.7812 44.097 44.7812 42.7461C44.7812 41.8835 44.4883 41.1755 43.9023 40.6221C43.3327 40.0524 42.7061 39.6211 42.0225 39.3281C40.4762 38.6608 38.8242 38.2051 37.0664 37.9609C35.3086 37.7005 33.5589 37.432 31.8174 37.1553C30.0758 36.8623 28.4482 36.3333 26.9346 35.5684C25.6488 34.9173 24.4769 33.9733 23.4189 32.7363C22.3773 31.4831 21.8564 29.8962 21.8564 27.9756C21.8564 26.2829 22.2633 24.7936 23.0771 23.5078C23.9072 22.2057 24.9977 21.1152 26.3486 20.2363C27.7158 19.3411 29.2132 18.6657 30.8408 18.21C32.4684 17.7542 34.0879 17.5264 35.6992 17.5264Z" fill="#90CDF4"/>
</svg>
