<?xml version="1.0" encoding="UTF-8"?>
<svg version="1.1" xmlns="http://www.w3.org/2000/svg" width="600" height="600">
<path d="M0 0 C198 0 396 0 600 0 C600 198 600 396 600 600 C402 600 204 600 0 600 C0 402 0 204 0 0 Z " fill="#2998FF" transform="translate(0,0)"/>
<path d="M0 0 C1.46354702 1.24389157 2.92251908 2.49320436 4.375 3.75 C5.56241723 4.66677388 6.74990516 5.58345621 7.9375 6.5 C11.17251403 9.4861668 11.17251403 9.4861668 11.375 12.75 C10.0146637 14.71160889 10.0146637 14.71160889 7.90844727 16.78417969 C7.12756241 17.56468689 6.34667755 18.34519409 5.54212952 19.14935303 C4.68389084 19.98178528 3.82565216 20.81421753 2.94140625 21.671875 C2.07434555 22.53186096 1.20728485 23.39184692 0.31394958 24.27789307 C-2.46672331 27.0305071 -5.26425119 29.76526605 -8.0625 32.5 C-9.94709681 34.35952923 -11.83057565 36.22019225 -13.71289062 38.08203125 C-18.33735301 42.65127129 -22.9757839 47.20595683 -27.625 51.75 C-30.76378389 50.23401668 -33.35173512 48.49192553 -36.125 46.375 C-47.61381337 38.36460465 -59.95320658 37.15208441 -73.546875 39.1875 C-84.70545586 42.03045054 -93.97602678 49.54578758 -100.625 58.75 C-102.60771386 62.31791541 -104.21507522 65.9222524 -105.625 69.75 C-105.98980469 70.63816406 -106.35460937 71.52632813 -106.73046875 72.44140625 C-109.71432014 83.4777474 -109.03912659 97.66156536 -103.625 107.75 C-103.18929687 108.6059375 -102.75359375 109.461875 -102.3046875 110.34375 C-95.93203063 121.90507285 -86.44163929 129.58856907 -73.68457031 133.31713867 C-62.4863509 135.67067625 -50.49617634 134.49215355 -40.625 128.75 C-39.83738281 128.31171875 -39.04976563 127.8734375 -38.23828125 127.421875 C-27.85740203 120.90165334 -19.04667959 110.90960015 -11.07421875 101.68359375 C-7.76195212 97.85274701 -4.24218556 94.29107645 -0.625 90.75 C4.79099301 85.40631132 4.79099301 85.40631132 9.875 79.75 C13.72688776 75.19062265 18.02312208 71.07753136 22.26171875 66.8828125 C25.24300977 63.92059157 28.16063316 60.96292402 30.875 57.75 C34.72622216 53.19141051 39.02163131 49.07897829 43.25952148 44.88500977 C46.83198233 41.33542182 50.22104401 37.71842121 53.47265625 33.87109375 C56.69824001 30.27460098 60.17650724 26.92725861 63.61303711 23.53369141 C66.53546623 20.63445952 69.35032303 17.71779166 72 14.5625 C88.69676537 -4.86276118 112.70416971 -18.17977175 138.375 -20.25 C159.39293397 -21.36020925 176.57066738 -18.64962037 195.375 -9.25 C196.42300781 -8.72664062 197.47101563 -8.20328125 198.55078125 -7.6640625 C222.11110321 5.13028453 240.01045271 28.72802832 247.66870117 54.27197266 C250.47451218 64.11607281 251.86155054 73.33746117 251.76611328 83.57861328 C251.7500638 85.61689695 251.76604331 87.65318294 251.78515625 89.69140625 C251.8324366 118.93309338 240.00276124 145.07040004 219.75 165.875 C200.69819173 184.75445192 175.93914557 195.01468037 149.1875 195.1875 C124.21370916 194.92735635 102.80438802 186.33281843 83.375 170.75 C82.66859375 170.20988281 81.9621875 169.66976562 81.234375 169.11328125 C74.50953787 163.6869391 69.54696575 156.60475608 64.375 149.75 C65.82688594 146.39956603 67.6569659 144.24513804 70.26171875 141.703125 C71.4228418 140.5584375 71.4228418 140.5584375 72.60742188 139.390625 C73.41759766 138.60171875 74.22777344 137.8128125 75.0625 137 C80.14370804 132.03060338 85.07778041 127.042486 89.70678711 121.64746094 C92.43653008 118.54259304 95.36848011 115.6500793 98.3125 112.75 C98.90095703 112.16605469 99.48941406 111.58210937 100.09570312 110.98046875 C101.51979793 109.56795195 102.9470525 108.1586219 104.375 106.75 C107.09418255 109.32423679 109.14248324 111.79420625 111.0625 115 C117.31479433 124.49537967 126.71165466 131.380782 137.74609375 134.3984375 C152.03146818 136.30881447 165.16566173 134.46772358 176.98828125 125.84375 C186.22652338 118.10549559 192.74952649 107.81043289 194.375 95.75 C195.23124151 85.2491493 195.34660331 75.29177281 190.375 65.75 C189.93929688 64.89148438 189.50359375 64.03296875 189.0546875 63.1484375 C182.51164737 51.31375835 173.91274008 45.69478768 161.6171875 40.609375 C151.09260157 37.81972572 137.83598824 38.25989721 128.375 43.75 C120.73967972 48.48665598 114.42972874 54.28235077 108.1784668 60.6652832 C106.68598754 62.18904416 105.18299317 63.70176242 103.67773438 65.21289062 C98.93434489 69.99496417 94.32928963 74.85469834 89.94213867 79.96899414 C87.39060849 82.86873127 84.6363215 85.55195619 81.875 88.25 C78.44462004 91.6377966 75.05215525 95.00222089 71.9375 98.6875 C68.62927342 102.59269979 65.00986259 106.15280926 61.375 109.75 C55.96005132 115.09465194 55.96005132 115.09465194 50.875 120.75 C47.02311224 125.30937735 42.72687792 129.42246864 38.48828125 133.6171875 C35.50699023 136.57940843 32.58936684 139.53707598 29.875 142.75 C24.9525667 148.56856859 19.387635 153.81545204 13.97167969 159.16870117 C12.5406087 160.58598661 11.11743282 162.01123355 9.6953125 163.4375 C-9.6824401 182.75000764 -34.84191473 194.16772065 -62.25 194.125 C-89.97504176 194.04036263 -114.73916305 183.10810666 -134.625 163.75 C-146.01693419 152.02345626 -153.90414936 137.94469174 -159.625 122.75 C-160.01461914 121.75129883 -160.01461914 121.75129883 -160.41210938 120.73242188 C-167.88285214 100.77843286 -167.76269303 72.78874067 -160.625 52.75 C-160.30354004 51.80833984 -160.30354004 51.80833984 -159.97558594 50.84765625 C-150.72011794 24.06472992 -132.19893564 2.28433279 -107.2421875 -11.05859375 C-72.42110064 -27.88179355 -30.44829309 -24.14864624 0 0 Z " fill="#FDFEFF" transform="translate(256.625,213.25)"/>
</svg>
