<svg xmlns="http://www.w3.org/2000/svg" viewBox="0 0 512 512" width="24" height="24" fill="#000000" style="opacity:1;"><path  d="M379.087 75.202c18.168 40.684 25.533 83.89 32.421 127.21q-1.896.538-3.794 1.082c-.91-2.534-1.984-5.021-2.707-7.61c-5.218-18.653-10.48-37.296-15.474-56.011c-1.797-6.733-6.035-10.084-12.096-13.381c-8.901-4.842-17.313-11.084-24.69-18.046c-4.707-4.44-8.735-7.149-15.413-7.078c-44.46.47-88.925.515-133.384.924c-2.963.03-6.63 1.124-8.728 3.065c-8.089 7.484-15.671 15.514-25.642 25.556c26.3 64.04 39.522 133.84 33.845 208.044c-12.626-8.084-22.4-14.48-22.981-31.418c-2.904-84.661-29.02-161.225-83.58-227.108c-1.228-1.482-1.838-3.476-2.738-5.23zM48.73 107.847c12.663 0 25.332-.2 37.984.172c2.51.072 6.022 1.668 7.277 3.68c37.836 60.79 67.334 124.635 71.155 197.682c.018.29-.282.594-1.362 2.716c-22.612-77.293-63.404-142.735-115.872-201.39l.819-2.86zM8 161.029c18.09-.658 33.39-1.318 48.692-1.602c1.541-.03 3.36 2.009 4.65 3.443c29.848 33.202 56.936 68.281 73.633 110.235c3.177 7.98 5.351 16.36 7.989 24.555C108.379 243.235 60.254 202.538 8 161.028Zm194.474 275.77c-31.481-50.066-61.803-98.29-92.128-146.513l1.112-1.428c2.542 2.047 56.622 45.412 80.91 65.302c6.766 5.541 11.878 5.441 18.915-.274c82.584-67.085 174.737-117.862 272.583-158.809c5.223-2.185 10.64-3.916 15.983-5.816c1.186-.42 2.44-.654 4.151-.222c-113.623 65.987-222.022 138.239-301.526 247.76"/></svg>
