<?xml version="1.0" encoding="UTF-8"?>
<!-- Generated by Pixelmator Pro 3.5.7 -->
<svg width="64" height="73" viewBox="0 0 64 73" xmlns="http://www.w3.org/2000/svg">
    <g id="Group-copy">
        <path id="Path" fill="#123678" fill-rule="evenodd" stroke="none" d="M 13.482285 60.694962 L 0.998384 52.884399 L 0.998384 19.502914 L 31.527868 2.001205 L 61.317604 19.532024 L 61.317604 54.64489 L 31.054855 71.68927 L 20.548372 65.115807 L 20.548372 51.041328 L 20.548372 49.119896 L 14.851504 45.555508 L 14.851504 27.453159 L 31.346497 17.99712 L 47.464485 27.482262 L 47.464485 46.451157 L 34.703495 53.638138 L 34.703495 45.998573 C 38.52874 44.52552 41.274452 40.739189 41.274452 36.270489 C 41.274452 30.510658 36.712814 25.88438 31.158138 25.88438 C 25.603172 25.88438 21.041817 30.510658 21.041817 36.270489 C 21.041817 40.739189 23.787249 44.52552 27.612494 45.998573 L 27.612494 60.473576 L 31.261133 62.756348 L 53.635483 50.15464 L 53.635483 23.924595 L 31.477489 10.884869 L 8.680504 23.953705 L 8.680504 48.628967 L 13.482285 51.633297 L 13.482285 60.694962 Z M 31.158138 31.498383 C 33.671822 31.498383 35.660439 33.664162 35.660439 36.270489 C 35.660439 38.876804 33.671822 41.042587 31.158138 41.042587 C 28.644447 41.042587 26.655558 38.876804 26.655558 36.270489 C 26.655558 33.664162 28.644447 31.498383 31.158138 31.498383 Z"/>
    </g>
</svg>