<?xml version="1.0" encoding="utf-8"?>
<!-- Generator: Adobe Illustrator 25.0.0, SVG Export Plug-In . SVG Version: 6.00 Build 0)  -->
<svg version="1.1" xmlns="http://www.w3.org/2000/svg" xmlns:xlink="http://www.w3.org/1999/xlink" x="0px" y="0px"
	 viewBox="0 0 345.07 345.07" style="enable-background:new 0 0 345.07 345.07;" xml:space="preserve">
<style type="text/css">
	.st0{fill:#F6E1DC;}
	.st1{fill:#F0AF9B;}
	.st2{fill:#FFFFFF;}
	.st3{fill:#080717;}
	.st4{fill:none;stroke:#85BAC6;stroke-width:0.4121;stroke-miterlimit:10;}
	.st5{fill:#F2ECDE;}
	.st6{fill:#85BAC6;}
	.st7{fill:#FCDEDE;}
	.st8{fill:#AAD2DC;}
	.st9{fill:#F5F5F5;}
	.st10{fill:#E8EDC5;}
	.st11{fill:#B9D2D7;}
	.st12{fill:#FFFFFF;stroke:#000000;stroke-width:2;stroke-linecap:round;stroke-linejoin:round;stroke-miterlimit:10;}
	.st13{fill:#CEE1E7;}
	.st14{fill:#EDE6E4;}
	.st15{fill:#FDE3EC;}
	.st16{fill:#FDEDE0;}
	.st17{fill:#C7E1E0;}
	.st18{fill:#EFCBBF;}
	.st19{fill:#23285C;}
	.st20{fill:#010101;}
	.st21{fill:#C6E0F5;}
	.st22{fill:#DDD6CC;}
	.st23{fill:#E0E0E0;}
	.st24{fill:#F3F3F3;}
</style>
<g id="Layer_3">
</g>
<g id="_x3C_Layer_x3E_">
	<g>

			<ellipse transform="matrix(0.7071 -0.7071 0.7071 0.7071 -71.4658 172.5339)" class="st0" cx="172.53" cy="172.53" rx="172.53" ry="172.53"/>
		<path d="M123.31,97.15c0,31.34-51.29,192.06,141.86,112.4c13.72-5.66-14.19-73.11-28.37-112.4
			c-10.64-29.48-25.41-56.74-56.74-56.74C148.72,40.41,123.31,65.81,123.31,97.15z"/>
		<path class="st2" d="M220.61,212.6c-24.98,2.38-88.03,16.65-88.03,16.65s-48.77,8.33-69,39.26c-3.86,5.9-9.73,13.5-16.3,22.62
			c31.45,33.2,75.91,53.94,125.25,53.94c40.3,0,77.34-13.86,106.71-37.01l2.03-20.52c0,0,3.57-24.98-5.95-44.01
			C265.81,224.49,245.59,210.22,220.61,212.6z"/>
		<g>
			<path d="M279.25,310.19c-0.07,0-0.14,0-0.21-0.01c-1.17-0.12-2.03-1.16-1.92-2.34l2.03-20.52c0.05-0.33,3.36-24.65-5.73-42.85
				c-10.08-20.16-30.73-31.84-52.61-29.76c-24.56,2.34-87.13,16.47-87.76,16.61c-0.59,0.1-48.21,8.57-67.68,38.34
				c-2.51,3.84-5.83,8.34-9.66,13.54c-2.1,2.85-4.35,5.91-6.7,9.15c-0.69,0.96-2.02,1.18-2.98,0.49c-0.96-0.69-1.17-2.03-0.49-2.98
				c2.35-3.26,4.61-6.33,6.72-9.19c3.8-5.15,7.08-9.6,9.53-13.34c10.75-16.44,29.35-26.5,43.07-32.04
				c14.76-5.97,26.85-8.07,27.35-8.15c0.52-0.12,63.36-14.31,88.19-16.68c23.66-2.25,45.96,10.35,56.83,32.1
				c9.7,19.41,6.3,44.22,6.15,45.27l-2.02,20.42C281.26,309.37,280.33,310.19,279.25,310.19z"/>
		</g>
		<g>
			<path d="M261.55,321.5c-1.14,0-2.08-0.9-2.13-2.04c-0.57-13.08-3.51-32.7-14.24-51.86c-0.58-1.03-0.21-2.33,0.82-2.91
				c1.03-0.57,2.33-0.21,2.91,0.82c11.14,19.89,14.18,40.21,14.78,53.76c0.05,1.18-0.86,2.18-2.04,2.23
				C261.61,321.5,261.58,321.5,261.55,321.5z"/>
		</g>
		<path d="M213.59,97.15c0,31.34,51.29,192.06-141.86,112.4C58,203.89,85.91,136.43,100.1,97.15
			c10.64-29.48,25.41-56.74,56.74-56.74S213.59,65.81,213.59,97.15z"/>
		<g>
			<g>
				<g>
					<path class="st2" d="M162.77,111.38c0.02,0,0.04,0,0.06,0c0.02,0,0.04,0,0.06,0H162.77z"/>
					<path d="M162.89,111.38h0.01H162.89z M162.89,111.38h-0.12c0.02,0,0.04,0,0.06,0C162.85,111.38,162.87,111.38,162.89,111.38
						L162.89,111.38z"/>
				</g>
				<g>
					<path class="st2" d="M163.21,263.99c-19.65,0-37.62-11.47-45.45-28.76c8.82-2.76,15.11-3.86,15.18-3.88l4.33-0.96
						c0.98-0.22,1.67-1.08,1.67-2.09v-90.85c0-13.17,10.72-23.91,23.89-23.94c13.16,0.03,23.88,10.77,23.88,23.94v80.11
						c0,0.64,0.28,1.24,0.77,1.64c0.39,0.32,0.87,0.49,1.36,0.49c0.13,0,0.26-0.01,0.39-0.04c9.4-1.75,17.31-3.09,23.57-3.97
						c0,0.16,0.01,0.31,0.01,0.47C212.82,242.54,190.57,263.99,163.21,263.99z"/>
					<path d="M162.83,115.65c11.99,0.03,21.75,9.81,21.75,21.81v80.11c0,1.27,0.57,2.48,1.54,3.29c0.77,0.64,1.74,0.99,2.73,0.99
						c0.26,0,0.52-0.02,0.78-0.07c8.17-1.53,15.21-2.73,21-3.6c-1.09,24.27-21.95,43.68-47.43,43.68c-17.97,0-34.47-10-42.43-25.31
						c7.4-2.18,12.47-3.07,12.53-3.08c0.07-0.01,0.15-0.03,0.22-0.04c0,0,1.55-0.35,4.21-0.94c1.96-0.43,3.35-2.17,3.35-4.17v-90.85
						C141.08,125.47,150.84,115.69,162.83,115.65L162.83,115.65z M162.83,111.38c-14.38,0.03-26.02,11.7-26.02,26.08v90.85
						c-2.67,0.59-4.22,0.94-4.22,0.94s-7.44,1.28-17.69,4.66c7.42,18.82,26.23,32.22,48.33,32.22c28.58,0,51.75-22.37,51.75-49.96
						c0-0.98-0.09-1.93-0.15-2.9c-7.29,0.96-16.44,2.52-25.96,4.3v-80.11C188.85,123.07,177.21,111.41,162.83,111.38L162.83,111.38z
						"/>
				</g>
			</g>
			<g>
				<path class="st2" d="M122.01,129.57c3.24,11.95,0.79,23.01-5.48,24.71c-6.27,1.7-13.98-6.6-17.22-18.55
					c-3.24-11.95-0.79-23.01,5.48-24.71C111.06,109.32,118.77,117.63,122.01,129.57z"/>
				<path d="M114.84,156.65c-3.19,0-6.53-1.74-9.62-5.07c-3.48-3.75-6.31-9.18-7.97-15.29c-3.61-13.28-0.54-25.29,6.98-27.33
					c3.84-1.05,8.05,0.65,11.87,4.76c3.48,3.75,6.31,9.18,7.97,15.28l0,0c3.61,13.29,0.54,25.29-6.98,27.33
					C116.36,156.55,115.61,156.65,114.84,156.65z M106.45,112.95c-0.38,0-0.74,0.05-1.09,0.14c-4.39,1.19-7.11,10.56-3.98,22.09
					c1.48,5.45,3.96,10.24,6.98,13.5c2.65,2.85,5.43,4.14,7.62,3.55c4.39-1.19,7.1-10.56,3.98-22.09l0,0
					c-1.48-5.45-3.96-10.24-6.98-13.5C110.75,114.24,108.43,112.95,106.45,112.95z"/>
			</g>
			<g>
				<path class="st2" d="M201.08,129.57c-3.24,11.95-0.79,23.01,5.48,24.71c6.27,1.7,13.98-6.6,17.22-18.55
					c3.24-11.95,0.79-23.01-5.48-24.71C212.03,109.32,204.32,117.63,201.08,129.57z"/>
				<path d="M208.25,156.65c-0.76,0-1.51-0.1-2.25-0.3c-7.52-2.04-10.59-14.05-6.98-27.33l0,0c1.66-6.1,4.49-11.53,7.97-15.28
					c3.82-4.11,8.03-5.81,11.87-4.76c7.52,2.04,10.58,14.05,6.98,27.33c-1.66,6.1-4.49,11.53-7.97,15.29
					C214.78,154.9,211.44,156.65,208.25,156.65z M203.14,130.13c-3.13,11.53-0.42,20.89,3.98,22.09c2.19,0.59,4.97-0.7,7.62-3.55
					c3.02-3.26,5.5-8.05,6.98-13.5c3.13-11.53,0.42-20.89-3.97-22.09c-2.19-0.59-4.97,0.7-7.62,3.55
					C207.1,119.89,204.62,124.68,203.14,130.13L203.14,130.13z"/>
			</g>
			<g>
				<path class="st2" d="M161.69,218.3L161.69,218.3c-27.06,0-49-31.78-49-58.85V101.3c0-27.06,31.06-11.79,49-49l0,0
					c8.25,27.39,49,21.94,49,49v58.16C210.69,186.52,188.75,218.3,161.69,218.3z"/>
				<path d="M161.69,220.44c-28.33,0-51.14-33.36-51.14-60.98V101.3c0-14.64,8.52-18.22,18.4-22.38c9.8-4.12,21.99-9.25,30.82-27.55
					c0.38-0.8,1.22-1.26,2.09-1.2c0.88,0.07,1.62,0.67,1.88,1.51c3.7,12.3,14.66,17.6,25.25,22.72
					c11.72,5.67,23.84,11.53,23.84,26.9v58.16C212.83,187.08,190.02,220.44,161.69,220.44z M161.41,57.45
					c-9.26,16.36-21.13,21.34-30.8,25.41c-9.5,3.99-15.78,6.63-15.78,18.44v58.16c0,25.69,20.9,56.71,46.86,56.71
					c25.96,0,46.86-31.02,46.86-56.71V101.3c0-12.68-9.93-17.49-21.43-23.05C177.48,73.59,166.7,68.37,161.41,57.45z"/>
			</g>
			<path d="M130,131.55c1.28,3.28,4.24,5.19,6.6,4.27c2.36-0.92,3.24-4.33,1.95-7.62c-1.28-3.28-4.24-5.19-6.6-4.27
				C129.59,124.85,128.71,128.26,130,131.55z"/>
			<g>
				<path d="M146.17,121.1c-0.46,0-0.92-0.15-1.31-0.45c-2.22-1.72-5.29-2.79-8.65-3.03c-4.08-0.28-7.97,0.73-10.38,2.73
					c-0.91,0.75-2.25,0.63-3.01-0.28c-0.75-0.91-0.63-2.26,0.28-3.01c3.24-2.69,8.24-4.07,13.41-3.71c4.2,0.3,8.09,1.68,10.97,3.91
					c0.93,0.72,1.1,2.06,0.38,3C147.44,120.82,146.81,121.1,146.17,121.1z"/>
			</g>
			<path d="M182.49,131.55c1.28,3.28,4.24,5.19,6.6,4.27c2.36-0.92,3.24-4.33,1.95-7.62c-1.28-3.28-4.24-5.19-6.6-4.27
				C182.08,124.85,181.2,128.26,182.49,131.55z"/>
			<g>
				<path d="M198.66,121.1c-0.46,0-0.92-0.15-1.31-0.45c-2.22-1.72-5.29-2.79-8.65-3.03c-4.08-0.28-7.97,0.73-10.38,2.73
					c-0.91,0.75-2.26,0.62-3.01-0.28c-0.75-0.91-0.63-2.26,0.28-3.01c3.24-2.69,8.26-4.07,13.41-3.71c4.2,0.3,8.09,1.68,10.97,3.91
					c0.93,0.72,1.1,2.06,0.38,3C199.93,120.82,199.29,121.1,198.66,121.1z"/>
			</g>
			<g>
				<path d="M159.11,153.95c-1.38,0-2.74-0.57-3.6-1.58c-1.7-2.01-1.53-4.68-1.43-6.28c0.6-9.13,1.42-18.36,2.44-27.44
					c0.13-1.17,1.2-2.02,2.36-1.88c1.17,0.13,2.02,1.19,1.88,2.36c-1.02,9.01-1.83,18.18-2.43,27.24c-0.08,1.23-0.12,2.6,0.42,3.23
					c0.05,0.04,0.17,0.07,0.28,0.07c0.35-0.92,1.31-1.5,2.31-1.36c1.17,0.17,1.98,1.26,1.81,2.42c-0.21,1.46-1.24,2.59-2.75,3.03
					C159.99,153.89,159.55,153.95,159.11,153.95z"/>
			</g>
			<g>
				<path d="M168.97,169.51c-1.64,0-3.25-0.29-4.76-0.87c-1.1-0.42-1.65-1.66-1.23-2.76c0.42-1.1,1.66-1.65,2.76-1.23
					c2.5,0.96,5.49,0.73,8.18-0.65c2.7-1.38,4.64-3.66,5.32-6.25c0.3-1.14,1.47-1.82,2.61-1.52c1.14,0.3,1.82,1.47,1.52,2.61
					c-0.99,3.77-3.73,7.03-7.51,8.96C173.67,168.93,171.29,169.51,168.97,169.51z"/>
			</g>
		</g>
	</g>
</g>
</svg>
